<svg width="512" height="512" viewBox="0 0 512 512" fill="none" xmlns="http://www.w3.org/2000/svg">
<path d="M126.698 276.037H122.698L122.078 337.177H191.118V272.397L126.698 272.037V276.037Z" fill="black"/>
<path d="M110.38 272.138C110.3 271.918 110.02 271.978 110.02 272.198V334.998C110.02 338.098 112.34 340.618 115.2 340.618H120.38V276.398H116.02C113.42 276.398 111.22 274.618 110.38 272.138Z" fill="black"/>
<path d="M361.778 272.398H194.918V337.178H361.778V272.398Z" fill="black"/>
<path d="M204 251.38V174H124V251.38V266H191.12H194.92H204V251.38Z" fill="black"/>
<path d="M110 176.52V253.56V263.48C110 267.08 112.68 270 116 270H120.36H122V170H116C112.68 170 110 172.92 110 176.52Z" fill="black"/>
<path d="M401.778 174H208.398V251.38V266H361.778H401.778V174Z" fill="black"/>
</svg>
