<svg width="512" height="512" viewBox="0 0 512 512" fill="none" xmlns="http://www.w3.org/2000/svg">
<path d="M314.66 335.076C321.288 335.076 326.66 329.704 326.66 323.076C326.66 316.449 321.288 311.076 314.66 311.076C308.033 311.076 302.66 316.449 302.66 323.076C302.66 329.704 308.033 335.076 314.66 335.076Z" fill="black"/>
<path d="M338.102 376.195C344.729 376.195 350.102 370.823 350.102 364.195C350.102 357.568 344.729 352.195 338.102 352.195C331.474 352.195 326.102 357.568 326.102 364.195C326.102 370.823 331.474 376.195 338.102 376.195Z" fill="black"/>
<path d="M343 296.115C349.627 296.115 355 290.743 355 284.115C355 277.488 349.627 272.115 343 272.115C336.373 272.115 331 277.488 331 284.115C331 290.743 336.373 296.115 343 296.115Z" fill="black"/>
<path d="M285.102 382.217C291.729 382.217 297.102 376.844 297.102 370.217C297.102 363.589 291.729 358.217 285.102 358.217C278.474 358.217 273.102 363.589 273.102 370.217C273.102 376.844 278.474 382.217 285.102 382.217Z" fill="black"/>
<path d="M200.316 277.263L160.316 346.543L239.988 392.543L279.988 323.263L200.316 277.263Z" fill="black"/>
<path d="M242.461 396.275L239.461 401.475C237.801 404.335 233.941 405.215 230.821 403.415L155.521 359.935C152.401 358.135 151.221 354.355 152.881 351.475L155.881 346.275L242.461 396.275Z" fill="black"/>
<path d="M299.203 105.999L202.523 273.449L282.195 319.449L378.875 151.999L299.203 105.999Z" fill="black"/>
<path d="M173.102 267.436C179.729 267.436 185.102 262.063 185.102 255.436C185.102 248.808 179.729 243.436 173.102 243.436C166.474 243.436 161.102 248.808 161.102 255.436C161.102 262.063 166.474 267.436 173.102 267.436Z" fill="black"/>
<path d="M146 228.615C152.627 228.615 158 223.243 158 216.615C158 209.988 152.627 204.615 146 204.615C139.373 204.615 134 209.988 134 216.615C134 223.243 139.373 228.615 146 228.615Z" fill="black"/>
<path d="M148.461 308.816C155.088 308.816 160.461 303.444 160.461 296.816C160.461 290.189 155.088 284.816 148.461 284.816C141.834 284.816 136.461 290.189 136.461 296.816C136.461 303.444 141.834 308.816 148.461 308.816Z" fill="black"/>
<path d="M198.219 217.775C204.846 217.775 210.219 212.403 210.219 205.775C210.219 199.148 204.846 193.775 198.219 193.775C191.591 193.775 186.219 199.148 186.219 205.775C186.219 212.403 191.591 217.775 198.219 217.775Z" fill="black"/>
</svg>
