<svg width="512" height="512" viewBox="0 0 512 512" fill="none" xmlns="http://www.w3.org/2000/svg">
<path d="M175.197 292.195H110.797V348.195H175.197V292.195Z" fill="black"/>
<path d="M178 349.596V353.796C178 356.12 175.956 357.996 173.436 357.996H112.564C110.044 357.996 108 356.12 108 353.796V349.596H178Z" fill="black"/>
<path d="M175.201 153.764H110.801V289.116H175.201V153.764Z" fill="black"/>
<path d="M302 307.76H210V387.76H302V307.76Z" fill="black"/>
<path d="M306 389.76V395.76C306 399.08 303.08 401.76 299.48 401.76H212.52C208.92 401.76 206 399.08 206 395.76V389.76H306Z" fill="black"/>
<path d="M302 110H210V303.36H302V110Z" fill="black"/>
<path d="M401.197 292.195H336.797V348.195H401.197V292.195Z" fill="black"/>
<path d="M404 349.596V353.796C404 356.12 401.956 357.996 399.436 357.996H338.564C336.044 357.996 334 356.12 334 353.796V349.596H404Z" fill="black"/>
<path d="M401.201 153.764H336.801V289.116H401.201V153.764Z" fill="black"/>
</svg>
