<svg width="512" height="512" viewBox="0 0 512 512" fill="none" xmlns="http://www.w3.org/2000/svg">
<path d="M310.263 337.779C286.163 327.499 262.403 327.499 254.623 337.239C254.023 337.999 253.483 338.819 253.083 339.699C247.503 351.859 264.043 370.699 290.043 381.779C316.043 392.859 341.643 391.999 347.223 379.859C347.623 378.979 347.903 378.059 348.083 377.099C350.343 364.999 334.383 348.059 310.263 337.779Z" fill="black"/>
<path d="M314.003 217.88C332.103 223.22 340.523 253.54 336.543 279.62C333.483 299.62 326.023 319 312.443 325.56C314.803 326.36 313.503 325.92 315.823 326.9C338.103 336.4 358.983 353.34 356.523 365.34L401.123 259.26C396.383 245.6 382.203 230.7 363.723 221.7C344.063 212.12 324.763 209.88 312.123 215.7C311.483 216 310.843 216.34 310.203 216.7L314.003 217.88Z" fill="black"/>
<path d="M427.16 144.94C421.36 138.8 413.36 132.62 402.62 128.5C393.92 125.16 385.62 124.02 378.38 124C364.72 123.94 352.32 131.72 346.76 143.78L312 211.72C325.18 205.86 344.94 208.14 364.96 217.9C383 226.68 397 241.06 402.56 254.7L436 182C441.52 169.96 436.32 154.64 427.16 144.94Z" fill="black"/>
<path d="M255.488 313.64C247.348 303.82 244.188 285.96 246.648 266.38C250.028 239.62 265.248 218.22 279.448 218.62L188.828 208C179.008 216.32 170.328 234 167.328 254.18C164.268 274.9 166.568 293.38 173.468 304.18L253.508 318.64L255.568 319.02L264.988 320.7C262.928 319.98 260.948 318.78 259.088 317.24C257.828 316.2 256.628 315.02 255.488 313.64Z" fill="black"/>
<path d="M320.68 277.599C324 251.519 314.72 228.079 299.64 222.739C298.9 222.479 298.16 222.259 297.4 222.099C297.16 222.039 296.88 221.999 296.62 221.939C296.48 221.919 296.38 221.879 296.24 221.859C295.48 221.739 294.74 221.679 294 221.639C277.74 220.899 262.32 240.719 258.92 267.479C257.14 281.559 259.04 294.839 263.52 304.939C265.36 309.079 267.6 312.699 270.22 315.599C273.22 318.899 276.68 321.299 280.52 322.519C281.46 322.819 282.4 323.059 283.38 323.219C284.1 323.339 284.82 323.399 285.54 323.439C286.08 323.459 286.6 323.479 287.16 323.459C290.74 323.339 294.26 322.199 297.6 320.259C308.86 313.679 318.14 297.599 320.68 277.599Z" fill="black"/>
<path d="M162.641 253.619C165.561 233.959 173.781 216.619 183.401 207.499L113 197.999C101.78 196.179 90.541 205.919 84.521 217.099C80.701 224.179 77.341 233.299 76.321 244.419C75.481 253.399 76.381 261.439 77.961 268.179C80.941 280.879 90.181 290.259 101.441 292.099L168.101 303.559C161.721 292.139 159.641 273.859 162.641 253.619Z" fill="black"/>
</svg>
