<svg width="512" height="512" viewBox="0 0 512 512" fill="none" xmlns="http://www.w3.org/2000/svg">
<path d="M226.633 169.933C216.713 160.013 197.593 147.953 182.873 146.433L180.153 146.153C171.493 145.253 162.293 148.753 155.513 155.533C148.813 162.233 145.313 171.313 146.113 179.893L146.293 181.833C147.693 196.833 159.973 216.433 170.053 226.513L226.633 169.933Z" fill="black"/>
<path d="M357.513 306.354L306.473 357.394C307.753 359.214 307.913 361.574 306.933 363.514L311.433 367.994L367.993 311.434L363.473 306.914C361.553 307.774 359.273 307.594 357.513 306.354Z" fill="black"/>
<path d="M305.073 355.973L356.113 304.933C354.853 303.173 354.693 300.893 355.553 298.973L229.473 172.773L172.633 229.613L298.933 355.533C300.873 354.533 303.253 354.673 305.073 355.973Z" fill="black"/>
<path d="M344.053 226.633C353.973 216.713 366.033 197.593 367.553 182.873L367.833 180.153C368.733 171.493 365.233 162.293 358.453 155.513C351.753 148.813 342.673 145.313 334.093 146.113L332.153 146.293C317.153 147.693 297.553 159.973 287.473 170.053L344.053 226.633Z" fill="black"/>
<path d="M207.652 357.513L156.612 306.473C154.792 307.753 152.432 307.913 150.492 306.933L146.012 311.433L202.572 367.993L207.092 363.473C206.212 361.553 206.392 359.273 207.652 357.513Z" fill="black"/>
<path d="M317.952 252.713L341.232 229.453L284.392 172.633L261.172 195.913L317.952 252.713Z" fill="black"/>
<path d="M195.911 261.373L158.491 298.913C159.471 300.873 159.331 303.233 158.031 305.053L209.071 356.093C210.831 354.833 213.111 354.673 215.031 355.533L252.571 318.033L195.911 261.373Z" fill="black"/>
</svg>
