<svg width="512" height="512" viewBox="0 0 512 512" fill="none" xmlns="http://www.w3.org/2000/svg">
<path d="M296.379 186.5C296.379 172.48 291.379 150.42 282.059 138.92L280.339 136.8C274.859 130.04 265.879 126 256.299 126C246.819 126 237.939 129.94 232.419 136.58L231.179 138.08C221.539 149.7 216.379 172.24 216.379 186.5H296.379Z" fill="black"/>
<path d="M292.461 375.5H220.281C219.901 377.68 218.341 379.46 216.281 380.16V386.5H296.261V380.1C294.321 379.36 292.821 377.62 292.461 375.5Z" fill="black"/>
<path d="M220.3 373.5H292.48C292.84 371.38 294.32 369.64 296.3 368.9L296.38 190.5H216L216.28 368.84C218.34 369.52 219.92 371.3 220.3 373.5Z" fill="black"/>
</svg>
