<svg width="512" height="512" viewBox="0 0 512 512" fill="none" xmlns="http://www.w3.org/2000/svg">
<path d="M329.362 208.899C333.562 201.619 337.642 190.919 339.742 180.379C342.062 180.959 344.342 181.839 346.482 183.079C352.942 186.819 357.442 193.019 358.502 199.739L358.842 201.839C360.662 213.219 355.442 230.059 349.982 239.519L321.262 222.939L327.382 212.359L329.362 208.899Z" fill="black"/>
<path d="M271.982 374.459L274.482 370.139C273.442 368.879 273.122 367.119 273.702 365.539L247.542 350.439L243.262 357.859L271.982 374.459Z" fill="black"/>
<path d="M274.48 364.199C275.56 362.899 277.24 362.299 278.86 362.579L348.42 242.219L319.7 225.639L248.34 349.099L274.48 364.199Z" fill="black"/>
<path d="M331.738 178.38C333.138 171.34 333.658 164.38 332.738 158.54L332.298 155.84C330.918 147.24 325.158 139.26 316.878 134.46C308.678 129.72 298.998 128.7 290.898 131.68L289.078 132.36C274.958 137.6 259.198 154.54 252.078 166.88L297.898 193.34L321.358 206.88C325.558 199.62 329.638 188.92 331.738 178.38Z" fill="black"/>
<path d="M223.48 368.619L160.96 332.539C159.54 334.259 157.3 334.999 155.16 334.579L152 340.079L221.26 380.059L224.46 374.519C223.14 372.899 222.72 370.639 223.48 368.619Z" fill="black"/>
<path d="M319.36 210.36L295.16 196.4L249.76 170.18L160.82 324.76C162.26 326.4 162.74 328.72 161.96 330.8L224.46 366.88C225.84 365.22 228 364.46 230.08 364.8L235.26 355.86L239.54 348.44L240.32 347.1L311.68 223.64L313.24 220.94L319.36 210.36Z" fill="black"/>
</svg>
