<svg width="512" height="512" viewBox="0 0 512 512" fill="none" xmlns="http://www.w3.org/2000/svg">
<path d="M325.938 186.381C339.958 186.381 362.018 181.381 373.518 172.061L375.637 170.341C382.397 164.861 386.438 155.881 386.438 146.301C386.438 136.821 382.497 127.941 375.857 122.421L374.357 121.181C362.737 111.541 340.198 106.381 325.938 106.381V186.381Z" fill="black"/>
<path d="M136.938 182.459V110.279C134.757 109.899 132.977 108.339 132.277 106.279H125.938V186.259H132.337C133.077 184.319 134.818 182.819 136.938 182.459Z" fill="black"/>
<path d="M138.938 110.3V182.48C141.057 182.84 142.798 184.32 143.538 186.3L321.938 186.38V106L143.598 106.28C142.918 108.34 141.137 109.92 138.938 110.3Z" fill="black"/>
<path d="M325.938 294.76C339.958 294.76 362.018 289.76 373.518 280.44L375.637 278.72C382.397 273.24 386.438 264.26 386.438 254.68C386.438 245.2 382.497 236.32 375.857 230.8L374.357 229.56C362.737 219.92 340.198 214.76 325.938 214.76V294.76Z" fill="black"/>
<path d="M136.938 290.838V218.658C134.757 218.278 132.977 216.718 132.277 214.658H125.938V294.638H132.337C133.077 292.698 134.818 291.198 136.938 290.838Z" fill="black"/>
<path d="M138.938 218.679V290.859C141.057 291.219 142.798 292.699 143.538 294.679L321.938 294.759V214.379L143.598 214.659C142.918 216.719 141.137 218.299 138.938 218.679Z" fill="black"/>
<path d="M325.938 403.141C339.958 403.141 362.018 398.141 373.518 388.821L375.637 387.101C382.397 381.621 386.438 372.641 386.438 363.061C386.438 353.581 382.497 344.701 375.857 339.181L374.357 337.941C362.737 328.301 340.198 323.141 325.938 323.141V403.141Z" fill="black"/>
<path d="M136.938 399.219V327.039C134.757 326.659 132.977 325.099 132.277 323.039H125.938V403.019H132.337C133.077 401.079 134.818 399.579 136.938 399.219Z" fill="black"/>
<path d="M138.938 327.06V399.24C141.057 399.6 142.798 401.08 143.538 403.06L321.938 403.14V322.76L143.598 323.04C142.918 325.1 141.137 326.68 138.938 327.06Z" fill="black"/>
</svg>
