<svg width="512" height="512" viewBox="0 0 512 512" fill="none" xmlns="http://www.w3.org/2000/svg">
<path d="M191.999 204.184C191.999 193.719 187.521 177.252 179.172 168.668L177.632 167.085C172.723 162.039 164.679 159.023 156.098 159.023C147.606 159.023 139.652 161.964 134.708 166.921L133.597 168.041C124.962 176.714 120.34 193.539 120.34 204.184H191.999Z" fill="black"/>
<path d="M188.488 345.264H123.833C123.493 346.891 122.095 348.22 120.25 348.742V353.475H191.892V348.697C190.154 348.145 188.81 346.846 188.488 345.264Z" fill="black"/>
<path d="M123.852 343.771H188.507C188.829 342.189 190.155 340.89 191.928 340.337L192 207.17H120L120.251 340.293C122.096 340.8 123.511 342.129 123.852 343.771Z" fill="black"/>
<path d="M300.379 186.5C300.379 172.48 295.379 150.42 286.059 138.92L284.339 136.8C278.859 130.04 269.879 126 260.299 126C250.819 126 241.939 129.94 236.419 136.58L235.179 138.08C225.539 149.7 220.379 172.24 220.379 186.5H300.379Z" fill="black"/>
<path d="M296.461 375.5H224.281C223.901 377.68 222.341 379.46 220.281 380.16V386.5H300.261V380.1C298.321 379.36 296.821 377.62 296.461 375.5Z" fill="black"/>
<path d="M224.3 373.5H296.48C296.84 371.38 298.32 369.64 300.3 368.9L300.38 190.5H220L220.28 368.84C222.34 369.52 223.92 371.3 224.3 373.5Z" fill="black"/>
<path d="M400.382 204.184C400.382 193.719 395.904 177.252 387.555 168.668L386.015 167.085C381.106 162.039 373.062 159.023 364.481 159.023C355.989 159.023 348.035 161.964 343.09 166.921L341.98 168.041C333.345 176.714 328.723 193.539 328.723 204.184H400.382Z" fill="black"/>
<path d="M396.871 345.264H332.216C331.875 346.891 330.478 348.22 328.633 348.742V353.475H400.275V348.697C398.537 348.145 397.193 346.846 396.871 345.264Z" fill="black"/>
<path d="M332.235 343.771H396.889C397.212 342.189 398.538 340.89 400.311 340.337L400.383 207.17H328.383L328.634 340.293C330.479 340.8 331.894 342.129 332.235 343.771Z" fill="black"/>
</svg>
