<svg width="512" height="160" viewBox="0 0 512 160" fill="none" xmlns="http://www.w3.org/2000/svg">
<path d="M379.545 12.4837L379.235 11.4479L379.706 11.125L389.298 5.62305H383.702L374.877 10.1564H237.449V20.4474H425.646V12.4837H379.545ZM276.084 17.73H252.906V13.6944H276.084V17.73ZM309.714 17.73H286.536V13.6944H309.714V17.73ZM342.444 17.73H319.266V13.6944H342.444V17.73ZM375.63 17.73H352.452V13.6944H375.63V17.73ZM408.359 17.73H385.181V13.6944H408.359V17.73Z" fill="black"/>
<path d="M215.118 42.0645H173.094V65.6327H215.065L214.957 60.9513H190.245C189.067 60.8224 187.974 60.2724 187.169 59.4025C186.363 58.5326 185.898 57.4012 185.86 56.2162C185.857 54.9347 186.212 53.6779 186.885 52.5871C187.557 51.4963 188.521 50.6148 189.667 50.0416C190.198 49.7489 190.795 49.5962 191.402 49.5977H215.011L215.118 42.0645ZM181.569 54.4539H177.25C176.336 54.4539 176.255 54.5346 176.282 53.7813C176.282 53.445 177.035 53.7006 177.25 52.5437C177.25 52.5437 177.25 52.0056 177.25 51.6962C177.179 51.3829 177.179 51.0575 177.25 50.7441C177.322 50.4308 177.463 50.1375 177.663 49.8862C177.863 49.6349 178.118 49.432 178.407 49.2925C178.697 49.153 179.014 49.0806 179.336 49.0806C179.657 49.0806 179.974 49.153 180.264 49.2925C180.553 49.432 180.808 49.6349 181.008 49.8862C181.208 50.1375 181.35 50.4308 181.421 50.7441C181.492 51.0575 181.492 51.3829 181.421 51.6962C181.434 51.9805 181.465 52.2636 181.515 52.5437C181.77 53.7275 182.51 53.3643 182.524 53.7813C182.537 54.1983 182.645 54.5077 181.569 54.4539Z" fill="black"/>
<path d="M157.167 80.0669C151.786 79.3943 148.463 73.6905 145.315 67.3949C142.396 61.5566 139.369 53.0817 132.374 49.5707C129.953 48.36 120.604 48.5214 115.774 49.2344C114.192 49.4382 112.698 50.0761 111.456 51.0774C106.385 55.3417 109.828 62.3369 109.425 65.4981C109.055 68.5873 107.993 71.5532 106.317 74.1748C94.5198 92.3622 87 121.944 87 151.646C87 158.883 94.3314 159.435 97.5734 159.327C99.0419 159.298 100.511 159.357 101.972 159.502C120.913 161.184 133.477 158.386 133.477 154.336C133.477 146.05 127.585 136.001 129.939 131.575C131.567 128.535 136.154 125.118 136.867 123.571C137.381 122.385 137.69 121.121 137.782 119.832C137.954 117.508 137.887 115.173 137.58 112.863C137.43 111.883 137.614 110.88 138.102 110.017C138.59 109.153 139.354 108.479 140.271 108.101C145.288 106.043 145.477 102.034 145.477 102.034C145.702 101.161 146.108 100.344 146.669 99.6371C147.23 98.9304 147.933 98.3492 148.732 97.9314C149.501 97.501 150.366 97.2697 151.248 97.2588L164.969 97.0839C165.625 97.0646 166.248 96.7894 166.704 96.3171C166.785 96.2294 166.829 96.1136 166.825 95.9943C166.825 94.945 166.825 93.9361 166.933 92.981C167.256 84.3985 162.104 80.6857 157.167 80.0669Z" fill="black"/>
<path d="M130.316 22.1147C133.401 23.4037 136.159 25.3663 138.387 27.8588C138.688 28.1795 138.915 28.5631 139.049 28.9818C139.184 29.4005 139.225 29.844 139.167 30.2802C138.549 35.0692 140.082 36.8986 141.36 37.5982C142.705 36.6161 150.615 27.5494 152.243 21.9533C148.624 21.9533 147.333 24.3208 145.84 25.1818C144.689 23.216 142.824 21.7703 140.634 21.1461C136.154 19.6529 131.554 20.2314 130.128 21.1461C130.041 21.2055 129.974 21.2888 129.935 21.3858C129.895 21.4828 129.884 21.5893 129.904 21.6921C129.924 21.795 129.974 21.8897 130.047 21.9648C130.12 22.0399 130.214 22.092 130.316 22.1147Z" fill="black"/>
<path d="M187.219 28.7867C187.326 29.5801 187.691 30.3163 188.257 30.8825C188.824 31.4486 189.56 31.8135 190.353 31.921L215.119 31.8403V25.4102H190.353C189.156 25.4102 187.165 25.6927 187.219 28.7867Z" fill="black"/>
<path d="M187.219 56.4856C187.324 57.2799 187.688 58.0174 188.255 58.5839C188.821 59.1505 189.559 59.5146 190.353 59.62L215.011 59.5393V53.136H190.353C189.156 53.0957 187.165 53.3916 187.219 56.4856Z" fill="black"/>
<path d="M412.893 0H395.378V4.26434H412.893V0Z" fill="black"/>
<path d="M425.322 11.1382L423.48 5.62283H412.893V5.60938H395.378V5.62283H392.001L382.396 11.1382H425.322Z" fill="black"/>
<path d="M263.278 33.1465H217.984V37.5453H263.278V33.1465Z" fill="black"/>
<path d="M273.986 35.3392C273.982 34.7564 273.748 34.1987 273.335 33.7879C272.922 33.3771 272.362 33.1465 271.78 33.1465H264.569V37.5184H271.686C271.981 37.5311 272.276 37.4842 272.552 37.3807C272.829 37.2772 273.083 37.1191 273.297 36.9159C273.512 36.7126 273.683 36.4683 273.802 36.1974C273.92 35.9266 273.983 35.6347 273.986 35.3392Z" fill="black"/>
<path d="M215.118 17.2461H173.094V40.7202H215.065V33.1869H190.434C189.3 33.0011 188.253 32.4633 187.442 31.6497C186.631 30.8361 186.096 29.7879 185.914 28.6536C185.772 27.4422 185.963 26.2152 186.465 25.1039C186.968 23.9926 187.763 23.0387 188.766 22.3445C189.306 21.9927 189.937 21.8058 190.582 21.8064H215.118V17.2461ZM181.73 29.8104H177.412C176.497 29.8104 176.416 29.8104 176.443 29.1378C176.443 28.8015 177.197 29.0571 177.412 27.9002C177.412 27.9002 177.412 27.3487 177.412 27.0527C177.34 26.7394 177.34 26.414 177.412 26.1006C177.483 25.7873 177.624 25.4941 177.824 25.2427C178.025 24.9914 178.279 24.7885 178.569 24.649C178.858 24.5095 179.176 24.4371 179.497 24.4371C179.818 24.4371 180.136 24.5095 180.425 24.649C180.715 24.7885 180.969 24.9914 181.17 25.2427C181.37 25.4941 181.511 25.7873 181.582 26.1006C181.654 26.414 181.654 26.7394 181.582 27.0527C181.596 27.3369 181.627 27.6199 181.676 27.9002C181.932 29.084 182.672 28.7074 182.685 29.1378C182.699 29.5683 182.806 29.8508 181.73 29.8104Z" fill="black"/>
<path d="M168.237 60.5762H170.403V22.3047H168.237C167.794 22.3082 167.37 22.487 167.057 22.8019C166.745 23.1169 166.569 23.5426 166.569 23.9862V58.9619C166.587 59.3938 166.77 59.8025 167.08 60.1031C167.391 60.4037 167.805 60.5731 168.237 60.5762Z" fill="black"/>
<path d="M156.683 6.42921C156.683 6.07243 156.541 5.73027 156.289 5.47799C156.036 5.22571 155.694 5.08398 155.337 5.08398C154.981 5.08398 154.638 5.22571 154.386 5.47799C154.134 5.73027 153.992 6.07243 153.992 6.42921C153.992 6.78598 154.134 7.12815 154.386 7.38042C154.638 7.6327 154.981 7.77443 155.337 7.77443C155.694 7.77443 156.036 7.6327 156.289 7.38042C156.541 7.12815 156.683 6.78598 156.683 6.42921Z" fill="black"/>
<path d="M237.584 45.1328H237.557H217.984V51.5899H237.571V47.7829H237.584H414.4L414.898 45.1328H237.584Z" fill="black"/>
<path d="M154.812 11.9585H159.548V8.55504H177.157C176.509 7.56918 175.667 6.72635 174.681 6.07855C173.695 5.43074 172.588 4.99168 171.426 4.78842H160.664V1.51953H150.023V11.9585H154.786C154.786 11.9585 154.799 11.9585 154.812 11.9585ZM152.593 6.37578C152.593 5.84366 152.751 5.3235 153.046 4.88105C153.342 4.43861 153.762 4.09377 154.254 3.89014C154.745 3.68651 155.286 3.63322 155.808 3.73703C156.33 3.84085 156.809 4.09708 157.186 4.47335C157.562 4.84961 157.818 5.329 157.922 5.8509C158.026 6.37279 157.973 6.91375 157.769 7.40537C157.565 7.89698 157.22 8.31717 156.778 8.6128C156.336 8.90843 155.815 9.06622 155.283 9.06622C154.579 9.06636 153.903 8.79031 153.4 8.29733C152.897 7.80436 152.607 7.13377 152.593 6.42959V6.37578Z" fill="black"/>
<path d="M186.278 92.2679C191.887 93.4113 194.43 91.9182 195.479 91.0572C196.528 90.1963 188.887 90.8823 185.591 84.9768C182.296 79.0713 188.013 75.0894 188.013 75.0894V71.8071C186.789 71.6726 177.063 70.8117 172.866 74.4976C172.25 75.0377 171.762 75.7075 171.437 76.4588C171.111 77.2101 170.956 78.0242 170.982 78.8426H175.179C175.179 78.8426 179.659 90.9227 186.278 92.2679Z" fill="black"/>
<path d="M236.104 21.7921V10.1291L228.302 9.90039H160.893V13.3038H155.082C155.544 16.2699 155.074 19.3065 153.736 21.9939C152.27 27.5362 144.939 36.3609 142.531 38.4191C135.119 45.9926 123.765 45.2124 119.312 45.2124C118.422 45.2501 117.556 45.5177 116.799 45.9892C116.042 46.4606 115.421 47.1199 114.994 47.9029C121.155 47.5935 128.218 46.7594 132.993 48.2392C140.311 50.5126 143.876 61.234 146.607 66.6821C149.58 72.6415 152.647 78.0358 157.369 78.6277C162.884 79.3138 168.655 83.4301 168.319 92.9139C168.319 93.3578 168.319 93.8287 168.319 94.2591C169.422 94.4744 171.144 96.4519 171.144 96.4519C172.891 98.1637 175.235 99.1286 177.681 99.1423H194.698C196.521 99.1658 198.325 98.7776 199.976 98.0067C201.628 97.2357 203.084 96.1018 204.236 94.6896L209.2 87.8425C210.055 86.72 210.527 85.3523 210.545 83.9413V73.8387C210.537 73.3874 210.622 72.9393 210.796 72.5226C210.969 72.1058 211.227 71.7295 211.553 71.4174C211.879 71.1052 212.266 70.864 212.69 70.7089C213.114 70.5537 213.565 70.4881 214.016 70.516H231.665L231.84 70.3815L237.638 52.9743H217.984V66.9781H170.404V61.9201H167.888C167.175 61.9201 166.49 61.6366 165.986 61.132C165.481 60.6275 165.198 59.9432 165.198 59.2296V23.6216C165.198 22.9081 165.481 22.2238 165.986 21.7192C166.49 21.2146 167.175 20.9312 167.888 20.9312H170.404V15.9001H217.984V31.8275H272.466C272.797 31.826 273.125 31.8961 273.427 32.0331C273.729 32.1701 273.997 32.3707 274.214 32.6212C276.636 35.5672 274.578 38.9033 271.739 38.9033H217.93L217.85 43.8134H415.301L425.646 21.8594L236.104 21.7921ZM169.624 78.9102C169.624 78.251 170.189 75.0225 171.722 73.758C176.444 69.8703 186.277 70.2739 188.026 70.4488H203.59C204.2 70.4488 204.786 70.6911 205.217 71.1225C205.648 71.5539 205.891 72.139 205.891 72.7491V83.0938C205.897 84.2863 205.591 85.4597 205.003 86.4972C203.55 89.0935 200.429 93.869 196.689 94.8645C191.483 96.2097 181.071 94.8645 178.65 94.8645C176.229 94.8645 169.059 89.3222 169.624 78.9102Z" fill="black"/>
</svg>
