<svg width="512" height="512" viewBox="0 0 512 512" fill="none" xmlns="http://www.w3.org/2000/svg">
<path d="M379.545 188.484L379.235 187.448L379.706 187.125L389.298 181.623H383.702L374.877 186.156H237.449V196.447H425.646V188.484H379.545ZM276.084 193.73H252.906V189.694H276.084V193.73ZM309.714 193.73H286.536V189.694H309.714V193.73ZM342.444 193.73H319.266V189.694H342.444V193.73ZM375.63 193.73H352.452V189.694H375.63V193.73ZM408.359 193.73H385.181V189.694H408.359V193.73Z" fill="black"/>
<path d="M215.118 218.064H173.094V241.633H215.065L214.957 236.951H190.245C189.067 236.822 187.974 236.272 187.169 235.403C186.363 234.533 185.898 233.401 185.86 232.216C185.857 230.935 186.212 229.678 186.885 228.587C187.557 227.496 188.521 226.615 189.667 226.042C190.198 225.749 190.795 225.596 191.402 225.598H215.011L215.118 218.064ZM181.569 230.454H177.25C176.336 230.454 176.255 230.535 176.282 229.781C176.282 229.445 177.035 229.701 177.25 228.544C177.25 228.544 177.25 228.006 177.25 227.696C177.179 227.383 177.179 227.057 177.25 226.744C177.322 226.431 177.463 226.138 177.663 225.886C177.863 225.635 178.118 225.432 178.407 225.292C178.697 225.153 179.014 225.081 179.336 225.081C179.657 225.081 179.974 225.153 180.264 225.292C180.553 225.432 180.808 225.635 181.008 225.886C181.208 226.138 181.35 226.431 181.421 226.744C181.492 227.057 181.492 227.383 181.421 227.696C181.434 227.98 181.465 228.264 181.515 228.544C181.77 229.728 182.51 229.364 182.524 229.781C182.537 230.198 182.645 230.508 181.569 230.454Z" fill="black"/>
<path d="M157.167 256.067C151.786 255.394 148.463 249.691 145.315 243.395C142.396 237.557 139.369 229.082 132.374 225.571C129.953 224.36 120.604 224.521 115.774 225.234C114.192 225.438 112.698 226.076 111.456 227.077C106.385 231.342 109.828 238.337 109.425 241.498C109.055 244.587 107.993 247.553 106.317 250.175C94.5198 268.362 87 297.944 87 327.646C87 334.883 94.3314 335.435 97.5734 335.327C99.0419 335.298 100.511 335.357 101.972 335.502C120.913 337.184 133.477 334.386 133.477 330.336C133.477 322.05 127.585 312.001 129.939 307.575C131.567 304.535 136.154 301.118 136.867 299.571C137.381 298.385 137.69 297.121 137.782 295.832C137.954 293.508 137.887 291.173 137.58 288.863C137.43 287.883 137.614 286.88 138.102 286.017C138.59 285.153 139.354 284.479 140.271 284.101C145.288 282.043 145.477 278.034 145.477 278.034C145.702 277.161 146.108 276.344 146.669 275.637C147.23 274.93 147.933 274.349 148.732 273.931C149.501 273.501 150.366 273.27 151.248 273.259L164.969 273.084C165.625 273.065 166.248 272.789 166.704 272.317C166.785 272.229 166.829 272.114 166.825 271.994C166.825 270.945 166.825 269.936 166.933 268.981C167.256 260.398 162.104 256.686 157.167 256.067Z" fill="black"/>
<path d="M130.316 198.115C133.401 199.404 136.159 201.366 138.387 203.859C138.688 204.18 138.915 204.563 139.049 204.982C139.184 205.401 139.225 205.844 139.167 206.28C138.549 211.069 140.082 212.899 141.36 213.598C142.705 212.616 150.615 203.549 152.243 197.953C148.624 197.953 147.333 200.321 145.84 201.182C144.689 199.216 142.824 197.77 140.634 197.146C136.154 195.653 131.554 196.231 130.128 197.146C130.041 197.206 129.974 197.289 129.935 197.386C129.895 197.483 129.884 197.589 129.904 197.692C129.924 197.795 129.974 197.89 130.047 197.965C130.12 198.04 130.214 198.092 130.316 198.115Z" fill="black"/>
<path d="M187.219 204.787C187.326 205.58 187.691 206.316 188.257 206.882C188.824 207.449 189.56 207.813 190.353 207.921L215.119 207.84V201.41H190.353C189.156 201.41 187.165 201.693 187.219 204.787Z" fill="black"/>
<path d="M187.219 232.486C187.324 233.28 187.688 234.017 188.255 234.584C188.821 235.15 189.559 235.515 190.353 235.62L215.011 235.539V229.136H190.353C189.156 229.096 187.165 229.392 187.219 232.486Z" fill="black"/>
<path d="M412.893 176H395.378V180.264H412.893V176Z" fill="black"/>
<path d="M425.322 187.138L423.48 181.623H412.893V181.609H395.378V181.623H392.001L382.396 187.138H425.322Z" fill="black"/>
<path d="M263.278 209.146H217.984V213.545H263.278V209.146Z" fill="black"/>
<path d="M273.986 211.339C273.982 210.756 273.748 210.199 273.335 209.788C272.922 209.377 272.362 209.146 271.78 209.146H264.569V213.518H271.686C271.981 213.531 272.276 213.484 272.552 213.381C272.829 213.277 273.083 213.119 273.297 212.916C273.512 212.713 273.683 212.468 273.802 212.197C273.92 211.927 273.983 211.635 273.986 211.339Z" fill="black"/>
<path d="M215.118 193.246H173.094V216.72H215.065V209.187H190.434C189.3 209.001 188.253 208.463 187.442 207.65C186.631 206.836 186.096 205.788 185.914 204.654C185.772 203.442 185.963 202.215 186.465 201.104C186.968 199.993 187.763 199.039 188.766 198.344C189.306 197.993 189.937 197.806 190.582 197.806H215.118V193.246ZM181.73 205.81H177.412C176.497 205.81 176.416 205.81 176.443 205.138C176.443 204.802 177.197 205.057 177.412 203.9C177.412 203.9 177.412 203.349 177.412 203.053C177.34 202.739 177.34 202.414 177.412 202.101C177.483 201.787 177.624 201.494 177.824 201.243C178.025 200.991 178.279 200.788 178.569 200.649C178.858 200.51 179.176 200.437 179.497 200.437C179.818 200.437 180.136 200.51 180.425 200.649C180.715 200.788 180.969 200.991 181.17 201.243C181.37 201.494 181.511 201.787 181.582 202.101C181.654 202.414 181.654 202.739 181.582 203.053C181.596 203.337 181.627 203.62 181.676 203.9C181.932 205.084 182.672 204.707 182.685 205.138C182.699 205.568 182.806 205.851 181.73 205.81Z" fill="black"/>
<path d="M168.237 236.576H170.403V198.305H168.237C167.794 198.308 167.37 198.487 167.057 198.802C166.745 199.117 166.569 199.543 166.569 199.986V234.962C166.587 235.394 166.77 235.802 167.08 236.103C167.391 236.404 167.805 236.573 168.237 236.576Z" fill="black"/>
<path d="M156.683 182.429C156.683 182.072 156.541 181.73 156.289 181.478C156.036 181.226 155.694 181.084 155.337 181.084C154.981 181.084 154.638 181.226 154.386 181.478C154.134 181.73 153.992 182.072 153.992 182.429C153.992 182.786 154.134 183.128 154.386 183.38C154.638 183.633 154.981 183.774 155.337 183.774C155.694 183.774 156.036 183.633 156.289 183.38C156.541 183.128 156.683 182.786 156.683 182.429Z" fill="black"/>
<path d="M237.584 221.133H237.557H217.984V227.59H237.571V223.783H237.584H414.4L414.898 221.133H237.584Z" fill="black"/>
<path d="M154.812 187.958H159.548V184.555H177.157C176.509 183.569 175.667 182.726 174.681 182.079C173.695 181.431 172.588 180.992 171.426 180.788H160.664V177.52H150.023V187.958H154.786C154.786 187.958 154.799 187.958 154.812 187.958ZM152.593 182.376C152.593 181.844 152.751 181.323 153.046 180.881C153.342 180.439 153.762 180.094 154.254 179.89C154.745 179.687 155.286 179.633 155.808 179.737C156.33 179.841 156.809 180.097 157.186 180.473C157.562 180.85 157.818 181.329 157.922 181.851C158.026 182.373 157.973 182.914 157.769 183.405C157.565 183.897 157.22 184.317 156.778 184.613C156.336 184.908 155.815 185.066 155.283 185.066C154.579 185.066 153.903 184.79 153.4 184.297C152.897 183.804 152.607 183.134 152.593 182.43V182.376Z" fill="black"/>
<path d="M186.278 268.268C191.887 269.411 194.43 267.918 195.479 267.057C196.528 266.196 188.887 266.882 185.591 260.977C182.296 255.071 188.013 251.089 188.013 251.089V247.807C186.789 247.673 177.063 246.812 172.866 250.498C172.25 251.038 171.762 251.708 171.437 252.459C171.111 253.21 170.956 254.024 170.982 254.843H175.179C175.179 254.843 179.659 266.923 186.278 268.268Z" fill="black"/>
<path d="M236.104 197.792V186.129L228.302 185.9H160.893V189.304H155.082C155.544 192.27 155.074 195.307 153.736 197.994C152.27 203.536 144.939 212.361 142.531 214.419C135.119 221.993 123.765 221.212 119.312 221.212C118.422 221.25 117.556 221.518 116.799 221.989C116.042 222.461 115.421 223.12 114.994 223.903C121.155 223.593 128.218 222.759 132.993 224.239C140.311 226.513 143.876 237.234 146.607 242.682C149.58 248.641 152.647 254.036 157.369 254.628C162.884 255.314 168.655 259.43 168.319 268.914C168.319 269.358 168.319 269.829 168.319 270.259C169.422 270.474 171.144 272.452 171.144 272.452C172.891 274.164 175.235 275.129 177.681 275.142H194.698C196.521 275.166 198.325 274.778 199.976 274.007C201.628 273.236 203.084 272.102 204.236 270.69L209.2 263.842C210.055 262.72 210.527 261.352 210.545 259.941V249.839C210.537 249.387 210.622 248.939 210.796 248.523C210.969 248.106 211.227 247.73 211.553 247.417C211.879 247.105 212.266 246.864 212.69 246.709C213.114 246.554 213.565 246.488 214.016 246.516H231.665L231.84 246.381L237.638 228.974H217.984V242.978H170.404V237.92H167.888C167.175 237.92 166.49 237.637 165.986 237.132C165.481 236.627 165.198 235.943 165.198 235.23V199.622C165.198 198.908 165.481 198.224 165.986 197.719C166.49 197.215 167.175 196.931 167.888 196.931H170.404V191.9H217.984V207.827H272.466C272.797 207.826 273.125 207.896 273.427 208.033C273.729 208.17 273.997 208.371 274.214 208.621C276.636 211.567 274.578 214.903 271.739 214.903H217.93L217.85 219.813H415.301L425.646 197.859L236.104 197.792ZM169.624 254.91C169.624 254.251 170.189 251.022 171.722 249.758C176.444 245.87 186.277 246.274 188.026 246.449H203.59C204.2 246.449 204.786 246.691 205.217 247.123C205.648 247.554 205.891 248.139 205.891 248.749V259.094C205.897 260.286 205.591 261.46 205.003 262.497C203.55 265.094 200.429 269.869 196.689 270.865C191.483 272.21 181.071 270.865 178.65 270.865C176.229 270.865 169.059 265.322 169.624 254.91Z" fill="black"/>
</svg>
