<svg width="512" height="512" viewBox="0 0 512 512" fill="none" xmlns="http://www.w3.org/2000/svg">
<path d="M332.593 135.538L331.807 134.796L332.054 134.281L337.609 124.72L332.763 127.518L327.387 135.857L208.371 204.571L213.517 213.483L376.499 119.385L372.518 112.488L332.593 135.538ZM245.617 191.812L225.544 203.401L223.526 199.906L243.599 188.317L245.617 191.812ZM274.742 174.997L254.669 186.586L252.651 183.091L272.724 171.502L274.742 174.997ZM303.086 158.632L283.013 170.221L280.995 166.726L301.068 155.137L303.086 158.632ZM331.826 142.039L311.753 153.628L309.736 150.133L329.808 138.544L331.826 142.039ZM360.171 125.674L340.098 137.263L338.08 133.768L358.153 122.179L360.171 125.674Z" fill="black"/>
<path d="M204.987 243.37L168.593 264.383L180.377 284.794L216.725 263.808L214.291 259.808L192.89 272.164C191.805 272.641 190.584 272.711 189.451 272.361C188.318 272.01 187.35 271.263 186.724 270.255C186.081 269.147 185.76 267.881 185.797 266.6C185.834 265.319 186.228 264.074 186.934 263.005C187.248 262.485 187.689 262.055 188.215 261.753L208.661 249.948L204.987 243.37ZM182.127 270.875L178.387 273.034C177.595 273.491 177.566 273.602 177.212 272.936C177.044 272.645 177.824 272.489 177.432 271.38C177.432 271.38 177.163 270.914 177.008 270.646C176.79 270.41 176.627 270.129 176.532 269.821C176.437 269.514 176.413 269.19 176.461 268.872C176.509 268.554 176.627 268.251 176.809 267.986C176.99 267.72 177.228 267.499 177.506 267.338C177.785 267.177 178.096 267.081 178.416 267.057C178.737 267.033 179.059 267.082 179.358 267.199C179.657 267.317 179.926 267.5 180.144 267.736C180.363 267.972 180.525 268.254 180.62 268.561C180.773 268.8 180.942 269.03 181.125 269.248C181.939 270.145 182.398 269.46 182.618 269.815C182.838 270.169 183.086 270.383 182.127 270.875Z" fill="black"/>
<path d="M173.8 305.257C168.803 307.365 163.074 304.087 157.2 300.208C151.753 296.612 144.894 290.786 137.081 291.243C134.378 291.405 126.362 296.219 122.536 299.251C121.268 300.219 120.293 301.519 119.718 303.007C117.458 309.235 123.938 313.571 125.17 316.511C126.394 319.371 126.957 322.471 126.817 325.579C125.693 347.228 133.972 376.607 148.823 402.33C152.442 408.597 159.067 405.409 161.82 403.695C163.078 402.936 164.379 402.252 165.717 401.647C182.961 393.633 192.443 384.928 190.419 381.421C186.276 374.245 176.148 368.488 175.974 363.478C175.864 360.031 178.128 354.779 177.972 353.083C177.823 351.799 177.459 350.549 176.894 349.387C175.882 347.288 174.656 345.3 173.235 343.453C172.615 342.679 172.273 341.719 172.264 340.727C172.255 339.735 172.579 338.769 173.184 337.983C176.501 333.692 174.659 330.126 174.659 330.126C174.418 329.257 174.361 328.347 174.493 327.454C174.626 326.562 174.944 325.707 175.427 324.945C175.878 324.188 176.512 323.555 177.27 323.105L189.065 316.093C189.624 315.748 190.026 315.198 190.185 314.561C190.211 314.445 190.19 314.323 190.128 314.221C189.603 313.312 189.099 312.439 188.714 311.558C184.703 303.964 178.384 303.324 173.8 305.257Z" fill="black"/>
<path d="M121.571 268.495C124.887 268.069 128.256 268.39 131.433 269.434C131.854 269.561 132.242 269.78 132.568 270.076C132.894 270.371 133.151 270.735 133.319 271.141C135.178 275.598 137.421 276.415 138.877 276.382C139.551 274.859 141.868 263.052 140.479 257.392C137.346 259.201 137.411 261.897 136.548 263.39C134.569 262.262 132.231 261.943 130.022 262.498C125.396 263.444 121.701 266.246 120.923 267.751C120.878 267.845 120.862 267.951 120.876 268.055C120.89 268.159 120.934 268.256 121.003 268.335C121.072 268.414 121.162 268.471 121.263 268.5C121.364 268.528 121.471 268.527 121.571 268.495Z" fill="black"/>
<path d="M174.186 245.822C174.676 246.455 175.36 246.911 176.134 247.118C176.907 247.325 177.727 247.273 178.468 246.969L199.875 234.517L196.66 228.948L175.212 241.331C174.176 241.929 172.593 243.169 174.186 245.822Z" fill="black"/>
<path d="M188.035 269.809C188.523 270.445 189.207 270.901 189.981 271.108C190.755 271.316 191.576 271.262 192.316 270.957L213.63 258.558L210.429 253.012L189.074 265.341C188.017 265.905 186.441 267.157 188.035 269.809Z" fill="black"/>
<path d="M355.232 108.053L340.063 116.811L342.196 120.504L357.364 111.746L355.232 108.053Z" fill="black"/>
<path d="M371.565 111.485L367.212 107.63L358.043 112.924L358.036 112.912L342.868 121.669L342.875 121.681L339.951 123.369L334.39 132.948L371.565 111.485Z" fill="black"/>
<path d="M242.234 211.566L203.009 234.213L205.208 238.022L244.434 215.376L242.234 211.566Z" fill="black"/>
<path d="M252.604 208.111C252.309 207.608 251.828 207.242 251.264 207.093C250.701 206.943 250.102 207.023 249.597 207.315L243.353 210.92L245.539 214.706L251.701 211.148C251.963 211.011 252.195 210.823 252.383 210.595C252.571 210.367 252.712 210.104 252.796 209.82C252.88 209.537 252.906 209.24 252.873 208.946C252.84 208.652 252.749 208.368 252.604 208.111Z" fill="black"/>
<path d="M192.577 221.876L156.183 242.889L167.92 263.218L204.268 242.232L200.501 235.708L179.17 248.024C178.095 248.43 176.92 248.487 175.81 248.188C174.701 247.889 173.714 247.249 172.989 246.358C172.261 245.379 171.812 244.221 171.692 243.008C171.571 241.794 171.783 240.571 172.304 239.468C172.596 238.893 173.049 238.416 173.608 238.094L194.857 225.826L192.577 221.876ZM169.944 249.452L166.204 251.611C165.412 252.068 165.342 252.108 165.029 251.512C164.861 251.221 165.641 251.066 165.249 249.956C165.249 249.956 164.974 249.479 164.826 249.222C164.607 248.987 164.444 248.705 164.349 248.398C164.254 248.091 164.23 247.766 164.278 247.449C164.326 247.131 164.445 246.828 164.626 246.562C164.807 246.297 165.045 246.075 165.323 245.915C165.602 245.754 165.913 245.658 166.233 245.634C166.554 245.61 166.876 245.659 167.175 245.776C167.474 245.894 167.743 246.077 167.961 246.313C168.18 246.548 168.342 246.83 168.437 247.137C168.591 247.376 168.76 247.606 168.942 247.824C169.756 248.722 170.208 248.025 170.435 248.392C170.662 248.758 170.896 248.948 169.944 249.452Z" fill="black"/>
<path d="M173.642 282.841L175.518 281.758L156.382 248.614L154.506 249.697C154.124 249.922 153.846 250.289 153.733 250.718C153.619 251.147 153.68 251.603 153.902 251.987L171.39 282.277C171.621 282.643 171.984 282.905 172.403 283.01C172.822 283.115 173.266 283.055 173.642 282.841Z" fill="black"/>
<path d="M136.562 241.728C136.384 241.419 136.09 241.194 135.745 241.101C135.401 241.009 135.034 241.057 134.725 241.236C134.416 241.414 134.19 241.708 134.098 242.052C134.005 242.397 134.054 242.764 134.232 243.073C134.411 243.382 134.704 243.608 135.049 243.7C135.394 243.792 135.761 243.744 136.07 243.566C136.379 243.387 136.604 243.093 136.697 242.749C136.789 242.404 136.741 242.037 136.562 241.728Z" fill="black"/>
<path d="M225.976 234.794L225.953 234.807L209.002 244.594L212.23 250.186L229.193 240.393L227.289 237.096L227.301 237.089L380.428 148.681L379.534 146.137L225.976 234.794Z" fill="black"/>
<path d="M137.707 247.451L141.807 245.083L140.106 242.136L155.356 233.331C154.302 232.801 153.151 232.492 151.974 232.424C150.796 232.356 149.617 232.53 148.509 232.934L139.189 238.315L137.555 235.484L128.34 240.805L133.559 249.845L137.683 247.464C137.683 247.464 137.695 247.457 137.707 247.451ZM132.993 243.726C132.727 243.265 132.604 242.735 132.638 242.204C132.673 241.673 132.865 241.165 133.189 240.743C133.513 240.32 133.954 240.004 134.458 239.833C134.962 239.662 135.505 239.644 136.019 239.782C136.533 239.919 136.995 240.206 137.346 240.606C137.697 241.007 137.921 241.502 137.991 242.029C138.06 242.557 137.971 243.093 137.736 243.57C137.501 244.048 137.129 244.444 136.668 244.71C136.058 245.063 135.335 245.162 134.653 244.986C133.97 244.811 133.384 244.375 133.02 243.772L132.993 243.726Z" fill="black"/>
<path d="M205.111 301.269C210.541 299.455 211.996 296.89 212.474 295.62C212.952 294.35 206.678 298.764 200.871 295.298C195.064 291.832 198.025 285.525 198.025 285.525L196.383 282.682C195.256 283.178 186.403 287.295 184.611 292.586C184.348 293.361 184.26 294.185 184.354 294.999C184.447 295.812 184.72 296.595 185.152 297.29L188.787 295.192C188.787 295.192 198.707 303.414 205.111 301.269Z" fill="black"/>
<path d="M213.025 215.322L207.193 205.221L200.322 208.924L141.944 242.629L143.646 245.576L138.613 248.482C140.497 250.819 141.608 253.684 141.793 256.68C143.294 262.213 141.357 273.521 140.301 276.508C137.669 286.773 127.446 291.774 123.59 294C122.837 294.478 122.221 295.143 121.802 295.929C121.382 296.716 121.173 297.598 121.196 298.489C126.377 295.141 132.076 290.887 136.951 289.781C144.426 288.091 152.874 295.593 157.963 298.946C163.517 302.621 168.87 305.759 173.255 303.91C178.375 301.747 185.431 302.426 189.881 310.808C190.103 311.192 190.339 311.6 190.554 311.973C191.617 311.608 194.097 312.459 194.097 312.459C196.466 313.068 198.979 312.731 201.104 311.52L215.841 303.012C217.431 302.121 218.8 300.883 219.844 299.389C220.889 297.896 221.583 296.186 221.875 294.387L222.75 285.975C222.929 284.575 222.654 283.155 221.964 281.924L216.913 273.175C216.68 272.788 216.53 272.357 216.472 271.91C216.414 271.462 216.449 271.007 216.575 270.574C216.701 270.141 216.916 269.738 217.206 269.392C217.495 269.046 217.853 268.763 218.257 268.562L233.542 259.737L233.626 259.533L229.944 241.559L212.923 251.386L219.925 263.514L178.719 287.304L176.19 282.924L174.012 284.181C173.394 284.538 172.659 284.635 171.97 284.45C171.281 284.266 170.693 283.815 170.337 283.197L152.533 252.359C152.176 251.741 152.079 251.007 152.264 250.318C152.448 249.628 152.899 249.041 153.517 248.684L155.696 247.426L153.18 243.069L194.386 219.279L202.35 233.073L249.532 205.832C249.818 205.665 250.138 205.562 250.467 205.529C250.797 205.497 251.13 205.536 251.444 205.645C255.014 206.985 254.899 210.904 252.441 212.323L205.841 239.227L208.226 243.52L379.224 144.794L377.206 120.609L213.025 215.322ZM184.01 298.028C183.68 297.457 182.555 294.378 183.251 292.516C185.396 286.789 194.114 282.221 195.716 281.499L209.195 273.716C209.723 273.411 210.351 273.329 210.941 273.487C211.53 273.645 212.032 274.03 212.337 274.558L217.51 283.517C218.111 284.547 218.433 285.716 218.443 286.909C218.483 289.883 218.167 295.58 215.427 298.312C211.591 302.08 201.901 306.121 199.804 307.331C197.707 308.542 188.726 307.327 184.01 298.028Z" fill="black"/>
</svg>
