<svg width="512" height="512" viewBox="0 0 512 512" fill="none" xmlns="http://www.w3.org/2000/svg">
<path d="M218.091 239.096C218.091 239.096 218.014 246.57 218.091 247.825C218.276 250.88 218.691 252.975 220.578 254.983C222.761 257.35 228.642 257.765 231.173 257.689C231.208 257.679 231.239 257.659 231.261 257.63C231.283 257.602 231.295 257.567 231.295 257.53C231.295 257.494 231.283 257.459 231.261 257.431C231.239 257.402 231.208 257.381 231.173 257.372C229.133 256.488 226.165 253.542 224.812 251.556C224.144 250.596 223.79 249.453 223.797 248.283V239.15L218.091 239.096Z" fill="black"/>
<path d="M278.244 212.495H357.755H391.973L392.202 211.96V190.312L278.244 190.094V212.495Z" fill="black"/>
<path d="M382.186 179.017C382.177 178.684 382.092 178.358 381.938 178.063C381.783 177.768 381.563 177.512 381.295 177.315C381.026 177.118 380.716 176.985 380.388 176.927C380.061 176.868 379.724 176.885 379.404 176.977L371.373 179.508C370.867 179.672 370.426 179.991 370.112 180.42C369.799 180.849 369.629 181.366 369.627 181.898V182.902H382.186V179.017Z" fill="black"/>
<path d="M170.212 276.348C168.649 276.346 167.12 276.807 165.82 277.674C164.519 278.54 163.505 279.773 162.905 281.217C162.306 282.66 162.148 284.249 162.451 285.782C162.755 287.315 163.506 288.724 164.611 289.83C165.715 290.936 167.123 291.689 168.655 291.995C170.188 292.3 171.777 292.145 173.221 291.547C174.665 290.949 175.9 289.937 176.768 288.638C177.637 287.338 178.1 285.81 178.1 284.248C178.098 282.155 177.266 280.149 175.787 278.669C174.309 277.188 172.304 276.353 170.212 276.348Z" fill="black"/>
<path d="M357.941 220.481H388.515L391.025 214.676H357.941V220.481Z" fill="black"/>
<path d="M186.829 318.89L203.076 239.466C198.591 239.619 183.665 240.055 182.039 238.812C178.394 236.018 179.027 230.693 179.387 228.795H170.876C170.134 230.977 166.25 242.205 164.33 248.643C163.118 252.8 159.638 254.677 156.746 255.539C152.033 265.435 137.248 296.38 132.185 306.036C129.864 310.52 128.698 315.512 128.791 320.56H184.778C185.259 320.557 185.725 320.391 186.098 320.087C186.471 319.783 186.729 319.361 186.829 318.89ZM175.721 312.878H149.534C148.787 312.878 148.052 312.692 147.394 312.337C146.737 311.983 146.178 311.47 145.768 310.846C145.358 310.221 145.109 309.505 145.045 308.76C144.98 308.016 145.102 307.268 145.398 306.582L163.73 264.028C164.266 262.727 165.144 261.596 166.272 260.754C169.698 258.245 171.815 253.313 172.764 250.596C173.075 249.764 173.632 249.047 174.361 248.54C175.09 248.033 175.957 247.76 176.845 247.759H187.494C188.139 247.762 188.774 247.908 189.356 248.186C189.937 248.465 190.449 248.868 190.856 249.368C191.263 249.867 191.554 250.451 191.708 251.076C191.863 251.702 191.877 252.354 191.75 252.985L180.14 309.277C179.93 310.294 179.375 311.207 178.57 311.863C177.765 312.518 176.759 312.877 175.721 312.878Z" fill="black"/>
<path d="M226.328 203.579V184.015L180.26 182.924L164.068 183L149.785 201.08C149.457 204.354 147.526 221.037 141.056 226.46H154.848L163.817 197.992H166.152L157.161 226.46H161.394L170.364 197.992H172.699L163.708 226.46H167.941L176.91 197.992H179.791L170.287 226.46H174.488L183.457 197.992H185.792L176.801 226.46H181.035L190.004 197.992H192.339L183.348 226.46H187.582L196.551 197.992H198.886L189.895 226.46H194.129L203.098 197.992H205.433L196.442 226.46H200.675L209.645 197.992H211.98L202.989 226.46H207.222L216.191 197.992H218.526L209.535 226.46H356.839V214.676H237.436C234.493 214.673 231.671 213.503 229.588 211.423C227.506 209.343 226.334 206.522 226.328 203.579Z" fill="black"/>
<path d="M187.494 248.852H176.845C176.171 248.856 175.516 249.067 174.967 249.458C174.418 249.849 174.003 250.399 173.779 251.034C172.786 253.871 170.571 259.032 166.905 261.705C165.94 262.424 165.187 263.389 164.722 264.498L146.391 307.053C146.155 307.577 146.058 308.153 146.107 308.726C146.157 309.299 146.352 309.85 146.675 310.326C146.985 310.798 147.408 311.186 147.905 311.454C148.402 311.723 148.958 311.864 149.523 311.865H175.71C176.496 311.862 177.257 311.589 177.867 311.093C178.477 310.596 178.898 309.906 179.06 309.137L190.68 252.78C190.777 252.306 190.768 251.816 190.653 251.347C190.538 250.877 190.32 250.438 190.015 250.063C189.711 249.687 189.327 249.384 188.891 249.174C188.455 248.965 187.978 248.855 187.494 248.852ZM170.211 293.228C168.432 293.23 166.692 292.704 165.212 291.717C163.731 290.73 162.577 289.326 161.895 287.683C161.213 286.04 161.034 284.231 161.381 282.486C161.728 280.741 162.584 279.138 163.842 277.88C165.1 276.621 166.703 275.765 168.448 275.418C170.194 275.072 172.002 275.251 173.646 275.933C175.289 276.615 176.693 277.769 177.68 279.249C178.667 280.729 179.193 282.469 179.191 284.248C179.188 286.629 178.241 288.911 176.557 290.595C174.874 292.278 172.591 293.225 170.211 293.228Z" fill="black"/>
<path d="M382.186 184.025H369.627H356.25V186.59H349.703V184.025H295.146V186.59H288.599V184.025H228.478V203.579C228.479 204.753 228.712 205.915 229.163 206.998C229.614 208.082 230.275 209.066 231.107 209.894C231.939 210.722 232.927 211.378 234.013 211.824C235.099 212.27 236.262 212.497 237.436 212.493H277.153V189.001L392.203 189.23V184.025H382.186Z" fill="black"/>
<path d="M182.693 237.939C183.665 238.659 239.585 238.125 239.585 238.125C242.029 238.125 243.95 240.012 245.587 241.867C246.927 243.44 247.638 245.453 247.583 247.519L247.256 259.009C247.233 259.744 246.926 260.442 246.399 260.955C245.871 261.468 245.166 261.756 244.43 261.759L212.22 261.562C212.474 262.262 212.606 263 212.612 263.744C212.616 264.675 212.414 265.595 212.023 266.44L247.529 266.374C250.289 266.374 252.199 263.821 252.199 261.071V247.246C252.197 245.152 252.909 243.12 254.217 241.485C255.552 239.723 257.499 238.524 259.673 238.125C262.205 237.666 265.063 236.237 265.063 233.553V228.643H180.533C180.271 229.865 179.311 235.342 182.693 237.939ZM246.459 238.212C246.578 237.612 246.857 237.056 247.267 236.603C247.676 236.15 248.202 235.817 248.786 235.639C249.371 235.461 249.993 235.446 250.585 235.594C251.178 235.742 251.719 236.049 252.151 236.481C252.583 236.913 252.89 237.454 253.038 238.047C253.186 238.64 253.171 239.261 252.993 239.846C252.815 240.43 252.482 240.956 252.029 241.366C251.576 241.775 251.02 242.054 250.42 242.173C249.877 242.28 249.316 242.252 248.786 242.091C248.257 241.93 247.775 241.64 247.383 241.249C246.992 240.858 246.703 240.376 246.541 239.846C246.38 239.316 246.352 238.755 246.459 238.212Z" fill="black"/>
<path d="M357.941 227.552H385.449L388.035 221.572H357.941V227.552Z" fill="black"/>
<path d="M249.766 241.147C250.217 241.147 250.658 241.013 251.033 240.763C251.408 240.512 251.7 240.156 251.873 239.739C252.045 239.322 252.09 238.864 252.002 238.422C251.914 237.979 251.697 237.573 251.378 237.254C251.059 236.935 250.653 236.718 250.211 236.63C249.768 236.542 249.31 236.587 248.893 236.76C248.476 236.932 248.12 237.224 247.87 237.599C247.619 237.974 247.485 238.415 247.485 238.866C247.485 239.471 247.726 240.051 248.153 240.479C248.581 240.907 249.161 241.147 249.766 241.147Z" fill="black"/>
<path d="M180.184 180.797C180.183 180.315 180.03 179.845 179.748 179.454C179.467 179.063 179.07 178.769 178.613 178.614L171.215 176.105C170.91 176.003 170.586 175.975 170.268 176.023C169.95 176.071 169.648 176.194 169.387 176.381C169.126 176.569 168.914 176.816 168.767 177.101C168.62 177.387 168.543 177.704 168.542 178.025V181.91H180.184V180.797Z" fill="black"/>
<path d="M141.547 335.498C141.55 335.63 141.603 335.756 141.697 335.85C141.79 335.943 141.917 335.997 142.049 336H191.15C191.3 336.001 191.449 335.968 191.585 335.904C191.721 335.84 191.841 335.746 191.936 335.629L194.325 332.727H141.547V335.498Z" fill="black"/>
<path d="M147.133 235.931C158.765 235.691 158.307 252.451 158.307 252.451L157.488 254.175C158.863 253.745 160.115 252.992 161.139 251.978C162.162 250.964 162.927 249.719 163.37 248.349C165.192 242.053 168.913 231.239 169.807 228.643H133.505L133.167 228.719H123.063C122.655 228.72 122.251 228.804 121.876 228.966C121.501 229.127 121.163 229.362 120.881 229.657L118.393 232.298C118.217 232.484 118.094 232.713 118.037 232.963C117.979 233.212 117.989 233.472 118.066 233.716L118.666 235.659C118.689 235.736 118.736 235.805 118.801 235.854C118.866 235.903 118.945 235.93 119.026 235.931C121.23 235.964 136.364 236.139 147.133 235.931Z" fill="black"/>
<path d="M138.056 212.843C143.457 213.934 144.853 216.116 145.192 217.48C146.875 212.369 148.02 207.095 148.607 201.746C147.218 202.275 146.06 203.276 145.334 204.572C144.957 205.226 144.482 205.819 143.926 206.329C143.437 206.763 142.868 207.096 142.25 207.31C141.632 207.523 140.978 207.613 140.325 207.573C134.008 207.235 132.109 205.511 131.596 204.485C131.585 204.456 131.565 204.432 131.54 204.415C131.515 204.398 131.485 204.389 131.454 204.389C131.424 204.389 131.394 204.398 131.369 204.415C131.343 204.432 131.324 204.456 131.312 204.485C131.105 206.667 130.931 211.468 138.056 212.843Z" fill="black"/>
<path d="M205.553 261.398C205.098 261.396 204.651 261.529 204.271 261.781C203.891 262.033 203.595 262.392 203.419 262.812C203.243 263.233 203.196 263.696 203.283 264.143C203.371 264.59 203.589 265.002 203.911 265.325C204.232 265.648 204.642 265.868 205.089 265.958C205.536 266.048 206 266.003 206.421 265.829C206.842 265.655 207.203 265.36 207.456 264.981C207.71 264.602 207.845 264.157 207.845 263.701C207.842 263.093 207.6 262.511 207.171 262.08C206.742 261.649 206.161 261.404 205.553 261.398Z" fill="black"/>
<path d="M207.517 258.06L207.637 257.471L210.485 239.445H204.2L187.713 319.982C187.617 320.455 187.36 320.88 186.986 321.184C186.612 321.488 186.144 321.654 185.662 321.652H128.923C128.923 322.044 128.923 322.274 128.923 322.274C128.923 325.863 132 329.202 133.898 330.894C134.449 331.373 135.154 331.637 135.884 331.635H196.573C197.172 331.414 197.695 331.026 198.082 330.518C198.468 330.01 198.702 329.402 198.756 328.766C198.793 328.265 198.695 327.764 198.472 327.315C196.519 323.146 197.577 317.385 197.577 317.385L205.946 270.314L206.077 269.724C207.151 269.716 208.202 269.415 209.117 268.853C210.032 268.292 210.777 267.491 211.271 266.538C211.666 265.782 211.891 264.949 211.93 264.098C211.97 263.246 211.823 262.396 211.5 261.606C211.163 260.743 210.627 259.971 209.935 259.355C209.242 258.739 208.414 258.295 207.517 258.06ZM205.553 267.095C204.882 267.097 204.225 266.9 203.665 266.528C203.106 266.157 202.669 265.627 202.41 265.007C202.152 264.388 202.083 263.705 202.213 263.046C202.343 262.387 202.665 261.781 203.139 261.306C203.613 260.83 204.218 260.506 204.876 260.374C205.535 260.242 206.218 260.309 206.839 260.565C207.459 260.822 207.99 261.257 208.363 261.815C208.737 262.373 208.936 263.03 208.936 263.701C208.933 264.599 208.576 265.458 207.943 266.094C207.309 266.729 206.451 267.089 205.553 267.095Z" fill="black"/>
</svg>
