<svg width="512" height="512" viewBox="0 0 512 512" fill="none" xmlns="http://www.w3.org/2000/svg">
<path d="M215.229 259.598C215.229 259.598 218.9 266.109 219.593 267.158C221.281 269.711 222.688 271.318 225.327 272.113C228.4 273.072 233.701 270.491 235.855 269.159C235.881 269.133 235.897 269.1 235.902 269.064C235.907 269.029 235.899 268.992 235.881 268.961C235.863 268.93 235.835 268.905 235.802 268.891C235.769 268.878 235.732 268.875 235.697 268.885C233.488 269.14 229.445 268.072 227.28 267.029C226.222 266.531 225.343 265.718 224.764 264.701L220.198 256.792L215.229 259.598Z" fill="black"/>
<path d="M254.023 206.482L322.881 166.726L352.515 149.617L352.446 149.04L341.622 130.292L242.822 187.082L254.023 206.482Z" fill="black"/>
<path d="M327.301 125.522C327.127 125.238 326.89 124.997 326.609 124.819C326.328 124.641 326.009 124.529 325.678 124.493C325.347 124.457 325.012 124.497 324.699 124.61C324.386 124.723 324.103 124.906 323.871 125.146L318.182 131.353C317.826 131.748 317.603 132.245 317.546 132.773C317.489 133.302 317.601 133.834 317.865 134.296L318.367 135.165L329.243 128.886L327.301 125.522Z" fill="black"/>
<path d="M192.39 315.799C191.035 316.578 189.942 317.742 189.25 319.143C188.557 320.544 188.295 322.119 188.497 323.668C188.7 325.218 189.357 326.673 190.387 327.849C191.416 329.025 192.771 329.869 194.281 330.275C195.79 330.68 197.386 330.629 198.866 330.127C200.346 329.626 201.644 328.696 202.596 327.457C203.548 326.217 204.111 324.723 204.213 323.163C204.316 321.604 203.953 320.049 203.172 318.696C202.123 316.885 200.4 315.564 198.379 315.021C196.358 314.478 194.205 314.757 192.39 315.799Z" fill="black"/>
<path d="M327.036 173.551L353.514 158.264L352.785 151.982L324.134 168.523L327.036 173.551Z" fill="black"/>
<path d="M228.053 344.333L202.412 267.427C198.604 269.801 185.896 277.643 183.866 277.378C179.313 276.782 177.199 271.854 176.561 270.029L169.191 274.285C169.639 276.546 171.889 288.212 173.445 294.747C174.474 298.953 172.398 302.319 170.325 304.511C171.191 315.438 173.86 349.63 174.303 360.524C174.536 365.567 176.021 370.473 178.626 374.798L227.112 346.805C227.527 346.562 227.847 346.185 228.019 345.735C228.19 345.286 228.202 344.791 228.053 344.333ZM215.428 344.681L192.749 357.774C192.102 358.148 191.372 358.354 190.625 358.376C189.879 358.397 189.138 358.233 188.471 357.897C187.804 357.562 187.23 357.065 186.802 356.453C186.374 355.841 186.105 355.132 186.019 354.39L180.618 308.371C180.432 306.976 180.627 305.557 181.183 304.265C182.895 300.378 182.262 295.049 181.726 292.221C181.579 291.345 181.703 290.446 182.081 289.642C182.459 288.838 183.073 288.169 183.841 287.724L193.064 282.399C193.624 282.08 194.247 281.889 194.89 281.839C195.532 281.789 196.177 281.882 196.78 282.112C197.382 282.341 197.926 282.701 198.372 283.165C198.819 283.63 199.157 284.187 199.363 284.798L217.454 339.353C217.78 340.338 217.757 341.406 217.387 342.377C217.018 343.347 216.326 344.161 215.428 344.681Z" fill="black"/>
<path d="M204.604 224.721L194.822 207.778L154.381 229.866L140.396 238.029L137.067 260.828C138.42 263.827 145.089 279.241 142.197 287.172L154.141 280.276L147.675 251.138L149.697 249.97L156.144 279.12L159.811 277.003L153.344 247.865L155.367 246.697L161.814 275.846L165.481 273.73L159.014 244.591L161.509 243.151L167.512 272.557L171.15 270.456L164.684 241.318L166.706 240.15L173.154 269.3L176.82 267.183L170.354 238.044L172.376 236.877L178.823 266.026L182.49 263.909L176.023 234.771L178.045 233.603L184.493 262.753L188.159 260.636L181.693 231.498L183.715 230.33L190.163 259.479L193.829 257.362L187.363 228.224L189.385 227.057L195.832 256.206L199.499 254.089L193.032 224.951L195.055 223.783L201.502 252.932L329.071 179.281L323.178 169.075L219.772 228.777C217.222 230.246 214.193 230.644 211.35 229.884C208.507 229.123 206.081 227.267 204.604 224.721Z" fill="black"/>
<path d="M193.61 283.343L184.387 288.668C183.806 289.008 183.344 289.52 183.064 290.132C182.784 290.745 182.7 291.429 182.823 292.091C183.382 295.044 184.044 300.621 182.205 304.77C181.73 305.874 181.56 307.087 181.712 308.28L187.114 354.298C187.172 354.871 187.376 355.418 187.705 355.89C188.035 356.361 188.479 356.74 188.997 356.991C189.501 357.245 190.061 357.369 190.626 357.353C191.191 357.337 191.742 357.182 192.232 356.9L214.911 343.806C215.59 343.411 216.113 342.794 216.393 342.059C216.673 341.325 216.692 340.516 216.448 339.769L198.333 285.152C198.18 284.693 197.927 284.274 197.593 283.925C197.258 283.575 196.851 283.305 196.399 283.132C195.947 282.959 195.463 282.888 194.981 282.925C194.498 282.961 194.03 283.104 193.61 283.343ZM200.83 330.416C199.29 331.308 197.521 331.722 195.745 331.607C193.97 331.493 192.268 330.854 190.856 329.772C189.444 328.689 188.385 327.212 187.812 325.528C187.24 323.843 187.18 322.027 187.641 320.308C188.101 318.59 189.061 317.046 190.399 315.874C191.737 314.701 193.393 313.952 195.157 313.72C196.921 313.489 198.714 313.787 200.309 314.575C201.904 315.363 203.229 316.607 204.117 318.149C205.305 320.212 205.626 322.663 205.01 324.962C204.394 327.262 202.891 329.223 200.83 330.416Z" fill="black"/>
<path d="M329.805 129.859L318.928 136.138L307.343 142.827L308.625 145.047L302.956 148.321L301.674 146.1L254.426 173.379L255.708 175.599L250.038 178.873L248.756 176.652L196.689 206.713L206.466 223.646C207.054 224.662 207.837 225.552 208.77 226.265C209.702 226.978 210.767 227.5 211.901 227.801C213.036 228.102 214.219 228.177 215.382 228.02C216.546 227.863 217.667 227.478 218.681 226.888L253.078 207.029L241.332 186.684L341.082 129.358L338.48 124.85L329.805 129.859Z" fill="black"/>
<path d="M183.996 276.294C185.197 276.432 233.358 248.008 233.358 248.008C235.475 246.786 238.082 247.461 240.427 248.249C242.374 248.941 243.997 250.329 244.982 252.145L250.443 262.259C250.792 262.907 250.874 263.665 250.674 264.373C250.474 265.081 250.007 265.684 249.371 266.054L221.378 281.989C221.948 282.468 222.432 283.04 222.809 283.682C223.277 284.487 223.563 285.384 223.646 286.311L254.362 268.501C256.753 267.121 257.13 263.955 255.755 261.574L248.843 249.601C247.794 247.789 247.395 245.673 247.71 243.603C247.985 241.409 249.071 239.398 250.755 237.964C252.718 236.302 254.479 233.635 253.137 231.31L250.682 227.058L177.476 269.323C177.861 270.512 179.768 275.736 183.996 276.294ZM239.355 244.647C239.158 244.069 239.122 243.448 239.25 242.85C239.378 242.253 239.666 241.702 240.084 241.255C240.501 240.809 241.032 240.485 241.619 240.317C242.207 240.149 242.829 240.144 243.419 240.302C244.009 240.46 244.545 240.775 244.97 241.215C245.395 241.654 245.692 242.2 245.83 242.795C245.969 243.39 245.943 244.012 245.755 244.593C245.568 245.175 245.226 245.694 244.766 246.097C244.349 246.461 243.849 246.717 243.31 246.843C242.77 246.968 242.208 246.959 241.674 246.815C241.139 246.672 240.648 246.399 240.243 246.021C239.839 245.643 239.534 245.171 239.355 244.647Z" fill="black"/>
<path d="M330.571 179.674L354.393 165.921L353.643 159.449L327.581 174.496L330.571 179.674Z" fill="black"/>
<path d="M243.686 245.536C244.077 245.311 244.392 244.974 244.591 244.57C244.791 244.165 244.866 243.711 244.807 243.264C244.748 242.816 244.558 242.397 244.26 242.058C243.963 241.719 243.572 241.475 243.136 241.359C242.7 241.242 242.24 241.257 241.813 241.402C241.386 241.547 241.011 241.815 240.737 242.173C240.462 242.531 240.3 242.962 240.27 243.412C240.241 243.862 240.345 244.311 240.571 244.702C240.873 245.225 241.371 245.608 241.956 245.764C242.54 245.921 243.162 245.839 243.686 245.536Z" fill="black"/>
<path d="M153.251 228.061C153.009 227.645 152.642 227.314 152.203 227.116C151.763 226.918 151.272 226.863 150.8 226.957L143.138 228.483C142.823 228.547 142.528 228.685 142.277 228.885C142.026 229.086 141.826 229.343 141.693 229.636C141.561 229.929 141.5 230.249 141.516 230.57C141.531 230.891 141.623 231.204 141.783 231.482L143.725 234.846L153.808 229.025L153.251 228.061Z" fill="black"/>
<path d="M197.142 381.355C197.21 381.468 197.32 381.551 197.447 381.585C197.575 381.619 197.711 381.603 197.827 381.539L240.35 356.988C240.481 356.914 240.593 356.811 240.679 356.688C240.764 356.564 240.821 356.423 240.845 356.274L241.463 352.566L195.756 378.955L197.142 381.355Z" fill="black"/>
<path d="M152.196 292.335C162.149 286.312 170.132 301.055 170.132 301.055L170.286 302.958C171.261 301.898 171.969 300.619 172.348 299.23C172.727 297.84 172.768 296.379 172.465 294.971C170.896 288.607 168.711 277.383 168.188 274.686L136.749 292.837L136.494 293.073L127.744 298.124C127.391 298.33 127.084 298.604 126.84 298.932C126.596 299.259 126.42 299.632 126.323 300.028L125.489 303.559C125.43 303.808 125.438 304.068 125.513 304.313C125.588 304.557 125.727 304.778 125.915 304.951L127.406 306.333C127.465 306.389 127.54 306.424 127.621 306.434C127.701 306.445 127.783 306.429 127.854 306.389C129.779 305.316 142.973 297.9 152.196 292.335Z" fill="black"/>
<path d="M132.79 276.879C138.013 275.123 140.314 276.315 141.289 277.327C140.191 272.058 138.546 266.919 136.38 261.993C135.442 263.146 134.938 264.591 134.958 266.077C134.959 266.832 134.844 267.582 134.617 268.302C134.411 268.923 134.084 269.496 133.656 269.99C133.227 270.484 132.706 270.888 132.121 271.18C126.48 274.046 123.974 273.502 123.017 272.87C122.993 272.851 122.964 272.84 122.934 272.838C122.903 272.836 122.873 272.843 122.846 272.858C122.82 272.873 122.799 272.896 122.785 272.923C122.772 272.951 122.767 272.982 122.771 273.012C123.683 275.006 125.932 279.251 132.79 276.879Z" fill="black"/>
<path d="M215.523 285.181C215.127 285.407 214.807 285.746 214.604 286.154C214.401 286.562 214.323 287.021 214.381 287.473C214.439 287.925 214.63 288.35 214.929 288.693C215.229 289.037 215.623 289.284 216.063 289.403C216.503 289.522 216.969 289.508 217.401 289.362C217.833 289.216 218.211 288.946 218.489 288.584C218.767 288.223 218.932 287.787 218.962 287.333C218.992 286.878 218.886 286.424 218.658 286.029C218.352 285.504 217.851 285.121 217.265 284.962C216.678 284.804 216.052 284.882 215.523 285.181Z" fill="black"/>
<path d="M215.554 281.308L215.363 280.738L208.817 263.703L203.374 266.846L229.364 344.836C229.517 345.293 229.507 345.79 229.335 346.24C229.164 346.691 228.841 347.068 228.422 347.308L179.285 375.677C179.481 376.017 179.596 376.216 179.596 376.216C181.391 379.325 185.725 380.678 188.215 381.193C188.931 381.334 189.674 381.209 190.306 380.843L242.864 350.498C243.271 350.007 243.531 349.41 243.611 348.776C243.692 348.143 243.591 347.5 243.319 346.922C243.101 346.47 242.766 346.085 242.348 345.807C238.572 343.174 236.608 337.655 236.608 337.655L220.32 292.705L220.139 292.13C221.064 291.585 221.824 290.799 222.336 289.855C222.848 288.912 223.092 287.846 223.044 286.774C223.008 285.922 222.786 285.088 222.394 284.33C222.003 283.573 221.45 282.91 220.776 282.388C220.053 281.808 219.202 281.408 218.295 281.221C217.387 281.033 216.448 281.063 215.554 281.308ZM218.37 290.114C217.79 290.452 217.122 290.61 216.452 290.568C215.781 290.526 215.139 290.286 214.605 289.878C214.071 289.47 213.67 288.914 213.453 288.278C213.236 287.643 213.212 286.957 213.385 286.308C213.558 285.659 213.919 285.076 214.424 284.632C214.928 284.189 215.553 283.905 216.219 283.817C216.884 283.729 217.561 283.84 218.164 284.137C218.766 284.434 219.267 284.902 219.603 285.484C220.049 286.263 220.17 287.186 219.939 288.053C219.708 288.92 219.144 289.661 218.37 290.114Z" fill="black"/>
</svg>
