<svg width="512" height="160" viewBox="0 0 512 160" fill="none" xmlns="http://www.w3.org/2000/svg">
<path d="M219.091 63.0957C219.091 63.0957 219.014 70.57 219.091 71.8248C219.276 74.88 219.691 76.975 221.578 78.9826C223.761 81.3504 229.642 81.765 232.173 81.6887C232.208 81.6794 232.239 81.6589 232.261 81.6303C232.283 81.6016 232.295 81.5666 232.295 81.5305C232.295 81.4943 232.283 81.4592 232.261 81.4306C232.239 81.402 232.208 81.3815 232.173 81.3722C230.133 80.4884 227.165 77.5423 225.812 75.5565C225.144 74.596 224.79 73.4527 224.797 72.2831V63.1503L219.091 63.0957Z" fill="black"/>
<path d="M279.244 36.4948H358.755H392.973L393.202 35.9601V14.312L279.244 14.0938V36.4948Z" fill="black"/>
<path d="M383.186 3.01736C383.177 2.68444 383.092 2.35794 382.938 2.06287C382.783 1.76781 382.563 1.512 382.295 1.31506C382.026 1.11811 381.716 0.985241 381.388 0.926634C381.061 0.868026 380.724 0.885234 380.404 0.976936L372.373 3.50837C371.867 3.67173 371.426 3.9908 371.112 4.41998C370.799 4.84915 370.629 5.36646 370.627 5.89796V6.90181H383.186V3.01736Z" fill="black"/>
<path d="M171.212 100.348C169.649 100.346 168.12 100.807 166.82 101.674C165.519 102.54 164.505 103.773 163.905 105.217C163.306 106.66 163.148 108.249 163.451 109.782C163.755 111.315 164.506 112.724 165.611 113.83C166.715 114.936 168.123 115.689 169.655 115.995C171.188 116.3 172.777 116.145 174.221 115.547C175.665 114.949 176.9 113.937 177.768 112.638C178.637 111.338 179.1 109.81 179.1 108.248C179.098 106.155 178.266 104.149 176.787 102.669C175.309 101.188 173.304 100.353 171.212 100.348Z" fill="black"/>
<path d="M358.941 44.4806H389.515L392.025 38.6758H358.941V44.4806Z" fill="black"/>
<path d="M187.829 142.89L204.076 63.4662C199.591 63.619 184.665 64.0555 183.039 62.8116C179.394 60.0182 180.027 54.6935 180.387 52.7949H171.876C171.134 54.9772 167.25 66.205 165.33 72.6427C164.118 76.7999 160.638 78.6767 157.746 79.5387C153.033 89.4353 138.248 120.38 133.185 130.036C130.864 134.52 129.698 139.512 129.791 144.56H185.778C186.259 144.557 186.725 144.391 187.098 144.087C187.471 143.783 187.729 143.361 187.829 142.89ZM176.721 136.878H150.534C149.787 136.878 149.052 136.692 148.394 136.337C147.737 135.983 147.178 135.47 146.768 134.846C146.358 134.221 146.109 133.505 146.045 132.76C145.98 132.016 146.102 131.268 146.398 130.582L164.73 88.0277C165.266 86.727 166.144 85.5959 167.272 84.7543C170.698 82.2447 172.815 77.3128 173.764 74.5958C174.075 73.7639 174.632 73.0467 175.361 72.5398C176.09 72.0328 176.957 71.7604 177.845 71.7589H188.494C189.139 71.7623 189.774 71.9083 190.356 72.1865C190.937 72.4646 191.449 72.868 191.856 73.3676C192.263 73.8673 192.554 74.4508 192.708 75.0763C192.863 75.7018 192.877 76.3538 192.75 76.9854L181.14 133.277C180.93 134.294 180.375 135.207 179.57 135.863C178.765 136.518 177.759 136.877 176.721 136.878Z" fill="black"/>
<path d="M227.328 27.579V8.01496L181.26 6.92383L165.068 7.00021L150.785 25.0803C150.457 28.3538 148.526 45.0372 142.056 50.4602H155.848L164.817 21.9924H167.152L158.161 50.4602H162.394L171.364 21.9924H173.699L164.708 50.4602H168.941L177.91 21.9924H180.791L171.287 50.4602H175.488L184.457 21.9924H186.792L177.801 50.4602H182.035L191.004 21.9924H193.339L184.348 50.4602H188.582L197.551 21.9924H199.886L190.895 50.4602H195.129L204.098 21.9924H206.433L197.442 50.4602H201.675L210.645 21.9924H212.98L203.989 50.4602H208.222L217.191 21.9924H219.526L210.535 50.4602H357.839V38.6759H238.436C235.493 38.673 232.671 37.5033 230.588 35.4232C228.506 33.3431 227.334 30.5222 227.328 27.579Z" fill="black"/>
<path d="M188.494 72.8516H177.845C177.171 72.8557 176.516 73.0675 175.967 73.458C175.418 73.8486 175.003 74.3988 174.779 75.0338C173.786 77.8708 171.571 83.0319 167.905 85.7051C166.94 86.4242 166.187 87.3889 165.722 88.4985L147.391 131.053C147.155 131.577 147.058 132.153 147.107 132.726C147.157 133.299 147.352 133.85 147.675 134.326C147.985 134.798 148.408 135.186 148.905 135.454C149.402 135.723 149.958 135.864 150.523 135.865H176.71C177.496 135.862 178.257 135.589 178.867 135.093C179.477 134.596 179.898 133.906 180.06 133.137L191.68 76.7797C191.777 76.3058 191.768 75.8164 191.653 75.3466C191.538 74.8769 191.32 74.4384 191.015 74.0628C190.711 73.6872 190.327 73.3838 189.891 73.1744C189.455 72.9649 188.978 72.8547 188.494 72.8516ZM171.211 117.228C169.432 117.23 167.692 116.704 166.212 115.717C164.731 114.73 163.577 113.326 162.895 111.683C162.213 110.04 162.034 108.231 162.381 106.486C162.728 104.741 163.584 103.138 164.842 101.88C166.1 100.621 167.703 99.765 169.448 99.4184C171.194 99.0718 173.002 99.2508 174.646 99.9326C176.289 100.615 177.693 101.769 178.68 103.249C179.667 104.729 180.193 106.469 180.191 108.248C180.188 110.629 179.241 112.911 177.557 114.595C175.874 116.278 173.591 117.225 171.211 117.228Z" fill="black"/>
<path d="M383.186 8.02539H370.627H357.25V10.5896H350.703V8.02539H296.146V10.5896H289.599V8.02539H229.478V27.5786C229.479 28.7525 229.712 29.9147 230.163 30.9984C230.614 32.0822 231.275 33.0663 232.107 33.8944C232.939 34.7225 233.927 35.3783 235.013 35.8242C236.099 36.2701 237.262 36.4975 238.436 36.4932H278.153V13.001L393.203 13.2301V8.02539H383.186Z" fill="black"/>
<path d="M183.693 61.9391C184.665 62.6592 240.585 62.1245 240.585 62.1245C243.029 62.1245 244.95 64.0122 246.587 65.8671C247.927 67.44 248.638 69.4533 248.583 71.5192L248.256 83.0089C248.233 83.7442 247.926 84.442 247.399 84.955C246.871 85.468 246.166 85.7561 245.43 85.7586L213.22 85.5622C213.474 86.262 213.606 87 213.612 87.7444C213.616 88.6751 213.414 89.5951 213.023 90.4395L248.529 90.3741C251.289 90.3741 253.199 87.8208 253.199 85.0712V71.2465C253.197 69.1524 253.909 67.1203 255.217 65.4853C256.552 63.7228 258.499 62.5239 260.673 62.1245C263.205 61.6663 266.063 60.2369 266.063 57.5527V52.6426H181.533C181.271 53.8647 180.311 59.3422 183.693 61.9391ZM247.459 62.2118C247.578 61.6124 247.857 61.0565 248.267 60.6033C248.676 60.1502 249.202 59.8169 249.786 59.6392C250.371 59.4614 250.993 59.4458 251.585 59.594C252.178 59.7423 252.719 60.0488 253.151 60.4808C253.583 60.9128 253.89 61.4541 254.038 62.0468C254.186 62.6395 254.171 63.2614 253.993 63.8459C253.815 64.4305 253.482 64.9557 253.029 65.3655C252.576 65.7753 252.02 66.0543 251.42 66.1727C250.877 66.2799 250.316 66.2517 249.786 66.0906C249.257 65.9295 248.775 65.6405 248.383 65.249C247.992 64.8575 247.703 64.3756 247.541 63.8459C247.38 63.3162 247.352 62.755 247.459 62.2118Z" fill="black"/>
<path d="M358.941 51.5517H386.449L389.035 45.5723H358.941V51.5517Z" fill="black"/>
<path d="M250.766 65.1469C251.217 65.1469 251.658 65.0131 252.033 64.7626C252.408 64.512 252.7 64.1558 252.873 63.7391C253.045 63.3224 253.09 62.8639 253.002 62.4215C252.914 61.9791 252.697 61.5728 252.378 61.2539C252.059 60.9349 251.653 60.7177 251.211 60.6298C250.768 60.5418 250.31 60.5869 249.893 60.7595C249.476 60.9321 249.12 61.2244 248.87 61.5995C248.619 61.9745 248.485 62.4154 248.485 62.8664C248.485 63.4712 248.726 64.0513 249.153 64.479C249.581 64.9066 250.161 65.1469 250.766 65.1469Z" fill="black"/>
<path d="M181.184 4.79671C181.183 4.31458 181.03 3.84506 180.748 3.4538C180.467 3.06253 180.07 2.76907 179.613 2.61443L172.215 0.104813C171.91 0.00286437 171.586 -0.0252405 171.268 0.0228142C170.95 0.0708689 170.648 0.193707 170.387 0.381219C170.126 0.56873 169.914 0.815554 169.767 1.10137C169.62 1.38719 169.543 1.70382 169.542 2.02521V5.90967H181.184V4.79671Z" fill="black"/>
<path d="M142.547 159.498C142.55 159.63 142.603 159.756 142.697 159.85C142.79 159.943 142.917 159.997 143.049 160H192.15C192.3 160.001 192.449 159.968 192.585 159.904C192.721 159.84 192.841 159.746 192.936 159.629L195.325 156.727H142.547V159.498Z" fill="black"/>
<path d="M148.133 59.9314C159.765 59.6913 159.307 76.4512 159.307 76.4512L158.488 78.1752C159.863 77.7454 161.115 76.9919 162.139 75.978C163.162 74.9641 163.927 73.7194 164.37 72.3485C166.192 66.0526 169.913 55.2395 170.807 52.6426H134.505L134.167 52.719H124.063C123.655 52.7205 123.251 52.8044 122.876 52.9656C122.501 53.1269 122.163 53.3621 121.881 53.6573L119.393 56.2979C119.217 56.4839 119.094 56.7134 119.037 56.9627C118.979 57.212 118.989 57.4722 119.066 57.7164L119.666 59.6586C119.689 59.7364 119.736 59.8049 119.801 59.8539C119.866 59.903 119.945 59.9301 120.026 59.9314C122.23 59.9641 137.364 60.1387 148.133 59.9314Z" fill="black"/>
<path d="M139.056 36.843C144.457 37.9341 145.853 40.1164 146.192 41.4803C147.875 36.3688 149.02 31.0955 149.607 25.7461C148.218 26.2753 147.06 27.2756 146.334 28.5721C145.957 29.2262 145.482 29.8186 144.926 30.3289C144.437 30.7631 143.868 31.0965 143.25 31.3099C142.632 31.5234 141.978 31.6127 141.325 31.5728C135.008 31.2345 133.109 29.5105 132.596 28.4848C132.585 28.4565 132.565 28.4322 132.54 28.4151C132.515 28.3979 132.485 28.3888 132.454 28.3888C132.424 28.3888 132.394 28.3979 132.369 28.4151C132.343 28.4322 132.324 28.4565 132.312 28.4848C132.105 30.6671 131.931 35.4681 139.056 36.843Z" fill="black"/>
<path d="M206.553 85.3985C206.098 85.3963 205.651 85.5295 205.271 85.7811C204.891 86.0328 204.595 86.3916 204.419 86.8121C204.243 87.2326 204.196 87.6959 204.283 88.1432C204.371 88.5905 204.589 89.0017 204.911 89.3248C205.232 89.6479 205.642 89.8683 206.089 89.958C206.536 90.0477 207 90.0027 207.421 89.8288C207.842 89.6549 208.203 89.3598 208.456 88.981C208.71 88.6021 208.845 88.1566 208.845 87.7008C208.842 87.0929 208.6 86.5106 208.171 86.0798C207.742 85.6489 207.161 85.4042 206.553 85.3985Z" fill="black"/>
<path d="M208.517 82.0601L208.637 81.4709L211.485 63.4453H205.2L188.713 143.982C188.617 144.455 188.36 144.88 187.986 145.184C187.612 145.488 187.144 145.654 186.662 145.652H129.923C129.923 146.044 129.923 146.274 129.923 146.274C129.923 149.863 133 153.202 134.898 154.894C135.449 155.373 136.154 155.637 136.884 155.635H197.573C198.172 155.414 198.695 155.026 199.082 154.518C199.468 154.01 199.702 153.402 199.756 152.766C199.793 152.265 199.695 151.764 199.472 151.315C197.519 147.146 198.577 141.385 198.577 141.385L206.946 94.3136L207.077 93.7244C208.151 93.7158 209.202 93.4147 210.117 92.8532C211.032 92.2918 211.777 91.4914 212.271 90.5383C212.666 89.7824 212.891 88.9494 212.93 88.0976C212.97 87.2458 212.823 86.3955 212.5 85.6063C212.163 84.7428 211.627 83.9713 210.935 83.3549C210.242 82.7385 209.414 82.2948 208.517 82.0601ZM206.553 91.0947C205.882 91.0969 205.225 90.8997 204.665 90.5281C204.106 90.1566 203.669 89.6274 203.41 89.0075C203.152 88.3876 203.083 87.7049 203.213 87.046C203.343 86.387 203.665 85.7813 204.139 85.3057C204.613 84.83 205.218 84.5057 205.876 84.3739C206.535 84.2421 207.218 84.3086 207.839 84.5651C208.459 84.8217 208.99 85.2566 209.363 85.8149C209.737 86.3732 209.936 87.0297 209.936 87.7013C209.933 88.5985 209.576 89.4584 208.943 90.0938C208.309 90.7293 207.451 91.089 206.553 91.0947Z" fill="black"/>
</svg>
