<svg width="512" height="512" viewBox="0 0 512 512" fill="none" xmlns="http://www.w3.org/2000/svg">
<path d="M254.072 181.898C254.072 183.183 254.201 184.597 254.33 185.882H217.954C217.954 185.882 215.254 184.34 217.954 181.641L254.072 181.898Z" fill="black"/>
<path d="M278.88 186.012H261.913C261.785 184.727 261.656 183.313 261.656 182.027L278.495 182.156C281.837 183.57 278.88 186.012 278.88 186.012Z" fill="black"/>
<path d="M214.484 179.842V126.885C213.97 126.885 213.455 127.013 212.813 127.27C210.885 128.042 210.242 129.584 209.342 132.412C208.314 135.497 207.029 139.353 202.53 141.924C200.216 143.337 197.645 143.337 195.203 142.823L210.628 154.263V179.842H214.484Z" fill="black"/>
<path d="M254.074 179.971L215.77 179.842V126.885C216.798 127.013 217.569 127.527 218.597 128.17C220.011 129.07 221.682 130.098 224.124 130.098C225.153 130.098 226.952 129.97 229.137 129.841C237.492 129.327 254.845 128.299 260.886 131.641C266.285 134.597 269.755 132.412 271.94 130.869C273.997 129.584 274.125 129.713 274.768 130.355C276.439 132.283 276.953 132.926 271.04 145.008C270.783 145.394 270.655 145.908 270.912 146.937C261.143 154.649 254.588 166.603 254.074 179.971Z" fill="black"/>
<path d="M298.032 180.226L261.656 180.098C262.17 169.429 267.183 159.917 275.024 153.619C277.209 156.575 280.294 160.432 285.05 165.83C289.42 170.972 294.305 176.242 298.032 180.226Z" fill="black"/>
<path d="M342.249 213.133C341.478 211.462 339.421 207.863 336.465 203.107C334.408 206.834 331.709 210.305 328.624 213.261C338.778 230.999 344.177 250.023 347.647 264.419C353.303 288.712 344.434 353.881 344.434 353.881L350.089 383.444C379.267 260.82 342.249 213.133 342.249 213.133ZM300.217 145.394C299.446 145.394 298.675 145.265 297.903 145.265C290.063 145.265 282.865 147.707 276.952 151.949C283.507 160.818 297.775 176.628 304.459 183.312C312.428 190.125 319.112 198.094 324.511 206.449C327.596 203.235 330.038 199.379 331.709 195.266C322.84 180.87 310.114 160.947 300.217 145.394ZM295.333 137.81C289.42 128.427 285.307 122 285.307 122H206.257C192.632 122 187.49 123.542 187.49 135.625L188.647 136.653C192.246 139.61 197.002 142.309 201.244 139.738C204.971 137.553 206 134.597 206.899 131.64C207.799 128.941 208.699 126.113 211.912 124.828C212.812 124.442 213.455 124.314 214.869 124.314C216.54 124.314 218.725 125.213 219.882 125.985C221.167 126.756 222.324 127.527 224.123 127.527C225.023 127.527 226.823 127.399 229.008 127.27C238.262 126.627 255.486 125.728 262.17 129.327C266.283 131.512 268.469 130.098 270.654 128.684C272.325 127.656 274.638 126.242 276.823 128.684C279.523 131.897 279.266 133.954 274.124 144.751C280.294 140.766 287.621 138.324 295.333 137.81Z" fill="black"/>
<path d="M254.329 187.297C255.1 193.081 256.9 198.48 259.728 203.364H218.082L217.953 187.297H254.329Z" fill="black"/>
<path d="M277.208 187.297V203.364H268.853C265.383 198.737 262.941 193.21 262.041 187.297H277.208Z" fill="black"/>
<path d="M154.713 283.699H342.506C343.92 283.699 345.077 284.856 345.077 286.27V298.738C345.077 300.152 343.92 301.309 342.506 301.309H154.713C153.299 301.309 152.143 300.152 152.143 298.738V286.27C152.143 284.856 153.299 283.699 154.713 283.699Z" fill="black"/>
<path d="M302.788 217.76C301.246 218.017 299.703 218.145 298.032 218.145C286.721 218.145 276.567 213.004 269.883 204.777H277.209V204.906C286.336 207.862 294.948 212.232 302.788 217.76Z" fill="black"/>
<path d="M341.349 281.128H155.484C160.497 245.652 185.176 216.217 218.082 204.906V204.777H260.628C268.34 217.374 282.35 225.729 298.16 225.729C302.531 225.729 306.644 225.086 310.628 223.929C326.953 238.454 338.135 258.506 341.349 281.128Z" fill="black"/>
<path d="M154.971 303.879C159.727 351.309 199.702 388.199 248.417 388.199C297.004 388.199 337.108 351.181 341.863 303.879H154.971Z" fill="black"/>
<path d="M298.031 140.252C297.646 140.252 297.389 140.252 297.003 140.252C288.52 140.509 280.679 143.208 274.252 147.707C273.609 148.221 272.838 148.735 272.196 149.25C263.069 156.576 257.157 167.502 256.643 179.97C256.643 180.484 256.643 181.127 256.643 181.641V181.898C256.643 183.312 256.771 184.597 256.9 185.883C256.9 186.397 257.028 186.782 257.028 187.296C257.799 193.081 259.856 198.608 262.812 203.364C263.069 203.749 263.326 204.263 263.584 204.649C271.039 215.703 283.635 223.03 298.031 223.03C301.502 223.03 304.844 222.644 308.186 221.744C315.512 219.945 322.196 216.089 327.338 210.819C330.423 207.734 332.994 204.263 334.922 200.407C337.749 194.752 339.42 188.325 339.42 181.641C339.42 158.89 320.911 140.252 298.031 140.252ZM333.379 197.965C331.58 201.95 329.009 205.677 325.924 208.762C320.525 214.418 313.456 218.402 305.487 219.945C303.044 220.459 300.474 220.716 297.903 220.716C285.049 220.716 273.609 214.418 266.54 204.906C266.154 204.52 265.897 204.006 265.64 203.621C262.427 198.865 260.242 193.466 259.342 187.554C259.213 187.039 259.213 186.654 259.213 186.14C259.085 184.854 258.956 183.44 258.956 182.155V181.898C258.956 181.384 258.956 180.741 258.956 180.227C259.47 168.659 264.997 158.504 273.352 151.692C273.995 151.178 274.638 150.663 275.409 150.149C281.707 145.651 289.419 143.08 297.774 143.08C298.031 143.08 298.16 143.08 298.417 143.08C319.626 143.465 336.721 160.689 336.721 181.898C336.85 187.554 335.693 192.952 333.379 197.965Z" fill="black"/>
</svg>
