<svg width="512" height="512" viewBox="0 0 512 512" fill="none" xmlns="http://www.w3.org/2000/svg">
<path d="M291.028 190.382C290.385 191.495 289.79 192.784 289.258 193.961L257.756 175.773C257.756 175.773 256.19 173.088 259.877 172.1L291.028 190.382Z" fill="black"/>
<path d="M310.455 206.348L295.762 197.865C296.293 196.687 296.889 195.398 297.531 194.285L312.049 202.816C314.237 205.711 310.455 206.348 310.455 206.348Z" fill="black"/>
<path d="M257.772 168.805L284.25 122.943C283.805 122.686 283.295 122.54 282.61 122.441C280.555 122.145 279.227 123.16 277.034 125.159C274.601 127.316 271.56 130.013 266.378 129.99C263.668 130.058 261.441 128.772 259.583 127.106L267.222 144.725L254.432 166.877L257.772 168.805Z" fill="black"/>
<path d="M291.993 188.712L258.885 169.448L285.363 123.586C286.19 124.211 286.6 125.042 287.17 126.113C287.944 127.599 288.877 129.325 290.992 130.546C291.883 131.06 293.505 131.849 295.462 132.83C302.955 136.562 318.496 144.348 322.057 150.263C325.254 155.522 329.353 155.365 332.016 155.122C334.44 155.037 334.487 155.213 334.722 156.091C335.205 158.596 335.329 159.41 324.167 166.917C323.752 167.122 323.384 167.503 323.092 168.522C310.776 170.317 299.122 177.392 291.993 188.712Z" fill="black"/>
<path d="M329.933 210.914L298.495 192.615C304.275 183.633 313.372 177.902 323.311 176.368C323.725 180.02 324.469 184.902 325.888 191.956C327.102 198.593 328.697 205.599 329.933 210.914Z" fill="black"/>
<path d="M351.773 261.519C351.94 259.687 351.959 255.541 351.777 249.945C348.132 252.144 344.059 253.8 339.909 254.818C339.834 275.257 334.998 294.431 330.805 308.634C323.556 332.5 283.291 384.503 283.291 384.503L273.407 412.934C359.988 321.327 351.773 261.519 351.773 261.519ZM349.242 181.84C348.574 181.454 347.97 180.957 347.303 180.572C340.512 176.651 333.057 175.167 325.816 175.884C327.059 186.843 331.51 207.669 333.956 216.799C337.452 226.683 339.255 236.927 339.753 246.862C344.032 245.621 348.075 243.503 351.578 240.776C351.096 223.874 350.037 200.258 349.242 181.84ZM348.804 172.83C348.375 161.748 348.026 154.125 348.026 154.125L279.567 114.6C267.767 107.788 262.543 106.553 256.502 117.016L256.99 118.485C258.628 122.845 261.397 127.561 266.356 127.455C270.677 127.427 273.046 125.38 275.303 123.27C277.432 121.382 279.625 119.383 283.051 119.877C284.023 119.993 284.644 120.203 285.868 120.91C287.315 121.745 288.758 123.617 289.374 124.863C290.101 126.174 290.718 127.42 292.276 128.32C293.055 128.77 294.678 129.558 296.635 130.539C304.971 134.61 320.337 142.443 324.326 148.902C326.795 152.851 329.395 152.719 331.994 152.587C333.955 152.532 336.666 152.464 337.337 155.672C338.068 159.804 336.817 161.457 326.966 168.237C334.302 167.871 341.868 169.419 348.804 172.83Z" fill="black"/>
<path d="M288.551 195.184C286.327 200.579 285.186 206.154 285.193 211.798L249.127 190.975L257.049 176.996L288.551 195.184Z" fill="black"/>
<path d="M308.366 206.625L300.332 220.539L293.097 216.362C292.405 210.619 293.053 204.611 295.23 199.041L308.366 206.625Z" fill="black"/>
<path d="M154.08 228.863L316.713 322.76C317.937 323.467 318.361 325.047 317.654 326.271L311.42 337.069C310.713 338.294 309.133 338.717 307.908 338.01L145.275 244.114C144.051 243.407 143.627 241.827 144.334 240.602L150.568 229.804C151.275 228.58 152.855 228.157 154.08 228.863Z" fill="black"/>
<path d="M315.285 245.797C313.821 245.249 312.421 244.589 310.974 243.753C301.178 238.098 294.955 228.568 293.279 218.102L299.624 221.765L299.56 221.876C305.985 229 311.258 237.09 315.285 245.797Z" fill="black"/>
<path d="M316.997 319.956L156.034 227.024C178.113 198.807 214.203 185.656 248.356 192.312L248.42 192.201L285.266 213.474C285.646 228.239 293.602 242.48 307.294 250.385C311.079 252.57 314.962 254.07 318.992 255.061C325.867 275.801 325.525 298.758 316.997 319.956Z" fill="black"/>
<path d="M144.213 246.469C124.617 289.922 140.791 341.858 182.98 366.215C225.057 390.509 278.297 378.502 306.067 339.915L144.213 246.469Z" fill="black"/>
<path d="M349.922 176.294C349.588 176.101 349.365 175.973 349.031 175.78C341.556 171.761 333.416 170.178 325.601 170.861C324.787 170.985 323.862 171.044 323.049 171.168C311.482 172.95 300.898 179.456 294.219 189.996C293.962 190.442 293.641 190.998 293.384 191.443L293.255 191.666C292.548 192.891 292.017 194.068 291.485 195.245C291.228 195.691 291.147 196.089 290.89 196.534C288.666 201.929 287.683 207.744 287.865 213.341C287.895 213.803 287.861 214.377 287.891 214.84C288.82 228.14 296.066 240.784 308.533 247.982C311.539 249.717 314.626 251.054 317.97 251.946C325.215 254.051 332.931 254.053 340.019 252.06C344.233 250.931 348.194 249.211 351.792 246.835C357.069 243.351 361.729 238.621 365.071 232.832C376.447 213.129 369.736 187.734 349.922 176.294ZM351.677 243.949C348.127 246.5 344.037 248.443 339.822 249.572C332.319 251.771 324.205 251.687 316.532 249.038C314.16 248.262 311.805 247.199 309.579 245.914C298.447 239.487 291.689 228.313 290.322 216.54C290.181 216.014 290.216 215.44 290.186 214.977C289.781 209.252 290.588 203.484 292.765 197.914C292.911 197.404 293.104 197.07 293.361 196.625C293.892 195.447 294.488 194.159 295.13 193.046L295.259 192.823C295.516 192.378 295.837 191.821 296.094 191.376C302.324 181.614 312.188 175.584 322.829 173.862C323.643 173.738 324.457 173.614 325.382 173.554C333.086 172.807 341.05 174.437 348.285 178.614C348.508 178.743 348.619 178.807 348.842 178.936C367.016 189.874 373.209 213.338 362.605 231.705C359.889 236.668 356.188 240.764 351.677 243.949Z" fill="black"/>
</svg>
