<svg width="512" height="512" viewBox="0 0 512 512" fill="none" xmlns="http://www.w3.org/2000/svg">
<path d="M191.197 215.958C187.646 180.376 175.185 166.969 172.14 164.173C171.74 163.807 171.096 163.59 170.382 163.59H168.241C167.545 163.59 166.901 163.793 166.501 164.16C163.386 166.942 150.49 180.431 146.766 215.944H191.197V215.958Z" fill="black"/>
<path d="M191.544 235.635V220.029H146.539V235.635L144.016 245.202V335.418C144.207 335.404 144.399 335.377 144.59 335.377C147.183 335.377 149.306 336.843 149.724 338.77H188.185C188.603 336.843 190.726 335.377 193.319 335.377C193.546 335.377 193.772 335.404 193.998 335.431V245.202L191.544 235.635Z" fill="black"/>
<path d="M188.17 340.127H149.708C149.291 342.054 147.167 343.52 144.574 343.52C144.383 343.52 144.191 343.492 144 343.479V347.591H193.983V343.465C193.756 343.492 193.53 343.52 193.304 343.52C190.711 343.52 188.588 342.054 188.17 340.127Z" fill="black"/>
<path d="M276.24 197.18C272.16 144.74 257.84 124.98 254.34 120.86C253.88 120.32 253.14 120 252.32 120H249.86C249.06 120 248.32 120.3 247.86 120.84C244.28 124.94 229.46 144.82 225.18 197.16H276.24V197.18Z" fill="black"/>
<path d="M276.64 226.18V203.18H224.92V226.18L222.02 240.28V373.24C222.24 373.22 222.46 373.18 222.68 373.18C225.66 373.18 228.1 375.34 228.58 378.18H272.78C273.26 375.34 275.7 373.18 278.68 373.18C278.94 373.18 279.2 373.22 279.46 373.26V240.28L276.64 226.18Z" fill="black"/>
<path d="M272.76 380.18H228.56C228.08 383.02 225.64 385.18 222.66 385.18C222.44 385.18 222.22 385.14 222 385.12V391.18H279.44V385.1C279.18 385.14 278.92 385.18 278.66 385.18C275.68 385.18 273.24 383.02 272.76 380.18Z" fill="black"/>
<path d="M354.657 215.958C351.107 180.376 338.646 166.969 335.601 164.173C335.2 163.807 334.557 163.59 333.843 163.59H331.702C331.006 163.59 330.362 163.793 329.962 164.16C326.847 166.942 313.951 180.431 310.227 215.944H354.657V215.958Z" fill="black"/>
<path d="M355.005 235.635V220.029H310V235.635L307.477 245.202V335.418C307.668 335.404 307.859 335.377 308.051 335.377C310.644 335.377 312.767 336.843 313.185 338.77H351.646C352.064 336.843 354.187 335.377 356.78 335.377C357.007 335.377 357.233 335.404 357.459 335.431V245.202L355.005 235.635Z" fill="black"/>
<path d="M351.631 340.127H313.169C312.752 342.054 310.628 343.52 308.035 343.52C307.844 343.52 307.652 343.492 307.461 343.479V347.591H357.444V343.465C357.217 343.492 356.991 343.52 356.765 343.52C354.172 343.52 352.048 342.054 351.631 340.127Z" fill="black"/>
</svg>
