<svg width="512" height="512" viewBox="0 0 512 512" fill="none" xmlns="http://www.w3.org/2000/svg">
<path d="M315.978 216.393C322.038 203.713 326.278 192.713 329.258 183.253C335.658 178.553 340.077 176.733 341.857 176.133C342.377 175.953 343.018 176.033 343.558 176.353L345.237 177.333C345.797 177.653 346.178 178.173 346.278 178.713C347.058 182.913 349.038 202.153 331.058 239.753L309.938 227.553L313.277 221.773L315.978 216.393Z" fill="black"/>
<path d="M297.199 255.314L240.699 353.174L256.999 362.574C258.459 360.814 260.999 360.294 263.019 361.474C263.199 361.574 263.359 361.714 263.519 361.834L316.199 270.574L319.859 259.794L328.979 244.014L307.599 231.674L301.819 241.694L297.199 255.314Z" fill="black"/>
<path d="M256.419 374.153L258.819 369.973C258.619 369.893 258.439 369.833 258.259 369.713C256.219 368.533 255.399 366.073 256.199 363.953L239.899 354.553L235.539 362.093L256.419 374.153Z" fill="black"/>
<path d="M323.261 177.254C331.421 151.334 329.901 137.234 329.181 133.354C329.061 132.654 328.561 132.014 327.861 131.614L325.741 130.394C325.041 129.994 324.261 129.894 323.581 130.114C318.441 131.874 295.661 141.694 265.781 184.874L297.621 203.254L310.001 210.394C316.041 197.714 320.281 186.714 323.261 177.254Z" fill="black"/>
<path d="M307.32 215.774L293.96 208.054L262.52 189.914L251.02 209.834L241.46 220.594L174.98 335.754C175.18 335.834 175.38 335.914 175.58 336.034C178.16 337.514 179.2 340.614 178.18 343.314L216.46 365.394C218.3 363.174 221.5 362.534 224.06 364.014C224.3 364.154 224.5 364.314 224.7 364.474L229.54 356.094L233.9 348.554L234.7 347.174L291.2 249.314L295.82 235.694L301.6 225.674L303.98 221.554L307.32 215.774Z" fill="black"/>
<path d="M215.46 367.135L177.18 345.035C175.34 347.255 172.14 347.895 169.58 346.415C169.38 346.295 169.22 346.155 169.04 346.035L166 351.295L215.74 380.015L218.78 374.755C218.54 374.655 218.3 374.575 218.06 374.435C215.5 372.935 214.46 369.835 215.46 367.135Z" fill="black"/>
</svg>
