<svg width="512" height="512" viewBox="0 0 512 512" fill="none" xmlns="http://www.w3.org/2000/svg">
<path d="M314 196.24C366.44 192.16 386.2 177.84 390.32 174.34C390.86 173.88 391.18 173.14 391.18 172.32V169.86C391.18 169.06 390.88 168.32 390.34 167.86C386.24 164.28 366.36 149.46 314.02 145.18V196.24H314Z" fill="black"/>
<path d="M285 196.64H308V144.92H285L270.9 142.02H137.94C137.96 142.24 138 142.46 138 142.68C138 145.66 135.84 148.1 133 148.58V192.78C135.84 193.26 138 195.7 138 198.68C138 198.94 137.96 199.2 137.92 199.46H270.9L285 196.64Z" fill="black"/>
<path d="M131 192.76V148.56C128.16 148.08 126 145.64 126 142.66C126 142.44 126.04 142.22 126.06 142H120V199.44H126.08C126.04 199.18 126 198.92 126 198.66C126 195.68 128.16 193.24 131 192.76Z" fill="black"/>
<path d="M314 281.701C366.44 277.621 386.2 263.301 390.32 259.801C390.86 259.341 391.18 258.601 391.18 257.781V255.321C391.18 254.521 390.88 253.781 390.34 253.321C386.24 249.741 366.36 234.921 314.02 230.641V281.701H314Z" fill="black"/>
<path d="M285 282.1H308V230.38H285L270.9 227.48H137.94C137.96 227.7 138 227.92 138 228.14C138 231.12 135.84 233.56 133 234.04V278.24C135.84 278.72 138 281.16 138 284.14C138 284.4 137.96 284.66 137.92 284.92H270.9L285 282.1Z" fill="black"/>
<path d="M131 278.221V234.021C128.16 233.541 126 231.101 126 228.121C126 227.901 126.04 227.681 126.06 227.461H120V284.901H126.08C126.04 284.641 126 284.381 126 284.121C126 281.141 128.16 278.701 131 278.221Z" fill="black"/>
<path d="M314 367.16C366.44 363.08 386.2 348.76 390.32 345.26C390.86 344.8 391.18 344.06 391.18 343.24V340.78C391.18 339.98 390.88 339.24 390.34 338.78C386.24 335.2 366.36 320.38 314.02 316.1V367.16H314Z" fill="black"/>
<path d="M285 367.559H308V315.839H285L270.9 312.939H137.94C137.96 313.159 138 313.379 138 313.599C138 316.579 135.84 319.019 133 319.499V363.699C135.84 364.179 138 366.619 138 369.599C138 369.859 137.96 370.119 137.92 370.379H270.9L285 367.559Z" fill="black"/>
<path d="M131 363.68V319.48C128.16 319 126 316.56 126 313.58C126 313.36 126.04 313.14 126.06 312.92H120V370.36H126.08C126.04 370.1 126 369.84 126 369.58C126 366.6 128.16 364.16 131 363.68Z" fill="black"/>
</svg>
