<svg width="512" height="512" viewBox="0 0 512 512" fill="none" xmlns="http://www.w3.org/2000/svg">
<path d="M282.24 197.18C278.16 144.74 263.84 124.98 260.34 120.86C259.88 120.32 259.14 120 258.32 120H255.86C255.06 120 254.32 120.3 253.86 120.84C250.28 124.94 235.46 144.82 231.18 197.16H282.24V197.18Z" fill="black"/>
<path d="M282.64 226.18V203.18H230.92V226.18L228.02 240.28V373.24C228.24 373.22 228.46 373.18 228.68 373.18C231.66 373.18 234.1 375.34 234.58 378.18H278.78C279.26 375.34 281.7 373.18 284.68 373.18C284.94 373.18 285.2 373.22 285.46 373.26V240.28L282.64 226.18Z" fill="black"/>
<path d="M278.76 380.18H234.56C234.08 383.02 231.64 385.18 228.66 385.18C228.44 385.18 228.22 385.14 228 385.12V391.18H285.44V385.1C285.18 385.14 284.92 385.18 284.66 385.18C281.68 385.18 279.24 383.02 278.76 380.18Z" fill="black"/>
</svg>
