<svg width="512" height="512" viewBox="0 0 512 512" fill="none" xmlns="http://www.w3.org/2000/svg">
<path d="M78.63 227.16H75.5625V248.633H78.63V227.16Z" fill="black"/>
<path d="M74.5731 229.436H67.6465V246.356H74.5731V229.436Z" fill="black"/>
<path d="M12.4316 222.016V253.779H19.754C20.6446 239.926 20.0509 227.656 19.754 222.016H12.4316Z" fill="black"/>
<path d="M6 261.793H11.3434C11.4423 261.793 11.5413 261.694 11.5413 261.595V214.198C11.5413 214.099 11.4423 214 11.3434 214H6.29685C6.09895 214 6.09895 214.099 6.09895 214.198L6 261.793Z" fill="black"/>
<path d="M66.6575 229.436H66.1627L20.7441 223.697C21.041 229.535 21.4368 240.123 20.7441 251.997L66.0638 246.357H66.6575V229.436Z" fill="black"/>
<path d="M82.8859 227.16H80.4121V248.633H82.8859V227.16Z" fill="black"/>
<path d="M127.117 232.01H83.5781V242.795H127.117V232.01Z" fill="black"/>
<path d="M127.117 227.16H83.5781V231.118H127.117V227.16Z" fill="black"/>
<path d="M127.117 243.686H83.5781V248.633H127.117V243.686Z" fill="black"/>
<path d="M134.042 242.795C135.032 242.795 135.724 241.905 135.724 240.915V233.89C135.724 232.9 134.933 232.01 134.042 232.01H131.568V242.795H134.042Z" fill="black"/>
<path d="M154.129 224.193L142.255 227.161H131.568V231.119H134.339C135.724 231.119 136.813 232.208 136.813 233.593V241.212C136.813 242.598 135.724 243.686 134.339 243.686H131.568V248.634H142.156L155.02 251.8C155.613 251.998 156.306 251.998 156.999 251.998H218.447V223.797H158.087C156.702 223.797 155.416 223.896 154.129 224.193ZM215.281 248.139H165.41C159.67 248.139 155.119 243.488 155.119 237.848C155.119 232.208 159.769 227.557 165.41 227.557H215.281V248.139Z" fill="black"/>
<path d="M157.098 237.848C157.098 243.092 161.155 247.248 166.498 247.248H214.489V228.447H166.498C161.254 228.447 157.098 232.603 157.098 237.848Z" fill="black"/>
<path d="M223.89 251.998H220.328V223.797H223.989L223.89 251.998Z" fill="black"/>
<path d="M293.254 230.229H291.275V245.566H293.254V230.229Z" fill="black"/>
<path d="M290.386 230.229H276.236V245.566H290.386V230.229Z" fill="black"/>
<path d="M270.199 249.424L275.444 245.664V230.03L270.199 226.27V249.424Z" fill="black"/>
<path d="M323.535 230.229H294.146V245.566H323.535V230.229Z" fill="black"/>
<path d="M269.309 226.072L269.21 225.973H224.979V249.82H269.21L269.309 249.721V226.072Z" fill="black"/>
<path d="M329.471 230.229H324.523V245.566H329.471V230.229Z" fill="black"/>
<path d="M366.876 230.229H348.669H330.561V245.566H366.876V230.229Z" fill="black"/>
<path d="M381.42 229.238C381.618 229.238 381.717 229.04 381.618 228.842C381.024 227.852 379.936 227.259 378.749 227.259H373.504C372.91 227.259 372.218 227.16 371.723 226.863L369.15 225.676C369.051 225.577 368.854 225.676 368.854 225.873V229.04C368.854 229.139 368.952 229.238 369.051 229.238H381.42Z" fill="black"/>
<path d="M368.854 246.753V249.82C368.854 249.919 369.051 250.018 369.15 250.018L371.723 248.831C372.218 248.534 372.812 248.435 373.405 248.435H378.353C379.738 248.435 381.025 247.742 381.717 246.555H369.051C368.952 246.555 368.854 246.654 368.854 246.753Z" fill="black"/>
<path d="M499.567 233.79C499.567 233.592 499.468 233.394 499.27 233.394L462.658 226.764C459.888 226.27 457.117 225.973 454.347 225.973H448.805C448.706 225.973 448.607 226.072 448.607 226.171V249.622C448.607 249.721 448.706 249.82 448.805 249.82H454.347C457.117 249.82 459.888 249.523 462.658 249.028L499.27 242.3C499.468 242.3 499.567 242.102 499.567 241.904V233.79Z" fill="black"/>
<path d="M505.902 240.618H500.559V235.176H506.001L505.902 240.618Z" fill="black"/>
<path d="M379.441 238.144C379.936 238.045 380.233 237.946 380.233 237.748C380.233 237.551 379.936 237.353 379.441 237.353L374.593 236.759C373.504 236.66 372.515 236.363 371.525 235.868L368.854 234.582V241.113L371.327 239.826C372.416 239.233 373.702 238.837 374.988 238.738L379.441 238.144Z" fill="black"/>
<path fill-rule="evenodd" clip-rule="evenodd" d="M302.754 259.22C303.743 261.001 305.92 262.585 310.67 263.475C311.857 262.189 311.066 261.892 309.878 261.496C308.295 260.903 306.019 260.111 306.712 256.351C306.712 256.252 306.712 255.955 306.811 255.757C306.811 255.46 306.91 255.064 306.91 254.768C305.03 255.559 303.546 257.241 302.754 259.22Z" fill="black"/>
<path fill-rule="evenodd" clip-rule="evenodd" d="M314.53 264.86V254.074H316.608V264.761C316.608 268.125 313.838 270.896 310.473 270.896H302.359V268.818H310.473C312.749 268.917 314.53 267.037 314.53 264.86Z" fill="black"/>
<path d="M285.932 248.533V261.792C285.932 262.881 285.041 263.87 283.854 263.87H281.281V265.948H283.854C284.942 265.948 285.932 266.839 285.932 268.026V271.094H301.17V261.396C301.17 256.944 304.832 253.282 309.284 253.282H310.769V247.642H287.02C286.427 247.543 285.932 247.939 285.932 248.533ZM297.41 265.354C298.499 265.354 299.389 266.245 299.389 267.333C299.389 268.422 298.499 269.312 297.41 269.312C296.322 269.312 295.431 268.422 295.431 267.333C295.431 266.245 296.322 265.354 297.41 265.354ZM292.859 249.522C293.452 249.522 293.848 250.017 293.848 250.512C293.848 251.105 293.353 251.501 292.859 251.501C292.265 251.501 291.869 251.006 291.869 250.512C291.77 250.017 292.265 249.522 292.859 249.522ZM288.802 249.522C289.395 249.522 289.791 250.017 289.791 250.512C289.791 251.105 289.296 251.501 288.802 251.501C288.208 251.501 287.812 251.006 287.812 250.512C287.713 250.017 288.208 249.522 288.802 249.522Z" fill="black"/>
<path d="M297.411 268.422C298.005 268.422 298.401 267.928 298.401 267.433C298.401 266.839 297.906 266.443 297.411 266.443C296.818 266.443 296.422 266.938 296.422 267.433C296.422 267.928 296.818 268.422 297.411 268.422Z" fill="black"/>
<path d="M316.509 247.545H311.957V253.185H317.597V248.633C317.498 247.941 317.102 247.545 316.509 247.545ZM314.827 251.602C314.233 251.602 313.837 251.107 313.837 250.612C313.837 250.019 314.332 249.623 314.827 249.623C315.42 249.623 315.816 250.118 315.816 250.612C315.816 251.107 315.42 251.602 314.827 251.602Z" fill="black"/>
<path fill-rule="evenodd" clip-rule="evenodd" d="M285.932 271.984V296.623C285.932 297.613 286.921 298.503 288.01 298.503H299.389C300.379 298.503 301.269 297.613 301.269 296.623V271.984H285.932ZM298.795 293.556C298.795 294.644 297.905 295.535 296.816 295.535H290.384C289.296 295.535 288.405 294.644 288.405 293.556V274.854H298.894V293.556H298.795Z" fill="black"/>
<path fill-rule="evenodd" clip-rule="evenodd" d="M293.551 283.266C293.156 283.266 292.76 283.562 292.76 284.057C292.76 284.453 293.057 284.849 293.551 284.849C293.947 284.849 294.343 284.552 294.343 284.057C294.343 283.661 293.947 283.266 293.551 283.266Z" fill="black"/>
<path fill-rule="evenodd" clip-rule="evenodd" d="M289.297 275.844V292.863C289.297 293.853 290.089 294.644 291.078 294.644H296.026C297.015 294.644 297.807 293.853 297.807 292.863V275.844H289.297ZM293.552 285.838C292.562 285.838 291.771 285.046 291.771 284.057C291.771 283.067 292.562 282.276 293.552 282.276C294.541 282.276 295.333 283.067 295.333 284.057C295.333 285.046 294.541 285.838 293.552 285.838Z" fill="black"/>
<path d="M236.755 271.59C236.26 271.59 235.963 271.986 235.963 272.381C235.963 272.777 236.359 273.173 236.755 273.173C237.15 273.173 237.546 272.777 237.546 272.381C237.546 271.986 237.249 271.59 236.755 271.59Z" fill="black"/>
<path d="M239.722 262.089C239.722 261.594 239.326 261.1 238.733 261.1H234.775C234.28 261.1 233.785 261.495 233.785 262.089L233.884 284.65C233.884 285.244 234.181 285.343 234.775 285.343H239.03C239.524 285.343 239.821 285.244 239.821 284.65L239.722 262.089ZM236.754 274.26C235.764 274.26 234.973 273.468 234.973 272.479C234.973 271.489 235.764 270.698 236.754 270.698C237.743 270.698 238.535 271.489 238.535 272.479C238.535 273.468 237.842 274.26 236.754 274.26Z" fill="black"/>
<path d="M246.451 252.789V251.602H226.958V252.789H225.275V255.56C225.275 256.648 225.671 257.638 226.265 258.33L229.728 262.189C230.124 262.585 230.322 263.278 230.322 263.872V285.938C230.322 287.026 231.114 287.917 232.103 287.917H241.503C242.493 287.917 243.284 287.026 243.284 285.938V263.97C243.284 263.377 243.482 262.783 243.878 262.288L247.341 258.33C248.034 257.638 248.331 256.549 248.331 255.56V252.789H246.451ZM240.811 284.651C240.811 285.839 240.118 286.333 239.227 286.333H234.379C233.488 286.333 232.796 285.839 232.796 284.651V261.101C232.796 260.606 233.191 260.111 233.785 260.111H239.821C240.316 260.111 240.811 260.507 240.811 261.101V284.651Z" fill="black"/>
<path d="M245.462 220.629L244.868 220.035H230.025L229.432 220.629C229.234 220.827 229.135 221.025 229.135 221.223V224.785H245.759V221.223C245.66 220.926 245.561 220.728 245.462 220.629ZM242.295 223.597H232.598C231.905 223.597 231.411 223.004 231.411 222.41C231.411 221.717 232.004 221.223 232.598 221.223H242.295C242.988 221.223 243.483 221.816 243.483 222.41C243.483 223.103 242.889 223.597 242.295 223.597Z" fill="black"/>
<path d="M363.906 222.114L363.016 221.223C362.818 221.025 362.62 221.025 362.422 221.025H350.944C350.746 221.025 350.548 221.124 350.35 221.223L349.46 222.114C349.163 222.411 348.965 222.807 348.965 223.301V229.139H350.944V227.754C350.944 226.863 351.637 226.171 352.527 226.171H360.641C361.532 226.171 362.224 226.863 362.224 227.754V229.139H364.203V223.202C364.401 222.807 364.203 222.411 363.906 222.114ZM361.532 224.39H351.834C351.34 224.39 351.043 223.994 351.043 223.598C351.043 223.103 351.439 222.807 351.834 222.807H361.532C361.927 222.807 362.323 223.202 362.323 223.598C362.422 223.994 362.026 224.39 361.532 224.39Z" fill="black"/>
<path d="M412.095 229.338C409.127 229.931 406.059 230.228 402.992 230.228H381.915L368.854 230.129V233.593C368.854 233.593 370.437 234.384 371.624 234.978C372.614 235.473 373.603 235.769 374.593 235.967L379.837 236.759C380.629 236.858 381.024 237.353 381.024 237.748C381.024 238.144 380.53 238.639 379.738 238.738L374.988 239.332C373.702 239.53 372.416 239.925 371.228 240.618C370.14 241.212 368.854 242.003 368.854 242.003V245.665L381.816 245.566H381.915H402.992C406.059 245.566 409.127 245.862 412.095 246.456L429.214 249.722C429.313 249.722 429.412 249.623 429.412 249.524V226.27C429.412 226.171 429.313 226.072 429.214 226.072L412.095 229.338ZM400.122 232.9L397.846 232.504C410.908 234.384 424.266 228.348 424.266 228.348C417.043 232.603 408.335 234.285 400.122 232.9Z" fill="black"/>
<path d="M446.728 225.973H430.5V237.253H446.728V225.973Z" fill="black"/>
<path d="M446.728 238.242H430.5V249.721H446.728V238.242Z" fill="black"/>
<path d="M446.728 250.711H430.5V253.679H446.728V250.711Z" fill="black"/>
<path d="M446.728 222.41H430.5V224.983H446.728V222.41Z" fill="black"/>
<path d="M130.679 227.16H128.205V248.633H130.679V227.16Z" fill="black"/>
</svg>
