<svg width="512" height="512" viewBox="0 0 512 512" fill="none" xmlns="http://www.w3.org/2000/svg">
<path d="M87.846 319.742L85.1895 321.275L95.9256 339.871L98.5822 338.337L87.846 319.742Z" fill="black"/>
<path d="M85.4712 323.742L79.4727 327.205L87.933 341.859L93.9316 338.395L85.4712 323.742Z" fill="black"/>
<path d="M27.9453 348.385L43.827 375.893L50.1683 372.231C44.013 359.789 37.3639 349.46 34.2867 344.724L27.9453 348.385Z" fill="black"/>
<path d="M42.2639 386.05L46.8914 383.379C46.9771 383.329 47.0133 383.194 46.9638 383.108L23.265 342.061C23.2155 341.975 23.0804 341.939 22.9947 341.988L18.6243 344.512C18.4529 344.611 18.5024 344.696 18.5518 344.782L42.2639 386.05Z" fill="black"/>
<path d="M78.6161 327.699L78.1876 327.947L35.9844 345.686C39.1605 350.593 44.7972 359.564 50.1344 370.194L86.5622 342.65L87.0764 342.353L78.6161 327.699Z" fill="black"/>
<path d="M91.531 317.615L89.3887 318.852L100.125 337.447L102.267 336.21L91.531 317.615Z" fill="black"/>
<path d="M132.262 299.7L94.5566 321.469L99.9495 330.809L137.655 309.04L132.262 299.7Z" fill="black"/>
<path d="M129.836 295.498L92.1309 317.268L94.1099 320.695L131.815 298.926L129.836 295.498Z" fill="black"/>
<path d="M138.1 309.811L100.395 331.58L102.868 335.865L140.574 314.096L138.1 309.811Z" fill="black"/>
<path d="M143.652 305.576C144.509 305.082 144.664 303.964 144.169 303.107L140.656 297.023C140.162 296.166 139.031 295.79 138.26 296.236L136.117 297.473L141.51 306.813L143.652 305.576Z" fill="black"/>
<path d="M151.748 279.422L142.949 287.93L133.694 293.273L135.673 296.701L138.072 295.315C139.272 294.623 140.759 295.021 141.452 296.221L145.261 302.819C145.954 304.019 145.555 305.506 144.356 306.199L141.956 307.584L144.43 311.869L153.599 306.575L166.323 302.885C166.936 302.76 167.536 302.413 168.136 302.067L221.352 271.343L207.251 246.92L154.978 277.1C153.778 277.793 152.713 278.521 151.748 279.422ZM216.68 269.584L173.49 294.52C168.52 297.389 162.253 295.637 159.432 290.753C156.612 285.868 158.315 279.515 163.199 276.695L206.389 251.759L216.68 269.584Z" fill="black"/>
<path d="M161.145 289.762C163.768 294.304 169.359 295.874 173.987 293.203L215.548 269.207L206.148 252.925L164.586 276.921C160.044 279.543 158.523 285.22 161.145 289.762Z" fill="black"/>
<path d="M226.064 268.622L222.979 270.403L208.879 245.98L212.05 244.15L226.064 268.622Z" fill="black"/>
<path d="M275.251 215.087L273.537 216.076L281.206 229.359L282.92 228.369L275.251 215.087Z" fill="black"/>
<path d="M272.766 216.521L260.512 223.596L268.18 236.878L280.435 229.803L272.766 216.521Z" fill="black"/>
<path d="M264.884 243.24L267.546 237.361L259.728 223.822L253.307 223.188L264.884 243.24Z" fill="black"/>
<path d="M301.475 199.946L276.023 214.641L283.692 227.923L309.143 213.229L301.475 199.946Z" fill="black"/>
<path d="M252.435 223.46L252.299 223.423L213.994 245.539L225.918 266.191L264.223 244.076L264.259 243.941L252.435 223.46Z" fill="black"/>
<path d="M306.615 196.979L302.33 199.453L309.999 212.736L314.283 210.262L306.615 196.979Z" fill="black"/>
<path d="M339.008 178.276L323.241 187.38L307.559 196.434L315.227 209.716L346.677 191.559L339.008 178.276Z" fill="black"/>
<path d="M351.109 170.148C351.281 170.049 351.268 169.828 351.083 169.706C350.074 169.146 348.835 169.176 347.806 169.77L343.264 172.392C342.75 172.689 342.101 172.949 341.524 172.94L338.702 173.198C338.567 173.161 338.445 173.346 338.544 173.518L340.127 176.26C340.177 176.345 340.312 176.382 340.398 176.332L351.109 170.148Z" fill="black"/>
<path d="M348.984 191.599L350.517 194.256C350.567 194.341 350.788 194.328 350.873 194.279L352.508 191.964C352.788 191.459 353.253 191.077 353.767 190.78L358.051 188.306C359.251 187.614 360.019 186.371 360.025 184.996L349.056 191.329C348.97 191.378 348.934 191.513 348.984 191.599Z" fill="black"/>
<path d="M455.705 115.015C455.606 114.843 455.422 114.721 455.25 114.82L420.228 127.385C417.582 128.341 415.034 129.47 412.634 130.855L407.835 133.626C407.75 133.675 407.714 133.81 407.763 133.896L419.489 154.206C419.538 154.291 419.673 154.327 419.759 154.278L424.558 151.507C426.957 150.122 429.208 148.48 431.36 146.666L459.703 122.533C459.874 122.434 459.861 122.213 459.762 122.041L455.705 115.015Z" fill="black"/>
<path d="M464.603 117.762L459.975 120.434L457.254 115.721L461.967 113L464.603 117.762Z" fill="black"/>
<path d="M353.849 178.848C354.228 178.515 354.435 178.281 354.336 178.109C354.238 177.938 353.881 177.915 353.453 178.162L348.957 180.072C347.965 180.531 346.96 180.769 345.855 180.835L342.898 181.057L346.164 186.712L347.663 184.362C348.309 183.303 349.225 182.317 350.289 181.588L353.849 178.848Z" fill="black"/>
<path fill-rule="evenodd" clip-rule="evenodd" d="M297.974 235.446C299.722 236.494 302.399 236.776 306.957 235.173C307.343 233.465 306.509 233.604 305.282 233.855C303.614 234.132 301.248 234.585 299.967 230.982C299.918 230.896 299.77 230.639 299.756 230.418C299.608 230.161 299.496 229.769 299.347 229.512C298.115 231.137 297.67 233.336 297.974 235.446Z" fill="black"/>
<path fill-rule="evenodd" clip-rule="evenodd" d="M310.992 234.443L305.599 225.102L307.399 224.063L312.742 233.318C314.424 236.232 313.41 240.016 310.496 241.699L303.469 245.756L302.43 243.956L309.457 239.899C311.478 238.847 312.08 236.328 310.992 234.443Z" fill="black"/>
<path d="M278.063 234.602L284.692 246.085C285.236 247.027 284.96 248.329 283.932 248.923L281.704 250.21L282.743 252.009L284.971 250.723C285.913 250.179 287.215 250.455 287.809 251.483L289.343 254.14L302.54 246.521L297.691 238.123C295.465 234.266 296.805 229.265 300.661 227.039L301.947 226.297L299.126 221.412L278.56 233.286C277.996 233.497 277.766 234.087 278.063 234.602ZM296.414 243.43C297.357 242.886 298.573 243.212 299.117 244.155C299.662 245.097 299.336 246.314 298.393 246.858C297.45 247.402 296.234 247.076 295.69 246.134C295.145 245.191 295.471 243.975 296.414 243.43ZM284.556 231.995C285.07 231.698 285.66 231.929 285.908 232.357C286.204 232.872 285.974 233.462 285.545 233.709C285.031 234.006 284.441 233.775 284.194 233.347C283.861 232.968 284.042 232.292 284.556 231.995ZM281.042 234.024C281.557 233.727 282.147 233.957 282.394 234.386C282.691 234.9 282.46 235.49 282.032 235.738C281.518 236.034 280.928 235.804 280.68 235.375C280.347 234.996 280.528 234.321 281.042 234.024Z" fill="black"/>
<path d="M297.948 246.086C298.462 245.789 298.558 245.163 298.31 244.735C298.013 244.22 297.387 244.125 296.959 244.372C296.444 244.669 296.349 245.296 296.596 245.724C296.844 246.153 297.434 246.383 297.948 246.086Z" fill="black"/>
<path d="M304.047 218.457L300.105 220.732L302.926 225.617L307.81 222.797L305.534 218.855C305.102 218.305 304.562 218.16 304.047 218.457ZM304.619 222.811C304.105 223.108 303.515 222.877 303.267 222.449C302.971 221.935 303.201 221.345 303.63 221.097C304.144 220.8 304.734 221.031 304.981 221.459C305.229 221.888 305.133 222.514 304.619 222.811Z" fill="black"/>
<path fill-rule="evenodd" clip-rule="evenodd" d="M289.789 254.91L302.108 276.248C302.603 277.105 303.905 277.381 304.848 276.837L314.703 271.148C315.56 270.653 315.886 269.436 315.391 268.579L303.072 247.241L289.789 254.91ZM311.715 267.16C312.259 268.102 311.933 269.319 310.991 269.863L305.42 273.079C304.478 273.623 303.261 273.297 302.717 272.355L293.366 256.158L302.45 250.914L311.801 267.11L311.715 267.16Z" fill="black"/>
<path fill-rule="evenodd" clip-rule="evenodd" d="M302.027 260.87C301.685 261.068 301.49 261.523 301.738 261.951C301.936 262.294 302.391 262.488 302.819 262.241C303.162 262.043 303.356 261.588 303.109 261.16C302.911 260.817 302.37 260.672 302.027 260.87Z" fill="black"/>
<path fill-rule="evenodd" clip-rule="evenodd" d="M294.633 256.57L303.143 271.31C303.637 272.167 304.719 272.456 305.576 271.962L309.86 269.488C310.717 268.993 311.007 267.912 310.512 267.055L302.003 252.315L294.633 256.57ZM303.315 263.098C302.458 263.593 301.376 263.303 300.882 262.446C300.387 261.589 300.677 260.508 301.534 260.013C302.391 259.518 303.472 259.808 303.967 260.665C304.461 261.522 304.172 262.603 303.315 263.098Z" fill="black"/>
<path d="M247 279.157C246.572 279.404 246.512 279.896 246.71 280.238C246.908 280.581 247.449 280.726 247.792 280.528C248.134 280.33 248.279 279.789 248.081 279.447C247.883 279.104 247.428 278.91 247 279.157Z" fill="black"/>
<path d="M244.822 269.445C244.575 269.017 243.984 268.786 243.47 269.083L240.042 271.062C239.614 271.309 239.383 271.899 239.68 272.414L251.046 291.902C251.343 292.417 251.65 292.354 252.164 292.057L255.849 289.929C256.277 289.682 256.485 289.448 256.188 288.934L244.822 269.445ZM248.337 281.47C247.48 281.964 246.398 281.675 245.904 280.818C245.409 279.961 245.699 278.879 246.556 278.385C247.412 277.89 248.494 278.18 248.989 279.037C249.483 279.894 249.279 280.925 248.337 281.47Z" fill="black"/>
<path d="M245.999 258.026L245.405 256.998L228.523 266.745L229.117 267.773L227.66 268.614L229.045 271.014C229.59 271.956 230.427 272.615 231.288 272.918L236.217 274.529C236.757 274.674 237.275 275.175 237.572 275.689L248.605 294.799C249.149 295.741 250.28 296.117 251.137 295.622L259.278 290.922C260.135 290.427 260.375 289.26 259.831 288.317L248.847 269.293C248.55 268.779 248.425 268.166 248.52 267.54L249.541 262.38C249.794 261.434 249.507 260.343 249.012 259.486L247.627 257.086L245.999 258.026ZM257.045 288.44C257.639 289.468 257.286 290.243 256.515 290.689L252.316 293.113C251.545 293.558 250.698 293.476 250.104 292.448L238.329 272.052C238.081 271.624 238.177 270.998 238.691 270.701L243.918 267.683C244.347 267.435 244.973 267.531 245.27 268.045L257.045 288.44Z" fill="black"/>
<path d="M229.061 230.671L228.25 230.454L215.396 237.875L215.179 238.686C215.107 238.956 215.12 239.177 215.219 239.349L217 242.434L231.396 234.122L229.615 231.037C229.381 230.829 229.197 230.707 229.061 230.671ZM227.803 234.825L219.405 239.674C218.806 240.02 218.08 239.753 217.783 239.239C217.437 238.639 217.704 237.914 218.218 237.617L226.616 232.768C227.216 232.422 227.941 232.689 228.238 233.203C228.584 233.803 228.318 234.528 227.803 234.825Z" fill="black"/>
<path d="M332.381 172.734L331.164 172.408C330.894 172.335 330.722 172.434 330.551 172.533L320.61 178.272C320.439 178.371 320.317 178.556 320.195 178.74L319.869 179.957C319.761 180.362 319.787 180.804 320.034 181.233L322.953 186.289L324.667 185.299L323.975 184.099C323.529 183.328 323.783 182.382 324.554 181.937L331.581 177.88C332.352 177.434 333.299 177.688 333.744 178.459L334.436 179.659L336.15 178.669L333.182 173.528C333.155 173.086 332.786 172.842 332.381 172.734ZM331.462 175.892L323.064 180.741C322.635 180.988 322.18 180.794 321.982 180.451C321.735 180.022 321.929 179.567 322.272 179.369L330.67 174.521C331.013 174.323 331.554 174.468 331.752 174.811C332.035 175.104 331.89 175.645 331.462 175.892Z" fill="black"/>
<path d="M377.726 154.895C375.452 156.893 372.944 158.684 370.287 160.218L352.034 170.756L340.673 177.201L342.405 180.2C342.405 180.2 344.172 180.094 345.497 180.015C346.601 179.948 347.606 179.711 348.562 179.387L353.5 177.451C354.235 177.141 354.825 177.371 355.023 177.714C355.221 178.057 355.04 178.733 354.404 179.214L350.587 182.103C349.572 182.918 348.656 183.904 347.974 185.097C347.328 186.156 346.61 187.484 346.61 187.484L348.441 190.655L359.617 184.088L359.703 184.038L377.956 173.5C380.612 171.966 383.417 170.69 386.285 169.72L402.743 163.988C402.828 163.939 402.865 163.804 402.815 163.718L391.188 143.58C391.139 143.494 391.004 143.458 390.918 143.507L377.726 154.895ZM369.138 163.966L366.969 164.761C379.22 159.859 387.771 147.952 387.771 147.952C383.643 155.249 376.943 161.059 369.138 163.966Z" fill="black"/>
<path d="M406.036 134.665L391.982 142.779L397.623 152.548L411.676 144.434L406.036 134.665Z" fill="black"/>
<path d="M412.171 145.29L398.117 153.404L403.856 163.345L417.91 155.231L412.171 145.29Z" fill="black"/>
<path d="M418.403 156.089L404.35 164.203L405.834 166.774L419.888 158.66L418.403 156.089Z" fill="black"/>
<path d="M404.255 131.579L390.201 139.693L391.488 141.921L405.541 133.807L404.255 131.579Z" fill="black"/>
<path d="M132.922 293.718L130.779 294.955L141.515 313.551L143.658 312.314L132.922 293.718Z" fill="black"/>
</svg>
