<svg width="512" height="160" viewBox="0 0 512 160" fill="none" xmlns="http://www.w3.org/2000/svg">
<path d="M78.63 51.1602H75.5625V72.6325H78.63V51.1602Z" fill="black"/>
<path d="M74.5731 53.4355H67.6465V70.3562H74.5731V53.4355Z" fill="black"/>
<path d="M12.4316 46.0156V77.7789H19.754C20.6446 63.9258 20.0509 51.6558 19.754 46.0156H12.4316Z" fill="black"/>
<path d="M6 85.7934H11.3434C11.4423 85.7934 11.5413 85.6944 11.5413 85.5955V38.1979C11.5413 38.099 11.4423 38 11.3434 38H6.29685C6.09895 38 6.09895 38.099 6.09895 38.1979L6 85.7934Z" fill="black"/>
<path d="M66.6575 53.4364H66.1627L20.7441 47.6973C21.041 53.5354 21.4368 64.1232 20.7441 75.9973L66.0638 70.3571H66.6575V53.4364Z" fill="black"/>
<path d="M82.8859 51.1602H80.4121V72.6325H82.8859V51.1602Z" fill="black"/>
<path d="M127.117 56.0098H83.5781V66.7954H127.117V56.0098Z" fill="black"/>
<path d="M127.117 51.1602H83.5781V55.1182H127.117V51.1602Z" fill="black"/>
<path d="M127.117 67.6855H83.5781V72.6331H127.117V67.6855Z" fill="black"/>
<path d="M134.042 66.7954C135.032 66.7954 135.724 65.9049 135.724 64.9154V57.8898C135.724 56.9003 134.933 56.0098 134.042 56.0098H131.568V66.7954H134.042Z" fill="black"/>
<path d="M154.129 48.1927L142.255 51.1612H131.568V55.1193H134.339C135.724 55.1193 136.813 56.2077 136.813 57.593V65.2123C136.813 66.5976 135.724 67.6861 134.339 67.6861H131.568V72.6336H142.156L155.02 75.8001C155.613 75.998 156.306 75.998 156.999 75.998H218.447V47.7969H158.087C156.702 47.7969 155.416 47.8958 154.129 48.1927ZM215.281 72.1389H165.41C159.67 72.1389 155.119 67.4882 155.119 61.8479C155.119 56.2077 159.769 51.557 165.41 51.557H215.281V72.1389Z" fill="black"/>
<path d="M157.098 61.8476C157.098 67.092 161.155 71.248 166.498 71.248H214.489V52.4473H166.498C161.254 52.4473 157.098 56.6032 157.098 61.8476Z" fill="black"/>
<path d="M223.89 75.998H220.328V47.7969H223.989L223.89 75.998Z" fill="black"/>
<path d="M293.254 54.2285H291.275V69.5659H293.254V54.2285Z" fill="black"/>
<path d="M290.386 54.2285H276.236V69.5659H290.386V54.2285Z" fill="black"/>
<path d="M270.199 73.4241L275.444 69.6639V54.0297L270.199 50.2695V73.4241Z" fill="black"/>
<path d="M323.535 54.2285H294.146V69.5659H323.535V54.2285Z" fill="black"/>
<path d="M269.309 50.0716L269.21 49.9727H224.979V73.8199H269.21L269.309 73.7209V50.0716Z" fill="black"/>
<path d="M329.471 54.2285H324.523V69.5659H329.471V54.2285Z" fill="black"/>
<path d="M366.876 54.2285H348.669H330.561V69.5659H366.876V54.2285Z" fill="black"/>
<path d="M381.42 53.2378C381.618 53.2378 381.717 53.0399 381.618 52.842C381.024 51.8525 379.936 51.2588 378.749 51.2588H373.504C372.91 51.2588 372.218 51.1598 371.723 50.863L369.15 49.6755C369.051 49.5766 368.854 49.6755 368.854 49.8734V53.0399C368.854 53.1388 368.952 53.2378 369.051 53.2378H381.42Z" fill="black"/>
<path d="M368.854 70.7526V73.8201C368.854 73.919 369.051 74.018 369.15 74.018L371.723 72.8306C372.218 72.5337 372.812 72.4348 373.405 72.4348H378.353C379.738 72.4348 381.025 71.7421 381.717 70.5547H369.051C368.952 70.5547 368.854 70.6536 368.854 70.7526Z" fill="black"/>
<path d="M499.567 57.7898C499.567 57.5919 499.468 57.394 499.27 57.394L462.658 50.7643C459.888 50.2695 457.117 49.9727 454.347 49.9727H448.805C448.706 49.9727 448.607 50.0716 448.607 50.1706V73.622C448.607 73.7209 448.706 73.8199 448.805 73.8199H454.347C457.117 73.8199 459.888 73.523 462.658 73.0283L499.27 66.2996C499.468 66.2996 499.567 66.1017 499.567 65.9038V57.7898Z" fill="black"/>
<path d="M505.902 64.6181H500.559V59.1758H506.001L505.902 64.6181Z" fill="black"/>
<path d="M379.441 62.1443C379.936 62.0453 380.233 61.9464 380.233 61.7485C380.233 61.5506 379.936 61.3527 379.441 61.3527L374.593 60.759C373.504 60.66 372.515 60.3632 371.525 59.8684L368.854 58.582V65.1128L371.327 63.8264C372.416 63.2327 373.702 62.8369 374.988 62.738L379.441 62.1443Z" fill="black"/>
<path fill-rule="evenodd" clip-rule="evenodd" d="M302.754 83.2204C303.743 85.0015 305.92 86.5847 310.67 87.4753C311.857 86.1889 311.066 85.892 309.878 85.4962C308.295 84.9025 306.019 84.1109 306.712 80.3508C306.712 80.2518 306.712 79.955 306.811 79.7571C306.811 79.4602 306.91 79.0644 306.91 78.7676C305.03 79.5592 303.546 81.2414 302.754 83.2204Z" fill="black"/>
<path fill-rule="evenodd" clip-rule="evenodd" d="M314.53 88.8599V78.0742H316.608V88.7609C316.608 92.1253 313.838 94.8959 310.473 94.8959H302.359V92.8179H310.473C312.749 92.9169 314.53 91.0368 314.53 88.8599Z" fill="black"/>
<path d="M285.932 72.5327V85.7921C285.932 86.8806 285.041 87.8701 283.854 87.8701H281.281V89.9481H283.854C284.942 89.9481 285.932 90.8386 285.932 92.026V95.0935H301.17V85.3963C301.17 80.9435 304.832 77.2823 309.284 77.2823H310.769V71.6421H287.02C286.427 71.5432 285.932 71.939 285.932 72.5327ZM297.41 89.3544C298.499 89.3544 299.389 90.2449 299.389 91.3334C299.389 92.4218 298.499 93.3124 297.41 93.3124C296.322 93.3124 295.431 92.4218 295.431 91.3334C295.431 90.2449 296.322 89.3544 297.41 89.3544ZM292.859 73.5222C293.452 73.5222 293.848 74.0169 293.848 74.5117C293.848 75.1054 293.353 75.5012 292.859 75.5012C292.265 75.5012 291.869 75.0064 291.869 74.5117C291.77 74.0169 292.265 73.5222 292.859 73.5222ZM288.802 73.5222C289.395 73.5222 289.791 74.0169 289.791 74.5117C289.791 75.1054 289.296 75.5012 288.802 75.5012C288.208 75.5012 287.812 75.0064 287.812 74.5117C287.713 74.0169 288.208 73.5222 288.802 73.5222Z" fill="black"/>
<path d="M297.411 92.4224C298.005 92.4224 298.401 91.9276 298.401 91.4329C298.401 90.8392 297.906 90.4434 297.411 90.4434C296.818 90.4434 296.422 90.9381 296.422 91.4329C296.422 91.9276 296.818 92.4224 297.411 92.4224Z" fill="black"/>
<path d="M316.509 71.5449H311.957V77.1851H317.597V72.6334C317.498 71.9407 317.102 71.5449 316.509 71.5449ZM314.827 75.6019C314.233 75.6019 313.837 75.1072 313.837 74.6124C313.837 74.0187 314.332 73.6229 314.827 73.6229C315.42 73.6229 315.816 74.1177 315.816 74.6124C315.816 75.1072 315.42 75.6019 314.827 75.6019Z" fill="black"/>
<path fill-rule="evenodd" clip-rule="evenodd" d="M285.932 95.9844V120.623C285.932 121.613 286.921 122.503 288.01 122.503H299.389C300.379 122.503 301.269 121.613 301.269 120.623V95.9844H285.932ZM298.795 117.556C298.795 118.644 297.905 119.535 296.816 119.535H290.384C289.296 119.535 288.405 118.644 288.405 117.556V98.854H298.894V117.556H298.795Z" fill="black"/>
<path fill-rule="evenodd" clip-rule="evenodd" d="M293.551 107.266C293.156 107.266 292.76 107.562 292.76 108.057C292.76 108.453 293.057 108.849 293.551 108.849C293.947 108.849 294.343 108.552 294.343 108.057C294.343 107.661 293.947 107.266 293.551 107.266Z" fill="black"/>
<path fill-rule="evenodd" clip-rule="evenodd" d="M289.297 99.8438V116.863C289.297 117.853 290.089 118.644 291.078 118.644H296.026C297.015 118.644 297.807 117.853 297.807 116.863V99.8438H289.297ZM293.552 109.838C292.562 109.838 291.771 109.046 291.771 108.057C291.771 107.067 292.562 106.276 293.552 106.276C294.541 106.276 295.333 107.067 295.333 108.057C295.333 109.046 294.541 109.838 293.552 109.838Z" fill="black"/>
<path d="M236.755 95.5898C236.26 95.5898 235.963 95.9856 235.963 96.3814C235.963 96.7772 236.359 97.173 236.755 97.173C237.15 97.173 237.546 96.7772 237.546 96.3814C237.546 95.9856 237.249 95.5898 236.755 95.5898Z" fill="black"/>
<path d="M239.722 86.0891C239.722 85.5944 239.326 85.0996 238.733 85.0996H234.775C234.28 85.0996 233.785 85.4954 233.785 86.0891L233.884 108.65C233.884 109.244 234.181 109.343 234.775 109.343H239.03C239.524 109.343 239.821 109.244 239.821 108.65L239.722 86.0891ZM236.754 98.2601C235.764 98.2601 234.973 97.4685 234.973 96.479C234.973 95.4895 235.764 94.6979 236.754 94.6979C237.743 94.6979 238.535 95.4895 238.535 96.479C238.535 97.4685 237.842 98.2601 236.754 98.2601Z" fill="black"/>
<path d="M246.451 76.789V75.6016H226.958V76.789H225.275V79.5596C225.275 80.6481 225.671 81.6376 226.265 82.3302L229.728 86.1893C230.124 86.5851 230.322 87.2778 230.322 87.8715V109.938C230.322 111.026 231.114 111.917 232.103 111.917H241.503C242.493 111.917 243.284 111.026 243.284 109.938V87.9704C243.284 87.3767 243.482 86.783 243.878 86.2883L247.341 82.3302C248.034 81.6376 248.331 80.5491 248.331 79.5596V76.789H246.451ZM240.811 108.651C240.811 109.839 240.118 110.333 239.227 110.333H234.379C233.488 110.333 232.796 109.839 232.796 108.651V85.1009C232.796 84.6061 233.191 84.1114 233.785 84.1114H239.821C240.316 84.1114 240.811 84.5072 240.811 85.1009V108.651Z" fill="black"/>
<path d="M245.462 44.6289L244.868 44.0352H230.025L229.432 44.6289C229.234 44.8268 229.135 45.0247 229.135 45.2226V48.7848H245.759V45.2226C245.66 44.9257 245.561 44.7278 245.462 44.6289ZM242.295 47.5974H232.598C231.905 47.5974 231.411 47.0037 231.411 46.41C231.411 45.7173 232.004 45.2226 232.598 45.2226H242.295C242.988 45.2226 243.483 45.8163 243.483 46.41C243.483 47.1026 242.889 47.5974 242.295 47.5974Z" fill="black"/>
<path d="M363.906 46.1139L363.016 45.2233C362.818 45.0254 362.62 45.0254 362.422 45.0254H350.944C350.746 45.0254 350.548 45.1243 350.35 45.2233L349.46 46.1139C349.163 46.4107 348.965 46.8065 348.965 47.3013V53.1394H350.944V51.7541C350.944 50.8635 351.637 50.1708 352.527 50.1708H360.641C361.532 50.1708 362.224 50.8635 362.224 51.7541V53.1394H364.203V47.2023C364.401 46.8065 364.203 46.4107 363.906 46.1139ZM361.532 48.3897H351.834C351.34 48.3897 351.043 47.9939 351.043 47.5981C351.043 47.1034 351.439 46.8065 351.834 46.8065H361.532C361.927 46.8065 362.323 47.2023 362.323 47.5981C362.422 47.9939 362.026 48.3897 361.532 48.3897Z" fill="black"/>
<path d="M412.095 53.3377C409.127 53.9314 406.059 54.2282 402.992 54.2282H381.915L368.854 54.1293V57.5925C368.854 57.5925 370.437 58.3842 371.624 58.9779C372.614 59.4726 373.603 59.7695 374.593 59.9674L379.837 60.759C380.629 60.8579 381.024 61.3527 381.024 61.7485C381.024 62.1443 380.53 62.6391 379.738 62.738L374.988 63.3317C373.702 63.5296 372.416 63.9254 371.228 64.6181C370.14 65.2118 368.854 66.0034 368.854 66.0034V69.6646L381.816 69.5656H381.915H402.992C406.059 69.5656 409.127 69.8625 412.095 70.4562L429.214 73.7216C429.313 73.7216 429.412 73.6226 429.412 73.5237V50.2702C429.412 50.1712 429.313 50.0723 429.214 50.0723L412.095 53.3377ZM400.122 56.8999L397.846 56.5041C410.908 58.3842 424.266 52.3481 424.266 52.3481C417.043 56.603 408.335 58.2852 400.122 56.8999Z" fill="black"/>
<path d="M446.728 49.9727H430.5V61.2531H446.728V49.9727Z" fill="black"/>
<path d="M446.728 62.2422H430.5V73.7205H446.728V62.2422Z" fill="black"/>
<path d="M446.728 74.7109H430.5V77.6795H446.728V74.7109Z" fill="black"/>
<path d="M446.728 46.4102H430.5V48.9829H446.728V46.4102Z" fill="black"/>
<path d="M130.679 51.1602H128.205V72.6325H130.679V51.1602Z" fill="black"/>
</svg>
