<svg width="512" height="512" viewBox="0 0 512 512" fill="none" xmlns="http://www.w3.org/2000/svg">
<path d="M184.018 376.782C190.502 386.252 198.078 395.854 206.718 405.097L157.356 433.596C153.163 436.017 147.752 434.567 145.331 430.374L136.198 414.555C133.778 410.362 135.227 404.951 139.42 402.53L184.018 376.782Z" fill="black"/>
<path d="M193.527 251.094L250.966 350.58L370.463 281.588L313.025 182.102L193.527 251.094ZM257.909 236.285C263.436 233.094 270.35 234.947 273.541 240.474C276.732 246.001 274.879 252.915 269.352 256.106C263.825 259.297 256.911 257.445 253.72 251.918C250.529 246.391 252.382 239.476 257.909 236.285ZM229.321 252.791C234.848 249.6 241.762 251.452 244.953 256.979C248.144 262.506 246.291 269.421 240.764 272.612C235.237 275.803 228.323 273.95 225.132 268.423C221.941 262.896 223.794 255.982 229.321 252.791ZM343.665 276.985L260.569 324.96L242.193 293.132L325.289 245.157L343.665 276.985Z" fill="black"/>
<path d="M268.365 254.392C272.748 251.861 274.279 246.149 271.748 241.766C269.217 237.382 263.505 235.852 259.122 238.382C254.738 240.913 253.208 246.625 255.739 251.009C258.269 255.392 263.981 256.923 268.365 254.392Z" fill="black"/>
<path d="M239.666 270.704C244.049 268.173 245.58 262.462 243.049 258.078C240.518 253.695 234.806 252.164 230.423 254.695C226.039 257.226 224.509 262.938 227.039 267.321C229.68 271.895 235.282 273.235 239.666 270.704Z" fill="black"/>
<path d="M402.808 250.462C407.767 260.812 412.294 272.175 415.788 284.388L239.305 386.281C230.475 377.149 222.898 367.547 216.414 358.076L241.571 343.552L248.834 356.13L265.215 362.936L396.148 287.342L381.843 262.566L402.808 250.462Z" fill="black"/>
<path d="M492.785 208.679L501.918 224.497C504.339 228.69 502.889 234.101 498.696 236.522L448.381 265.571C444.697 253.468 440.169 242.106 435.21 231.755L480.76 205.457C484.953 203.036 490.364 204.486 492.785 208.679Z" fill="black"/>
<path d="M163.488 340.349C168.118 350.128 173.899 361.021 180.852 371.745L131.872 400.024C127.679 402.444 122.268 400.994 119.847 396.802L110.714 380.983C108.293 376.79 109.743 371.379 113.936 368.958L163.488 340.349Z" fill="black"/>
<path d="M195.889 321.644L220.856 307.23L238.792 338.295L213.253 353.04C206.19 342.126 200.328 331.533 195.889 321.644Z" fill="black"/>
<path d="M400.028 245.205L378.873 257.419L360.938 226.354L381.521 214.47C387.866 223.258 394.108 233.63 400.028 245.205Z" fill="black"/>
<path d="M476.452 169.826L485.585 185.645C488.006 189.838 486.556 195.249 482.363 197.67L432.429 226.499C426.509 214.924 420.076 204.662 413.922 195.764L464.237 166.714C468.62 164.184 474.031 165.633 476.452 169.826Z" fill="black"/>
<path d="M99.3227 329.118L148.303 300.839C150.52 308.199 154.314 320.493 160.903 334.986L117.258 360.184C113.066 362.604 107.654 361.155 105.234 356.962L96.1006 341.143C93.6799 336.95 95.1298 331.539 99.3227 329.118Z" fill="black"/>
<path d="M180.89 282.022L199.949 271.018L217.885 302.084L193.299 316.278C186.681 301.295 182.777 288.81 180.89 282.022Z" fill="black"/>
<path d="M378.169 209.544L357.967 221.208L340.031 190.143L354.516 181.78C359.642 186.698 368.502 196.321 378.169 209.544Z" fill="black"/>
<path d="M449.255 137.246L458.388 153.065C460.809 157.258 459.359 162.669 455.166 165.09L410.569 190.838C401.312 177.886 392.563 168.453 387.297 162.854L437.231 134.024C441.423 131.604 446.835 133.053 449.255 137.246Z" fill="black"/>
<path d="M226.62 381.916C232.216 388.087 235.912 390.527 235.912 390.527L216.663 401.641C214.948 402.631 212.763 402.368 211.391 400.873C204.424 393.206 198.028 385.209 192.314 377.073L192.204 376.883C191.434 375.549 187.642 369.86 186.571 368.446C179.698 357.421 174.027 346.719 169.397 336.94C168.598 335.115 167.798 333.289 166.998 331.464C160.52 317.162 156.784 305.851 155.177 300.426C154.568 298.49 155.432 296.467 156.957 295.586L174.872 285.243C182.453 308.057 190.56 326.5 198.432 341.014C201.432 346.651 209.516 359.772 210.697 361.378C216.77 370.577 222.205 377.35 226.62 381.916Z" fill="black"/>
<path d="M443.066 267.37C443.675 269.305 442.811 271.329 441.095 272.319L421.846 283.433C421.846 283.433 421.677 282.26 421.149 280.024C420.032 274.569 416.979 263.118 409.099 246.83C408.3 245.005 407.419 243.48 406.319 241.574C401.639 232.587 395.396 222.215 387.43 211.059C386.25 209.453 385.069 207.848 383.888 206.243C383.778 206.052 383.778 206.052 383.668 205.862C377.323 197.073 369.666 187.772 360.887 177.848L378.802 167.504C379.755 166.954 380.928 166.785 382.13 167.107C382.732 167.268 383.443 167.62 384.074 168.272C393.344 178.167 427.558 217.622 443.066 267.37Z" fill="black"/>
<path d="M100.492 365.034C97.0616 367.015 81.504 367.357 75.7116 366.127C74.8098 365.886 71.613 365.19 71.5756 362.925C71.2886 359.787 75.9217 358.128 80.8553 356.551C83.553 355.501 87.6143 354.173 87.9365 352.971C87.9365 352.971 87.7165 352.589 87.4964 352.208C85.3036 350.171 80.8453 348.171 77.0983 346.522C71.9288 344.17 69.1937 342.954 68.9952 341.29C68.8557 340.608 69.0168 340.007 69.5886 339.677C70.7026 338.525 73.6204 337.857 78.0923 336.8C82.0731 335.772 88.3998 334.407 89.1837 332.684C89.1837 332.684 89.2643 332.383 89.1543 332.192C88.2445 330.176 83.6978 326.703 80.0824 323.962C74.6044 319.755 72.7417 318.29 73.1444 316.786C73.225 316.486 73.5767 315.775 74.449 315.525C75.8126 315.246 77.8875 315.319 80.6442 315.252C84.4933 315.316 90.6078 315.344 91.7219 314.192C91.6334 312.719 88.5898 309.648 86.0669 307.039C81.3512 302.392 78.4982 299.211 78.952 296.916C79.1131 296.315 79.4648 295.603 80.4177 295.053C83.0054 293.813 87.1336 295.242 91.2617 296.67C93.7767 297.505 97.1936 298.582 98.1465 298.031C98.1465 298.031 98.3371 297.921 98.2271 297.731C98.4098 295.847 95.0066 291.713 92.2341 288.231C88.1707 282.954 85.8089 279.743 86.2627 277.448C86.4238 276.847 86.7755 276.136 87.3473 275.806C89.8249 274.375 94.2026 276.676 100.553 280.633C102.907 282.069 106.383 284.128 107.776 284.34C107.467 282.485 104.966 278.593 103.095 275.353C99.4938 269.555 97.2125 266.044 98.3776 264.101C98.6487 263.69 99.0004 262.979 100.173 262.81C103.011 262.442 107.337 265.535 111.473 268.737C113.747 270.474 117.362 273.215 118.425 272.856C118.798 270.861 116.729 265.957 114.91 261.925C112.4 256.259 111.241 253.37 112.326 251.728C112.597 251.317 113.169 250.987 113.85 250.848C115.815 250.73 118.719 253.119 123.105 257.194C125.408 259.422 129.463 262.925 130.556 263.057C130.768 261.664 128.809 256.95 127.349 253.981C124.84 248.315 123.24 244.664 124.515 242.911C124.786 242.501 125.439 241.87 126.531 242.002C129.398 242.125 132.39 245.988 135.192 249.961C137.224 252.6 139.395 255.92 140.788 256.132C140.788 256.132 141.089 256.213 141.17 255.912C142.555 254.35 141.138 248.815 140.11 244.835C138.833 239.981 138.275 237.254 139.58 235.993C139.851 235.582 140.422 235.252 141.625 235.574C144.221 236.109 146.231 240.03 149.261 246.159C150.831 249.318 153.2 254.303 154.483 254.324C155.898 253.254 155.933 248.913 155.917 245.365C156.033 240.724 156.068 236.383 158.135 234.682C158.788 234.051 159.77 233.992 160.863 234.124C164.25 234.709 166.912 238 169.465 241.101C171.797 243.82 173.829 246.459 175.904 246.531C178.169 246.494 181.659 245.496 184.848 244.417C191.145 242.56 196.57 240.953 198.03 243.922C198.36 244.493 198.008 245.205 197.627 245.425C197.055 245.755 196.344 245.403 196.124 245.022C195.544 243.578 189.247 245.435 185.567 246.543C182.077 247.541 178.588 248.539 176.132 248.687C172.884 248.783 170.441 245.873 167.779 242.582C165.447 239.863 163.195 236.843 160.409 236.419C159.808 236.258 159.617 236.368 159.536 236.668C158.312 237.629 158.197 242.27 158.212 245.819C158.097 250.459 158.061 254.8 155.994 256.501C155.533 257.022 154.66 257.272 153.949 256.92C151.845 256.356 149.974 253.116 147.274 247.56C145.374 243.828 142.784 238.463 141.091 238.17C140.629 238.69 141.737 242.371 142.185 244.907C143.492 250.252 145.099 255.676 142.681 258.089C141.948 259.021 140.965 259.08 140.474 259.109C138.099 258.956 135.737 255.745 133.155 252.154C130.903 249.134 128.101 245.161 126.217 244.978C125.484 245.91 127.854 250.894 129.123 253.973C131.522 259.449 133.122 263.1 132.147 264.933C131.986 265.534 131.414 265.864 130.733 266.004C128.687 266.422 125.974 263.923 121.177 259.577C118.684 257.459 115.23 254.117 113.727 253.714C113.705 254.997 115.525 259.029 116.574 261.727C118.643 266.631 120.602 271.345 120.258 273.83C120.127 274.923 119.364 275.363 118.983 275.583C117.158 276.382 114.474 274.374 110.037 271.091C106.532 268.541 102.396 265.338 100.24 265.566C99.6175 266.688 102.779 271.724 104.84 274.854C107.562 279.128 110.063 283.02 110.1 285.285C110.159 286.268 109.507 286.898 109.126 287.119C107.601 287.999 104.646 286.401 99.6375 283.448C96.1617 281.389 90.2219 277.703 88.6972 278.584C88.2944 280.087 91.6171 284.521 94.1695 287.622C97.7927 292.137 100.785 296 100.551 298.676C100.42 299.768 99.9582 300.289 99.3864 300.619C97.7812 301.8 94.5549 300.613 90.5367 299.376C87.3105 298.189 82.9917 296.871 81.467 297.751C81.2764 297.861 81.2764 297.861 81.2764 297.861C81.0643 299.254 85.1493 303.248 87.7822 306.048C91.5666 309.962 93.9794 312.381 94.0974 314.346C94.2369 315.027 93.8852 315.739 93.4235 316.259C91.6571 318.042 87.1262 318.116 80.711 318.008C78.9368 318.016 77.0525 317.834 75.8795 318.003C77.0309 319.117 79.4143 321.044 81.5776 322.59C85.7137 325.793 90.1504 329.076 91.2802 331.473C91.7203 332.236 91.6693 333.027 91.3176 333.739C90.182 336.173 85.5194 337.34 78.6209 339.036C75.7032 339.704 72.4042 340.592 71.2607 341.253C71.7814 341.714 75.2278 343.282 77.9628 344.498C82.0104 346.227 86.5787 348.418 88.8816 350.646C90.033 351.76 90.092 352.743 89.9308 353.344C89.477 355.639 85.7164 357.048 81.4645 358.486C78.4662 359.455 73.6425 361.223 73.731 362.697C73.841 362.887 73.9511 363.078 74.6623 363.43C80.1325 365.862 97.4053 364.529 99.3112 363.429C99.5824 363.018 100.264 362.879 100.675 363.15C101.085 363.421 101.335 364.294 100.873 364.814C100.873 364.814 100.683 364.924 100.492 365.034Z" fill="black"/>
<path d="M441.876 129.308C441.114 129.748 440.373 128.905 439.933 128.143C438.422 125.966 437.797 120.482 437.092 115.299C436.753 112.953 436.357 109.624 435.967 108.07C435.235 109.002 434.341 110.534 433.557 112.257C430.443 117.867 427.922 121.863 425.686 122.392C425.004 122.532 424.403 122.371 423.691 122.019C422.049 120.934 421.161 117.635 419.663 112.401C418.555 108.721 417.138 103.186 415.826 102.673C415.826 102.673 415.826 102.673 415.635 102.783C414.03 103.964 413.093 108.063 412.507 111.45C411.761 115.439 411.065 118.636 409.159 119.736C408.778 119.956 407.906 120.206 406.894 119.773C404.46 118.638 402.611 114.115 400.512 108.719C399.103 104.959 396.924 99.864 395.421 99.4612C393.896 100.341 394.008 107.138 394.164 111.368C394.327 117.373 394.123 120.54 392.598 121.42C392.217 121.64 391.535 121.78 390.523 121.348C388.58 120.183 386.57 116.261 384.119 111.577C382.549 108.417 379.659 102.971 378.376 102.949C377.291 104.592 377.806 109.885 378.262 114.196C378.887 119.68 379.284 123.008 377.679 124.189C377.298 124.409 376.535 124.849 375.524 124.417C373.009 123.582 369.906 119.529 366.884 115.175C365.072 112.917 362.49 109.325 361.369 108.703C360.966 110.206 362.133 114.868 362.721 118.087C364.086 124.413 364.703 128.123 363.509 129.575C363.047 130.096 362.365 130.235 361.874 130.265C359.689 130.001 357.437 126.982 353.895 122.166C351.863 119.527 348.731 114.983 347.558 115.152C346.774 116.875 348.703 121.097 350.303 124.748C352.122 128.78 353.722 132.43 352.667 134.564C352.396 134.975 351.853 135.796 350.68 135.965C347.382 136.853 343.487 132.749 339.512 128.945C337.73 127.178 334.906 124.489 334.225 124.628C333.631 126.241 336.983 131.167 339.265 134.678C342.727 139.795 344.898 143.115 344.034 145.139C343.873 145.74 343.22 146.371 342.648 146.701C340.141 147.64 336.365 145.501 332.288 143.28C329.223 141.493 325.256 139.463 323.701 139.852C323.511 139.962 323.32 140.072 323.049 140.483C322.214 142.998 323.513 146.568 324.702 149.947C326.221 153.899 327.519 157.469 325.812 160.233C324.456 162.286 321.657 164.919 319.238 167.332C316.438 169.965 311.681 174.49 312.642 175.714C312.972 176.286 312.811 176.887 312.239 177.218C311.668 177.548 311.066 177.387 310.736 176.815C308.895 174.066 313 170.172 317.756 165.647C320.175 163.234 322.894 160.901 324.059 158.958C325.144 157.315 323.955 153.936 322.576 150.666C321.167 146.906 319.648 142.955 320.835 139.728C321.267 138.716 321.919 138.086 322.682 137.646C325.189 136.706 328.965 138.846 333.042 141.066C336.107 142.854 339.884 144.994 341.519 144.304C341.841 143.101 339.009 138.637 337.058 135.698C333.266 130.01 330.875 126.308 331.71 123.793C332.142 122.781 332.714 122.451 333.095 122.231C334.84 121.732 336.732 123.689 340.487 127.112C343.42 129.992 347.505 133.986 349.551 133.568C349.932 133.348 349.932 133.348 349.932 133.348C350.555 132.226 348.845 128.385 347.385 125.416C345.236 120.812 343.497 116.48 344.823 113.935C345.446 112.813 346.127 112.674 346.619 112.644C348.774 112.416 351.136 115.627 354.789 120.633C356.82 123.272 359.732 127.435 361.045 127.948C361.558 126.636 360.471 121.673 359.693 118.564C358.357 112.729 357.739 109.019 358.824 107.376C359.286 106.856 359.667 106.636 360.349 106.496C362.123 106.488 364.155 109.127 367.888 113.833C370.47 117.424 373.682 121.668 375.596 122.342C376.249 121.711 375.683 117.21 375.506 114.263C374.8 109.08 374.285 103.786 376.022 101.513C376.755 100.582 377.737 100.523 378.038 100.603C380.223 100.866 382.314 104.488 385.424 110.315C387.104 113.665 389.334 117.968 390.867 118.862C391.38 117.55 391.334 113.51 391.267 110.753C391.316 103.356 391.212 98.3335 393.69 96.903C394.262 96.5729 394.943 96.4334 395.655 96.7851C397.869 97.5395 399.468 101.19 402.007 107.348C403.636 111.49 405.705 116.394 407.238 117.288C407.538 117.368 407.538 117.368 407.538 117.368C408.301 116.928 409.267 113.321 409.802 110.725C410.629 106.436 411.456 102.147 413.824 100.526C414.776 99.9755 415.568 100.027 416.17 100.188C418.384 100.942 419.712 105.003 421.379 111.411C422.377 114.9 423.515 119.072 424.747 119.885C426.301 119.496 429.525 114.077 431.203 110.821C432.448 108.577 433.614 106.634 434.537 105.593C435.27 104.661 435.981 105.013 436.282 105.093C437.785 105.496 438.123 107.842 439.027 114.69C439.593 119.191 440.328 124.865 441.619 126.661C441.839 127.042 443.13 128.838 441.876 129.308Z" fill="black"/>
<path d="M390.136 285.731L265.301 357.804L252.836 353.82L375.955 282.737L316.837 179.901L331.186 184.068L390.136 285.731Z" fill="black"/>
<path d="M301.055 184.694C300.865 184.804 300.865 184.804 300.674 184.914C284.142 187.09 272.418 183.948 265.802 175.57C257.375 164.935 251.397 158.983 239.962 165.586C234.816 168.557 234.518 175.082 234.329 181.798C234.119 189.796 233.668 198.697 224.482 201.713C208.809 206.697 209.705 236.419 209.625 236.719C209.654 237.21 209.193 237.731 208.511 237.871C208.02 237.9 207.499 237.438 207.359 236.757C207.381 235.474 206.535 204.96 223.272 199.617C231.204 197.07 231.443 189.563 231.653 181.564C231.812 174.357 232.162 167.04 238.451 163.409C251.411 155.926 258.129 162.72 267.187 174.008C273.363 181.624 284.486 184.604 300.146 182.678C300.637 182.649 301.348 183.001 301.377 183.492C301.708 184.063 301.436 184.474 301.055 184.694Z" fill="black"/>
<path d="M308.072 178.358C307.881 178.468 307.881 178.468 307.691 178.578C288.16 181.722 274.581 178.889 267.335 169.859C257.976 158.491 251.559 151.777 237.455 159.92C231.166 163.551 230.977 170.267 230.899 177.173C230.689 185.172 230.648 194.344 219.446 198.27C201.185 204.493 201.204 239.296 201.123 239.597C201.072 240.388 200.611 240.909 199.819 240.858C199.027 240.807 198.506 240.345 198.557 239.553C198.469 238.08 198.611 202.675 218.617 195.953C228.184 192.717 228.123 185.129 228.333 177.13C228.382 169.732 228.621 162.225 236.054 157.933C251.492 149.02 259.222 156.247 269.021 168.378C275.827 176.645 288.504 179.237 307.162 176.342C307.844 176.203 308.365 176.664 308.504 177.346C308.805 177.427 308.453 178.138 308.072 178.358Z" fill="black"/>
<path d="M290.956 190.525L290.765 190.635C272.665 196.257 264.788 186.574 256.28 176.24C249.804 168.544 242.667 159.704 230.312 155.91C226.923 173.368 217.989 183.862 211.635 191.342C206.205 197.781 202.24 202.357 203.576 208.193C205.749 218.119 217.11 231.635 217.11 231.635C217.44 232.207 217.47 232.698 217.008 233.219C216.546 233.74 215.945 233.578 215.424 233.117C214.904 232.655 203.543 219.139 201.34 208.722C199.945 201.904 204.261 196.616 210.073 189.957C216.698 182.066 225.09 172.393 228.398 155.236C225.693 154.511 222.907 154.087 219.739 153.883C204.394 152.832 195.859 148.612 194.053 141.522C191.909 132.087 202.507 121.394 208.225 118.093C212.799 115.453 218.341 115.81 222.859 118.793C226.665 121.423 234.784 130.204 230.766 153.615C244.023 157.651 251.46 166.571 258.156 174.648C266.774 185.174 273.581 193.441 290.236 188.399C290.918 188.26 291.329 188.531 291.659 189.103C291.608 189.894 291.337 190.305 290.956 190.525ZM209.134 120.109C203.607 123.3 194.153 133.333 195.908 141.214C197.354 147.24 205.368 150.999 219.621 151.918C222.789 152.122 225.876 152.627 228.581 153.352C232.276 131.143 224.898 123.206 221.503 120.846C217.587 118.024 213.137 117.799 209.134 120.109Z" fill="black"/>
<path d="M282.442 283.618L279.773 285.158L285.385 294.878L288.053 293.338L282.442 283.618Z" fill="black"/>
<path d="M270.817 290.331L268.148 291.871L273.76 301.591L276.428 300.051L270.817 290.331Z" fill="black"/>
<path d="M247.824 294.963L261.909 319.358L337.381 275.784L323.297 251.389L247.824 294.963ZM278.552 299.33C278.993 300.092 278.831 300.694 278.069 301.134L273.876 303.555C273.114 303.995 272.513 303.834 272.072 303.071L265.91 292.398C265.47 291.636 265.631 291.035 266.394 290.595L270.587 288.174C271.349 287.734 271.95 287.895 272.39 288.657L278.552 299.33ZM290.178 292.618C290.618 293.38 290.457 293.981 289.695 294.422L285.502 296.842C284.74 297.283 284.138 297.121 283.698 296.359L277.536 285.686C277.096 284.924 277.257 284.323 278.02 283.882L282.212 281.462C282.975 281.022 283.576 281.183 284.016 281.945L290.178 292.618ZM297.81 289.991L295.904 291.091L294.693 288.995L296.599 287.894L297.81 289.991ZM294.729 284.654L292.823 285.755L291.612 283.658L293.518 282.558L294.729 284.654ZM305.052 285.809L303.146 286.91L297.754 277.571L296.992 278.011L296.882 277.821L295.744 273.649L297.459 272.659L305.052 285.809ZM315.907 277.763C316.348 278.525 316.186 279.127 315.424 279.567L311.231 281.988C310.469 282.428 309.868 282.267 309.427 281.504L303.265 270.831C302.825 270.069 302.986 269.468 303.749 269.028L307.942 266.607C308.704 266.167 309.305 266.328 309.745 267.09L315.907 277.763Z" fill="black"/>
<path d="M308.172 268.764L305.504 270.305L311.116 280.025L313.784 278.484L308.172 268.764Z" fill="black"/>
</svg>
