<svg width="512" height="512" viewBox="0 0 512 512" fill="none" xmlns="http://www.w3.org/2000/svg">
<path d="M122.733 321.928C123.613 333.371 125.374 345.475 128.235 357.799H71.2364C66.3949 357.799 62.4336 353.838 62.4336 348.996V330.731C62.4336 325.889 66.3949 321.928 71.2364 321.928H122.733Z" fill="black"/>
<path d="M193.812 217.834V332.711H331.797V217.834H193.812ZM256.973 237.2C263.355 237.2 268.416 242.262 268.416 248.644C268.416 255.026 263.355 260.087 256.973 260.087C250.591 260.087 245.529 255.026 245.529 248.644C245.529 242.262 250.591 237.2 256.973 237.2ZM223.962 237.2C230.344 237.2 235.406 242.262 235.406 248.644C235.406 255.026 230.344 260.087 223.962 260.087C217.58 260.087 212.518 255.026 212.518 248.644C212.518 242.262 217.58 237.2 223.962 237.2ZM310.89 315.325H214.939V278.573H310.89V315.325Z" fill="black"/>
<path d="M256.973 258.107C262.035 258.107 266.216 253.926 266.216 248.864C266.216 243.802 262.035 239.621 256.973 239.621C251.912 239.621 247.73 243.802 247.73 248.864C247.73 253.926 251.912 258.107 256.973 258.107Z" fill="black"/>
<path d="M223.966 257.886C229.027 257.886 233.209 253.705 233.209 248.643C233.209 243.582 229.027 239.4 223.966 239.4C218.904 239.4 214.723 243.582 214.723 248.643C214.723 253.925 218.904 257.886 223.966 257.886Z" fill="black"/>
<path d="M375.373 321.928C374.493 333.371 372.733 345.475 369.652 357.799H165.866C162.785 345.475 161.025 333.371 160.145 321.928H189.194V336.452L199.977 350.537H351.166V321.928H375.373Z" fill="black"/>
<path d="M474.183 330.731V348.996C474.183 353.838 470.221 357.799 465.38 357.799H407.281C410.142 345.475 411.903 333.371 412.783 321.928H465.38C470.221 321.928 474.183 325.889 474.183 330.731Z" fill="black"/>
<path d="M123.173 280.113C122.293 290.897 121.853 303.221 122.513 315.985H65.9552C61.1136 315.985 57.1523 312.023 57.1523 307.182V288.916C57.1523 284.075 61.1136 280.113 65.9552 280.113H123.173Z" fill="black"/>
<path d="M160.582 280.113H189.412V315.985H159.922C159.262 303.001 159.482 290.897 160.582 280.113Z" fill="black"/>
<path d="M375.592 315.985H351.164V280.113H374.932C376.032 290.897 376.252 303.001 375.592 315.985Z" fill="black"/>
<path d="M479.465 288.916V307.182C479.465 312.023 475.504 315.985 470.662 315.985H413.004C413.664 303.001 413.224 290.897 412.344 280.113H470.442C475.504 280.113 479.465 284.075 479.465 288.916Z" fill="black"/>
<path d="M73.2169 238.301H129.775C128.014 245.783 125.153 258.327 123.613 274.172H73.2169C68.3753 274.172 64.4141 270.211 64.4141 265.369V247.104C64.4141 242.262 68.3753 238.301 73.2169 238.301Z" fill="black"/>
<path d="M167.405 238.301H189.413V274.172H161.023C162.784 257.887 165.645 245.123 167.405 238.301Z" fill="black"/>
<path d="M374.492 274.172H351.164V238.301H367.889C369.87 245.123 372.731 257.887 374.492 274.172Z" fill="black"/>
<path d="M472.203 247.104V265.369C472.203 270.211 468.242 274.172 463.401 274.172H411.904C410.364 258.327 407.503 245.783 405.742 238.301H463.401C468.242 238.301 472.203 242.262 472.203 247.104Z" fill="black"/>
<path d="M157.063 347.675C158.824 355.818 160.804 359.779 160.804 359.779H138.577C136.596 359.779 134.836 358.459 134.396 356.478C132.195 346.355 130.655 336.231 129.774 326.328V326.108C129.774 324.568 129.334 317.746 129.114 315.985C128.674 303.001 129.114 290.897 129.994 280.114C130.214 278.133 130.434 276.152 130.655 274.172C132.195 258.547 134.616 246.883 135.936 241.381C136.376 239.401 138.137 238.08 139.898 238.08H160.584C155.743 261.628 153.542 281.654 153.102 298.159C152.882 304.541 153.322 319.946 153.542 321.927C154.202 332.93 155.523 341.513 157.063 347.675Z" fill="black"/>
<path d="M401.78 356.698C401.339 358.679 399.579 359.999 397.598 359.999H375.371C375.371 359.999 375.811 358.899 376.471 356.698C378.232 351.416 381.313 339.973 382.633 321.927C382.853 319.946 382.853 318.186 382.853 315.985C383.294 305.862 383.074 293.758 381.753 280.114C381.533 278.133 381.313 276.152 381.093 274.172C381.093 273.952 381.093 273.952 381.093 273.731C379.993 262.948 378.012 251.064 375.371 238.08H396.058C397.158 238.08 398.258 238.52 399.139 239.4C399.579 239.841 400.019 240.501 400.239 241.381C403.32 254.585 413.223 305.862 401.78 356.698Z" fill="black"/>
<path d="M56.2704 269.992C52.3092 269.992 38.6648 262.509 34.2634 258.548C33.6032 257.888 31.1824 255.687 32.2827 253.706C33.6032 250.845 38.4447 251.726 43.5063 252.826C46.3673 253.266 50.5486 254.146 51.4289 253.266C51.4289 253.266 51.4289 252.826 51.4289 252.386C50.5486 249.525 47.6877 245.564 45.2669 242.263C41.9658 237.641 40.2053 235.22 40.8655 233.68C41.0856 233.02 41.5257 232.58 42.1859 232.58C43.7264 232.139 46.5873 233.02 50.9887 234.34C54.95 235.44 61.112 237.421 62.6525 236.321C62.6525 236.321 62.8725 236.101 62.8725 235.881C63.0926 233.68 60.8919 228.398 59.1313 224.217C56.4905 217.835 55.6102 215.634 56.7106 214.534C56.9306 214.314 57.5908 213.874 58.4711 214.094C59.7915 214.534 61.5521 215.634 63.9729 216.955C67.2739 218.935 72.5556 222.016 74.0961 221.576C74.7563 220.256 73.656 216.074 72.7757 212.553C71.0151 206.171 70.1349 201.99 71.6754 200.229C72.1155 199.789 72.7757 199.349 73.8761 199.349C76.737 199.569 79.5979 202.87 82.4588 206.171C84.2194 208.152 86.6401 210.793 87.7405 210.793C87.7405 210.793 87.9606 210.793 87.9606 210.573C89.0609 209.032 88.1806 203.75 87.5204 199.349C86.6401 192.747 86.2 188.786 87.7405 187.025C88.1806 186.585 88.8408 186.145 89.5011 186.145C92.362 186.145 95.0028 190.326 98.5239 196.928C99.8444 199.349 101.825 202.87 102.925 203.75C103.586 201.99 103.366 197.368 103.366 193.627C103.145 186.805 102.925 182.624 104.906 181.523C105.346 181.303 106.006 180.863 107.107 181.303C109.748 182.404 111.948 187.245 113.929 192.087C115.029 194.727 116.79 198.909 117.89 199.129C119.211 197.588 119.871 192.307 120.311 187.905C120.971 181.743 121.411 178.662 123.172 177.782C123.612 177.562 124.272 177.562 124.932 177.782C126.693 178.662 128.013 182.183 129.774 187.905C130.654 190.986 132.415 196.048 133.295 196.708C134.175 195.608 134.836 190.546 135.056 187.245C135.716 181.083 136.156 177.122 138.137 176.242C138.577 176.021 139.457 175.801 140.337 176.462C142.758 178.002 143.418 182.844 143.858 187.685C144.299 190.986 144.519 194.948 145.619 195.828C145.619 195.828 145.839 196.048 146.059 195.828C148.04 195.168 149.58 189.666 150.681 185.705C152.001 180.863 152.881 178.222 154.642 177.782C155.082 177.562 155.742 177.562 156.623 178.442C158.603 180.203 158.383 184.604 157.943 191.426C157.723 194.948 157.283 200.449 158.383 201.11C160.144 200.889 162.344 197.148 164.105 194.067C166.526 190.106 168.726 186.365 171.367 185.925C172.248 185.705 173.128 186.145 174.008 186.805C176.649 189.006 177.309 193.187 177.969 197.148C178.63 200.669 179.07 203.97 180.83 205.071C182.811 206.171 186.332 207.051 189.633 207.712C196.015 209.252 201.517 210.573 201.297 213.874C201.297 214.534 200.637 214.974 200.196 214.974C199.536 214.974 199.096 214.314 199.096 213.874C199.316 212.333 192.934 210.793 189.193 209.912C185.672 209.032 182.151 208.152 179.95 207.051C177.089 205.511 176.429 201.77 175.769 197.588C175.108 194.067 174.668 190.326 172.468 188.565C172.027 188.125 171.807 188.125 171.587 188.345C170.047 188.565 167.626 192.527 165.865 195.608C163.445 199.569 161.244 203.31 158.603 203.75C157.943 203.97 157.063 203.75 156.623 203.09C155.082 201.55 155.082 197.808 155.522 191.646C155.742 187.465 156.182 181.523 154.862 180.423C154.202 180.643 153.321 184.384 152.441 186.805C150.901 192.087 149.58 197.588 146.279 198.469C145.179 198.909 144.299 198.469 143.858 198.249C141.878 196.928 141.438 192.967 140.998 188.565C140.557 184.824 140.117 179.983 138.577 178.882C137.476 179.323 137.036 184.824 136.596 188.125C135.936 194.067 135.496 198.029 133.735 199.129C133.295 199.569 132.635 199.569 131.975 199.349C129.994 198.689 128.894 195.168 126.913 189.006C125.813 185.925 124.492 181.303 123.392 180.203C122.732 181.303 122.292 185.705 121.851 188.565C121.191 193.847 120.531 198.909 118.991 200.889C118.33 201.77 117.45 201.77 117.01 201.77C115.029 201.55 113.709 198.469 111.508 193.407C109.748 189.446 107.767 184.604 105.786 183.724C104.686 184.384 104.906 190.326 105.126 194.067C105.346 199.129 105.566 203.75 104.466 205.731C104.026 206.611 103.145 206.831 102.705 206.831C100.945 206.831 99.1842 203.97 96.3232 198.909C94.3426 195.388 91.0415 189.226 89.281 189.226C88.1806 190.326 88.8408 195.828 89.5011 199.789C90.3813 205.511 91.0415 210.352 89.5011 212.553C88.8408 213.433 88.1806 213.654 87.5204 213.654C85.5398 213.874 83.3391 211.233 80.4782 208.152C78.2775 205.511 75.1965 202.21 73.4359 202.21C73.2158 202.21 73.2158 202.21 73.2158 202.21C72.3356 203.31 73.8761 208.812 74.7563 212.553C76.0768 217.835 76.957 221.136 76.0768 222.896C75.8567 223.557 75.1965 223.997 74.5363 224.217C72.1155 224.877 68.1542 222.676 62.6525 219.375C61.112 218.495 59.5715 217.395 58.4711 216.955C58.9113 218.495 60.0116 221.356 61.112 223.777C63.0926 228.618 65.2933 233.68 65.0732 236.321C65.0732 237.201 64.6331 237.861 63.9729 238.301C61.7722 239.842 57.1507 238.521 50.3285 236.541C47.4676 235.661 44.1665 234.78 42.8461 234.78C43.0662 235.44 45.2669 238.521 47.0275 240.942C49.6683 244.463 52.5292 248.645 53.4095 251.726C53.8496 253.266 53.4095 254.146 52.9694 254.587C51.4289 256.347 47.4676 255.687 43.0662 254.807C39.9852 254.146 34.9236 253.266 34.2634 254.587C34.2634 254.807 34.2634 255.027 34.7035 255.687C38.2246 260.529 53.8496 268.011 56.0504 268.011C56.4905 267.791 57.1507 268.011 57.3708 268.451C57.5908 268.891 57.3708 269.771 56.7106 269.992C56.7106 269.992 56.4905 269.992 56.2704 269.992Z" fill="black"/>
<path d="M469.783 236.54C468.903 236.54 468.683 235.439 468.683 234.559C468.463 231.918 470.664 226.857 472.644 222.015C473.525 219.814 474.845 216.733 475.285 215.193C474.185 215.633 472.644 216.513 471.104 217.614C465.602 220.915 461.421 223.115 459.22 222.455C458.56 222.235 458.12 221.795 457.68 221.135C456.799 219.374 457.68 216.073 459 210.791C459.88 207.05 461.421 201.548 460.54 200.448C460.54 200.448 460.541 200.448 460.32 200.448C458.34 200.668 455.479 203.749 453.278 206.39C450.637 209.471 448.437 211.892 446.236 211.892C445.796 211.892 444.916 211.672 444.255 210.791C442.715 208.591 443.375 203.749 444.255 198.027C444.916 194.066 445.576 188.564 444.475 187.464C442.715 187.464 439.414 193.406 437.433 197.147C434.572 202.429 432.812 205.07 431.051 205.07C430.611 205.07 429.951 204.85 429.29 203.969C428.19 201.989 428.41 197.587 428.63 192.306C428.85 188.784 429.07 182.622 427.97 181.962C426.209 182.843 424.009 187.684 422.248 191.645C420.048 196.707 418.727 199.788 416.746 200.008C416.306 200.008 415.426 200.008 414.766 199.128C413.005 197.147 412.345 192.085 411.905 186.804C411.465 183.943 411.025 179.541 410.364 178.441C409.264 179.541 407.944 184.163 406.843 187.244C404.863 193.406 403.542 196.927 401.782 197.587C401.121 197.807 400.461 197.587 400.021 197.367C398.261 196.047 397.82 192.306 397.16 186.364C396.72 183.063 396.28 177.561 395.18 177.121C393.639 178.221 393.199 182.843 392.759 186.804C392.319 191.205 391.879 195.166 389.898 196.487C389.458 196.707 388.577 197.147 387.477 196.707C384.176 195.827 382.856 190.325 381.315 185.043C380.655 182.622 379.555 178.881 378.894 178.661C377.574 179.762 378.014 185.703 378.234 189.885C378.674 196.047 378.894 200.008 377.134 201.328C376.694 201.769 375.813 201.989 375.153 201.989C372.512 201.548 370.312 197.807 367.891 193.846C366.13 190.765 363.71 187.024 362.169 186.584C361.949 186.584 361.729 186.584 361.289 186.804C359.308 188.564 358.648 192.306 357.988 195.827C357.327 200.008 356.667 203.749 353.806 205.29C351.606 206.39 347.864 207.27 344.563 208.151C340.822 209.031 334.44 210.571 334.66 212.112C334.66 212.772 334.22 213.212 333.56 213.212C332.9 213.212 332.46 212.772 332.46 212.112C332.239 208.811 337.741 207.49 344.123 205.95C347.424 205.07 350.945 204.409 352.926 203.309C354.687 202.429 355.347 198.908 355.787 195.387C356.447 191.425 357.107 187.244 359.748 185.043C360.629 184.383 361.509 184.163 362.389 184.163C365.03 184.603 367.231 188.344 369.651 192.306C371.412 195.387 373.613 199.128 375.373 199.348C376.254 198.468 376.033 193.186 375.813 189.665C375.373 182.843 375.153 178.441 377.134 176.681C378.014 176.02 378.674 176.02 379.114 176.02C380.875 176.46 381.535 179.101 383.076 183.943C384.176 187.904 385.717 193.406 387.697 194.066C388.137 194.066 388.137 194.066 388.137 194.066C389.238 193.406 389.678 189.225 389.898 185.923C390.338 180.862 390.998 176.24 393.419 174.7C394.519 174.04 395.18 174.26 395.62 174.48C397.6 175.36 398.041 179.321 398.701 185.483C399.141 188.784 399.581 193.846 400.461 194.946C401.562 194.066 403.102 189.225 403.982 186.144C405.743 180.422 407.063 176.901 408.824 176.02C409.484 175.8 409.924 175.8 410.585 176.02C412.125 176.901 412.565 180.202 413.445 186.144C413.886 190.545 414.546 195.827 415.866 197.367C416.746 197.147 418.507 192.966 419.827 190.325C421.808 185.483 424.009 180.642 426.65 179.541C427.75 179.101 428.63 179.541 428.85 179.762C430.611 181.082 430.611 185.263 430.391 191.865C430.171 195.607 429.951 200.448 430.831 201.989C431.931 201.108 433.912 197.587 435.232 195.166C438.974 188.784 441.394 184.383 444.255 184.383C444.916 184.383 445.576 184.603 446.016 185.263C447.556 187.024 447.116 190.985 446.236 197.587C445.576 201.989 444.915 207.27 445.796 208.811C446.016 209.031 446.016 209.031 446.016 209.031C446.896 209.031 449.537 206.39 451.298 204.409C454.158 201.108 457.019 197.807 459.88 197.587C460.981 197.587 461.641 198.027 462.081 198.468C463.621 200.228 462.741 204.409 460.981 210.791C460.1 214.313 459 218.494 459.66 219.814C461.201 220.254 466.702 217.173 469.783 215.193C471.984 213.872 473.965 212.772 475.285 212.332C476.386 211.892 476.826 212.552 477.046 212.772C478.146 213.872 477.266 216.073 474.625 222.455C472.864 226.637 470.664 231.918 470.884 234.119C470.884 234.559 471.104 236.76 469.783 236.54Z" fill="black"/>
<path d="M346.761 346.135H202.615L193.812 336.452H335.978L336.198 217.834L346.541 228.617L346.761 346.135Z" fill="black"/>
<path d="M320.136 214.095C319.916 214.095 319.916 214.095 319.695 214.095C304.291 207.713 295.708 199.131 294.167 188.567C292.187 175.143 289.986 167 276.782 167C270.84 167 267.319 172.502 263.798 178.224C259.616 185.046 254.775 192.528 245.312 190.548C229.247 187.027 215.162 213.215 214.942 213.435C214.722 213.875 214.062 214.095 213.401 213.875C212.961 213.655 212.741 212.995 212.961 212.335C213.622 211.234 228.146 184.386 245.312 188.127C253.454 189.888 257.416 183.505 261.597 176.683C265.338 170.521 269.299 164.359 276.562 164.359C291.526 164.359 293.947 173.602 296.148 187.907C297.688 197.59 305.831 205.733 320.356 211.895C320.796 212.115 321.236 212.775 321.016 213.215C321.016 213.875 320.576 214.095 320.136 214.095Z" fill="black"/>
<path d="M329.376 212.113C329.156 212.113 329.156 212.113 328.936 212.113C310.45 205.071 300.107 195.828 298.346 184.384C295.925 169.86 293.725 160.837 277.44 160.837C270.177 160.837 266.656 166.559 263.135 172.501C258.954 179.323 254.332 187.245 242.668 185.045C223.742 181.303 206.357 211.453 206.137 211.673C205.697 212.333 205.036 212.553 204.376 212.113C203.716 211.673 203.496 211.013 203.936 210.353C204.596 209.032 222.422 178.442 243.109 182.624C253.012 184.604 256.753 178.002 260.934 171.18C264.675 164.798 268.637 158.416 277.219 158.416C295.045 158.416 298.126 168.539 300.547 183.944C302.307 194.508 311.991 203.09 329.596 209.912C330.256 210.133 330.477 210.793 330.256 211.453C330.477 211.673 329.816 212.113 329.376 212.113Z" fill="black"/>
<path d="M308.471 214.093H308.251C289.765 209.912 287.784 197.588 285.584 184.384C283.823 174.481 282.063 163.257 273.26 153.794C261.596 167.218 248.612 171.84 239.369 175.141C231.446 178.002 225.725 179.982 223.964 185.704C220.883 195.387 223.964 212.773 223.964 212.773C223.964 213.433 223.744 213.873 223.084 214.093C222.424 214.313 221.983 213.873 221.763 213.213C221.543 212.553 218.462 195.167 221.763 185.044C223.964 178.442 230.346 176.021 238.709 173.16C248.392 169.639 260.496 165.458 271.939 152.254C269.959 150.273 267.758 148.512 265.117 146.752C252.353 138.169 247.071 130.246 249.052 123.204C251.913 113.961 266.438 110 273.04 110C278.321 110 282.943 113.081 285.364 117.923C287.344 122.104 289.985 133.768 274.8 152.033C284.263 162.157 286.244 173.6 288.005 183.944C290.205 197.368 291.966 207.931 308.911 211.893C309.571 212.113 309.792 212.553 309.792 213.213C309.351 213.873 308.911 214.093 308.471 214.093ZM272.82 112.201C266.438 112.201 253.233 116.162 250.813 123.864C249.052 129.806 254.114 137.069 265.998 144.991C268.638 146.752 271.059 148.732 273.04 150.713C287.344 133.327 284.924 122.764 283.163 119.023C281.182 114.621 277.441 112.201 272.82 112.201Z" fill="black"/>
<path d="M254.554 290.459H251.473V301.683H254.554V290.459Z" fill="black"/>
<path d="M241.128 290.459H238.047V301.683H241.128V290.459Z" fill="black"/>
<path d="M218.902 282.975V311.144H306.05V282.975H218.902ZM243.33 302.121C243.33 303.001 242.89 303.441 242.01 303.441H237.168C236.288 303.441 235.848 303.001 235.848 302.121V289.797C235.848 288.917 236.288 288.476 237.168 288.476H242.01C242.89 288.476 243.33 288.917 243.33 289.797V302.121ZM256.754 302.121C256.754 303.001 256.314 303.441 255.434 303.441H250.592C249.712 303.441 249.272 303.001 249.272 302.121V289.797C249.272 288.917 249.712 288.476 250.592 288.476H255.434C256.314 288.476 256.754 288.917 256.754 289.797V302.121ZM264.677 303.661H262.476V301.24H264.677V303.661ZM264.677 297.499H262.476V295.078H264.677V297.499ZM273.04 303.661H270.839V292.878H269.959V292.658L271.059 288.476H273.04V303.661ZM286.464 302.121C286.464 303.001 286.024 303.441 285.144 303.441H280.302C279.422 303.441 278.982 303.001 278.982 302.121V289.797C278.982 288.917 279.422 288.476 280.302 288.476H285.144C286.024 288.476 286.464 288.917 286.464 289.797V302.121Z" fill="black"/>
<path d="M284.265 290.459H281.184V301.683H284.265V290.459Z" fill="black"/>
</svg>
