<svg width="512" height="512" viewBox="0 0 512 512" fill="none" xmlns="http://www.w3.org/2000/svg">
<path d="M198.783 284.949L237.349 307.215C238.848 308.081 240.782 307.563 241.648 306.064C247.37 296.467 252.584 287.121 257.19 278.515C258.055 277.016 257.458 275.217 255.959 274.352L217.938 252.4C216.439 251.535 214.583 251.917 213.718 253.416C208.567 261.708 203.081 270.896 197.631 280.65C196.765 282.149 197.284 284.084 198.783 284.949Z" fill="black"/>
<path d="M208.843 348.723L176.955 330.312C175.319 329.368 173.227 330.159 172.419 331.873C169.461 338.886 166.774 346.057 164.518 353.112C164.082 354.496 164.622 356.079 165.984 356.866L191.468 371.579C192.694 372.287 194.472 372.041 195.452 370.972C200.434 365.49 205.165 359.5 209.895 353.509C210.976 351.953 210.478 349.667 208.843 348.723Z" fill="black"/>
<path d="M345.808 193.95L295.386 164.839C304.2 157.754 315.65 154.916 326.669 156.917C325.51 158.61 324.86 160.052 324.796 161.105C324.307 165.729 332.127 171.697 345.031 179.874C346.121 180.504 347.133 181.269 347.678 181.584C347.594 182.989 346.947 187.885 345.808 193.95Z" fill="black"/>
<path d="M191.612 291.71C186.692 300.861 181.887 310.443 177.49 320.26C176.84 321.702 177.437 323.5 178.8 324.287L213.278 344.192C214.64 344.979 216.496 344.597 217.419 343.313C223.723 334.597 229.619 325.645 235.084 316.808C235.949 315.309 235.51 313.238 234.011 312.373L195.99 290.421C194.276 289.613 192.341 290.132 191.612 291.71Z" fill="black"/>
<path d="M257.834 146.794L284.68 162.294C282.876 164.16 281.345 166.183 279.95 168.285L254.057 153.336C256.166 148.739 257.834 146.794 257.834 146.794Z" fill="black"/>
<path d="M343.457 204.949L316.474 189.37L287.856 172.848C289.33 170.61 290.998 168.665 292.859 167.015L345.189 197.227C344.669 200.016 343.514 205.164 343.457 204.949Z" fill="black"/>
<path d="M245.526 311.936L276.188 329.639C279.05 331.291 282.84 330.391 284.629 327.608C286.811 324.143 288.856 320.6 290.981 316.921C293.283 312.617 295.35 308.723 297.26 305.101C298.776 302.161 297.66 298.428 294.798 296.776L264 278.994C258.744 289.042 252.565 300.374 245.526 311.936Z" fill="black"/>
<path d="M194.863 380.805C189.215 386.811 183.237 392.445 177.301 397.376L187.658 403.355C187.658 403.355 196.644 401.639 210.14 395.258C212.389 394.195 212.657 390.897 210.477 389.638L194.941 380.669L194.863 380.805Z" fill="black"/>
<path d="M238.498 216.481C234.805 221.617 228.402 230.821 220.639 242.692C219.637 244.113 220.077 246.183 221.712 247.128L258.507 268.371C260.006 269.236 262.155 268.66 262.885 267.083C269.284 254.424 274.053 244.277 276.655 238.511C277.305 237.07 276.708 235.271 275.346 234.484L242.639 215.602C241.198 214.951 239.421 215.197 238.498 216.481Z" fill="black"/>
<path d="M286.07 175.627L314.63 191.934C312.997 199.168 308.64 217.73 306.198 231.401C304.133 230.572 302.068 229.743 300.16 228.642C281.841 217.884 275.369 194.16 286.07 175.627Z" fill="black"/>
<path d="M304.579 244.277L219.815 195.339C229.647 187.751 254.129 168.635 261.618 161.329L278.38 171.007L278.301 171.143C265.162 193.901 272.916 223.271 295.811 236.489C298.809 238.22 301.828 239.6 304.947 240.492C304.647 241.955 304.642 243.223 304.579 244.277Z" fill="black"/>
<path d="M357.642 165.895C353.917 161.019 349.231 156.86 343.508 153.556C341.055 152.139 338.444 150.996 335.892 150.067C339.814 145.79 348.441 137.143 351.519 134.015C352.049 133.412 351.897 132.416 351.216 132.022C313.849 112.084 305.179 126.157 282.851 112.903C278.899 110.621 274.678 98.7352 274.678 98.7352C273.668 93.2462 275.32 90.3844 280.269 87.791C283.242 86.4185 286.697 86.4143 289.695 88.1453L362.367 130.647L357.642 165.895Z" fill="black"/>
<path d="M351.755 217.007C348.749 221.268 341.932 226.781 341.932 226.781C342.982 223.39 345.47 212.471 347.608 201.531C351.74 180.84 350.865 180.153 350.204 179.409C349.874 179.036 349.057 178.564 346.682 177.012C334.051 168.992 327.673 163.674 327.956 161.295C328.077 160.456 328.785 159.229 329.944 157.536C333.063 158.429 336.161 159.672 339.159 161.403C347.063 165.966 352.712 172.862 355.839 180.663L355.619 181.99C355.54 182.126 354.576 197.014 351.755 217.007Z" fill="black"/>
<path d="M293.137 363.227C289.466 368.012 255.277 397.332 232.129 405.954L227.359 403.2C227.359 403.2 280.071 369.493 286.696 358.963C292.455 349.932 319.82 301.591 322.18 297.503C323.596 295.05 332.691 264.505 338.602 238.846C342.435 237.243 346.016 235.131 349.131 232.569C345.045 256.011 338.719 282.703 329.015 301.085C308.012 340.926 296.945 358.521 293.137 363.227Z" fill="black"/>
<path d="M217.565 353.759C211.811 361.521 205.649 369.047 199.314 375.928L218.802 387.179C220.846 388.359 223.247 388.292 225.224 387.071C231.154 383.409 237.478 379.065 243.922 373.882C245.626 372.504 245.365 369.809 243.457 368.708L217.565 353.759Z" fill="black"/>
<path d="M173.147 392.614C177.672 388.867 182.004 384.826 186.357 380.435C187.788 378.899 187.506 376.556 185.734 375.533L165.293 363.731C163.521 362.708 161.214 363.557 160.737 365.643C159.11 371.608 157.776 377.38 156.794 383.172C156.573 384.499 157.134 385.731 158.36 386.439L169.671 392.969C170.762 393.599 172.109 393.468 173.147 392.614Z" fill="black"/>
<path d="M307.562 253.269C299.93 248.862 283.305 239.264 283.305 239.264C280.781 244.893 275.163 257.457 267.011 273.465C267.011 273.465 290.587 287.076 299.853 292.426C301.489 293.371 303.502 292.716 304.31 291.002C311.072 275.827 312.889 266.701 312.272 260.531C311.896 257.406 310.151 254.763 307.562 253.269Z" fill="black"/>
<path d="M221.316 348.835L248.299 364.414C250.752 365.83 253.876 365.453 255.895 363.53C261.816 357.681 267.778 351.13 273.589 343.583C275.887 340.549 274.95 336.192 271.679 334.304L242.243 317.309C235.834 327.781 228.779 338.426 221.316 348.835Z" fill="black"/>
<path d="M190.882 280.387L160.22 262.684C157.358 261.032 156.243 257.299 157.759 254.358C159.668 250.737 161.714 247.193 163.838 243.514C166.413 239.368 168.753 235.631 170.935 232.166C172.723 229.383 176.514 228.483 179.375 230.135L210.174 247.917C204.1 257.492 197.512 268.588 190.882 280.387Z" fill="black"/>
<path d="M156.573 358.696C154.196 366.59 152.306 374.584 151.003 382.191L140.646 376.211C140.646 376.211 137.64 367.571 136.418 352.693C136.214 350.213 138.936 348.332 141.116 349.591L156.652 358.56L156.573 358.696Z" fill="black"/>
<path d="M168.644 325.513C164.799 334.377 161.362 343.477 158.57 352.403L139.083 341.152C137.039 339.972 135.896 337.859 135.965 335.537C136.172 328.57 136.772 320.921 138.038 312.749C138.38 310.584 140.844 309.463 142.752 310.564L168.644 325.513Z" fill="black"/>
<path d="M210.805 197.406C218.436 201.812 235.062 211.411 235.062 211.411C231.449 216.411 223.377 227.559 213.59 242.622C213.59 242.622 190.014 229.011 180.747 223.661C179.112 222.717 178.672 220.646 179.753 219.089C189.513 205.646 196.508 199.509 202.161 196.958C204.918 195.643 208.079 195.833 210.805 197.406Z" fill="black"/>
<path d="M171.169 319.881L144.186 304.302C141.733 302.886 140.497 299.992 141.153 297.282C143.258 289.23 145.95 280.791 149.58 271.985C151.06 268.478 155.301 267.112 158.572 269L187.871 285.916C182.007 296.703 176.315 308.134 171.169 319.881Z" fill="black"/>
<path d="M357.078 170.656C353.473 164.941 348.342 159.98 342.073 156.36C339.348 154.787 336.601 153.565 333.834 152.693C332.722 152.415 331.69 152.001 330.578 151.723C316.268 148.185 301.027 151.923 290.073 161.77C289.328 162.43 288.505 163.226 287.682 164.023C285.956 165.752 284.21 167.833 282.815 169.935C282.128 170.81 281.656 171.628 281.105 172.582L281.026 172.718C268.752 193.977 275.989 221.413 297.384 233.765C299.973 235.26 302.583 236.404 305.272 237.411C316.673 241.268 328.993 240.386 339.458 235.163C343.234 233.345 346.836 230.882 349.972 227.968C353.108 225.055 356.071 221.496 358.352 217.544C366.949 202.339 365.917 184.299 357.078 170.656ZM331.715 155.104C334.698 155.918 337.717 157.297 340.579 158.95C347.665 163.041 353.026 168.862 356.51 175.416C362.897 187.643 363.18 202.888 355.784 215.698C354.368 218.151 352.679 220.446 350.933 222.527C347.833 226.007 344.346 228.9 340.335 231.126C330.043 236.994 317.408 238.422 305.813 234.271C303.397 233.421 301.138 232.299 298.957 231.04C279.061 219.553 272.343 194.052 283.752 174.292L283.83 174.155C284.381 173.201 284.853 172.384 285.54 171.508C286.935 169.407 288.682 167.326 290.407 165.597C291.23 164.8 292.054 164.003 292.798 163.343C302.672 155.053 315.842 151.754 328.517 154.348C328.869 154.369 331.227 155.004 331.715 155.104ZM340.335 231.126C330.043 236.994 317.408 238.422 305.813 234.271C317.272 238.343 330.043 236.994 340.335 231.126Z" fill="black"/>
<path d="M346.618 134.637C343.168 138.096 337.619 143.615 332.852 149.039C316.77 144.478 299.244 148.714 287.073 160.038L263.769 146.584L280.964 116.174C303.491 128.453 317.9 118.602 346.294 132.996C346.839 133.311 347.069 134.171 346.618 134.637Z" fill="black"/>
</svg>
