<svg width="512" height="512" viewBox="0 0 512 512" fill="none" xmlns="http://www.w3.org/2000/svg">
<path d="M220.982 309.895H265.515C267.246 309.895 268.662 308.479 268.662 306.748C268.819 295.575 268.662 284.875 268.347 275.119C268.347 273.388 266.931 272.129 265.2 272.129H221.297C219.566 272.129 218.15 273.388 218.15 275.119C217.835 284.875 217.678 295.575 217.835 306.748C217.835 308.479 219.251 309.895 220.982 309.895Z" fill="black"/>
<path d="M261.582 360.094H224.761C222.872 360.094 221.456 361.825 221.614 363.713C222.558 371.266 223.817 378.819 225.39 386.058C225.705 387.474 226.964 388.576 228.537 388.576H257.963C259.379 388.576 260.796 387.474 261.11 386.058C262.684 378.819 263.785 371.266 264.887 363.713C265.044 361.825 263.471 360.094 261.582 360.094Z" fill="black"/>
<path d="M302.808 157.572H244.586C248.677 147.03 257.175 138.847 267.718 135.07C267.56 137.116 267.718 138.69 268.19 139.634C270.078 143.882 279.834 145.141 295.098 145.771C296.357 145.771 297.616 145.928 298.245 145.928C298.874 147.187 300.763 151.75 302.808 157.572Z" fill="black"/>
<path d="M218.153 319.334C218.467 329.719 219.097 340.42 220.198 351.12C220.356 352.694 221.772 353.953 223.345 353.953H263.157C264.731 353.953 266.147 352.694 266.304 351.12C267.406 340.42 268.035 329.719 268.35 319.334C268.35 317.603 266.934 316.029 265.203 316.029H221.3C219.411 316.187 217.995 317.603 218.153 319.334Z" fill="black"/>
<path d="M203.046 160.723H234.045C233.416 163.24 233.101 165.758 232.944 168.276H203.046C202.574 163.24 203.046 160.723 203.046 160.723Z" fill="black"/>
<path d="M306.272 168.276H275.115H242.07C242.228 165.601 242.7 163.083 243.487 160.723H303.912C304.856 163.398 306.43 168.433 306.272 168.276Z" fill="black"/>
<path d="M274.956 309.895H310.362C313.666 309.895 316.499 307.22 316.656 303.915C316.814 299.824 316.814 295.733 316.814 291.484C316.656 286.606 316.499 282.2 316.342 278.109C316.184 274.804 313.352 272.129 310.047 272.129H274.484C274.956 283.459 275.271 296.362 274.956 309.895Z" fill="black"/>
<path d="M265.517 394.866C263.629 402.892 261.269 410.759 258.594 417.998H270.553C270.553 417.998 277.477 412.018 285.974 399.744C287.39 397.699 285.974 394.709 283.456 394.709H265.517V394.866Z" fill="black"/>
<path d="M221.142 230.743C220.512 237.037 219.568 248.209 218.781 262.372C218.624 264.102 220.04 265.676 221.929 265.676H264.415C266.146 265.676 267.72 264.102 267.562 262.372C266.776 248.209 265.831 237.037 265.202 230.743C265.045 229.169 263.628 227.91 262.055 227.91H224.289C222.715 228.068 221.299 229.169 221.142 230.743Z" fill="black"/>
<path d="M241.914 171.575L274.802 171.418C277.005 178.499 282.512 196.753 287.233 209.813C285.03 210.128 282.827 210.443 280.624 210.443C259.381 210.285 241.914 192.976 241.914 171.575Z" fill="black"/>
<path d="M292.267 221.772H194.391C199.111 210.285 210.756 181.489 213.588 171.418H232.943V171.575C232.943 197.854 254.344 219.412 280.78 219.412C284.242 219.412 287.546 219.097 290.694 218.311C291.166 219.727 291.795 220.828 292.267 221.772Z" fill="black"/>
<path d="M299.033 127.36C293.368 125 287.231 123.741 280.622 123.741C277.79 123.741 274.957 124.055 272.282 124.527C273.541 118.863 276.688 107.061 277.79 102.812C277.947 102.025 277.318 101.238 276.531 101.238C234.202 102.655 233.73 119.177 207.766 118.863C203.202 118.863 193.603 110.68 193.603 110.68C189.984 106.431 189.984 103.127 192.974 98.406C194.862 95.7309 197.852 94 201.314 94L285.5 94.4721L299.033 127.36Z" fill="black"/>
<path d="M319.489 174.568C319.017 179.761 315.869 187.944 315.869 187.944C315.083 184.482 311.778 173.781 308.159 163.238C301.393 143.254 300.291 143.097 299.347 142.782C298.875 142.624 297.931 142.624 295.098 142.467C280.149 141.838 271.967 140.421 271.022 138.218C270.708 137.432 270.708 136.015 270.865 133.97C274.012 133.183 277.317 132.711 280.779 132.711C289.905 132.711 298.245 135.858 304.854 141.051L305.326 142.31C305.326 142.467 311.935 155.843 319.489 174.568Z" fill="black"/>
<path d="M341.835 330.507C341.048 336.487 326.099 378.974 310.363 398.014H304.855C304.855 398.014 333.652 342.467 334.124 330.035C334.596 319.335 334.124 263.788 334.124 259.067C334.124 256.235 326.728 225.235 319.018 200.058C321.535 196.753 323.581 193.134 324.997 189.357C333.18 211.702 341.048 237.981 341.835 258.752C343.566 303.757 342.779 324.528 341.835 330.507Z" fill="black"/>
<path d="M271.654 360.094C270.553 369.693 268.979 379.291 266.934 388.418H289.436C291.796 388.418 293.842 387.159 294.943 385.114C298.248 378.977 301.552 372.053 304.542 364.342C305.329 362.297 303.755 360.094 301.552 360.094H271.654Z" fill="black"/>
<path d="M252.612 415.953C254.657 410.446 256.388 404.781 257.962 398.801C258.434 396.755 257.018 394.867 254.972 394.867H231.368C229.323 394.867 227.749 396.755 228.379 398.801C229.952 404.781 231.683 410.446 233.729 415.953C234.201 417.212 235.302 417.999 236.719 417.999H249.779C251.038 417.999 252.14 417.212 252.612 415.953Z" fill="black"/>
<path d="M299.35 228.068C290.537 228.068 271.34 228.068 271.34 228.068C271.969 234.205 273.385 247.895 274.33 265.834C274.33 265.834 301.553 265.834 312.253 265.834C314.141 265.834 315.557 264.261 315.4 262.372C313.669 245.85 310.679 237.038 307.06 232.002C305.172 229.485 302.339 228.068 299.35 228.068Z" fill="black"/>
<path d="M272.441 353.953H303.598C306.431 353.953 308.948 352.065 309.735 349.39C311.938 341.365 313.827 332.71 315.085 323.269C315.557 319.492 312.568 316.188 308.791 316.188H274.802C274.487 328.461 273.7 341.207 272.441 353.953Z" fill="black"/>
<path d="M211.857 309.895H176.452C173.147 309.895 170.315 307.22 170.157 303.915C170 299.824 170 295.733 170 291.484C170.157 286.606 170.315 282.2 170.472 278.109C170.629 274.804 173.462 272.129 176.766 272.129H212.329C211.857 283.459 211.7 296.362 211.857 309.895Z" fill="black"/>
<path d="M221.3 394.866C223.188 402.892 225.548 410.759 228.223 417.998H216.264C216.264 417.998 209.34 412.018 200.843 399.744C199.427 397.699 200.843 394.709 203.361 394.709H221.3V394.866Z" fill="black"/>
<path d="M215.164 360.094C216.265 369.693 217.839 379.291 219.884 388.418H197.382C195.022 388.418 192.976 387.159 191.875 385.114C188.57 378.977 185.266 372.053 182.276 364.342C181.489 362.297 183.063 360.094 185.266 360.094H215.164Z" fill="black"/>
<path d="M187.625 228.068C196.437 228.068 215.635 228.068 215.635 228.068C215.005 234.205 213.589 247.895 212.645 265.834C212.645 265.834 185.422 265.834 174.722 265.834C172.833 265.834 171.417 264.261 171.574 262.372C173.305 245.85 176.295 237.038 179.914 232.002C181.645 229.485 184.478 228.068 187.625 228.068Z" fill="black"/>
<path d="M214.533 353.953H183.376C180.544 353.953 178.026 352.065 177.239 349.39C175.036 341.365 173.148 332.71 171.889 323.269C171.417 319.492 174.407 316.188 178.183 316.188H212.015C212.33 328.461 213.117 341.207 214.533 353.953Z" fill="black"/>
<path d="M300.921 131.767C294.942 128.62 288.018 126.889 280.779 126.889C277.632 126.889 274.643 127.203 271.81 127.833C270.709 128.148 269.607 128.305 268.506 128.62C254.343 132.711 243.014 143.569 238.45 157.573C238.135 158.518 237.821 159.619 237.506 160.721C236.877 163.081 236.405 165.756 236.247 168.274C236.09 169.375 236.09 170.319 236.09 171.421V171.578C236.09 196.126 256.074 216.268 280.779 216.268C283.769 216.268 286.602 215.953 289.434 215.481C301.236 213.121 311.464 206.197 317.916 196.441C320.276 192.979 322.165 189.045 323.423 184.954C324.682 180.862 325.469 176.299 325.469 171.736C325.312 154.269 315.398 139.163 300.921 131.767ZM271.181 130.98C274.17 130.193 277.475 129.878 280.779 129.878C288.962 129.878 296.515 132.239 302.81 136.173C314.454 143.569 322.322 156.629 322.322 171.421C322.322 174.253 322.007 177.086 321.535 179.761C320.591 184.324 319.017 188.573 316.657 192.507C310.677 202.735 300.449 210.288 288.333 212.491C285.815 212.963 283.297 213.121 280.779 213.121C257.805 213.121 239.237 194.395 239.237 171.578V171.421C239.237 170.319 239.237 169.375 239.394 168.274C239.552 165.756 240.024 163.081 240.653 160.721C240.968 159.619 241.283 158.518 241.597 157.573C246.003 145.457 255.76 136.015 268.033 131.924C268.348 131.767 270.709 131.137 271.181 130.98ZM316.657 192.507C310.677 202.735 300.449 210.288 288.333 212.491C300.292 210.288 310.677 202.735 316.657 192.507Z" fill="black"/>
<path d="M273.856 105.802C272.597 110.523 270.551 118.076 269.135 125.157C252.927 129.248 239.867 141.679 234.989 157.573H208.08L207.766 122.639C233.415 122.01 240.968 106.274 272.754 104.543C273.384 104.543 274.013 105.172 273.856 105.802Z" fill="black"/>
</svg>
