<svg width="512" height="160" viewBox="0 0 512 160" fill="none" xmlns="http://www.w3.org/2000/svg">
<path d="M10.9005 59.293C5.68529 59.293 6.00377 62.6968 6.00377 62.6968C6.78008 76.8494 8.89003 101.751 10.2436 116.142C10.2436 116.142 10.5621 120.123 15.618 119.705L10.9005 59.293Z" fill="black"/>
<path d="M199.184 41.8571H215.307V27.6646L213.715 26.5101V18.0305C213.715 17.7963 213.623 17.5715 213.46 17.4041C213.296 17.2366 213.073 17.14 212.839 17.1348H201.593C201.36 17.1348 201.138 17.227 200.973 17.3913C200.809 17.5555 200.717 17.7783 200.717 18.0106V26.1319L199.104 27.6646L199.184 41.8571Z" fill="black"/>
<path d="M222.911 27.6445H217.298V39.5479H222.911V27.6445Z" fill="black"/>
<path d="M225.24 43.668L223.966 44.9419C223.821 45.1381 223.632 45.2978 223.414 45.4084C223.197 45.519 222.956 45.5773 222.712 45.5789H191.142C190.816 45.5795 190.494 45.5085 190.198 45.3709C189.902 45.2333 189.64 45.0325 189.431 44.7827L188.495 43.668H178.542V51.9685H222.334C222.334 49.2215 223.867 48.8433 224.922 48.6244C226.59 48.3041 228.28 48.1046 229.978 48.0272C230.581 48.0039 231.152 47.747 231.57 47.3106L235.034 43.668H225.24Z" fill="black"/>
<path d="M197.194 27.6445H189.749V39.5479H197.194V27.6445Z" fill="black"/>
<path d="M288.658 58.3594H284.677V77.8665H288.658V58.3594Z" fill="black"/>
<path d="M324.488 58.3594H320.507V77.8665H324.488V58.3594Z" fill="black"/>
<path d="M282.687 58.3594H278.706V77.8665H282.687V58.3594Z" fill="black"/>
<path d="M300.601 58.3594H296.62V77.8665H300.601V58.3594Z" fill="black"/>
<path d="M318.516 58.3594H314.535V77.8665H318.516V58.3594Z" fill="black"/>
<path d="M312.545 58.3594H308.563V77.8665H312.545V58.3594Z" fill="black"/>
<path d="M306.573 58.3594H302.592V77.8665H306.573V58.3594Z" fill="black"/>
<path d="M294.63 58.3594H290.649V77.8665H294.63V58.3594Z" fill="black"/>
<path d="M473.14 64.8086H416.112V73.4674H473.14V64.8086Z" fill="black"/>
<path d="M482.894 63.1758H475.131V75.318H482.894V63.1758Z" fill="black"/>
<path d="M276.715 58.3594H272.734V77.8665H276.715V58.3594Z" fill="black"/>
<path d="M414.121 63.0352H407.632V74.8788H414.121V63.0352Z" fill="black"/>
<path d="M486.994 64.8086H484.884V73.4674H486.994V64.8086Z" fill="black"/>
<path d="M164.091 56.3678H392.046C391.793 55.3378 391.203 54.4219 390.37 53.7655C389.537 53.1091 388.508 52.75 387.448 52.7451H382.631V54.7356H379.764V52.7451H376.44V54.7356H373.793V52.7451H370.469V54.7356H367.662V52.7451H364.238V54.7356H361.452V52.7451H358.127V54.7356H355.321V52.7451H351.997V54.7356H349.19V52.7451H345.926V54.7356H343.119V52.7451H339.795V54.7356H337.008V52.7451H333.684V54.7356H330.877V52.7451H327.553V54.7356H324.746V52.7451H321.422V54.7356H318.616V52.7451H315.291V54.7356H312.505V52.7451H309.18V54.7356H306.314V52.7451H302.99V54.7356H300.143V52.7451H296.819V54.7356H294.013V52.7451H290.688V54.7356H287.902V52.7451H284.617V54.7356H281.811V52.7451H278.487V54.7356H275.68V52.7451H272.276V54.7356H269.469V52.7451H266.305V54.7356H263.518V52.5261H260.194V54.6361H257.387V52.5261H254.063V54.6361H251.177V52.5062H247.852V54.6361H245.046V52.5062H241.722V54.6361H238.935V52.4863H235.611V54.6361H232.804V52.4863H229.48V54.6361H226.673V52.4664H222.951V53.9593H177.169V51.9688H174.999V53.9593H172.332V51.9688H170.083V53.9593H167.415V51.9688H165.186V53.9593H164.091V56.3678Z" fill="black"/>
<path d="M270.743 58.3594H266.762V77.8665H270.743V58.3594Z" fill="black"/>
<path d="M326.478 58.3594V77.8665H330.459V75.239V58.3594H326.478Z" fill="black"/>
<path d="M264.772 58.3594H241.045V77.8665H264.772V58.3594Z" fill="black"/>
<path d="M224.902 108.06V138.496L229.599 137.54C230.279 137.402 230.89 137.034 231.329 136.497C231.768 135.96 232.008 135.288 232.008 134.594V106.926L224.902 108.06Z" fill="black"/>
<path d="M330.459 79.8555H249.246C249.658 80.5719 249.922 81.3639 250.022 82.1844H330.459V79.8555Z" fill="black"/>
<path d="M488.985 63.2754V75.4176H506.004V63.2754H488.985ZM501.983 70.919H492.846C492.493 70.919 492.153 70.7785 491.903 70.5284C491.653 70.2783 491.513 69.9391 491.513 69.5853C491.513 69.2316 491.653 68.8924 491.903 68.6423C492.153 68.3922 492.493 68.2517 492.846 68.2517H501.983C502.336 68.2517 502.676 68.3922 502.926 68.6423C503.176 68.8924 503.316 69.2316 503.316 69.5853C503.316 69.9391 503.176 70.2783 502.926 70.5284C502.676 70.7785 502.336 70.919 501.983 70.919Z" fill="black"/>
<path d="M200.08 112.043L194.467 112.919L193.85 141.144C193.85 141.59 193.949 142.03 194.139 142.432C194.33 142.835 194.608 143.19 194.953 143.472C195.297 143.753 195.701 143.955 196.133 144.062C196.565 144.169 197.016 144.179 197.452 144.09L200.08 143.553V112.043Z" fill="black"/>
<path d="M332.45 77.2285V78.8608V82.1849H336.351V79.9954H339.158V82.1849H342.482V79.9954H345.269V82.1849H348.613V79.9954H351.4V82.1849H354.724V79.9954H357.53V82.1849H360.855V79.9954H363.661V82.1849H366.985V79.9954H369.772V82.1849H373.116V79.9954H375.903V82.1849H380.521V77.2285H332.45Z" fill="black"/>
<path d="M222.911 108.379L202.051 111.703V143.153L222.911 138.894V108.379Z" fill="black"/>
<path d="M390.195 58.3594H332.45V75.239H380.521V75.2191H390.195V58.3594Z" fill="black"/>
<path d="M405.601 63.0371V58.3594H402.874V59.4542H400.068V58.3594H397.321V59.4542H394.514V58.3594H392.185V78.8817H394.514V76.6324H397.321V78.8817H400.068V76.6324H402.874V78.8817H405.601V74.8807H405.641V63.0371H405.601Z" fill="black"/>
<path d="M291.485 21.4738V45.8577H304.682C304.899 45.8577 305.114 45.815 305.314 45.732C305.515 45.6489 305.697 45.5272 305.85 45.3738C306.004 45.2204 306.125 45.0383 306.208 44.8378C306.291 44.6374 306.334 44.4225 306.334 44.2056V23.0662C306.334 22.8492 306.291 22.6344 306.208 22.434C306.125 22.2335 306.004 22.0514 305.85 21.898C305.697 21.7446 305.515 21.6228 305.314 21.5398C305.114 21.4568 304.899 21.4141 304.682 21.4141L291.485 21.4738Z" fill="black"/>
<path d="M135.607 24.1819L127.446 22.1914C127.139 22.1914 126.846 22.313 126.629 22.5295C126.413 22.7461 126.291 23.0397 126.291 23.3459V44.4256C126.291 44.7212 126.408 45.0047 126.618 45.2138C126.827 45.4228 127.11 45.5403 127.406 45.5403L135.607 43.5497V24.1819Z" fill="black"/>
<path d="M171.058 94.1484H175.775C174.626 95.518 173.821 97.1423 173.427 98.8859C173.068 101.175 175.775 103.922 175.775 103.922C174.749 103.996 173.727 103.724 172.872 103.151C172.018 102.577 171.379 101.735 171.058 100.757C170.574 99.7226 170.324 98.5946 170.324 97.4527C170.324 96.3108 170.574 95.1829 171.058 94.1484Z" fill="black"/>
<path d="M140.782 83.836C142.712 83.8 144.582 84.5135 145.997 85.8265L152.208 76.8094H239.054V58.2975H162.101V56.307C162.101 56.307 151.889 54.0776 140.882 52.0273C139.608 52.2861 132.243 52.0273 132.243 52.0273V57.3819H129.356V83.7762C131.665 83.7961 136.383 83.8957 140.782 83.836Z" fill="black"/>
<path d="M194.467 78.8594V108.578L233.76 102.606C233.902 102.527 234.02 102.411 234.104 102.272C234.188 102.132 234.234 101.973 234.237 101.81V84.7911L239.054 82.084V78.9191L194.467 78.8594Z" fill="black"/>
<path d="M192.476 78.8594H153.263L147.291 87.4584C148.316 88.864 148.915 90.5342 149.017 92.2704C149.119 94.0066 148.721 95.7357 147.868 97.2518C146.157 99.959 127.963 127.11 123.425 133.221C123.311 133.37 123.234 133.545 123.202 133.731C123.169 133.916 123.182 134.106 123.238 134.286C123.295 134.465 123.394 134.629 123.527 134.762C123.66 134.895 123.823 134.995 124.002 135.052C130.335 137.087 136.817 138.625 143.39 139.65C145.051 139.922 146.745 139.922 148.406 139.65C148.541 139.613 148.667 139.548 148.775 139.458C148.882 139.368 148.97 139.256 149.03 139.129C149.09 139.003 149.123 138.864 149.125 138.724C149.127 138.584 149.099 138.445 149.043 138.316C148.575 136.959 148.493 135.498 148.804 134.096C149.441 130.693 155.054 122.551 155.87 121.019C156.328 120.183 157.861 120.023 159.334 120.043C159.545 120.047 159.754 120 159.943 119.907C160.132 119.814 160.297 119.677 160.423 119.508C160.55 119.339 160.634 119.142 160.669 118.934C160.705 118.726 160.691 118.513 160.628 118.312C160.527 117.386 160.48 116.456 160.488 115.525C161.031 113.493 161.927 111.573 163.136 109.852C163.478 109.509 163.895 109.249 164.354 109.094C164.814 108.938 165.303 108.891 165.783 108.956H191.959H192.476V78.8594ZM188.216 104.477C187.547 105.16 186.748 105.702 185.866 106.071C184.984 106.441 184.037 106.63 183.081 106.627H172.133C171.172 106.632 170.219 106.448 169.33 106.084C168.44 105.721 167.631 105.185 166.949 104.509C166.266 103.832 165.724 103.027 165.353 102.141C164.983 101.254 164.79 100.303 164.788 99.3419C164.81 98.248 165.09 97.1749 165.606 96.2098C166.121 95.2447 166.857 94.4151 167.754 93.7883C168.963 92.7538 170.483 92.1515 172.073 92.0765H183.021C184.606 92.1202 186.123 92.7271 187.301 93.7883C188.143 94.469 188.84 95.3107 189.353 96.2643C189.866 97.2179 190.183 98.2641 190.286 99.3419C190.301 101.26 189.557 103.106 188.216 104.477Z" fill="black"/>
<path d="M167.953 24.1797H160.409V43.6669H167.953V24.1797Z" fill="black"/>
<path d="M176.552 27.6445H169.923V39.5479H176.552V27.6445Z" fill="black"/>
<path d="M155.85 16H149.66C148.973 16 148.315 16.2726 147.83 16.7579C147.345 17.2432 147.072 17.9014 147.072 18.5877V24.1811H137.597V43.5489H158.418V18.5877C158.418 17.9048 158.148 17.2496 157.667 16.7649C157.186 16.2802 156.533 16.0053 155.85 16Z" fill="black"/>
<path d="M187.758 25.1758H178.562V41.6772H187.758V25.1758Z" fill="black"/>
<path d="M235.869 25.6543H224.902V41.5387H235.869V25.6543Z" fill="black"/>
<path d="M289.474 45.798L237.86 39.5477V27.6444L289.474 21.4141V45.798Z" fill="black"/>
<path d="M12.8909 59.293L17.3496 119.705C25.3117 115.724 108.277 90.1461 125.296 84.8911V59.293H12.8909ZM53.8758 89.2902H24.8937C24.5554 89.2495 24.2437 89.0863 24.0176 88.8314C23.7915 88.5765 23.6666 88.2475 23.6666 87.9068C23.6666 87.566 23.7915 87.2371 24.0176 86.9822C24.2437 86.7272 24.5554 86.564 24.8937 86.5233H53.8758C54.2141 86.564 54.5258 86.7272 54.7519 86.9822C54.978 87.2371 55.1029 87.566 55.1029 87.9068C55.1029 88.2475 54.978 88.5765 54.7519 88.8314C54.5258 89.0863 54.2141 89.2495 53.8758 89.2902ZM58.9516 80.0741H24.8937C24.5453 80.0328 24.2241 79.8651 23.991 79.6028C23.7579 79.3404 23.6292 79.0017 23.6292 78.6508C23.6292 78.2999 23.7579 77.9612 23.991 77.6989C24.2241 77.4366 24.5453 77.2689 24.8937 77.2276H58.9516C59.3001 77.2689 59.6213 77.4366 59.8544 77.6989C60.0875 77.9612 60.2162 78.2999 60.2162 78.6508C60.2162 79.0017 60.0875 79.3404 59.8544 79.6028C59.6213 79.8651 59.3001 80.0328 58.9516 80.0741ZM65.0426 70.838H24.8937C24.5084 70.838 24.1388 70.6849 23.8663 70.4124C23.5937 70.1399 23.4407 69.7703 23.4407 69.3849C23.4407 68.9995 23.5937 68.6299 23.8663 68.3574C24.1388 68.0849 24.5084 67.9318 24.8937 67.9318H65.0426C65.428 67.9318 65.7976 68.0849 66.0701 68.3574C66.3426 68.6299 66.4957 68.9995 66.4957 69.3849C66.4957 69.7703 66.3426 70.1399 66.0701 70.4124C65.7976 70.6849 65.428 70.838 65.0426 70.838Z" fill="black"/>
</svg>
