<svg width="512" height="512" viewBox="0 0 512 512" fill="none" xmlns="http://www.w3.org/2000/svg">
<path d="M32.8909 361.044C28.3744 363.651 30.3521 366.44 30.3521 366.44C38.1008 378.308 52.3788 398.819 60.7467 410.605C60.7467 410.605 63.0131 413.894 67.1826 411.004L32.8909 361.044Z" fill="black"/>
<path d="M187.231 251.8L201.194 243.738L194.098 231.447L192.142 231.244L187.902 223.9C187.785 223.697 187.593 223.548 187.367 223.485C187.142 223.422 186.901 223.45 186.695 223.562L176.956 229.186C176.754 229.302 176.608 229.493 176.548 229.717C176.487 229.942 176.519 230.181 176.635 230.382L180.696 237.415L180.066 239.549L187.231 251.8Z" fill="black"/>
<path d="M200.673 227.629L195.812 230.436L201.763 240.744L206.624 237.937L200.673 227.629Z" fill="black"/>
<path d="M210.702 240.341L210.235 242.081C210.208 242.323 210.124 242.556 209.991 242.761C209.857 242.965 209.678 243.136 209.468 243.259L182.128 259.044C181.845 259.208 181.531 259.308 181.206 259.336C180.881 259.365 180.554 259.322 180.247 259.211L178.879 258.713L170.26 263.689L174.41 270.878L212.335 248.982C210.962 246.603 212.1 245.509 212.904 244.792C214.189 243.68 215.553 242.663 216.984 241.747C217.495 241.425 217.861 240.917 218.005 240.33L219.183 235.444L210.702 240.341Z" fill="black"/>
<path d="M178.401 240.487L171.954 244.209L177.905 254.518L184.352 250.795L178.401 240.487Z" fill="black"/>
<path d="M272.968 221.355L269.521 223.346L279.274 240.239L282.722 238.249L272.968 221.355Z" fill="black"/>
<path d="M303.997 203.439L300.55 205.43L310.303 222.323L313.751 220.333L303.997 203.439Z" fill="black"/>
<path d="M267.797 224.34L264.349 226.33L274.103 243.224L277.55 241.233L267.797 224.34Z" fill="black"/>
<path d="M283.311 215.383L279.864 217.373L289.617 234.267L293.065 232.276L283.311 215.383Z" fill="black"/>
<path d="M298.826 206.425L295.378 208.416L305.132 225.31L308.58 223.319L298.826 206.425Z" fill="black"/>
<path d="M293.654 209.412L290.207 211.402L299.96 228.296L303.408 226.305L293.654 209.412Z" fill="black"/>
<path d="M288.483 212.396L285.035 214.387L294.789 231.28L298.236 229.29L288.483 212.396Z" fill="black"/>
<path d="M278.14 218.369L274.692 220.359L284.446 237.253L287.893 235.263L278.14 218.369Z" fill="black"/>
<path d="M435.959 134.699L386.571 163.213L390.9 170.712L440.288 142.197L435.959 134.699Z" fill="black"/>
<path d="M443.59 128.409L436.867 132.291L442.938 142.806L449.661 138.925L443.59 128.409Z" fill="black"/>
<path d="M262.625 227.326L259.178 229.316L268.931 246.21L272.379 244.22L262.625 227.326Z" fill="black"/>
<path d="M383.961 162.673L378.342 165.918L384.263 176.175L389.883 172.93L383.961 162.673Z" fill="black"/>
<path d="M447.957 127.771L446.13 128.826L450.459 136.325L452.286 135.27L447.957 127.771Z" fill="black"/>
<path d="M164.095 281.913L361.51 167.936C360.776 167.17 359.807 166.672 358.757 166.52C357.707 166.368 356.637 166.571 355.716 167.097L351.544 169.506L352.54 171.23L350.057 172.663L349.062 170.939L346.183 172.601L347.179 174.325L344.886 175.649L343.891 173.925L341.012 175.587L342.007 177.311L339.576 178.714L338.581 176.99L335.616 178.702L336.611 180.426L334.198 181.819L333.203 180.096L330.324 181.758L331.319 183.481L328.888 184.885L327.893 183.161L325.014 184.823L326.01 186.547L323.579 187.95L322.584 186.226L319.757 187.859L320.752 189.582L318.321 190.986L317.326 189.262L314.447 190.924L315.442 192.648L313.029 194.041L312.034 192.317L309.155 193.979L310.15 195.703L307.72 197.107L306.724 195.383L303.846 197.045L304.841 198.769L302.41 200.172L301.415 198.448L298.536 200.11L299.531 201.834L297.101 203.237L296.106 201.514L293.227 203.176L294.222 204.9L291.809 206.293L290.813 204.569L287.934 206.231L288.93 207.955L286.447 209.388L285.452 207.664L282.573 209.326L283.569 211.05L281.103 212.473L280.108 210.75L277.229 212.412L278.225 214.136L275.794 215.539L274.799 213.815L271.92 215.477L272.915 217.201L270.502 218.594L269.507 216.87L266.662 218.513L267.658 220.237L265.227 221.64L264.232 219.916L261.353 221.578L262.348 223.302L259.917 224.705L258.922 222.981L255.974 224.683L256.97 226.407L254.539 227.81L253.544 226.087L250.803 227.669L251.798 229.393L249.385 230.786L248.28 228.873L245.401 230.535L246.456 232.362L244.026 233.766L242.971 231.938L240.092 233.6L241.147 235.428L238.647 236.871L237.582 235.026L234.703 236.688L235.768 238.533L233.338 239.936L232.273 238.092L229.394 239.754L230.459 241.598L228.046 242.992L226.971 241.13L224.092 242.792L225.167 244.654L222.736 246.057L221.661 244.195L218.782 245.857L219.857 247.719L217.427 249.122L216.342 247.243L213.118 249.105L213.865 250.397L174.216 273.288L173.221 271.565L171.342 272.649L172.337 274.373L170.027 275.707L169.032 273.983L167.084 275.108L168.079 276.832L165.769 278.165L164.774 276.441L162.843 277.556L163.839 279.28L162.891 279.827L164.095 281.913Z" fill="black"/>
<path d="M257.454 230.312L254.006 232.303L263.76 249.196L267.207 247.206L257.454 230.312Z" fill="black"/>
<path d="M305.721 202.443L315.475 219.337L318.923 217.347L317.609 215.071L309.169 200.453L305.721 202.443Z" fill="black"/>
<path d="M252.282 233.297L231.734 245.16L241.488 262.054L262.036 250.19L252.282 233.297Z" fill="black"/>
<path d="M242.605 296.278L257.823 322.635L261.413 319.459C261.933 319 262.278 318.375 262.39 317.69C262.501 317.006 262.373 316.304 262.026 315.703L248.192 291.742L242.605 296.278Z" fill="black"/>
<path d="M319.918 219.071L249.585 259.678C250.3 260.092 250.925 260.646 251.422 261.306L321.083 221.088L319.918 219.071Z" fill="black"/>
<path d="M448.915 125.449L454.986 135.965L469.725 127.455L463.653 116.94L448.915 125.449ZM463.993 125.57L456.081 130.138C455.774 130.315 455.41 130.363 455.069 130.271C454.727 130.18 454.436 129.956 454.259 129.65C454.082 129.343 454.034 128.979 454.126 128.638C454.217 128.296 454.441 128.005 454.747 127.828L462.659 123.26C462.966 123.083 463.33 123.035 463.671 123.127C464.013 123.218 464.304 123.442 464.481 123.748C464.658 124.054 464.706 124.418 464.614 124.76C464.523 125.102 464.299 125.393 463.993 125.57Z" fill="black"/>
<path d="M223.1 312.135L218.676 315.7L232.255 340.453C232.478 340.838 232.783 341.17 233.15 341.423C233.516 341.676 233.934 341.845 234.374 341.916C234.813 341.988 235.263 341.961 235.691 341.838C236.119 341.714 236.514 341.497 236.848 341.203L238.855 339.423L223.1 312.135Z" fill="black"/>
<path d="M320.328 215.801L321.144 217.214L322.806 220.093L326.185 218.142L325.09 216.246L327.521 214.843L328.615 216.739L331.494 215.077L330.399 213.181L332.813 211.787L333.908 213.684L336.804 212.012L335.709 210.115L338.122 208.722L339.217 210.618L342.096 208.956L341.001 207.06L343.432 205.657L344.527 207.553L347.405 205.891L346.311 203.995L348.741 202.591L349.836 204.487L352.715 202.825L351.62 200.929L354.033 199.536L355.128 201.432L358.024 199.76L356.929 197.864L359.343 196.47L360.438 198.367L364.437 196.058L361.959 191.765L320.328 215.801Z" fill="black"/>
<path d="M241.041 297.548L224.637 310.857L240.362 338.094L256.298 323.975L241.041 297.548Z" fill="black"/>
<path d="M360.902 170.586L310.893 199.459L319.333 214.077L360.963 190.042L360.954 190.024L369.331 185.187L360.902 170.586Z" fill="black"/>
<path d="M376.583 166.933L374.244 162.882L371.883 164.245L372.43 165.193L369.999 166.597L369.452 165.649L367.073 167.022L367.62 167.97L365.19 169.374L364.642 168.425L362.625 169.59L372.887 187.363L374.904 186.198L373.779 184.25L376.21 182.847L377.334 184.795L379.713 183.421L378.588 181.473L381.019 180.07L382.144 182.018L384.505 180.655L382.505 177.19L382.539 177.17L376.618 166.913L376.583 166.933Z" fill="black"/>
<path d="M256.974 187.997L269.166 209.114L280.595 202.516C280.783 202.407 280.948 202.263 281.08 202.091C281.212 201.918 281.309 201.722 281.365 201.512C281.421 201.303 281.435 201.084 281.407 200.869C281.379 200.654 281.308 200.447 281.2 200.259L270.63 181.951C270.522 181.764 270.377 181.599 270.205 181.467C270.033 181.335 269.836 181.238 269.627 181.182C269.417 181.126 269.199 181.111 268.984 181.14C268.769 181.168 268.561 181.238 268.373 181.347L256.974 187.997Z" fill="black"/>
<path d="M123.333 268.281L115.27 270.638C115.005 270.791 114.811 271.043 114.732 271.339C114.653 271.634 114.694 271.95 114.848 272.215L125.387 290.47C125.535 290.726 125.779 290.913 126.064 290.99C126.35 291.066 126.654 291.026 126.91 290.878L133.017 285.054L123.333 268.281Z" fill="black"/>
<path d="M189.019 311.15L193.104 308.792C192.794 310.552 192.909 312.362 193.439 314.069C194.273 316.23 197.991 317.256 197.991 317.256C197.139 317.833 196.118 318.109 195.091 318.039C194.064 317.97 193.09 317.56 192.323 316.874C191.387 316.22 190.606 315.368 190.035 314.379C189.464 313.39 189.117 312.288 189.019 311.15Z" fill="black"/>
<path d="M157.643 317.358C159.297 316.361 161.273 316.045 163.155 316.474L164.025 305.56L239.236 262.136L229.98 246.105L163.336 284.581L162.341 282.858C162.341 282.858 152.383 286.033 141.825 289.761C140.851 290.622 134.344 294.08 134.344 294.08L137.021 298.717L134.521 300.161L147.718 323.019C149.728 321.882 153.863 319.609 157.643 317.358Z" fill="black"/>
<path d="M201.647 286.205L216.506 311.942L247.549 287.124C247.632 286.984 247.678 286.825 247.68 286.662C247.683 286.499 247.643 286.338 247.565 286.196L239.055 271.457L241.873 266.704L240.291 263.963L201.647 286.205Z" fill="black"/>
<path d="M199.923 287.2L165.963 306.806L165.091 317.239C166.681 317.944 168.035 319.091 168.992 320.544C169.949 321.996 170.468 323.693 170.488 325.432C170.359 328.632 168.179 361.242 167.304 368.804C167.28 368.99 167.301 369.18 167.365 369.357C167.43 369.534 167.536 369.692 167.675 369.819C167.814 369.947 167.981 370.039 168.163 370.088C168.344 370.136 168.535 370.141 168.719 370.101C175.221 368.697 181.604 366.787 187.808 364.389C189.383 363.794 190.85 362.947 192.153 361.881C192.251 361.781 192.328 361.662 192.376 361.53C192.424 361.398 192.444 361.258 192.433 361.118C192.422 360.978 192.381 360.842 192.313 360.72C192.244 360.597 192.15 360.491 192.037 360.408C190.954 359.465 190.152 358.242 189.721 356.872C188.57 353.606 189.361 343.749 189.301 342.014C189.28 341.061 190.528 340.156 191.813 339.437C191.998 339.335 192.155 339.19 192.272 339.014C192.39 338.839 192.464 338.638 192.489 338.429C192.514 338.219 192.489 338.007 192.415 337.809C192.342 337.611 192.223 337.433 192.068 337.291C191.518 336.539 191.012 335.757 190.554 334.947C190.008 332.916 189.824 330.805 190.01 328.71C190.135 328.242 190.366 327.808 190.686 327.444C191.006 327.08 191.406 326.795 191.855 326.611L214.523 313.523L214.972 313.264L199.923 287.2ZM209.043 311.515C208.805 312.441 208.384 313.31 207.805 314.071C207.225 314.832 206.5 315.469 205.671 315.945L196.189 321.419C195.36 321.904 194.443 322.221 193.49 322.351C192.538 322.481 191.57 322.421 190.64 322.176C189.711 321.931 188.839 321.506 188.075 320.923C187.31 320.341 186.668 319.613 186.186 318.782C185.658 317.824 185.364 316.754 185.328 315.661C185.292 314.567 185.514 313.481 185.977 312.49C186.508 310.989 187.523 309.707 188.862 308.847L198.343 303.374C199.738 302.619 201.355 302.386 202.906 302.716C203.975 302.885 205 303.265 205.921 303.834C206.842 304.404 207.64 305.151 208.268 306.033C209.24 307.686 209.519 309.657 209.043 311.515Z" fill="black"/>
<path d="M151.346 252.109L144.812 255.881L154.556 272.757L161.089 268.985L151.346 252.109Z" fill="black"/>
<path d="M160.524 250.809L154.784 254.123L160.736 264.432L166.476 261.117L160.524 250.809Z" fill="black"/>
<path d="M136.774 251.075L131.413 254.17C130.819 254.513 130.385 255.078 130.207 255.741C130.03 256.404 130.123 257.11 130.466 257.705L133.263 262.549L125.057 267.286L134.741 284.059L152.772 273.649L140.292 252.032C139.95 251.44 139.389 251.008 138.73 250.829C138.071 250.649 137.368 250.738 136.774 251.075Z" fill="black"/>
<path d="M168.996 243.068L161.032 247.666L169.282 261.957L177.247 257.359L168.996 243.068Z" fill="black"/>
<path d="M210.9 219.426L201.402 224.91L209.344 238.666L218.842 233.183L210.9 219.426Z" fill="black"/>
<path d="M267.395 210.068L219.571 230.462L213.619 220.153L255.203 188.951L267.395 210.068Z" fill="black"/>
<path d="M34.6147 360.049L68.6824 410.138C73.5872 402.709 132.648 339.075 144.759 326.015L131.96 303.846L34.6147 360.049ZM85.1073 365.535L60.0081 380.026C59.6948 380.16 59.3433 380.174 59.02 380.066C58.6967 379.959 58.4241 379.736 58.2537 379.441C58.0833 379.146 58.027 378.799 58.0954 378.465C58.1637 378.131 58.352 377.834 58.6247 377.63L83.7239 363.139C84.0372 363.005 84.3888 362.99 84.7121 363.098C85.0354 363.206 85.308 363.428 85.4783 363.723C85.6487 364.018 85.7051 364.365 85.6367 364.699C85.5683 365.033 85.38 365.33 85.1073 365.535ZM84.8951 355.015L55.4001 372.044C55.0777 372.183 54.7156 372.198 54.3826 372.088C54.0496 371.977 53.7688 371.748 53.5933 371.444C53.4179 371.14 53.36 370.782 53.4307 370.439C53.5014 370.095 53.6957 369.789 53.9769 369.579L83.4718 352.55C83.7943 352.412 84.1563 352.396 84.4893 352.507C84.8223 352.618 85.1031 352.847 85.2786 353.151C85.4541 353.454 85.5119 353.812 85.4412 354.156C85.3705 354.5 85.1762 354.805 84.8951 355.015ZM85.552 343.971L50.7821 364.046C50.4483 364.238 50.0517 364.291 49.6794 364.191C49.3072 364.091 48.9898 363.848 48.7971 363.514C48.6044 363.18 48.5522 362.783 48.6519 362.411C48.7517 362.039 48.9952 361.722 49.329 361.529L84.0989 341.454C84.4327 341.262 84.8293 341.21 85.2016 341.309C85.5738 341.409 85.8912 341.653 86.0839 341.986C86.2766 342.32 86.3288 342.717 86.229 343.089C86.1293 343.461 85.8858 343.779 85.552 343.971Z" fill="black"/>
</svg>
