<svg width="512" height="160" viewBox="0 0 512 160" fill="none" xmlns="http://www.w3.org/2000/svg">
<path d="M73.4693 50.9493C71.5326 50.9493 69.7449 49.6086 69 47.6719L78.8324 95.0462C78.8324 95.3441 79.1304 95.4931 79.2793 95.4931H88.2179C88.5158 95.4931 90.6015 95.1951 90.6015 95.0462L85.6853 51.0983H73.4693V50.9493Z" fill="black"/>
<path d="M216.933 85.2149H250.601V60.3359H216.933V85.2149Z" fill="black"/>
<path d="M197.566 50.502L215.294 58.3977H220.955L212.762 50.502H197.566Z" fill="black"/>
<path d="M274.587 64.0605C268.777 70.9134 273.395 79.405 274.736 80.7458C274.885 80.8948 275.034 81.6397 274.736 81.6397C268.926 81.1928 266.542 72.7011 266.542 64.0605H274.587Z" fill="black"/>
<path d="M442.929 39.0319H439.503V31.2852H442.929C443.227 31.2852 443.376 31.4341 443.376 31.7321V38.585C443.376 38.734 443.078 39.0319 442.929 39.0319Z" fill="black"/>
<path d="M391.979 28.9004V41.4144H436.97C437.268 41.4144 437.417 41.2654 437.417 40.9674V29.4963C437.417 29.1983 437.268 29.0494 436.97 29.0494H391.979V28.9004Z" fill="black"/>
<path d="M203.525 35.7539C202.929 35.9029 202.631 36.4988 202.631 37.0947C202.631 37.6906 203.078 38.2865 203.674 38.4355L203.525 35.7539Z" fill="black"/>
<path d="M204.419 35.7539V38.4355C205.015 38.2865 205.462 37.6906 205.462 37.0947C205.462 36.3498 205.015 35.9029 204.419 35.7539Z" fill="black"/>
<path d="M203.525 41.5645C202.929 41.7134 202.482 42.3093 202.482 42.9052C202.482 43.5011 202.929 44.097 203.525 44.246V41.5645Z" fill="black"/>
<path d="M204.568 41.5645V44.246C205.164 44.097 205.611 43.5011 205.611 42.9052C205.462 42.3093 205.164 41.7134 204.568 41.5645Z" fill="black"/>
<path d="M228.106 46.9283C227.808 46.7793 227.51 46.7793 227.063 46.7793C225.425 46.7793 224.084 48.1201 224.084 49.7588C224.084 50.8016 224.68 51.6955 225.425 52.2914L228.106 46.9283Z" fill="black"/>
<path d="M229 47.5234L226.467 52.5886C226.616 52.5886 226.914 52.7376 227.063 52.7376C228.702 52.7376 230.043 51.3968 230.043 49.7581C230.192 48.8642 229.745 47.9704 229 47.5234Z" fill="black"/>
<path d="M325.983 37.541C325.834 37.541 325.834 37.541 325.685 37.541C324.345 37.541 323.153 38.5838 323.153 39.9246C323.153 40.8185 323.6 41.5634 324.345 42.0103L325.983 37.541Z" fill="black"/>
<path d="M326.877 37.9883L325.387 42.4576C325.536 42.4576 325.536 42.4576 325.685 42.4576C327.026 42.4576 328.218 41.4147 328.218 40.0739C328.218 39.0311 327.622 38.2862 326.877 37.9883Z" fill="black"/>
<path d="M381.998 49.1621L316.449 49.609L296.188 59.7394L305.424 75.3818L340.583 75.6798V67.3372C340.583 65.5494 341.775 64.0597 343.413 63.6128L382.147 52.7375C382.296 52.7375 382.445 52.4396 382.445 52.2906V49.609C382.594 49.3111 382.296 49.1621 381.998 49.1621Z" fill="black"/>
<path d="M221.402 93.5563C220.955 93.5563 220.508 93.7053 220.359 94.1522L199.503 123.054C199.056 124.096 199.354 125.586 200.397 126.033L223.935 137.355C224.084 137.355 224.084 137.504 224.233 137.355C224.382 137.206 224.531 137.057 224.531 136.61C224.531 136.312 224.68 134.227 225.127 131.545C225.425 130.353 225.723 129.162 226.319 127.821L241.663 94.0032C241.812 93.5563 241.514 93.1094 241.067 93.1094L221.402 93.5563Z" fill="black"/>
<path d="M230.192 137.505C229.894 135.718 230.192 133.781 230.937 131.993L250.602 87.5984C250.751 87.3004 250.602 86.8535 250.155 86.8535L217.082 87.3004V89.6841C217.082 92.0677 210.229 98.3247 209.037 100.41L193.097 121.565C190.713 126.034 191.905 129.61 195.183 131.844L228.553 146.742C229.894 147.338 231.533 146.146 231.235 144.656L230.192 137.505ZM227.808 128.865C227.361 129.908 226.914 131.099 226.765 132.142C226.319 134.675 226.17 136.76 226.17 136.76C226.319 137.505 225.872 138.548 225.127 138.995C224.68 139.293 224.382 139.442 223.935 139.442C223.637 139.442 223.19 139.293 222.892 139.144L199.354 127.822C197.417 126.779 196.672 124.246 197.715 122.161L219.168 92.3656C219.466 92.0677 219.764 91.7697 220.211 91.7697L243.749 91.4718C244.196 91.4718 244.494 91.9187 244.345 92.3656L227.808 128.865Z" fill="black"/>
<path d="M252.538 84.1721L252.24 61.6767C252.24 60.9318 252.836 60.3359 253.581 60.3359H294.251L301.849 73.8927C302.743 75.5315 302.892 77.6171 302.147 79.2559C301.253 81.3415 299.615 83.1292 296.933 84.9169C296.635 85.0659 296.188 85.2149 295.89 85.2149H253.73C252.985 85.2149 252.538 84.768 252.538 84.1721ZM255.518 83.2782H295.592C297.38 82.0864 298.423 81.3415 299.317 80.0007C300.508 78.0641 300.508 75.6804 299.466 73.7438L292.613 62.2726H255.369C254.624 62.2726 254.028 62.8685 254.028 63.6134L254.326 82.3843C254.475 82.8313 254.922 83.2782 255.518 83.2782Z" fill="black"/>
<path d="M180.881 25.0284C180.434 24.8794 179.987 24.7305 179.54 24.7305C178.05 24.7305 176.709 25.9223 176.709 27.561C176.709 28.3059 177.007 28.9018 177.454 29.4977L180.881 25.0284Z" fill="black"/>
<path d="M181.626 20.2598H177.603C175.22 20.2598 173.432 22.1965 173.432 24.4311V36.7961H75.7039C72.1285 36.7961 69.298 39.4776 69.298 42.7551V43.649C69.298 46.9264 72.1285 49.608 75.7039 49.608H185.946V24.5801C185.946 22.1965 184.009 20.2598 181.626 20.2598ZM76.7468 46.7775C74.8101 46.7775 73.3203 45.4367 73.3203 43.649C73.3203 41.8613 74.8101 40.5205 76.7468 40.5205C78.6834 40.5205 80.1732 41.8613 80.1732 43.649C80.1732 45.4367 78.5345 46.7775 76.7468 46.7775ZM179.54 31.284C177.454 31.284 175.816 29.6452 175.816 27.5596C175.816 25.4739 177.454 23.8352 179.54 23.8352C181.626 23.8352 183.264 25.4739 183.264 27.5596C183.264 29.6452 181.626 31.284 179.54 31.284Z" fill="black"/>
<path d="M178.199 29.9439C178.646 30.0929 179.093 30.2418 179.54 30.2418C181.03 30.2418 182.371 29.05 182.371 27.4113C182.371 26.6664 182.073 26.0705 181.626 25.4746L178.199 29.9439Z" fill="black"/>
<path d="M305.425 77.6172V158.064C305.425 159.107 306.318 160.001 307.361 160.001H338.646C339.689 160.001 340.583 159.107 340.583 158.064V77.6172H305.425ZM314.065 150.019C314.065 150.466 313.618 150.913 313.171 150.913C312.724 150.913 312.277 150.466 312.277 150.019V87.4496C312.277 87.0027 312.724 86.5557 313.171 86.5557C313.618 86.5557 314.065 87.0027 314.065 87.4496V150.019ZM324.196 150.019C324.196 150.466 323.749 150.913 323.302 150.913C322.855 150.913 322.408 150.466 322.408 150.019V87.4496C322.408 87.0027 322.855 86.5557 323.302 86.5557C323.749 86.5557 324.196 87.0027 324.196 87.4496V150.019ZM334.475 150.019C334.475 150.466 334.028 150.913 333.581 150.913C333.134 150.913 332.687 150.466 332.687 150.019V87.4496C332.687 87.0027 333.134 86.5557 333.581 86.5557C334.028 86.5557 334.475 87.0027 334.475 87.4496V150.019Z" fill="black"/>
<path d="M229.745 9.08789H221.849V14.0041H229.745V9.08789Z" fill="black"/>
<path d="M389.596 25.3262H379.913V44.842H389.596C389.894 44.842 390.043 44.544 390.043 44.3951V25.9221C390.043 25.6241 389.745 25.3262 389.596 25.3262Z" fill="black"/>
<path d="M378.87 11.7691L374.549 11.9181V0H368.292L360.992 14.7486C360.695 15.4935 359.95 15.7914 359.205 15.7914H230.788H220.508H189.819V8.78957C189.819 7.74674 188.925 6.85289 187.883 6.85289H180.285C179.242 6.85289 178.348 7.74674 178.348 8.78957V18.473H181.626C185.052 18.473 187.883 21.3035 187.883 24.73V48.5661H213.804L223.488 58.3985H293.953L315.704 47.3743H377.976V23.9851V18.0261H379.019C380.806 18.0261 382.147 16.6853 382.147 14.8976C382.147 13.1099 380.657 11.7691 378.87 11.7691ZM203.972 45.2886C202.631 45.2886 201.439 44.2458 201.439 42.905C201.439 41.5642 202.631 40.5214 203.972 40.5214C205.313 40.5214 206.505 41.5642 206.505 42.905C206.505 44.2458 205.462 45.2886 203.972 45.2886ZM203.972 39.4786C202.631 39.4786 201.439 38.4358 201.439 37.095C201.439 35.7542 202.631 34.7114 203.972 34.7114C205.313 34.7114 206.505 35.7542 206.505 37.095C206.505 38.4358 205.462 39.4786 203.972 39.4786ZM227.212 53.6313C224.978 53.6313 223.19 51.8436 223.19 49.7579C223.19 47.6723 224.978 45.8845 227.212 45.8845C229.447 45.8845 231.235 47.6723 231.235 49.7579C231.086 51.8436 229.298 53.6313 227.212 53.6313ZM271.756 25.6238C271.756 27.8585 269.968 29.6462 267.734 29.6462H205.611C203.376 29.6462 201.588 27.8585 201.588 25.6238V22.9423C201.588 20.7076 203.376 18.9199 205.611 18.9199H267.734C269.968 18.9199 271.756 20.7076 271.756 22.9423V25.6238ZM325.685 43.352C323.749 43.352 322.259 41.8622 322.259 39.9255C322.259 37.9888 323.749 36.4991 325.685 36.4991C327.622 36.4991 329.112 37.9888 329.112 39.9255C329.112 41.8622 327.622 43.352 325.685 43.352ZM379.167 16.9832C378.125 16.9832 377.231 16.0894 377.231 15.0466C377.231 14.0037 378.125 13.1099 379.167 13.1099C380.21 13.1099 381.104 14.0037 381.104 15.0466C381.104 16.0894 380.21 16.9832 379.167 16.9832Z" fill="black"/>
<path d="M267.733 20.8574H205.611C204.419 20.8574 203.525 21.7513 203.525 22.9431V25.6247C203.525 26.8165 204.419 27.7103 205.611 27.7103H267.733C268.925 27.7103 269.819 26.8165 269.819 25.6247V22.9431C269.819 21.9003 268.925 20.8574 267.733 20.8574Z" fill="black"/>
</svg>
