<svg width="512" height="512" viewBox="0 0 512 512" fill="none" xmlns="http://www.w3.org/2000/svg">
<path d="M268.041 191.76C268.041 191.76 242.572 205.74 238.377 208.839C234.131 211.969 223.21 225.076 223.21 225.076L218.161 227.991L223.97 238.053L229.177 235.047C229.177 235.047 255.396 225.402 276.611 212.312C278.955 210.866 279.774 207.751 278.398 205.367L271.101 192.728C270.483 191.659 269.161 191.23 268.041 191.76Z" fill="black"/>
<path d="M163.711 259.544L152.246 266.163C152.246 266.163 144.269 267.285 141.623 268.369C139.41 269.273 125.059 277.816 120.454 280.568C119.648 281.033 119.401 282.064 119.867 282.87L127.056 295.08C127.846 296.448 129.578 296.897 130.955 296.125C136.465 293.037 149.093 285.396 150.523 284.15C152.342 282.562 157.883 275.927 157.883 275.927L167.471 269.62L168.963 268.642L163.711 259.544Z" fill="black"/>
<path d="M197.628 238.092L195.002 235.284C194.323 234.554 193.225 234.393 192.366 234.889L184.415 239.457C183.538 239.963 183.121 241.022 183.442 241.982L184.623 245.647L197.666 238.117L197.628 238.092Z" fill="black"/>
<path d="M225.883 241.365L226.925 243.171L229.783 241.521C229.783 241.521 228.066 240.572 225.883 241.365Z" fill="black"/>
<path d="M171.381 272.833L172.423 274.638L169.566 276.288C169.566 276.288 169.602 274.327 171.381 272.833Z" fill="black"/>
<path d="M200.88 238.342L199.005 239.425L183.144 248.349L174.502 253.502L180.656 264.16L213.809 244.785L207.737 234.267L200.863 238.353L200.88 238.342ZM197.878 253.586C195.143 255.165 191.631 254.224 190.052 251.489C188.474 248.754 189.415 245.243 192.149 243.664C194.884 242.085 198.396 243.026 199.974 245.761C201.553 248.495 200.612 252.007 197.878 253.586Z" fill="black"/>
<path d="M193.191 245.468C191.455 246.47 190.862 248.682 191.864 250.417C192.866 252.153 195.078 252.745 196.814 251.743C198.549 250.741 199.142 248.529 198.14 246.794C197.138 245.058 194.926 244.466 193.191 245.468Z" fill="black"/>
<path d="M174.46 286.34L174.408 286.37L182.535 300.447L183.288 300.012C186.002 298.235 188.952 296.461 192.155 294.682L211.476 283.13L235.269 268.715L243.245 264.11L242.466 262.76L234.746 249.267L174.46 286.34Z" fill="black"/>
<path d="M360.733 182.395C360.733 182.395 360.637 182.31 360.589 182.268C360.251 181.926 359.805 181.599 359.314 181.274L358.811 181.051L352.988 180.439L236.569 248.215L244.249 261.638L361.805 187.573C361.922 187.248 361.968 186.964 362.042 186.688C362.208 185.68 362.188 183.986 360.743 182.413L360.733 182.395ZM248.966 250.173L243.687 253.337C243.687 253.337 242.007 253.302 242.62 251.57L247.793 248.466C247.793 248.466 249.561 248.614 248.966 250.173ZM263.619 241.385L258.341 244.55C258.341 244.55 256.661 244.515 257.273 242.782L262.447 239.678C262.447 239.678 264.215 239.826 263.619 241.385ZM278.273 232.598L272.994 235.762C272.994 235.762 271.314 235.727 271.927 233.995L277.1 230.891C277.1 230.891 278.868 231.039 278.273 232.598ZM292.926 223.81L287.648 226.975C287.648 226.975 285.968 226.94 286.581 225.207L291.754 222.103C291.754 222.103 293.522 222.251 292.926 223.81ZM307.58 215.023L302.302 218.187C302.302 218.187 300.622 218.152 301.234 216.42L306.408 213.316C306.408 213.316 308.176 213.464 307.58 215.023ZM322.224 206.218L316.945 209.382C316.945 209.382 315.265 209.347 315.878 207.615L321.051 204.511C321.051 204.511 322.819 204.659 322.224 206.218ZM336.877 197.43L331.599 200.595C331.599 200.595 329.919 200.56 330.531 198.827L335.705 195.723C335.705 195.723 337.473 195.871 336.877 197.43Z" fill="black"/>
<path d="M160.785 320.508C160.785 320.508 166.398 315.211 170.158 320.589C170.158 320.589 175.268 327.012 186.025 318.721C196.771 310.413 193.092 302.907 192.132 301.405C191.171 299.903 189.742 297.549 192.847 295.803C195.935 294.067 169.833 307.314 160.813 320.515L160.785 320.508ZM191.57 308.975C189.106 315.961 177.933 323.369 173.466 320.409C173.466 320.409 166.64 317.735 170.55 312.322C170.55 312.322 173.576 310.599 173.215 311.391C172.628 312.642 175.405 319.313 180.922 316.805C180.922 316.805 174.338 315.441 175.05 310.238C175.05 310.238 175.181 309.088 176.944 308.093L177.791 306.038L187.102 300.102C187.102 300.102 194.025 301.971 191.57 308.975Z" fill="black"/>
<path d="M142.282 356.106L150.453 354.591C151.466 354.403 152.115 353.421 151.909 352.417C150.824 347.177 148.438 331.749 154.661 319.695C155.508 318.085 156.009 316.322 156.3 314.518C156.674 312.292 156.974 309.572 156.595 308.107C156.595 308.107 155.899 305.728 148.497 314.606C148.497 314.606 140.365 325.378 139.963 337.718C139.679 345.969 139.924 351.577 140.103 354.396C140.188 355.515 141.206 356.306 142.31 356.113L142.282 356.106Z" fill="black"/>
<path d="M41.2275 369.083C41.0021 368.652 40.8044 368.228 40.6066 367.805C38.4026 369.007 36.4614 370.058 34.8985 370.914C32.3263 372.328 33.4134 374.576 34.7057 377.219C40.0521 388.179 54.125 414.74 67.6928 420.347C67.6928 420.347 68.5177 422.909 75.6108 417.341C75.6108 417.341 75.6533 417.293 75.7382 417.198C61.6757 408.184 46.9153 380.594 41.1998 369.075L41.2275 369.083Z" fill="black"/>
<path d="M140.519 366.778C143.165 366.747 151.303 366.186 159.051 361.104C159.479 360.834 159.597 360.228 159.326 359.8C159.073 359.362 158.681 358.723 158.263 357.96C150.03 364.022 141.087 364.16 138.579 364.065C138.85 364.657 139.121 365.248 139.353 365.932C139.528 366.439 139.984 366.783 140.519 366.778Z" fill="black"/>
<path d="M240.055 287.246C236.551 283.121 233.686 278.442 231.387 273.528L224.386 277.757C227.552 282.31 230.618 286.851 233.981 291.22L240.045 287.228L240.055 287.246Z" fill="black"/>
<path d="M236.103 270.688L232.427 272.904C235.505 277.344 238.45 281.838 241.458 286.319L242.522 285.611C243.656 284.863 243.99 283.337 243.242 282.203C241.414 279.402 238.143 274.302 236.121 270.678L236.103 270.688Z" fill="black"/>
<path d="M215.81 303.23L232.585 292.166C228.746 288.188 225.712 283.419 223.37 278.39L212.563 284.933L205.997 288.864C209.187 293.661 212.375 298.575 215.782 303.222L215.81 303.23Z" fill="black"/>
<path d="M202.183 291.16C205.36 296.057 208.631 300.993 212.27 305.554L214.843 303.858C210.94 299.567 207.792 294.56 205.203 289.346L202.183 291.16Z" fill="black"/>
<path d="M201.088 291.816L195.932 294.91C197.841 298.015 200.941 304.639 203.945 308.141C204.871 309.219 206.468 309.395 207.638 308.627L210.804 306.541C206.751 302.314 203.532 297.183 201.098 291.834L201.088 291.816Z" fill="black"/>
<path d="M209.38 233.55L217.933 248.363L225.295 244.112L216.743 229.3C216.47 228.826 215.889 228.671 215.416 228.944L209.736 232.223C209.263 232.496 209.107 233.077 209.38 233.55ZM216.391 237.192C215.532 237.688 214.426 237.392 213.93 236.533C213.435 235.674 213.731 234.568 214.59 234.072C215.449 233.576 216.555 233.872 217.051 234.731C217.547 235.59 217.25 236.696 216.391 237.192Z" fill="black"/>
<path d="M165.733 258.796L174.255 273.556L181.617 269.305L173.096 254.545C172.812 254.054 172.176 253.884 171.685 254.167L166.093 257.396C165.602 257.679 165.432 258.315 165.715 258.806L165.733 258.796ZM172.724 262.403C171.865 262.899 170.759 262.602 170.263 261.744C169.767 260.885 170.063 259.779 170.922 259.283C171.781 258.787 172.887 259.083 173.383 259.942C173.879 260.801 173.583 261.907 172.724 262.403Z" fill="black"/>
<path d="M173.079 292.209L172.769 292.926C171.878 294.866 169.953 297.847 170.779 300.128C171.087 300.418 171.36 300.728 171.572 301.096C172.797 303.217 172.071 305.927 169.95 307.152C167.828 308.376 165.119 307.65 163.894 305.529C162.669 303.408 163.395 300.698 165.517 299.474C165.867 299.271 166.241 299.149 166.624 299.044C166.664 298.951 166.871 298.622 166.915 297.685C167.041 295.718 167.336 291.856 167.37 291.672C167.429 291.451 167.54 290.429 167.276 290.254L163.576 292.671L160.408 294.593C159.869 294.834 159.321 295.057 158.789 295.271C154.662 298.284 144.997 306.926 137.288 325.799C137.288 325.799 130.333 334.723 122.865 334.663C122.865 334.663 110.856 332.201 108.568 332.003C107.41 331.9 87.8897 342.258 68.6334 352.628C59.0578 357.782 49.5652 362.959 42.4345 366.842C42.6423 367.283 42.8502 367.724 43.0857 368.172C48.8518 379.779 63.4907 407.159 77.1694 415.669C80 412.516 86.5955 405.155 94.0343 396.583C103.261 385.927 113.801 373.414 120.082 364.739C120.082 364.739 131.027 352.646 137.377 361.742L138.28 361.969C139.345 362.032 146.939 362.392 154.512 358.02C155.528 357.433 156.477 356.769 157.423 356.059C154.358 349.414 150.58 336.029 159.616 320.831C163.561 314.183 170.543 308.422 180.851 301.582L173.949 289.627C173.767 290.526 173.47 291.469 173.149 292.169L173.079 292.209ZM158.651 306.569C158.784 307.731 158.724 309.286 158.543 310.956C158.244 313.84 157.702 316.747 156.36 319.322C149.798 331.922 152.343 348.03 153.324 352.886C153.57 354.123 153.248 355.103 152.161 355.731C151.863 355.903 151.553 356.012 151.222 356.086L142.519 357.652C141.676 357.811 140.811 357.609 140.154 357.077C139.478 356.555 139.279 356.25 139.237 355.409C139.079 352.625 138.847 346.636 139.169 337.802C139.678 324.676 148.169 313.393 148.531 312.926C151.333 309.602 153.443 307.426 154.939 306.375C155.818 305.751 157.189 304.726 157.881 305.074C158.367 305.308 158.539 306.213 158.679 306.577L158.651 306.569Z" fill="black"/>
<path d="M159.265 292.775L162.773 290.633L166.454 288.507C166.232 288.122 165.959 287.648 165.675 287.158C165.513 286.877 164.739 285.455 164.739 285.455C164.179 284.445 163.701 283.576 163.015 282.874L162.851 282.711C162.68 282.576 162.533 282.404 162.404 282.221L161.475 282.757L157.256 289.821C157.256 289.821 156.22 290.537 155.744 291.372C155.268 292.208 156.684 293.284 156.684 293.284C157.638 293.762 159.248 292.785 159.248 292.785L159.265 292.775Z" fill="black"/>
<path d="M169.229 281.086C168.245 279.06 166.283 279.304 166.283 279.304C163.035 280.479 164.238 281.187 164.238 281.187L164.508 281.451C165.638 282.599 166.244 283.932 167.026 285.327C167.43 286.028 167.843 286.865 168.195 287.433C169.125 288.883 168.533 291.258 168.533 291.258C168.533 291.258 167.697 295.761 167.56 297.71C167.423 299.659 166.352 299.787 166.352 299.787C166.352 299.787 165.8 299.965 165.635 300.084C165.635 300.084 165.635 300.084 165.6 300.104C163.97 301.045 163.407 303.147 164.348 304.777C165.289 306.407 167.768 307.22 169.416 306.268C171.064 305.317 171.609 303.225 170.668 301.595C170.456 301.227 170.183 300.917 169.868 300.655C169.508 299.788 169.642 298.845 169.753 297.823C170.02 295.331 171.183 292.65 171.794 291.198C172.282 290.099 172.722 288.513 172.647 287.574C172.581 286.771 171.789 286.574 171.789 286.574C171.789 286.574 170.194 283.123 169.211 281.097L169.229 281.086Z" fill="black"/>
<path d="M156.238 294.172C155.11 293.351 154.208 292.072 154.888 290.861C155.356 290.053 156.142 289.39 156.515 289.104L158.336 286.066L154.345 289.679C154.345 289.679 151.688 290.582 152.731 293.158C152.731 293.158 153.491 295.081 155.291 294.555C155.745 294.41 156.083 294.308 156.341 294.229C156.314 294.222 156.269 294.225 156.231 294.2L156.238 294.172Z" fill="black"/>
<path d="M461.806 111.886L230.833 242.854L228.273 244.332L231.026 249.1L233.721 247.451L352.559 178.279L358.399 178.881L465.146 117.671C465.882 117.246 466.152 116.295 465.727 115.559L463.935 112.456C463.51 111.72 462.57 111.468 461.834 111.893L461.806 111.886Z" fill="black"/>
<path d="M219.236 249.527L222.131 254.541L229.53 249.989L226.757 245.185L219.236 249.527Z" fill="black"/>
<path d="M218.131 250.166L171.338 277.089L168.393 278.789C169.029 279.123 169.662 279.692 170.128 280.662C170.79 282.01 171.813 283.943 172.355 285.126L173.337 284.559L221.028 255.225L218.103 250.159L218.131 250.166ZM186.501 272.868L185.337 270.853L217.996 251.997L219.16 254.013L186.501 272.868Z" fill="black"/>
</svg>
