<svg width="512" height="160" viewBox="0 0 512 160" fill="none" xmlns="http://www.w3.org/2000/svg">
<path d="M299.358 30.5061C299.358 30.5061 270.311 29.8786 265.129 30.4656C259.886 31.0527 243.875 36.9431 243.875 36.9431H238.045V48.5619H244.057C244.057 48.5619 271.586 53.3188 296.504 52.59C299.256 52.5091 301.524 50.2217 301.524 47.4688V32.8744C301.524 31.6397 300.592 30.6073 299.358 30.5061Z" fill="black"/>
<path d="M175.114 37.0437H161.875C161.875 37.0437 154.406 34.0276 151.572 33.643C149.204 33.3192 132.504 33.5418 127.14 33.6228C126.209 33.6228 125.48 34.392 125.48 35.3231L125.602 49.4925C125.602 51.0713 126.877 52.3263 128.456 52.3466C134.772 52.4275 149.528 52.1239 151.39 51.7596C153.758 51.294 161.875 48.3184 161.875 48.3184L173.332 47.6505L175.114 47.5492V37.0437Z" fill="black"/>
<path d="M215.212 35.4248L214.341 31.6801C214.119 30.7085 213.248 30.0202 212.256 30.0202L203.087 30C202.075 30 201.184 30.7085 200.982 31.7003L200.172 35.4653H215.232L215.212 35.4248Z" fill="black"/>
<path d="M238.045 52.3867V54.4716H241.344C241.344 54.4716 240.332 52.7916 238.045 52.3867Z" fill="black"/>
<path d="M175.112 52.3867V54.4716H171.812C171.812 54.4716 172.825 52.7916 175.112 52.3867Z" fill="black"/>
<path d="M217.904 37.2669H215.738L197.541 37.0645L187.48 37.2061V49.5132L225.879 49.3108V37.1657L217.884 37.2669H217.904ZM207.682 48.9667C204.524 48.9667 201.953 46.396 201.953 43.2382C201.953 40.0805 204.524 37.5098 207.682 37.5098C210.84 37.5098 213.41 40.0805 213.41 43.2382C213.41 46.396 210.84 48.9667 207.682 48.9667Z" fill="black"/>
<path d="M207.682 39.5957C205.678 39.5957 204.059 41.2151 204.059 43.219C204.059 45.223 205.678 46.8423 207.682 46.8423C209.686 46.8423 211.305 45.223 211.305 43.219C211.305 41.2151 209.686 39.5957 207.682 39.5957Z" fill="black"/>
<path d="M171.024 65.6256H170.963V81.8798H171.833C175.072 81.6977 178.513 81.6369 182.177 81.6977L204.686 81.3535L232.498 80.7665H241.708V79.2079L241.769 63.6621L171.024 65.6256Z" fill="black"/>
<path d="M384.314 68.7443C384.314 68.7443 384.273 68.6228 384.253 68.5621C384.131 68.0965 383.909 67.5905 383.646 67.0642L383.322 66.6189L378.585 63.1777L243.875 63.6635L243.814 79.1284L382.654 73.7643C382.917 73.5416 383.099 73.3189 383.301 73.1165C383.949 72.3271 384.779 70.8494 384.314 68.7645V68.7443ZM253.632 71.5579L247.478 71.6591C247.478 71.6591 246.041 70.7887 247.438 69.5944L253.47 69.4932C253.47 69.4932 254.927 70.5053 253.632 71.5579ZM270.716 71.2745L264.562 71.3757C264.562 71.3757 263.125 70.5053 264.522 69.311L270.554 69.2098C270.554 69.2098 272.011 70.2219 270.716 71.2745ZM287.8 70.9911L281.647 71.0923C281.647 71.0923 280.209 70.2219 281.606 69.0277L287.638 68.9264C287.638 68.9264 289.096 69.9385 287.8 70.9911ZM304.884 70.7077L298.731 70.8089C298.731 70.8089 297.294 69.9385 298.69 68.7443L304.722 68.6431C304.722 68.6431 306.18 69.6552 304.884 70.7077ZM321.968 70.4243L315.815 70.5256C315.815 70.5256 314.378 69.6552 315.774 68.4609L321.807 68.3597C321.807 68.3597 323.264 69.3718 321.968 70.4243ZM339.053 70.1207L332.899 70.2219C332.899 70.2219 331.462 69.3515 332.859 68.1572L338.891 68.056C338.891 68.056 340.348 69.0681 339.053 70.1207ZM356.137 69.8373L349.983 69.9385C349.983 69.9385 348.546 69.0681 349.943 67.8739L355.975 67.7727C355.975 67.7727 357.432 68.7847 356.137 69.8373Z" fill="black"/>
<path d="M142.098 88.3786C142.098 88.3786 149.607 86.5973 150.174 93.1354C150.174 93.1354 151.389 101.252 164.85 99.4509C178.31 97.6291 178.877 89.2894 178.796 87.5082C178.715 85.7269 178.655 82.974 182.217 83.0145C185.759 83.0549 156.53 81.4761 142.118 88.3988L142.098 88.3786ZM174.525 93.7831C168.898 98.6007 155.518 99.4306 153.129 94.6333C153.129 94.6333 148.555 88.9048 154.648 86.1722C154.648 86.1722 158.129 86.1924 157.421 86.6985C156.287 87.4879 155.356 94.6535 161.388 95.2406C161.388 95.2406 156.368 90.7671 159.587 86.6175C159.587 86.6175 160.275 85.6864 162.299 85.7066L164.06 84.3504L175.092 83.8646C175.092 83.8646 180.152 88.9453 174.525 93.7831Z" fill="black"/>
<path d="M108.274 109.955L116.108 112.728C117.079 113.072 118.132 112.546 118.456 111.574C120.136 106.493 125.783 91.9393 137.2 84.6117C138.738 83.6401 140.054 82.3649 141.208 80.9479C142.645 79.2071 144.264 77.0007 144.669 75.5433C144.669 75.5433 145.256 73.1345 134.406 77.1222C134.406 77.1222 121.978 82.3851 115.46 92.8704C111.088 99.8741 108.497 104.854 107.242 107.384C106.756 108.396 107.242 109.59 108.294 109.975L108.274 109.955Z" fill="black"/>
<path d="M14.2705 70.6659C14.2907 70.1801 14.3312 69.7145 14.3717 69.249C11.8617 69.1882 9.65534 69.1275 7.87405 69.087C4.93898 69.0263 4.7568 71.5161 4.55438 74.4511C3.70422 86.6165 2.61116 116.656 11.5581 128.295C11.5581 128.295 10.9913 130.926 19.918 129.651C19.918 129.651 19.9787 129.631 20.1002 129.59C12.4285 114.753 13.4406 83.479 14.2503 70.6457L14.2705 70.6659Z" fill="black"/>
<path d="M101.412 118.316C103.719 119.611 111.047 123.194 120.298 122.668C120.804 122.648 121.208 122.182 121.188 121.676C121.188 121.17 121.168 120.421 121.188 119.551C111.027 120.684 103.213 116.332 101.088 114.996C101.027 115.644 100.967 116.292 100.825 117C100.724 117.526 100.946 118.053 101.412 118.316Z" fill="black"/>
<path d="M227.378 99.2079C226.407 93.8843 226.265 88.3987 226.73 82.9941L218.553 83.1561C219.018 88.6821 219.403 94.1474 220.132 99.6128L227.378 99.1877V99.2079Z" fill="black"/>
<path d="M232.235 82.8926L227.943 82.9735C228.389 88.3579 228.692 93.722 229.057 99.1064L230.332 99.0254C231.688 98.9444 232.741 97.7906 232.66 96.4344C232.478 93.0945 232.194 87.0422 232.255 82.8926H232.235Z" fill="black"/>
<path d="M198.39 100.927L218.45 99.733C217.114 94.3689 216.871 88.7214 217.357 83.1953L204.726 83.4585L197.074 83.5799C197.439 89.3286 197.742 95.1785 198.37 100.907L198.39 100.927Z" fill="black"/>
<path d="M192.623 83.6603C192.927 89.49 193.291 95.4006 194.161 101.17L197.238 100.987C196.003 95.3197 195.781 89.409 196.145 83.5996L192.623 83.6603Z" fill="black"/>
<path d="M191.348 83.6816L185.336 83.7828C185.437 87.4264 184.81 94.7135 185.66 99.2477C185.923 100.644 187.218 101.596 188.615 101.515L192.4 101.292C191.004 95.6041 190.781 89.5518 191.348 83.7019V83.6816Z" fill="black"/>
<path d="M227.66 37.3681V54.4725H236.162V37.3681C236.162 36.8216 235.737 36.3965 235.19 36.3965H228.632C228.085 36.3965 227.66 36.8216 227.66 37.3681ZM231.911 44.0277C230.919 44.0277 230.109 43.218 230.109 42.2262C230.109 41.2343 230.919 40.4246 231.911 40.4246C232.903 40.4246 233.713 41.2343 233.713 42.2262C233.713 43.218 232.903 44.0277 231.911 44.0277Z" fill="black"/>
<path d="M177.237 37.4093V54.453H185.739V37.4093C185.739 36.8425 185.273 36.377 184.706 36.377H178.249C177.682 36.377 177.217 36.8425 177.217 37.4093H177.237ZM181.488 44.0284C180.496 44.0284 179.686 43.2187 179.686 42.2269C179.686 41.235 180.496 40.4253 181.488 40.4253C182.48 40.4253 183.289 41.235 183.289 42.2269C183.289 43.2187 182.48 44.0284 181.488 44.0284Z" fill="black"/>
<path d="M166.894 70.0187L166.266 70.4843C164.526 71.7191 161.368 73.3384 160.943 75.727C161.064 76.1318 161.145 76.5366 161.145 76.9617C161.145 79.411 159.161 81.3947 156.712 81.3947C154.263 81.3947 152.279 79.411 152.279 76.9617C152.279 74.5124 154.263 72.5287 156.712 72.5287C157.117 72.5287 157.502 72.6097 157.886 72.7109C157.967 72.6502 158.311 72.468 158.817 71.6786C159.91 70.039 162.097 66.8408 162.218 66.6991C162.38 66.5371 162.987 65.7072 162.846 65.4238L158.433 65.6667L154.729 65.7477C154.141 65.687 153.554 65.606 152.988 65.525C147.907 66.0716 135.215 68.7233 119.103 81.2125C119.103 81.2125 108.617 85.4633 102.181 81.6781C102.181 81.6781 93.0109 73.5408 91.1284 72.2251C90.177 71.5571 68.0931 70.7677 46.2319 70.12C35.3619 69.7961 24.5528 69.5329 16.4358 69.3305C16.3953 69.8163 16.3548 70.3021 16.3345 70.8082C15.5249 83.7428 14.5128 114.774 22.1035 128.983C26.1316 127.668 35.5239 124.591 46.2521 120.887C59.5713 116.272 74.9551 110.705 84.732 106.333C84.732 106.333 100.258 101.333 101.209 112.385L101.877 113.033C102.768 113.62 109.164 117.729 117.908 117.729C119.083 117.729 120.236 117.628 121.41 117.486C122.078 110.199 125.499 96.7178 140.924 88.0745C147.664 84.2893 156.591 82.7914 168.938 82.0222V68.2172C168.331 68.9054 167.602 69.5734 166.975 70.0187H166.894ZM147.219 75.2412C146.753 76.314 145.923 77.6297 144.931 78.9859C143.231 81.334 141.308 83.5808 138.859 85.1395C126.876 92.7707 121.026 107.993 119.447 112.689C119.042 113.883 118.273 114.571 117.018 114.571C116.674 114.571 116.35 114.51 116.026 114.409L107.707 111.413C106.897 111.13 106.249 110.523 105.946 109.733C105.622 108.944 105.601 108.58 105.986 107.831C107.241 105.341 110.034 100.037 114.73 92.548C121.734 81.4352 134.729 75.9091 135.276 75.6865C139.365 74.2088 142.28 73.3789 144.102 73.217C145.174 73.1158 146.875 72.9133 147.3 73.5611C147.603 74.0064 147.3 74.8768 147.239 75.2614L147.219 75.2412Z" fill="black"/>
<path d="M154.648 63.6017L158.757 63.5005H163.008C163.008 63.0552 163.008 62.5087 163.008 61.9419C163.008 61.618 163.049 59.9987 163.049 59.9987C163.069 58.8449 163.089 57.853 162.846 56.9017L162.785 56.679C162.705 56.4766 162.664 56.2539 162.644 56.0312H161.571L154.385 60.0391C154.385 60.0391 153.13 60.1404 152.3 60.6262C151.47 61.112 152.158 62.7516 152.158 62.7516C152.745 63.6422 154.628 63.6017 154.628 63.6017H154.648Z" fill="black"/>
<path d="M169.121 58.4595C169.283 56.2127 167.461 55.4435 167.461 55.4435C164.06 54.8362 164.749 56.0507 164.749 56.0507L164.85 56.4151C165.255 57.9737 165.113 59.4311 165.093 61.0302C165.093 61.8399 165.032 62.771 165.052 63.439C165.133 65.1596 163.433 66.9206 163.433 66.9206C163.433 66.9206 160.457 70.4022 159.364 72.0216C158.271 73.6409 157.279 73.2159 157.279 73.2159C157.279 73.2159 156.713 73.0944 156.51 73.1147C156.51 73.1147 156.51 73.1147 156.47 73.1147C154.587 73.1147 153.049 74.653 153.049 76.5355C153.049 78.418 154.79 80.3613 156.692 80.3613C158.595 80.3613 160.113 78.8229 160.113 76.9404C160.113 76.5153 160.032 76.1105 159.891 75.7259C160.012 74.7947 160.599 74.0458 161.206 73.2159C162.684 71.1917 165.032 69.4509 166.287 68.4995C167.259 67.791 168.433 66.6372 168.838 65.7871C169.182 65.0584 168.595 64.4916 168.595 64.4916C168.595 64.4916 168.939 60.7064 169.101 58.4595H169.121Z" fill="black"/>
<path d="M151.329 63.2975C150.762 62.0223 150.62 60.4637 151.814 59.7552C152.624 59.2896 153.636 59.1075 154.102 59.0467L157.199 57.3262L151.936 58.4597C151.936 58.4597 149.183 57.9132 148.798 60.6661C148.798 60.6661 148.495 62.7105 150.316 63.1558C150.782 63.257 151.126 63.338 151.389 63.3987C151.369 63.3785 151.329 63.3583 151.308 63.3178L151.329 63.2975Z" fill="black"/>
<path d="M507.101 58.217L241.588 56.1523H238.633V61.6581L241.791 61.5772L379.294 61.0914L384.051 64.5325L507.101 64.8969C507.951 64.8969 508.66 64.2086 508.66 63.3585V59.7756C508.66 58.9255 507.972 58.2373 507.122 58.2373L507.101 58.217Z" fill="black"/>
<path d="M228.207 56.1328V61.922L236.891 61.6791V56.1328H228.207Z" fill="black"/>
<path d="M226.933 56.1317L172.948 56.0508H169.547C169.931 56.658 170.195 57.4677 170.114 58.5405C170.012 60.0384 169.931 62.2246 169.81 63.5201H170.944L226.912 61.9614V56.1115L226.933 56.1317ZM188.19 59.9777V57.6499H225.9V59.9777H188.19Z" fill="black"/>
</svg>
