<svg width="512" height="512" viewBox="0 0 512 512" fill="none" xmlns="http://www.w3.org/2000/svg">
<path d="M299.358 206.506C299.358 206.506 270.311 205.879 265.129 206.466C259.886 207.053 243.875 212.943 243.875 212.943H238.045V224.562H244.057C244.057 224.562 271.586 229.319 296.504 228.59C299.256 228.509 301.524 226.222 301.524 223.469V208.874C301.524 207.64 300.592 206.607 299.358 206.506Z" fill="black"/>
<path d="M175.114 213.044H161.875C161.875 213.044 154.406 210.028 151.572 209.643C149.204 209.319 132.504 209.542 127.14 209.623C126.209 209.623 125.48 210.392 125.48 211.323L125.602 225.492C125.602 227.071 126.877 228.326 128.456 228.347C134.772 228.428 149.528 228.124 151.39 227.76C153.758 227.294 161.875 224.318 161.875 224.318L173.332 223.65L175.114 223.549V213.044Z" fill="black"/>
<path d="M215.212 211.425L214.341 207.68C214.119 206.708 213.248 206.02 212.256 206.02L203.087 206C202.075 206 201.184 206.708 200.982 207.7L200.172 211.465H215.232L215.212 211.425Z" fill="black"/>
<path d="M238.045 228.387V230.472H241.344C241.344 230.472 240.332 228.792 238.045 228.387Z" fill="black"/>
<path d="M175.112 228.387V230.472H171.812C171.812 230.472 172.825 228.792 175.112 228.387Z" fill="black"/>
<path d="M217.904 213.267H215.738L197.541 213.064L187.48 213.206V225.513L225.879 225.311V213.166L217.884 213.267H217.904ZM207.682 224.967C204.524 224.967 201.953 222.396 201.953 219.238C201.953 216.081 204.524 213.51 207.682 213.51C210.84 213.51 213.41 216.081 213.41 219.238C213.41 222.396 210.84 224.967 207.682 224.967Z" fill="black"/>
<path d="M207.682 215.596C205.678 215.596 204.059 217.215 204.059 219.219C204.059 221.223 205.678 222.842 207.682 222.842C209.686 222.842 211.305 221.223 211.305 219.219C211.305 217.215 209.686 215.596 207.682 215.596Z" fill="black"/>
<path d="M171.024 241.626H170.963V257.88H171.833C175.072 257.698 178.513 257.637 182.177 257.698L204.686 257.354L232.498 256.767H241.708V255.208L241.769 239.662L171.024 241.626Z" fill="black"/>
<path d="M384.314 244.744C384.314 244.744 384.273 244.623 384.253 244.562C384.131 244.097 383.909 243.59 383.646 243.064L383.322 242.619L378.585 239.178L243.875 239.664L243.814 255.128L382.654 249.764C382.917 249.542 383.099 249.319 383.301 249.117C383.949 248.327 384.779 246.849 384.314 244.765V244.744ZM253.632 247.558L247.478 247.659C247.478 247.659 246.041 246.789 247.438 245.594L253.47 245.493C253.47 245.493 254.927 246.505 253.632 247.558ZM270.716 247.275L264.562 247.376C264.562 247.376 263.125 246.505 264.522 245.311L270.554 245.21C270.554 245.21 272.011 246.222 270.716 247.275ZM287.8 246.991L281.647 247.092C281.647 247.092 280.209 246.222 281.606 245.028L287.638 244.926C287.638 244.926 289.096 245.939 287.8 246.991ZM304.884 246.708L298.731 246.809C298.731 246.809 297.294 245.939 298.69 244.744L304.722 244.643C304.722 244.643 306.18 245.655 304.884 246.708ZM321.968 246.424L315.815 246.526C315.815 246.526 314.378 245.655 315.774 244.461L321.807 244.36C321.807 244.36 323.264 245.372 321.968 246.424ZM339.053 246.121L332.899 246.222C332.899 246.222 331.462 245.352 332.859 244.157L338.891 244.056C338.891 244.056 340.348 245.068 339.053 246.121ZM356.137 245.837L349.983 245.939C349.983 245.939 348.546 245.068 349.943 243.874L355.975 243.773C355.975 243.773 357.432 244.785 356.137 245.837Z" fill="black"/>
<path d="M142.098 264.379C142.098 264.379 149.607 262.597 150.174 269.135C150.174 269.135 151.389 277.252 164.85 275.451C178.31 273.629 178.877 265.289 178.796 263.508C178.715 261.727 178.655 258.974 182.217 259.014C185.759 259.055 156.53 257.476 142.118 264.399L142.098 264.379ZM174.525 269.783C168.898 274.601 155.518 275.431 153.129 270.633C153.129 270.633 148.555 264.905 154.648 262.172C154.648 262.172 158.129 262.192 157.421 262.698C156.287 263.488 155.356 270.654 161.388 271.241C161.388 271.241 156.368 266.767 159.587 262.618C159.587 262.618 160.275 261.686 162.299 261.707L164.06 260.35L175.092 259.865C175.092 259.865 180.152 264.945 174.525 269.783Z" fill="black"/>
<path d="M108.274 285.955L116.108 288.728C117.079 289.072 118.132 288.546 118.456 287.574C120.136 282.493 125.783 267.939 137.2 260.612C138.738 259.64 140.054 258.365 141.208 256.948C142.645 255.207 144.264 253.001 144.669 251.543C144.669 251.543 145.256 249.135 134.406 253.122C134.406 253.122 121.978 258.385 115.46 268.87C111.088 275.874 108.497 280.854 107.242 283.384C106.756 284.396 107.242 285.59 108.294 285.975L108.274 285.955Z" fill="black"/>
<path d="M14.2705 246.666C14.2907 246.18 14.3312 245.715 14.3717 245.249C11.8617 245.188 9.65534 245.128 7.87405 245.087C4.93898 245.026 4.7568 247.516 4.55438 250.451C3.70422 262.617 2.61116 292.656 11.5581 304.295C11.5581 304.295 10.9913 306.926 19.918 305.651C19.918 305.651 19.9787 305.631 20.1002 305.59C12.4285 290.753 13.4406 259.479 14.2503 246.646L14.2705 246.666Z" fill="black"/>
<path d="M101.412 294.316C103.719 295.611 111.047 299.194 120.298 298.668C120.804 298.648 121.208 298.182 121.188 297.676C121.188 297.17 121.168 296.421 121.188 295.551C111.027 296.684 103.213 292.332 101.088 290.996C101.027 291.644 100.967 292.292 100.825 293C100.724 293.526 100.946 294.053 101.412 294.316Z" fill="black"/>
<path d="M227.378 275.208C226.407 269.884 226.265 264.399 226.73 258.994L218.553 259.156C219.018 264.682 219.403 270.147 220.132 275.613L227.378 275.188V275.208Z" fill="black"/>
<path d="M232.235 258.893L227.943 258.974C228.389 264.358 228.692 269.722 229.057 275.106L230.332 275.025C231.688 274.944 232.741 273.791 232.66 272.434C232.478 269.095 232.194 263.042 232.255 258.893H232.235Z" fill="black"/>
<path d="M198.39 276.927L218.45 275.733C217.114 270.369 216.871 264.721 217.357 259.195L204.726 259.458L197.074 259.58C197.439 265.329 197.742 271.179 198.37 276.907L198.39 276.927Z" fill="black"/>
<path d="M192.623 259.66C192.927 265.49 193.291 271.401 194.161 277.17L197.238 276.987C196.003 271.32 195.781 265.409 196.145 259.6L192.623 259.66Z" fill="black"/>
<path d="M191.348 259.682L185.336 259.783C185.437 263.426 184.81 270.713 185.66 275.248C185.923 276.644 187.218 277.596 188.615 277.515L192.4 277.292C191.004 271.604 190.781 265.552 191.348 259.702V259.682Z" fill="black"/>
<path d="M227.66 213.368V230.473H236.162V213.368C236.162 212.822 235.737 212.396 235.19 212.396H228.632C228.085 212.396 227.66 212.822 227.66 213.368ZM231.911 220.028C230.919 220.028 230.109 219.218 230.109 218.226C230.109 217.234 230.919 216.425 231.911 216.425C232.903 216.425 233.713 217.234 233.713 218.226C233.713 219.218 232.903 220.028 231.911 220.028Z" fill="black"/>
<path d="M177.237 213.409V230.453H185.739V213.409C185.739 212.843 185.273 212.377 184.706 212.377H178.249C177.682 212.377 177.217 212.843 177.217 213.409H177.237ZM181.488 220.028C180.496 220.028 179.686 219.219 179.686 218.227C179.686 217.235 180.496 216.425 181.488 216.425C182.48 216.425 183.289 217.235 183.289 218.227C183.289 219.219 182.48 220.028 181.488 220.028Z" fill="black"/>
<path d="M166.894 246.019L166.266 246.484C164.526 247.719 161.368 249.338 160.943 251.727C161.064 252.132 161.145 252.537 161.145 252.962C161.145 255.411 159.161 257.395 156.712 257.395C154.263 257.395 152.279 255.411 152.279 252.962C152.279 250.512 154.263 248.529 156.712 248.529C157.117 248.529 157.502 248.61 157.886 248.711C157.967 248.65 158.311 248.468 158.817 247.679C159.91 246.039 162.097 242.841 162.218 242.699C162.38 242.537 162.987 241.707 162.846 241.424L158.433 241.667L154.729 241.748C154.141 241.687 153.554 241.606 152.988 241.525C147.907 242.072 135.215 244.723 119.103 257.213C119.103 257.213 108.617 261.463 102.181 257.678C102.181 257.678 93.0109 249.541 91.1284 248.225C90.177 247.557 68.0931 246.768 46.2319 246.12C35.3619 245.796 24.5528 245.533 16.4358 245.331C16.3953 245.816 16.3548 246.302 16.3345 246.808C15.5249 259.743 14.5128 290.774 22.1035 304.983C26.1316 303.668 35.5239 300.591 46.2521 296.887C59.5713 292.272 74.9551 286.705 84.732 282.333C84.732 282.333 100.258 277.333 101.209 288.385L101.877 289.033C102.768 289.62 109.164 293.729 117.908 293.729C119.083 293.729 120.236 293.628 121.41 293.486C122.078 286.199 125.499 272.718 140.924 264.075C147.664 260.289 156.591 258.791 168.938 258.022V244.217C168.331 244.905 167.602 245.573 166.975 246.019H166.894ZM147.219 251.241C146.753 252.314 145.923 253.63 144.931 254.986C143.231 257.334 141.308 259.581 138.859 261.139C126.876 268.771 121.026 283.993 119.447 288.689C119.042 289.883 118.273 290.571 117.018 290.571C116.674 290.571 116.35 290.51 116.026 290.409L107.707 287.413C106.897 287.13 106.249 286.523 105.946 285.733C105.622 284.944 105.601 284.58 105.986 283.831C107.241 281.341 110.034 276.037 114.73 268.548C121.734 257.435 134.729 251.909 135.276 251.686C139.365 250.209 142.28 249.379 144.102 249.217C145.174 249.116 146.875 248.913 147.3 249.561C147.603 250.006 147.3 250.877 147.239 251.261L147.219 251.241Z" fill="black"/>
<path d="M154.648 239.602L158.757 239.501H163.008C163.008 239.055 163.008 238.509 163.008 237.942C163.008 237.618 163.049 235.999 163.049 235.999C163.069 234.845 163.089 233.853 162.846 232.902L162.785 232.679C162.705 232.477 162.664 232.254 162.644 232.031H161.571L154.385 236.039C154.385 236.039 153.13 236.14 152.3 236.626C151.47 237.112 152.158 238.752 152.158 238.752C152.745 239.642 154.628 239.602 154.628 239.602H154.648Z" fill="black"/>
<path d="M169.121 234.46C169.283 232.213 167.461 231.443 167.461 231.443C164.06 230.836 164.749 232.051 164.749 232.051L164.85 232.415C165.255 233.974 165.113 235.431 165.093 237.03C165.093 237.84 165.032 238.771 165.052 239.439C165.133 241.16 163.433 242.921 163.433 242.921C163.433 242.921 160.457 246.402 159.364 248.022C158.271 249.641 157.279 249.216 157.279 249.216C157.279 249.216 156.713 249.094 156.51 249.115C156.51 249.115 156.51 249.115 156.47 249.115C154.587 249.115 153.049 250.653 153.049 252.536C153.049 254.418 154.79 256.361 156.692 256.361C158.595 256.361 160.113 254.823 160.113 252.94C160.113 252.515 160.032 252.11 159.891 251.726C160.012 250.795 160.599 250.046 161.206 249.216C162.684 247.192 165.032 245.451 166.287 244.499C167.259 243.791 168.433 242.637 168.838 241.787C169.182 241.058 168.595 240.492 168.595 240.492C168.595 240.492 168.939 236.706 169.101 234.46H169.121Z" fill="black"/>
<path d="M151.329 239.298C150.762 238.022 150.62 236.464 151.814 235.755C152.624 235.29 153.636 235.107 154.102 235.047L157.199 233.326L151.936 234.46C151.936 234.46 149.183 233.913 148.798 236.666C148.798 236.666 148.495 238.711 150.316 239.156C150.782 239.257 151.126 239.338 151.389 239.399C151.369 239.379 151.329 239.358 151.308 239.318L151.329 239.298Z" fill="black"/>
<path d="M507.101 234.217L241.588 232.152H238.633V237.658L241.791 237.577L379.294 237.091L384.051 240.532L507.101 240.897C507.951 240.897 508.66 240.209 508.66 239.358V235.776C508.66 234.925 507.972 234.237 507.122 234.237L507.101 234.217Z" fill="black"/>
<path d="M228.207 232.133V237.922L236.891 237.679V232.133H228.207Z" fill="black"/>
<path d="M226.933 232.132L172.948 232.051H169.547C169.931 232.658 170.195 233.468 170.114 234.541C170.012 236.038 169.931 238.225 169.81 239.52H170.944L226.912 237.961V232.112L226.933 232.132ZM188.19 235.978V233.65H225.9V235.978H188.19Z" fill="black"/>
</svg>
