<svg width="512" height="160" viewBox="0 0 512 160" fill="none" xmlns="http://www.w3.org/2000/svg">
<path d="M423.341 18.2327C423.301 13.3101 422.472 11.5577 421.295 11.6647C420.332 11.745 417.027 12.6279 417.027 12.6279C416.479 12.8151 416.038 12.9489 415.663 13.0559V24.5732C418.084 25.4694 421.188 26.0313 421.188 26.0313C424.037 28.2117 423.381 23.1553 423.341 18.2461V18.2327Z" fill="black"/>
<path d="M414.205 26.0976L414.165 24.6797V24.5459V12.9617C413.87 9.87169 411.503 8.93532 410.874 8.74805H398.755C399.156 12.1591 399.384 16.0383 399.384 20.038C399.384 23.3554 399.236 26.539 398.942 29.5354C405.122 29.5354 409.269 29.522 410.045 29.5354C410.045 29.5354 413.001 29.5086 413.656 28.1576C414.312 26.8333 414.205 26.111 414.205 26.111V26.0976Z" fill="black"/>
<path d="M396.896 8.7483H393.86L393.833 8.8018L389.258 8.77505L349.757 8.49414H349.623C350.024 11.9721 350.238 15.9182 350.238 19.9713C350.238 23.3556 350.091 26.6061 349.81 29.656C363.227 29.6159 377.674 29.5891 389.071 29.5624C391.559 29.5624 394.957 29.5624 397.11 29.549C397.391 26.6998 397.552 23.476 397.552 20.0382C397.552 15.8647 397.311 11.9988 396.91 8.7483H396.896Z" fill="black"/>
<path d="M153.896 41.5612C160.53 40.5713 174.215 34.3645 179.258 27.3953C181.211 24.7066 182.909 21.8039 184.622 18.9948C186.374 16.1188 187.244 14.1257 188.019 12.1994L187.524 11.9453C187.163 11.7312 186.815 11.5707 186.468 11.437C182.321 9.73812 180.448 13.3899 180.448 13.3899C175.94 18.5801 170.362 15.2627 170.362 15.2627C166.296 12.1994 160.744 11.4503 160.744 11.4503C156.852 11.1159 154.966 12.9351 154.966 12.9351C153.615 14.955 155.741 15.169 155.741 15.169C159.915 14.0855 168.944 20.6936 168.944 20.6936C170.603 21.8172 171.713 22.8606 172.476 23.8371C175.218 27.3284 173.84 29.3082 173.84 29.3082C173.639 30.6458 171.713 32.3982 170.188 32.2778C168.663 32.1574 165.935 32.6256 164.664 33.5084C160.651 36.3042 155.942 40.3974 155.942 40.3974" fill="black"/>
<path d="M296.143 12.3477H304.463C304.905 12.3477 305.306 12.6419 305.413 13.0834C305.801 14.6083 306.496 18.1933 305.466 21.203C305.333 21.6043 304.931 21.8451 304.517 21.8451H296.143C295.447 21.8451 294.872 21.2699 294.872 20.5743V13.6184C294.872 12.9229 295.447 12.3477 296.143 12.3477Z" fill="black"/>
<path d="M317.104 12.3477H309.894V21.8451H317.104V12.3477Z" fill="black"/>
<path d="M347.683 8.48149L271.275 8.17383V29.8708H302.67C302.831 29.8708 303.018 29.8708 303.018 29.8708C304.49 29.8306 310.014 29.7638 310.014 29.7638C310.014 29.7638 327.926 29.7236 347.87 29.6701C348.151 26.7674 348.312 23.4767 348.312 19.972C348.312 15.7316 348.084 11.7989 347.683 8.48149ZM306.523 22.4467L306.135 23.3028H294.203C293.762 23.3028 293.414 22.955 293.414 22.5136V12.1601C293.414 11.4779 293.976 10.916 294.658 10.916H306.242L306.563 11.9193C306.643 12.1601 308.489 17.9923 306.51 22.4601L306.523 22.4467ZM317.559 23.3028H309.332C308.85 23.3028 308.449 22.9149 308.449 22.42V12.3607C308.449 11.5581 309.105 10.9027 309.907 10.9027H317.572C318.107 10.9027 318.549 11.3441 318.549 11.8792V22.2996C318.549 22.848 318.107 23.2895 317.559 23.2895V23.3028ZM331.925 22.3798L331.564 23.2895H319.726V10.9027H331.671L331.979 11.9327C332.046 12.1735 333.718 17.8853 331.939 22.3798H331.925Z" fill="black"/>
<path d="M322.173 12.3477H329.637C330.199 12.3477 330.694 12.7356 330.814 13.284C331.149 14.7956 331.644 17.899 330.948 20.6813C330.774 21.3635 330.159 21.8451 329.463 21.8451H323.003C321.732 21.8451 321.17 21.2833 321.17 20.5877V13.3509C321.17 12.7891 321.625 12.3477 322.173 12.3477Z" fill="black"/>
<path d="M199.068 17.3637C199.068 17.1496 199.108 16.9624 199.135 16.7617C192.634 21.283 188.42 28.4395 188.42 36.519C188.42 44.5985 192.66 51.7818 199.188 56.3031C199.121 55.9687 199.081 55.6343 199.081 55.2865V17.3637H199.068Z" fill="black"/>
<path d="M191.256 8.17383L189.744 11.9193C188.968 13.8455 187.657 16.775 185.838 19.758L185.116 20.9352C183.644 23.3697 182.12 25.8845 180.407 28.2522C175.498 35.0475 161.734 41.1473 154.35 42.9264C158.068 48.3306 164.101 55.661 170.442 57.2127C175.083 58.3631 178.454 61.5868 179.926 66.3222C181.451 71.218 179.752 76.9432 177.143 80.3811C181.156 81.6518 185.116 86.4273 186.4 89.223C188.206 78.8427 193.811 72.4353 203.482 72.4353C204.753 72.4353 206.091 72.5289 207.482 72.7162C207.722 72.7563 207.977 72.7697 208.217 72.743C209.408 72.6627 212.525 72.2079 215.896 69.7867L216.123 69.6262L216.391 69.5593C216.471 69.5326 218.477 69.051 221.273 69.051C227.012 69.051 237.312 70.7766 237.539 85.5444C240.776 80.0333 249.137 78.8294 249.137 78.8294C253.109 79.3243 252.949 77.0101 252.949 77.0101L260.654 55.1393C265.657 48.7988 267.556 44.2641 268.279 41.8295V8.17383H191.242H191.256ZM175.124 54.9654C172.274 55.5138 169.8 53.0392 170.348 50.1899C170.656 48.6115 171.953 47.3139 173.532 47.0063C176.381 46.4578 178.856 48.9325 178.307 51.7817C178 53.3602 176.702 54.6577 175.124 54.9654ZM162.63 42.9665C161.653 43.127 160.556 43.515 159.633 43.4748C161.372 42.699 163.459 42.3512 165.265 41.562C174.428 38.1375 182.441 31.6499 187.31 23.1022C189.383 19.7313 190.533 15.9858 192.259 12.441C192.299 12.3741 192.42 12.4142 192.379 12.4945V12.5212C188.687 27.8776 178.441 39.6892 162.616 42.9531L162.63 42.9665ZM188.38 76.8496C187.938 77.7057 187.069 78.2408 186.106 78.2408C185.691 78.2408 185.29 78.1471 184.929 77.9465C184.327 77.6388 183.872 77.1038 183.671 76.4483C183.457 75.7929 183.524 75.0973 183.832 74.4953C184.273 73.6392 185.143 73.1041 186.106 73.1041C186.507 73.1041 186.922 73.1978 187.283 73.3851C187.885 73.7061 188.34 74.2278 188.554 74.8832C188.768 75.5387 188.701 76.2343 188.38 76.8362V76.8496ZM243.131 73.3449C240.281 73.8934 237.807 71.4187 238.355 68.5695C238.663 66.991 239.96 65.6935 241.539 65.3858C244.388 64.8374 246.863 67.312 246.314 70.1613C246.006 71.7397 244.709 73.0373 243.131 73.3449ZM249.953 55.2731C249.953 58.5771 247.264 61.2658 243.96 61.2658H204.392C202.492 61.2658 200.807 60.3696 199.723 58.9918L197.65 57.4668C190.868 52.4506 186.975 44.8259 186.975 36.519C186.975 28.2121 190.855 20.6141 197.61 15.6113L199.255 14.394C200.285 12.6015 202.185 11.3976 204.392 11.3976H243.96C247.264 11.3976 249.953 14.0863 249.953 17.3903V55.2998V55.2731Z" fill="black"/>
<path d="M410.7 7.30275V2.24637C410.674 0.895328 409.403 0.400391 409.403 0.400391H399.103C397.792 1.83169 395.759 5.32301 394.648 7.31613H410.7V7.30275Z" fill="black"/>
<path d="M214.785 72.8624C212.337 74.7218 209.649 75.2033 208.632 75.3237C208.364 75.3505 208.097 75.3505 207.843 75.3103C192.179 73.1032 188.701 82.0789 187.885 90.4126C187.912 90.4795 187.912 90.5196 187.912 90.5196C188.326 96.2314 192.379 100.552 192.379 100.552C198.921 108.257 216.578 103.04 216.578 103.04C216.578 103.04 232.937 98.1175 236.629 88.4596C236.83 87.9245 236.763 87.5901 236.83 86.9614C236.87 86.5467 236.736 85.597 236.683 85.1957C235.238 73.1834 228.724 71.0566 223.119 70.575C220.163 70.3208 217.153 71.0833 214.785 72.8624ZM232.162 91.175C232.162 91.175 229.847 94.5727 224.296 97.636C218.544 100.82 208.552 102.358 205.154 101.863C201.756 101.368 197.449 102.358 193.142 96.5658C188.835 90.7604 191.978 78.0927 196.62 78.922C196.62 78.922 200.098 83.8045 205.234 83.3096C205.234 83.3096 203.415 96.6461 218.825 96.3251C218.825 96.3251 206.96 90.2521 211.04 82.5739C211.04 82.5739 214.852 79.3367 214.692 75.4441C214.692 75.4441 215.936 73.1299 219.748 73.2905C219.748 73.2905 228.122 72.3808 231.105 78.0124C234.088 83.644 234.168 86.9614 232.188 91.1884L232.162 91.175Z" fill="black"/>
<path d="M266.888 6.80873C264.935 5.32392 258.153 5.85898 258.153 5.85898C252.214 6.18002 248.589 4.38755 246.916 3.26391C246.087 2.70209 245.111 2.39442 244.121 2.38105L203.054 1.72559C202.172 1.69884 201.369 2.30079 201.222 3.18365C201.061 4.16015 200.62 5.17677 199.416 4.66846C198.266 4.17352 197.717 2.86261 197.45 1.75234C197.195 0.72234 196.272 0 195.216 0H193.156C192.126 0 191.296 0.856107 191.336 1.88611L191.484 6.32717L191.27 6.83548H268.306L266.901 6.8221L266.888 6.80873ZM194.467 5.57807C193.276 5.57807 192.3 4.60158 192.3 3.41105C192.3 2.22053 193.276 1.24403 194.467 1.24403C195.657 1.24403 196.634 2.22053 196.634 3.41105C196.634 4.60158 195.657 5.57807 194.467 5.57807Z" fill="black"/>
<path d="M244.429 70.8968C244.75 70.4687 244.937 69.9336 244.937 69.3584C244.937 67.9138 243.773 66.75 242.329 66.75C241.834 66.75 241.379 66.8971 240.978 67.1379L244.429 70.8968Z" fill="black"/>
<path d="M240.228 67.8203C239.907 68.2484 239.72 68.7834 239.72 69.3586C239.72 70.8033 240.883 71.9671 242.328 71.9671C242.823 71.9671 243.278 71.8199 243.679 71.5792L240.228 67.8203Z" fill="black"/>
<path d="M176.436 52.5315C176.757 52.1035 176.944 51.5684 176.944 50.9932C176.944 49.5485 175.78 48.3848 174.335 48.3848C173.84 48.3848 173.386 48.5319 172.984 48.7727L176.436 52.5315Z" fill="black"/>
<path d="M172.235 49.4551C171.914 49.8831 171.727 50.4182 171.727 50.9934C171.727 52.4381 172.89 53.6019 174.335 53.6019C174.83 53.6019 175.285 53.4547 175.686 53.2139L172.235 49.4551Z" fill="black"/>
<path d="M310.803 34.8064C310.335 33.2012 307.299 32.7598 307.299 32.7598H275.703V39.7558H306.884C307.031 39.7558 307.192 39.7558 307.339 39.7558C312.128 39.6354 310.803 34.8064 310.803 34.8064ZM306.148 36.7594C305.801 37.4416 304.971 37.6957 304.289 37.348C303.607 37.0002 303.353 36.1708 303.7 35.4886C304.048 34.8064 304.878 34.5522 305.56 34.9C306.242 35.2478 306.496 36.0772 306.148 36.7594Z" fill="black"/>
<path d="M274.258 32.7598H271.275V39.7558H274.258V32.7598Z" fill="black"/>
<path d="M195.684 4.05249C195.791 3.85184 195.858 3.65119 195.858 3.41041C195.858 2.63456 195.23 2.00586 194.454 2.00586C194.253 2.00586 194.079 2.04599 193.905 2.11287L195.671 4.03911L195.684 4.05249Z" fill="black"/>
<path d="M193.196 2.83398C193.116 3.00788 193.062 3.19515 193.062 3.40918C193.062 4.18502 193.691 4.81372 194.467 4.81372C194.628 4.81372 194.775 4.77359 194.922 4.72008L193.196 2.84736V2.83398Z" fill="black"/>
<path d="M187.338 76.3404C187.445 76.1397 187.525 75.9123 187.525 75.6715C187.525 74.8823 186.883 74.2402 186.094 74.2402C185.893 74.2402 185.692 74.2937 185.519 74.3606L187.338 76.3404Z" fill="black"/>
<path d="M184.796 75.082C184.716 75.2559 184.662 75.4566 184.662 75.6706C184.662 76.4598 185.304 77.1019 186.093 77.1019C186.254 77.1019 186.414 77.0618 186.562 77.0083L184.796 75.082Z" fill="black"/>
<path d="M414.205 26.0976L414.165 24.6797V24.5459V12.9617C413.87 9.87169 411.503 8.93532 410.874 8.74805H398.755C399.156 12.1591 399.384 16.0383 399.384 20.038C399.384 23.3554 399.236 26.539 398.942 29.5354C405.122 29.5354 409.269 29.522 410.045 29.5354C410.045 29.5354 413.001 29.5086 413.656 28.1576C414.312 26.8333 414.205 26.111 414.205 26.111V26.0976Z" fill="black"/>
<path d="M396.896 8.7483H393.86L393.833 8.8018L389.258 8.77505L349.757 8.49414H349.623C350.024 11.9721 350.238 15.9182 350.238 19.9713C350.238 23.3556 350.091 26.6061 349.81 29.656C363.227 29.6159 377.674 29.5891 389.071 29.5624C391.559 29.5624 394.957 29.5624 397.11 29.549C397.391 26.6998 397.552 23.476 397.552 20.0382C397.552 15.8647 397.311 11.9988 396.91 8.7483H396.896Z" fill="black"/>
<path d="M153.896 41.5612C160.53 40.5713 174.215 34.3645 179.258 27.3953C181.211 24.7066 182.909 21.8039 184.622 18.9948C186.374 16.1188 187.244 14.1257 188.019 12.1994L187.524 11.9453C187.163 11.7312 186.815 11.5707 186.468 11.437C182.321 9.73812 180.448 13.3899 180.448 13.3899C175.94 18.5801 170.362 15.2627 170.362 15.2627C166.296 12.1994 160.744 11.4503 160.744 11.4503C156.852 11.1159 154.966 12.9351 154.966 12.9351C153.615 14.955 155.741 15.169 155.741 15.169C159.915 14.0855 168.944 20.6936 168.944 20.6936C170.603 21.8172 171.713 22.8606 172.476 23.8371C175.218 27.3284 173.84 29.3082 173.84 29.3082C173.639 30.6458 171.713 32.3982 170.188 32.2778C168.663 32.1574 165.935 32.6256 164.664 33.5084C160.651 36.3042 155.942 40.3974 155.942 40.3974" fill="black"/>
<path d="M296.143 12.3477H304.463C304.905 12.3477 305.306 12.6419 305.413 13.0834C305.801 14.6083 306.496 18.1933 305.466 21.203C305.333 21.6043 304.931 21.8451 304.517 21.8451H296.143C295.447 21.8451 294.872 21.2699 294.872 20.5743V13.6184C294.872 12.9229 295.447 12.3477 296.143 12.3477Z" fill="black"/>
<path d="M317.104 12.3477H309.894V21.8451H317.104V12.3477Z" fill="black"/>
<path d="M347.683 8.48149L271.275 8.17383V29.8708H302.67C302.831 29.8708 303.018 29.8708 303.018 29.8708C304.49 29.8306 310.014 29.7638 310.014 29.7638C310.014 29.7638 327.926 29.7236 347.87 29.6701C348.151 26.7674 348.312 23.4767 348.312 19.972C348.312 15.7316 348.084 11.7989 347.683 8.48149ZM306.523 22.4467L306.135 23.3028H294.203C293.762 23.3028 293.414 22.955 293.414 22.5136V12.1601C293.414 11.4779 293.976 10.916 294.658 10.916H306.242L306.563 11.9193C306.643 12.1601 308.489 17.9923 306.51 22.4601L306.523 22.4467ZM317.559 23.3028H309.332C308.85 23.3028 308.449 22.9149 308.449 22.42V12.3607C308.449 11.5581 309.105 10.9027 309.907 10.9027H317.572C318.107 10.9027 318.549 11.3441 318.549 11.8792V22.2996C318.549 22.848 318.107 23.2895 317.559 23.2895V23.3028ZM331.925 22.3798L331.564 23.2895H319.726V10.9027H331.671L331.979 11.9327C332.046 12.1735 333.718 17.8853 331.939 22.3798H331.925Z" fill="black"/>
<path d="M322.173 12.3477H329.637C330.199 12.3477 330.694 12.7356 330.814 13.284C331.149 14.7956 331.644 17.899 330.948 20.6813C330.774 21.3635 330.159 21.8451 329.463 21.8451H323.003C321.732 21.8451 321.17 21.2833 321.17 20.5877V13.3509C321.17 12.7891 321.625 12.3477 322.173 12.3477Z" fill="black"/>
<path d="M216.404 69.5593C216.484 69.5326 218.491 69.051 221.286 69.051C227.025 69.051 237.325 70.7766 237.552 85.5444C240.79 80.0333 249.15 78.8294 249.15 78.8294C253.123 79.3243 252.962 77.0101 252.962 77.0101L260.667 55.1393C265.67 48.7988 267.57 44.2641 268.292 41.8295V8.17383H191.256L189.744 11.9193C188.968 13.8455 187.657 16.775 185.838 19.758L185.116 20.9352C183.644 23.3697 182.12 25.8845 180.407 28.2522C175.498 35.0475 161.734 41.1473 154.35 42.9264C158.068 48.3306 164.101 55.661 170.442 57.2127C175.083 58.3631 178.454 61.5868 179.926 66.3222C181.451 71.218 179.752 76.9432 177.143 80.3811C181.156 81.6518 185.116 86.4273 186.4 89.223C188.206 78.8427 193.811 72.4353 203.482 72.4353C204.753 72.4353 206.091 72.5289 207.482 72.7162C207.722 72.7563 207.977 72.7697 208.217 72.743C209.408 72.6627 212.444 71.9805 215.896 69.7867L216.391 69.5593H216.404ZM175.124 54.9654C172.274 55.5138 169.8 53.0392 170.348 50.1899C170.656 48.6115 171.953 47.3139 173.532 47.0063C176.381 46.4578 178.856 48.9325 178.307 51.7817C178 53.3602 176.702 54.6577 175.124 54.9654ZM162.63 42.9665C161.653 43.127 160.556 43.515 159.633 43.4748C161.372 42.699 163.459 42.3512 165.265 41.562C174.428 38.1375 182.441 31.6499 187.31 23.1022C189.383 19.7313 190.533 15.9858 192.259 12.441C192.299 12.3741 192.42 12.4142 192.379 12.4945V12.5212C188.687 27.8776 178.441 39.6892 162.616 42.9531L162.63 42.9665ZM188.38 76.8496C187.938 77.7057 187.069 78.2408 186.106 78.2408C185.691 78.2408 185.29 78.1471 184.929 77.9465C184.327 77.6388 183.872 77.1038 183.671 76.4483C183.457 75.7929 183.524 75.0973 183.832 74.4953C184.273 73.6392 185.143 73.1041 186.106 73.1041C186.507 73.1041 186.922 73.1978 187.283 73.3851C187.885 73.7061 188.34 74.2278 188.554 74.8832C188.768 75.5387 188.701 76.2343 188.38 76.8362V76.8496ZM243.131 73.3449C240.281 73.8934 237.807 71.4187 238.355 68.5695C238.663 66.991 239.96 65.6935 241.539 65.3858C244.388 64.8374 246.863 67.312 246.314 70.1613C246.006 71.7397 244.709 73.0373 243.131 73.3449ZM249.953 55.2731C249.953 58.5771 247.264 61.2658 243.96 61.2658H204.392C202.492 61.2658 200.807 60.3696 199.723 58.9918L197.65 57.4668C190.868 52.4506 186.975 44.8259 186.975 36.519C186.975 28.2121 190.855 20.6141 197.61 15.6113L199.255 14.394C200.285 12.6015 202.185 11.3976 204.392 11.3976H243.96C247.264 11.3976 249.953 14.0863 249.953 17.3903V55.2998V55.2731Z" fill="black"/>
<path d="M410.7 7.30275V2.24637C410.674 0.895328 409.403 0.400391 409.403 0.400391H399.103C397.792 1.83169 395.759 5.32301 394.648 7.31613H410.7V7.30275Z" fill="black"/>
<path d="M266.888 6.80873C264.935 5.32392 258.153 5.85898 258.153 5.85898C252.214 6.18002 248.589 4.38755 246.916 3.26391C246.087 2.70209 245.111 2.39442 244.121 2.38105L203.054 1.72559C202.172 1.69884 201.369 2.30079 201.222 3.18365C201.061 4.16015 200.62 5.17677 199.416 4.66846C198.266 4.17352 197.717 2.86261 197.45 1.75234C197.195 0.72234 196.272 0 195.216 0H193.156C192.126 0 191.296 0.856107 191.336 1.88611L191.484 6.32717L191.27 6.83548H268.306L266.901 6.8221L266.888 6.80873ZM194.467 5.57807C193.276 5.57807 192.3 4.60158 192.3 3.41105C192.3 2.22053 193.276 1.24403 194.467 1.24403C195.657 1.24403 196.634 2.22053 196.634 3.41105C196.634 4.60158 195.657 5.57807 194.467 5.57807Z" fill="black"/>
<path d="M244.429 70.8968C244.75 70.4687 244.937 69.9336 244.937 69.3584C244.937 67.9138 243.773 66.75 242.329 66.75C241.834 66.75 241.379 66.8971 240.978 67.1379L244.429 70.8968Z" fill="black"/>
<path d="M240.228 67.8203C239.907 68.2484 239.72 68.7834 239.72 69.3586C239.72 70.8033 240.883 71.9671 242.328 71.9671C242.823 71.9671 243.278 71.8199 243.679 71.5792L240.228 67.8203Z" fill="black"/>
<path d="M176.436 52.5315C176.757 52.1035 176.944 51.5684 176.944 50.9932C176.944 49.5485 175.78 48.3848 174.335 48.3848C173.84 48.3848 173.386 48.5319 172.984 48.7727L176.436 52.5315Z" fill="black"/>
<path d="M172.235 49.4551C171.914 49.8831 171.727 50.4182 171.727 50.9934C171.727 52.4381 172.89 53.6019 174.335 53.6019C174.83 53.6019 175.285 53.4547 175.686 53.2139L172.235 49.4551Z" fill="black"/>
<path d="M310.803 34.8064C310.335 33.2012 307.299 32.7598 307.299 32.7598H275.703V39.7558H306.884C307.031 39.7558 307.192 39.7558 307.339 39.7558C312.128 39.6354 310.803 34.8064 310.803 34.8064ZM306.148 36.7594C305.801 37.4416 304.971 37.6957 304.289 37.348C303.607 37.0002 303.353 36.1708 303.7 35.4886C304.048 34.8064 304.878 34.5522 305.56 34.9C306.242 35.2478 306.496 36.0772 306.148 36.7594Z" fill="black"/>
<path d="M274.258 32.7598H271.275V39.7558H274.258V32.7598Z" fill="black"/>
<path d="M195.684 4.05249C195.791 3.85184 195.858 3.65119 195.858 3.41041C195.858 2.63456 195.23 2.00586 194.454 2.00586C194.253 2.00586 194.079 2.04599 193.905 2.11287L195.671 4.03911L195.684 4.05249Z" fill="black"/>
<path d="M193.196 2.83398C193.116 3.00788 193.062 3.19515 193.062 3.40918C193.062 4.18502 193.691 4.81372 194.467 4.81372C194.628 4.81372 194.775 4.77359 194.922 4.72008L193.196 2.84736V2.83398Z" fill="black"/>
<path d="M187.338 76.3404C187.445 76.1397 187.525 75.9123 187.525 75.6715C187.525 74.8823 186.883 74.2402 186.094 74.2402C185.893 74.2402 185.692 74.2937 185.519 74.3606L187.338 76.3404Z" fill="black"/>
<path d="M184.796 75.082C184.716 75.2559 184.662 75.4566 184.662 75.6706C184.662 76.4598 185.304 77.1019 186.093 77.1019C186.254 77.1019 186.414 77.0618 186.562 77.0083L184.796 75.082Z" fill="black"/>
<path d="M211.348 17.2829H246.849V22.4062H211.348C209.93 22.4062 208.779 21.2558 208.779 19.8378C208.779 18.4199 209.93 17.2695 211.348 17.2695V17.2829Z" fill="black"/>
<path d="M211.883 48.6108C209.047 48.6108 206.733 46.2967 206.733 43.4608C206.733 40.625 209.047 38.3108 211.883 38.3108H246.849V25.5227V24.3991H211.348C208.833 24.3991 206.8 22.3524 206.8 19.851C206.8 17.3496 208.846 15.3029 211.348 15.3029H246.301C245.726 14.2863 244.763 12.7212 243.652 12.4805H204.499C202.733 12.4805 201.302 13.9787 201.302 15.838V56.8107C201.302 58.6567 202.733 60.1683 204.499 60.1683H243.652C245.512 59.6733 246.849 58.6701 246.849 56.8107V48.6108H211.883Z" fill="black"/>
<path d="M211.882 40.3047H246.822V46.6318H211.882C210.144 46.6318 208.726 45.2139 208.726 43.4749C208.726 41.736 210.144 40.3181 211.882 40.3181V40.3047Z" fill="black"/>
<path d="M148.291 72.4496C149.12 77.1983 145.816 81.6795 140.934 81.6795C136.185 81.6795 132.827 77.4123 133.255 72.8643C133.617 68.9449 136.747 66.002 140.359 65.8281C143.97 65.6542 147.595 68.3964 148.304 72.4496H148.291Z" fill="black"/>
<path d="M125.484 84.8615C129.109 87.7508 134.46 90.5332 141.536 92.3925C143.502 92.9142 144.693 94.8404 144.345 96.7934C142.686 106.01 138.78 130.596 141.295 146.127C141.549 147.678 140.345 149.083 138.727 149.083C131.316 149.096 112.682 148.668 103.519 144.214C102.663 143.799 102.155 142.943 102.182 142.02C102.463 135.064 103.988 105.876 116.441 86.7208C118.247 83.9385 122.862 82.7747 125.484 84.8615Z" fill="black"/>
<path d="M169.038 58.4422C161.266 56.5828 154.216 47.8211 150.297 41.8819C149.869 41.4672 149.454 40.999 149.454 40.999C149.454 40.999 146.739 38.3638 144.371 36.3975C142.003 34.4177 138.432 36.3975 138.432 36.3975C138.873 44.3566 137 50.3226 134.74 54.5095C131.824 59.927 128.266 62.3883 128.266 62.3883C112.066 76.8217 104.107 95.6962 100.509 107.133C98.9706 112.042 98.0878 117.152 97.7132 122.276C96.4692 139.01 89.9681 145.792 89.9681 145.792L89.607 146.233C88.7642 147.397 88.8579 149.256 89.5267 150.661L89.607 150.835C91.3058 154.139 96.3889 155.61 96.3889 155.61L143.782 159.971C157.627 160.52 151.782 153.042 151.782 153.042L152.598 150.848L149.294 131.037C147.26 119.36 148.611 106.705 148.611 106.705C149.334 94.6127 158.604 87.1351 163.914 83.8177C166.081 82.4667 167.593 81.7979 167.593 81.7979C170.683 79.992 173.318 79.4837 175.552 79.7512C180.154 74.7484 179.913 61.0507 169.024 58.4422H169.038ZM145.802 97.0339C144.063 106.652 140.291 130.69 142.752 145.899C142.94 147.063 142.605 148.24 141.816 149.136C141.04 150.019 139.917 150.514 138.726 150.527H138.392C130.82 150.527 112.2 150.032 102.863 145.511C101.499 144.842 100.656 143.464 100.71 141.979C100.95 135.826 102.823 104.11 115.571 84.4999C117.15 82.0788 120.052 80.8214 123.049 81.3966C124.172 81.6106 125.216 82.1456 126.112 82.8546C129.563 85.5968 135.101 89.2219 141.923 91.0277C144.585 91.7233 146.284 94.3719 145.802 97.0606V97.0339ZM147.608 80.099C145.909 82.0386 143.542 83.1088 140.92 83.1088C138.298 83.1088 136.064 82.0921 134.325 80.2595C132.439 78.253 131.503 75.4974 131.757 72.7285C132.185 68.1938 135.837 64.6088 140.264 64.3948C140.398 64.3948 140.532 64.3948 140.666 64.3948C145.053 64.3948 148.959 67.7657 149.735 72.2202C150.23 75.0961 149.454 77.9721 147.595 80.099H147.608ZM147.02 50.8844C145.241 46.8848 145.535 42.4972 142.605 39.0193C142.15 38.5779 141.535 38.2167 140.826 38.4441L140.759 38.3103C141.468 37.9492 142.311 38.2301 142.873 38.6849C144.545 40.1162 145.414 42.1896 146.204 44.1559C148.371 52.5163 154.484 60.2882 161.961 64.8362L162.068 64.9299C155.367 62.6559 149.468 57.0644 147.006 50.8844H147.02Z" fill="black"/>
</svg>
