<svg width="512" height="512" viewBox="0 0 512 512" fill="none" xmlns="http://www.w3.org/2000/svg">
<path d="M423.341 194.233C423.301 189.31 422.472 187.558 421.295 187.665C420.332 187.745 417.027 188.628 417.027 188.628C416.479 188.815 416.038 188.949 415.663 189.056V200.573C418.084 201.469 421.188 202.031 421.188 202.031C424.037 204.212 423.381 199.155 423.341 194.246V194.233Z" fill="black"/>
<path d="M414.205 202.098L414.165 200.68V200.546V188.962C413.87 185.872 411.503 184.935 410.874 184.748H398.755C399.156 188.159 399.384 192.038 399.384 196.038C399.384 199.355 399.236 202.539 398.942 205.535C405.122 205.535 409.269 205.522 410.045 205.535C410.045 205.535 413.001 205.509 413.656 204.158C414.312 202.833 414.205 202.111 414.205 202.111V202.098Z" fill="black"/>
<path d="M396.896 184.748H393.86L393.833 184.802L389.258 184.775L349.757 184.494H349.623C350.024 187.972 350.238 191.918 350.238 195.971C350.238 199.356 350.091 202.606 349.81 205.656C363.227 205.616 377.674 205.589 389.071 205.562C391.559 205.562 394.957 205.562 397.11 205.549C397.391 202.7 397.552 199.476 397.552 196.038C397.552 191.865 397.311 187.999 396.91 184.748H396.896Z" fill="black"/>
<path d="M153.896 217.561C160.53 216.571 174.215 210.365 179.258 203.395C181.211 200.707 182.909 197.804 184.622 194.995C186.374 192.119 187.244 190.126 188.019 188.199L187.524 187.945C187.163 187.731 186.815 187.571 186.468 187.437C182.321 185.738 180.448 189.39 180.448 189.39C175.94 194.58 170.362 191.263 170.362 191.263C166.296 188.199 160.744 187.45 160.744 187.45C156.852 187.116 154.966 188.935 154.966 188.935C153.615 190.955 155.741 191.169 155.741 191.169C159.915 190.086 168.944 196.694 168.944 196.694C170.603 197.817 171.713 198.861 172.476 199.837C175.218 203.328 173.84 205.308 173.84 205.308C173.639 206.646 171.713 208.398 170.188 208.278C168.663 208.157 165.935 208.626 164.664 209.508C160.651 212.304 155.942 216.397 155.942 216.397" fill="black"/>
<path d="M296.143 188.348H304.463C304.905 188.348 305.306 188.642 305.413 189.083C305.801 190.608 306.496 194.193 305.466 197.203C305.333 197.604 304.931 197.845 304.517 197.845H296.143C295.447 197.845 294.872 197.27 294.872 196.574V189.618C294.872 188.923 295.447 188.348 296.143 188.348Z" fill="black"/>
<path d="M317.104 188.348H309.894V197.845H317.104V188.348Z" fill="black"/>
<path d="M347.683 184.481L271.275 184.174V205.871H302.67C302.831 205.871 303.018 205.871 303.018 205.871C304.49 205.831 310.014 205.764 310.014 205.764C310.014 205.764 327.926 205.724 347.87 205.67C348.151 202.767 348.312 199.477 348.312 195.972C348.312 191.732 348.084 187.799 347.683 184.481ZM306.523 198.447L306.135 199.303H294.203C293.762 199.303 293.414 198.955 293.414 198.514V188.16C293.414 187.478 293.976 186.916 294.658 186.916H306.242L306.563 187.919C306.643 188.16 308.489 193.992 306.51 198.46L306.523 198.447ZM317.559 199.303H309.332C308.85 199.303 308.449 198.915 308.449 198.42V188.361C308.449 187.558 309.105 186.903 309.907 186.903H317.572C318.107 186.903 318.549 187.344 318.549 187.879V198.3C318.549 198.848 318.107 199.289 317.559 199.289V199.303ZM331.925 198.38L331.564 199.289H319.726V186.903H331.671L331.979 187.933C332.046 188.173 333.718 193.885 331.939 198.38H331.925Z" fill="black"/>
<path d="M322.173 188.348H329.637C330.199 188.348 330.694 188.736 330.814 189.284C331.149 190.796 331.644 193.899 330.948 196.681C330.774 197.364 330.159 197.845 329.463 197.845H323.003C321.732 197.845 321.17 197.283 321.17 196.588V189.351C321.17 188.789 321.625 188.348 322.173 188.348Z" fill="black"/>
<path d="M199.068 193.364C199.068 193.15 199.108 192.962 199.135 192.762C192.634 197.283 188.42 204.44 188.42 212.519C188.42 220.599 192.66 227.782 199.188 232.303C199.121 231.969 199.081 231.634 199.081 231.286V193.364H199.068Z" fill="black"/>
<path d="M191.256 184.174L189.744 187.919C188.968 189.846 187.657 192.775 185.838 195.758L185.116 196.935C183.644 199.37 182.12 201.885 180.407 204.252C175.498 211.048 161.734 217.147 154.35 218.926C158.068 224.331 164.101 231.661 170.442 233.213C175.083 234.363 178.454 237.587 179.926 242.322C181.451 247.218 179.752 252.943 177.143 256.381C181.156 257.652 185.116 262.427 186.4 265.223C188.206 254.843 193.811 248.435 203.482 248.435C204.753 248.435 206.091 248.529 207.482 248.716C207.722 248.756 207.977 248.77 208.217 248.743C209.408 248.663 212.525 248.208 215.896 245.787L216.123 245.626L216.391 245.559C216.471 245.533 218.477 245.051 221.273 245.051C227.012 245.051 237.312 246.777 237.539 261.544C240.776 256.033 249.137 254.829 249.137 254.829C253.109 255.324 252.949 253.01 252.949 253.01L260.654 231.139C265.657 224.799 267.556 220.264 268.279 217.83V184.174H191.242H191.256ZM175.124 230.965C172.274 231.514 169.8 229.039 170.348 226.19C170.656 224.611 171.953 223.314 173.532 223.006C176.381 222.458 178.856 224.933 178.307 227.782C178 229.36 176.702 230.658 175.124 230.965ZM162.63 218.967C161.653 219.127 160.556 219.515 159.633 219.475C161.372 218.699 163.459 218.351 165.265 217.562C174.428 214.138 182.441 207.65 187.31 199.102C189.383 195.731 190.533 191.986 192.259 188.441C192.299 188.374 192.42 188.414 192.379 188.494V188.521C188.687 203.878 178.441 215.689 162.616 218.953L162.63 218.967ZM188.38 252.85C187.938 253.706 187.069 254.241 186.106 254.241C185.691 254.241 185.29 254.147 184.929 253.946C184.327 253.639 183.872 253.104 183.671 252.448C183.457 251.793 183.524 251.097 183.832 250.495C184.273 249.639 185.143 249.104 186.106 249.104C186.507 249.104 186.922 249.198 187.283 249.385C187.885 249.706 188.34 250.228 188.554 250.883C188.768 251.539 188.701 252.234 188.38 252.836V252.85ZM243.131 249.345C240.281 249.893 237.807 247.419 238.355 244.569C238.663 242.991 239.96 241.693 241.539 241.386C244.388 240.837 246.863 243.312 246.314 246.161C246.006 247.74 244.709 249.037 243.131 249.345ZM249.953 231.273C249.953 234.577 247.264 237.266 243.96 237.266H204.392C202.492 237.266 200.807 236.37 199.723 234.992L197.65 233.467C190.868 228.451 186.975 220.826 186.975 212.519C186.975 204.212 190.855 196.614 197.61 191.611L199.255 190.394C200.285 188.602 202.185 187.398 204.392 187.398H243.96C247.264 187.398 249.953 190.086 249.953 193.39V231.3V231.273Z" fill="black"/>
<path d="M410.7 183.303V178.246C410.674 176.895 409.403 176.4 409.403 176.4H399.103C397.792 177.832 395.759 181.323 394.648 183.316H410.7V183.303Z" fill="black"/>
<path d="M214.785 248.862C212.337 250.722 209.649 251.203 208.632 251.324C208.364 251.35 208.097 251.35 207.843 251.31C192.179 249.103 188.701 258.079 187.885 266.413C187.912 266.479 187.912 266.52 187.912 266.52C188.326 272.231 192.379 276.552 192.379 276.552C198.921 284.257 216.578 279.04 216.578 279.04C216.578 279.04 232.937 274.118 236.629 264.46C236.83 263.925 236.763 263.59 236.83 262.961C236.87 262.547 236.736 261.597 236.683 261.196C235.238 249.183 228.724 247.057 223.119 246.575C220.163 246.321 217.153 247.083 214.785 248.862ZM232.162 267.175C232.162 267.175 229.847 270.573 224.296 273.636C218.544 276.82 208.552 278.358 205.154 277.863C201.756 277.368 197.449 278.358 193.142 272.566C188.835 266.76 191.978 254.093 196.62 254.922C196.62 254.922 200.098 259.805 205.234 259.31C205.234 259.31 203.415 272.646 218.825 272.325C218.825 272.325 206.96 266.252 211.04 258.574C211.04 258.574 214.852 255.337 214.692 251.444C214.692 251.444 215.936 249.13 219.748 249.29C219.748 249.29 228.122 248.381 231.105 254.012C234.088 259.644 234.168 262.961 232.188 267.188L232.162 267.175Z" fill="black"/>
<path d="M266.888 182.809C264.935 181.324 258.153 181.859 258.153 181.859C252.214 182.18 248.589 180.388 246.916 179.264C246.087 178.702 245.111 178.394 244.121 178.381L203.054 177.726C202.172 177.699 201.369 178.301 201.222 179.184C201.061 180.16 200.62 181.177 199.416 180.668C198.266 180.174 197.717 178.863 197.45 177.752C197.195 176.722 196.272 176 195.216 176H193.156C192.126 176 191.296 176.856 191.336 177.886L191.484 182.327L191.27 182.835H268.306L266.901 182.822L266.888 182.809ZM194.467 181.578C193.276 181.578 192.3 180.602 192.3 179.411C192.3 178.221 193.276 177.244 194.467 177.244C195.657 177.244 196.634 178.221 196.634 179.411C196.634 180.602 195.657 181.578 194.467 181.578Z" fill="black"/>
<path d="M244.429 246.897C244.75 246.469 244.937 245.934 244.937 245.358C244.937 243.914 243.773 242.75 242.329 242.75C241.834 242.75 241.379 242.897 240.978 243.138L244.429 246.897Z" fill="black"/>
<path d="M240.228 243.82C239.907 244.248 239.72 244.783 239.72 245.359C239.72 246.803 240.883 247.967 242.328 247.967C242.823 247.967 243.278 247.82 243.679 247.579L240.228 243.82Z" fill="black"/>
<path d="M176.436 228.532C176.757 228.103 176.944 227.568 176.944 226.993C176.944 225.549 175.78 224.385 174.335 224.385C173.84 224.385 173.386 224.532 172.984 224.773L176.436 228.532Z" fill="black"/>
<path d="M172.235 225.455C171.914 225.883 171.727 226.418 171.727 226.993C171.727 228.438 172.89 229.602 174.335 229.602C174.83 229.602 175.285 229.455 175.686 229.214L172.235 225.455Z" fill="black"/>
<path d="M310.803 210.806C310.335 209.201 307.299 208.76 307.299 208.76H275.703V215.756H306.884C307.031 215.756 307.192 215.756 307.339 215.756C312.128 215.635 310.803 210.806 310.803 210.806ZM306.148 212.759C305.801 213.442 304.971 213.696 304.289 213.348C303.607 213 303.353 212.171 303.7 211.489C304.048 210.806 304.878 210.552 305.56 210.9C306.242 211.248 306.496 212.077 306.148 212.759Z" fill="black"/>
<path d="M274.258 208.76H271.275V215.756H274.258V208.76Z" fill="black"/>
<path d="M195.684 180.052C195.791 179.852 195.858 179.651 195.858 179.41C195.858 178.635 195.23 178.006 194.454 178.006C194.253 178.006 194.079 178.046 193.905 178.113L195.671 180.039L195.684 180.052Z" fill="black"/>
<path d="M193.196 178.834C193.116 179.008 193.062 179.195 193.062 179.409C193.062 180.185 193.691 180.814 194.467 180.814C194.628 180.814 194.775 180.774 194.922 180.72L193.196 178.847V178.834Z" fill="black"/>
<path d="M187.338 252.34C187.445 252.14 187.525 251.912 187.525 251.672C187.525 250.882 186.883 250.24 186.094 250.24C185.893 250.24 185.692 250.294 185.519 250.361L187.338 252.34Z" fill="black"/>
<path d="M184.796 251.082C184.716 251.256 184.662 251.457 184.662 251.671C184.662 252.46 185.304 253.102 186.093 253.102C186.254 253.102 186.414 253.062 186.562 253.008L184.796 251.082Z" fill="black"/>
<path d="M414.205 202.098L414.165 200.68V200.546V188.962C413.87 185.872 411.503 184.935 410.874 184.748H398.755C399.156 188.159 399.384 192.038 399.384 196.038C399.384 199.355 399.236 202.539 398.942 205.535C405.122 205.535 409.269 205.522 410.045 205.535C410.045 205.535 413.001 205.509 413.656 204.158C414.312 202.833 414.205 202.111 414.205 202.111V202.098Z" fill="black"/>
<path d="M396.896 184.748H393.86L393.833 184.802L389.258 184.775L349.757 184.494H349.623C350.024 187.972 350.238 191.918 350.238 195.971C350.238 199.356 350.091 202.606 349.81 205.656C363.227 205.616 377.674 205.589 389.071 205.562C391.559 205.562 394.957 205.562 397.11 205.549C397.391 202.7 397.552 199.476 397.552 196.038C397.552 191.865 397.311 187.999 396.91 184.748H396.896Z" fill="black"/>
<path d="M153.896 217.561C160.53 216.571 174.215 210.365 179.258 203.395C181.211 200.707 182.909 197.804 184.622 194.995C186.374 192.119 187.244 190.126 188.019 188.199L187.524 187.945C187.163 187.731 186.815 187.571 186.468 187.437C182.321 185.738 180.448 189.39 180.448 189.39C175.94 194.58 170.362 191.263 170.362 191.263C166.296 188.199 160.744 187.45 160.744 187.45C156.852 187.116 154.966 188.935 154.966 188.935C153.615 190.955 155.741 191.169 155.741 191.169C159.915 190.086 168.944 196.694 168.944 196.694C170.603 197.817 171.713 198.861 172.476 199.837C175.218 203.328 173.84 205.308 173.84 205.308C173.639 206.646 171.713 208.398 170.188 208.278C168.663 208.157 165.935 208.626 164.664 209.508C160.651 212.304 155.942 216.397 155.942 216.397" fill="black"/>
<path d="M296.143 188.348H304.463C304.905 188.348 305.306 188.642 305.413 189.083C305.801 190.608 306.496 194.193 305.466 197.203C305.333 197.604 304.931 197.845 304.517 197.845H296.143C295.447 197.845 294.872 197.27 294.872 196.574V189.618C294.872 188.923 295.447 188.348 296.143 188.348Z" fill="black"/>
<path d="M317.104 188.348H309.894V197.845H317.104V188.348Z" fill="black"/>
<path d="M347.683 184.481L271.275 184.174V205.871H302.67C302.831 205.871 303.018 205.871 303.018 205.871C304.49 205.831 310.014 205.764 310.014 205.764C310.014 205.764 327.926 205.724 347.87 205.67C348.151 202.767 348.312 199.477 348.312 195.972C348.312 191.732 348.084 187.799 347.683 184.481ZM306.523 198.447L306.135 199.303H294.203C293.762 199.303 293.414 198.955 293.414 198.514V188.16C293.414 187.478 293.976 186.916 294.658 186.916H306.242L306.563 187.919C306.643 188.16 308.489 193.992 306.51 198.46L306.523 198.447ZM317.559 199.303H309.332C308.85 199.303 308.449 198.915 308.449 198.42V188.361C308.449 187.558 309.105 186.903 309.907 186.903H317.572C318.107 186.903 318.549 187.344 318.549 187.879V198.3C318.549 198.848 318.107 199.289 317.559 199.289V199.303ZM331.925 198.38L331.564 199.289H319.726V186.903H331.671L331.979 187.933C332.046 188.173 333.718 193.885 331.939 198.38H331.925Z" fill="black"/>
<path d="M322.173 188.348H329.637C330.199 188.348 330.694 188.736 330.814 189.284C331.149 190.796 331.644 193.899 330.948 196.681C330.774 197.364 330.159 197.845 329.463 197.845H323.003C321.732 197.845 321.17 197.283 321.17 196.588V189.351C321.17 188.789 321.625 188.348 322.173 188.348Z" fill="black"/>
<path d="M216.404 245.559C216.484 245.533 218.491 245.051 221.286 245.051C227.025 245.051 237.325 246.777 237.552 261.544C240.79 256.033 249.15 254.829 249.15 254.829C253.123 255.324 252.962 253.01 252.962 253.01L260.667 231.139C265.67 224.799 267.57 220.264 268.292 217.83V184.174H191.256L189.744 187.919C188.968 189.846 187.657 192.775 185.838 195.758L185.116 196.935C183.644 199.37 182.12 201.885 180.407 204.252C175.498 211.048 161.734 217.147 154.35 218.926C158.068 224.331 164.101 231.661 170.442 233.213C175.083 234.363 178.454 237.587 179.926 242.322C181.451 247.218 179.752 252.943 177.143 256.381C181.156 257.652 185.116 262.427 186.4 265.223C188.206 254.843 193.811 248.435 203.482 248.435C204.753 248.435 206.091 248.529 207.482 248.716C207.722 248.756 207.977 248.77 208.217 248.743C209.408 248.663 212.444 247.981 215.896 245.787L216.391 245.559H216.404ZM175.124 230.965C172.274 231.514 169.8 229.039 170.348 226.19C170.656 224.611 171.953 223.314 173.532 223.006C176.381 222.458 178.856 224.933 178.307 227.782C178 229.36 176.702 230.658 175.124 230.965ZM162.63 218.967C161.653 219.127 160.556 219.515 159.633 219.475C161.372 218.699 163.459 218.351 165.265 217.562C174.428 214.138 182.441 207.65 187.31 199.102C189.383 195.731 190.533 191.986 192.259 188.441C192.299 188.374 192.42 188.414 192.379 188.494V188.521C188.687 203.878 178.441 215.689 162.616 218.953L162.63 218.967ZM188.38 252.85C187.938 253.706 187.069 254.241 186.106 254.241C185.691 254.241 185.29 254.147 184.929 253.946C184.327 253.639 183.872 253.104 183.671 252.448C183.457 251.793 183.524 251.097 183.832 250.495C184.273 249.639 185.143 249.104 186.106 249.104C186.507 249.104 186.922 249.198 187.283 249.385C187.885 249.706 188.34 250.228 188.554 250.883C188.768 251.539 188.701 252.234 188.38 252.836V252.85ZM243.131 249.345C240.281 249.893 237.807 247.419 238.355 244.569C238.663 242.991 239.96 241.693 241.539 241.386C244.388 240.837 246.863 243.312 246.314 246.161C246.006 247.74 244.709 249.037 243.131 249.345ZM249.953 231.273C249.953 234.577 247.264 237.266 243.96 237.266H204.392C202.492 237.266 200.807 236.37 199.723 234.992L197.65 233.467C190.868 228.451 186.975 220.826 186.975 212.519C186.975 204.212 190.855 196.614 197.61 191.611L199.255 190.394C200.285 188.602 202.185 187.398 204.392 187.398H243.96C247.264 187.398 249.953 190.086 249.953 193.39V231.3V231.273Z" fill="black"/>
<path d="M410.7 183.303V178.246C410.674 176.895 409.403 176.4 409.403 176.4H399.103C397.792 177.832 395.759 181.323 394.648 183.316H410.7V183.303Z" fill="black"/>
<path d="M266.888 182.809C264.935 181.324 258.153 181.859 258.153 181.859C252.214 182.18 248.589 180.388 246.916 179.264C246.087 178.702 245.111 178.394 244.121 178.381L203.054 177.726C202.172 177.699 201.369 178.301 201.222 179.184C201.061 180.16 200.62 181.177 199.416 180.668C198.266 180.174 197.717 178.863 197.45 177.752C197.195 176.722 196.272 176 195.216 176H193.156C192.126 176 191.296 176.856 191.336 177.886L191.484 182.327L191.27 182.835H268.306L266.901 182.822L266.888 182.809ZM194.467 181.578C193.276 181.578 192.3 180.602 192.3 179.411C192.3 178.221 193.276 177.244 194.467 177.244C195.657 177.244 196.634 178.221 196.634 179.411C196.634 180.602 195.657 181.578 194.467 181.578Z" fill="black"/>
<path d="M244.429 246.897C244.75 246.469 244.937 245.934 244.937 245.358C244.937 243.914 243.773 242.75 242.329 242.75C241.834 242.75 241.379 242.897 240.978 243.138L244.429 246.897Z" fill="black"/>
<path d="M240.228 243.82C239.907 244.248 239.72 244.783 239.72 245.359C239.72 246.803 240.883 247.967 242.328 247.967C242.823 247.967 243.278 247.82 243.679 247.579L240.228 243.82Z" fill="black"/>
<path d="M176.436 228.532C176.757 228.103 176.944 227.568 176.944 226.993C176.944 225.549 175.78 224.385 174.335 224.385C173.84 224.385 173.386 224.532 172.984 224.773L176.436 228.532Z" fill="black"/>
<path d="M172.235 225.455C171.914 225.883 171.727 226.418 171.727 226.993C171.727 228.438 172.89 229.602 174.335 229.602C174.83 229.602 175.285 229.455 175.686 229.214L172.235 225.455Z" fill="black"/>
<path d="M310.803 210.806C310.335 209.201 307.299 208.76 307.299 208.76H275.703V215.756H306.884C307.031 215.756 307.192 215.756 307.339 215.756C312.128 215.635 310.803 210.806 310.803 210.806ZM306.148 212.759C305.801 213.442 304.971 213.696 304.289 213.348C303.607 213 303.353 212.171 303.7 211.489C304.048 210.806 304.878 210.552 305.56 210.9C306.242 211.248 306.496 212.077 306.148 212.759Z" fill="black"/>
<path d="M274.258 208.76H271.275V215.756H274.258V208.76Z" fill="black"/>
<path d="M195.684 180.052C195.791 179.852 195.858 179.651 195.858 179.41C195.858 178.635 195.23 178.006 194.454 178.006C194.253 178.006 194.079 178.046 193.905 178.113L195.671 180.039L195.684 180.052Z" fill="black"/>
<path d="M193.196 178.834C193.116 179.008 193.062 179.195 193.062 179.409C193.062 180.185 193.691 180.814 194.467 180.814C194.628 180.814 194.775 180.774 194.922 180.72L193.196 178.847V178.834Z" fill="black"/>
<path d="M187.338 252.34C187.445 252.14 187.525 251.912 187.525 251.672C187.525 250.882 186.883 250.24 186.094 250.24C185.893 250.24 185.692 250.294 185.519 250.361L187.338 252.34Z" fill="black"/>
<path d="M184.796 251.082C184.716 251.256 184.662 251.457 184.662 251.671C184.662 252.46 185.304 253.102 186.093 253.102C186.254 253.102 186.414 253.062 186.562 253.008L184.796 251.082Z" fill="black"/>
<path d="M211.348 193.283H246.849V198.406H211.348C209.93 198.406 208.779 197.256 208.779 195.838C208.779 194.42 209.93 193.27 211.348 193.27V193.283Z" fill="black"/>
<path d="M211.883 224.611C209.047 224.611 206.733 222.297 206.733 219.461C206.733 216.625 209.047 214.311 211.883 214.311H246.849V201.523V200.399H211.348C208.833 200.399 206.8 198.352 206.8 195.851C206.8 193.35 208.846 191.303 211.348 191.303H246.301C245.726 190.286 244.763 188.721 243.652 188.48H204.499C202.733 188.48 201.302 189.979 201.302 191.838V232.811C201.302 234.657 202.733 236.168 204.499 236.168H243.652C245.512 235.673 246.849 234.67 246.849 232.811V224.611H211.883Z" fill="black"/>
<path d="M211.882 216.305H246.822V222.632H211.882C210.144 222.632 208.726 221.214 208.726 219.475C208.726 217.736 210.144 216.318 211.882 216.318V216.305Z" fill="black"/>
<path d="M148.291 248.45C149.12 253.198 145.816 257.679 140.934 257.679C136.185 257.679 132.827 253.412 133.255 248.864C133.617 244.945 136.747 242.002 140.359 241.828C143.97 241.654 147.595 244.396 148.304 248.45H148.291Z" fill="black"/>
<path d="M125.484 260.861C129.109 263.751 134.46 266.533 141.536 268.393C143.502 268.914 144.693 270.84 144.345 272.793C142.686 282.01 138.78 306.596 141.295 322.127C141.549 323.678 140.345 325.083 138.727 325.083C131.316 325.096 112.682 324.668 103.519 320.214C102.663 319.799 102.155 318.943 102.182 318.02C102.463 311.064 103.988 281.876 116.441 262.721C118.247 259.938 122.862 258.775 125.484 260.861Z" fill="black"/>
<path d="M169.038 234.442C161.266 232.583 154.216 223.821 150.297 217.882C149.869 217.467 149.454 216.999 149.454 216.999C149.454 216.999 146.739 214.364 144.371 212.397C142.003 210.418 138.432 212.397 138.432 212.397C138.873 220.357 137 226.323 134.74 230.509C131.824 235.927 128.266 238.388 128.266 238.388C112.066 252.822 104.107 271.696 100.509 283.133C98.9706 288.042 98.0878 293.152 97.7132 298.276C96.4692 315.01 89.9681 321.792 89.9681 321.792L89.607 322.233C88.7642 323.397 88.8579 325.256 89.5267 326.661L89.607 326.835C91.3058 330.139 96.3889 331.61 96.3889 331.61L143.782 335.971C157.627 336.52 151.782 329.042 151.782 329.042L152.598 326.848L149.294 307.037C147.26 295.36 148.611 282.705 148.611 282.705C149.334 270.613 158.604 263.135 163.914 259.818C166.081 258.467 167.593 257.798 167.593 257.798C170.683 255.992 173.318 255.484 175.552 255.751C180.154 250.748 179.913 237.051 169.024 234.442H169.038ZM145.802 273.034C144.063 282.652 140.291 306.69 142.752 321.899C142.94 323.063 142.605 324.24 141.816 325.136C141.04 326.019 139.917 326.514 138.726 326.527H138.392C130.82 326.527 112.2 326.032 102.863 321.511C101.499 320.842 100.656 319.464 100.71 317.979C100.95 311.826 102.823 280.11 115.571 260.5C117.15 258.079 120.052 256.821 123.049 257.397C124.172 257.611 125.216 258.146 126.112 258.855C129.563 261.597 135.101 265.222 141.923 267.028C144.585 267.723 146.284 270.372 145.802 273.061V273.034ZM147.608 256.099C145.909 258.039 143.542 259.109 140.92 259.109C138.298 259.109 136.064 258.092 134.325 256.26C132.439 254.253 131.503 251.497 131.757 248.728C132.185 244.194 135.837 240.609 140.264 240.395C140.398 240.395 140.532 240.395 140.666 240.395C145.053 240.395 148.959 243.766 149.735 248.22C150.23 251.096 149.454 253.972 147.595 256.099H147.608ZM147.02 226.884C145.241 222.885 145.535 218.497 142.605 215.019C142.15 214.578 141.535 214.217 140.826 214.444L140.759 214.31C141.468 213.949 142.311 214.23 142.873 214.685C144.545 216.116 145.414 218.19 146.204 220.156C148.371 228.516 154.484 236.288 161.961 240.836L162.068 240.93C155.367 238.656 149.468 233.064 147.006 226.884H147.02Z" fill="black"/>
</svg>
