<svg width="512" height="512" viewBox="0 0 512 512" fill="none" xmlns="http://www.w3.org/2000/svg">
<path d="M377.069 118.947C374.573 114.704 372.978 113.601 372.012 114.282C371.218 114.833 368.798 117.25 368.798 117.25C368.417 117.686 368.102 118.023 367.831 118.303L373.589 128.277C376.134 127.842 379.103 126.777 379.103 126.777C382.66 127.241 379.565 123.19 377.075 118.958L377.069 118.947Z" fill="black"/>
<path d="M373.088 130.326L372.344 129.118L372.277 129.002L366.485 118.97C364.686 116.441 362.167 116.814 361.529 116.966L351.033 123.025C353.086 125.779 355.223 129.025 357.223 132.488C358.881 135.361 360.346 138.192 361.589 140.934C366.941 137.844 370.526 135.759 371.204 135.383C371.204 135.383 373.751 133.882 373.643 132.384C373.549 130.909 373.095 130.337 373.095 130.337L373.088 130.326Z" fill="black"/>
<path d="M349.423 123.955L346.794 125.473L346.797 125.533L342.822 127.797L308.472 147.304L308.356 147.371C310.443 150.182 312.601 153.493 314.628 157.003C316.32 159.934 317.818 162.822 319.1 165.604C330.699 158.861 343.197 151.614 353.053 145.893C355.208 144.649 358.151 142.95 360.009 141.862C358.828 139.254 357.355 136.381 355.636 133.404C353.549 129.79 351.408 126.562 349.435 123.948L349.423 123.955Z" fill="black"/>
<path d="M155.385 273.873C160.636 269.698 169.384 257.481 170.266 248.924C170.613 245.619 170.633 242.256 170.712 238.967C170.791 235.6 170.548 233.439 170.256 231.383L169.701 231.411C169.281 231.406 168.899 231.441 168.531 231.499C164.091 232.101 164.295 236.2 164.295 236.2C162.986 242.949 156.496 242.865 156.496 242.865C151.443 242.245 146.261 244.372 146.261 244.372C142.723 246.029 141.999 248.547 141.999 248.547C141.839 250.972 143.788 250.094 143.788 250.094C146.86 247.069 157.984 248.277 157.984 248.277C159.982 248.421 161.465 248.769 162.614 249.234C166.734 250.886 166.531 253.289 166.531 253.289C167.026 254.548 166.234 257.029 164.853 257.687C163.473 258.345 161.343 260.115 160.684 261.515C158.607 265.943 156.576 271.842 156.576 271.842" fill="black"/>
<path d="M263.968 177.449L271.173 173.288C271.556 173.068 272.05 173.122 272.364 173.451C273.462 174.577 275.857 177.334 276.47 180.456C276.555 180.87 276.327 181.279 275.968 181.487L268.716 185.674C268.114 186.021 267.328 185.811 266.981 185.208L263.503 179.185C263.155 178.582 263.365 177.796 263.968 177.449Z" fill="black"/>
<path d="M282.121 166.967L275.877 170.572L280.626 178.797L286.87 175.192L282.121 166.967Z" fill="black"/>
<path d="M306.67 148.33L240.346 186.268L251.194 205.058L278.383 189.36C278.522 189.28 278.684 189.186 278.684 189.186C279.938 188.416 284.689 185.596 284.689 185.596C284.689 185.596 300.181 176.605 317.427 166.587C316.219 163.932 314.712 161.002 312.96 157.967C310.84 154.295 308.677 151.003 306.67 148.33ZM278.007 181.005L278.099 181.94L267.766 187.906C267.384 188.127 266.909 187.999 266.688 187.617L261.511 178.651C261.17 178.06 261.376 177.292 261.967 176.951L271.999 171.159L272.778 171.867C272.968 172.036 277.483 176.164 278.002 181.023L278.007 181.005ZM287.993 176.228L280.868 180.341C280.451 180.582 279.91 180.447 279.662 180.018L274.633 171.307C274.231 170.612 274.471 169.716 275.166 169.315L281.804 165.483C282.268 165.215 282.871 165.377 283.138 165.84L288.348 174.864C288.623 175.339 288.461 175.942 287.986 176.216L287.993 176.228ZM299.973 168.245L300.115 169.214L289.863 175.133L283.669 164.406L294.014 158.433L294.796 159.171C294.974 159.346 299.278 163.457 299.985 168.239L299.973 168.245Z" fill="black"/>
<path d="M286.511 164.432L292.976 160.7C293.462 160.419 294.085 160.507 294.463 160.922C295.509 162.064 297.489 164.504 298.278 167.262C298.468 167.939 298.176 168.664 297.574 169.012L291.978 172.242C290.878 172.878 290.11 172.672 289.763 172.07L286.144 165.802C285.863 165.316 286.036 164.706 286.511 164.432Z" fill="black"/>
<path d="M182.407 230.328C182.3 230.143 182.241 229.961 182.164 229.774C178.795 236.94 178.724 245.244 182.763 252.241C186.803 259.238 194.067 263.339 201.981 263.991C201.756 263.734 201.554 263.465 201.38 263.164L182.419 230.322L182.407 230.328Z" fill="black"/>
<path d="M171.047 226.277L171.61 230.277C171.902 232.333 172.231 235.525 172.147 239.018L172.11 240.399C172.053 243.243 171.99 246.183 171.691 249.09C170.837 257.43 161.966 269.594 156.461 274.827C162.384 277.648 171.274 280.98 177.541 279.153C182.136 277.829 186.667 278.935 190.309 282.3C194.077 285.778 195.469 291.585 194.929 295.867C199.039 294.961 204.856 297.117 207.366 298.896C203.74 289.003 205.39 280.652 213.766 275.816C214.866 275.181 216.071 274.593 217.37 274.06C217.598 273.974 217.825 273.859 218.02 273.715C219.011 273.05 221.483 271.098 223.192 267.316L223.309 267.063L223.507 266.871C223.563 266.808 225.06 265.388 227.481 263.99C232.451 261.121 242.234 257.465 249.814 270.141C249.862 263.749 256.501 258.526 256.501 258.526C260.189 256.969 258.893 255.045 258.893 255.045L254.63 232.252C255.792 224.259 255.17 219.382 254.578 216.913L237.75 187.766L171.035 226.284L171.047 226.277ZM180.472 274.866C178.278 276.766 174.898 275.86 173.948 273.118C173.425 271.597 173.9 269.825 175.113 268.769C177.307 266.87 180.687 267.776 181.637 270.517C182.16 272.038 181.685 273.811 180.472 274.866ZM163.652 270.722C162.887 271.349 162.131 272.233 161.311 272.66C162.429 271.119 164.063 269.774 165.232 268.188C171.455 260.641 175.15 251.016 175.093 241.179C175.204 237.223 174.327 233.404 174.049 229.471C174.05 229.393 174.175 229.368 174.18 229.457L174.193 229.481C178.674 244.626 175.706 259.978 163.634 270.717L163.652 270.722ZM202.894 287.19C202.94 288.152 202.454 289.051 201.62 289.532C201.261 289.739 200.867 289.859 200.454 289.866C199.778 289.9 199.117 289.664 198.615 289.197C198.102 288.736 197.813 288.101 197.778 287.425C197.732 286.463 198.218 285.565 199.052 285.084C199.399 284.883 199.805 284.757 200.212 284.738C200.894 284.715 201.548 284.94 202.061 285.4C202.574 285.861 202.864 286.497 202.887 287.179L202.894 287.19ZM248.557 256.78C246.364 258.679 242.983 257.774 242.034 255.032C241.511 253.511 241.986 251.739 243.199 250.683C245.392 248.783 248.773 249.689 249.722 252.431C250.245 253.952 249.77 255.724 248.557 256.78ZM245.429 237.718C247.081 240.579 246.097 244.252 243.236 245.904L208.969 265.688C207.324 266.638 205.416 266.705 203.789 266.053L201.231 265.769C192.849 264.816 185.666 260.159 181.512 252.965C177.359 245.771 176.919 237.252 180.268 229.541L181.084 227.665C181.08 225.597 182.123 223.605 184.035 222.501L218.302 202.717C221.163 201.065 224.836 202.049 226.488 204.911L245.443 237.741L245.429 237.718Z" fill="black"/>
<path d="M360.656 115.801L358.128 111.422C357.429 110.266 356.081 110.472 356.081 110.472L347.161 115.622C346.742 117.517 346.727 121.558 346.762 123.839L360.663 115.813L360.656 115.801Z" fill="black"/>
<path d="M223.769 270.535C222.578 273.369 220.491 275.13 219.67 275.743C219.452 275.9 219.22 276.034 218.98 276.126C204.311 282.047 205.787 291.559 209.247 299.184C209.304 299.229 209.324 299.263 209.324 299.263C212.539 304.003 218.209 305.718 218.209 305.718C227.727 309.12 240.41 295.773 240.41 295.773C240.41 295.773 252.116 283.33 250.485 273.12C250.391 272.557 250.166 272.301 249.909 271.723C249.737 271.343 249.146 270.588 248.899 270.267C241.642 260.586 234.937 262.002 229.842 264.387C227.155 265.645 224.93 267.81 223.769 270.535ZM247.973 277.706C247.973 277.706 247.668 281.806 244.392 287.234C241.003 292.867 233.118 299.196 229.928 300.466C226.738 301.736 223.503 304.747 216.877 301.884C210.244 299.01 206.632 286.468 211.067 284.865C211.067 284.865 216.52 287.355 220.721 284.358C220.721 284.358 225.814 296.817 238.999 288.834C238.999 288.834 225.687 289.507 225.381 280.818C225.381 280.818 227.064 276.108 224.978 272.818C224.978 272.818 224.899 270.191 228.281 268.424C228.281 268.424 235.078 263.45 240.477 266.835C245.876 270.221 247.604 273.054 248.003 277.704L247.973 277.706Z" fill="black"/>
<path d="M235.863 187.279C233.43 186.969 227.824 190.824 227.824 190.824C222.841 194.071 218.805 194.332 216.795 194.195C215.796 194.123 214.797 194.345 213.933 194.828L178.04 214.793C177.262 215.212 176.868 216.134 177.182 216.972C177.532 217.898 177.658 218.999 176.361 219.161C175.117 219.308 173.987 218.447 173.2 217.619C172.465 216.854 171.304 216.69 170.389 217.218L168.605 218.248C167.713 218.763 167.423 219.919 167.973 220.791L170.321 224.564L170.389 225.111L237.105 186.593L235.882 187.284L235.863 187.279ZM172.529 222.424C171.498 223.019 170.164 222.661 169.569 221.63C168.974 220.599 169.331 219.266 170.362 218.67C171.393 218.075 172.727 218.432 173.323 219.463C173.918 220.494 173.56 221.828 172.529 222.424Z" fill="black"/>
<path d="M248.457 254.01C248.521 253.479 248.415 252.922 248.128 252.424C247.405 251.173 245.816 250.747 244.565 251.469C244.136 251.716 243.816 252.071 243.588 252.48L248.457 254.01Z" fill="black"/>
<path d="M243.281 253.447C243.217 253.978 243.322 254.535 243.61 255.033C244.332 256.285 245.922 256.71 247.173 255.988C247.602 255.741 247.922 255.386 248.149 254.977L243.281 253.447Z" fill="black"/>
<path d="M180.389 272.102C180.453 271.571 180.348 271.014 180.06 270.516C179.338 269.264 177.748 268.838 176.497 269.561C176.069 269.808 175.748 270.163 175.521 270.572L180.389 272.102Z" fill="black"/>
<path d="M175.214 271.537C175.15 272.068 175.255 272.625 175.543 273.123C176.265 274.374 177.855 274.8 179.106 274.078C179.534 273.831 179.855 273.476 180.082 273.067L175.214 271.537Z" fill="black"/>
<path d="M287.894 189.568C286.686 188.412 283.835 189.548 283.835 189.548L256.473 205.346L259.971 211.404L286.974 195.814C287.102 195.74 287.241 195.66 287.368 195.587C291.455 193.088 287.894 189.568 287.894 189.568ZM284.839 193.587C284.879 194.352 284.288 194.986 283.523 195.026C282.758 195.066 282.123 194.475 282.083 193.71C282.044 192.946 282.635 192.311 283.399 192.271C284.164 192.231 284.799 192.822 284.839 193.587Z" fill="black"/>
<path d="M255.222 206.067L252.639 207.559L256.137 213.617L258.72 212.126L255.222 206.067Z" fill="black"/>
<path d="M172.821 220.492C172.813 220.265 172.771 220.058 172.65 219.849C172.263 219.177 171.404 218.947 170.732 219.335C170.558 219.435 170.428 219.557 170.31 219.702L172.803 220.487L172.821 220.492Z" fill="black"/>
<path d="M170.057 220.683C170.075 220.874 170.122 221.063 170.229 221.248C170.617 221.92 171.476 222.15 172.148 221.762C172.287 221.682 172.394 221.574 172.495 221.454L170.064 220.695L170.057 220.683Z" fill="black"/>
<path d="M201.736 287.27C201.728 287.043 201.684 286.806 201.564 286.598C201.169 285.914 200.292 285.679 199.608 286.074C199.435 286.174 199.288 286.321 199.171 286.466L201.736 287.27Z" fill="black"/>
<path d="M198.906 287.451C198.923 287.641 198.977 287.842 199.084 288.027C199.479 288.711 200.356 288.946 201.04 288.551C201.179 288.471 201.297 288.356 201.398 288.236L198.906 287.451Z" fill="black"/>
<path d="M373.088 130.326L372.344 129.118L372.277 129.002L366.485 118.97C364.686 116.441 362.167 116.814 361.529 116.966L351.033 123.025C353.086 125.779 355.223 129.025 357.223 132.488C358.881 135.361 360.346 138.192 361.589 140.934C366.941 137.844 370.526 135.759 371.204 135.383C371.204 135.383 373.751 133.882 373.643 132.384C373.549 130.909 373.095 130.337 373.095 130.337L373.088 130.326Z" fill="black"/>
<path d="M349.423 123.955L346.794 125.473L346.797 125.533L342.822 127.797L308.472 147.304L308.356 147.371C310.443 150.182 312.601 153.493 314.628 157.003C316.32 159.934 317.818 162.822 319.1 165.604C330.699 158.861 343.197 151.614 353.053 145.893C355.208 144.649 358.151 142.95 360.009 141.862C358.828 139.254 357.355 136.381 355.636 133.404C353.549 129.79 351.408 126.562 349.435 123.948L349.423 123.955Z" fill="black"/>
<path d="M155.385 273.873C160.636 269.698 169.384 257.481 170.266 248.924C170.613 245.619 170.633 242.256 170.712 238.967C170.791 235.6 170.548 233.439 170.256 231.383L169.701 231.411C169.281 231.406 168.899 231.441 168.531 231.499C164.091 232.101 164.295 236.2 164.295 236.2C162.986 242.949 156.496 242.865 156.496 242.865C151.443 242.245 146.261 244.372 146.261 244.372C142.723 246.029 141.999 248.547 141.999 248.547C141.839 250.972 143.788 250.094 143.788 250.094C146.86 247.069 157.984 248.277 157.984 248.277C159.982 248.421 161.465 248.769 162.614 249.234C166.734 250.886 166.531 253.289 166.531 253.289C167.026 254.548 166.234 257.029 164.853 257.687C163.473 258.345 161.343 260.115 160.684 261.515C158.607 265.943 156.576 271.842 156.576 271.842" fill="black"/>
<path d="M263.968 177.449L271.173 173.288C271.556 173.068 272.05 173.122 272.364 173.451C273.462 174.577 275.857 177.334 276.47 180.456C276.555 180.87 276.327 181.279 275.968 181.487L268.716 185.674C268.114 186.021 267.328 185.811 266.981 185.208L263.503 179.185C263.155 178.582 263.365 177.796 263.968 177.449Z" fill="black"/>
<path d="M282.121 166.967L275.877 170.572L280.626 178.797L286.87 175.192L282.121 166.967Z" fill="black"/>
<path d="M306.67 148.33L240.346 186.268L251.194 205.058L278.383 189.36C278.522 189.28 278.684 189.186 278.684 189.186C279.938 188.416 284.689 185.596 284.689 185.596C284.689 185.596 300.181 176.605 317.427 166.587C316.219 163.932 314.712 161.002 312.96 157.967C310.84 154.295 308.677 151.003 306.67 148.33ZM278.007 181.005L278.099 181.94L267.766 187.906C267.384 188.127 266.909 187.999 266.688 187.617L261.511 178.651C261.17 178.06 261.376 177.292 261.967 176.951L271.999 171.159L272.778 171.867C272.968 172.036 277.483 176.164 278.002 181.023L278.007 181.005ZM287.993 176.228L280.868 180.341C280.451 180.582 279.91 180.447 279.662 180.018L274.633 171.307C274.231 170.612 274.471 169.716 275.166 169.315L281.804 165.483C282.268 165.215 282.871 165.377 283.138 165.84L288.348 174.864C288.623 175.339 288.461 175.942 287.986 176.216L287.993 176.228ZM299.973 168.245L300.115 169.214L289.863 175.133L283.669 164.406L294.014 158.433L294.796 159.171C294.974 159.346 299.278 163.457 299.985 168.239L299.973 168.245Z" fill="black"/>
<path d="M286.511 164.432L292.976 160.7C293.462 160.419 294.085 160.507 294.463 160.922C295.509 162.064 297.489 164.504 298.278 167.262C298.468 167.939 298.176 168.664 297.574 169.012L291.978 172.242C290.878 172.878 290.11 172.672 289.763 172.07L286.144 165.802C285.863 165.316 286.036 164.706 286.511 164.432Z" fill="black"/>
<path d="M223.518 266.865C223.574 266.801 225.071 265.381 227.493 263.983C232.462 261.114 242.245 257.458 249.826 270.134C249.874 263.743 256.512 258.52 256.512 258.52C260.2 256.962 258.904 255.038 258.904 255.038L254.642 232.245C255.804 224.252 255.182 219.376 254.59 216.906L237.762 187.759L171.047 226.277L171.61 230.277C171.902 232.333 172.231 235.525 172.147 239.018L172.11 240.399C172.053 243.243 171.99 246.183 171.691 249.09C170.837 257.43 161.966 269.594 156.461 274.827C162.384 277.648 171.274 280.98 177.541 279.153C182.136 277.829 186.667 278.935 190.309 282.3C194.077 285.778 195.469 291.585 194.929 295.867C199.039 294.961 204.856 297.117 207.366 298.896C203.74 289.003 205.39 280.652 213.766 275.816C214.866 275.181 216.071 274.593 217.37 274.06C217.598 273.974 217.825 273.859 218.02 273.715C219.011 273.05 221.3 270.941 223.192 267.316L223.507 266.871L223.518 266.865ZM180.472 274.866C178.278 276.766 174.898 275.86 173.948 273.118C173.425 271.597 173.9 269.825 175.113 268.769C177.307 266.87 180.687 267.776 181.637 270.517C182.16 272.038 181.685 273.811 180.472 274.866ZM163.652 270.722C162.887 271.349 162.131 272.233 161.311 272.66C162.429 271.119 164.063 269.774 165.232 268.188C171.455 260.641 175.15 251.016 175.093 241.179C175.204 237.223 174.327 233.404 174.049 229.471C174.05 229.393 174.175 229.368 174.18 229.457L174.193 229.481C178.674 244.626 175.706 259.978 163.634 270.717L163.652 270.722ZM202.894 287.19C202.94 288.152 202.454 289.051 201.62 289.532C201.261 289.739 200.867 289.859 200.454 289.866C199.778 289.9 199.117 289.664 198.615 289.197C198.102 288.736 197.813 288.101 197.778 287.425C197.732 286.463 198.218 285.565 199.052 285.084C199.399 284.883 199.805 284.757 200.212 284.738C200.894 284.715 201.548 284.94 202.061 285.4C202.574 285.861 202.864 286.497 202.887 287.179L202.894 287.19ZM248.557 256.78C246.364 258.679 242.983 257.774 242.034 255.032C241.511 253.511 241.986 251.739 243.199 250.683C245.392 248.783 248.773 249.689 249.722 252.431C250.245 253.952 249.77 255.724 248.557 256.78ZM245.429 237.718C247.081 240.579 246.097 244.252 243.236 245.904L208.969 265.688C207.324 266.638 205.416 266.705 203.789 266.053L201.231 265.769C192.849 264.816 185.666 260.159 181.512 252.965C177.359 245.771 176.919 237.252 180.268 229.541L181.084 227.665C181.08 225.597 182.123 223.605 184.035 222.501L218.302 202.717C221.163 201.065 224.836 202.049 226.488 204.911L245.443 237.741L245.429 237.718Z" fill="black"/>
<path d="M360.656 115.801L358.128 111.422C357.429 110.266 356.081 110.472 356.081 110.472L347.161 115.622C346.742 117.517 346.727 121.558 346.762 123.839L360.663 115.813L360.656 115.801Z" fill="black"/>
<path d="M235.863 187.279C233.43 186.969 227.824 190.824 227.824 190.824C222.841 194.071 218.805 194.332 216.795 194.195C215.796 194.123 214.797 194.345 213.933 194.828L178.04 214.793C177.262 215.212 176.868 216.134 177.182 216.972C177.532 217.898 177.658 218.999 176.361 219.161C175.117 219.308 173.987 218.447 173.2 217.619C172.465 216.854 171.304 216.69 170.389 217.218L168.605 218.248C167.713 218.763 167.423 219.919 167.973 220.791L170.321 224.564L170.389 225.111L237.105 186.593L235.882 187.284L235.863 187.279ZM172.529 222.424C171.498 223.019 170.164 222.661 169.569 221.63C168.974 220.599 169.331 219.266 170.362 218.67C171.393 218.075 172.727 218.432 173.323 219.463C173.918 220.494 173.56 221.828 172.529 222.424Z" fill="black"/>
<path d="M248.457 254.01C248.521 253.479 248.415 252.922 248.128 252.424C247.405 251.173 245.816 250.747 244.565 251.469C244.136 251.716 243.816 252.071 243.588 252.48L248.457 254.01Z" fill="black"/>
<path d="M243.281 253.447C243.217 253.978 243.322 254.535 243.61 255.033C244.332 256.285 245.922 256.71 247.173 255.988C247.602 255.741 247.922 255.386 248.149 254.977L243.281 253.447Z" fill="black"/>
<path d="M180.389 272.102C180.453 271.571 180.348 271.014 180.06 270.516C179.338 269.264 177.748 268.838 176.497 269.561C176.069 269.808 175.748 270.163 175.521 270.572L180.389 272.102Z" fill="black"/>
<path d="M175.214 271.537C175.15 272.068 175.255 272.625 175.543 273.123C176.265 274.374 177.855 274.8 179.106 274.078C179.534 273.831 179.855 273.476 180.082 273.067L175.214 271.537Z" fill="black"/>
<path d="M287.894 189.568C286.686 188.412 283.835 189.548 283.835 189.548L256.473 205.346L259.971 211.404L286.974 195.814C287.102 195.74 287.241 195.66 287.368 195.587C291.455 193.088 287.894 189.568 287.894 189.568ZM284.839 193.587C284.879 194.352 284.288 194.986 283.523 195.026C282.758 195.066 282.123 194.475 282.083 193.71C282.044 192.946 282.635 192.311 283.399 192.271C284.164 192.231 284.799 192.822 284.839 193.587Z" fill="black"/>
<path d="M255.222 206.067L252.639 207.559L256.137 213.617L258.72 212.126L255.222 206.067Z" fill="black"/>
<path d="M172.821 220.492C172.813 220.265 172.771 220.058 172.65 219.849C172.263 219.177 171.404 218.947 170.732 219.335C170.558 219.435 170.428 219.557 170.31 219.702L172.803 220.487L172.821 220.492Z" fill="black"/>
<path d="M170.057 220.683C170.075 220.874 170.122 221.063 170.229 221.248C170.617 221.92 171.476 222.15 172.148 221.762C172.287 221.682 172.394 221.574 172.495 221.454L170.064 220.695L170.057 220.683Z" fill="black"/>
<path d="M201.736 287.27C201.728 287.043 201.684 286.806 201.564 286.598C201.169 285.914 200.292 285.679 199.608 286.074C199.435 286.174 199.288 286.321 199.171 286.466L201.736 287.27Z" fill="black"/>
<path d="M198.906 287.451C198.923 287.641 198.977 287.842 199.084 288.027C199.479 288.711 200.356 288.946 201.04 288.551C201.179 288.471 201.297 288.356 201.398 288.236L198.906 287.451Z" fill="black"/>
<path d="M193.001 224.12L223.747 206.369L226.308 210.806L195.563 228.557C194.335 229.266 192.764 228.845 192.055 227.617C191.346 226.389 191.767 224.817 192.995 224.108L193.001 224.12Z" fill="black"/>
<path d="M209.129 250.984C206.673 252.402 203.512 251.555 202.094 249.099C200.676 246.643 201.523 243.482 203.979 242.064L234.261 224.58L227.867 213.506L227.305 212.532L196.56 230.283C194.382 231.541 191.598 230.785 190.347 228.619C189.096 226.452 189.845 223.656 192.012 222.406L222.282 204.929C221.276 204.336 219.659 203.463 218.577 203.809L184.669 223.386C183.14 224.269 182.649 226.282 183.579 227.892L204.066 263.375C204.989 264.974 206.984 265.568 208.513 264.685L242.421 245.108C243.784 243.75 244.441 242.212 243.511 240.602L239.411 233.5L209.129 250.984Z" fill="black"/>
<path d="M204.975 243.789L235.234 226.319L238.398 231.798L208.139 249.268C206.633 250.138 204.696 249.619 203.826 248.113C202.957 246.607 203.476 244.67 204.982 243.8L204.975 243.789Z" fill="black"/>
<path d="M165.975 303.424C169.067 307.122 168.447 312.654 164.218 315.096C160.106 317.47 155.065 315.453 153.161 311.301C151.514 307.726 152.754 303.612 155.795 301.656C158.835 299.699 163.346 300.261 165.986 303.417L165.975 303.424Z" fill="black"/>
<path d="M152.43 325.577C157.014 326.266 163.039 326.001 170.097 324.073C172.061 323.541 174.055 324.614 174.73 326.48C177.902 335.291 186.813 358.536 196.756 370.728C197.752 371.945 197.411 373.763 196.01 374.573C189.598 378.29 173.247 387.236 163.085 387.96C162.136 388.028 161.268 387.541 160.829 386.728C157.595 380.564 144.321 354.524 145.529 331.708C145.701 328.396 149.116 325.08 152.43 325.577Z" fill="black"/>
<path d="M176.939 280.92C169.279 283.196 158.793 279.133 152.429 275.949C151.851 275.804 151.258 275.606 151.258 275.606C151.258 275.606 147.588 274.682 144.555 274.162C141.514 273.632 139.411 277.132 139.411 277.132C143.773 283.804 145.134 289.907 145.27 294.663C145.453 300.813 143.602 304.724 143.602 304.724C136.79 325.323 139.335 345.649 141.937 357.352C143.059 362.373 144.85 367.24 147.087 371.864C154.377 386.978 152.138 396.102 152.138 396.102L152.046 396.665C151.898 398.094 152.908 399.658 154.19 400.54L154.346 400.65C157.47 402.662 162.607 401.395 162.607 401.395L205.832 381.475C218.096 375.027 209.295 371.474 209.295 371.474L208.905 369.166L196.138 353.662C188.538 344.565 183.381 332.931 183.381 332.931C177.96 322.097 182.25 310.986 185.19 305.458C186.391 303.204 187.366 301.869 187.366 301.869C189.139 298.76 191.167 297.003 193.235 296.117C194.719 289.484 187.661 277.742 176.927 280.927L176.939 280.92ZM176.113 325.959C179.415 335.158 188.168 357.862 197.904 369.803C198.648 370.717 198.947 371.904 198.711 373.074C198.481 374.227 197.755 375.217 196.731 375.824L196.441 375.991C189.884 379.777 173.511 388.658 163.165 389.411C161.649 389.514 160.23 388.742 159.534 387.43C156.666 381.981 142.43 353.577 143.665 330.22C143.821 327.334 145.706 324.794 148.589 323.794C149.669 323.418 150.84 323.359 151.97 323.525C156.33 324.174 162.939 324.545 169.75 322.698C172.403 321.969 175.199 323.413 176.126 325.983L176.113 325.959ZM169.209 310.391C168.708 312.92 167.192 315.03 164.922 316.341C162.651 317.652 160.208 317.889 157.786 317.171C155.149 316.376 152.96 314.458 151.796 311.933C149.899 307.792 151.27 302.861 154.997 300.462C155.113 300.395 155.229 300.328 155.345 300.262C159.144 298.068 164.212 299.034 167.112 302.504C168.978 304.747 169.744 307.626 169.197 310.397L169.209 310.391ZM154.092 285.384C150.551 282.81 148.612 278.863 144.337 277.316C143.722 277.161 143.008 277.156 142.508 277.707L142.383 277.625C142.817 276.958 143.687 276.78 144.401 276.892C146.565 277.296 148.354 278.657 150.021 279.965C156.078 286.122 165.258 289.796 174.008 289.996L174.147 290.024C167.206 291.405 159.302 289.512 154.08 285.391L154.092 285.384Z" fill="black"/>
</svg>
