<svg width="512" height="512" viewBox="0 0 512 512" fill="none" xmlns="http://www.w3.org/2000/svg">
<path d="M321.966 167.349C321.35 166.281 319.526 165.793 318.459 166.409L314.012 168.976L315.45 171.467L311.714 173.623L310.276 171.133L305.563 173.855L307 176.345L303.265 178.501L301.827 176.011L297.113 178.733L298.551 181.223L294.816 183.38L293.378 180.889L288.664 183.611L290.102 186.101L286.367 188.258L284.929 185.767L280.215 188.489L281.653 190.979L277.917 193.136L276.48 190.646L271.766 193.367L273.204 195.857L269.468 198.014L268.031 195.524L262.872 198.502L281.922 231.498L336.975 199.713C338.31 198.943 339.027 197.106 338.206 195.683L321.877 167.4L321.966 167.349ZM292.877 197.069L303.194 191.113L304.272 192.98L293.955 198.937L292.877 197.069ZM275.698 206.75L286.193 200.691L287.117 202.292L276.622 208.351L275.698 206.75ZM327.701 190.838C328.266 191.816 327.927 193.079 326.949 193.644L284.614 218.086C283.636 218.65 282.373 218.312 281.808 217.334L281.5 216.8C280.936 215.822 281.274 214.559 282.252 213.994L324.676 189.501C325.654 188.936 326.917 189.275 327.482 190.253L327.79 190.787L327.701 190.838ZM311.435 188.133L310.422 186.584L321.45 180.217L322.463 181.766L311.435 188.133Z" fill="black"/>
<path fill-rule="evenodd" clip-rule="evenodd" d="M185.555 236.5L257.773 194.805L251.047 183.154C250.482 182.176 249.308 181.786 248.278 182.262C240.715 185.799 180.286 214.639 160.876 223.948C157.661 225.568 156.239 229.472 157.591 232.841C158.505 235.041 159.177 237.025 158.554 237.385L157.398 238.052C156.509 238.566 156.156 239.599 156.352 240.553L159.496 251.545L185.555 236.5ZM186.333 219.568L242.841 191.33C244.227 190.649 246.355 190.843 247.088 192.318L248.063 194.007C248.656 195.444 248.116 197.179 246.59 197.823L193.391 228.3C192.45 228.725 191.444 228.831 190.425 228.708C189.265 228.548 188.269 228.055 187.526 227.18L186.732 226.215C186.232 225.555 185.822 224.843 185.729 224.067C185.263 222.438 185.536 220.858 186.333 219.568ZM166.628 225.489C168.941 224.154 171.798 224.995 173.081 227.219C174.416 229.531 173.576 232.388 171.352 233.672C169.04 235.007 166.183 234.166 164.899 231.943C163.615 229.719 164.405 226.773 166.628 225.489Z" fill="black"/>
<path fill-rule="evenodd" clip-rule="evenodd" d="M193.104 249.575C192.57 249.883 191.868 249.695 191.56 249.162L185.655 238.934L258.852 196.674L265.373 207.969L193.155 249.664L193.104 249.575Z" fill="black"/>
<path fill-rule="evenodd" clip-rule="evenodd" d="M203.722 288.506L181.398 301.395C195.695 308.082 183.509 354.962 180.83 365.521C180.529 366.644 181.248 367.889 182.371 368.19L182.511 368.227C194.712 370.669 211.946 361.905 215.682 359.749C216.126 359.492 216.66 359.184 216.441 358.599C215.643 356.806 213.118 356.13 212.245 354.618C210.485 351.365 211.476 347.946 214.267 345.386C214.876 344.798 214.821 343.881 214.284 343.361C214.232 343.272 214.232 343.272 214.092 343.234C212.2 341.599 211.005 339.325 210.765 336.855C210.511 334.155 211.454 331.476 213.407 329.518C213.927 328.981 213.923 328.153 213.386 327.633C212.195 326.186 211.397 324.394 211.236 322.471C210.865 319.365 212.202 316.34 214.754 314.392C214.746 312.736 215.314 311.46 216.288 310.067L203.722 288.506ZM194.509 364.976L185.044 362.14L187.348 344.563L187.076 360.729L194.509 364.976Z" fill="black"/>
<path fill-rule="evenodd" clip-rule="evenodd" d="M212.409 248.507L163.671 276.646C163.226 276.903 162.987 277.515 163.155 278.011L163.206 278.1L166.441 283.703C166.698 284.148 167.31 284.387 167.806 284.22L167.895 284.168L216.633 256.029C217.078 255.772 217.317 255.16 217.15 254.664L217.098 254.575L213.863 248.972C213.644 248.387 212.943 248.199 212.409 248.507Z" fill="black"/>
<path d="M167.605 293.112C168.405 292.65 169.387 292.913 169.849 293.713C170.311 294.514 170.048 295.496 169.248 295.958C168.447 296.42 167.465 296.157 167.003 295.357C166.541 294.556 166.804 293.574 167.605 293.112Z" fill="black"/>
<path fill-rule="evenodd" clip-rule="evenodd" d="M240.408 274.203C238.765 271.357 235.118 270.379 232.272 272.023L205.59 287.427L217.979 309.091C218.512 308.783 249.908 290.656 249.908 290.656L240.408 274.203ZM243.97 284.479C245.613 287.325 244.636 290.973 241.789 292.616L223.29 303.297C220.444 304.94 216.797 303.962 215.154 301.116L210.943 293.823C209.3 290.977 210.277 287.33 213.123 285.687L231.533 275.058C234.38 273.414 238.027 274.392 239.67 277.238L243.97 284.479Z" fill="black"/>
<path d="M270.023 254.022C271.802 252.995 274.187 253.634 275.214 255.413C276.241 257.192 275.602 259.576 273.823 260.603C272.044 261.63 269.659 260.991 268.632 259.213C267.554 257.345 268.244 255.049 270.023 254.022Z" fill="black"/>
<path d="M319.803 302.243C317.565 300.215 315.289 298.327 313.191 296.337L285.576 325.324C288.66 328.406 291.062 330.102 292.506 331.166C293.375 331.85 294.611 331.73 295.346 330.949L319.906 305.504C320.782 304.761 320.84 303.423 320.148 302.636C320.046 302.459 319.854 302.332 319.803 302.243Z" fill="black"/>
<path d="M219.607 285.62C219.49 285.213 219.117 284.361 218.706 283.649L213.014 286.936C214.254 290.726 217.526 296.189 229.496 292.48C230.757 286.653 222.846 295.134 219.607 285.62Z" fill="black"/>
<path fill-rule="evenodd" clip-rule="evenodd" d="M226.67 258.418L232.934 269.268C236.164 267.878 239.965 269.123 241.762 272.235L251.416 288.956C251.635 289.541 251.953 289.476 252.258 289.181L285.603 259.85C281.331 253.067 277.682 245.924 274.795 238.459C274.459 237.467 274.849 236.294 275.739 235.78L279.919 233.367L277.505 229.187L226.721 258.507L226.67 258.418ZM274.426 261.441C272.025 262.827 269.079 262.038 267.744 259.725C266.409 257.413 267.198 254.467 269.51 253.132C271.823 251.797 274.769 252.586 276.104 254.899C277.528 257.16 276.738 260.106 274.426 261.441Z" fill="black"/>
<path d="M339.689 168.264L336.754 169.959L343.018 180.81L345.953 179.115L339.689 168.264Z" fill="black"/>
<path d="M335.776 170.522L332.841 172.217L339.105 183.067L342.04 181.373L335.776 170.522Z" fill="black"/>
<path d="M356.765 158.405L356.676 158.456L340.578 167.75L346.843 178.601L362.941 169.306C364.008 168.69 364.346 167.428 363.73 166.36L359.673 159.334C359.146 158.216 357.884 157.877 356.765 158.405ZM350.578 164.941C350.218 164.319 350.444 163.477 351.066 163.118L355.869 160.345C356.492 159.985 357.333 160.211 357.693 160.833C358.052 161.456 357.827 162.298 357.204 162.657L352.402 165.43C351.779 165.789 350.989 165.653 350.578 164.941C350.629 165.03 350.629 165.03 350.578 164.941ZM360.542 168.438L355.739 171.211C355.117 171.57 354.275 171.345 353.915 170.722C353.556 170.1 353.782 169.258 354.404 168.899L359.207 166.126C359.829 165.766 360.671 165.992 361.031 166.614C361.441 167.326 361.164 168.079 360.542 168.438Z" fill="black"/>
<path d="M331.951 172.731L328.66 174.631L334.925 185.481L338.215 183.581L331.951 172.731Z" fill="black"/>
<path fill-rule="evenodd" clip-rule="evenodd" d="M151.21 276.015L145.34 279.404C144.273 280.02 144.037 281.461 144.654 282.528C145.321 283.684 152.613 296.313 152.613 296.313C153.229 297.381 154.492 297.719 155.559 297.103L161.429 293.714L151.21 276.015Z" fill="black"/>
<path fill-rule="evenodd" clip-rule="evenodd" d="M193.668 250.554C192.601 251.17 191.338 250.832 190.722 249.765L184.766 239.448L154.082 257.163C153.014 257.779 152.676 259.042 153.292 260.109L156.527 265.712C157.143 266.78 156.805 268.042 155.738 268.658L152.002 270.815C151.024 271.38 150.546 272.605 151.11 273.583C151.11 273.583 151.11 273.583 151.162 273.672L151.213 273.761L167.542 302.043C168.155 302.283 168.842 302.241 169.465 301.882C171.332 300.804 171.332 300.804 171.332 300.804C176.528 297.685 176.317 298.756 178.715 299.624C179.188 299.826 179.735 299.747 180.269 299.439L232.031 269.554L225.304 257.903L277.066 228.018L265.975 208.807L193.668 250.554ZM157.292 260.053L182.017 245.778L160.416 260.74L159.911 264.589L157.292 260.053ZM169.761 296.849C168.427 297.619 166.743 297.168 166.024 295.923C165.306 294.678 165.757 292.995 167.002 292.276C168.336 291.505 169.93 292.008 170.649 293.253C171.457 294.447 171.006 296.13 169.761 296.849ZM218.166 253.961C218.782 255.028 218.444 256.291 217.377 256.907L168.549 285.097C167.482 285.713 166.219 285.375 165.603 284.308L162.368 278.705C161.752 277.637 162.09 276.375 163.158 275.759L211.896 247.62C212.963 247.003 214.226 247.342 214.842 248.409L218.077 254.012L218.166 253.961ZM260.574 223.073L226.422 242.791C225.087 243.561 223.493 243.059 222.774 241.813C222.004 240.479 222.506 238.885 223.751 238.166L257.904 218.448C259.238 217.678 260.832 218.18 261.551 219.425C262.27 220.671 261.908 222.303 260.574 223.073Z" fill="black"/>
<path d="M286.277 262.662L253.92 290.83C254.266 291.223 271.63 314.521 284.285 324.527L311.849 295.451C296.156 278.541 293.37 273.509 286.277 262.662ZM287.429 312.514C287.392 312.654 287.214 312.757 287.125 312.808C286.769 313.014 286.4 312.99 286.016 312.737C274.734 304.902 266.867 291.893 266.559 291.36C266.251 290.826 266.401 290.265 266.935 289.957C267.38 289.7 268.03 289.799 268.338 290.333C268.389 290.422 276.307 303.519 287.206 311.101C287.59 311.354 287.72 311.99 287.429 312.514ZM294.53 305.094C294.492 305.234 294.314 305.337 294.225 305.389C293.869 305.594 293.5 305.57 293.117 305.317C281.834 297.482 274.683 284.891 274.375 284.357C274.066 283.823 274.306 283.211 274.75 282.954C275.284 282.646 275.897 282.885 276.153 283.33C276.205 283.419 283.445 295.959 294.255 303.592C294.741 304.023 294.872 304.66 294.53 305.094ZM301.606 298.044C301.568 298.184 301.391 298.287 301.302 298.338C300.946 298.544 300.576 298.52 300.193 298.267C288.91 290.432 282.498 277.888 282.241 277.443C281.933 276.91 282.173 276.297 282.758 276.078C283.291 275.77 283.904 276.009 284.123 276.594C284.174 276.683 290.535 289.138 301.435 296.72C301.818 296.973 301.948 297.609 301.606 298.044Z" fill="black"/>
</svg>
