<svg width="512" height="512" viewBox="0 0 512 512" fill="none" xmlns="http://www.w3.org/2000/svg">
<path d="M348.929 207.54C348.929 206.308 347.594 204.973 346.362 204.973H341.227V207.848H336.914V204.973H331.471V207.848H327.157V204.973H321.714V207.848H317.401V204.973H311.958V207.848H307.645V204.973H302.202V207.848H297.888V204.973H292.446V207.848H288.132V204.973H282.176V243.073H345.746C347.286 243.073 348.826 241.841 348.826 240.198V207.54H348.929ZM308.877 218.734H320.79V220.891H308.877V218.734ZM289.159 218.529H301.278V220.377H289.159V218.529ZM342.151 230.75C342.151 231.879 341.227 232.804 340.097 232.804H291.213C290.083 232.804 289.159 231.879 289.159 230.75V230.134C289.159 229.004 290.083 228.08 291.213 228.08H340.2C341.33 228.08 342.254 229.004 342.254 230.134V230.75H342.151ZM329.417 220.275L329.314 218.426H342.048L342.151 220.275H329.417Z" fill="black"/>
<path fill-rule="evenodd" clip-rule="evenodd" d="M196.218 199.221H279.609V185.767C279.609 184.638 278.787 183.713 277.657 183.611C269.339 182.892 202.586 177.654 181.122 176.011C177.527 175.806 174.344 178.476 173.83 182.07C173.522 184.432 173.111 186.486 172.392 186.486H171.057C170.03 186.486 169.209 187.205 168.901 188.129L166.128 199.221H196.218ZM205.358 184.946L268.415 188.746C269.955 188.848 271.701 190.081 271.598 191.724V193.675C271.393 195.216 270.058 196.448 268.415 196.242L207.104 196.037C206.077 195.934 205.153 195.524 204.331 194.907C203.407 194.189 202.791 193.264 202.586 192.135L202.38 190.902C202.277 190.081 202.277 189.259 202.586 188.54C202.996 186.897 204.023 185.665 205.358 184.946ZM185.332 180.222C188.002 180.222 190.056 182.378 190.056 184.946C190.056 187.616 187.9 189.67 185.332 189.67C182.662 189.67 180.608 187.513 180.608 184.946C180.608 182.378 182.765 180.222 185.332 180.222Z" fill="black"/>
<path fill-rule="evenodd" clip-rule="evenodd" d="M196.219 214.317C195.602 214.317 195.089 213.803 195.089 213.187V201.377H279.609V214.42H196.219V214.317Z" fill="black"/>
<path fill-rule="evenodd" clip-rule="evenodd" d="M185.948 253.342H160.171C169.209 266.282 135.216 300.788 127.616 308.593C126.795 309.415 126.795 310.852 127.616 311.674L127.719 311.777C137.064 319.992 156.371 321.019 160.685 321.019C161.198 321.019 161.814 321.019 161.917 320.403C162.123 318.452 160.274 316.603 160.274 314.858C160.377 311.16 162.944 308.696 166.641 307.874C167.463 307.669 167.874 306.847 167.668 306.128C167.668 306.026 167.668 306.026 167.566 305.923C166.744 303.561 166.847 300.993 167.874 298.734C169.003 296.269 171.16 294.421 173.83 293.702C174.549 293.497 174.96 292.778 174.754 292.059C174.446 290.21 174.652 288.259 175.473 286.513C176.706 283.638 179.376 281.686 182.559 281.276C183.381 279.838 184.511 279.016 186.051 278.297L185.948 253.342ZM139.734 314.96L132.956 307.771L143.74 293.702L135.421 307.566L139.734 314.96Z" fill="black"/>
<path fill-rule="evenodd" clip-rule="evenodd" d="M213.471 223.047H157.193C156.68 223.047 156.166 223.458 156.063 223.971V224.074V230.544C156.063 231.057 156.474 231.571 156.988 231.673H157.09H213.369C213.882 231.673 214.396 231.263 214.498 230.749V230.647V224.177C214.601 223.56 214.088 223.047 213.471 223.047Z" fill="black"/>
<path d="M152.366 239.273C153.29 239.273 154.009 239.992 154.009 240.917C154.009 241.841 153.29 242.56 152.366 242.56C151.442 242.56 150.723 241.841 150.723 240.917C150.723 239.992 151.442 239.273 152.366 239.273Z" fill="black"/>
<path fill-rule="evenodd" clip-rule="evenodd" d="M224.87 259.298C224.87 256.012 222.2 253.342 218.914 253.342H188.105L188.002 278.297C188.618 278.297 224.87 278.297 224.87 278.297V259.298ZM222.816 269.979C222.816 273.265 220.146 275.935 216.86 275.935H195.499C192.213 275.935 189.542 273.265 189.542 269.979V261.558C189.542 258.271 192.213 255.601 195.499 255.601H216.757C220.044 255.601 222.714 258.271 222.714 261.558L222.816 269.979Z" fill="black"/>
<path d="M260.609 256.629C262.663 256.629 264.409 258.375 264.409 260.429C264.409 262.483 262.663 264.229 260.609 264.229C258.555 264.229 256.81 262.483 256.81 260.429C256.81 258.272 258.555 256.629 260.609 256.629Z" fill="black"/>
<path d="M279.608 323.279C278.684 320.403 277.657 317.63 276.836 314.857L238.427 326.154C239.556 330.365 240.789 333.035 241.508 334.678C241.918 335.705 243.048 336.219 244.075 335.91L278.068 326.154C279.198 325.949 279.917 324.819 279.711 323.792C279.711 323.587 279.608 323.381 279.608 323.279Z" fill="black"/>
<path d="M201.148 258.786C201.251 258.375 201.353 257.45 201.353 256.629H194.781C193.959 260.531 194.062 266.899 206.283 269.671C210.288 265.255 199.197 268.645 201.148 258.786Z" fill="black"/>
<path fill-rule="evenodd" clip-rule="evenodd" d="M220.865 238.76V251.289C224.357 251.7 227.027 254.678 227.027 258.272V277.579C226.924 278.196 227.232 278.298 227.643 278.196L271.187 269.466C270.879 261.456 271.29 253.445 272.522 245.538C272.727 244.511 273.652 243.689 274.679 243.689H279.506V238.862H220.865V238.76ZM260.712 265.256C257.939 265.256 255.782 263.099 255.782 260.429C255.782 257.759 257.939 255.602 260.609 255.602C263.279 255.602 265.436 257.759 265.436 260.429C265.539 263.099 263.382 265.256 260.712 265.256Z" fill="black"/>
<path d="M363.821 217.193H360.432V229.722H363.821V217.193Z" fill="black"/>
<path d="M359.302 217.193H355.913V229.722H359.302V217.193Z" fill="black"/>
<path d="M383.539 217.193H383.436H364.848V229.722H383.436C384.668 229.722 385.593 228.798 385.593 227.566V219.453C385.695 218.22 384.771 217.296 383.539 217.193ZM374.912 219.761C374.912 219.042 375.528 218.426 376.247 218.426H381.793C382.512 218.426 383.128 219.042 383.128 219.761C383.128 220.48 382.512 221.096 381.793 221.096H376.247C375.528 221.096 374.912 220.582 374.912 219.761C374.912 219.863 374.912 219.863 374.912 219.761ZM381.793 227.771H376.247C375.528 227.771 374.912 227.155 374.912 226.436C374.912 225.717 375.528 225.101 376.247 225.101H381.793C382.512 225.101 383.128 225.717 383.128 226.436C383.128 227.258 382.512 227.771 381.793 227.771Z" fill="black"/>
<path d="M354.886 217.193H351.086V229.722H354.886V217.193Z" fill="black"/>
<path fill-rule="evenodd" clip-rule="evenodd" d="M146.718 216.27H139.94C138.707 216.27 137.783 217.399 137.783 218.632C137.783 219.967 137.783 234.55 137.783 234.55C137.783 235.782 138.707 236.706 139.94 236.706H146.718V216.27Z" fill="black"/>
<path fill-rule="evenodd" clip-rule="evenodd" d="M196.218 215.447C194.986 215.447 194.062 214.522 194.062 213.29V201.377H158.631C157.399 201.377 156.474 202.301 156.474 203.534V210.004C156.474 211.236 155.55 212.16 154.318 212.16H150.004C148.875 212.16 147.848 212.982 147.848 214.111C147.848 214.111 147.848 214.111 147.848 214.214V214.317V246.975C148.258 247.488 148.875 247.796 149.594 247.796C151.75 247.796 151.75 247.796 151.75 247.796C157.809 247.694 157.09 248.515 158.734 250.466C159.042 250.877 159.555 251.083 160.171 251.083H219.941V237.629H279.711V215.447H196.218ZM159.966 205.485H188.516L162.328 207.641L159.966 210.722V205.485ZM152.366 243.586C150.826 243.586 149.594 242.353 149.594 240.915C149.594 239.478 150.826 238.245 152.264 238.245C153.804 238.245 154.934 239.478 154.934 240.915C155.036 242.353 153.804 243.586 152.366 243.586ZM215.731 230.646C215.731 231.878 214.806 232.802 213.574 232.802H157.193C155.961 232.802 155.036 231.878 155.036 230.646V224.176C155.036 222.943 155.961 222.019 157.193 222.019H213.471C214.704 222.019 215.628 222.943 215.628 224.176V230.646H215.731ZM267.901 225.1H228.465C226.925 225.1 225.795 223.868 225.795 222.43C225.795 220.889 227.027 219.76 228.465 219.76H267.901C269.441 219.76 270.571 220.992 270.571 222.43C270.571 223.868 269.441 225.1 267.901 225.1Z" fill="black"/>
<path d="M270.366 272.238L228.26 280.454C228.362 280.968 231.751 309.826 237.708 324.819L276.117 313.42C270.982 290.929 271.085 285.178 270.366 272.238ZM246.437 315.987C246.335 316.09 246.129 316.09 246.026 316.09C245.616 316.09 245.308 315.885 245.102 315.474C239.248 303.048 238.94 287.848 238.94 287.232C238.94 286.616 239.351 286.205 239.967 286.205C240.481 286.205 240.994 286.616 240.994 287.232C240.994 287.335 241.302 302.637 246.951 314.652C247.156 315.063 246.951 315.679 246.437 315.987ZM256.296 313.112C256.193 313.215 255.988 313.215 255.885 313.215C255.475 313.215 255.167 313.009 254.961 312.598C249.107 300.172 249.21 285.692 249.21 285.075C249.21 284.459 249.724 284.048 250.237 284.048C250.853 284.048 251.264 284.562 251.264 285.075C251.264 285.178 251.264 299.659 256.81 311.674C257.015 312.29 256.81 312.906 256.296 313.112ZM265.95 310.544C265.847 310.647 265.642 310.647 265.539 310.647C265.128 310.647 264.82 310.442 264.615 310.031C258.761 297.605 259.48 283.535 259.48 283.022C259.48 282.405 259.993 281.995 260.609 282.097C261.226 282.097 261.636 282.611 261.534 283.227C261.534 283.33 260.815 297.296 266.463 309.312C266.669 309.723 266.463 310.339 265.95 310.544Z" fill="black"/>
</svg>
