<svg width="512" height="160" viewBox="0 0 512 160" fill="none" xmlns="http://www.w3.org/2000/svg">
<path d="M348.929 31.5401C348.929 30.3077 347.594 28.9727 346.362 28.9727H341.227V31.8482H336.914V28.9727H331.471V31.8482H327.157V28.9727H321.714V31.8482H317.401V28.9727H311.958V31.8482H307.645V28.9727H302.202V31.8482H297.888V28.9727H292.446V31.8482H288.132V28.9727H282.176V67.0734H345.746C347.286 67.0734 348.826 65.841 348.826 64.1979V31.5401H348.929ZM308.877 42.7341H320.79V44.8908H308.877V42.7341ZM289.159 42.5287H301.278V44.3773H289.159V42.5287ZM342.151 54.7497C342.151 55.8794 341.227 56.8037 340.097 56.8037H291.213C290.083 56.8037 289.159 55.8794 289.159 54.7497V54.1335C289.159 53.0039 290.083 52.0796 291.213 52.0796H340.2C341.33 52.0796 342.254 53.0039 342.254 54.1335V54.7497H342.151ZM329.417 44.2746L329.314 42.426H342.048L342.151 44.2746H329.417Z" fill="black"/>
<path fill-rule="evenodd" clip-rule="evenodd" d="M196.218 23.2207H279.609V9.76735C279.609 8.63768 278.787 7.7134 277.657 7.6107C269.339 6.89182 202.586 1.65425 181.122 0.0110938C177.527 -0.194301 174.344 2.47583 173.83 6.07024C173.522 8.43228 173.111 10.4862 172.392 10.4862H171.057C170.03 10.4862 169.209 11.2051 168.901 12.1294L166.128 23.2207H196.218ZM205.358 8.94577L268.415 12.7456C269.955 12.8483 271.701 14.0806 271.598 15.7238V17.6751C271.393 19.2155 270.058 20.4479 268.415 20.2425L207.104 20.0371C206.077 19.9344 205.153 19.5236 204.331 18.9074C203.407 18.1885 202.791 17.2643 202.586 16.1346L202.38 14.9022C202.277 14.0806 202.277 13.2591 202.586 12.5402C202.996 10.897 204.023 9.66465 205.358 8.94577ZM185.332 4.22169C188.002 4.22169 190.056 6.37833 190.056 8.94577C190.056 11.6159 187.9 13.6699 185.332 13.6699C182.662 13.6699 180.608 11.5132 180.608 8.94577C180.608 6.37833 182.765 4.22169 185.332 4.22169Z" fill="black"/>
<path fill-rule="evenodd" clip-rule="evenodd" d="M196.219 38.3168C195.602 38.3168 195.089 37.8034 195.089 37.1872V25.377H279.609V38.4195H196.219V38.3168Z" fill="black"/>
<path fill-rule="evenodd" clip-rule="evenodd" d="M185.948 77.3418H160.171C169.209 90.2817 135.216 124.788 127.616 132.593C126.795 133.415 126.795 134.852 127.616 135.674L127.719 135.777C137.064 143.992 156.371 145.019 160.685 145.019C161.198 145.019 161.814 145.019 161.917 144.403C162.123 142.452 160.274 140.603 160.274 138.858C160.377 135.16 162.944 132.696 166.641 131.874C167.463 131.669 167.874 130.847 167.668 130.128C167.668 130.026 167.668 130.026 167.566 129.923C166.744 127.561 166.847 124.993 167.874 122.734C169.003 120.269 171.16 118.421 173.83 117.702C174.549 117.497 174.96 116.778 174.754 116.059C174.446 114.21 174.652 112.259 175.473 110.513C176.706 107.638 179.376 105.686 182.559 105.276C183.381 103.838 184.511 103.016 186.051 102.297L185.948 77.3418ZM139.734 138.96L132.956 131.771L143.74 117.702L135.421 131.566L139.734 138.96Z" fill="black"/>
<path fill-rule="evenodd" clip-rule="evenodd" d="M213.471 47.0469H157.193C156.68 47.0469 156.166 47.4577 156.063 47.9712V48.0739V54.5438C156.063 55.0573 156.474 55.5708 156.988 55.6735H157.09H213.369C213.882 55.6735 214.396 55.2627 214.498 54.7492V54.6465V48.1766C214.601 47.5604 214.088 47.0469 213.471 47.0469Z" fill="black"/>
<path d="M152.366 63.2734C153.29 63.2734 154.009 63.9923 154.009 64.9166C154.009 65.8409 153.29 66.5598 152.366 66.5598C151.442 66.5598 150.723 65.8409 150.723 64.9166C150.723 63.9923 151.442 63.2734 152.366 63.2734Z" fill="black"/>
<path fill-rule="evenodd" clip-rule="evenodd" d="M224.87 83.2982C224.87 80.0119 222.2 77.3418 218.914 77.3418H188.105L188.002 102.297C188.618 102.297 224.87 102.297 224.87 102.297V83.2982ZM222.816 93.9788C222.816 97.2651 220.146 99.9352 216.86 99.9352H195.499C192.213 99.9352 189.542 97.2651 189.542 93.9788V85.5576C189.542 82.2713 192.213 79.6011 195.499 79.6011H216.757C220.044 79.6011 222.714 82.2713 222.714 85.5576L222.816 93.9788Z" fill="black"/>
<path d="M260.609 80.6289C262.663 80.6289 264.409 82.3748 264.409 84.4287C264.409 86.4827 262.663 88.2285 260.609 88.2285C258.555 88.2285 256.81 86.4827 256.81 84.4287C256.81 82.2721 258.555 80.6289 260.609 80.6289Z" fill="black"/>
<path d="M279.608 147.279C278.684 144.403 277.657 141.63 276.836 138.857L238.427 150.154C239.556 154.365 240.789 157.035 241.508 158.678C241.918 159.705 243.048 160.219 244.075 159.91L278.068 150.154C279.198 149.949 279.917 148.819 279.711 147.792C279.711 147.587 279.608 147.381 279.608 147.279Z" fill="black"/>
<path d="M201.148 82.7856C201.251 82.3748 201.353 81.4505 201.353 80.6289H194.781C193.959 84.5314 194.062 90.8986 206.283 93.6715C210.288 89.2555 199.197 92.6445 201.148 82.7856Z" fill="black"/>
<path fill-rule="evenodd" clip-rule="evenodd" d="M220.865 62.7598V75.2889C224.357 75.6996 227.027 78.6779 227.027 82.2723V101.579C226.924 102.196 227.232 102.298 227.643 102.196L271.187 93.4663C270.879 85.4559 271.29 77.4455 272.522 69.5378C272.727 68.5108 273.652 67.6892 274.679 67.6892H279.506V62.8625H220.865V62.7598ZM260.712 89.2557C257.939 89.2557 255.782 87.0991 255.782 84.4289C255.782 81.7588 257.939 79.6021 260.609 79.6021C263.279 79.6021 265.436 81.7588 265.436 84.4289C265.539 87.0991 263.382 89.2557 260.712 89.2557Z" fill="black"/>
<path d="M363.821 41.1934H360.432V53.7225H363.821V41.1934Z" fill="black"/>
<path d="M359.302 41.1934H355.913V53.7225H359.302V41.1934Z" fill="black"/>
<path d="M383.539 41.1934H383.436H364.848V53.7225H383.436C384.668 53.7225 385.593 52.7982 385.593 51.5658V43.4527C385.695 42.2203 384.771 41.2961 383.539 41.1934ZM374.912 43.7608C374.912 43.0419 375.528 42.4257 376.247 42.4257H381.793C382.512 42.4257 383.128 43.0419 383.128 43.7608C383.128 44.4797 382.512 45.0959 381.793 45.0959H376.247C375.528 45.0959 374.912 44.5824 374.912 43.7608C374.912 43.8635 374.912 43.8635 374.912 43.7608ZM381.793 51.7712H376.247C375.528 51.7712 374.912 51.155 374.912 50.4361C374.912 49.7173 375.528 49.1011 376.247 49.1011H381.793C382.512 49.1011 383.128 49.7173 383.128 50.4361C383.128 51.2577 382.512 51.7712 381.793 51.7712Z" fill="black"/>
<path d="M354.886 41.1934H351.086V53.7225H354.886V41.1934Z" fill="black"/>
<path fill-rule="evenodd" clip-rule="evenodd" d="M146.718 40.2695H139.94C138.707 40.2695 137.783 41.3992 137.783 42.6316C137.783 43.9666 137.783 58.5497 137.783 58.5497C137.783 59.7821 138.707 60.7063 139.94 60.7063H146.718V40.2695Z" fill="black"/>
<path fill-rule="evenodd" clip-rule="evenodd" d="M196.218 39.4465C194.986 39.4465 194.062 38.5222 194.062 37.2899V25.377H158.631C157.399 25.377 156.474 26.3012 156.474 27.5336V34.0035C156.474 35.2359 155.55 36.1602 154.318 36.1602H150.004C148.875 36.1602 147.848 36.9818 147.848 38.1114C147.848 38.1114 147.848 38.1114 147.848 38.2141V38.3168V70.9746C148.258 71.4881 148.875 71.7962 149.594 71.7962C151.75 71.7962 151.75 71.7962 151.75 71.7962C157.809 71.6935 157.09 72.5151 158.734 74.4664C159.042 74.8771 159.555 75.0825 160.171 75.0825H219.941V61.6292H279.711V39.4465H196.218ZM159.966 29.4849H188.516L162.328 31.6415L159.966 34.7224V29.4849ZM152.366 67.5856C150.826 67.5856 149.594 66.3533 149.594 64.9155C149.594 63.4777 150.826 62.2453 152.264 62.2453C153.804 62.2453 154.934 63.4777 154.934 64.9155C155.036 66.3533 153.804 67.5856 152.366 67.5856ZM215.731 54.6457C215.731 55.8781 214.806 56.8024 213.574 56.8024H157.193C155.961 56.8024 155.036 55.8781 155.036 54.6457V48.1758C155.036 46.9434 155.961 46.0191 157.193 46.0191H213.471C214.704 46.0191 215.628 46.9434 215.628 48.1758V54.6457H215.731ZM267.901 49.1001H228.465C226.925 49.1001 225.795 47.8677 225.795 46.4299C225.795 44.8895 227.027 43.7598 228.465 43.7598H267.901C269.441 43.7598 270.571 44.9922 270.571 46.4299C270.571 47.8677 269.441 49.1001 267.901 49.1001Z" fill="black"/>
<path d="M270.366 96.2383L228.26 104.454C228.362 104.968 231.751 133.826 237.708 148.819L276.117 137.42C270.982 114.929 271.085 109.178 270.366 96.2383ZM246.437 139.987C246.335 140.09 246.129 140.09 246.026 140.09C245.616 140.09 245.308 139.885 245.102 139.474C239.248 127.048 238.94 111.848 238.94 111.232C238.94 110.616 239.351 110.205 239.967 110.205C240.481 110.205 240.994 110.616 240.994 111.232C240.994 111.335 241.302 126.637 246.951 138.652C247.156 139.063 246.951 139.679 246.437 139.987ZM256.296 137.112C256.193 137.215 255.988 137.215 255.885 137.215C255.475 137.215 255.167 137.009 254.961 136.598C249.107 124.172 249.21 109.692 249.21 109.075C249.21 108.459 249.724 108.048 250.237 108.048C250.853 108.048 251.264 108.562 251.264 109.075C251.264 109.178 251.264 123.659 256.81 135.674C257.015 136.29 256.81 136.906 256.296 137.112ZM265.95 134.544C265.847 134.647 265.642 134.647 265.539 134.647C265.128 134.647 264.82 134.442 264.615 134.031C258.761 121.605 259.48 107.535 259.48 107.022C259.48 106.405 259.993 105.995 260.609 106.097C261.226 106.097 261.636 106.611 261.534 107.227C261.534 107.33 260.815 121.296 266.463 133.312C266.669 133.723 266.463 134.339 265.95 134.544Z" fill="black"/>
</svg>
