<svg width="512" height="512" viewBox="0 0 512 512" fill="none" xmlns="http://www.w3.org/2000/svg">
<path d="M73.4693 226.949C71.5326 226.949 69.7449 225.609 69 223.672L78.8324 271.046C78.8324 271.344 79.1304 271.493 79.2793 271.493H88.2179C88.5158 271.493 90.6015 271.195 90.6015 271.046L85.6853 227.098H73.4693V226.949Z" fill="black"/>
<path d="M216.933 261.215H250.601V236.336H216.933V261.215Z" fill="black"/>
<path d="M197.566 226.502L215.294 234.398H220.955L212.762 226.502H197.566Z" fill="black"/>
<path d="M274.587 240.061C268.777 246.913 273.395 255.405 274.736 256.746C274.885 256.895 275.034 257.64 274.736 257.64C268.926 257.193 266.542 248.701 266.542 240.061H274.587Z" fill="black"/>
<path d="M442.929 215.032H439.503V207.285H442.929C443.227 207.285 443.376 207.434 443.376 207.732V214.585C443.376 214.734 443.078 215.032 442.929 215.032Z" fill="black"/>
<path d="M391.979 204.9V217.414H436.97C437.268 217.414 437.417 217.265 437.417 216.967V205.496C437.417 205.198 437.268 205.049 436.97 205.049H391.979V204.9Z" fill="black"/>
<path d="M203.525 211.754C202.929 211.903 202.631 212.499 202.631 213.095C202.631 213.691 203.078 214.286 203.674 214.435L203.525 211.754Z" fill="black"/>
<path d="M204.419 211.754V214.435C205.015 214.286 205.462 213.691 205.462 213.095C205.462 212.35 205.015 211.903 204.419 211.754Z" fill="black"/>
<path d="M203.525 217.564C202.929 217.713 202.482 218.309 202.482 218.905C202.482 219.501 202.929 220.097 203.525 220.246V217.564Z" fill="black"/>
<path d="M204.568 217.564V220.246C205.164 220.097 205.611 219.501 205.611 218.905C205.462 218.309 205.164 217.713 204.568 217.564Z" fill="black"/>
<path d="M228.106 222.928C227.808 222.779 227.51 222.779 227.063 222.779C225.425 222.779 224.084 224.12 224.084 225.759C224.084 226.802 224.68 227.695 225.425 228.291L228.106 222.928Z" fill="black"/>
<path d="M229 223.523L226.467 228.589C226.616 228.589 226.914 228.738 227.063 228.738C228.702 228.738 230.043 227.397 230.043 225.758C230.192 224.864 229.745 223.97 229 223.523Z" fill="black"/>
<path d="M325.983 213.541C325.834 213.541 325.834 213.541 325.685 213.541C324.345 213.541 323.153 214.584 323.153 215.925C323.153 216.818 323.6 217.563 324.345 218.01L325.983 213.541Z" fill="black"/>
<path d="M326.877 213.988L325.387 218.458C325.536 218.458 325.536 218.458 325.685 218.458C327.026 218.458 328.218 217.415 328.218 216.074C328.218 215.031 327.622 214.286 326.877 213.988Z" fill="black"/>
<path d="M381.998 225.162L316.449 225.609L296.188 235.739L305.424 251.382L340.583 251.68V243.337C340.583 241.549 341.775 240.06 343.413 239.613L382.147 228.738C382.296 228.738 382.445 228.44 382.445 228.291V225.609C382.594 225.311 382.296 225.162 381.998 225.162Z" fill="black"/>
<path d="M221.402 269.556C220.955 269.556 220.508 269.705 220.359 270.152L199.503 299.054C199.056 300.096 199.354 301.586 200.397 302.033L223.935 313.355C224.084 313.355 224.084 313.504 224.233 313.355C224.382 313.206 224.531 313.057 224.531 312.61C224.531 312.312 224.68 310.227 225.127 307.545C225.425 306.353 225.723 305.162 226.319 303.821L241.663 270.003C241.812 269.556 241.514 269.109 241.067 269.109L221.402 269.556Z" fill="black"/>
<path d="M230.192 313.505C229.894 311.718 230.192 309.781 230.937 307.993L250.602 263.598C250.751 263.3 250.602 262.854 250.155 262.854L217.082 263.3V265.684C217.082 268.068 210.229 274.325 209.037 276.41L193.097 297.565C190.713 302.034 191.905 305.61 195.183 307.844L228.553 322.742C229.894 323.338 231.533 322.146 231.235 320.656L230.192 313.505ZM227.808 304.865C227.361 305.908 226.914 307.099 226.765 308.142C226.319 310.675 226.17 312.76 226.17 312.76C226.319 313.505 225.872 314.548 225.127 314.995C224.68 315.293 224.382 315.442 223.935 315.442C223.637 315.442 223.19 315.293 222.892 315.144L199.354 303.822C197.417 302.779 196.672 300.246 197.715 298.161L219.168 268.366C219.466 268.068 219.764 267.77 220.211 267.77L243.749 267.472C244.196 267.472 244.494 267.919 244.345 268.366L227.808 304.865Z" fill="black"/>
<path d="M252.538 260.172L252.24 237.677C252.24 236.932 252.836 236.336 253.581 236.336H294.251L301.849 249.893C302.743 251.531 302.892 253.617 302.147 255.256C301.253 257.342 299.615 259.129 296.933 260.917C296.635 261.066 296.188 261.215 295.89 261.215H253.73C252.985 261.215 252.538 260.768 252.538 260.172ZM255.518 259.278H295.592C297.38 258.086 298.423 257.342 299.317 256.001C300.508 254.064 300.508 251.68 299.466 249.744L292.613 238.273H255.369C254.624 238.273 254.028 238.869 254.028 239.613L254.326 258.384C254.475 258.831 254.922 259.278 255.518 259.278Z" fill="black"/>
<path d="M180.881 201.028C180.434 200.879 179.987 200.73 179.54 200.73C178.05 200.73 176.709 201.922 176.709 203.561C176.709 204.306 177.007 204.902 177.454 205.498L180.881 201.028Z" fill="black"/>
<path d="M181.626 196.26H177.603C175.22 196.26 173.432 198.196 173.432 200.431V212.796H75.7039C72.1285 212.796 69.298 215.478 69.298 218.755V219.649C69.298 222.926 72.1285 225.608 75.7039 225.608H185.946V200.58C185.946 198.196 184.009 196.26 181.626 196.26ZM76.7468 222.777C74.8101 222.777 73.3203 221.437 73.3203 219.649C73.3203 217.861 74.8101 216.52 76.7468 216.52C78.6834 216.52 80.1732 217.861 80.1732 219.649C80.1732 221.437 78.5345 222.777 76.7468 222.777ZM179.54 207.284C177.454 207.284 175.816 205.645 175.816 203.56C175.816 201.474 177.454 199.835 179.54 199.835C181.626 199.835 183.264 201.474 183.264 203.56C183.264 205.645 181.626 207.284 179.54 207.284Z" fill="black"/>
<path d="M178.199 205.944C178.646 206.093 179.093 206.242 179.54 206.242C181.03 206.242 182.371 205.05 182.371 203.411C182.371 202.666 182.073 202.071 181.626 201.475L178.199 205.944Z" fill="black"/>
<path d="M305.425 253.617V334.064C305.425 335.107 306.318 336.001 307.361 336.001H338.646C339.689 336.001 340.583 335.107 340.583 334.064V253.617H305.425ZM314.065 326.019C314.065 326.466 313.618 326.913 313.171 326.913C312.724 326.913 312.277 326.466 312.277 326.019V263.45C312.277 263.003 312.724 262.556 313.171 262.556C313.618 262.556 314.065 263.003 314.065 263.45V326.019ZM324.196 326.019C324.196 326.466 323.749 326.913 323.302 326.913C322.855 326.913 322.408 326.466 322.408 326.019V263.45C322.408 263.003 322.855 262.556 323.302 262.556C323.749 262.556 324.196 263.003 324.196 263.45V326.019ZM334.475 326.019C334.475 326.466 334.028 326.913 333.581 326.913C333.134 326.913 332.687 326.466 332.687 326.019V263.45C332.687 263.003 333.134 262.556 333.581 262.556C334.028 262.556 334.475 263.003 334.475 263.45V326.019Z" fill="black"/>
<path d="M229.745 185.088H221.849V190.004H229.745V185.088Z" fill="black"/>
<path d="M389.596 201.326H379.913V220.842H389.596C389.894 220.842 390.043 220.544 390.043 220.395V201.922C390.043 201.624 389.745 201.326 389.596 201.326Z" fill="black"/>
<path d="M378.87 187.769L374.549 187.918V176H368.292L360.992 190.749C360.695 191.493 359.95 191.791 359.205 191.791H230.788H220.508H189.819V184.79C189.819 183.747 188.925 182.853 187.883 182.853H180.285C179.242 182.853 178.348 183.747 178.348 184.79V194.473H181.626C185.052 194.473 187.883 197.304 187.883 200.73V224.566H213.804L223.488 234.399H293.953L315.704 223.374H377.976V199.985V194.026H379.019C380.806 194.026 382.147 192.685 382.147 190.898C382.147 189.11 380.657 187.769 378.87 187.769ZM203.972 221.289C202.631 221.289 201.439 220.246 201.439 218.905C201.439 217.564 202.631 216.521 203.972 216.521C205.313 216.521 206.505 217.564 206.505 218.905C206.505 220.246 205.462 221.289 203.972 221.289ZM203.972 215.479C202.631 215.479 201.439 214.436 201.439 213.095C201.439 211.754 202.631 210.711 203.972 210.711C205.313 210.711 206.505 211.754 206.505 213.095C206.505 214.436 205.462 215.479 203.972 215.479ZM227.212 229.631C224.978 229.631 223.19 227.844 223.19 225.758C223.19 223.672 224.978 221.885 227.212 221.885C229.447 221.885 231.235 223.672 231.235 225.758C231.086 227.844 229.298 229.631 227.212 229.631ZM271.756 201.624C271.756 203.858 269.968 205.646 267.734 205.646H205.611C203.376 205.646 201.588 203.858 201.588 201.624V198.942C201.588 196.708 203.376 194.92 205.611 194.92H267.734C269.968 194.92 271.756 196.708 271.756 198.942V201.624ZM325.685 219.352C323.749 219.352 322.259 217.862 322.259 215.926C322.259 213.989 323.749 212.499 325.685 212.499C327.622 212.499 329.112 213.989 329.112 215.926C329.112 217.862 327.622 219.352 325.685 219.352ZM379.167 192.983C378.125 192.983 377.231 192.089 377.231 191.047C377.231 190.004 378.125 189.11 379.167 189.11C380.21 189.11 381.104 190.004 381.104 191.047C381.104 192.089 380.21 192.983 379.167 192.983Z" fill="black"/>
<path d="M267.733 196.857H205.611C204.419 196.857 203.525 197.751 203.525 198.943V201.625C203.525 202.816 204.419 203.71 205.611 203.71H267.733C268.925 203.71 269.819 202.816 269.819 201.625V198.943C269.819 197.9 268.925 196.857 267.733 196.857Z" fill="black"/>
</svg>
