<svg width="512" height="512" viewBox="0 0 512 512" fill="none" xmlns="http://www.w3.org/2000/svg">
<path d="M83.3455 321.889C81.6683 322.857 79.4497 322.59 77.8363 321.285L110.039 357.396C110.188 357.654 110.52 357.634 110.649 357.56L118.39 353.091C118.648 352.942 120.305 351.641 120.231 351.512L93.9994 315.91L83.42 322.018L83.3455 321.889Z" fill="black"/>
<path d="M224.721 279.831L253.879 262.997L241.439 241.451L212.281 258.285L224.721 279.831Z" fill="black"/>
<path d="M190.593 259.453L209.894 257.427L214.797 254.596L203.753 251.855L190.593 259.453Z" fill="black"/>
<path d="M264.073 232.685C262.468 241.524 270.713 246.569 272.545 247.06C272.748 247.115 273.25 247.685 272.992 247.834C267.737 250.352 261.426 244.19 257.106 236.707L264.073 232.685Z" fill="black"/>
<path d="M397.348 126.837L394.381 128.551L390.507 121.842L393.475 120.129C393.733 119.98 393.936 120.034 394.085 120.292L397.512 126.227C397.586 126.356 397.477 126.763 397.348 126.837Z" fill="black"/>
<path d="M348.159 143.539L354.416 154.376L393.379 131.881C393.637 131.732 393.692 131.529 393.543 131.271L387.807 121.336C387.658 121.078 387.455 121.024 387.197 121.173L348.234 143.668L348.159 143.539Z" fill="black"/>
<path d="M188.379 243.702C187.938 244.128 187.978 244.794 188.276 245.31C188.574 245.826 189.259 246.118 189.849 245.949L188.379 243.702Z" fill="black"/>
<path d="M189.154 243.254L190.494 245.576C190.936 245.149 191.025 244.41 190.727 243.894C190.355 243.249 189.744 243.085 189.154 243.254Z" fill="black"/>
<path d="M191.284 248.732C190.843 249.159 190.754 249.899 191.052 250.415C191.35 250.931 192.035 251.224 192.625 251.055L191.284 248.732Z" fill="black"/>
<path d="M192.188 248.211L193.528 250.533C193.97 250.106 194.059 249.367 193.761 248.851C193.334 248.409 192.778 248.042 192.188 248.211Z" fill="black"/>
<path d="M215.254 241.087C214.921 241.107 214.663 241.256 214.276 241.479C212.857 242.298 212.366 244.13 213.186 245.549C213.707 246.452 214.67 246.928 215.613 247.072L215.254 241.087Z" fill="black"/>
<path d="M216.326 241.156L216.665 246.808C216.794 246.734 217.127 246.714 217.256 246.64C218.675 245.82 219.166 243.989 218.346 242.569C218.028 241.721 217.194 241.17 216.326 241.156Z" fill="black"/>
<path d="M295.325 184.02C295.196 184.095 295.196 184.095 295.067 184.169C293.906 184.84 293.395 186.339 294.066 187.5C294.513 188.274 295.272 188.696 296.141 188.71L295.325 184.02Z" fill="black"/>
<path d="M296.323 183.96L297.267 188.576C297.396 188.501 297.396 188.501 297.525 188.427C298.686 187.756 299.197 186.257 298.527 185.096C298.005 184.193 297.117 183.846 296.323 183.96Z" fill="black"/>
<path d="M349.645 166.077L293.102 199.239L280.62 218.143L296.441 227.071L327.038 209.75L322.866 202.525C321.972 200.977 322.26 199.091 323.455 197.884L351.562 169.099C351.691 169.025 351.671 168.692 351.597 168.563L350.256 166.241C350.236 165.908 349.904 165.928 349.645 166.077Z" fill="black"/>
<path d="M232.763 284.821C232.376 285.045 232.063 285.397 232.158 285.859L228.546 321.316C228.68 322.443 229.683 323.584 230.81 323.45L256.855 321.486C256.985 321.411 257.059 321.54 257.114 321.337C257.168 321.133 257.223 320.93 256.999 320.543C256.85 320.285 255.936 318.404 254.983 315.858C254.645 314.677 254.307 313.496 254.153 312.037L250.533 275.078C250.438 274.616 249.957 274.378 249.57 274.602L232.763 284.821Z" fill="black"/>
<path d="M262.349 318.486C261.197 317.087 260.486 315.261 260.238 313.34L255.07 265.061C255.05 264.728 254.698 264.416 254.311 264.639L225.893 281.563L227.084 283.627C228.276 285.691 225.47 294.536 225.481 296.938L222.253 323.229C222.424 328.291 225.243 330.792 229.199 331.088L265.548 327.305C267.007 327.15 267.83 325.299 266.827 324.158L262.349 318.486ZM255.964 312.195C256.098 313.322 256.307 314.577 256.7 315.555C257.579 317.972 258.493 319.852 258.493 319.852C258.994 320.423 259.128 321.55 258.707 322.309C258.469 322.791 258.285 323.069 257.898 323.292C257.64 323.441 257.179 323.535 256.846 323.555L230.8 325.519C228.602 325.584 226.69 323.764 226.551 321.436L230.231 284.906C230.341 284.499 230.45 284.092 230.837 283.869L251.072 271.842C251.459 271.618 251.941 271.856 252.035 272.318L255.964 312.195Z" fill="black"/>
<path d="M255.034 261.125L243.529 241.792C243.156 241.147 243.374 240.333 244.02 239.96L279.241 219.625L292.599 227.567C294.193 228.539 295.365 230.271 295.539 232.063C295.808 234.316 295.282 236.683 293.854 239.572C293.67 239.85 293.358 240.203 293.1 240.352L256.588 261.432C255.943 261.804 255.332 261.641 255.034 261.125ZM257.168 258.861L291.873 238.823C292.826 236.897 293.356 235.731 293.46 234.123C293.524 231.85 292.332 229.786 290.461 228.63L278.79 222.122L246.536 240.744C245.891 241.116 245.673 241.93 246.045 242.575L255.689 258.683C256.041 258.995 256.652 259.159 257.168 258.861Z" fill="black"/>
<path d="M163.406 245.735C162.944 245.829 162.483 245.924 162.096 246.147C160.805 246.892 160.24 248.595 161.06 250.014C161.432 250.659 161.988 251.026 162.673 251.319L163.406 245.735Z" fill="black"/>
<path d="M161.667 241.233L158.184 243.244C156.12 244.436 155.54 247.007 156.657 248.942L162.839 259.65L78.2044 308.514C75.108 310.302 73.9975 314.04 75.6362 316.878L76.0832 317.652C77.7219 320.49 81.514 321.398 84.6104 319.61L180.083 264.489L167.569 242.814C166.377 240.75 163.731 240.041 161.667 241.233ZM84.0982 316.637C82.421 317.605 80.4605 317.189 79.5666 315.641C78.6728 314.093 79.2925 312.187 80.9697 311.218C82.647 310.25 84.6075 310.666 85.5014 312.215C86.3952 313.763 85.6464 315.743 84.0982 316.637ZM165.373 251.823C163.567 252.866 161.328 252.266 160.285 250.459C159.243 248.653 159.842 246.415 161.649 245.372C163.455 244.329 165.693 244.929 166.736 246.735C167.779 248.541 167.179 250.78 165.373 251.823Z" fill="black"/>
<path d="M163.542 251.333C164.003 251.239 164.465 251.145 164.852 250.921C166.142 250.176 166.707 248.474 165.888 247.054C165.515 246.409 164.959 246.042 164.274 245.75L163.542 251.333Z" fill="black"/>
<path d="M297.558 229.006L337.781 298.675C338.303 299.578 339.524 299.905 340.427 299.384L367.52 283.741C368.424 283.22 368.751 281.999 368.229 281.096L328.006 211.427L297.558 229.006ZM341.242 287.388C341.465 287.775 341.302 288.385 340.915 288.609C340.528 288.832 339.917 288.669 339.694 288.282L308.409 234.095C308.185 233.707 308.349 233.097 308.736 232.873C309.123 232.65 309.734 232.814 309.957 233.201L341.242 287.388ZM350.015 282.323C350.239 282.71 350.075 283.32 349.688 283.544C349.301 283.767 348.69 283.603 348.467 283.216L317.182 229.029C316.959 228.642 317.122 228.032 317.509 227.808C317.896 227.585 318.507 227.748 318.73 228.135L350.015 282.323ZM358.917 277.183C359.141 277.57 358.977 278.18 358.59 278.404C358.203 278.627 357.593 278.464 357.369 278.077L326.084 223.89C325.861 223.503 326.024 222.892 326.411 222.669C326.798 222.445 327.409 222.609 327.632 222.996L358.917 277.183Z" fill="black"/>
<path d="M197.753 207.497L190.915 211.445L193.373 215.703L200.211 211.755L197.753 207.497Z" fill="black"/>
<path d="M344.307 141.635L335.921 146.477L345.679 163.378L354.065 158.536C354.323 158.387 354.303 158.055 354.229 157.926L344.992 141.927C344.843 141.669 344.436 141.56 344.307 141.635Z" fill="black"/>
<path d="M328.24 135.258L324.573 137.547L318.614 127.226L313.195 130.354L314.247 146.777C314.362 147.571 313.866 148.201 313.221 148.574L202.008 212.782L193.106 217.922L166.528 233.266L163.027 227.203C162.506 226.299 161.285 225.972 160.382 226.494L153.802 230.293C152.899 230.814 152.572 232.035 153.093 232.938L157.935 241.324L160.773 239.686C163.741 237.972 167.607 239.008 169.32 241.976L181.238 262.618L203.687 249.658L216.99 253.331L278.015 218.098L291.339 197.676L345.268 166.54L333.573 146.284L330.594 141.123L331.497 140.602C333.045 139.708 333.536 137.877 332.642 136.328C331.748 134.78 329.788 134.364 328.24 135.258ZM193.534 251.735C192.372 252.406 190.819 252.099 190.148 250.937C189.478 249.776 189.989 248.277 191.15 247.607C192.311 246.936 193.865 247.244 194.535 248.405C195.205 249.566 194.824 250.99 193.534 251.735ZM190.629 246.704C189.467 247.374 187.914 247.067 187.243 245.906C186.573 244.745 187.084 243.246 188.245 242.575C189.406 241.905 190.96 242.212 191.63 243.373C192.3 244.534 191.919 245.959 190.629 246.704ZM217.832 247.34C215.896 248.458 213.454 247.803 212.411 245.997C211.369 244.191 212.023 241.749 213.958 240.631C215.893 239.514 218.335 240.168 219.378 241.975C220.292 243.855 219.638 246.297 217.832 247.34ZM242.404 200.813C243.521 202.748 242.867 205.19 240.932 206.308L187.132 237.369C185.196 238.487 182.754 237.832 181.637 235.897L180.296 233.575C179.179 231.639 179.833 229.197 181.768 228.08L235.568 197.019C237.504 195.901 239.946 196.556 241.063 198.491L242.404 200.813ZM297.972 189.202C296.295 190.17 294.26 189.625 293.291 187.947C292.323 186.27 292.868 184.235 294.546 183.267C296.223 182.298 298.258 182.844 299.226 184.521C300.194 186.198 299.649 188.233 297.972 189.202ZM331.105 139.624C330.202 140.146 328.981 139.819 328.459 138.916C327.938 138.012 328.265 136.791 329.168 136.27C330.071 135.749 331.292 136.076 331.814 136.979C332.335 137.882 332.008 139.103 331.105 139.624Z" fill="black"/>
<path d="M236.537 198.697L182.737 229.758C181.705 230.354 181.377 231.575 181.973 232.607L183.314 234.929C183.91 235.961 185.131 236.289 186.163 235.693L239.963 204.631C240.995 204.035 241.322 202.814 240.727 201.782L239.386 199.46C238.864 198.557 237.569 198.101 236.537 198.697Z" fill="black"/>
</svg>
