<svg width="512" height="512" viewBox="0 0 512 512" fill="none" xmlns="http://www.w3.org/2000/svg">
<path d="M10.9005 235.293C5.68529 235.293 6.00377 238.697 6.00377 238.697C6.78008 252.849 8.89003 277.751 10.2436 292.142C10.2436 292.142 10.5621 296.123 15.618 295.705L10.9005 235.293Z" fill="black"/>
<path d="M199.184 217.857H215.307V203.665L213.715 202.51V194.03C213.715 193.796 213.623 193.571 213.46 193.404C213.296 193.237 213.073 193.14 212.839 193.135H201.593C201.36 193.135 201.138 193.227 200.973 193.391C200.809 193.556 200.717 193.778 200.717 194.011V202.132L199.104 203.665L199.184 217.857Z" fill="black"/>
<path d="M222.911 203.645H217.298V215.548H222.911V203.645Z" fill="black"/>
<path d="M225.24 219.668L223.966 220.942C223.821 221.138 223.632 221.298 223.414 221.408C223.197 221.519 222.956 221.577 222.712 221.579H191.142C190.816 221.579 190.494 221.508 190.198 221.371C189.902 221.233 189.64 221.033 189.431 220.783L188.495 219.668H178.542V227.968H222.334C222.334 225.222 223.867 224.843 224.922 224.624C226.59 224.304 228.28 224.105 229.978 224.027C230.581 224.004 231.152 223.747 231.57 223.311L235.034 219.668H225.24Z" fill="black"/>
<path d="M197.194 203.645H189.749V215.548H197.194V203.645Z" fill="black"/>
<path d="M288.658 234.359H284.677V253.867H288.658V234.359Z" fill="black"/>
<path d="M324.488 234.359H320.507V253.867H324.488V234.359Z" fill="black"/>
<path d="M282.687 234.359H278.706V253.867H282.687V234.359Z" fill="black"/>
<path d="M300.601 234.359H296.62V253.867H300.601V234.359Z" fill="black"/>
<path d="M318.516 234.359H314.535V253.867H318.516V234.359Z" fill="black"/>
<path d="M312.545 234.359H308.563V253.867H312.545V234.359Z" fill="black"/>
<path d="M306.573 234.359H302.592V253.867H306.573V234.359Z" fill="black"/>
<path d="M294.63 234.359H290.649V253.867H294.63V234.359Z" fill="black"/>
<path d="M473.14 240.809H416.112V249.467H473.14V240.809Z" fill="black"/>
<path d="M482.894 239.176H475.131V251.318H482.894V239.176Z" fill="black"/>
<path d="M276.715 234.359H272.734V253.867H276.715V234.359Z" fill="black"/>
<path d="M414.121 239.035H407.632V250.879H414.121V239.035Z" fill="black"/>
<path d="M486.994 240.809H484.884V249.467H486.994V240.809Z" fill="black"/>
<path d="M164.091 232.368H392.046C391.793 231.338 391.203 230.422 390.37 229.765C389.537 229.109 388.508 228.75 387.448 228.745H382.631V230.736H379.764V228.745H376.44V230.736H373.793V228.745H370.469V230.736H367.662V228.745H364.238V230.736H361.452V228.745H358.127V230.736H355.321V228.745H351.997V230.736H349.19V228.745H345.926V230.736H343.119V228.745H339.795V230.736H337.008V228.745H333.684V230.736H330.877V228.745H327.553V230.736H324.746V228.745H321.422V230.736H318.616V228.745H315.291V230.736H312.505V228.745H309.18V230.736H306.314V228.745H302.99V230.736H300.143V228.745H296.819V230.736H294.013V228.745H290.688V230.736H287.902V228.745H284.617V230.736H281.811V228.745H278.487V230.736H275.68V228.745H272.276V230.736H269.469V228.745H266.305V230.736H263.518V228.526H260.194V230.636H257.387V228.526H254.063V230.636H251.177V228.506H247.852V230.636H245.046V228.506H241.722V230.636H238.935V228.486H235.611V230.636H232.804V228.486H229.48V230.636H226.673V228.466H222.951V229.959H177.169V227.969H174.999V229.959H172.332V227.969H170.083V229.959H167.415V227.969H165.186V229.959H164.091V232.368Z" fill="black"/>
<path d="M270.743 234.359H266.762V253.867H270.743V234.359Z" fill="black"/>
<path d="M326.478 234.359V253.867H330.459V251.239V234.359H326.478Z" fill="black"/>
<path d="M264.772 234.359H241.045V253.867H264.772V234.359Z" fill="black"/>
<path d="M224.902 284.06V314.496L229.599 313.54C230.279 313.402 230.89 313.034 231.329 312.497C231.768 311.96 232.008 311.288 232.008 310.594V282.926L224.902 284.06Z" fill="black"/>
<path d="M330.459 255.855H249.246C249.658 256.572 249.922 257.364 250.022 258.184H330.459V255.855Z" fill="black"/>
<path d="M488.985 239.275V251.418H506.004V239.275H488.985ZM501.983 246.919H492.846C492.493 246.919 492.153 246.778 491.903 246.528C491.653 246.278 491.513 245.939 491.513 245.585C491.513 245.232 491.653 244.892 491.903 244.642C492.153 244.392 492.493 244.252 492.846 244.252H501.983C502.336 244.252 502.676 244.392 502.926 244.642C503.176 244.892 503.316 245.232 503.316 245.585C503.316 245.939 503.176 246.278 502.926 246.528C502.676 246.778 502.336 246.919 501.983 246.919Z" fill="black"/>
<path d="M200.08 288.043L194.467 288.919L193.85 317.144C193.85 317.59 193.949 318.03 194.139 318.432C194.33 318.835 194.608 319.19 194.953 319.472C195.297 319.753 195.701 319.955 196.133 320.062C196.565 320.169 197.016 320.179 197.452 320.09L200.08 319.553V288.043Z" fill="black"/>
<path d="M332.45 253.229V254.861V258.185H336.351V255.995H339.158V258.185H342.482V255.995H345.269V258.185H348.613V255.995H351.4V258.185H354.724V255.995H357.53V258.185H360.855V255.995H363.661V258.185H366.985V255.995H369.772V258.185H373.116V255.995H375.903V258.185H380.521V253.229H332.45Z" fill="black"/>
<path d="M222.911 284.379L202.051 287.703V319.153L222.911 314.894V284.379Z" fill="black"/>
<path d="M390.195 234.359H332.45V251.239H380.521V251.219H390.195V234.359Z" fill="black"/>
<path d="M405.601 239.037V234.359H402.874V235.454H400.068V234.359H397.321V235.454H394.514V234.359H392.185V254.882H394.514V252.632H397.321V254.882H400.068V252.632H402.874V254.882H405.601V250.881H405.641V239.037H405.601Z" fill="black"/>
<path d="M291.485 197.474V221.858H304.682C304.899 221.858 305.114 221.815 305.314 221.732C305.515 221.649 305.697 221.527 305.85 221.374C306.004 221.22 306.125 221.038 306.208 220.838C306.291 220.637 306.334 220.423 306.334 220.206V199.066C306.334 198.849 306.291 198.634 306.208 198.434C306.125 198.234 306.004 198.051 305.85 197.898C305.697 197.745 305.515 197.623 305.314 197.54C305.114 197.457 304.899 197.414 304.682 197.414L291.485 197.474Z" fill="black"/>
<path d="M135.607 200.182L127.446 198.191C127.139 198.191 126.846 198.313 126.629 198.53C126.413 198.746 126.291 199.04 126.291 199.346V220.426C126.291 220.721 126.408 221.005 126.618 221.214C126.827 221.423 127.11 221.54 127.406 221.54L135.607 219.55V200.182Z" fill="black"/>
<path d="M171.058 270.148H175.775C174.626 271.518 173.821 273.142 173.427 274.886C173.068 277.175 175.775 279.922 175.775 279.922C174.749 279.996 173.727 279.724 172.872 279.151C172.018 278.577 171.379 277.735 171.058 276.757C170.574 275.723 170.324 274.595 170.324 273.453C170.324 272.311 170.574 271.183 171.058 270.148Z" fill="black"/>
<path d="M140.782 259.836C142.712 259.8 144.582 260.513 145.997 261.826L152.208 252.809H239.054V234.298H162.101V232.307C162.101 232.307 151.889 230.078 140.882 228.027C139.608 228.286 132.243 228.027 132.243 228.027V233.382H129.356V259.776C131.665 259.796 136.383 259.896 140.782 259.836Z" fill="black"/>
<path d="M194.467 254.859V284.578L233.76 278.606C233.902 278.527 234.02 278.411 234.104 278.272C234.188 278.132 234.234 277.973 234.237 277.81V260.791L239.054 258.084V254.919L194.467 254.859Z" fill="black"/>
<path d="M192.476 254.859H153.263L147.291 263.458C148.316 264.864 148.915 266.534 149.017 268.27C149.119 270.007 148.721 271.736 147.868 273.252C146.157 275.959 127.963 303.11 123.425 309.221C123.311 309.37 123.234 309.545 123.202 309.731C123.169 309.916 123.182 310.106 123.238 310.286C123.295 310.465 123.394 310.629 123.527 310.762C123.66 310.895 123.823 310.995 124.002 311.052C130.335 313.087 136.817 314.625 143.39 315.65C145.051 315.922 146.745 315.922 148.406 315.65C148.541 315.613 148.667 315.548 148.775 315.458C148.882 315.368 148.97 315.256 149.03 315.129C149.09 315.003 149.123 314.864 149.125 314.724C149.127 314.584 149.099 314.445 149.043 314.316C148.575 312.959 148.493 311.498 148.804 310.096C149.441 306.693 155.054 298.551 155.87 297.019C156.328 296.183 157.861 296.023 159.334 296.043C159.545 296.047 159.754 296 159.943 295.907C160.132 295.814 160.297 295.677 160.423 295.508C160.55 295.339 160.634 295.142 160.669 294.934C160.705 294.726 160.691 294.513 160.628 294.312C160.527 293.386 160.48 292.456 160.488 291.525C161.031 289.493 161.927 287.573 163.136 285.852C163.478 285.509 163.895 285.249 164.354 285.094C164.814 284.938 165.303 284.891 165.783 284.956H191.959H192.476V254.859ZM188.216 280.477C187.547 281.16 186.748 281.702 185.866 282.071C184.984 282.441 184.037 282.63 183.081 282.627H172.133C171.172 282.632 170.219 282.448 169.33 282.084C168.44 281.721 167.631 281.185 166.949 280.509C166.266 279.832 165.724 279.027 165.353 278.141C164.983 277.254 164.79 276.303 164.788 275.342C164.81 274.248 165.09 273.175 165.606 272.21C166.121 271.245 166.857 270.415 167.754 269.788C168.963 268.754 170.483 268.152 172.073 268.076H183.021C184.606 268.12 186.123 268.727 187.301 269.788C188.143 270.469 188.84 271.311 189.353 272.264C189.866 273.218 190.183 274.264 190.286 275.342C190.301 277.26 189.557 279.106 188.216 280.477Z" fill="black"/>
<path d="M167.953 200.18H160.409V219.667H167.953V200.18Z" fill="black"/>
<path d="M176.552 203.645H169.923V215.548H176.552V203.645Z" fill="black"/>
<path d="M155.85 192H149.66C148.973 192 148.315 192.273 147.83 192.758C147.345 193.243 147.072 193.901 147.072 194.588V200.181H137.597V219.549H158.418V194.588C158.418 193.905 158.148 193.25 157.667 192.765C157.186 192.28 156.533 192.005 155.85 192Z" fill="black"/>
<path d="M187.758 201.176H178.562V217.677H187.758V201.176Z" fill="black"/>
<path d="M235.869 201.654H224.902V217.539H235.869V201.654Z" fill="black"/>
<path d="M289.474 221.798L237.86 215.548V203.644L289.474 197.414V221.798Z" fill="black"/>
<path d="M12.8909 235.293L17.3496 295.705C25.3117 291.724 108.277 266.146 125.296 260.891V235.293H12.8909ZM53.8758 265.29H24.8937C24.5554 265.25 24.2437 265.086 24.0176 264.831C23.7915 264.576 23.6666 264.248 23.6666 263.907C23.6666 263.566 23.7915 263.237 24.0176 262.982C24.2437 262.727 24.5554 262.564 24.8937 262.523H53.8758C54.2141 262.564 54.5258 262.727 54.7519 262.982C54.978 263.237 55.1029 263.566 55.1029 263.907C55.1029 264.248 54.978 264.576 54.7519 264.831C54.5258 265.086 54.2141 265.25 53.8758 265.29ZM58.9516 256.074H24.8937C24.5453 256.033 24.2241 255.865 23.991 255.603C23.7579 255.34 23.6292 255.002 23.6292 254.651C23.6292 254.3 23.7579 253.961 23.991 253.699C24.2241 253.437 24.5453 253.269 24.8937 253.228H58.9516C59.3001 253.269 59.6213 253.437 59.8544 253.699C60.0875 253.961 60.2162 254.3 60.2162 254.651C60.2162 255.002 60.0875 255.34 59.8544 255.603C59.6213 255.865 59.3001 256.033 58.9516 256.074ZM65.0426 246.838H24.8937C24.5084 246.838 24.1388 246.685 23.8663 246.412C23.5937 246.14 23.4407 245.77 23.4407 245.385C23.4407 245 23.5937 244.63 23.8663 244.357C24.1388 244.085 24.5084 243.932 24.8937 243.932H65.0426C65.428 243.932 65.7976 244.085 66.0701 244.357C66.3426 244.63 66.4957 245 66.4957 245.385C66.4957 245.77 66.3426 246.14 66.0701 246.412C65.7976 246.685 65.428 246.838 65.0426 246.838Z" fill="black"/>
</svg>
