<svg width="512" height="512" viewBox="0 0 512 512" fill="none" xmlns="http://www.w3.org/2000/svg">
<path d="M151.107 229.927L140.967 229.983C140.704 229.994 140.449 230.075 140.227 230.216C140.004 230.357 139.823 230.554 139.7 230.786C139.578 231.019 139.518 231.28 139.527 231.543C139.537 231.806 139.614 232.062 139.753 232.285L141.57 235.433L151.107 229.927Z" fill="black"/>
<path d="M136.942 289.832C138.319 288.046 139.322 286.001 139.891 283.819C140.516 281.295 140.557 278.662 140.011 276.12L128.152 276.215C127.662 276.217 127.189 276.399 126.825 276.726C126.46 277.054 126.23 277.504 126.176 277.992L125.146 287.22C125.118 287.489 125.144 287.762 125.223 288.021C125.302 288.28 125.432 288.521 125.605 288.729C125.779 288.937 125.992 289.108 126.233 289.232C126.474 289.357 126.737 289.431 127.007 289.452L136.427 290.13L136.942 289.832Z" fill="black"/>
<path d="M246.865 175.938L193.03 207.02L194.99 210.415L248.825 179.333L246.865 175.938Z" fill="black"/>
<path d="M257.709 169.677L252.816 172.502L254.777 175.897L259.669 173.072L257.709 169.677Z" fill="black"/>
<path d="M216.626 226.216C215.626 226.792 214.532 227.186 213.395 227.382C209.928 228.043 206.34 227.347 203.371 225.438C202.265 224.669 201.348 223.66 200.688 222.486L192.076 207.57L153.366 229.919L140.969 237.077C140.524 237.336 140.142 237.69 139.85 238.113C139.559 238.537 139.364 239.02 139.28 239.527L135.775 260.192C135.585 261.328 135.716 262.494 136.154 263.559C137.614 267.078 140.935 275.142 141.141 276.028C141.67 278.693 141.608 281.442 140.958 284.081C140.308 286.495 139.168 288.75 137.611 290.705C134.111 293.293 130.464 295.675 126.687 297.839C126.386 298.003 126.125 298.23 125.921 298.506C125.718 298.782 125.578 299.098 125.51 299.434L124.609 303.998C124.588 304.122 124.602 304.251 124.651 304.368C124.699 304.485 124.78 304.586 124.883 304.66C124.987 304.733 125.109 304.775 125.235 304.782C125.362 304.789 125.488 304.76 125.599 304.698L146.799 292.458C146.799 292.458 158.963 283.947 168.657 297.742L164.171 276.516C164.049 275.883 164.128 275.228 164.396 274.643C164.664 274.057 165.108 273.57 165.667 273.248L250.233 223.242L330.777 176.511L323.762 164.361L216.626 226.216ZM157.96 270.119C157.997 270.339 157.966 270.565 157.872 270.768C157.777 270.97 157.624 271.138 157.431 271.251C157.314 271.32 157.184 271.365 157.049 271.383C156.906 271.406 156.76 271.401 156.62 271.368C156.479 271.334 156.346 271.274 156.229 271.189C156.111 271.104 156.012 270.998 155.936 270.875C155.86 270.751 155.809 270.615 155.786 270.472L153.684 246.635C153.662 246.358 153.745 246.083 153.917 245.865C154.09 245.647 154.338 245.502 154.613 245.459C154.887 245.416 155.168 245.479 155.398 245.635C155.628 245.79 155.791 246.027 155.854 246.298L157.96 270.119ZM163.153 267.948C163.036 268.017 162.906 268.061 162.771 268.079C162.629 268.102 162.483 268.097 162.342 268.064C162.201 268.031 162.068 267.97 161.951 267.885C161.834 267.801 161.734 267.694 161.658 267.571C161.582 267.448 161.531 267.311 161.508 267.168L159.406 243.332C159.384 243.055 159.467 242.779 159.639 242.561C159.812 242.343 160.06 242.198 160.335 242.155C160.609 242.113 160.89 242.175 161.12 242.331C161.35 242.487 161.513 242.723 161.576 242.994L163.682 266.816C163.719 267.036 163.688 267.262 163.594 267.464C163.499 267.666 163.346 267.835 163.153 267.948ZM168.875 264.644C168.758 264.713 168.628 264.758 168.493 264.775C168.351 264.799 168.205 264.793 168.064 264.76C167.923 264.727 167.79 264.666 167.673 264.582C167.556 264.497 167.456 264.39 167.38 264.267C167.304 264.144 167.253 264.007 167.23 263.865L165.128 240.028C165.094 239.88 165.09 239.727 165.118 239.578C165.145 239.429 165.203 239.288 165.288 239.162C165.373 239.037 165.483 238.93 165.611 238.849C165.739 238.768 165.882 238.714 166.032 238.69C166.181 238.667 166.334 238.675 166.481 238.713C166.627 238.752 166.764 238.82 166.883 238.914C167.002 239.008 167.1 239.125 167.172 239.259C167.243 239.393 167.286 239.539 167.299 239.691L169.404 263.512C169.441 263.732 169.41 263.958 169.316 264.16C169.221 264.362 169.068 264.531 168.875 264.644ZM174.597 261.34C174.48 261.409 174.35 261.454 174.215 261.472C174.073 261.495 173.927 261.49 173.786 261.457C173.645 261.423 173.512 261.363 173.395 261.278C173.278 261.194 173.178 261.087 173.102 260.964C173.026 260.841 172.975 260.704 172.952 260.561L170.85 236.724C170.816 236.577 170.812 236.424 170.84 236.275C170.868 236.126 170.926 235.984 171.01 235.859C171.095 235.733 171.205 235.626 171.333 235.545C171.461 235.464 171.604 235.41 171.754 235.387C171.903 235.363 172.056 235.371 172.203 235.41C172.349 235.448 172.486 235.517 172.605 235.611C172.724 235.704 172.822 235.822 172.894 235.955C172.965 236.089 173.008 236.236 173.021 236.387L175.126 260.208C175.163 260.428 175.132 260.655 175.038 260.857C174.943 261.059 174.79 261.228 174.597 261.34ZM180.319 258.037C180.202 258.106 180.072 258.15 179.938 258.168C179.795 258.191 179.649 258.186 179.508 258.153C179.367 258.12 179.234 258.059 179.117 257.974C179 257.89 178.9 257.783 178.824 257.66C178.748 257.537 178.697 257.4 178.674 257.257L176.572 233.421C176.538 233.273 176.535 233.12 176.562 232.971C176.59 232.822 176.648 232.68 176.732 232.555C176.817 232.429 176.927 232.323 177.055 232.241C177.183 232.16 177.326 232.106 177.476 232.083C177.625 232.06 177.778 232.068 177.925 232.106C178.071 232.145 178.208 232.213 178.327 232.307C178.446 232.401 178.544 232.518 178.616 232.652C178.687 232.785 178.731 232.932 178.743 233.083L180.848 256.905C180.885 257.125 180.854 257.351 180.76 257.553C180.666 257.755 180.512 257.924 180.319 258.037ZM186.041 254.733C185.924 254.802 185.794 254.847 185.66 254.865C185.517 254.888 185.371 254.883 185.23 254.849C185.089 254.816 184.957 254.755 184.839 254.671C184.722 254.586 184.622 254.479 184.546 254.356C184.47 254.233 184.419 254.096 184.396 253.954L182.294 230.117C182.26 229.969 182.257 229.816 182.284 229.667C182.312 229.518 182.37 229.377 182.455 229.251C182.539 229.126 182.649 229.019 182.777 228.938C182.905 228.857 183.048 228.803 183.198 228.779C183.348 228.756 183.5 228.764 183.647 228.803C183.793 228.841 183.931 228.909 184.049 229.003C184.168 229.097 184.267 229.214 184.338 229.348C184.41 229.482 184.453 229.629 184.465 229.78L186.571 253.601C186.607 253.821 186.577 254.047 186.482 254.249C186.388 254.452 186.234 254.62 186.041 254.733ZM191.764 251.429C191.646 251.498 191.517 251.543 191.382 251.561C191.239 251.584 191.093 251.579 190.952 251.546C190.811 251.512 190.679 251.452 190.561 251.367C190.444 251.283 190.344 251.176 190.268 251.053C190.192 250.93 190.141 250.793 190.118 250.65L188.017 226.813C187.982 226.666 187.979 226.513 188.006 226.364C188.034 226.215 188.092 226.073 188.177 225.948C188.261 225.822 188.371 225.715 188.499 225.634C188.627 225.553 188.77 225.499 188.92 225.476C189.07 225.453 189.223 225.46 189.369 225.499C189.516 225.537 189.653 225.606 189.772 225.7C189.89 225.793 189.989 225.911 190.06 226.044C190.132 226.178 190.175 226.325 190.187 226.476L192.293 250.297C192.329 250.518 192.299 250.744 192.204 250.946C192.11 251.148 191.956 251.317 191.764 251.429ZM195.909 223.172L198.015 246.994C198.052 247.214 198.021 247.44 197.926 247.642C197.832 247.844 197.678 248.013 197.486 248.126C197.369 248.195 197.239 248.239 197.104 248.257C196.961 248.28 196.815 248.275 196.674 248.242C196.534 248.209 196.401 248.148 196.283 248.063C196.166 247.979 196.067 247.872 195.991 247.749C195.915 247.626 195.864 247.489 195.84 247.346L193.739 223.51C193.704 223.362 193.701 223.209 193.728 223.06C193.756 222.911 193.814 222.769 193.899 222.644C193.983 222.518 194.093 222.412 194.221 222.331C194.349 222.249 194.492 222.195 194.642 222.172C194.792 222.149 194.945 222.157 195.091 222.195C195.238 222.234 195.375 222.302 195.494 222.396C195.613 222.49 195.711 222.607 195.782 222.741C195.854 222.874 195.897 223.021 195.909 223.172Z" fill="black"/>
<path d="M339.559 126.947L337.94 124.143L330.54 128.416L328.089 124.172C327.978 123.98 327.823 123.817 327.637 123.695C327.451 123.574 327.239 123.498 327.018 123.473C326.798 123.449 326.574 123.476 326.366 123.553C326.158 123.631 325.971 123.756 325.819 123.919L320.224 129.997C319.762 130.511 319.473 131.157 319.398 131.844C319.322 132.531 319.464 133.224 319.803 133.826L307.024 141.204L308.984 144.6L339.559 126.947Z" fill="black"/>
<path d="M301.073 144.64L296.18 147.465L298.14 150.86L303.033 148.035L301.073 144.64Z" fill="black"/>
<path d="M268.552 163.416L263.66 166.24L265.62 169.635L270.512 166.811L268.552 163.416Z" fill="black"/>
<path d="M351.497 147.075L340.119 127.895L195.541 211.367L201.641 221.934C202.22 222.965 203.024 223.852 203.993 224.531C206.724 226.282 210.026 226.912 213.211 226.291C214.219 226.12 215.189 225.771 216.075 225.261L351.497 147.075Z" fill="black"/>
<path d="M279.395 157.156L274.503 159.98L276.463 163.376L281.356 160.551L279.395 157.156Z" fill="black"/>
<path d="M290.229 150.902L285.346 153.721L287.306 157.116L292.189 154.297L290.229 150.902Z" fill="black"/>
<path d="M245.892 247.173C246.8 248.746 255.316 263.87 255.306 263.875C255.547 264.173 255.715 264.523 255.795 264.897C255.875 265.272 255.865 265.66 255.766 266.03C255.667 266.4 255.481 266.741 255.225 267.025C254.968 267.31 254.648 267.529 254.29 267.666L225.576 284.842C225.35 283.793 224.962 282.786 224.425 281.857C224.141 281.36 223.814 280.89 223.448 280.45L249.006 265.694C250.189 265.011 250.425 264.252 249.731 263.051C248.36 260.676 243.993 253.113 241.896 249.48C242.761 249.42 243.601 249.169 244.358 248.745C244.946 248.302 245.463 247.772 245.892 247.173Z" fill="black"/>
<path d="M239.817 355.231L197.53 379.645L198.499 381.323L240.786 356.909L239.817 355.231Z" fill="black"/>
<path d="M214.721 259.74L219.384 267.818C220.073 268.898 220.954 269.841 221.984 270.602C224.472 272.027 229.807 274.198 235.436 271.152C235.439 271.143 235.44 271.133 235.439 271.124C235.438 271.115 235.436 271.106 235.431 271.098C235.426 271.089 235.42 271.082 235.412 271.077C235.405 271.071 235.396 271.068 235.387 271.066C234.351 270.748 228.195 269.445 225.516 265.906C223.542 262.916 221.749 259.811 220.147 256.607L214.721 259.74Z" fill="black"/>
<path d="M241.519 244.446C242.199 244.053 242.432 243.184 242.039 242.505C241.647 241.826 240.778 241.593 240.099 241.985C239.419 242.377 239.187 243.246 239.579 243.926C239.971 244.605 240.84 244.838 241.519 244.446Z" fill="black"/>
<path d="M251.717 224.711L254.652 229.794L264.868 223.769L266.123 225.943L271.883 222.617L270.595 220.386L275.555 217.458L276.871 219.738L282.631 216.412L281.282 214.075L286.242 211.148L287.619 213.532L293.37 210.212L291.96 207.771L296.92 204.843L298.357 207.332L304.118 204.007L302.648 201.46L307.608 198.533L309.105 201.127L314.856 197.807L313.331 195.165L318.291 192.238L319.844 194.927L325.604 191.602L324.018 188.855L328.979 185.928L330.592 188.722L336.352 185.396L334.706 182.545L339.666 179.617L341.34 182.517L347.091 179.196L343.07 172.057L251.717 224.711Z" fill="black"/>
<path d="M324.716 163.81L331.736 175.969L352.364 164.06C352.667 163.884 352.911 163.622 353.064 163.307C353.218 162.992 353.274 162.638 353.225 162.291C352.814 158.561 352.091 148.081 352.359 148.524L352.051 147.99L324.716 163.81Z" fill="black"/>
<path d="M213.2 250.764C212.841 250.971 212.552 251.28 212.369 251.651C212.186 252.022 212.117 252.439 212.171 252.849C212.225 253.26 212.4 253.645 212.673 253.956C212.946 254.267 213.305 254.49 213.704 254.597C214.104 254.705 214.527 254.691 214.918 254.558C215.31 254.425 215.654 254.178 215.906 253.85C216.158 253.522 216.307 253.126 216.334 252.713C216.361 252.3 216.265 251.889 216.058 251.53C215.92 251.292 215.738 251.084 215.52 250.916C215.302 250.749 215.053 250.626 214.787 250.555C214.522 250.484 214.245 250.466 213.973 250.502C213.7 250.538 213.438 250.627 213.2 250.764Z" fill="black"/>
<path d="M237.98 238.251C238.413 238.001 238.728 237.59 238.858 237.107C238.987 236.625 238.919 236.111 238.669 235.678L237.293 233.294L234.031 235.177L235.38 237.514C235.499 237.737 235.661 237.933 235.857 238.092C236.054 238.25 236.28 238.368 236.523 238.437C236.766 238.505 237.02 238.524 237.271 238.492C237.521 238.461 237.762 238.378 237.98 238.251Z" fill="black"/>
<path d="M250.592 225.36L238.236 232.723L239.623 235.126C240.019 235.811 240.126 236.626 239.921 237.391C239.716 238.155 239.216 238.807 238.531 239.203C237.845 239.598 237.031 239.706 236.266 239.501C235.502 239.296 234.85 238.796 234.454 238.11L233.111 235.783L176.715 269.412L178.617 273.565C179.095 274.637 179.941 275.502 181.003 276.002C181.682 276.305 182.425 276.44 183.167 276.396C183.91 276.353 184.631 276.131 185.27 275.751L234.521 247.036C234.848 246.848 235.207 246.723 235.58 246.667C237.154 246.407 238.769 246.77 240.081 247.679C240.55 248.014 241.094 248.229 241.666 248.304C242.237 248.38 242.819 248.314 243.359 248.113C243.899 247.911 244.381 247.581 244.764 247.149C245.147 246.718 245.417 246.199 245.553 245.639C246.32 242.564 247.868 238.173 251.171 236.495C252.045 236.095 252.779 235.44 253.274 234.616C253.77 233.793 254.004 232.838 253.948 231.878C253.891 231.367 253.798 230.859 253.669 230.361L250.707 225.23C250.675 225.278 250.636 225.322 250.592 225.36ZM215.843 255.341C215.296 255.657 214.667 255.803 214.037 255.762C213.407 255.72 212.803 255.493 212.302 255.109C211.801 254.724 211.425 254.2 211.222 253.602C211.019 253.003 210.998 252.359 211.161 251.749C211.325 251.138 211.665 250.59 212.14 250.174C212.615 249.758 213.203 249.491 213.829 249.409C214.455 249.326 215.092 249.432 215.658 249.711C216.225 249.99 216.696 250.431 217.011 250.978C217.435 251.712 217.55 252.583 217.331 253.402C217.111 254.22 216.576 254.917 215.843 255.341ZM242.066 245.414C241.632 245.665 241.134 245.781 240.634 245.748C240.134 245.715 239.655 245.535 239.258 245.23C238.86 244.925 238.562 244.509 238.401 244.035C238.24 243.56 238.224 243.049 238.353 242.565C238.483 242.081 238.753 241.647 239.13 241.316C239.506 240.986 239.972 240.775 240.469 240.709C240.966 240.644 241.471 240.727 241.92 240.949C242.369 241.171 242.743 241.52 242.993 241.954C243.328 242.534 243.42 243.223 243.248 243.871C243.076 244.518 242.654 245.071 242.076 245.409L242.066 245.414Z" fill="black"/>
<path d="M201.551 267.28L206.58 282.179L207.371 284.519L210.529 293.886L211.311 296.232L227.965 345.605C228.139 346.071 228.144 346.585 227.978 347.054C227.813 347.524 227.487 347.921 227.059 348.175L179.794 375.463L169.83 300.942L165.855 277.296C165.779 276.89 165.831 276.47 166.004 276.095C166.176 275.72 166.462 275.407 166.82 275.201L175.803 270.014L177.653 274.033C178.02 274.854 178.557 275.589 179.228 276.188C180.143 276.97 181.28 277.445 182.479 277.547C183.678 277.648 184.879 277.371 185.912 276.754L201.551 267.28Z" fill="black"/>
<path d="M218.96 284.835C219.224 285.296 219.345 285.825 219.308 286.354C219.271 286.884 219.079 287.391 218.754 287.811C218.43 288.232 217.988 288.546 217.485 288.716C216.981 288.885 216.439 288.901 215.927 288.763C215.414 288.625 214.954 288.337 214.605 287.938C214.255 287.538 214.032 287.044 213.963 286.517C213.894 285.991 213.983 285.456 214.218 284.979C214.453 284.503 214.824 284.108 215.284 283.842C215.59 283.665 215.929 283.551 216.279 283.505C216.63 283.459 216.987 283.483 217.328 283.575C217.67 283.667 217.99 283.826 218.27 284.042C218.55 284.259 218.784 284.528 218.96 284.835Z" fill="black"/>
<path d="M214.985 277.467C214.523 277.299 214.099 277.038 213.741 276.7C213.382 276.363 213.096 275.957 212.899 275.505L207.744 263.693L202.518 266.71L207.32 280.952L207.998 282.963L211.976 294.743L212.644 296.735L229.016 345.267C229.269 345.974 229.268 346.747 229.011 347.453C228.754 348.159 228.258 348.752 227.61 349.131L180.049 376.589C180.774 379.21 183.274 385.918 189.419 382.687L196.991 378.71L239.277 354.296C239.277 354.296 244.045 351.543 240.958 346.968C238.3 342.958 223.054 306.442 219.32 297.42C219.124 296.915 219.07 296.366 219.166 295.832C219.262 295.299 219.504 294.802 219.864 294.398C221.89 291.893 225.14 288.338 223.575 283.647C222.011 278.955 216.705 278.089 214.985 277.467ZM218.505 289.422C217.854 289.8 217.106 289.977 216.356 289.929C215.605 289.882 214.885 289.612 214.287 289.155C213.69 288.698 213.241 288.074 212.999 287.361C212.757 286.649 212.731 285.881 212.926 285.154C213.121 284.428 213.527 283.775 214.093 283.279C214.659 282.784 215.359 282.467 216.105 282.37C216.851 282.273 217.61 282.4 218.284 282.734C218.958 283.068 219.517 283.595 219.892 284.248C220.156 284.679 220.331 285.159 220.407 285.659C220.483 286.159 220.458 286.67 220.333 287.16C220.208 287.65 219.987 288.111 219.681 288.514C219.376 288.917 218.943 289.169 218.505 289.422Z" fill="black"/>
<path d="M218.96 284.835C219.224 285.296 219.345 285.825 219.308 286.354C219.271 286.884 219.079 287.391 218.754 287.811C218.43 288.232 217.988 288.546 217.485 288.716C216.981 288.885 216.439 288.901 215.927 288.763C215.414 288.625 214.954 288.337 214.605 287.938C214.255 287.538 214.032 287.044 213.963 286.517C213.894 285.991 213.983 285.456 214.218 284.979C214.453 284.503 214.824 284.108 215.284 283.842C215.59 283.665 215.929 283.551 216.279 283.505C216.63 283.459 216.987 283.483 217.328 283.575C217.67 283.667 217.99 283.826 218.27 284.042C218.55 284.259 218.784 284.528 218.96 284.835Z" fill="black"/>
</svg>
