<svg width="512" height="160" viewBox="0 0 512 160" fill="none" xmlns="http://www.w3.org/2000/svg">
<path d="M178.138 5.19093L169.329 0.169381C169.095 0.048242 168.834 -0.00969592 168.571 0.00132367C168.308 0.0123433 168.053 0.0919382 167.83 0.2322C167.607 0.372463 167.425 0.568515 167.302 0.800898C167.178 1.03328 167.118 1.29392 167.126 1.55692V5.19093H178.138Z" fill="black"/>
<path d="M135.918 49.9891C138.004 49.1307 139.895 47.8611 141.479 46.2559C143.282 44.3824 144.634 42.1228 145.433 39.6486L135.114 33.8012C134.689 33.5574 134.189 33.4788 133.71 33.5804C133.23 33.682 132.805 33.9566 132.515 34.3518L127.009 41.829C126.85 42.0482 126.737 42.2971 126.675 42.561C126.614 42.8249 126.606 43.0984 126.652 43.3653C126.698 43.6323 126.798 43.8872 126.944 44.1151C127.091 44.343 127.281 44.5393 127.505 44.6922L135.324 49.9891H135.918Z" fill="black"/>
<path d="M288.062 6.31445H225.898V10.2348H288.062V6.31445Z" fill="black"/>
<path d="M300.583 6.31445H294.934V10.2348H300.583V6.31445Z" fill="black"/>
<path d="M236.734 34.7369C235.581 34.7353 234.436 34.5303 233.354 34.1312C230.021 32.9701 227.261 30.5733 225.645 27.4358C225.071 26.2172 224.781 24.8843 224.797 23.5375V6.31445H180.099H165.783C165.269 6.31629 164.761 6.43175 164.297 6.65258C163.832 6.87341 163.422 7.19414 163.096 7.59186L149.727 23.7357C148.995 24.6244 148.526 25.7 148.373 26.8411C147.877 30.6183 146.721 39.2629 146.457 40.1328C145.582 42.7058 144.154 45.0553 142.272 47.0154C140.502 48.7809 138.388 50.1639 136.061 51.0789C131.736 51.5704 127.386 51.8094 123.034 51.7947C122.691 51.7862 122.351 51.8528 122.037 51.9897C121.723 52.1267 121.443 52.3308 121.217 52.5876L118.155 56.0895C118.074 56.1869 118.022 56.3054 118.006 56.431C117.989 56.5567 118.008 56.6845 118.061 56.7997C118.114 56.9149 118.199 57.0127 118.305 57.0819C118.411 57.1511 118.535 57.1888 118.662 57.1907H143.142C143.142 57.1907 157.931 55.9023 159.429 72.6958L166.157 52.07C166.368 51.4614 166.764 50.9337 167.289 50.5606C167.814 50.1875 168.442 49.9876 169.087 49.9887L267.326 48.9646L360.445 48.7664V34.7369H236.734ZM163.977 43.4255C163.899 43.6345 163.759 43.8148 163.576 43.9427C163.393 44.0705 163.176 44.1397 162.953 44.1413C162.817 44.1424 162.682 44.1162 162.556 44.0642C162.421 44.0128 162.297 43.9354 162.192 43.8362C162.087 43.737 162.002 43.6181 161.943 43.4862C161.883 43.3543 161.851 43.212 161.846 43.0674C161.842 42.9228 161.866 42.7788 161.918 42.6436L172.016 20.9496C172.135 20.6986 172.345 20.502 172.603 20.3991C172.861 20.2963 173.149 20.2949 173.408 20.3953C173.667 20.4956 173.879 20.6902 174.001 20.9401C174.122 21.19 174.145 21.4766 174.064 21.7425L163.977 43.4255ZM169.56 44.1413C169.424 44.1424 169.289 44.1162 169.164 44.0642C169.028 44.0128 168.905 43.9354 168.799 43.8362C168.694 43.737 168.609 43.6181 168.55 43.4862C168.491 43.3543 168.458 43.212 168.454 43.0674C168.449 42.9228 168.474 42.7788 168.525 42.6436L178.623 20.9496C178.742 20.6986 178.952 20.502 179.21 20.3991C179.469 20.2963 179.756 20.2949 180.015 20.3953C180.274 20.4956 180.486 20.6902 180.608 20.9401C180.729 21.19 180.752 21.4766 180.671 21.7425L170.584 43.4255C170.506 43.6345 170.366 43.8148 170.183 43.9427C170.001 44.0705 169.783 44.1397 169.56 44.1413ZM176.167 44.1413C176.031 44.1424 175.897 44.1162 175.771 44.0642C175.636 44.0128 175.512 43.9354 175.407 43.8362C175.301 43.737 175.217 43.6181 175.157 43.4862C175.098 43.3543 175.065 43.212 175.061 43.0674C175.057 42.9228 175.081 42.7788 175.132 42.6436L185.23 20.9496C185.274 20.8047 185.348 20.6704 185.446 20.5551C185.545 20.4399 185.666 20.3462 185.802 20.2798C185.938 20.2135 186.087 20.176 186.238 20.1697C186.389 20.1633 186.54 20.1883 186.682 20.2429C186.823 20.2976 186.951 20.3809 187.059 20.4875C187.167 20.5941 187.251 20.7218 187.307 20.8625C187.363 21.0033 187.39 21.1541 187.385 21.3055C187.38 21.4569 187.344 21.6057 187.279 21.7425L177.192 43.4255C177.113 43.6345 176.974 43.8148 176.791 43.9427C176.608 44.0705 176.391 44.1397 176.167 44.1413ZM182.775 44.1413C182.639 44.1424 182.504 44.1162 182.378 44.0642C182.243 44.0128 182.119 43.9354 182.014 43.8362C181.909 43.737 181.824 43.6181 181.765 43.4862C181.705 43.3543 181.673 43.212 181.668 43.0674C181.664 42.9228 181.688 42.7788 181.74 42.6436L191.838 20.9496C191.882 20.8047 191.955 20.6704 192.054 20.5551C192.152 20.4399 192.273 20.3462 192.409 20.2798C192.545 20.2135 192.694 20.176 192.845 20.1697C192.997 20.1633 193.148 20.1883 193.289 20.2429C193.43 20.2976 193.559 20.3809 193.666 20.4875C193.774 20.5941 193.858 20.7218 193.914 20.8625C193.97 21.0033 193.997 21.1541 193.992 21.3055C193.987 21.4569 193.951 21.6057 193.886 21.7425L183.799 43.4255C183.721 43.6345 183.581 43.8148 183.398 43.9427C183.215 44.0705 182.998 44.1397 182.775 44.1413ZM189.382 44.1413C189.246 44.1424 189.111 44.1162 188.986 44.0642C188.85 44.0128 188.727 43.9354 188.621 43.8362C188.516 43.737 188.431 43.6181 188.372 43.4862C188.313 43.3543 188.28 43.212 188.276 43.0674C188.271 42.9228 188.295 42.7788 188.347 42.6436L198.445 20.9496C198.489 20.8047 198.563 20.6704 198.661 20.5551C198.759 20.4399 198.88 20.3462 199.016 20.2798C199.153 20.2135 199.301 20.176 199.452 20.1697C199.604 20.1633 199.755 20.1883 199.896 20.2429C200.037 20.2976 200.166 20.3809 200.274 20.4875C200.381 20.5941 200.466 20.7218 200.522 20.8625C200.578 21.0033 200.604 21.1541 200.599 21.3055C200.594 21.4569 200.558 21.6057 200.493 21.7425L190.406 43.4255C190.328 43.6345 190.188 43.8148 190.005 43.9427C189.823 44.0705 189.605 44.1397 189.382 44.1413ZM195.989 44.1413C195.853 44.1424 195.718 44.1162 195.593 44.0642C195.458 44.0128 195.334 43.9354 195.229 43.8362C195.123 43.737 195.039 43.6181 194.979 43.4862C194.92 43.3543 194.887 43.212 194.883 43.0674C194.879 42.9228 194.903 42.7788 194.954 42.6436L205.052 20.9496C205.096 20.8047 205.17 20.6704 205.268 20.5551C205.367 20.4399 205.488 20.3462 205.624 20.2798C205.76 20.2135 205.908 20.176 206.06 20.1697C206.211 20.1633 206.362 20.1883 206.503 20.2429C206.645 20.2976 206.773 20.3809 206.881 20.4875C206.988 20.5941 207.073 20.7218 207.129 20.8625C207.185 21.0033 207.211 21.1541 207.207 21.3055C207.202 21.4569 207.166 21.6057 207.101 21.7425L197.013 43.4255C196.935 43.6345 196.796 43.8148 196.613 43.9427C196.43 44.0705 196.212 44.1397 195.989 44.1413ZM202.597 44.1413C202.461 44.1424 202.326 44.1162 202.2 44.0642C202.065 44.0128 201.941 43.9354 201.836 43.8362C201.731 43.737 201.646 43.6181 201.587 43.4862C201.527 43.3543 201.494 43.212 201.49 43.0674C201.486 42.9228 201.51 42.7788 201.561 42.6436L211.66 20.9496C211.704 20.8047 211.777 20.6704 211.875 20.5551C211.974 20.4399 212.095 20.3462 212.231 20.2798C212.367 20.2135 212.516 20.176 212.667 20.1697C212.818 20.1633 212.969 20.1883 213.111 20.2429C213.252 20.2976 213.381 20.3809 213.488 20.4875C213.596 20.5941 213.68 20.7218 213.736 20.8625C213.792 21.0033 213.819 21.1541 213.814 21.3055C213.809 21.4569 213.773 21.6057 213.708 21.7425L203.621 43.4255C203.543 43.6345 203.403 43.8148 203.22 43.9427C203.037 44.0705 202.82 44.1397 202.597 44.1413ZM220.315 21.7425L210.228 43.4255C210.15 43.6345 210.01 43.8148 209.827 43.9427C209.644 44.0705 209.427 44.1397 209.204 44.1413C209.068 44.1424 208.933 44.1162 208.807 44.0642C208.672 44.0128 208.548 43.9354 208.443 43.8362C208.338 43.737 208.253 43.6181 208.194 43.4862C208.135 43.3543 208.102 43.212 208.097 43.0674C208.093 42.9228 208.117 42.7788 208.169 42.6436L218.267 20.9496C218.311 20.8047 218.384 20.6704 218.483 20.5551C218.581 20.4399 218.702 20.3462 218.838 20.2798C218.975 20.2135 219.123 20.176 219.274 20.1697C219.426 20.1633 219.577 20.1883 219.718 20.2429C219.859 20.2976 219.988 20.3809 220.095 20.4875C220.203 20.5941 220.288 20.7218 220.344 20.8625C220.4 21.0033 220.426 21.1541 220.421 21.3055C220.416 21.4569 220.38 21.6057 220.315 21.7425Z" fill="black"/>
<path d="M392.832 10.2352V6.99763H384.286V2.09721C384.286 1.87511 384.233 1.65621 384.133 1.45809C384.033 1.25998 383.887 1.08816 383.708 0.956443C383.529 0.824727 383.322 0.736782 383.103 0.699664C382.884 0.662547 382.66 0.677296 382.447 0.742723L374.563 3.20944C373.906 3.42363 373.332 3.83844 372.923 4.39552C372.515 4.95259 372.291 5.62387 372.283 6.31487H357.527V10.2352H392.832Z" fill="black"/>
<path d="M350.655 6.31445H345.006V10.2348H350.655V6.31445Z" fill="black"/>
<path d="M313.104 6.31445H307.455V10.2348H313.104V6.31445Z" fill="black"/>
<path d="M393.107 33.6356L392.843 11.3359H225.899V23.5374C225.885 24.7199 226.137 25.8904 226.636 26.9622C228.127 29.8446 230.671 32.0415 233.739 33.096C234.698 33.4518 235.712 33.6345 236.734 33.6356H393.107Z" fill="black"/>
<path d="M325.624 6.31445H319.975V10.2348H325.624V6.31445Z" fill="black"/>
<path d="M338.134 6.31445H332.496V10.2348H338.134V6.31445Z" fill="black"/>
<path d="M251.601 67.5195C251.601 69.3365 251.413 86.6917 251.402 86.6917C251.463 87.0699 251.433 87.457 251.315 87.8214C251.197 88.1857 250.994 88.5168 250.723 88.7876C250.452 89.0585 250.121 89.2612 249.757 89.3793C249.393 89.4973 249.006 89.5273 248.627 89.4668L215.172 89.9844C215.501 88.963 215.668 87.8967 215.668 86.8239C215.67 86.2518 215.623 85.6806 215.525 85.117H245.037C246.403 85.117 246.987 84.5774 246.987 83.1899C246.987 80.4478 246.987 71.7152 246.987 67.5195C247.766 67.8999 248.619 68.103 249.486 68.1142C250.217 68.0249 250.93 67.8244 251.601 67.5195Z" fill="black"/>
<path d="M192.311 158.062H143.483V160.001H192.311V158.062Z" fill="black"/>
<path d="M218.322 62.8184V72.1457C218.379 73.4249 218.67 74.6829 219.181 75.8568C220.624 78.3345 224.159 82.8825 230.557 83.0587C230.564 83.0525 230.569 83.0449 230.573 83.0364C230.577 83.0278 230.579 83.0185 230.579 83.0092C230.579 82.9998 230.577 82.9905 230.573 82.982C230.569 82.9734 230.564 82.9658 230.557 82.9596C229.819 82.1667 225.139 77.9601 224.588 73.5552C224.374 69.9795 224.374 66.3941 224.588 62.8184H218.322Z" fill="black"/>
<path d="M249.178 62.972C249.963 62.972 250.599 62.336 250.599 61.5514C250.599 60.7669 249.963 60.1309 249.178 60.1309C248.394 60.1309 247.758 60.7669 247.758 61.5514C247.758 62.336 248.394 62.972 249.178 62.972Z" fill="black"/>
<path d="M267.877 50.9785V56.848L279.737 56.7379V59.2487H286.388V56.6718L292.148 56.6167V59.2487H298.799V56.5507L304.558 56.4956V59.2487H311.199V56.4295L316.958 56.3745V59.2487H323.61V56.3084L329.369 56.2533V59.2487H336.009V56.1983L341.769 56.1432V59.2487H348.42V56.0772L354.179 56.0221V59.2487H360.831V55.956L366.59 55.901V59.2487H373.23L373.318 51.0556L267.877 50.9785Z" fill="black"/>
<path d="M361.546 34.7362V48.7767H385.366C385.716 48.776 386.058 48.6708 386.349 48.4747C386.639 48.2785 386.864 48.0003 386.995 47.6755C388.504 44.2397 393.118 34.8022 393.129 35.3198V34.7031L361.546 34.7362Z" fill="black"/>
<path d="M221.494 54.2832C221.08 54.2832 220.675 54.4059 220.331 54.6358C219.987 54.8657 219.719 55.1925 219.561 55.5748C219.402 55.9571 219.361 56.3778 219.442 56.7837C219.522 57.1896 219.722 57.5624 220.014 57.855C220.307 58.1476 220.68 58.3469 221.085 58.4276C221.491 58.5084 221.912 58.4669 222.294 58.3086C222.677 58.1502 223.003 57.882 223.233 57.5379C223.463 57.1939 223.586 56.7893 223.586 56.3755C223.586 56.1008 223.532 55.8287 223.427 55.5748C223.322 55.321 223.167 55.0903 222.973 54.896C222.779 54.7017 222.548 54.5476 222.294 54.4425C222.041 54.3373 221.768 54.2832 221.494 54.2832Z" fill="black"/>
<path d="M249.211 55.8353C249.71 55.8353 250.189 55.6369 250.542 55.2838C250.896 54.9306 251.094 54.4517 251.094 53.9523V51.1992H247.328V53.8972C247.319 54.1495 247.361 54.4009 247.452 54.6365C247.543 54.872 247.68 55.0868 247.856 55.2678C248.032 55.4489 248.243 55.5925 248.475 55.69C248.708 55.7876 248.958 55.837 249.211 55.8353Z" fill="black"/>
<path d="M266.577 50.9789L252.195 51.1771V53.9522C252.195 54.7437 251.881 55.5027 251.321 56.0624C250.762 56.6221 250.003 56.9365 249.211 56.9365C248.42 56.9365 247.661 56.6221 247.101 56.0624C246.541 55.5027 246.227 54.7437 246.227 53.9522V51.2652L180.572 52.1902L180.143 56.7382C180.021 57.9055 180.322 59.0777 180.991 60.0419C181.428 60.6438 182.003 61.132 182.668 61.4654C183.333 61.7988 184.068 61.9678 184.812 61.958L241.822 61.7157C242.199 61.7164 242.572 61.7873 242.923 61.925C244.417 62.4873 245.633 63.609 246.315 65.0524C246.554 65.5771 246.918 66.0351 247.375 66.3863C247.832 66.7376 248.369 66.9713 248.937 67.0669C249.506 67.1626 250.089 67.1173 250.636 66.935C251.183 66.7528 251.677 66.4391 252.074 66.0215C254.277 63.742 257.812 60.7136 261.512 60.9118C262.469 61.0027 263.431 60.8021 264.272 60.3364C265.113 59.8706 265.794 59.1615 266.225 58.302C266.431 57.8301 266.604 57.3444 266.742 56.8484V50.9238C266.69 50.9496 266.635 50.9682 266.577 50.9789ZM221.493 59.5684C220.862 59.5684 220.244 59.3811 219.719 59.0302C219.194 58.6793 218.785 58.1805 218.543 57.597C218.301 57.0134 218.238 56.3713 218.361 55.7518C218.485 55.1323 218.789 54.5633 219.235 54.1167C219.682 53.6701 220.251 53.3659 220.87 53.2427C221.49 53.1195 222.132 53.1827 222.716 53.4244C223.299 53.6661 223.798 54.0754 224.149 54.6006C224.5 55.1258 224.687 55.7432 224.687 56.3748C224.687 57.2218 224.351 58.0341 223.752 58.633C223.153 59.2319 222.34 59.5684 221.493 59.5684ZM249.167 64.0834C248.666 64.0834 248.176 63.9348 247.76 63.6565C247.343 63.3782 247.019 62.9826 246.827 62.5198C246.635 62.057 246.585 61.5478 246.683 61.0564C246.781 60.5651 247.022 60.1138 247.376 59.7596C247.73 59.4054 248.182 59.1642 248.673 59.0664C249.164 58.9687 249.674 59.0189 250.136 59.2106C250.599 59.4023 250.995 59.7269 251.273 60.1434C251.551 60.5599 251.7 61.0496 251.7 61.5506C251.7 62.2204 251.435 62.863 250.962 63.3376C250.489 63.8123 249.848 64.0804 249.178 64.0834H249.167Z" fill="black"/>
<path d="M203.147 62.7634L200.053 78.1805L199.568 80.6031L197.619 90.2938L197.123 92.7165L186.86 143.802C186.777 144.293 186.525 144.74 186.146 145.064C185.768 145.388 185.288 145.569 184.79 145.575H130.213L158.845 76.0551L167.225 53.5903C167.362 53.2004 167.617 52.8627 167.954 52.6239C168.292 52.3852 168.695 52.2573 169.108 52.2578H179.482L179.074 56.6627C178.981 57.5576 179.079 58.4621 179.361 59.3166C179.762 60.4514 180.509 61.4317 181.497 62.1192C182.485 62.8068 183.663 63.1669 184.867 63.1488L203.147 62.7634Z" fill="black"/>
<path d="M209.446 86.6706C209.444 87.2016 209.285 87.72 208.988 88.1604C208.691 88.6008 208.271 88.9435 207.78 89.1452C207.289 89.3469 206.749 89.3985 206.228 89.2936C205.708 89.1887 205.23 88.9319 204.855 88.5557C204.481 88.1795 204.226 87.7007 204.123 87.1798C204.02 86.6589 204.074 86.1192 204.278 85.6288C204.482 85.1385 204.826 84.7195 205.268 84.4247C205.709 84.13 206.228 83.9727 206.759 83.9727C207.113 83.9727 207.463 84.0425 207.79 84.1782C208.117 84.314 208.413 84.5129 208.663 84.7635C208.913 85.0142 209.11 85.3117 209.245 85.639C209.379 85.9663 209.448 86.3168 209.446 86.6706Z" fill="black"/>
<path d="M209.688 78.3011C209.372 77.9239 209.136 77.4863 208.994 77.0149C208.852 76.5436 208.807 76.0483 208.862 75.5591L210.305 62.752H204.27L201.308 77.4862L200.889 79.5675L198.445 91.758L198.026 93.8173L187.939 144.033C187.805 144.772 187.417 145.441 186.842 145.923C186.267 146.406 185.541 146.672 184.79 146.676H129.872C129.189 149.308 128 156.366 134.937 156.642L143.483 156.983H192.311C192.311 156.983 197.817 156.983 197.432 151.477C197.134 146.676 202.189 107.428 203.466 97.7486C203.548 97.213 203.777 96.7104 204.127 96.2965C204.477 95.8826 204.934 95.5734 205.448 95.403C208.455 94.2468 213.047 92.7932 214.038 87.9478C215.029 83.1024 210.866 79.6997 209.688 78.3011ZM206.759 90.4145C206.007 90.4167 205.27 90.1955 204.644 89.7788C204.018 89.3622 203.529 88.769 203.24 88.0743C202.951 87.3797 202.875 86.6148 203.021 85.8769C203.167 85.1389 203.529 84.4609 204.061 83.9289C204.593 83.3969 205.271 83.0349 206.009 82.8886C206.747 82.7424 207.512 82.8185 208.207 83.1075C208.901 83.3964 209.495 83.885 209.911 84.5115C210.328 85.1379 210.549 85.874 210.547 86.6263C210.56 87.1321 210.472 87.6354 210.288 88.1065C210.103 88.5776 209.826 89.007 209.473 89.3693C209.12 89.7316 208.698 90.0196 208.232 90.2161C207.766 90.4126 207.265 90.4147 206.759 90.4145Z" fill="black"/>
<path d="M209.446 86.6706C209.444 87.2016 209.285 87.72 208.988 88.1604C208.691 88.6008 208.271 88.9435 207.78 89.1452C207.289 89.3469 206.749 89.3985 206.228 89.2936C205.708 89.1887 205.23 88.9319 204.855 88.5557C204.481 88.1795 204.226 87.7007 204.123 87.1798C204.02 86.6589 204.074 86.1192 204.278 85.6288C204.482 85.1385 204.826 84.7195 205.268 84.4247C205.709 84.13 206.228 83.9727 206.759 83.9727C207.113 83.9727 207.463 84.0425 207.79 84.1782C208.117 84.314 208.413 84.5129 208.663 84.7635C208.913 85.0142 209.11 85.3117 209.245 85.639C209.379 85.9663 209.448 86.3168 209.446 86.6706Z" fill="black"/>
</svg>
