<svg width="512" height="512" viewBox="0 0 512 512" fill="none" xmlns="http://www.w3.org/2000/svg">
<path d="M178.138 181.191L169.329 176.169C169.095 176.048 168.834 175.99 168.571 176.001C168.308 176.012 168.053 176.092 167.83 176.232C167.607 176.372 167.425 176.569 167.302 176.801C167.178 177.033 167.118 177.294 167.126 177.557V181.191H178.138Z" fill="black"/>
<path d="M135.918 225.989C138.004 225.131 139.895 223.861 141.479 222.256C143.282 220.382 144.634 218.123 145.433 215.649L135.114 209.801C134.689 209.557 134.189 209.479 133.71 209.58C133.23 209.682 132.805 209.957 132.515 210.352L127.009 217.829C126.85 218.048 126.737 218.297 126.675 218.561C126.614 218.825 126.606 219.098 126.652 219.365C126.698 219.632 126.798 219.887 126.944 220.115C127.091 220.343 127.281 220.539 127.505 220.692L135.324 225.989H135.918Z" fill="black"/>
<path d="M288.062 182.314H225.898V186.235H288.062V182.314Z" fill="black"/>
<path d="M300.583 182.314H294.934V186.235H300.583V182.314Z" fill="black"/>
<path d="M236.734 210.737C235.581 210.735 234.436 210.53 233.354 210.131C230.021 208.97 227.261 206.573 225.645 203.436C225.071 202.217 224.781 200.884 224.797 199.537V182.314H180.099H165.783C165.269 182.316 164.761 182.432 164.297 182.653C163.832 182.873 163.422 183.194 163.096 183.592L149.727 199.736C148.995 200.624 148.526 201.7 148.373 202.841C147.877 206.618 146.721 215.263 146.457 216.133C145.582 218.706 144.154 221.055 142.272 223.015C140.502 224.781 138.388 226.164 136.061 227.079C131.736 227.57 127.386 227.809 123.034 227.795C122.691 227.786 122.351 227.853 122.037 227.99C121.723 228.127 121.443 228.331 121.217 228.588L118.155 232.089C118.074 232.187 118.022 232.305 118.006 232.431C117.989 232.557 118.008 232.685 118.061 232.8C118.114 232.915 118.199 233.013 118.305 233.082C118.411 233.151 118.535 233.189 118.662 233.191H143.142C143.142 233.191 157.931 231.902 159.429 248.696L166.157 228.07C166.368 227.461 166.764 226.934 167.289 226.561C167.814 226.188 168.442 225.988 169.087 225.989L267.326 224.965L360.445 224.766V210.737H236.734ZM163.977 219.425C163.899 219.634 163.759 219.815 163.576 219.943C163.393 220.07 163.176 220.14 162.953 220.141C162.817 220.142 162.682 220.116 162.556 220.064C162.421 220.013 162.297 219.935 162.192 219.836C162.087 219.737 162.002 219.618 161.943 219.486C161.883 219.354 161.851 219.212 161.846 219.067C161.842 218.923 161.866 218.779 161.918 218.644L172.016 196.95C172.135 196.699 172.345 196.502 172.603 196.399C172.861 196.296 173.149 196.295 173.408 196.395C173.667 196.496 173.879 196.69 174.001 196.94C174.122 197.19 174.145 197.477 174.064 197.743L163.977 219.425ZM169.56 220.141C169.424 220.142 169.289 220.116 169.164 220.064C169.028 220.013 168.905 219.935 168.799 219.836C168.694 219.737 168.609 219.618 168.55 219.486C168.491 219.354 168.458 219.212 168.454 219.067C168.449 218.923 168.474 218.779 168.525 218.644L178.623 196.95C178.742 196.699 178.952 196.502 179.21 196.399C179.469 196.296 179.756 196.295 180.015 196.395C180.274 196.496 180.486 196.69 180.608 196.94C180.729 197.19 180.752 197.477 180.671 197.743L170.584 219.425C170.506 219.634 170.366 219.815 170.183 219.943C170.001 220.07 169.783 220.14 169.56 220.141ZM176.167 220.141C176.031 220.142 175.897 220.116 175.771 220.064C175.636 220.013 175.512 219.935 175.407 219.836C175.301 219.737 175.217 219.618 175.157 219.486C175.098 219.354 175.065 219.212 175.061 219.067C175.057 218.923 175.081 218.779 175.132 218.644L185.23 196.95C185.274 196.805 185.348 196.67 185.446 196.555C185.545 196.44 185.666 196.346 185.802 196.28C185.938 196.214 186.087 196.176 186.238 196.17C186.389 196.163 186.54 196.188 186.682 196.243C186.823 196.298 186.951 196.381 187.059 196.487C187.167 196.594 187.251 196.722 187.307 196.863C187.363 197.003 187.39 197.154 187.385 197.305C187.38 197.457 187.344 197.606 187.279 197.743L177.192 219.425C177.113 219.634 176.974 219.815 176.791 219.943C176.608 220.07 176.391 220.14 176.167 220.141ZM182.775 220.141C182.639 220.142 182.504 220.116 182.378 220.064C182.243 220.013 182.119 219.935 182.014 219.836C181.909 219.737 181.824 219.618 181.765 219.486C181.705 219.354 181.673 219.212 181.668 219.067C181.664 218.923 181.688 218.779 181.74 218.644L191.838 196.95C191.882 196.805 191.955 196.67 192.054 196.555C192.152 196.44 192.273 196.346 192.409 196.28C192.545 196.214 192.694 196.176 192.845 196.17C192.997 196.163 193.148 196.188 193.289 196.243C193.43 196.298 193.559 196.381 193.666 196.487C193.774 196.594 193.858 196.722 193.914 196.863C193.97 197.003 193.997 197.154 193.992 197.305C193.987 197.457 193.951 197.606 193.886 197.743L183.799 219.425C183.721 219.634 183.581 219.815 183.398 219.943C183.215 220.07 182.998 220.14 182.775 220.141ZM189.382 220.141C189.246 220.142 189.111 220.116 188.986 220.064C188.85 220.013 188.727 219.935 188.621 219.836C188.516 219.737 188.431 219.618 188.372 219.486C188.313 219.354 188.28 219.212 188.276 219.067C188.271 218.923 188.295 218.779 188.347 218.644L198.445 196.95C198.489 196.805 198.563 196.67 198.661 196.555C198.759 196.44 198.88 196.346 199.016 196.28C199.153 196.214 199.301 196.176 199.452 196.17C199.604 196.163 199.755 196.188 199.896 196.243C200.037 196.298 200.166 196.381 200.274 196.487C200.381 196.594 200.466 196.722 200.522 196.863C200.578 197.003 200.604 197.154 200.599 197.305C200.594 197.457 200.558 197.606 200.493 197.743L190.406 219.425C190.328 219.634 190.188 219.815 190.005 219.943C189.823 220.07 189.605 220.14 189.382 220.141ZM195.989 220.141C195.853 220.142 195.718 220.116 195.593 220.064C195.458 220.013 195.334 219.935 195.229 219.836C195.123 219.737 195.039 219.618 194.979 219.486C194.92 219.354 194.887 219.212 194.883 219.067C194.879 218.923 194.903 218.779 194.954 218.644L205.052 196.95C205.096 196.805 205.17 196.67 205.268 196.555C205.367 196.44 205.488 196.346 205.624 196.28C205.76 196.214 205.908 196.176 206.06 196.17C206.211 196.163 206.362 196.188 206.503 196.243C206.645 196.298 206.773 196.381 206.881 196.487C206.988 196.594 207.073 196.722 207.129 196.863C207.185 197.003 207.211 197.154 207.207 197.305C207.202 197.457 207.166 197.606 207.101 197.743L197.013 219.425C196.935 219.634 196.796 219.815 196.613 219.943C196.43 220.07 196.212 220.14 195.989 220.141ZM202.597 220.141C202.461 220.142 202.326 220.116 202.2 220.064C202.065 220.013 201.941 219.935 201.836 219.836C201.731 219.737 201.646 219.618 201.587 219.486C201.527 219.354 201.494 219.212 201.49 219.067C201.486 218.923 201.51 218.779 201.561 218.644L211.66 196.95C211.704 196.805 211.777 196.67 211.875 196.555C211.974 196.44 212.095 196.346 212.231 196.28C212.367 196.214 212.516 196.176 212.667 196.17C212.818 196.163 212.969 196.188 213.111 196.243C213.252 196.298 213.381 196.381 213.488 196.487C213.596 196.594 213.68 196.722 213.736 196.863C213.792 197.003 213.819 197.154 213.814 197.305C213.809 197.457 213.773 197.606 213.708 197.743L203.621 219.425C203.543 219.634 203.403 219.815 203.22 219.943C203.037 220.07 202.82 220.14 202.597 220.141ZM220.315 197.743L210.228 219.425C210.15 219.634 210.01 219.815 209.827 219.943C209.644 220.07 209.427 220.14 209.204 220.141C209.068 220.142 208.933 220.116 208.807 220.064C208.672 220.013 208.548 219.935 208.443 219.836C208.338 219.737 208.253 219.618 208.194 219.486C208.135 219.354 208.102 219.212 208.097 219.067C208.093 218.923 208.117 218.779 208.169 218.644L218.267 196.95C218.311 196.805 218.384 196.67 218.483 196.555C218.581 196.44 218.702 196.346 218.838 196.28C218.975 196.214 219.123 196.176 219.274 196.17C219.426 196.163 219.577 196.188 219.718 196.243C219.859 196.298 219.988 196.381 220.095 196.487C220.203 196.594 220.288 196.722 220.344 196.863C220.4 197.003 220.426 197.154 220.421 197.305C220.416 197.457 220.38 197.606 220.315 197.743Z" fill="black"/>
<path d="M392.832 186.235V182.998H384.286V178.097C384.286 177.875 384.233 177.656 384.133 177.458C384.033 177.26 383.887 177.088 383.708 176.956C383.529 176.825 383.322 176.737 383.103 176.7C382.884 176.663 382.66 176.677 382.447 176.743L374.563 179.209C373.906 179.424 373.332 179.838 372.923 180.396C372.515 180.953 372.291 181.624 372.283 182.315H357.527V186.235H392.832Z" fill="black"/>
<path d="M350.655 182.314H345.006V186.235H350.655V182.314Z" fill="black"/>
<path d="M313.104 182.314H307.455V186.235H313.104V182.314Z" fill="black"/>
<path d="M393.107 209.636L392.843 187.336H225.899V199.537C225.885 200.72 226.137 201.89 226.636 202.962C228.127 205.845 230.671 208.041 233.739 209.096C234.698 209.452 235.712 209.635 236.734 209.636H393.107Z" fill="black"/>
<path d="M325.624 182.314H319.975V186.235H325.624V182.314Z" fill="black"/>
<path d="M338.134 182.314H332.496V186.235H338.134V182.314Z" fill="black"/>
<path d="M251.601 243.52C251.601 245.337 251.413 262.692 251.402 262.692C251.463 263.07 251.433 263.457 251.315 263.821C251.197 264.186 250.994 264.517 250.723 264.788C250.452 265.058 250.121 265.261 249.757 265.379C249.393 265.497 249.006 265.527 248.627 265.467L215.172 265.984C215.501 264.963 215.668 263.897 215.668 262.824C215.67 262.252 215.623 261.681 215.525 261.117H245.037C246.403 261.117 246.987 260.577 246.987 259.19C246.987 256.448 246.987 247.715 246.987 243.52C247.766 243.9 248.619 244.103 249.486 244.114C250.217 244.025 250.93 243.824 251.601 243.52Z" fill="black"/>
<path d="M192.311 334.062H143.483V336.001H192.311V334.062Z" fill="black"/>
<path d="M218.322 238.818V248.146C218.379 249.425 218.67 250.683 219.181 251.857C220.624 254.335 224.159 258.883 230.557 259.059C230.564 259.053 230.569 259.045 230.573 259.036C230.577 259.028 230.579 259.019 230.579 259.009C230.579 259 230.577 258.991 230.573 258.982C230.569 258.973 230.564 258.966 230.557 258.96C229.819 258.167 225.139 253.96 224.588 249.555C224.374 245.979 224.374 242.394 224.588 238.818H218.322Z" fill="black"/>
<path d="M249.178 238.972C249.963 238.972 250.599 238.336 250.599 237.551C250.599 236.767 249.963 236.131 249.178 236.131C248.394 236.131 247.758 236.767 247.758 237.551C247.758 238.336 248.394 238.972 249.178 238.972Z" fill="black"/>
<path d="M267.877 226.979V232.848L279.737 232.738V235.249H286.388V232.672L292.148 232.617V235.249H298.799V232.551L304.558 232.496V235.249H311.199V232.43L316.958 232.374V235.249H323.61V232.308L329.369 232.253V235.249H336.009V232.198L341.769 232.143V235.249H348.42V232.077L354.179 232.022V235.249H360.831V231.956L366.59 231.901V235.249H373.23L373.318 227.056L267.877 226.979Z" fill="black"/>
<path d="M361.546 210.736V224.777H385.366C385.716 224.776 386.058 224.671 386.349 224.475C386.639 224.279 386.864 224 386.995 223.675C388.504 220.24 393.118 210.802 393.129 211.32V210.703L361.546 210.736Z" fill="black"/>
<path d="M221.494 230.283C221.08 230.283 220.675 230.406 220.331 230.636C219.987 230.866 219.719 231.193 219.561 231.575C219.402 231.957 219.361 232.378 219.442 232.784C219.522 233.19 219.722 233.562 220.014 233.855C220.307 234.148 220.68 234.347 221.085 234.428C221.491 234.508 221.912 234.467 222.294 234.309C222.677 234.15 223.003 233.882 223.233 233.538C223.463 233.194 223.586 232.789 223.586 232.376C223.586 232.101 223.532 231.829 223.427 231.575C223.322 231.321 223.167 231.09 222.973 230.896C222.779 230.702 222.548 230.548 222.294 230.442C222.041 230.337 221.768 230.283 221.494 230.283Z" fill="black"/>
<path d="M249.211 231.835C249.71 231.835 250.189 231.637 250.542 231.284C250.896 230.931 251.094 230.452 251.094 229.952V227.199H247.328V229.897C247.319 230.149 247.361 230.401 247.452 230.636C247.543 230.872 247.68 231.087 247.856 231.268C248.032 231.449 248.243 231.593 248.475 231.69C248.708 231.788 248.958 231.837 249.211 231.835Z" fill="black"/>
<path d="M266.577 226.979L252.195 227.177V229.952C252.195 230.744 251.881 231.503 251.321 232.062C250.762 232.622 250.003 232.936 249.211 232.936C248.42 232.936 247.661 232.622 247.101 232.062C246.541 231.503 246.227 230.744 246.227 229.952V227.265L180.572 228.19L180.143 232.738C180.021 233.905 180.322 235.078 180.991 236.042C181.428 236.644 182.003 237.132 182.668 237.465C183.333 237.799 184.068 237.968 184.812 237.958L241.822 237.716C242.199 237.716 242.572 237.787 242.923 237.925C244.417 238.487 245.633 239.609 246.315 241.052C246.554 241.577 246.918 242.035 247.375 242.386C247.832 242.738 248.369 242.971 248.937 243.067C249.506 243.163 250.089 243.117 250.636 242.935C251.183 242.753 251.677 242.439 252.074 242.021C254.277 239.742 257.812 236.714 261.512 236.912C262.469 237.003 263.431 236.802 264.272 236.336C265.113 235.871 265.794 235.161 266.225 234.302C266.431 233.83 266.604 233.344 266.742 232.848V226.924C266.69 226.95 266.635 226.968 266.577 226.979ZM221.493 235.568C220.862 235.568 220.244 235.381 219.719 235.03C219.194 234.679 218.785 234.18 218.543 233.597C218.301 233.013 218.238 232.371 218.361 231.752C218.485 231.132 218.789 230.563 219.235 230.117C219.682 229.67 220.251 229.366 220.87 229.243C221.49 229.119 222.132 229.183 222.716 229.424C223.299 229.666 223.798 230.075 224.149 230.601C224.5 231.126 224.687 231.743 224.687 232.375C224.687 233.222 224.351 234.034 223.752 234.633C223.153 235.232 222.34 235.568 221.493 235.568ZM249.167 240.083C248.666 240.083 248.176 239.935 247.76 239.657C247.343 239.378 247.019 238.983 246.827 238.52C246.635 238.057 246.585 237.548 246.683 237.056C246.781 236.565 247.022 236.114 247.376 235.76C247.73 235.405 248.182 235.164 248.673 235.066C249.164 234.969 249.674 235.019 250.136 235.211C250.599 235.402 250.995 235.727 251.273 236.143C251.551 236.56 251.7 237.05 251.7 237.551C251.7 238.22 251.435 238.863 250.962 239.338C250.489 239.812 249.848 240.08 249.178 240.083H249.167Z" fill="black"/>
<path d="M203.147 238.763L200.053 254.18L199.568 256.603L197.619 266.294L197.123 268.717L186.86 319.802C186.777 320.293 186.525 320.74 186.146 321.064C185.768 321.388 185.288 321.569 184.79 321.575H130.213L158.845 252.055L167.225 229.59C167.362 229.2 167.617 228.863 167.954 228.624C168.292 228.385 168.695 228.257 169.108 228.258H179.482L179.074 232.663C178.981 233.558 179.079 234.462 179.361 235.317C179.762 236.451 180.509 237.432 181.497 238.119C182.485 238.807 183.663 239.167 184.867 239.149L203.147 238.763Z" fill="black"/>
<path d="M209.446 262.671C209.444 263.202 209.285 263.72 208.988 264.16C208.691 264.601 208.271 264.944 207.78 265.145C207.289 265.347 206.749 265.399 206.228 265.294C205.708 265.189 205.23 264.932 204.855 264.556C204.481 264.179 204.226 263.701 204.123 263.18C204.02 262.659 204.074 262.119 204.278 261.629C204.482 261.139 204.826 260.72 205.268 260.425C205.709 260.13 206.228 259.973 206.759 259.973C207.113 259.973 207.463 260.043 207.79 260.178C208.117 260.314 208.413 260.513 208.663 260.764C208.913 261.014 209.11 261.312 209.245 261.639C209.379 261.966 209.448 262.317 209.446 262.671Z" fill="black"/>
<path d="M209.688 254.301C209.372 253.924 209.136 253.486 208.994 253.015C208.852 252.544 208.807 252.048 208.862 251.559L210.305 238.752H204.27L201.308 253.486L200.889 255.568L198.445 267.758L198.026 269.817L187.939 320.033C187.805 320.772 187.417 321.441 186.842 321.923C186.267 322.406 185.541 322.672 184.79 322.676H129.872C129.189 325.308 128 332.366 134.937 332.642L143.483 332.983H192.311C192.311 332.983 197.817 332.983 197.432 327.477C197.134 322.676 202.189 283.428 203.466 273.749C203.548 273.213 203.777 272.71 204.127 272.296C204.477 271.883 204.934 271.573 205.448 271.403C208.455 270.247 213.047 268.793 214.038 263.948C215.029 259.102 210.866 255.7 209.688 254.301ZM206.759 266.415C206.007 266.417 205.27 266.195 204.644 265.779C204.018 265.362 203.529 264.769 203.24 264.074C202.951 263.38 202.875 262.615 203.021 261.877C203.167 261.139 203.529 260.461 204.061 259.929C204.593 259.397 205.271 259.035 206.009 258.889C206.747 258.742 207.512 258.819 208.207 259.107C208.901 259.396 209.495 259.885 209.911 260.511C210.328 261.138 210.549 261.874 210.547 262.626C210.56 263.132 210.472 263.635 210.288 264.106C210.103 264.578 209.826 265.007 209.473 265.369C209.12 265.732 208.698 266.02 208.232 266.216C207.766 266.413 207.265 266.415 206.759 266.415Z" fill="black"/>
<path d="M209.446 262.671C209.444 263.202 209.285 263.72 208.988 264.16C208.691 264.601 208.271 264.944 207.78 265.145C207.289 265.347 206.749 265.399 206.228 265.294C205.708 265.189 205.23 264.932 204.855 264.556C204.481 264.179 204.226 263.701 204.123 263.18C204.02 262.659 204.074 262.119 204.278 261.629C204.482 261.139 204.826 260.72 205.268 260.425C205.709 260.13 206.228 259.973 206.759 259.973C207.113 259.973 207.463 260.043 207.79 260.178C208.117 260.314 208.413 260.513 208.663 260.764C208.913 261.014 209.11 261.312 209.245 261.639C209.379 261.966 209.448 262.317 209.446 262.671Z" fill="black"/>
</svg>
