<svg width="512" height="160" viewBox="0 0 512 160" fill="none" xmlns="http://www.w3.org/2000/svg">
<path d="M242.44 41.0527L241.034 45.2713C240.632 46.4766 239.628 47.2801 238.422 47.2801H217.932C217.33 47.2801 216.928 47.6819 216.928 48.2846C216.928 48.8872 217.33 49.289 217.932 49.289H269.76C271.166 49.289 272.171 48.0837 272.171 46.8784V43.8651C272.171 42.4589 271.166 41.0527 269.76 41.0527H242.44Z" fill="black"/>
<path d="M216.125 70.9844H173.337C172.935 70.9844 172.533 71.1853 172.332 71.587C172.131 71.9888 172.131 72.3906 172.332 72.7923L179.363 86.2516H195.635C198.849 86.2516 203.871 86.4524 204.474 83.4392C205.076 80.8277 206.483 78.4171 207.688 76.81C208.291 76.0065 209.094 75.2029 210.098 74.6003C210.5 74.1985 210.902 73.9976 211.505 73.7967L216.125 70.9844ZM195.032 84.8454H184.184C180.569 84.8454 177.555 82.033 177.555 78.4171C177.555 74.8012 180.569 71.9888 184.184 71.9888H195.032C198.648 71.9888 201.661 74.8012 201.661 78.4171C201.661 82.033 198.648 84.8454 195.032 84.8454Z" fill="black"/>
<path d="M446.939 64.7584H450.154V58.3301H446.939V64.7584Z" fill="black"/>
<path d="M375.024 55.7168H371.609V73.5955H375.024V55.7168Z" fill="black"/>
<path d="M441.115 64.7584H444.932V58.3301H441.115V64.7584Z" fill="black"/>
<path d="M455.778 58.3301H452.363V64.7584H455.778V58.3301Z" fill="black"/>
<path d="M439.105 55.7168H393.906V66.7654H439.105V55.7168Z" fill="black"/>
<path d="M391.899 55.7168H377.234V66.7654H391.899V55.7168Z" fill="black"/>
<path d="M281.01 55.5176L278.801 56.522V73.5971H281.01V55.5176Z" fill="black"/>
<path d="M359.354 50.4941H290.852L283.219 54.5118V73.5958H300.897V60.9401H302.905V73.5958H307.124V60.9401H309.133V73.5958H313.351V60.9401H315.36V73.5958H319.579V60.9401H321.588V73.5958H325.806V60.9401H327.815V73.5958H332.034V60.9401H334.042V73.5958H338.261V60.9401H340.27V73.5958H344.488V60.9401H346.497V73.5958H369.599V55.7171L359.354 50.4941Z" fill="black"/>
<path d="M270.765 34.625V36.0312H268.555V34.625H264.135V36.0312H261.926V34.625H257.506V36.0312H255.297V34.625H250.676V36.0312H248.667V34.625H244.047V36.0312H242.038V34.625L237.418 34.8259V36.0312H235.409V34.8259H230.789V36.0312H228.78V34.8259H224.16V36.0312H222.151V34.8259H217.53V36.0312H215.522V34.8259H211.504V39.0444H276.791V34.625H270.765Z" fill="black"/>
<path d="M487.519 29H484.707C484.305 29 483.903 29.2009 483.702 29.6027L480.488 35.2274C480.488 35.4283 480.488 35.4283 480.287 35.6292V38.8433C480.287 39.0442 480.488 39.0442 480.488 39.0442H497.764C497.764 39.0442 497.764 39.0442 497.764 38.8433L495.153 35.0265L488.122 29.2009C487.921 29.2009 487.72 29 487.519 29ZM495.554 38.0398H481.492V35.6292L493.746 35.83" fill="black"/>
<path d="M205.879 33.2178H192.822L190.21 30.4054C189.808 30.0036 189.206 29.8027 188.804 29.8027H187.197C186.393 29.8027 185.59 30.2045 185.389 31.008L182.376 38.039C181.773 38.4407 182.175 39.0434 182.577 39.0434H205.879V33.2178ZM188.804 36.4319C188.804 36.6328 188.603 36.8337 188.402 36.8337H186.795C186.594 36.8337 186.393 36.6328 186.393 36.4319V32.6151C186.393 32.4142 186.594 32.2133 186.795 32.2133H188.402C188.603 32.2133 188.804 32.4142 188.804 32.6151V36.4319Z" fill="black"/>
<path d="M189.004 73.998H184.384C184.183 75.806 184.384 82.0334 189.607 82.0334C191.415 82.0334 184.183 80.2254 189.004 73.998Z" fill="black"/>
<path d="M457.787 66.9666H481.491C483.5 61.3418 481.893 57.7259 480.889 55.918H457.988V66.9666H457.787Z" fill="black"/>
<path d="M496.358 52.3022V50.896H504.996C505.599 50.896 506 50.4943 506 49.8916V42.0572C506 41.4545 505.599 41.0527 504.996 41.0527H494.952H494.55H281.814H278.801V54.3111L290.452 48.4854H359.958L369.801 53.7084H392.099V50.896H475.466V52.3022H482.698V55.1146C483.702 57.1234 485.108 61.5429 483.301 66.9667H498.367C500.978 66.9667 502.987 64.9579 502.987 62.3464V59.7349C502.987 57.1234 500.978 55.1146 498.367 55.1146H490.131V52.3022H496.358Z" fill="black"/>
<path d="M273.377 41.0524C273.98 41.856 274.382 42.8604 274.382 43.8648V49.0878C274.382 50.494 273.176 51.4984 271.971 51.4984H218.335C216.929 51.4984 215.322 50.494 215.121 49.0878C214.719 47.079 216.125 45.271 218.134 45.271H237.218C238.423 45.271 239.428 44.4675 239.83 43.2622L240.432 40.8516H211.706H210.3H206.282H182.578C181.372 40.8516 180.167 41.0524 179.163 41.4542L164.096 47.2798C163.695 51.2975 163.895 60.1364 170.324 66.9664C170.926 66.3638 171.328 66.5647 172.132 66.5647H223.357H253.691C255.9 66.5647 257.909 66.7656 260.119 67.1673L267.551 68.7744C268.154 68.9753 268.757 68.9753 269.359 68.9753L276.993 69.5779V41.0524H273.377ZM265.744 63.9532C263.534 63.9532 261.525 62.1452 261.525 59.7346C261.525 57.5249 263.333 55.5161 265.744 55.5161C267.953 55.5161 269.962 57.324 269.962 59.7346C269.761 61.9444 267.953 63.9532 265.744 63.9532Z" fill="black"/>
<path d="M264.939 57.7266C264.136 57.9274 263.332 58.731 263.332 59.7354C263.332 60.9407 264.336 61.9451 265.542 61.9451L264.939 57.7266Z" fill="black"/>
<path d="M265.943 57.5254L266.546 61.5431C267.35 61.1413 267.751 60.5387 267.751 59.5342C267.751 58.5298 266.948 57.7263 265.943 57.5254Z" fill="black"/>
<path d="M167.912 72.3907C167.511 71.7881 167.511 70.9845 167.511 70.3819C160.681 63.5518 159.676 54.3112 159.877 49.2891L153.449 51.9006C151.44 52.7041 149.23 53.3067 147.02 53.7085L8.41061 70.7836C7.00442 70.9845 6 72.1898 6 73.7969L12.0265 124.621C12.2274 126.629 14.2362 127.835 16.0442 127.031L131.552 78.0154C132.155 77.8146 132.758 77.6137 133.36 77.4128C141.396 76.6093 146.418 83.8411 144.208 90.4702L132.557 128.036C132.155 129.241 133.159 130.446 134.365 130.446L158.873 130.245C159.877 130.245 160.48 129.04 159.676 128.236L157.667 126.027C155.458 123.817 157.667 119.799 158.27 116.786L166.707 91.6756C167.511 88.8632 172.332 87.6579 174.742 86.4526L167.912 72.3907ZM154.252 117.59C153.851 117.389 153.248 117.389 152.846 117.188C149.632 116.384 146.217 115.38 143.003 114.576C141.797 114.175 142.199 112.367 143.605 112.567C144.007 112.768 144.61 112.768 145.012 112.969C148.226 113.773 151.641 114.777 154.855 115.581C156.06 115.982 155.458 117.79 154.252 117.59ZM155.859 111.764C155.458 111.563 154.855 111.563 154.453 111.362C151.239 110.559 147.824 109.554 144.61 108.751C143.405 108.349 143.806 106.541 145.213 106.742C145.614 106.943 146.217 106.943 146.619 107.144C149.833 107.947 153.248 108.952 156.462 109.755C157.466 110.157 157.065 112.166 155.859 111.764ZM157.266 106.139C156.864 105.938 156.261 105.938 155.859 105.737C152.645 104.934 149.23 103.929 146.016 103.126C144.811 102.724 145.213 100.916 146.619 101.117C147.02 101.318 147.623 101.318 148.025 101.519C151.239 102.322 154.654 103.327 157.868 104.13C159.074 104.532 158.471 106.541 157.266 106.139ZM158.873 100.514C158.471 100.314 157.868 100.314 157.466 100.113C154.252 99.3091 150.837 98.3047 147.623 97.5012C146.418 97.0994 146.82 95.2915 148.226 95.4923C148.628 95.6932 149.23 95.6932 149.632 95.8941C152.846 96.6976 156.261 97.7021 159.475 98.5056C160.681 98.9074 160.078 100.715 158.873 100.514ZM160.279 94.6888C159.877 94.4879 159.274 94.4879 158.873 94.287C155.658 93.4835 152.243 92.4791 149.029 91.6756C147.824 91.2738 148.226 89.4658 149.632 89.6667C150.034 89.8676 150.636 89.8676 151.038 90.0685C154.252 90.872 157.667 91.8764 160.881 92.68C162.087 93.0817 161.484 95.0906 160.279 94.6888Z" fill="black"/>
</svg>
