<svg width="512" height="512" viewBox="0 0 512 512" fill="none" xmlns="http://www.w3.org/2000/svg">
<path d="M224.922 230.013L225.814 234.37C226.069 235.615 225.6 236.813 224.557 237.415L206.812 247.66C206.29 247.962 206.143 248.511 206.444 249.032C206.745 249.554 207.294 249.701 207.816 249.4L252.7 223.486C253.918 222.783 254.185 221.237 253.583 220.193L252.076 217.584C251.373 216.366 249.8 215.65 248.582 216.353L224.922 230.013Z" fill="black"/>
<path d="M217.099 269.093L180.043 290.487C179.695 290.688 179.448 291.063 179.475 291.511C179.502 291.959 179.703 292.307 180.077 292.555L192.896 300.695L206.988 292.56C209.771 290.953 214.221 288.615 213.236 285.705C212.452 283.142 212.465 280.351 212.705 278.356C212.825 277.359 213.119 276.262 213.688 275.238C213.835 274.689 214.082 274.314 214.504 273.839L217.099 269.093ZM205.763 291.643L196.368 297.067C193.237 298.875 189.221 297.946 187.413 294.815C185.605 291.683 186.808 287.741 189.94 285.933L199.334 280.509C202.466 278.701 206.482 279.63 208.289 282.762C210.097 285.893 208.894 289.835 205.763 291.643Z" fill="black"/>
<path d="M413.876 148.292L416.66 146.685L413.446 141.118L410.662 142.725L413.876 148.292Z" fill="black"/>
<path d="M347.075 176.421L344.117 178.129L353.057 193.612L356.014 191.905L347.075 176.421Z" fill="black"/>
<path d="M408.831 151.204L412.137 149.295L408.923 143.728L405.617 145.637L408.831 151.204Z" fill="black"/>
<path d="M418.317 138.306L415.359 140.014L418.574 145.581L421.531 143.873L418.317 138.306Z" fill="black"/>
<path d="M402.571 144.379L363.428 166.979L368.952 176.547L408.095 153.947L402.571 144.379Z" fill="black"/>
<path d="M361.688 167.984L348.988 175.316L354.513 184.885L367.212 177.553L361.688 167.984Z" fill="black"/>
<path d="M265.556 223.255L264.145 225.229L272.682 240.017L274.596 238.912L265.556 223.255Z" fill="black"/>
<path d="M330.894 179.733L271.57 213.984L266.968 221.28L276.51 237.807L291.819 228.969L285.491 218.008L287.231 217.004L293.559 227.964L297.212 225.855L290.884 214.895L292.624 213.89L298.952 224.85L302.605 222.741L296.278 211.781L298.017 210.777L304.345 221.737L307.998 219.627L301.671 208.667L303.41 207.663L309.738 218.623L313.392 216.514L307.064 205.554L308.803 204.549L315.131 215.509L318.785 213.4L312.457 202.44L314.197 201.435L320.524 212.396L324.178 210.286L317.85 199.326L319.59 198.322L325.917 209.282L329.571 207.173L323.243 196.212L324.983 195.208L331.311 206.168L351.317 194.617L342.378 179.134L330.894 179.733Z" fill="black"/>
<path d="M246.237 210.284L246.94 211.501L245.027 212.606L244.324 211.389L240.496 213.598L241.199 214.816L239.286 215.921L238.583 214.703L234.755 216.913L235.458 218.131L233.545 219.236L232.842 218.018L228.84 220.328L229.543 221.546L227.804 222.55L227.101 221.332L223.099 223.642L223.802 224.86L222.063 225.865L221.36 224.647L217.459 227.131L218.061 228.175L216.322 229.179L215.719 228.135L211.718 230.446L212.32 231.489L210.581 232.494L209.978 231.45L205.977 233.76L206.579 234.804L204.84 235.808L204.237 234.765L200.236 237.075L200.838 238.119L199.099 239.123L198.496 238.079L195.016 240.088L197.126 243.741L253.666 211.098L251.456 207.27L246.237 210.284Z" fill="black"/>
<path d="M431.14 97.0364L428.704 98.4426C428.356 98.6435 428.109 99.0184 428.136 99.4667L428.165 105.945C428.265 106.119 428.265 106.119 428.192 106.393L429.799 109.177C429.899 109.351 430.073 109.25 430.073 109.25L445.034 100.612C445.034 100.612 445.034 100.612 444.934 100.438L440.764 98.4388L431.762 96.9091C431.588 97.0095 431.314 96.936 431.14 97.0364ZM442.619 100.847L430.441 107.878L429.235 105.791L439.948 99.8377" fill="black"/>
<path d="M189.342 241.509L178.034 248.038L174.366 246.908C173.817 246.761 173.195 246.888 172.847 247.089L171.455 247.893C170.759 248.295 170.264 249.044 170.492 249.841L171.398 257.436C171.077 258.085 171.726 258.406 172.074 258.206L192.255 246.554L189.342 241.509ZM176.161 252.83C176.262 253.004 176.188 253.279 176.014 253.379L174.623 254.183C174.449 254.283 174.174 254.21 174.074 254.036L172.165 250.73C172.065 250.556 172.138 250.282 172.312 250.181L173.704 249.378C173.878 249.277 174.153 249.351 174.253 249.525L176.161 252.83Z" fill="black"/>
<path d="M195.119 285.262L191.118 287.572C191.848 289.238 195.135 294.53 199.659 291.919C201.224 291.015 194.058 293.065 195.119 285.262Z" fill="black"/>
<path d="M424.376 144.781L444.904 132.929C443.832 127.054 440.632 124.726 438.858 123.662L419.026 135.112L424.55 144.681L424.376 144.781Z" fill="black"/>
<path d="M450.447 112.796L449.744 111.578L457.225 107.259C457.746 106.958 457.893 106.409 457.592 105.887L453.675 99.1021C453.374 98.5802 452.825 98.4331 452.303 98.7344L443.604 103.757L443.256 103.957L259.022 210.325L256.412 211.832L263.041 223.314L270.219 212.443L330.413 177.69L341.549 177.292L360.859 166.143L359.453 163.707L431.651 122.024L432.354 123.242L438.617 119.626L440.023 122.061C441.897 123.299 445.325 126.423 446.471 132.024L459.519 124.491C461.78 123.185 462.516 120.441 461.21 118.18L459.904 115.918C458.599 113.656 455.854 112.921 453.593 114.227L446.46 118.345L445.054 115.909L450.447 112.796Z" fill="black"/>
<path d="M251.714 214.545C252.638 214.94 253.488 215.608 253.99 216.478L256.602 221.002C257.305 222.219 256.763 223.692 255.72 224.295L209.269 251.113C208.052 251.816 206.158 251.749 205.281 250.632C203.928 249.093 204.242 246.824 205.982 245.82L222.509 236.278C223.553 235.675 224.021 234.477 223.766 233.232L223.083 230.843L198.205 245.207L196.987 245.91L193.508 247.919L172.979 259.771C171.935 260.373 170.992 261.15 170.323 262L160.188 274.578C161.849 278.259 166.442 285.813 175.425 288.514C175.645 287.691 176.093 287.664 176.789 287.262L221.152 261.649L247.421 246.483C249.335 245.378 251.175 244.547 253.29 243.79L260.53 241.466C261.153 241.338 261.675 241.037 262.196 240.736L269.109 237.441L254.846 212.737L251.714 214.545ZM256.554 238.194C254.64 239.299 251.997 238.738 250.791 236.65C249.686 234.737 250.248 232.093 252.335 230.888C254.249 229.783 256.893 230.344 258.098 232.432C259.029 234.446 258.468 237.09 256.554 238.194Z" fill="black"/>
<path d="M252.743 233.202C252.148 233.778 251.854 234.876 252.356 235.746C252.959 236.789 254.331 237.157 255.375 236.554L252.743 233.202Z" fill="black"/>
<path d="M253.514 232.527L256.044 235.705C256.539 234.956 256.586 234.233 256.084 233.363C255.582 232.493 254.484 232.199 253.514 232.527Z" fill="black"/>
<path d="M176.048 294.416C175.399 294.095 174.997 293.399 174.696 292.877C165.366 290.377 159.876 282.876 157.539 278.427L153.277 283.902C151.94 285.603 150.327 287.23 148.614 288.682L37.1123 372.775C35.9949 373.652 35.7277 375.198 36.5313 376.59L67.1622 417.591C68.3406 419.23 70.6829 419.27 71.8469 417.67L147.372 317.467C147.794 316.992 148.215 316.516 148.637 316.041C155.194 311.327 163.159 315.079 164.56 321.925L173.252 360.283C173.507 361.528 174.979 362.07 176.023 361.467L197.147 349.039C198.017 348.537 197.936 347.192 196.838 346.898L193.994 345.988C190.975 345.179 190.88 340.595 189.895 337.684L184.647 311.719C183.937 308.882 187.509 305.428 188.994 303.179L176.048 294.416ZM186.818 340.389C186.369 340.416 185.848 340.717 185.399 340.744C182.214 341.655 178.754 342.493 175.569 343.404C174.324 343.659 173.768 341.892 175.086 341.363C175.535 341.336 176.057 341.035 176.505 341.008C179.69 340.097 183.15 339.259 186.335 338.348C187.58 338.093 187.962 339.96 186.818 340.389ZM185.297 334.54C184.848 334.567 184.327 334.869 183.878 334.896C180.693 335.807 177.233 336.644 174.048 337.556C172.803 337.81 172.247 336.044 173.565 335.515C174.014 335.488 174.536 335.186 174.984 335.159C178.169 334.248 181.629 333.411 184.814 332.499C185.885 332.345 186.542 334.286 185.297 334.54ZM183.702 328.966C183.254 328.993 182.732 329.294 182.284 329.321C179.098 330.232 175.639 331.07 172.453 331.981C171.209 332.236 170.652 330.469 171.971 329.94C172.419 329.913 172.941 329.612 173.389 329.585C176.575 328.674 180.034 327.836 183.22 326.925C184.464 326.67 184.947 328.711 183.702 328.966ZM182.282 323.291C181.833 323.318 181.311 323.62 180.863 323.647C177.678 324.558 174.218 325.395 171.033 326.307C169.788 326.561 169.232 324.795 170.55 324.266C170.999 324.239 171.52 323.937 171.969 323.91C175.154 322.999 178.614 322.162 181.799 321.25C183.044 320.996 183.426 322.863 182.282 323.291ZM180.587 317.543C180.138 317.57 179.616 317.871 179.168 317.898C175.983 318.81 172.523 319.647 169.338 320.558C168.093 320.813 167.537 319.046 168.855 318.517C169.303 318.49 169.825 318.189 170.274 318.162C173.459 317.251 176.919 316.413 180.104 315.502C181.349 315.247 181.831 317.288 180.587 317.543Z" fill="black"/>
</svg>
