<svg width="512" height="512" viewBox="0 0 512 512" fill="none" xmlns="http://www.w3.org/2000/svg">
<path d="M242.44 218.053L241.034 222.271C240.632 223.477 239.628 224.28 238.422 224.28H217.932C217.33 224.28 216.928 224.682 216.928 225.285C216.928 225.887 217.33 226.289 217.932 226.289H269.76C271.166 226.289 272.171 225.084 272.171 223.878V220.865C272.171 219.459 271.166 218.053 269.76 218.053H242.44Z" fill="black"/>
<path d="M216.125 247.984H173.337C172.935 247.984 172.533 248.185 172.332 248.587C172.131 248.989 172.131 249.391 172.332 249.792L179.363 263.252H195.635C198.849 263.252 203.871 263.452 204.474 260.439C205.076 257.828 206.483 255.417 207.688 253.81C208.291 253.006 209.094 252.203 210.098 251.6C210.5 251.199 210.902 250.998 211.505 250.797L216.125 247.984ZM195.032 261.845H184.184C180.569 261.845 177.555 259.033 177.555 255.417C177.555 251.801 180.569 248.989 184.184 248.989H195.032C198.648 248.989 201.661 251.801 201.661 255.417C201.661 259.033 198.648 261.845 195.032 261.845Z" fill="black"/>
<path d="M446.939 241.758H450.154V235.33H446.939V241.758Z" fill="black"/>
<path d="M375.024 232.717H371.609V250.595H375.024V232.717Z" fill="black"/>
<path d="M441.115 241.758H444.932V235.33H441.115V241.758Z" fill="black"/>
<path d="M455.778 235.33H452.363V241.758H455.778V235.33Z" fill="black"/>
<path d="M439.105 232.717H393.906V243.765H439.105V232.717Z" fill="black"/>
<path d="M391.899 232.717H377.234V243.765H391.899V232.717Z" fill="black"/>
<path d="M281.01 232.518L278.801 233.522V250.597H281.01V232.518Z" fill="black"/>
<path d="M359.354 227.494H290.852L283.219 231.512V250.596H300.897V237.94H302.905V250.596H307.124V237.94H309.133V250.596H313.351V237.94H315.36V250.596H319.579V237.94H321.588V250.596H325.806V237.94H327.815V250.596H332.034V237.94H334.042V250.596H338.261V237.94H340.27V250.596H344.488V237.94H346.497V250.596H369.599V232.717L359.354 227.494Z" fill="black"/>
<path d="M270.765 211.625V213.031H268.555V211.625H264.135V213.031H261.926V211.625H257.506V213.031H255.297V211.625H250.676V213.031H248.667V211.625H244.047V213.031H242.038V211.625L237.418 211.826V213.031H235.409V211.826H230.789V213.031H228.78V211.826H224.16V213.031H222.151V211.826H217.53V213.031H215.522V211.826H211.504V216.044H276.791V211.625H270.765Z" fill="black"/>
<path d="M487.519 206H484.707C484.305 206 483.903 206.201 483.702 206.603L480.488 212.227C480.488 212.428 480.488 212.428 480.287 212.629V215.843C480.287 216.044 480.488 216.044 480.488 216.044H497.764C497.764 216.044 497.764 216.044 497.764 215.843L495.153 212.027L488.122 206.201C487.921 206.201 487.72 206 487.519 206ZM495.554 215.04H481.492V212.629L493.746 212.83" fill="black"/>
<path d="M205.879 210.218H192.822L190.21 207.405C189.808 207.004 189.206 206.803 188.804 206.803H187.197C186.393 206.803 185.59 207.205 185.389 208.008L182.376 215.039C181.773 215.441 182.175 216.043 182.577 216.043H205.879V210.218ZM188.804 213.432C188.804 213.633 188.603 213.834 188.402 213.834H186.795C186.594 213.834 186.393 213.633 186.393 213.432V209.615C186.393 209.414 186.594 209.213 186.795 209.213H188.402C188.603 209.213 188.804 209.414 188.804 209.615V213.432Z" fill="black"/>
<path d="M189.004 250.998H184.384C184.183 252.806 184.384 259.033 189.607 259.033C191.415 259.033 184.183 257.225 189.004 250.998Z" fill="black"/>
<path d="M457.787 243.967H481.491C483.5 238.342 481.893 234.726 480.889 232.918H457.988V243.967H457.787Z" fill="black"/>
<path d="M496.358 229.302V227.896H504.996C505.599 227.896 506 227.494 506 226.892V219.057C506 218.455 505.599 218.053 504.996 218.053H494.952H494.55H281.814H278.801V231.311L290.452 225.485H359.958L369.801 230.708H392.099V227.896H475.466V229.302H482.698V232.115C483.702 234.123 485.108 238.543 483.301 243.967H498.367C500.978 243.967 502.987 241.958 502.987 239.346V236.735C502.987 234.123 500.978 232.115 498.367 232.115H490.131V229.302H496.358Z" fill="black"/>
<path d="M273.377 218.052C273.98 218.856 274.382 219.86 274.382 220.865V226.088C274.382 227.494 273.176 228.498 271.971 228.498H218.335C216.929 228.498 215.322 227.494 215.121 226.088C214.719 224.079 216.125 222.271 218.134 222.271H237.218C238.423 222.271 239.428 221.467 239.83 220.262L240.432 217.852H211.706H210.3H206.282H182.578C181.372 217.852 180.167 218.052 179.163 218.454L164.096 224.28C163.695 228.298 163.895 237.136 170.324 243.966C170.926 243.364 171.328 243.565 172.132 243.565H223.357H253.691C255.9 243.565 257.909 243.766 260.119 244.167L267.551 245.774C268.154 245.975 268.757 245.975 269.359 245.975L276.993 246.578V218.052H273.377ZM265.744 240.953C263.534 240.953 261.525 239.145 261.525 236.735C261.525 234.525 263.333 232.516 265.744 232.516C267.953 232.516 269.962 234.324 269.962 236.735C269.761 238.944 267.953 240.953 265.744 240.953Z" fill="black"/>
<path d="M264.939 234.727C264.136 234.927 263.332 235.731 263.332 236.735C263.332 237.941 264.336 238.945 265.542 238.945L264.939 234.727Z" fill="black"/>
<path d="M265.943 234.525L266.546 238.543C267.35 238.141 267.751 237.539 267.751 236.534C267.751 235.53 266.948 234.726 265.943 234.525Z" fill="black"/>
<path d="M167.912 249.391C167.511 248.788 167.511 247.985 167.511 247.382C160.681 240.552 159.676 231.311 159.877 226.289L153.449 228.901C151.44 229.704 149.23 230.307 147.02 230.709L8.41061 247.784C7.00442 247.985 6 249.19 6 250.797L12.0265 301.621C12.2274 303.629 14.2362 304.835 16.0442 304.031L131.552 255.015C132.155 254.815 132.758 254.614 133.36 254.413C141.396 253.609 146.418 260.841 144.208 267.47L132.557 305.036C132.155 306.241 133.159 307.446 134.365 307.446L158.873 307.245C159.877 307.245 160.48 306.04 159.676 305.236L157.667 303.027C155.458 300.817 157.667 296.799 158.27 293.786L166.707 268.676C167.511 265.863 172.332 264.658 174.742 263.453L167.912 249.391ZM154.252 294.59C153.851 294.389 153.248 294.389 152.846 294.188C149.632 293.384 146.217 292.38 143.003 291.576C141.797 291.175 142.199 289.367 143.605 289.567C144.007 289.768 144.61 289.768 145.012 289.969C148.226 290.773 151.641 291.777 154.855 292.581C156.06 292.982 155.458 294.79 154.252 294.59ZM155.859 288.764C155.458 288.563 154.855 288.563 154.453 288.362C151.239 287.559 147.824 286.554 144.61 285.751C143.405 285.349 143.806 283.541 145.213 283.742C145.614 283.943 146.217 283.943 146.619 284.144C149.833 284.947 153.248 285.952 156.462 286.755C157.466 287.157 157.065 289.166 155.859 288.764ZM157.266 283.139C156.864 282.938 156.261 282.938 155.859 282.737C152.645 281.934 149.23 280.929 146.016 280.126C144.811 279.724 145.213 277.916 146.619 278.117C147.02 278.318 147.623 278.318 148.025 278.519C151.239 279.322 154.654 280.327 157.868 281.13C159.074 281.532 158.471 283.541 157.266 283.139ZM158.873 277.514C158.471 277.314 157.868 277.314 157.466 277.113C154.252 276.309 150.837 275.305 147.623 274.501C146.418 274.099 146.82 272.291 148.226 272.492C148.628 272.693 149.23 272.693 149.632 272.894C152.846 273.698 156.261 274.702 159.475 275.506C160.681 275.907 160.078 277.715 158.873 277.514ZM160.279 271.689C159.877 271.488 159.274 271.488 158.873 271.287C155.658 270.484 152.243 269.479 149.029 268.676C147.824 268.274 148.226 266.466 149.632 266.667C150.034 266.868 150.636 266.868 151.038 267.068C154.252 267.872 157.667 268.876 160.881 269.68C162.087 270.082 161.484 272.091 160.279 271.689Z" fill="black"/>
</svg>
