<svg width="512" height="512" viewBox="0 0 512 512" fill="none" xmlns="http://www.w3.org/2000/svg">
<path d="M344.241 200.918L311.721 168.398L281.801 198.318L314.321 230.838L344.241 200.918Z" fill="black"/>
<path d="M345.06 194.439L359.06 180.439C390.74 146.499 424.12 95.8791 434.58 79.4591L433.16 78.0391C433.16 78.0391 374.62 113.959 332.18 153.559L318.18 167.559L345.06 194.439Z" fill="black"/>
<path d="M126.84 421.079L91.48 385.719C89.14 388.059 85.34 388.059 83 385.719L78 390.719L121.84 434.559L126.84 429.559C124.48 427.199 124.48 423.419 126.84 421.079Z" fill="black"/>
<path d="M300.381 251.4L302.421 249.3L312.141 233.02L279.601 200.5L263.001 210.42L260.281 213.06L300.381 251.4Z" fill="black"/>
<path d="M212.339 259.699L94.4394 374.419C96.7994 376.779 96.7594 380.619 94.3594 382.979L129.639 418.259C131.999 415.859 135.839 415.819 138.199 418.179L252.879 300.239L212.339 259.699Z" fill="black"/>
<path d="M200.918 168.359L168.398 200.879L198.318 230.799L230.838 198.279L200.918 168.359Z" fill="black"/>
<path d="M418.18 374.381C415.82 376.741 415.86 380.581 418.26 382.941L382.98 418.221C380.62 415.821 376.78 415.781 374.42 418.141L210.42 249.581L200.52 232.981L233.04 200.461L249.32 210.161L418.18 374.381Z" fill="black"/>
<path d="M194.439 167.52L180.439 153.52C146.499 121.84 95.8591 88.48 79.4591 78L78.0391 79.42C78.0391 79.42 113.959 137.96 153.559 180.4L167.559 194.4L194.439 167.52Z" fill="black"/>
<path d="M421.059 385.76L385.699 421.12C388.039 423.46 388.039 427.26 385.699 429.6L390.699 434.6L434.539 390.76L429.539 385.76C427.199 388.1 423.419 388.1 421.059 385.76Z" fill="black"/>
</svg>
