<svg width="512" height="512" viewBox="0 0 512 512" fill="none" xmlns="http://www.w3.org/2000/svg">
<path d="M275.12 138.06L39.9795 136.1C39.9795 139.44 37.2395 142.12 33.8795 142.1V192C37.2395 191.98 39.9795 194.66 39.9795 198L275.12 196.06H275.52V138.06H275.12Z" fill="black"/>
<path d="M343.277 190.061V144.061H300.957V190.061H343.277Z" fill="black"/>
<path d="M297.879 190.06V144.06L278.879 139.26V194.86L297.879 190.06Z" fill="black"/>
<path d="M349.279 186.061H369.079C415.479 184.461 474.879 172.261 493.879 168.061V166.061C493.879 166.061 427.079 150.061 369.079 148.061H349.279V186.061Z" fill="black"/>
<path d="M31.0586 192L31.0586 142C27.7386 142 25.0586 139.32 25.0586 136H17.9986L17.9986 198H25.0586C25.0586 194.68 27.7386 192 31.0586 192Z" fill="black"/>
<path d="M275.12 228.06L39.9795 226.1C39.9795 229.44 37.2395 232.12 33.8795 232.1V282C37.2395 281.98 39.9795 284.66 39.9795 288L275.12 286.06H275.52V228.06H275.12Z" fill="black"/>
<path d="M343.277 280.061V234.061H300.957V280.061H343.277Z" fill="black"/>
<path d="M297.879 280.06V234.06L278.879 229.26V284.86L297.879 280.06Z" fill="black"/>
<path d="M349.279 276.061H369.079C415.479 274.461 474.879 262.261 493.879 258.061V256.061C493.879 256.061 427.079 240.061 369.079 238.061H349.279V276.061Z" fill="black"/>
<path d="M31.0586 282L31.0586 232C27.7386 232 25.0586 229.32 25.0586 226H17.9986L17.9986 288H25.0586C25.0586 284.68 27.7386 282 31.0586 282Z" fill="black"/>
<path d="M275.12 318.06L39.9795 316.1C39.9795 319.44 37.2395 322.12 33.8795 322.1V372C37.2395 371.98 39.9795 374.66 39.9795 378L275.12 376.06H275.52V318.06H275.12Z" fill="black"/>
<path d="M343.277 370.061V324.061H300.957V370.061H343.277Z" fill="black"/>
<path d="M297.879 370.06V324.06L278.879 319.26V374.86L297.879 370.06Z" fill="black"/>
<path d="M349.279 366.061H369.079C415.479 364.461 474.879 352.261 493.879 348.061V346.061C493.879 346.061 427.079 330.061 369.079 328.061H349.279V366.061Z" fill="black"/>
<path d="M31.0586 372L31.0586 322C27.7386 322 25.0586 319.32 25.0586 316H17.9986L17.9986 378H25.0586C25.0586 374.68 27.7386 372 31.0586 372Z" fill="black"/>
</svg>
