<svg width="512" height="512" viewBox="0 0 512 512" fill="none" xmlns="http://www.w3.org/2000/svg">
<path d="M228.003 237.339L226.043 472.479C229.383 472.479 232.063 475.219 232.043 478.579H281.943C281.923 475.219 284.603 472.479 287.943 472.479L286.003 237.339V236.939H228.003V237.339Z" fill="black"/>
<path d="M280 169.18H234V211.5H280V169.18Z" fill="black"/>
<path d="M280.003 214.58H234.003L229.203 233.58H284.803L280.003 214.58Z" fill="black"/>
<path d="M276 163.18V143.38C274.4 96.9801 262.2 37.5801 258 18.5801H256C256 18.5801 240 85.3801 238 143.38V163.18H276Z" fill="black"/>
<path d="M281.941 481.4H231.941C231.941 484.72 229.261 487.4 225.941 487.4V494.46H287.941V487.4C284.621 487.4 281.941 484.72 281.941 481.4Z" fill="black"/>
</svg>
