<svg width="512" height="512" viewBox="0 0 512 512" fill="none" xmlns="http://www.w3.org/2000/svg">
<path d="M217.699 406.899L232.639 415.519C233.899 413.299 236.699 412.519 238.899 413.779L326.879 258.459L327.039 258.199L308.119 247.279L217.699 406.899Z" fill="black"/>
<path d="M314.76 223.74L313.52 228.12L332.72 239.22L348.8 211.38L328.62 199.74L316.3 221.08L314.76 223.74Z" fill="black"/>
<path d="M308.637 245.759L326.637 255.759L331.557 241.239L312.857 230.439L309.417 242.599" fill="black"/>
<path d="M334.638 181.76L337.458 184.42L330.898 195.8L348.438 205.92L355.958 192.9C372.518 161.78 387.038 118.1 391.498 104.02L390.178 103.26C390.178 103.26 372.698 121.72 354.198 145.56C351.818 150.56 349.378 155.42 346.898 160.06L336.998 177.2" fill="black"/>
<path d="M230.538 428.239L233.218 423.599C231.038 422.339 230.298 419.559 231.558 417.379L216.638 408.779L211.758 417.399L230.538 428.239Z" fill="black"/>
<path d="M302.578 246.459L302.778 246.119L252.558 217.119L252.358 217.459L133.078 420.099C135.978 421.779 136.918 425.479 135.218 428.379L178.438 453.319C180.098 450.399 183.798 449.359 186.678 451.039L205.738 417.379L210.618 408.759L211.678 406.899L302.078 247.279L302.578 246.459Z" fill="black"/>
<path d="M324.021 180.12L291.621 161.42L270.461 198.08L300.241 215.26L310.301 221.08L322.621 199.74L324.901 195.8L331.461 184.42L324.021 180.12Z" fill="black"/>
<path d="M298.702 217.92L268.922 200.74L255.262 214.8L286.522 232.84L303.422 242.6L306.862 230.44L307.522 228.12L308.762 223.74L298.702 217.92Z" fill="black"/>
<path d="M340.902 160.08C343.382 155.44 345.802 150.56 348.202 145.58C366.882 106.54 382.522 59.46 387.722 43L385.982 42C385.982 42 338.722 91.86 308.002 141.08L298.102 158.22L327.182 175.02L331.002 177.22L340.902 160.08Z" fill="black"/>
<path d="M177.04 455.779L133.74 430.779C132.08 433.659 128.42 434.639 125.54 432.979L122 439.099L175.7 470.099L179.24 463.979C176.36 462.319 175.38 458.659 177.04 455.779Z" fill="black"/>
</svg>
