<svg width="512" height="512" viewBox="0 0 512 512" fill="none" xmlns="http://www.w3.org/2000/svg">
<path d="M149.596 242.947L148.078 402.235C150.664 402.235 152.739 404.091 152.723 406.367H191.356C191.34 404.091 193.415 402.235 196.001 402.235L194.499 242.947V242.676H149.596V242.947Z" fill="black"/>
<path d="M189.851 196.773H154.238V225.442H189.851V196.773Z" fill="black"/>
<path d="M189.852 227.527H154.24L150.523 240.398H193.569L189.852 227.527Z" fill="black"/>
<path d="M186.755 192.709V179.296C185.517 147.864 176.071 107.625 172.82 94.7539H171.271C171.271 94.7539 158.884 140.006 157.336 179.296V192.709H186.755Z" fill="black"/>
<path d="M191.355 408.277H152.645C152.645 410.526 150.57 412.342 148 412.342V417.124H196V412.342C193.43 412.342 191.355 410.526 191.355 408.277Z" fill="black"/>
<path d="M226.062 236.759L224.102 471.899C227.442 471.899 230.122 474.639 230.102 477.999H280.002C279.982 474.639 282.662 471.899 286.002 471.899L284.062 236.759V236.359H226.062V236.759Z" fill="black"/>
<path d="M278.059 168.6H232.059V210.92H278.059V168.6Z" fill="black"/>
<path d="M278.062 214H232.062L227.262 233H282.862L278.062 214Z" fill="black"/>
<path d="M274.059 162.6V142.8C272.459 96.4 260.259 37 256.059 18H254.059C254.059 18 238.059 84.8 236.059 142.8V162.6H274.059Z" fill="black"/>
<path d="M280 480.82H230C230 484.14 227.32 486.82 224 486.82V493.88H286V486.82C282.68 486.82 280 484.14 280 480.82Z" fill="black"/>
<path d="M315.596 242.947L314.078 402.235C316.664 402.235 318.739 404.091 318.723 406.367H357.356C357.34 404.091 359.415 402.235 362.001 402.235L360.499 242.947V242.676H315.596V242.947Z" fill="black"/>
<path d="M355.851 196.773H320.238V225.442H355.851V196.773Z" fill="black"/>
<path d="M355.852 227.527H320.24L316.523 240.398H359.569L355.852 227.527Z" fill="black"/>
<path d="M352.755 192.709V179.296C351.517 147.864 342.071 107.625 338.82 94.7539H337.271C337.271 94.7539 324.884 140.006 323.336 179.296V192.709H352.755Z" fill="black"/>
<path d="M357.355 408.277H318.645C318.645 410.526 316.57 412.342 314 412.342V417.124H362V412.342C359.43 412.342 357.355 410.526 357.355 408.277Z" fill="black"/>
</svg>
