<svg width="512" height="512" viewBox="0 0 512 512" fill="none" xmlns="http://www.w3.org/2000/svg">
<path d="M277.221 154.185L273.544 152.063C269.02 149.451 263.221 151.004 260.609 155.529L259.711 157.084L330.831 198.145L331.566 196.873C334.26 192.207 332.565 186.327 328.04 183.714L277.139 154.327L277.221 154.185Z" fill="black"/>
<path d="M328.465 202.245L257.345 161.184L255.366 160.041C251.548 157.837 246.642 159.152 244.438 162.969L236.682 176.401C235.621 178.24 236.279 180.693 238.117 181.754L239.248 182.407L315.458 226.407L318.427 228.121C320.265 229.183 322.719 228.525 323.78 226.687L331.535 213.255C333.598 209.356 332.283 204.449 328.465 202.245Z" fill="black"/>
<path d="M328.619 131.448C326.415 135.265 325.223 139.29 325.123 143.38L318.054 139.298C316.216 138.237 315.09 136.268 315.222 134.081L315.299 130.355C315.37 127.946 313.903 125.59 311.782 124.366L301.036 118.162C298.915 116.937 296.342 117.149 294.492 118.72C289.737 122.384 286.571 123.95 284.706 124.569C284.222 124.101 283.819 123.492 283.499 122.741L280.493 115.539C281.391 113.984 282.974 113.201 284.655 113.229L295.892 113.684C297.208 113.69 298.584 113.918 299.715 114.571L328.864 131.023C328.782 131.165 328.701 131.306 328.619 131.448Z" fill="black"/>
<path d="M344.073 139.617L334.487 145.771C334.319 142.47 335.022 139.293 336.818 136.183C336.9 136.041 337.063 135.759 337.145 135.617L342.8 138.882C343.366 139.209 343.649 139.372 344.073 139.617Z" fill="black"/>
<path d="M132.242 350.438L127.426 358.78C123.344 365.849 125.794 374.993 132.864 379.075L199.177 417.361C206.246 421.442 215.39 418.992 219.472 411.922L224.288 403.58L132.242 350.438Z" fill="black"/>
<path d="M351.121 162.35C348.57 162.196 345.759 161.516 343.355 160.128C339.113 157.679 336.275 153.778 335.221 149.399L346.717 141.897C350.283 145.841 352.484 151.825 351.754 156.682L351.121 162.35Z" fill="black"/>
<path d="M342.616 226.061L257.065 374.24L251.126 370.812L335.616 224.471C337.575 221.078 338.463 217.254 338.258 213.365L336.123 169.715L330.409 179.613L279.508 150.225L291.753 129.016L287.794 126.73C290.046 125.768 292.788 123.958 296.466 121.18C297.238 120.495 298.413 120.419 299.403 120.99L310.149 127.194C311.28 127.847 312.003 129.207 311.997 130.524L311.92 134.25C311.864 137.611 313.511 140.636 316.48 142.35L325.247 147.411C325.978 155.94 330.762 163.981 338.68 168.552C342.356 170.674 346.239 171.785 350.248 172.026L345.365 218.034C344.908 220.786 344.085 223.516 342.616 226.061Z" fill="black"/>
<path d="M364.008 124.356C352.697 117.825 338.505 121.508 331.773 132.515C331.692 132.657 331.528 132.939 331.447 133.081C329.243 136.898 328.192 141.005 328.234 145.176C328.228 146.493 328.364 147.891 328.581 149.147C329.786 155.876 333.809 161.969 340.172 165.642C343.424 167.52 346.943 168.609 350.445 168.746C359.191 169.271 368.08 164.977 372.733 156.917C379.264 145.606 375.32 130.886 364.008 124.356ZM350.702 165.689C347.645 165.433 344.551 164.589 341.723 162.956C337.057 160.262 333.876 155.975 332.257 151.27C331.898 149.931 331.54 148.593 331.404 147.195C330.998 143.002 331.766 138.732 334.052 134.773C334.133 134.632 334.297 134.349 334.378 134.208C340.294 124.615 352.62 121.551 362.376 127.184C372.273 132.898 375.679 145.61 369.965 155.508C365.824 162.354 358.355 166.149 350.702 165.689Z" fill="black"/>
<path d="M225.868 380.926C221.485 378.395 219.849 372.738 222.462 368.213C224.992 363.83 230.65 362.195 235.174 364.807L235.315 364.889L239.887 356.971L239.745 356.889C235.362 354.358 233.727 348.701 236.339 344.177C238.87 339.794 244.527 338.158 249.052 340.77L249.193 340.852L253.764 332.934L253.623 332.852C249.24 330.322 247.605 324.665 250.217 320.14C252.747 315.757 258.405 314.122 262.929 316.734L263.071 316.815L267.642 308.898L267.501 308.816C263.117 306.285 261.482 300.628 264.094 296.103C266.625 291.72 272.282 290.085 276.807 292.697L276.948 292.779L281.52 284.861L281.378 284.779C276.995 282.249 275.36 276.591 277.972 272.067C280.502 267.684 286.16 266.048 290.684 268.661L290.826 268.742L295.397 260.824L295.256 260.743C290.873 258.212 289.237 252.555 291.849 248.03C294.38 243.647 300.037 242.012 304.562 244.624L304.703 244.706L312.866 230.566L236.656 186.566L228.493 200.706L228.634 200.787C233.018 203.318 234.653 208.975 232.041 213.5C229.51 217.883 223.853 219.518 219.328 216.906L219.187 216.824L214.615 224.742L214.757 224.824C219.14 227.354 220.775 233.012 218.163 237.536C215.632 241.919 209.975 243.555 205.451 240.943L205.309 240.861L200.738 248.779L200.879 248.86C205.262 251.391 206.898 257.048 204.286 261.573C201.755 265.956 196.098 267.591 191.573 264.979L191.432 264.898L186.86 272.815L187.002 272.897C191.385 275.428 193.02 281.085 190.408 285.609C187.877 289.993 182.22 291.628 177.696 289.016L177.554 288.934L172.983 296.852L173.124 296.934C177.507 299.464 179.143 305.122 176.53 309.646C174 314.029 168.343 315.665 163.818 313.052L163.677 312.971L159.105 320.889L159.247 320.97C163.63 323.501 165.265 329.158 162.653 333.683C160.122 338.066 154.465 339.701 149.941 337.089L149.799 337.007L142.126 350.298L218.336 394.298L225.868 380.926C226.009 381.007 226.009 381.007 225.868 380.926ZM175.25 351.701C170.867 349.171 169.231 343.513 171.843 338.989C174.374 334.606 180.031 332.97 184.556 335.583C188.939 338.113 190.574 343.77 187.962 348.295C185.35 352.82 179.774 354.313 175.25 351.701ZM189.127 327.665C184.744 325.134 183.109 319.477 185.721 314.952C188.252 310.569 193.909 308.934 198.433 311.546C202.816 314.077 204.452 319.734 201.84 324.258C199.227 328.783 193.652 330.277 189.127 327.665ZM203.005 303.628C198.622 301.097 196.986 295.44 199.598 290.916C202.129 286.532 207.786 284.897 212.311 287.509C216.694 290.04 218.329 295.697 215.717 300.222C213.105 304.746 207.529 306.24 203.005 303.628ZM216.882 279.591C212.499 277.061 210.864 271.404 213.476 266.879C216.007 262.496 221.664 260.86 226.188 263.473C230.572 266.003 232.207 271.661 229.595 276.185C226.982 280.71 221.407 282.204 216.882 279.591ZM230.76 255.555C226.377 253.024 224.741 247.367 227.354 242.842C229.884 238.459 235.541 236.824 240.066 239.436C244.449 241.967 246.084 247.624 243.472 252.148C240.86 256.673 235.284 258.167 230.76 255.555ZM244.637 231.518C240.254 228.988 238.619 223.33 241.231 218.806C243.762 214.423 249.419 212.787 253.944 215.399C258.327 217.93 259.962 223.587 257.35 228.112C254.738 232.636 249.162 234.13 244.637 231.518ZM200.559 366.313C196.176 363.783 194.54 358.126 197.153 353.601C199.683 349.218 205.34 347.583 209.865 350.195C214.248 352.725 215.883 358.383 213.271 362.907C210.659 367.432 205.083 368.926 200.559 366.313ZM214.436 342.277C210.053 339.746 208.418 334.089 211.03 329.564C213.561 325.181 219.218 323.546 223.742 326.158C228.126 328.689 229.761 334.346 227.149 338.871C224.536 343.395 218.961 344.889 214.436 342.277ZM228.314 318.24C223.931 315.71 222.295 310.052 224.908 305.528C227.438 301.145 233.095 299.509 237.62 302.122C242.003 304.652 243.639 310.309 241.026 314.834C238.414 319.359 232.838 320.852 228.314 318.24ZM242.191 294.204C237.808 291.673 236.173 286.016 238.785 281.491C241.316 277.108 246.973 275.473 251.498 278.085C255.881 280.616 257.516 286.273 254.904 290.797C252.292 295.322 246.716 296.816 242.191 294.204ZM256.069 270.167C251.686 267.636 250.05 261.979 252.663 257.455C255.193 253.071 260.851 251.436 265.375 254.048C269.758 256.579 271.394 262.236 268.781 266.761C266.169 271.285 260.594 272.779 256.069 270.167ZM269.947 246.13C265.563 243.6 263.928 237.943 266.54 233.418C269.071 229.035 274.728 227.399 279.253 230.012C283.636 232.542 285.271 238.2 282.659 242.724C280.047 247.249 274.471 248.743 269.947 246.13Z" fill="black"/>
</svg>
