<svg width="512" height="512" viewBox="0 0 512 512" fill="none" xmlns="http://www.w3.org/2000/svg">
<path d="M223.429 157.227H219.184C213.96 157.227 209.715 161.471 209.715 166.696V168.492H291.837V167.022C291.837 161.635 287.429 157.39 282.205 157.39H223.429V157.227Z" fill="black"/>
<path d="M291.836 173.225H209.713H207.428C203.02 173.225 199.428 176.816 199.428 181.225V196.735C199.428 198.857 201.224 200.653 203.346 200.653H204.652H292.652H296.081C298.203 200.653 299.999 198.857 299.999 196.735V181.225C299.836 176.816 296.244 173.225 291.836 173.225Z" fill="black"/>
<path d="M256.572 111.837C256.572 116.246 257.552 120.327 259.511 123.919H251.348C249.225 123.919 247.266 122.776 246.286 120.817L244.49 117.552C243.348 115.429 240.899 114.123 238.45 114.123H226.041C223.593 114.123 221.47 115.593 220.654 117.878C218.368 123.429 216.409 126.368 215.103 127.837C214.45 127.674 213.797 127.348 213.144 126.858L206.939 122.123C206.939 120.327 207.919 118.858 209.388 118.042L219.348 112.817C220.49 112.164 221.797 111.674 223.103 111.674L256.572 111.348C256.572 111.511 256.572 111.674 256.572 111.837Z" fill="black"/>
<path d="M274.041 111.184L268.817 121.306C267.021 118.531 266.041 115.428 266.041 111.837C266.041 111.673 266.041 111.347 266.041 111.184H272.572C273.225 111.184 273.551 111.184 274.041 111.184Z" fill="black"/>
<path d="M196 399.674V409.307C196 417.47 202.694 424.164 210.857 424.164H287.429C295.592 424.164 302.286 417.47 302.286 409.307V399.674H196Z" fill="black"/>
<path d="M291.511 127.346C289.225 128.489 286.449 129.305 283.674 129.305C278.776 129.305 274.368 127.346 271.266 124.081L277.47 111.836C282.531 113.469 287.429 117.55 289.225 122.122L291.511 127.346Z" fill="black"/>
<path d="M316 186.774V357.877H309.143V188.897C309.143 184.979 308 181.223 305.878 177.958L282.204 141.223V152.652H223.429V128.162H218.857C220.327 126.203 221.796 123.264 223.592 119.019C223.919 118.04 224.898 117.387 226.041 117.387H238.449C239.755 117.387 241.062 118.203 241.715 119.346L243.51 122.611C245.143 125.55 248.082 127.346 251.51 127.346H261.633C266.531 134.366 274.694 138.938 283.837 138.938C288.082 138.938 292 137.958 295.592 136.162L314.368 178.448C315.347 181.06 316 183.836 316 186.774Z" fill="black"/>
<path d="M283.675 88C270.613 88 260.164 98.2857 259.838 111.184C259.838 111.347 259.838 111.673 259.838 111.837C259.838 116.245 260.981 120.327 263.103 123.918C263.756 125.061 264.573 126.204 265.389 127.184C269.797 132.408 276.328 135.673 283.675 135.673C287.43 135.673 291.022 134.857 294.124 133.224C301.96 129.306 307.511 121.143 307.511 111.837C307.511 98.7755 296.736 88 283.675 88ZM292.817 130.449C290.042 131.755 286.94 132.571 283.675 132.571C278.287 132.571 273.389 130.449 269.634 127.184C268.654 126.204 267.675 125.224 266.858 124.082C264.409 120.653 262.94 116.571 262.94 112C262.94 111.837 262.94 111.51 262.94 111.347C263.266 100.082 272.409 91.2653 283.675 91.2653C295.103 91.2653 304.409 100.571 304.409 112C304.246 120 299.675 127.02 292.817 130.449Z" fill="black"/>
<path d="M292.327 379.265C287.266 379.265 283.021 375.183 283.021 369.959C283.021 364.898 287.102 360.653 292.327 360.653H292.49V351.51H292.327C287.266 351.51 283.021 347.428 283.021 342.204C283.021 337.143 287.102 332.898 292.327 332.898H292.49V323.755H292.327C287.266 323.755 283.021 319.673 283.021 314.449C283.021 309.388 287.102 305.143 292.327 305.143H292.49V296H292.327C287.266 296 283.021 291.918 283.021 286.694C283.021 281.632 287.102 277.388 292.327 277.388H292.49V268.245H292.327C287.266 268.245 283.021 264.163 283.021 258.939C283.021 253.877 287.102 249.632 292.327 249.632H292.49V240.49H292.327C287.266 240.49 283.021 236.408 283.021 231.183C283.021 226.122 287.102 221.877 292.327 221.877H292.49V205.551H204.49V221.877H204.654C209.715 221.877 213.96 225.959 213.96 231.183C213.96 236.245 209.878 240.49 204.654 240.49H204.49V249.632H204.654C209.715 249.632 213.96 253.714 213.96 258.939C213.96 264 209.878 268.245 204.654 268.245H204.49V277.388H204.654C209.715 277.388 213.96 281.469 213.96 286.694C213.96 291.755 209.878 296 204.654 296H204.49V305.143H204.654C209.715 305.143 213.96 309.224 213.96 314.449C213.96 319.51 209.878 323.755 204.654 323.755H204.49V332.898H204.654C209.715 332.898 213.96 336.979 213.96 342.204C213.96 347.265 209.878 351.51 204.654 351.51H204.49V360.653H204.654C209.715 360.653 213.96 364.734 213.96 369.959C213.96 375.02 209.878 379.265 204.654 379.265H204.49V394.612H292.49L292.327 379.265C292.49 379.265 292.49 379.265 292.327 379.265ZM233.878 379.265C228.817 379.265 224.572 375.183 224.572 369.959C224.572 364.898 228.653 360.653 233.878 360.653C238.939 360.653 243.184 364.734 243.184 369.959C243.184 375.183 239.102 379.265 233.878 379.265ZM233.878 351.51C228.817 351.51 224.572 347.428 224.572 342.204C224.572 337.143 228.653 332.898 233.878 332.898C238.939 332.898 243.184 336.979 243.184 342.204C243.184 347.428 239.102 351.51 233.878 351.51ZM233.878 323.755C228.817 323.755 224.572 319.673 224.572 314.449C224.572 309.388 228.653 305.143 233.878 305.143C238.939 305.143 243.184 309.224 243.184 314.449C243.184 319.673 239.102 323.755 233.878 323.755ZM233.878 296C228.817 296 224.572 291.918 224.572 286.694C224.572 281.632 228.653 277.388 233.878 277.388C238.939 277.388 243.184 281.469 243.184 286.694C243.184 291.918 239.102 296 233.878 296ZM233.878 268.245C228.817 268.245 224.572 264.163 224.572 258.939C224.572 253.877 228.653 249.632 233.878 249.632C238.939 249.632 243.184 253.714 243.184 258.939C243.184 264.163 239.102 268.245 233.878 268.245ZM233.878 240.49C228.817 240.49 224.572 236.408 224.572 231.183C224.572 226.122 228.653 221.877 233.878 221.877C238.939 221.877 243.184 225.959 243.184 231.183C243.184 236.408 239.102 240.49 233.878 240.49ZM263.102 379.265C258.041 379.265 253.796 375.183 253.796 369.959C253.796 364.898 257.878 360.653 263.102 360.653C268.164 360.653 272.409 364.734 272.409 369.959C272.409 375.183 268.327 379.265 263.102 379.265ZM263.102 351.51C258.041 351.51 253.796 347.428 253.796 342.204C253.796 337.143 257.878 332.898 263.102 332.898C268.164 332.898 272.409 336.979 272.409 342.204C272.409 347.428 268.327 351.51 263.102 351.51ZM263.102 323.755C258.041 323.755 253.796 319.673 253.796 314.449C253.796 309.388 257.878 305.143 263.102 305.143C268.164 305.143 272.409 309.224 272.409 314.449C272.409 319.673 268.327 323.755 263.102 323.755ZM263.102 296C258.041 296 253.796 291.918 253.796 286.694C253.796 281.632 257.878 277.388 263.102 277.388C268.164 277.388 272.409 281.469 272.409 286.694C272.409 291.918 268.327 296 263.102 296ZM263.102 268.245C258.041 268.245 253.796 264.163 253.796 258.939C253.796 253.877 257.878 249.632 263.102 249.632C268.164 249.632 272.409 253.714 272.409 258.939C272.409 264.163 268.327 268.245 263.102 268.245ZM263.102 240.49C258.041 240.49 253.796 236.408 253.796 231.183C253.796 226.122 257.878 221.877 263.102 221.877C268.164 221.877 272.409 225.959 272.409 231.183C272.409 236.408 268.327 240.49 263.102 240.49Z" fill="black"/>
</svg>
