<svg width="512" height="512" viewBox="0 0 512 512" fill="none" xmlns="http://www.w3.org/2000/svg">
<path d="M346.681 192.529C346.701 192.049 346.661 191.549 346.581 191.069L345.361 183.949C345.181 182.849 345.141 181.729 345.221 180.629L332.961 173.549C332.221 174.069 331.401 174.489 330.561 174.849L326.941 181.109L346.681 192.529Z" fill="black"/>
<path d="M326.081 182.629L346.381 194.349C346.221 194.949 346.001 195.529 345.681 196.069L331.401 220.829L310.961 209.029L326.081 182.629Z" fill="black"/>
<path d="M356.701 147.709L355.741 147.149C355.361 146.929 354.901 147.029 354.621 147.349L335.721 170.989C335.701 171.029 335.661 171.049 335.621 171.089L346.001 177.089C346.021 177.049 346.021 177.009 346.041 176.969L357.061 148.769C357.241 148.369 357.081 147.909 356.701 147.709Z" fill="black"/>
<path d="M292.179 252.109L220.359 380.469L236.879 390.009C237.979 388.889 239.699 388.589 241.099 389.409C241.259 389.489 241.379 389.609 241.519 389.709L311.119 265.309L315.299 249.669L330.519 222.329L310.099 210.549L296.979 234.109L292.179 252.109Z" fill="black"/>
<path d="M236.001 399.528L238.161 395.688C237.981 395.628 237.801 395.548 237.621 395.448C236.221 394.648 235.601 393.008 236.021 391.508L219.521 381.988L216.121 388.048L236.001 399.528Z" fill="black"/>
<path d="M326.982 160.669L325.562 152.489C325.342 151.229 325.302 149.949 325.402 148.669L311.282 140.529C310.242 141.249 309.102 141.869 307.902 142.309L300.102 145.169C299.562 145.369 299.082 145.629 298.602 145.909L327.062 162.349C327.122 161.789 327.082 161.229 326.982 160.669Z" fill="black"/>
<path d="M324.559 168.87L325.959 166.45C326.319 165.83 326.559 165.15 326.759 164.47L296.959 147.27C296.459 147.79 295.999 148.33 295.639 148.95L279.199 177.43L303.699 191.57L309.499 194.93L320.059 176.65L320.919 175.15L324.559 168.87Z" fill="black"/>
<path d="M326.379 144.45L339.059 112.01C339.239 111.55 339.059 111.03 338.619 110.77L337.519 110.13C337.099 109.89 336.539 109.99 336.239 110.37L314.479 137.57C314.439 137.61 314.399 137.65 314.379 137.69L326.339 144.59C326.359 144.55 326.359 144.49 326.379 144.45Z" fill="black"/>
<path d="M302.72 193.31L278.22 179.17L259.74 210.07L246.56 223.25L162.66 364.15C162.72 364.17 162.78 364.19 162.84 364.23C164.46 365.17 165.14 367.05 164.66 368.79L200.76 389.63C202.02 388.35 204 387.99 205.62 388.93C205.8 389.03 205.94 389.15 206.1 389.27L210.14 382.07L213.54 376.01L214.38 374.49L286.2 246.13L291.02 228.13L304.14 204.57L304.98 203.05L308.54 196.67L302.72 193.31Z" fill="black"/>
<path d="M199.74 391.35L163.64 370.51C162.4 371.77 160.42 372.11 158.8 371.17C158.72 371.13 158.64 371.05 158.56 371.01L156 375.33L199.72 400.57L202.2 396.15C201.98 396.07 201.78 395.99 201.58 395.87C199.98 394.95 199.26 393.07 199.74 391.35Z" fill="black"/>
</svg>
