<svg width="512" height="512" viewBox="0 0 512 512" fill="none" xmlns="http://www.w3.org/2000/svg">
<path d="M271.681 146.439C271.421 145.959 271.101 145.479 270.741 145.039L265.421 138.659C264.601 137.679 263.921 136.579 263.381 135.439H247.081C246.541 136.599 245.861 137.679 245.041 138.659L239.741 145.039C239.381 145.479 239.081 145.939 238.801 146.439H271.681Z" fill="black"/>
<path d="M237.738 183.439H272.738V150.559C272.738 149.839 272.618 149.139 272.438 148.439H238.038C237.858 149.139 237.738 149.839 237.738 150.559V183.439Z" fill="black"/>
<path d="M262.14 131.44C262.14 131.38 262.12 131.34 262.1 131.28L256.86 96.84C256.78 96.36 256.36 96 255.88 96H254.6C254.1 96 253.68 96.36 253.62 96.84L248.38 131.28C248.38 131.34 248.36 131.38 248.34 131.44H262.14Z" fill="black"/>
<path d="M280.32 403.459C280.12 403.439 279.94 403.399 279.74 403.399C277.88 403.399 276.32 404.699 275.88 406.439H234.2C233.76 404.699 232.2 403.399 230.34 403.399C230.28 403.399 230.22 403.419 230.16 403.419L232.36 239.439L237.18 221.439L237.74 185.439H272.74L273.3 221.439L278.12 239.439L280.32 403.459Z" fill="black"/>
<path d="M279.74 411.439C277.88 411.439 276.32 410.159 275.88 408.439H234.2C233.76 410.159 232.2 411.439 230.34 411.439C230.24 411.439 230.16 411.419 230.06 411.419L230 416.439H280.48L280.42 411.379C280.2 411.399 279.98 411.439 279.74 411.439Z" fill="black"/>
</svg>
