<svg width="512" height="512" viewBox="0 0 512 512" fill="none" xmlns="http://www.w3.org/2000/svg">
<path d="M366 185.681C366.48 185.421 366.96 185.101 367.4 184.741L373.78 179.421C374.76 178.601 375.86 177.921 377 177.381V161.081C375.84 160.541 374.76 159.861 373.78 159.041L367.4 153.741C366.96 153.381 366.5 153.081 366 152.801V185.681Z" fill="black"/>
<path d="M329 151.74V186.74H361.88C362.6 186.74 363.3 186.62 364 186.44V152.04C363.3 151.86 362.6 151.74 361.88 151.74H329Z" fill="black"/>
<path d="M381.001 176.14C381.061 176.14 381.101 176.12 381.161 176.1L415.601 170.86C416.081 170.78 416.441 170.36 416.441 169.88V168.6C416.441 168.1 416.081 167.68 415.601 167.62L381.161 162.38C381.101 162.38 381.061 162.36 381.001 162.34V176.14Z" fill="black"/>
<path d="M108.98 194.32C109 194.12 109.04 193.94 109.04 193.74C109.04 191.88 107.74 190.32 106 189.88V148.2C107.74 147.76 109.04 146.2 109.04 144.34C109.04 144.28 109.02 144.22 109.02 144.16L273 146.36L291 151.18L327 151.74V186.74L291 187.3L273 192.12L108.98 194.32Z" fill="black"/>
<path d="M101 193.74C101 191.88 102.28 190.32 104 189.88V148.2C102.28 147.76 101 146.2 101 144.34C101 144.24 101.02 144.16 101.02 144.06L96 144V194.48L101.06 194.42C101.04 194.2 101 193.98 101 193.74Z" fill="black"/>
<path d="M366 272.161C366.48 271.901 366.96 271.581 367.4 271.221L373.78 265.901C374.76 265.081 375.86 264.401 377 263.861V247.561C375.84 247.021 374.76 246.341 373.78 245.521L367.4 240.221C366.96 239.861 366.5 239.561 366 239.281V272.161Z" fill="black"/>
<path d="M329 238.221V273.221H361.88C362.6 273.221 363.3 273.101 364 272.921V238.521C363.3 238.341 362.6 238.221 361.88 238.221H329Z" fill="black"/>
<path d="M381.001 262.62C381.061 262.62 381.101 262.6 381.161 262.58L415.601 257.34C416.081 257.26 416.441 256.84 416.441 256.36V255.08C416.441 254.58 416.081 254.16 415.601 254.1L381.161 248.86C381.101 248.86 381.061 248.84 381.001 248.82V262.62Z" fill="black"/>
<path d="M108.98 280.801C109 280.601 109.04 280.421 109.04 280.221C109.04 278.361 107.74 276.801 106 276.361V234.681C107.74 234.241 109.04 232.681 109.04 230.821C109.04 230.761 109.02 230.701 109.02 230.641L273 232.841L291 237.661L327 238.221V273.221L291 273.781L273 278.601L108.98 280.801Z" fill="black"/>
<path d="M101 280.22C101 278.36 102.28 276.8 104 276.36V234.68C102.28 234.24 101 232.68 101 230.82C101 230.72 101.02 230.64 101.02 230.54L96 230.48V280.96L101.06 280.9C101.04 280.68 101 280.46 101 280.22Z" fill="black"/>
<path d="M366 358.642C366.48 358.382 366.96 358.062 367.4 357.702L373.78 352.382C374.76 351.562 375.86 350.882 377 350.342V334.042C375.84 333.502 374.76 332.822 373.78 332.002L367.4 326.702C366.96 326.342 366.5 326.042 366 325.762V358.642Z" fill="black"/>
<path d="M329 324.701V359.701H361.88C362.6 359.701 363.3 359.581 364 359.401V325.001C363.3 324.821 362.6 324.701 361.88 324.701H329Z" fill="black"/>
<path d="M381.001 349.101C381.061 349.101 381.101 349.081 381.161 349.061L415.601 343.821C416.081 343.741 416.441 343.321 416.441 342.841V341.561C416.441 341.061 416.081 340.641 415.601 340.581L381.161 335.341C381.101 335.341 381.061 335.321 381.001 335.301V349.101Z" fill="black"/>
<path d="M108.98 367.281C109 367.081 109.04 366.901 109.04 366.701C109.04 364.841 107.74 363.281 106 362.841V321.161C107.74 320.721 109.04 319.161 109.04 317.301C109.04 317.241 109.02 317.181 109.02 317.121L273 319.321L291 324.141L327 324.701V359.701L291 360.261L273 365.081L108.98 367.281Z" fill="black"/>
<path d="M101 366.701C101 364.841 102.28 363.281 104 362.841V321.161C102.28 320.721 101 319.161 101 317.301C101 317.201 101.02 317.121 101.02 317.021L96 316.961V367.441L101.06 367.381C101.04 367.161 101 366.941 101 366.701Z" fill="black"/>
</svg>
