<svg width="512" height="512" viewBox="0 0 512 512" fill="none" xmlns="http://www.w3.org/2000/svg">
<path d="M194.677 177.931C194.461 177.588 194.194 177.246 193.895 176.932L189.468 172.382C188.786 171.683 188.22 170.899 187.771 170.086H174.209C173.76 170.913 173.194 171.683 172.512 172.382L168.102 176.932C167.803 177.246 167.553 177.574 167.32 177.931H194.677Z" fill="black"/>
<path d="M166.441 204.318H195.562V180.869C195.562 180.356 195.462 179.857 195.312 179.357H166.691C166.541 179.857 166.441 180.356 166.441 180.869V204.318Z" fill="black"/>
<path d="M186.74 167.233C186.74 167.19 186.723 167.162 186.706 167.119L182.347 142.558C182.28 142.216 181.931 141.959 181.531 141.959H180.466C180.05 141.959 179.701 142.216 179.651 142.558L175.291 167.119C175.291 167.162 175.274 167.19 175.258 167.233H186.74Z" fill="black"/>
<path d="M201.867 361.226C201.7 361.212 201.55 361.183 201.384 361.183C199.836 361.183 198.539 362.11 198.172 363.351H163.494C163.128 362.11 161.83 361.183 160.283 361.183C160.233 361.183 160.183 361.197 160.133 361.197L161.963 244.254L165.974 231.418L166.439 205.744H195.56L196.026 231.418L200.036 244.254L201.867 361.226Z" fill="black"/>
<path d="M201.384 366.917C199.837 366.917 198.539 366.004 198.173 364.777H163.494C163.128 366.004 161.83 366.917 160.283 366.917C160.2 366.917 160.133 366.903 160.05 366.903L160 370.483H202L201.95 366.874C201.767 366.888 201.584 366.917 201.384 366.917Z" fill="black"/>
<path d="M271.681 146.439C271.421 145.959 271.101 145.479 270.741 145.039L265.421 138.659C264.601 137.679 263.921 136.579 263.381 135.439H247.081C246.541 136.599 245.861 137.679 245.041 138.659L239.741 145.039C239.381 145.479 239.081 145.939 238.801 146.439H271.681Z" fill="black"/>
<path d="M237.738 183.439H272.738V150.559C272.738 149.839 272.618 149.139 272.438 148.439H238.038C237.858 149.139 237.738 149.839 237.738 150.559V183.439Z" fill="black"/>
<path d="M262.14 131.44C262.14 131.38 262.12 131.34 262.1 131.28L256.86 96.84C256.78 96.36 256.36 96 255.88 96H254.6C254.1 96 253.68 96.36 253.62 96.84L248.38 131.28C248.38 131.34 248.36 131.38 248.34 131.44H262.14Z" fill="black"/>
<path d="M280.32 403.459C280.12 403.439 279.94 403.399 279.74 403.399C277.88 403.399 276.32 404.699 275.88 406.439H234.2C233.76 404.699 232.2 403.399 230.34 403.399C230.28 403.399 230.22 403.419 230.16 403.419L232.36 239.439L237.18 221.439L237.74 185.439H272.74L273.3 221.439L278.12 239.439L280.32 403.459Z" fill="black"/>
<path d="M279.74 411.439C277.88 411.439 276.32 410.159 275.88 408.439H234.2C233.76 410.159 232.2 411.439 230.34 411.439C230.24 411.439 230.16 411.419 230.06 411.419L230 416.439H280.48L280.42 411.379C280.2 411.399 279.98 411.439 279.74 411.439Z" fill="black"/>
<path d="M343.157 177.931C342.941 177.588 342.675 177.246 342.375 176.932L337.949 172.382C337.267 171.683 336.701 170.899 336.252 170.086H322.69C322.241 170.913 321.675 171.683 320.993 172.382L316.583 176.932C316.283 177.246 316.034 177.574 315.801 177.931H343.157Z" fill="black"/>
<path d="M314.922 204.318H344.042V180.869C344.042 180.356 343.942 179.857 343.793 179.357H315.171C315.022 179.857 314.922 180.356 314.922 180.869V204.318Z" fill="black"/>
<path d="M335.22 167.233C335.22 167.19 335.203 167.162 335.187 167.119L330.827 142.558C330.76 142.216 330.411 141.959 330.012 141.959H328.947C328.531 141.959 328.181 142.216 328.131 142.558L323.772 167.119C323.772 167.162 323.755 167.19 323.738 167.233H335.22Z" fill="black"/>
<path d="M350.347 361.226C350.181 361.212 350.031 361.183 349.864 361.183C348.317 361.183 347.019 362.11 346.653 363.351H311.975C311.609 362.11 310.311 361.183 308.763 361.183C308.713 361.183 308.663 361.197 308.613 361.197L310.444 244.254L314.454 231.418L314.92 205.744H344.04L344.506 231.418L348.517 244.254L350.347 361.226Z" fill="black"/>
<path d="M349.865 366.917C348.317 366.917 347.019 366.004 346.653 364.777H311.975C311.609 366.004 310.311 366.917 308.763 366.917C308.68 366.917 308.614 366.903 308.53 366.903L308.48 370.483H350.48L350.431 366.874C350.248 366.888 350.064 366.917 349.865 366.917Z" fill="black"/>
</svg>
