<svg width="512" height="512" viewBox="0 0 512 512" fill="none" xmlns="http://www.w3.org/2000/svg">
<path d="M447.879 237.246H504.864C504.864 237.246 506 236.484 506 232.899C506 229.314 504.864 228.553 504.864 228.553H447.879V237.246Z" fill="black"/>
<path d="M487.939 227.16H494.307L491.871 218.156H487.939V227.16Z" fill="black"/>
<path d="M446.26 228.625H282.297V237.241H446.26V228.625Z" fill="black"/>
<path d="M138.256 264.292C138.256 264.292 137.695 272.246 139.926 275.005C142.876 278.654 162.995 273.769 174.94 271.357C190.735 268.164 208.09 262.741 210.457 258.818C164.227 260.72 138.256 264.292 138.256 264.292ZM159.196 272.625L144.783 274.545C143.004 274.736 141.385 273.436 141.193 271.658L140.733 267.388C140.628 266.417 141.335 265.537 142.306 265.432L159.939 263.521C160.76 263.434 161.504 264.032 161.59 264.848L162.083 269.035C162.274 270.814 160.975 272.433 159.196 272.625Z" fill="black"/>
<path d="M174.324 215.835V219.881H165.467V215.835H155.811L143.1 213.555H131.337C131.086 213.555 130.881 213.76 130.881 214.011V226.859C130.881 227.11 131.086 227.315 131.337 227.315H143.1L155.811 225.035H176.217V221.345H182.972V225.035H188.796V221.345H195.551V225.035H198.365L206.452 227.033H221.018C221.268 227.033 221.474 226.827 221.474 226.577V213.806C221.474 213.555 221.268 213.35 221.018 213.35H206.452L198.365 215.835H174.324Z" fill="black"/>
<path d="M173.599 212H166.256V219.129H173.599V212Z" fill="black"/>
<path d="M182.151 222.193H177.084V228.852H182.151V222.193Z" fill="black"/>
<path d="M194.667 222.193H189.6V228.852H194.667V222.193Z" fill="black"/>
<path d="M144.533 266.248L147.702 265.883C147.702 265.883 146.996 267.452 147.538 269.034C147.921 270.138 149.253 271.055 149.883 271.434C150.07 271.548 150.143 271.785 150.047 271.981C149.96 272.163 149.764 272.259 149.568 272.218C148.679 272.017 146.279 271.338 145.431 269.723C144.282 267.534 144.528 266.252 144.528 266.252L144.533 266.248Z" fill="black"/>
<path d="M259.428 243.918H211.497C210.115 243.918 208.988 245.045 208.988 246.427C208.988 247.808 210.115 248.935 211.497 248.935H259.428C260.81 248.935 261.937 247.808 261.937 246.427C261.937 245.045 260.81 243.918 259.428 243.918Z" fill="black"/>
<path d="M280.956 228.625C280.956 228.625 150.862 230.5 146.233 230.723C141.603 230.942 138.662 234.449 138.662 234.449L138.365 232.94C138.26 232.402 137.772 232.028 137.225 232.059C136.655 232.096 136.208 232.561 136.199 233.136L136.107 239.129C136.103 239.457 136.468 239.663 136.741 239.485C138.101 238.6 141.398 236.68 144.769 236.433C145.394 236.388 148.591 236.37 153.608 236.379V239.558C153.608 240.547 154.411 241.35 155.401 241.35H179.036C180.025 241.35 180.828 240.547 180.828 239.558V236.502C221.188 236.744 280.951 237.25 280.951 237.25V228.634L280.956 228.625Z" fill="black"/>
<path d="M159.428 242.75L149.17 251.088L148.896 250.928C148.422 250.65 147.893 250.513 147.364 250.513C146.684 250.513 146.009 250.741 145.462 251.183C144.171 252.232 143.975 254.139 145.024 255.43C146.073 256.72 147.98 256.916 149.27 255.867C150.242 255.078 150.625 253.747 150.224 252.556L150.123 252.255L161.818 242.75H159.432H159.428Z" fill="black"/>
<path d="M182.205 238.701V240.831C182.205 241.889 181.348 242.746 180.29 242.746H163.259L151.177 252.566C151.542 254.03 151.031 255.608 149.845 256.571C149.12 257.164 148.24 257.451 147.368 257.451C146.224 257.451 145.088 256.954 144.313 256C142.944 254.317 143.204 251.836 144.883 250.473C146.064 249.51 147.711 249.332 149.074 249.989L157.982 242.751H154.164C153.106 242.751 152.249 241.893 152.249 240.835V238.623C148.354 238.614 146.849 238.609 146.187 238.609C138.237 238.632 123.829 251.198 112.29 252.247C106.566 252.767 105.188 251.084 99.4825 249.451C92.9557 247.585 9.52592 250.874 6.58408 254.368C4.34463 257.022 9.24314 266.194 9.58066 277.747C9.85432 287.061 6.63881 296.844 9.93185 298.824C13.8908 301.205 84.0116 279.075 89.836 277.442C95.6604 275.809 105.977 283.836 110.351 283.024C114.406 282.272 115.852 268.771 128.13 264.548C142.57 259.581 216.463 256.721 216.463 256.721C216.463 256.721 438.109 246.048 441.275 245.205C444.44 244.361 445.808 239.549 445.808 239.549C445.808 239.549 261.973 238.938 182.21 238.696L182.205 238.701ZM259.428 249.839H211.496C209.612 249.839 208.075 248.306 208.075 246.418C208.075 244.53 209.608 242.997 211.496 242.997H259.428C261.311 242.997 262.848 244.53 262.848 246.418C262.848 248.306 261.316 249.839 259.428 249.839ZM345.284 243.946C345.284 244.53 344.81 245.004 344.226 245.004H333.95C333.366 245.004 332.892 244.53 332.892 243.946V243.804C332.892 243.221 333.366 242.746 333.95 242.746H344.226C344.81 242.746 345.284 243.221 345.284 243.804V243.946ZM362.949 243.946C362.949 244.53 362.474 245.004 361.891 245.004H351.615C351.031 245.004 350.557 244.53 350.557 243.946V243.804C350.557 243.221 351.031 242.746 351.615 242.746H361.891C362.474 242.746 362.949 243.221 362.949 243.804V243.946ZM379.601 243.946C379.601 244.53 379.127 245.004 378.543 245.004H368.267C367.683 245.004 367.209 244.53 367.209 243.946V243.804C367.209 243.221 367.683 242.746 368.267 242.746H378.543C379.127 242.746 379.601 243.221 379.601 243.804V243.946Z" fill="black"/>
</svg>
