<svg width="512" height="160" viewBox="0 0 512 160" fill="none" xmlns="http://www.w3.org/2000/svg">
<path d="M447.879 61.246H504.864C504.864 61.246 506 60.4843 506 56.8994C506 53.3144 504.864 52.5527 504.864 52.5527H447.879V61.246Z" fill="black"/>
<path d="M487.939 51.1597H494.307L491.871 42.1562H487.939V51.1597Z" fill="black"/>
<path d="M446.26 52.625H282.297V61.2407H446.26V52.625Z" fill="black"/>
<path d="M138.256 88.2916C138.256 88.2916 137.695 96.246 139.926 99.0054C142.876 102.654 162.995 97.7693 174.94 95.3566C190.735 92.1639 208.09 86.7408 210.457 82.8184C164.227 84.7203 138.256 88.2916 138.256 88.2916ZM159.196 96.6245L144.783 98.5447C143.004 98.7363 141.385 97.4364 141.193 95.6576L140.733 91.3885C140.628 90.417 141.335 89.5367 142.306 89.4318L159.939 87.5208C160.76 87.4341 161.504 88.0316 161.59 88.848L162.083 93.035C162.274 94.8138 160.975 96.433 159.196 96.6245Z" fill="black"/>
<path d="M174.324 39.8354V43.881H165.467V39.8354H155.811L143.1 37.5549H131.337C131.086 37.5549 130.881 37.7601 130.881 38.011V50.8593C130.881 51.1102 131.086 51.3154 131.337 51.3154H143.1L155.811 49.0349H176.217V45.345H182.972V49.0349H188.796V45.345H195.551V49.0349H198.365L206.452 51.0326H221.018C221.268 51.0326 221.474 50.8274 221.474 50.5765V37.8057C221.474 37.5549 221.268 37.3496 221.018 37.3496H206.452L198.365 39.8354H174.324Z" fill="black"/>
<path d="M173.599 36H166.256V43.1288H173.599V36Z" fill="black"/>
<path d="M182.151 46.1934H177.084V52.8524H182.151V46.1934Z" fill="black"/>
<path d="M194.667 46.1934H189.6V52.8524H194.667V46.1934Z" fill="black"/>
<path d="M144.533 90.2477L147.702 89.8828C147.702 89.8828 146.996 91.4518 147.538 93.0345C147.921 94.1382 149.253 95.055 149.883 95.4335C150.07 95.5476 150.143 95.7847 150.047 95.9809C149.96 96.1633 149.764 96.2591 149.568 96.218C148.679 96.0174 146.279 95.3378 145.431 93.7232C144.282 91.5339 144.528 90.2523 144.528 90.2523L144.533 90.2477Z" fill="black"/>
<path d="M259.428 67.918H211.497C210.115 67.918 208.988 69.0445 208.988 70.4265C208.988 71.8085 210.115 72.9351 211.497 72.9351H259.428C260.81 72.9351 261.937 71.8085 261.937 70.4265C261.937 69.0445 260.81 67.918 259.428 67.918Z" fill="black"/>
<path d="M280.956 52.625C280.956 52.625 150.862 54.4996 146.233 54.7231C141.603 54.942 138.662 58.4494 138.662 58.4494L138.365 56.9397C138.26 56.4015 137.772 56.0275 137.225 56.0594C136.655 56.0959 136.208 56.5611 136.199 57.1358L136.107 63.129C136.103 63.4574 136.468 63.6626 136.741 63.4848C138.101 62.5999 141.398 60.6797 144.769 60.4334C145.394 60.3878 148.591 60.3696 153.608 60.3787V63.5577C153.608 64.5475 154.411 65.3502 155.401 65.3502H179.036C180.025 65.3502 180.828 64.5475 180.828 63.5577V60.5019C221.188 60.7436 280.951 61.2499 280.951 61.2499V52.6341L280.956 52.625Z" fill="black"/>
<path d="M159.428 66.75L149.17 75.0875L148.896 74.9279C148.422 74.6497 147.893 74.5128 147.364 74.5128C146.684 74.5128 146.009 74.7409 145.462 75.1833C144.171 76.2323 143.975 78.1388 145.024 79.4296C146.073 80.7203 147.98 80.9165 149.27 79.8674C150.242 79.0784 150.625 77.7466 150.224 76.5562L150.123 76.2551L161.818 66.75H159.432H159.428Z" fill="black"/>
<path d="M182.205 62.7006V64.8306C182.205 65.8887 181.348 66.7462 180.29 66.7462H163.259L151.177 76.566C151.542 78.0301 151.031 79.6082 149.845 80.5706C149.12 81.1635 148.24 81.4509 147.368 81.4509C146.224 81.4509 145.088 80.9537 144.313 80.0005C142.944 78.3175 143.204 75.8363 144.883 74.4725C146.064 73.5102 147.711 73.3323 149.074 73.9891L157.982 66.7508H154.164C153.106 66.7508 152.249 65.8933 152.249 64.8351V62.6231C148.354 62.6139 146.849 62.6094 146.187 62.6094C138.237 62.6322 123.829 75.1977 112.29 76.2468C106.566 76.7667 105.188 75.0837 99.4825 73.4509C92.9557 71.5854 9.52592 74.8739 6.58408 78.3676C4.34463 81.0221 9.24314 90.1943 9.58066 101.747C9.85432 111.061 6.63881 120.844 9.93185 122.824C13.8908 125.205 84.0116 103.075 89.836 101.442C95.6604 99.8089 105.977 107.836 110.351 107.024C114.406 106.272 115.852 92.7713 128.13 88.5478C142.57 83.5809 216.463 80.7211 216.463 80.7211C216.463 80.7211 438.109 70.0484 441.275 69.2046C444.44 68.3608 445.808 63.5489 445.808 63.5489C445.808 63.5489 261.973 62.9378 182.21 62.696L182.205 62.7006ZM259.428 73.8386H211.496C209.612 73.8386 208.075 72.3061 208.075 70.4178C208.075 68.5296 209.608 66.9971 211.496 66.9971H259.428C261.311 66.9971 262.848 68.5296 262.848 70.4178C262.848 72.3061 261.316 73.8386 259.428 73.8386ZM345.284 67.9457C345.284 68.5296 344.81 69.0039 344.226 69.0039H333.95C333.366 69.0039 332.892 68.5296 332.892 67.9457V67.8044C332.892 67.2205 333.366 66.7462 333.95 66.7462H344.226C344.81 66.7462 345.284 67.2205 345.284 67.8044V67.9457ZM362.949 67.9457C362.949 68.5296 362.474 69.0039 361.891 69.0039H351.615C351.031 69.0039 350.557 68.5296 350.557 67.9457V67.8044C350.557 67.2205 351.031 66.7462 351.615 66.7462H361.891C362.474 66.7462 362.949 67.2205 362.949 67.8044V67.9457ZM379.601 67.9457C379.601 68.5296 379.127 69.0039 378.543 69.0039H368.267C367.683 69.0039 367.209 68.5296 367.209 67.9457V67.8044C367.209 67.2205 367.683 66.7462 368.267 66.7462H378.543C379.127 66.7462 379.601 67.2205 379.601 67.8044V67.9457Z" fill="black"/>
</svg>
