<svg width="512" height="512" viewBox="0 0 512 512" fill="none" xmlns="http://www.w3.org/2000/svg">
<path d="M413.046 143.751L462.396 115.259C462.396 115.259 462.999 114.031 461.207 110.927C459.414 107.822 458.05 107.73 458.05 107.73L408.699 136.223L413.046 143.751Z" fill="black"/>
<path d="M442.695 114.989L448.209 111.805L441.598 105.226L438.193 107.191L442.695 114.989Z" fill="black"/>
<path d="M407.332 137.094L265.336 219.076L269.644 226.538L411.64 144.556L407.332 137.094Z" fill="black"/>
<path d="M158.426 321.986C158.426 321.986 161.917 329.155 165.228 330.43C169.608 332.114 184.589 317.824 193.728 309.762C205.81 299.1 218.128 285.726 218.217 281.146C179.131 305.908 158.426 321.986 158.426 321.986ZM180.726 318.733L169.205 327.602C167.76 328.657 165.708 328.341 164.653 326.896L162.119 323.43C161.542 322.641 161.715 321.525 162.503 320.948L176.818 310.477C177.486 309.991 178.429 310.137 178.912 310.801L181.432 314.18C182.487 315.625 182.171 317.677 180.726 318.733Z" fill="black"/>
<path d="M165.434 261.988L167.457 265.491L159.786 269.92L157.764 266.416L149.402 271.244L137.253 275.625L127.066 281.506C126.849 281.632 126.774 281.912 126.899 282.129L133.323 293.256C133.449 293.474 133.729 293.549 133.946 293.423L144.133 287.542L154.001 279.211L171.673 269.008L169.829 265.813L175.678 262.435L177.523 265.631L182.567 262.719L180.722 259.523L186.572 256.146L188.417 259.341L190.854 257.934L198.856 255.621L211.471 248.338C211.688 248.213 211.763 247.932 211.638 247.715L205.252 236.655C205.127 236.438 204.846 236.363 204.629 236.488L192.015 243.771L186.255 249.967L165.434 261.988Z" fill="black"/>
<path d="M162.889 259.03L156.529 262.701L160.094 268.875L166.453 265.203L162.889 259.03Z" fill="black"/>
<path d="M175.392 263.582L171.004 266.115L174.333 271.882L178.722 269.349L175.392 263.582Z" fill="black"/>
<path d="M186.23 257.324L181.842 259.857L185.171 265.624L189.56 263.091L186.23 257.324Z" fill="black"/>
<path d="M164.84 320.543L167.403 318.642C167.403 318.642 167.575 320.354 168.837 321.453C169.72 322.218 171.332 322.346 172.067 322.359C172.286 322.364 172.467 322.533 172.482 322.751C172.499 322.952 172.377 323.133 172.186 323.196C171.316 323.467 168.898 324.078 167.356 323.103C165.266 321.782 164.839 320.549 164.839 320.549L164.84 320.543Z" fill="black"/>
<path d="M253.179 243.757L211.669 267.722C210.472 268.413 210.059 269.952 210.75 271.149C211.441 272.346 212.98 272.758 214.177 272.067L255.687 248.101C256.884 247.41 257.296 245.872 256.605 244.675C255.914 243.478 254.375 243.066 253.179 243.757Z" fill="black"/>
<path d="M264.175 219.748C264.175 219.748 152.448 286.418 148.55 288.926C144.651 291.43 143.857 295.939 143.857 295.939L142.845 294.78C142.485 294.366 141.875 294.286 141.417 294.587C140.942 294.904 140.787 295.53 141.067 296.033L143.984 301.269C144.145 301.555 144.563 301.551 144.711 301.26C145.446 299.814 147.342 296.502 150.138 294.603C150.656 294.252 153.416 292.637 157.765 290.136L159.355 292.89C159.85 293.747 160.946 294.041 161.803 293.546L182.272 281.728C183.129 281.233 183.423 280.137 182.928 279.28L181.4 276.633C216.474 256.662 268.483 227.219 268.483 227.219L264.175 219.758L264.175 219.748Z" fill="black"/>
<path d="M165.992 292.744L161.277 305.093L160.96 305.092C160.41 305.088 159.884 305.234 159.426 305.499C158.837 305.839 158.366 306.374 158.114 307.03C157.52 308.584 158.304 310.333 159.858 310.927C161.411 311.52 163.161 310.737 163.754 309.183C164.201 308.014 163.867 306.669 162.924 305.839L162.686 305.628L168.061 291.549L165.996 292.742L165.992 292.744Z" fill="black"/>
<path d="M183.693 277.847L184.758 279.692C185.287 280.608 184.973 281.78 184.057 282.309L169.308 290.824L163.754 305.369C164.802 306.455 165.149 308.077 164.603 309.503C164.271 310.38 163.653 311.068 162.898 311.504C161.907 312.076 160.675 312.214 159.527 311.776C157.5 311.003 156.485 308.724 157.256 306.704C157.798 305.279 159.135 304.302 160.645 304.189L164.74 293.467L161.434 295.375C160.517 295.905 159.346 295.591 158.817 294.674L157.711 292.759C154.333 294.698 153.027 295.447 152.454 295.777C145.581 299.772 139.386 317.858 129.917 324.537C125.22 327.849 123.186 327.08 117.428 328.519C110.843 330.167 40.2346 374.73 39.4338 379.226C38.8216 382.645 47.6499 388.139 53.7187 397.975C58.6125 405.904 60.7195 415.985 64.5611 416.052C69.1801 416.135 118.841 361.909 123.069 357.583C127.297 353.257 140.245 355.05 143.627 352.16C146.763 349.481 141.264 337.066 149.786 327.269C159.808 315.748 222.371 276.325 222.371 276.325C222.371 276.325 408.986 156.259 411.305 153.945C413.625 151.632 412.404 146.781 412.404 146.781C412.404 146.781 252.892 238.169 183.694 277.841L183.693 277.847ZM256.138 248.882L214.628 272.848C212.997 273.79 210.9 273.231 209.955 271.596C209.011 269.96 209.572 267.867 211.208 266.923L252.718 242.957C254.349 242.015 256.446 242.574 257.39 244.209C258.334 245.844 257.774 247.938 256.138 248.882ZM327.546 200.851C327.837 201.356 327.664 202.004 327.158 202.296L318.259 207.434C317.753 207.726 317.105 207.552 316.814 207.047L316.743 206.924C316.451 206.419 316.625 205.771 317.13 205.479L326.029 200.341C326.535 200.049 327.183 200.222 327.475 200.728L327.546 200.851ZM342.844 192.018C343.136 192.524 342.962 193.172 342.456 193.464L333.557 198.602C333.052 198.893 332.404 198.72 332.112 198.214L332.041 198.092C331.749 197.586 331.923 196.938 332.428 196.646L341.328 191.508C341.833 191.216 342.481 191.39 342.773 191.896L342.844 192.018ZM357.265 183.692C357.557 184.198 357.383 184.846 356.878 185.138L347.978 190.275C347.473 190.567 346.825 190.394 346.533 189.888L346.462 189.766C346.17 189.26 346.344 188.612 346.85 188.32L355.749 183.182C356.254 182.89 356.902 183.064 357.194 183.57L357.265 183.692Z" fill="black"/>
</svg>
