<svg width="512" height="512" viewBox="0 0 512 512" fill="none" xmlns="http://www.w3.org/2000/svg">
<path d="M55.7835 330.477C54.1599 331.414 52.235 331.148 50.7073 329.865L79.8567 362.629C79.942 362.776 80.1748 362.839 80.47 362.668L87.5547 358.578C87.8499 358.407 87.9122 358.175 87.7418 357.879L65.3774 324.938L55.7835 330.477Z" fill="black"/>
<path d="M297.827 153.541L291.48 157.205L307.075 184.216C307.075 184.216 307.075 184.216 307.222 184.13L313.421 180.551L297.827 153.541Z" fill="black"/>
<path d="M193.735 210.488L191.093 205.913C191.008 205.765 190.86 205.85 190.798 206.083C187.883 216.032 176.317 215.428 175.3 215.031L175.153 215.116L165.411 220.74C165.264 220.826 165.178 220.678 165.264 220.826L167.905 225.401L193.735 210.488Z" fill="black"/>
<path d="M194.82 212.027C194.735 211.88 194.673 212.113 194.673 212.113L166.924 228.133L145.522 240.489C144.046 241.342 143.695 243.119 144.314 244.533L151.069 256.573L156.383 253.505C155.701 252.325 155.547 251.036 155.774 249.724L153.132 245.149C152.621 244.263 153.018 243.247 153.904 242.735L292.646 162.632L290.004 158.057L194.82 212.027Z" fill="black"/>
<path d="M160.497 246.996C160.117 247.019 159.674 247.274 159.379 247.445C157.607 248.467 157.046 250.563 158.069 252.334C158.665 253.367 159.852 254.059 160.931 254.224L160.497 246.996Z" fill="black"/>
<path d="M161.491 247.014L161.84 254.094C162.22 254.071 162.663 253.815 162.958 253.645C164.729 252.622 165.291 250.527 164.268 248.756C163.671 247.723 162.485 247.03 161.491 247.014Z" fill="black"/>
<path d="M155.789 243.614C155.346 243.869 155.159 244.568 155.415 245.011L156.863 247.52C157.136 246.969 157.788 246.395 158.231 246.14C158.969 245.714 160.235 245.179 160.996 245.134C163.511 245.059 165.21 246.637 165.744 247.903L169.729 245.602C170.172 245.347 170.87 245.534 171.126 245.976L177.284 256.984C177.54 257.427 178.005 257.551 178.448 257.296L192.703 249.263C193.146 249.007 193.611 249.132 193.867 249.575L194.719 251.051C194.975 251.493 195.44 251.618 195.883 251.363L292.855 195.376C293.298 195.12 293.763 195.245 294.019 195.688L296.916 200.706C302.167 197.871 309.007 190.97 306.451 186.542L293.498 164.107L155.789 243.614ZM299.696 193.591C298.22 194.443 296.21 194.029 295.273 192.405C294.421 190.93 294.834 188.919 296.458 187.982C297.934 187.13 299.944 187.544 300.881 189.167C301.819 190.791 301.32 192.653 299.696 193.591Z" fill="black"/>
<path d="M298.258 188.714C297.878 188.737 297.497 188.76 297.055 189.015C296.021 189.612 295.647 191.009 296.244 192.042C296.499 192.485 296.902 192.842 297.368 192.967L298.258 188.714Z" fill="black"/>
<path d="M299.104 188.817L298.214 193.07C298.594 193.047 298.975 193.024 299.27 192.854C300.303 192.257 300.678 190.86 300.081 189.827C299.973 189.299 299.57 188.942 299.104 188.817Z" fill="black"/>
<path d="M219.839 252.292L213.492 255.956C215.56 259.879 220.326 266.771 228.552 262.612C228.847 262.441 228.824 262.061 228.444 262.084C226.814 261.647 222.885 262.341 221.254 256.789L219.839 252.292Z" fill="black"/>
<path d="M246.666 233.655L272.2 218.913C272.604 219.27 308.234 259.509 332.663 267.053C334.145 267.575 334.997 269.051 334.475 270.533L325.547 297.336C310.487 290.68 267.536 263.327 246.19 235.898C245.764 235.16 245.928 234.081 246.666 233.655Z" fill="black"/>
<path d="M386.691 132.934L377.999 117.879L370.86 114.719C370.48 114.742 370.27 115.06 370.44 115.355L383.308 137.642C383.478 137.938 383.859 137.915 384.069 137.597L386.691 132.934Z" fill="black"/>
<path d="M403.948 106.242L400.922 105.431C400.456 105.307 399.928 105.415 399.633 105.585L379.412 117.26L388.019 132.167L408.092 120.578C408.535 120.322 408.745 120.004 408.87 119.539L409.743 116.279C409.868 115.813 409.76 115.285 409.589 114.99L405.073 107.168C404.817 106.725 404.414 106.367 403.948 106.242Z" fill="black"/>
<path d="M406.804 106.759L410.895 113.844L417.986 111.127C418.661 110.934 418.996 110.151 418.655 109.56L414.394 102.18C414.053 101.59 413.207 101.488 412.702 101.976L406.804 106.759Z" fill="black"/>
<path d="M354.416 110.437L352.797 107.633L348.369 110.189L354.504 120.817L356.718 119.538L355.525 117.472L362.019 113.722L363.212 115.789L365.426 114.511L360.91 106.688L354.416 110.437Z" fill="black"/>
<path d="M366.636 115.585L299.45 152.604L317.26 183.452C317.516 183.894 317.982 184.019 318.277 183.849C320.746 183.013 328.467 179.343 334.016 167.48L338.297 165.009L334.206 157.924L335.682 157.072L339.773 164.156L345.381 160.918L341.291 153.834L342.767 152.981L346.857 160.066L352.466 156.828L348.376 149.743L349.852 148.891L353.942 155.976L359.551 152.738L355.46 145.653L356.936 144.801L361.027 151.885L366.635 148.647L362.545 141.563L364.021 140.71L368.111 147.795L373.72 144.557L369.63 137.472L371.106 136.62L375.196 143.705L380.362 140.722C381.248 140.211 381.56 139.047 381.048 138.161L368.669 116.379C368.453 115.323 367.522 115.074 366.636 115.585Z" fill="black"/>
<path d="M283.713 212.265L273.824 217.975C273.994 218.27 275.863 220.143 278.476 222.964L280.054 221.266L281.349 222.486L279.623 224.27C280.77 225.575 282.151 226.943 283.616 228.459L285.342 226.675L286.636 227.895L284.911 229.679C286.206 230.899 287.586 232.267 289.051 233.783L290.715 232.232L292.01 233.452L290.346 235.003C291.727 236.371 293.254 237.654 294.72 239.169L296.212 237.323L297.655 238.458L296.162 240.304C297.69 241.587 299.07 242.955 300.683 244.385L302.323 242.454L303.766 243.589L302.211 245.668C303.739 246.951 305.267 248.233 306.942 249.431L308.435 247.585L309.877 248.72L308.384 250.566C310.06 251.764 311.673 253.194 313.496 254.306L314.841 252.546L316.283 253.681L314.938 255.441C316.528 256.491 317.886 257.479 319.476 258.529L320.798 256.388L322.303 257.29L320.981 259.431C320.981 259.431 326.364 262.62 335.342 265.899C336.592 266.359 337.444 267.835 337.069 269.231L327.898 298.339C327.898 298.339 331.606 300.331 333.406 301.063C336.16 302.425 339.43 300.93 340.474 297.966L351.444 264.474C351.904 263.225 351.284 261.812 349.95 261.204C305.35 243.265 287.928 218.884 283.713 212.265Z" fill="black"/>
<path d="M158.375 268.886L176.087 258.66L170.354 248.39C170.099 247.948 169.633 247.823 169.19 248.078L166.534 249.612C166.881 251.577 166.155 254.751 163.01 255.78C161.216 256.422 159.205 256.008 157.678 254.725L50.0788 316.848C47.1268 318.552 46.1911 322.044 47.8102 324.848L48.2363 325.586C49.8554 328.391 53.3476 329.327 56.1519 327.707L158.375 268.886ZM56.0545 324.812C54.2833 325.834 52.188 325.273 51.1654 323.502C50.1428 321.731 50.8518 319.55 52.4754 318.613C54.099 317.675 56.4271 318.299 57.3645 319.923C58.3871 321.694 57.8256 323.789 56.0545 324.812Z" fill="black"/>
<path d="M206.326 256.157L212.845 276.993C213.203 276.589 213.413 276.271 213.856 276.016L237.914 262.126C240.423 260.677 241.234 257.65 239.933 255.056L231.713 241.5L206.326 256.157ZM236.572 255.029C238.106 257.685 237.226 259.571 234.717 261.019L218.186 270.564C215.382 272.183 214.428 271.553 212.177 264.587C210.33 257.978 209.563 256.65 214.433 253.838L228.603 245.657C229.784 244.975 231.289 245.878 231.885 246.911L236.572 255.029Z" fill="black"/>
<path d="M218.612 304.363L204.85 257.009L180.792 270.899C184.074 272.152 186.539 275.059 186.915 278.778L192.112 320.844C192.482 323.188 194.709 324.658 196.883 323.993L221.165 317.649C222.749 317.325 224.117 315.945 224.406 314.4C224.758 312.623 223.968 310.914 222.696 310.074C222.696 310.074 220.493 308.985 218.612 304.363ZM192.726 287.821C193.402 287.627 194.078 287.434 194.691 287.474C199.21 286.439 203.962 285.466 208.482 284.432C209.918 284.193 210.498 286.22 209.147 286.606C208.471 286.799 207.795 286.993 207.182 286.953C202.663 287.988 197.911 288.96 193.391 289.995C191.807 290.319 191.29 288.06 192.726 287.821ZM212.934 306.46C212.259 306.654 211.646 306.614 210.97 306.807C206.365 307.695 201.761 308.582 197.157 309.469C195.72 309.708 195.14 307.681 196.639 307.209C197.315 307.016 197.928 307.056 198.604 306.862C203.208 305.975 207.813 305.088 212.417 304.201C213.706 304.047 214.371 306.221 212.934 306.46ZM211.7 299.891C211.025 300.085 210.411 300.045 209.736 300.238C205.131 301.126 200.527 302.013 195.922 302.9C194.423 303.372 193.906 301.112 195.343 300.873C196.018 300.68 196.631 300.72 197.307 300.526C201.911 299.639 206.516 298.752 211.12 297.865C212.472 297.478 213.137 299.653 211.7 299.891ZM210.318 293.408C209.643 293.601 209.03 293.561 208.354 293.755C203.749 294.642 199.145 295.529 194.54 296.416C193.104 296.655 192.439 294.481 193.875 294.242C194.551 294.049 195.164 294.088 195.84 293.895C200.444 293.008 205.049 292.121 209.653 291.233C211.152 290.762 211.67 293.021 210.318 293.408Z" fill="black"/>
<path d="M292.021 198.021L195.345 253.837C194.902 254.093 194.436 253.968 194.18 253.525L193.328 252.049C193.073 251.607 192.607 251.482 192.164 251.737L178.858 259.026L160.26 269.764C161.106 269.866 162.004 272.102 162.742 271.676L166.727 269.376C169.089 268.012 171.899 267.767 174.545 268.601L178.674 269.957L282.924 210.555L295.44 201.557L293.48 198.162C293.31 197.867 292.612 197.68 292.021 198.021Z" fill="black"/>
</svg>
