<svg width="512" height="160" viewBox="0 0 512 160" fill="none" xmlns="http://www.w3.org/2000/svg">
<path d="M46.0904 44.4818C44.2156 44.4818 42.6817 43.2888 42 41.4141L50.8624 84.3628C50.8624 84.5332 51.0329 84.7037 51.3737 84.7037H59.5544C59.8953 84.7037 60.0657 84.5332 60.0657 84.1924L57.1684 44.4818H46.0904Z" fill="black"/>
<path d="M344.175 12.2715H336.846V43.4604C336.846 43.4604 336.846 43.4604 337.017 43.4604H344.175V12.2715Z" fill="black"/>
<path d="M225.555 9.54401V4.26064C225.555 4.0902 225.384 4.0902 225.214 4.26064C217.715 11.4188 208 5.11279 207.318 4.26064H207.148H195.899C195.729 4.26064 195.729 4.0902 195.729 4.26064V9.54401H225.555Z" fill="black"/>
<path d="M225.725 11.4195C225.725 11.2491 225.555 11.4195 225.555 11.4195H193.514H168.801C167.097 11.4195 165.904 12.7829 165.733 14.3168L165.563 28.1218H171.698C171.698 26.7583 172.21 25.5653 173.062 24.5427V19.2593C173.062 18.2368 173.914 17.555 174.936 17.555H335.142V12.2717L225.725 11.4195Z" fill="black"/>
<path d="M178.516 24.5415C178.175 24.3711 177.664 24.3711 177.323 24.3711C175.278 24.3711 173.744 25.905 173.744 27.9501C173.744 29.1432 174.425 30.3362 175.278 31.0179L178.516 24.5415Z" fill="black"/>
<path d="M179.368 25.0547L176.129 31.3607C176.47 31.5311 176.982 31.5311 177.322 31.5311C179.368 31.5311 180.901 29.9972 180.901 27.952C180.901 26.759 180.22 25.566 179.368 25.0547Z" fill="black"/>
<path d="M176.13 19.2578C175.618 19.2578 175.107 19.7691 175.107 20.2804V23.1777C175.618 22.8369 176.471 22.6664 176.982 22.6664C177.834 22.6664 179.198 22.8369 179.879 23.1777C182.095 24.3708 182.777 26.5864 182.606 27.9498H187.208C187.719 27.9498 188.23 28.4611 188.23 28.9724L188.06 41.5843C188.06 42.0956 188.401 42.4365 188.912 42.4365L205.274 42.6069C205.785 42.6069 206.126 42.9478 206.126 43.4591V45.1634C206.126 45.6747 206.467 46.0155 206.978 46.0155H318.951C319.463 46.0155 319.803 46.3564 319.803 46.8677V52.6624C325.769 52.8328 335.142 50.2763 335.142 45.1634V19.2578H176.13ZM325.769 47.8903C324.064 47.8903 322.53 46.5268 322.53 44.6521C322.53 42.9478 323.894 41.4139 325.769 41.4139C327.473 41.4139 329.007 42.7773 329.007 44.6521C329.007 46.5268 327.643 47.8903 325.769 47.8903Z" fill="black"/>
<path d="M326.961 42.9483C326.621 42.7779 326.28 42.6074 325.768 42.6074C324.575 42.6074 323.553 43.63 323.553 44.823C323.553 45.3343 323.723 45.8456 324.064 46.1865L326.961 42.9483Z" fill="black"/>
<path d="M327.643 43.4609L324.746 46.6991C325.086 46.8696 325.427 47.04 325.768 47.04C326.961 47.04 327.984 46.0174 327.984 44.8244C328.154 44.3131 327.984 43.8018 327.643 43.4609Z" fill="black"/>
<path d="M227.259 58.7988H219.931C219.76 63.23 220.442 71.5812 229.645 72.0925C229.986 72.0925 230.157 71.7516 229.816 71.5812C228.623 70.3882 224.873 69.0247 226.237 63.4005L227.259 58.7988Z" fill="black"/>
<path d="M259.811 56.0723H289.296C289.466 56.5836 300.203 109.247 317.587 127.994C318.61 129.187 318.61 130.892 317.417 131.914L296.284 150.662C286.569 137.368 263.049 92.2037 258.277 57.7766C258.277 56.9244 258.959 56.0723 259.811 56.0723Z" fill="black"/>
<path d="M431.436 38.8584V21.4744L426.834 15.1684C426.493 14.998 426.152 15.1684 426.152 15.5093V41.2444C426.152 41.5853 426.493 41.7557 426.834 41.5853L431.436 38.8584Z" fill="black"/>
<path d="M459.727 24.3714L457.512 22.1558C457.171 21.815 456.659 21.6445 456.319 21.6445H432.969V38.8581H456.148C456.659 38.8581 457 38.6877 457.341 38.3468L459.727 35.9608C460.068 35.6199 460.239 35.1086 460.239 34.7678V25.7349C460.239 25.2236 460.068 24.7123 459.727 24.3714Z" fill="black"/>
<path d="M461.943 26.2456V34.4263L469.442 35.6193C470.124 35.7898 470.805 35.2785 470.805 34.5967V26.0752C470.805 25.3934 470.124 24.8821 469.442 25.0526L461.943 26.2456Z" fill="black"/>
<path d="M414.734 3.2382V0H409.621V12.2711H412.177V9.88502H419.676V12.2711H422.233V3.2382H414.734Z" fill="black"/>
<path d="M422.744 13.8054L346.05 12.2715V47.8917C346.05 48.403 346.39 48.7438 346.731 48.7438C349.288 49.2551 357.809 49.9368 368.547 42.4379H373.489V34.2572H375.193V42.4379H381.67V34.2572H383.374V42.4379H389.85V34.2572H391.555V42.4379H398.031V34.2572H399.735V42.4379H406.212V34.2572H407.916V42.4379H414.393V34.2572H416.097V42.4379H422.062C423.085 42.4379 423.937 41.5857 423.937 40.5631L424.107 15.5097C424.448 14.4871 423.766 13.8054 422.744 13.8054Z" fill="black"/>
<path d="M302.59 56.0723H291.171C291.171 56.4131 291.852 58.9696 292.705 62.7191L294.92 62.0374L295.431 63.7417L293.045 64.4234C293.386 66.1277 293.898 68.0025 294.409 70.0476L296.795 69.3659L297.306 71.0702L294.92 71.752C295.431 73.4563 295.943 75.331 296.454 77.3762L298.67 76.8649L299.181 78.5692L296.965 79.0805C297.477 80.9553 298.158 82.83 298.67 84.8752L300.885 84.023L301.567 85.7273L299.351 86.5795C300.033 88.4542 300.544 90.329 301.226 92.3742L303.612 91.522L304.294 93.2263L301.908 94.2489C302.59 96.1237 303.271 97.9984 304.123 99.8731L306.339 99.021L307.021 100.725L304.805 101.577C305.657 103.452 306.339 105.497 307.362 107.372L309.407 106.52L310.089 108.224L308.043 109.076C308.896 110.781 309.577 112.315 310.429 114.019L312.645 112.826L313.497 114.36L311.282 115.553C311.282 115.553 314.349 121.007 320.485 128.335C321.337 129.358 321.337 131.062 320.314 132.085L297.817 152.707C297.817 152.707 300.033 156.286 301.226 157.82C302.93 160.376 306.509 160.717 308.896 158.672L335.142 135.152C336.165 134.3 336.335 132.766 335.483 131.573C305.828 93.7376 302.93 63.9121 302.59 56.0723Z" fill="black"/>
<path d="M165.733 42.4381H186.185L186.355 30.6783C186.355 30.167 186.015 29.8262 185.503 29.8262H182.436C181.754 31.7009 179.538 34.087 176.3 33.4052C174.425 33.0644 172.891 31.7009 172.21 29.8262H47.9651C44.5565 29.8262 42 32.3826 42 35.6208V36.473C42 39.7112 44.5565 42.2677 47.7947 42.2677L165.733 42.4381ZM49.1581 39.7112C47.1129 39.7112 45.5791 38.1773 45.5791 36.1321C45.5791 34.087 47.2834 32.5531 49.1581 32.5531C51.0329 32.5531 52.7372 34.2574 52.7372 36.1321C52.7372 38.1773 51.2033 39.7112 49.1581 39.7112Z" fill="black"/>
<path d="M213.624 55.3906L208.852 76.6945C209.364 76.5241 209.704 76.3537 210.216 76.3537H237.996C240.893 76.3537 243.109 74.1381 243.279 71.2407L242.939 55.3906H213.624ZM240.382 69.5364C240.382 72.6042 238.678 73.7972 235.78 73.7972H216.692C213.454 73.7972 212.943 72.7746 214.477 65.6165C216.181 58.9697 216.181 57.4358 221.805 57.4358H238.166C239.53 57.4358 240.382 58.9697 240.382 60.1627V69.5364Z" fill="black"/>
<path d="M200.16 103.282L211.92 55.3906H184.14C186.355 58.1175 187.037 61.867 185.503 65.2756L168.971 104.304C168.119 106.52 169.312 108.906 171.528 109.417L195.729 116.064C197.263 116.576 199.138 116.064 200.16 114.871C201.353 113.508 201.524 111.633 200.842 110.27C200.842 110.27 199.479 108.224 200.16 103.282ZM186.015 76.0128C186.696 76.1833 187.378 76.3537 187.889 76.6946C192.321 78.058 196.922 79.5919 201.353 80.9553C202.717 81.4666 202.206 83.5118 200.842 83.1709C200.16 83.0005 199.479 82.8301 198.967 82.4892C194.536 81.1258 189.934 79.5919 185.503 78.2284C183.969 77.7171 184.651 75.5015 186.015 76.0128ZM194.195 102.259C193.514 102.089 193.002 101.748 192.321 101.578C187.889 100.044 183.458 98.5098 179.027 96.9759C177.663 96.4646 178.175 94.4194 179.709 94.7603C180.39 94.9307 180.902 95.2716 181.583 95.442C186.015 96.9759 190.446 98.5098 194.877 100.044C196.07 100.555 195.559 102.771 194.195 102.259ZM196.411 95.9533C195.729 95.7829 195.218 95.442 194.536 95.2716C190.105 93.7377 185.674 92.2038 181.242 90.6699C179.709 90.3291 180.39 88.1135 181.754 88.6248C182.436 88.7952 182.947 89.136 183.629 89.3065C188.06 90.8404 192.491 92.3742 196.922 93.9081C198.286 94.249 197.774 96.4646 196.411 95.9533ZM198.456 89.6473C197.774 89.4769 197.263 89.136 196.581 88.9656C192.15 87.4317 187.719 85.8978 183.288 84.364C181.924 83.8527 182.436 81.6371 183.799 82.1484C184.481 82.3188 184.992 82.6596 185.674 82.8301C190.105 84.364 194.536 85.8978 198.967 87.4317C200.501 87.7726 199.82 89.9882 198.456 89.6473Z" fill="black"/>
<path d="M316.906 47.8901H205.273C204.762 47.8901 204.421 47.5493 204.421 47.038V45.3336C204.421 44.8224 204.08 44.4815 203.569 44.4815L188.401 44.1406H166.926C167.608 44.6519 167.267 47.038 168.119 47.038H172.721C175.448 47.038 178.004 48.231 179.879 50.2762L182.776 53.5144L302.76 54.1961L318.099 52.6622V48.7423C318.099 48.4014 317.588 47.8901 316.906 47.8901Z" fill="black"/>
</svg>
