<svg width="512" height="512" viewBox="0 0 512 512" fill="none" xmlns="http://www.w3.org/2000/svg">
<path d="M46.0904 220.482C44.2156 220.482 42.6817 219.289 42 217.414L50.8624 260.363C50.8624 260.533 51.0329 260.704 51.3737 260.704H59.5544C59.8953 260.704 60.0657 260.533 60.0657 260.192L57.1684 220.482H46.0904Z" fill="black"/>
<path d="M344.175 188.271H336.846V219.46C336.846 219.46 336.846 219.46 337.017 219.46H344.175V188.271Z" fill="black"/>
<path d="M225.555 185.544V180.261C225.555 180.09 225.384 180.09 225.214 180.261C217.715 187.419 208 181.113 207.318 180.261H207.148H195.899C195.729 180.261 195.729 180.09 195.729 180.261V185.544H225.555Z" fill="black"/>
<path d="M225.725 187.419C225.725 187.249 225.555 187.419 225.555 187.419H193.514H168.801C167.097 187.419 165.904 188.783 165.733 190.317L165.563 204.122H171.698C171.698 202.758 172.21 201.565 173.062 200.543V195.259C173.062 194.237 173.914 193.555 174.936 193.555H335.142V188.272L225.725 187.419Z" fill="black"/>
<path d="M178.516 200.542C178.175 200.371 177.664 200.371 177.323 200.371C175.278 200.371 173.744 201.905 173.744 203.95C173.744 205.143 174.425 206.336 175.278 207.018L178.516 200.542Z" fill="black"/>
<path d="M179.368 201.055L176.129 207.361C176.47 207.531 176.982 207.531 177.322 207.531C179.368 207.531 180.901 205.997 180.901 203.952C180.901 202.759 180.22 201.566 179.368 201.055Z" fill="black"/>
<path d="M176.13 195.258C175.618 195.258 175.107 195.769 175.107 196.28V199.178C175.618 198.837 176.471 198.666 176.982 198.666C177.834 198.666 179.198 198.837 179.879 199.178C182.095 200.371 182.777 202.586 182.606 203.95H187.208C187.719 203.95 188.23 204.461 188.23 204.972L188.06 217.584C188.06 218.096 188.401 218.436 188.912 218.436L205.274 218.607C205.785 218.607 206.126 218.948 206.126 219.459V221.163C206.126 221.675 206.467 222.016 206.978 222.016H318.951C319.463 222.016 319.803 222.356 319.803 222.868V228.662C325.769 228.833 335.142 226.276 335.142 221.163V195.258H176.13ZM325.769 223.89C324.064 223.89 322.53 222.527 322.53 220.652C322.53 218.948 323.894 217.414 325.769 217.414C327.473 217.414 329.007 218.777 329.007 220.652C329.007 222.527 327.643 223.89 325.769 223.89Z" fill="black"/>
<path d="M326.961 218.948C326.621 218.778 326.28 218.607 325.768 218.607C324.575 218.607 323.553 219.63 323.553 220.823C323.553 221.334 323.723 221.846 324.064 222.186L326.961 218.948Z" fill="black"/>
<path d="M327.643 219.461L324.746 222.699C325.086 222.87 325.427 223.04 325.768 223.04C326.961 223.04 327.984 222.017 327.984 220.824C328.154 220.313 327.984 219.802 327.643 219.461Z" fill="black"/>
<path d="M227.259 234.799H219.931C219.76 239.23 220.442 247.581 229.645 248.092C229.986 248.092 230.157 247.752 229.816 247.581C228.623 246.388 224.873 245.025 226.237 239.4L227.259 234.799Z" fill="black"/>
<path d="M259.811 232.072H289.296C289.466 232.584 300.203 285.247 317.587 303.994C318.61 305.187 318.61 306.892 317.417 307.914L296.284 326.662C286.569 313.368 263.049 268.204 258.277 233.777C258.277 232.924 258.959 232.072 259.811 232.072Z" fill="black"/>
<path d="M431.436 214.858V197.474L426.834 191.168C426.493 190.998 426.152 191.168 426.152 191.509V217.244C426.152 217.585 426.493 217.756 426.834 217.585L431.436 214.858Z" fill="black"/>
<path d="M459.727 200.371L457.512 198.156C457.171 197.815 456.659 197.645 456.319 197.645H432.969V214.858H456.148C456.659 214.858 457 214.688 457.341 214.347L459.727 211.961C460.068 211.62 460.239 211.109 460.239 210.768V201.735C460.239 201.224 460.068 200.712 459.727 200.371Z" fill="black"/>
<path d="M461.943 202.246V210.426L469.442 211.619C470.124 211.79 470.805 211.278 470.805 210.597V202.075C470.805 201.393 470.124 200.882 469.442 201.053L461.943 202.246Z" fill="black"/>
<path d="M414.734 179.238V176H409.621V188.271H412.177V185.885H419.676V188.271H422.233V179.238H414.734Z" fill="black"/>
<path d="M422.744 189.805L346.05 188.271V223.892C346.05 224.403 346.39 224.744 346.731 224.744C349.288 225.255 357.809 225.937 368.547 218.438H373.489V210.257H375.193V218.438H381.67V210.257H383.374V218.438H389.85V210.257H391.555V218.438H398.031V210.257H399.735V218.438H406.212V210.257H407.916V218.438H414.393V210.257H416.097V218.438H422.062C423.085 218.438 423.937 217.586 423.937 216.563L424.107 191.51C424.448 190.487 423.766 189.805 422.744 189.805Z" fill="black"/>
<path d="M302.59 232.072H291.171C291.171 232.413 291.852 234.97 292.705 238.719L294.92 238.037L295.431 239.742L293.045 240.423C293.386 242.128 293.898 244.002 294.409 246.048L296.795 245.366L297.306 247.07L294.92 247.752C295.431 249.456 295.943 251.331 296.454 253.376L298.67 252.865L299.181 254.569L296.965 255.081C297.477 256.955 298.158 258.83 298.67 260.875L300.885 260.023L301.567 261.727L299.351 262.579C300.033 264.454 300.544 266.329 301.226 268.374L303.612 267.522L304.294 269.226L301.908 270.249C302.59 272.124 303.271 273.998 304.123 275.873L306.339 275.021L307.021 276.725L304.805 277.577C305.657 279.452 306.339 281.497 307.362 283.372L309.407 282.52L310.089 284.224L308.043 285.076C308.896 286.781 309.577 288.315 310.429 290.019L312.645 288.826L313.497 290.36L311.282 291.553C311.282 291.553 314.349 297.007 320.485 304.335C321.337 305.358 321.337 307.062 320.314 308.085L297.817 328.707C297.817 328.707 300.033 332.286 301.226 333.82C302.93 336.376 306.509 336.717 308.896 334.672L335.142 311.152C336.165 310.3 336.335 308.766 335.483 307.573C305.828 269.738 302.93 239.912 302.59 232.072Z" fill="black"/>
<path d="M165.733 218.438H186.185L186.355 206.678C186.355 206.167 186.015 205.826 185.503 205.826H182.436C181.754 207.701 179.538 210.087 176.3 209.405C174.425 209.064 172.891 207.701 172.21 205.826H47.9651C44.5565 205.826 42 208.383 42 211.621V212.473C42 215.711 44.5565 218.268 47.7947 218.268L165.733 218.438ZM49.1581 215.711C47.1129 215.711 45.5791 214.177 45.5791 212.132C45.5791 210.087 47.2834 208.553 49.1581 208.553C51.0329 208.553 52.7372 210.257 52.7372 212.132C52.7372 214.177 51.2033 215.711 49.1581 215.711Z" fill="black"/>
<path d="M213.624 231.391L208.852 252.695C209.364 252.524 209.704 252.354 210.216 252.354H237.996C240.893 252.354 243.109 250.138 243.279 247.241L242.939 231.391H213.624ZM240.382 245.536C240.382 248.604 238.678 249.797 235.78 249.797H216.692C213.454 249.797 212.943 248.775 214.477 241.617C216.181 234.97 216.181 233.436 221.805 233.436H238.166C239.53 233.436 240.382 234.97 240.382 236.163V245.536Z" fill="black"/>
<path d="M200.16 279.282L211.92 231.391H184.14C186.355 234.118 187.037 237.867 185.503 241.276L168.971 280.304C168.119 282.52 169.312 284.906 171.528 285.417L195.729 292.064C197.263 292.576 199.138 292.064 200.16 290.871C201.353 289.508 201.524 287.633 200.842 286.27C200.842 286.27 199.479 284.224 200.16 279.282ZM186.015 252.013C186.696 252.183 187.378 252.354 187.889 252.695C192.321 254.058 196.922 255.592 201.353 256.955C202.717 257.467 202.206 259.512 200.842 259.171C200.16 259.001 199.479 258.83 198.967 258.489C194.536 257.126 189.934 255.592 185.503 254.228C183.969 253.717 184.651 251.502 186.015 252.013ZM194.195 278.259C193.514 278.089 193.002 277.748 192.321 277.578C187.889 276.044 183.458 274.51 179.027 272.976C177.663 272.465 178.175 270.419 179.709 270.76C180.39 270.931 180.902 271.272 181.583 271.442C186.015 272.976 190.446 274.51 194.877 276.044C196.07 276.555 195.559 278.771 194.195 278.259ZM196.411 271.953C195.729 271.783 195.218 271.442 194.536 271.272C190.105 269.738 185.674 268.204 181.242 266.67C179.709 266.329 180.39 264.113 181.754 264.625C182.436 264.795 182.947 265.136 183.629 265.306C188.06 266.84 192.491 268.374 196.922 269.908C198.286 270.249 197.774 272.465 196.411 271.953ZM198.456 265.647C197.774 265.477 197.263 265.136 196.581 264.966C192.15 263.432 187.719 261.898 183.288 260.364C181.924 259.853 182.436 257.637 183.799 258.148C184.481 258.319 184.992 258.66 185.674 258.83C190.105 260.364 194.536 261.898 198.967 263.432C200.501 263.773 199.82 265.988 198.456 265.647Z" fill="black"/>
<path d="M316.906 223.89H205.273C204.762 223.89 204.421 223.549 204.421 223.038V221.334C204.421 220.822 204.08 220.481 203.569 220.481L188.401 220.141H166.926C167.608 220.652 167.267 223.038 168.119 223.038H172.721C175.448 223.038 178.004 224.231 179.879 226.276L182.776 229.514L302.76 230.196L318.099 228.662V224.742C318.099 224.401 317.588 223.89 316.906 223.89Z" fill="black"/>
</svg>
