<svg width="512" height="512" viewBox="0 0 512 512" fill="none" xmlns="http://www.w3.org/2000/svg">
<path d="M281.661 364.639C282.341 365.019 283.201 364.799 283.581 364.119L285.161 361.399C284.861 361.299 284.561 361.159 284.281 360.999C281.921 359.639 280.981 356.759 281.981 354.299L260.901 342.139L256.301 350.119L281.661 364.639Z" fill="black"/>
<path d="M361.16 227.739C376.68 200.859 379.14 172.799 366.62 165.559C363.28 163.639 359.18 163.379 354.68 164.539C352.08 176.659 346.9 190.139 339.24 203.399L334.34 212.339L361.16 227.739Z" fill="black"/>
<path d="M316.461 245.358L343.041 260.698L348.861 247.958L358.241 231.678L331.261 216.238L323.961 228.898L316.461 245.358Z" fill="black"/>
<path d="M290.48 352.179C290.24 351.979 289.98 351.779 289.7 351.619C287.34 350.259 284.38 350.879 282.74 352.979L261.66 340.819L315.86 247.039L342.34 262.119L290.48 352.179Z" fill="black"/>
<path d="M233.639 358.139L184.959 330.039C182.839 332.719 179.039 333.539 175.979 331.779C175.679 331.599 175.419 331.399 175.159 331.199L173.019 334.899C172.519 335.779 172.819 336.879 173.699 337.399L233.219 371.479C234.099 371.979 235.199 371.679 235.699 370.819L237.719 367.299C237.339 367.159 236.959 366.999 236.579 366.799C233.579 365.019 232.379 361.319 233.639 358.139Z" fill="black"/>
<path d="M350.678 156.56C354.858 136.98 352.278 120.96 342.298 115.2C326.138 105.88 296.378 126.74 276.358 161.42C276.278 161.58 276.178 161.72 276.098 161.88L305.818 178.42L316.958 184.86L335.258 195.42C342.918 182.14 348.098 168.66 350.678 156.56Z" fill="black"/>
<path d="M332.079 199.92L313.359 189.2L272.859 166.02L260.859 186.78L250.379 201.52L312.459 237.36L319.959 220.9L327.259 208.24L328.359 206.34L332.079 199.92Z" fill="black"/>
<path d="M311.558 239.16L289.818 226.6L249.258 203.18C248.598 204.16 247.938 205.16 247.358 206.18L182.078 319.24C182.378 319.36 182.698 319.48 182.998 319.66C186.058 321.42 187.238 325.12 185.978 328.3L234.658 356.4C236.778 353.72 240.578 352.9 243.638 354.66C243.998 354.88 244.338 355.12 244.638 355.38L252.298 342.12L256.898 334.14L257.678 332.8L309.938 242.3C310.518 241.28 311.038 240.22 311.558 239.16Z" fill="black"/>
</svg>
