<svg width="512" height="512" viewBox="0 0 512 512" fill="none" xmlns="http://www.w3.org/2000/svg">
<path d="M131 184.1V127.9C127.62 127.42 125 124.52 125 121C125 120.66 125.06 120.32 125.1 120H120.82C119.82 120 119 120.82 119 121.82L119.24 190.42C119.24 191.42 120.06 192.24 121.06 192.24H125.12C125.04 191.84 125 191.42 125 191C125 187.48 127.62 184.58 131 184.1Z" fill="black"/>
<path d="M322 156L321.46 122C321.64 122 321.82 122 322 122C362.04 122 395 137.34 395 156C395 174.66 362.04 190 322 190V156Z" fill="black"/>
<path d="M274.999 120.279V191.959L292.999 190.239H317.219L316.979 121.999H292.999L274.999 120.279Z" fill="black"/>
<path d="M273 120.14C271.82 120.06 270.64 120 269.44 120L138.88 120C138.92 120.32 138.98 120.66 138.98 121C138.98 124.52 136.36 127.42 132.98 127.9V184.1C136.36 184.58 138.98 187.48 138.98 191C138.98 191.42 138.92 191.84 138.86 192.24H269.44C270.62 192.24 271.8 192.16 273 192.1V120.14Z" fill="black"/>
<path d="M131 284.34V228.14C127.62 227.66 125 224.76 125 221.24C125 220.9 125.06 220.56 125.1 220.24H120.82C119.82 220.24 119 221.06 119 222.06L119.24 290.66C119.24 291.66 120.06 292.48 121.06 292.48H125.12C125.04 292.08 125 291.66 125 291.24C125 287.72 127.62 284.82 131 284.34Z" fill="black"/>
<path d="M322 256.24L321.46 222.24C321.64 222.24 321.82 222.24 322 222.24C362.04 222.24 395 237.58 395 256.24C395 274.9 362.04 290.24 322 290.24V256.24Z" fill="black"/>
<path d="M274.999 220.52V292.2L292.999 290.48H317.219L316.979 222.24H292.999L274.999 220.52Z" fill="black"/>
<path d="M273 220.38C271.82 220.3 270.64 220.24 269.44 220.24H138.88C138.92 220.56 138.98 220.9 138.98 221.24C138.98 224.76 136.36 227.66 132.98 228.14V284.34C136.36 284.82 138.98 287.72 138.98 291.24C138.98 291.66 138.92 292.08 138.86 292.48H269.44C270.62 292.48 271.8 292.4 273 292.34V220.38Z" fill="black"/>
<path d="M131 384.58V328.38C127.62 327.9 125 325 125 321.48C125 321.14 125.06 320.8 125.1 320.48H120.82C119.82 320.48 119 321.3 119 322.3L119.24 390.9C119.24 391.9 120.06 392.72 121.06 392.72H125.12C125.04 392.32 125 391.9 125 391.48C125 387.96 127.62 385.06 131 384.58Z" fill="black"/>
<path d="M322 356.48L321.46 322.48C321.64 322.48 321.82 322.48 322 322.48C362.04 322.48 395 337.82 395 356.48C395 375.14 362.04 390.48 322 390.48V356.48Z" fill="black"/>
<path d="M274.999 320.76V392.44L292.999 390.72H317.219L316.979 322.48H292.999L274.999 320.76Z" fill="black"/>
<path d="M273 320.62C271.82 320.54 270.64 320.48 269.44 320.48H138.88C138.92 320.8 138.98 321.14 138.98 321.48C138.98 325 136.36 327.9 132.98 328.38V384.58C136.36 385.06 138.98 387.96 138.98 391.48C138.98 391.9 138.92 392.32 138.86 392.72H269.44C270.62 392.72 271.8 392.64 273 392.58V320.62Z" fill="black"/>
</svg>
