<svg width="512" height="512" viewBox="0 0 512 512" fill="none" xmlns="http://www.w3.org/2000/svg">
<path d="M169.465 348.979H124.343C123.957 351.412 121.629 353.297 118.803 353.297C118.53 353.297 118.257 353.254 118 353.225V356.306C118 357.026 118.658 357.616 119.461 357.616L174.539 357.444C175.342 357.444 176 356.853 176 356.134V353.211C175.679 353.269 175.342 353.297 175.004 353.297C172.178 353.297 169.85 351.412 169.465 348.979Z" fill="black"/>
<path d="M146.903 210.932L119.605 211.321C119.605 211.191 119.605 211.061 119.605 210.932C119.605 182.11 131.922 158.385 146.903 158.385C161.885 158.385 174.201 182.11 174.201 210.932H146.903Z" fill="black"/>
<path d="M118.227 245.325H175.777L174.396 232.368V214.934L119.608 215.106V232.368L118.227 245.325Z" fill="black"/>
<path d="M118.112 246.764C118.048 247.613 118 248.462 118 249.326V343.306C118.257 343.278 118.53 343.234 118.803 343.234C121.629 343.234 123.957 345.12 124.343 347.553H169.465C169.85 345.12 172.178 343.234 175.004 343.234C175.342 343.234 175.679 343.278 176 343.321V249.326C176 248.477 175.936 247.627 175.888 246.764H118.112Z" fill="black"/>
<path d="M268.1 384H211.9C211.42 387.38 208.52 390 205 390C204.66 390 204.32 389.94 204 389.9V394.18C204 395.18 204.82 396 205.82 396L274.42 395.76C275.42 395.76 276.24 394.94 276.24 393.94V389.88C275.84 389.96 275.42 390 275 390C271.48 390 268.58 387.38 268.1 384Z" fill="black"/>
<path d="M240 193L206 193.54C206 193.36 206 193.18 206 193C206 152.96 221.34 120 240 120C258.66 120 274 152.96 274 193H240Z" fill="black"/>
<path d="M204.281 239.999H275.961L274.241 221.999V197.779L206.001 198.019V221.999L204.281 239.999Z" fill="black"/>
<path d="M204.14 242C204.06 243.18 204 244.36 204 245.56V376.12C204.32 376.08 204.66 376.02 205 376.02C208.52 376.02 211.42 378.64 211.9 382.02H268.1C268.58 378.64 271.48 376.02 275 376.02C275.42 376.02 275.84 376.08 276.24 376.14V245.56C276.24 244.38 276.16 243.2 276.1 242H204.14Z" fill="black"/>
<path d="M355.707 348.979H310.585C310.2 351.412 307.871 353.297 305.045 353.297C304.772 353.297 304.499 353.254 304.242 353.225V356.306C304.242 357.026 304.901 357.616 305.703 357.616L360.781 357.444C361.584 357.444 362.242 356.853 362.242 356.134V353.211C361.921 353.269 361.584 353.297 361.247 353.297C358.42 353.297 356.092 351.412 355.707 348.979Z" fill="black"/>
<path d="M333.146 210.932L305.848 211.321C305.848 211.191 305.848 211.061 305.848 210.932C305.848 182.11 318.164 158.385 333.146 158.385C348.127 158.385 360.443 182.11 360.443 210.932H333.146Z" fill="black"/>
<path d="M304.469 245.325H362.019L360.638 232.368V214.934L305.85 215.106V232.368L304.469 245.325Z" fill="black"/>
<path d="M304.355 246.764C304.29 247.613 304.242 248.462 304.242 249.326V343.306C304.499 343.278 304.772 343.234 305.045 343.234C307.871 343.234 310.2 345.12 310.585 347.553H355.707C356.092 345.12 358.42 343.234 361.247 343.234C361.584 343.234 361.921 343.278 362.242 343.321V249.326C362.242 248.477 362.178 247.627 362.13 246.764H304.355Z" fill="black"/>
</svg>
