<svg width="512" height="512" viewBox="0 0 512 512" fill="none" xmlns="http://www.w3.org/2000/svg">
<path d="M202.279 358.619L162.539 318.879C159.799 320.919 155.919 320.739 153.419 318.239C153.179 317.999 152.979 317.719 152.779 317.459L149.759 320.479C149.039 321.199 149.039 322.339 149.759 323.059L198.439 371.399C199.159 372.099 200.299 372.099 201.019 371.399L203.879 368.539C203.539 368.299 203.219 368.059 202.919 367.759C200.439 365.239 200.239 361.359 202.279 358.619Z" fill="black"/>
<path d="M354.101 215.139C382.421 186.819 394.861 152.659 381.681 139.479C368.501 126.299 334.341 138.739 306.021 167.059C305.901 167.179 305.761 167.319 305.641 167.439L330.061 191.099L354.101 215.139Z" fill="black"/>
<path d="M273.277 197.759L284.917 188.159L301.877 171.199L350.317 219.259L333.177 236.399L323.897 247.639L273.277 197.759Z" fill="black"/>
<path d="M261.259 311.139L213.599 358.799C213.359 358.459 213.119 358.139 212.819 357.839C210.319 355.339 206.439 355.159 203.699 357.199L163.959 317.459C165.999 314.719 165.819 310.839 163.319 308.339C163.079 308.099 162.799 307.899 162.539 307.699L210.599 259.639L261.259 311.139Z" fill="black"/>
<path d="M378.42 314.139L375.56 311.279C375.32 311.619 375.08 311.939 374.78 312.239C372.28 314.739 368.4 314.919 365.66 312.879L325.92 352.619C327.96 355.359 327.78 359.239 325.28 361.739C325.04 361.979 324.76 362.179 324.5 362.379L327.52 365.399C328.24 366.119 329.38 366.119 330.1 365.399L378.44 316.719C379.12 315.999 379.12 314.839 378.42 314.139Z" fill="black"/>
<path d="M186.459 221.519L210.119 197.099L234.159 173.059C205.839 144.739 171.679 132.299 158.499 145.479C145.319 158.659 157.759 192.819 186.079 221.139C186.219 221.259 186.339 221.399 186.459 221.519Z" fill="black"/>
<path d="M265.679 209.18L267.099 207.78L269.379 205.5L267.279 203.76L255.419 193.98L238.299 176.84L190.219 225.28L207.179 242.24L216.599 253.66L218.679 256.18L265.679 209.18Z" fill="black"/>
<path d="M364.22 311.46C362.18 308.72 362.36 304.84 364.86 302.34C365.16 302.04 365.48 301.78 365.82 301.56L317.9 253.64L273.48 209.22C272.64 208.38 271.76 207.6 270.86 206.82L268.48 209.2L267.06 210.62L219.98 257.7C220.76 258.58 221.54 259.48 222.38 260.32L267.22 305.16L314.68 352.62C314.88 352.36 315.08 352.08 315.32 351.84C317.82 349.34 321.7 349.16 324.44 351.2L364.22 311.46Z" fill="black"/>
</svg>
