<svg width="512" height="512" viewBox="0 0 512 512" fill="none" xmlns="http://www.w3.org/2000/svg">
<path d="M284.1 382H227.9C227.42 385.38 224.52 388 221 388C220.66 388 220.32 387.94 220 387.9V392.18C220 393.18 220.82 394 221.82 394L290.42 393.76C291.42 393.76 292.24 392.94 292.24 391.94V387.88C291.84 387.96 291.42 388 291 388C287.48 388 284.58 385.38 284.1 382Z" fill="black"/>
<path d="M256 191L222 191.27C222 191.09 222 191.18 222 191C222 150.96 237.34 118 256 118C274.66 118 290 151.23 290 191.27L256 191Z" fill="black"/>
<path d="M220.281 237.999H291.961L290.241 219.999V195.779L222.001 196.019V219.999L220.281 237.999Z" fill="black"/>
<path d="M220.14 240C220.06 241.18 220 242.36 220 243.56V374.12C220.32 374.08 220.66 374.02 221 374.02C224.52 374.02 227.42 376.64 227.9 380.02H284.1C284.58 376.64 287.48 374.02 291 374.02C291.42 374.02 291.84 374.08 292.24 374.14V243.56C292.24 242.38 292.16 241.2 292.1 240H220.14Z" fill="black"/>
</svg>
