<svg width="512" height="512" viewBox="0 0 512 512" fill="none" xmlns="http://www.w3.org/2000/svg">
<path d="M149.207 279.057L162.047 260.071C162.726 259.09 164.668 258.034 165.742 258.6L173.227 262.465C174.359 263.068 175.226 265.463 174.623 266.594L163.367 287.202C162.575 288.71 160.689 289.276 159.162 288.503L150.357 283.525C148.679 282.677 148.151 280.584 149.207 279.057Z" fill="black"/>
<path d="M292.216 314.108C291.047 312.656 289.577 309.338 288.502 307.924C288.144 308.414 287.71 308.848 287.163 309.149L253.565 328.022C253.339 328.154 253.094 328.154 252.849 328.23C255.036 331.435 256.789 333.886 257.826 335.281C258.392 336.054 259.486 336.224 260.277 335.696L291.858 316.672C292.725 316.088 292.876 314.9 292.216 314.089V314.108Z" fill="black"/>
<path d="M187.199 259.034C187.199 259.034 188.104 261.975 190.838 264.275H218.044L220.91 261.127L225.039 261.014C226.566 254.754 225.001 246.496 224.605 244.535L187.199 244.667V259.015V259.034ZM200.849 258.054C200.849 258.054 191.573 246.609 204.017 246.609L217.573 246.421C217.573 246.421 219.854 252.605 216.159 260.561H191.611C191.611 260.561 188.349 254.415 190.479 247.872C190.838 246.798 192.007 246.062 193.439 246.685C193.439 246.685 192.346 256.866 200.849 258.054Z" fill="black"/>
<path d="M268.479 208.768H223.097C222.129 208.768 221.344 209.553 221.344 210.521V218.421C221.344 219.389 222.129 220.174 223.097 220.174H268.479C269.447 220.174 270.232 219.389 270.232 218.421V210.521C270.232 209.553 269.447 208.768 268.479 208.768Z" fill="black"/>
<path d="M416.936 223.06C417.559 220.194 418.483 214.104 416.71 208.033H400.401C400.628 211.823 400.929 218.535 400.59 223.06H416.936Z" fill="black"/>
<path d="M374.515 206.883C374.515 206.883 377.211 217.837 375.062 223.06H386.544C386.544 223.06 389.429 211.936 385.752 206.883H374.515Z" fill="black"/>
<path d="M167.157 196.701H161.52C160.596 196.701 159.747 197.173 159.257 197.946L158.691 198.832H167.157V196.701Z" fill="black"/>
<path d="M157.352 201.037L157.032 201.603L161.368 201.565V202.885H166.044L167.477 205.053V208.767H196.852C196.852 208.767 199.284 209.408 201.339 206.448V201.037H157.352Z" fill="black"/>
<path d="M372.874 222.175C374.402 218.461 372.931 210.259 372.233 207.412L372.101 206.865H294.856V223.042H372.516L372.874 222.175Z" fill="black"/>
<path d="M203.696 201.038V207.185L203.281 207.769C201.226 210.711 198.737 211.144 197.436 211.144C197.116 211.144 196.852 211.125 196.645 211.088H165.139V205.733L164.781 205.186H159.031V203.867H151.545V227.283H208.787L211.219 224.795H281.922V201.02H203.696V201.038ZM212.671 222.212H201.339V211.05H212.671V222.212ZM272.589 215.877C272.589 219.534 269.572 222.494 265.877 222.494H225.736C222.041 222.494 219.024 219.534 219.024 215.877V213.067C219.024 209.428 222.041 206.45 225.736 206.45H265.877C269.572 206.45 272.589 209.41 272.589 213.067V215.877Z" fill="black"/>
<path d="M210.691 212.992H203.338V220.232H210.691V212.992Z" fill="black"/>
<path d="M226.868 227.113V242.347L226.906 242.574C227.396 244.893 228.772 252.661 227.49 259.146L270.063 250.7L270.195 250.643C274.437 248.362 270.044 245.967 270.044 245.967C268.253 238.086 272.778 235.353 272.778 235.353H281.903V227.132H226.849L226.868 227.113ZM239.406 254.565C236.729 254.848 232.958 255.225 230.281 255.112L230.243 254.923C239.067 253.038 256.846 249.418 265.708 247.721L265.745 247.909C257.28 251.529 248.456 253.434 239.406 254.565Z" fill="black"/>
<path d="M212.218 227.113L209.786 229.602H150.961V237.408C155.165 237.804 158.144 238.954 160.256 240.405C160.841 240.047 161.5 239.689 161.802 239.689C162.405 239.689 165.366 241.424 166.93 242.8H224.53V227.113H212.218ZM223.191 240.688H216.724V230.96H223.191V240.688Z" fill="black"/>
<path d="M221.324 239.2H218.591L217.761 232.639H222.154L221.324 239.2Z" fill="black"/>
<path d="M65.0426 230.959C65.0426 230.959 65.118 230.865 65.1368 230.827C65.4574 230.111 65.118 229.263 64.3827 228.942C63.949 228.753 63.4777 228.829 63.1006 229.036L65.0426 230.959Z" fill="black"/>
<path d="M62.5728 229.545C62.5728 229.545 62.4974 229.639 62.4785 229.677C62.158 230.412 62.4974 231.242 63.2327 231.562C63.6663 231.751 64.1377 231.675 64.5148 231.468L62.5728 229.545Z" fill="black"/>
<path d="M474.762 220.496C471.199 220.496 469.558 218.742 469.539 217.102C469.539 216.48 469.747 215.895 470.199 215.405C471.481 214.029 473.97 213.934 474.706 213.934H490.336V211.898C490.317 211.295 489.827 210.805 489.204 210.805H467.861C467.239 213.143 466.749 217.8 467.522 222.438L467.786 223.701H488.94C489.751 223.701 490.392 223.041 490.392 222.23V220.496H474.724H474.762Z" fill="black"/>
<path d="M490.43 215.274H474.837C474.253 215.255 471.425 215.33 470.765 216.198C470.595 216.424 470.52 216.669 470.52 217.008C470.52 217.8 471.802 219.158 474.762 219.158H489.6H490.43V215.274Z" fill="black"/>
<path d="M465.26 212.106H458.83V208.109L426.401 208.033C428.739 213.275 427.985 220.1 427.231 224.908L435.206 224.983H448.989V227.717C448.989 228.961 449.988 229.961 451.232 229.961H454.023C455.267 229.961 456.266 228.961 456.266 227.717V223.852H458.284V222.589H465.165C464.581 218.761 464.751 214.934 465.241 212.106H465.26ZM452.59 228.471C451.666 228.471 450.931 227.736 450.931 226.812C450.931 225.888 451.666 225.153 452.59 225.153C453.514 225.153 454.249 225.907 454.249 226.812C454.249 227.717 453.495 228.471 452.59 228.471Z" fill="black"/>
<path d="M48.7711 218.742C48.6014 219.044 48.4883 219.364 48.4883 219.741C48.4883 220.873 49.4121 221.797 50.5434 221.797C50.9205 221.797 51.2598 221.665 51.5615 221.495L48.7899 218.761L48.7711 218.742Z" fill="black"/>
<path d="M52.2968 220.722C52.4664 220.421 52.5796 220.1 52.5796 219.723C52.5796 218.592 51.6557 217.668 50.5245 217.668C50.1474 217.668 49.808 217.8 49.5063 217.97L52.2779 220.703L52.2968 220.722Z" fill="black"/>
<path d="M45.1702 241.178C45.1702 241.178 45.1702 241.215 45.1514 241.272C45.1514 241.422 45.1702 241.178 45.1702 241.178Z" fill="black"/>
<path d="M45.1702 241.178C45.1702 241.178 45.1702 241.215 45.1514 241.272C45.1514 241.422 45.1702 241.178 45.1702 241.178Z" fill="black"/>
<path d="M73.0742 208.015L73.0365 208.26C72.2823 214.369 72.2258 228.34 72.2258 232.488C72.2258 234.486 71.1322 236.372 69.3977 237.39C66.4941 239.087 61.3658 241.085 56.8597 242.857C54.3709 243.838 51.9953 244.762 50.3927 245.478C49.0163 246.1 47.8474 246.402 46.8292 246.402C45.5849 246.402 44.5102 245.931 43.8314 245.045C42.7945 243.744 42.9264 242.028 43.0961 241.104C43.0773 240.331 43.0584 237.654 43.1338 227.152C43.2281 214.859 43.8503 209.863 44.2085 207.996H42.4174L42.2288 208.637C41.437 211.39 41.2861 214.953 41.2484 217.385C40.9845 234.071 41.2484 264.559 41.2484 264.785C41.2484 265.011 41.1164 267.556 41.9837 270.29L42.21 270.988H96.9624C97.2264 270.988 97.4903 270.894 97.7166 270.743L141.854 237.729C144.739 237.333 147.152 237.277 149.377 237.333V227.284H149.434V207.996H73.0742V208.015ZM100.149 255.527C92.6071 253.793 89.3642 260.561 89.3642 260.561H46.339C45.3963 260.561 44.6233 259.807 44.6233 258.883V252.511C44.6233 251.851 45.0192 251.248 45.6414 250.965L58.6319 245.308L62.0068 243.838C123.453 219.95 124.923 236.598 124.923 236.598L100.13 255.527H100.149Z" fill="black"/>
<path d="M45.1514 241.272L45.1702 241.178C45.1702 241.178 45.1702 241.423 45.1514 241.272C45.0005 241.932 44.2464 245.967 49.5255 243.591C54.1259 241.517 64.0055 238.124 68.342 235.597C69.4544 234.937 70.152 233.768 70.152 232.486C70.152 227.641 70.2274 214.141 70.9815 208.014H46.3015C46.0186 209.277 45.2833 213.802 45.1891 227.169C45.1136 238.614 45.1325 240.933 45.1702 241.272H45.1514ZM60.6495 228.923C61.1962 227.679 62.4406 226.868 63.817 226.868C64.2883 226.868 64.7408 226.962 65.1745 227.132C66.9279 227.867 67.7386 229.866 66.9845 231.581C66.4377 232.826 65.1933 233.636 63.817 233.636C63.3456 233.636 62.8931 233.542 62.4595 233.354C60.7249 232.618 59.9142 230.62 60.6495 228.904V228.923ZM50.5436 215.612C52.825 215.612 54.6727 217.46 54.6727 219.741C54.6727 222.022 52.825 223.87 50.5436 223.87C48.2623 223.87 46.4146 222.022 46.4146 219.741C46.4146 217.46 48.2623 215.612 50.5436 215.612Z" fill="black"/>
<path d="M184.936 258.204L184.842 257.883V245.119H166.007L165.328 244.516C164.574 243.837 163.48 243.12 162.613 242.611C165.347 245.854 165.347 249.361 165.347 249.361L159.068 258.43L140.176 285.731C140.044 285.919 140.044 286.164 140.158 286.353C149.585 302.605 171.361 300.418 171.38 300.399C168.439 291.274 175.189 288.71 176.999 287.805C177.281 287.673 177.413 287.352 177.357 287.051C175.754 278.755 181.618 276.568 183.164 276.002C183.371 275.927 183.466 275.7 183.409 275.474C180.788 266.952 184.427 262.729 184.427 262.729H187.538C185.709 260.56 185.012 258.449 184.917 258.166L184.936 258.204ZM157.88 288.842L150.509 284.75C148.774 283.864 147.002 282.28 147.247 280.188C147.303 279.773 147.492 279.396 147.737 279.056L161.444 259.335C162.33 258.072 163.782 257.318 165.347 257.318C166.139 257.318 166.912 257.506 167.609 257.883L173.756 261.164C176.018 262.37 176.867 265.18 175.679 267.405L165.007 287.446C164.065 289.219 162.613 289.992 160.558 289.992C159.69 289.992 158.672 289.238 157.899 288.842H157.88ZM170.079 297.797C167.722 299.4 163.782 298.457 162.896 295.61L170.079 297.797ZM169.023 284.486L176.207 286.673C173.85 288.276 169.909 287.333 169.023 284.486ZM175.207 272.646L182.391 274.833C180.034 276.436 176.094 275.493 175.207 272.646Z" fill="black"/>
<path d="M258.825 255.471L248.437 257.526C248.569 258.223 248.682 258.789 248.738 259.11C251.925 278.982 259.712 298.911 272.702 314.465L279.603 310.563C270.685 298.402 264.84 284.054 260.994 269.536C259.9 264.935 258.712 260.222 258.825 255.471Z" fill="black"/>
<path d="M260.918 258.072C263.747 276.285 270.44 294.554 281.488 309.487L287.729 305.942C268.931 271.552 271.929 260.542 271.684 252.887L260.409 255.13C260.598 256.412 260.824 257.563 260.918 258.053V258.072Z" fill="black"/>
<path d="M248.89 270.555C247.89 266.407 246.797 262.165 246.646 257.885L238.011 259.6C238.162 260.769 238.35 261.788 238.426 262.24C241.254 283.281 248.72 304.417 261.503 320.82L270.836 315.522C260.07 302.607 253.245 286.675 248.89 270.555Z" fill="black"/>
<path d="M238.387 274.098C237.407 269.459 236.351 264.708 236.427 259.9L228.055 261.56C233.976 297.062 251.642 326.06 251.812 326.286L259.655 321.836C249.021 308.186 242.441 291.217 238.387 274.079V274.098Z" fill="black"/>
<path d="M38.1191 264.859C38.1191 264.708 37.8551 233.844 38.1191 217.365C38.1756 214.33 38.383 210.823 39.1938 208.014H31.3693L31.1807 208.655C30.3889 211.407 30.238 214.971 30.2003 217.403C29.9364 234.089 30.2003 264.576 30.2003 264.802C30.2003 265.029 30.0683 267.574 30.9356 270.308L31.1619 271.005H38.9675C37.9871 267.913 38.1191 265.029 38.1379 264.859H38.1191ZM33.99 265.934C32.1612 265.934 30.6717 264.444 30.6717 262.615C30.6717 260.786 32.1612 259.297 33.99 259.297C35.8189 259.297 37.3083 260.786 37.3083 262.615C37.3083 264.444 35.8189 265.934 33.99 265.934Z" fill="black"/>
<path d="M33.9897 263.86C34.677 263.86 35.2341 263.303 35.2341 262.615C35.2341 261.928 34.677 261.371 33.9897 261.371C33.3025 261.371 32.7454 261.928 32.7454 262.615C32.7454 263.303 33.3025 263.86 33.9897 263.86Z" fill="black"/>
<path d="M28.786 264.859C28.786 264.708 28.6541 233.844 28.786 217.365C28.8049 214.33 28.8992 210.823 29.2951 208.014H22.0174C21.2255 208.014 20.5845 209.333 20.5845 210.974L20 267.913C20 269.61 20.641 271.005 21.4518 271.005H29.2008C28.7295 267.913 28.8049 265.029 28.8049 264.859H28.786ZM24.3176 265.934C22.4887 265.934 20.9993 264.444 20.9993 262.615C20.9993 260.786 22.4887 259.297 24.3176 259.297C26.1465 259.297 27.6359 260.786 27.6359 262.615C27.6359 264.444 26.1465 265.934 24.3176 265.934Z" fill="black"/>
<path d="M24.3179 263.86C25.0051 263.86 25.5622 263.303 25.5622 262.615C25.5622 261.928 25.0051 261.371 24.3179 261.371C23.6306 261.371 23.0735 261.928 23.0735 262.615C23.0735 263.303 23.6306 263.86 24.3179 263.86Z" fill="black"/>
<path d="M458.811 179.846H447.763L429.229 201.132H284.26V237.521L286.258 239.312H414.127C414.127 239.312 414.221 239.312 414.278 239.312L414.844 237.558H422.819C422.819 237.558 425.458 226.378 425.458 215.744C425.458 212.331 424.497 208.957 423.592 205.695L458.793 205.6V179.846H458.811ZM306.131 233.882H300.06C300.06 233.882 298.664 232.901 300.06 231.619H305.999C305.999 231.619 307.432 232.75 306.112 233.882H306.131ZM322.986 233.882H316.915C316.915 233.882 315.52 232.901 316.915 231.619H322.854C322.854 231.619 324.287 232.75 322.967 233.882H322.986ZM339.842 233.882H333.771C333.771 233.882 332.376 232.901 333.771 231.619H339.71C339.71 231.619 341.143 232.75 339.823 233.882H339.842ZM356.697 233.882H350.626C350.626 233.882 349.231 232.901 350.626 231.619H356.565C356.565 231.619 357.998 232.75 356.679 233.882H356.697ZM373.553 233.882H367.482C367.482 233.882 366.087 232.901 367.482 231.619H373.421C373.421 231.619 374.854 232.75 373.534 233.882H373.553ZM390.409 233.882H384.338C384.338 233.882 382.942 232.901 384.338 231.619H390.277C390.277 231.619 391.71 232.75 390.39 233.882H390.409ZM407.264 233.882H401.193C401.193 233.882 399.798 232.901 401.193 231.619H407.132C407.132 231.619 408.565 232.75 407.245 233.882H407.264ZM418.294 227.113H292.499V205.695C292.499 205.054 293.027 204.545 293.668 204.545H386.544H386.939L387.109 204.771C387.392 204.941 387.562 205.167 387.637 205.487H387.656C390.71 209.692 390.465 216.743 390.05 220.684C389.956 221.476 389.805 222.268 389.598 223.041H398.12C398.874 217.931 397.894 205.714 397.894 205.714H418.369C421.952 214.5 418.313 227.113 418.313 227.113H418.294ZM445.331 199.888C445.331 199.888 435.319 201.962 439.354 197.361L447.574 186.52L454.72 186.822C454.72 186.822 454.682 188.5 445.331 199.869V199.888Z" fill="black"/>
<path d="M410.431 193.12V196.174L196.852 195.91L195.23 192.724L180.788 189.782L180.505 180.506L176.734 176H172.775V196.702H169.871V198.832H422.838V193.12H410.431ZM176.206 183.334C175 183.334 174.019 182.354 174.019 181.147C174.019 179.941 175 178.96 176.206 178.96C177.413 178.96 178.393 179.941 178.393 181.147C178.393 182.354 177.413 183.334 176.206 183.334Z" fill="black"/>
<path d="M177.3 181.693C177.376 181.524 177.432 181.354 177.432 181.147C177.432 180.468 176.885 179.902 176.188 179.902C175.999 179.902 175.811 179.959 175.641 180.034L177.281 181.675L177.3 181.693Z" fill="black"/>
<path d="M175.094 180.6C175.019 180.769 174.962 180.939 174.962 181.146C174.962 181.825 175.509 182.391 176.207 182.391C176.395 182.391 176.584 182.334 176.753 182.259L175.113 180.618L175.094 180.6Z" fill="black"/>
</svg>
