<svg width="700" height="700" viewBox="0 0 700 700" fill="none" xmlns="http://www.w3.org/2000/svg">
<path d="M269.043 423.364L270.67 400.502C270.767 399.313 271.921 397.428 273.135 397.38L281.55 396.985C282.831 396.942 284.779 398.582 284.823 399.863L285.378 423.338C285.447 425.04 284.097 426.473 282.388 426.567L272.274 426.659C270.396 426.763 268.893 425.214 269.043 423.364Z" fill="black"/>
<path d="M410.418 382.213C408.68 381.54 405.747 379.402 404.109 378.714C404.044 379.318 403.885 379.91 403.563 380.445L383.902 413.589C383.772 413.816 383.56 413.939 383.386 414.126C386.882 415.809 389.626 417.055 391.222 417.744C392.098 418.131 393.13 417.731 393.552 416.878L411.39 384.613C411.849 383.673 411.385 382.569 410.409 382.197L410.418 382.213Z" fill="black"/>
<path d="M291.934 387.027C291.934 387.027 294.188 389.122 297.706 389.747L321.267 376.144L322.175 371.984L325.694 369.821C323.887 363.637 318.402 357.268 317.079 355.767L284.75 374.585L291.924 387.011L291.934 387.027ZM303.265 379.353C303.265 379.353 289.509 374.08 300.286 367.858L311.931 360.917C311.931 360.917 316.999 365.131 317.777 373.87L296.518 386.144C296.518 386.144 290.62 382.452 289.194 375.72C288.967 374.611 289.611 373.389 291.163 373.212C291.163 373.212 295.307 382.576 303.265 379.353Z" fill="black"/>
<path d="M337.191 302.856L297.889 325.547C297.051 326.031 296.763 327.104 297.248 327.942L301.198 334.784C301.682 335.623 302.754 335.91 303.593 335.426L342.895 312.735C343.733 312.25 344.021 311.178 343.536 310.339L339.587 303.498C339.102 302.659 338.03 302.372 337.191 302.856Z" fill="black"/>
<path d="M472.905 241.004C472.011 238.211 469.767 232.475 465.196 228.103L451.072 236.258C453.163 239.427 456.78 245.089 458.749 249.177L472.905 241.004Z" fill="black"/>
<path d="M428.078 248.205C428.078 248.205 435.89 256.344 436.64 261.941L446.584 256.2C446.584 256.2 443.52 245.124 437.81 242.587L428.078 248.205Z" fill="black"/>
<path d="M243.411 343.066L238.529 345.885C237.728 346.347 237.229 347.179 237.191 348.094L237.145 349.144L244.476 344.911L243.411 343.066Z" fill="black"/>
<path d="M237.088 351.725L237.093 352.375L240.83 350.174L241.49 351.317L245.539 348.979L247.864 350.14L249.721 353.357L275.161 338.669C275.161 338.669 277.587 338.008 277.887 334.417L275.182 329.731L237.088 351.725Z" fill="black"/>
<path d="M434.304 262.267C433.769 258.287 428.395 251.919 426.367 249.802L425.979 249.395L359.083 288.018L367.171 302.027L434.427 263.197L434.304 262.267Z" fill="black"/>
<path d="M277.223 328.552L280.296 333.875L280.229 334.589C279.92 338.164 277.981 339.784 276.855 340.434C276.577 340.594 276.339 340.71 276.141 340.781L248.856 356.534L246.179 351.896L245.595 351.602L240.615 354.477L239.955 353.334L233.473 357.077L245.181 377.356L294.754 348.736L295.616 345.364L356.846 310.013L344.959 289.423L277.213 328.536L277.223 328.552ZM295.582 342.402L285.768 348.067L280.187 338.401L290.001 332.735L295.582 342.402ZM344.305 306.956C346.134 310.124 345.001 314.196 341.801 316.043L307.038 336.114C303.838 337.961 299.745 336.906 297.917 333.738L296.512 331.306C294.693 328.154 295.816 324.066 299.016 322.218L333.779 302.148C336.979 300.3 341.071 301.356 342.9 304.523L344.305 306.956Z" fill="black"/>
<path d="M289.257 335.407L282.889 339.084L286.509 345.354L292.877 341.677L289.257 335.407Z" fill="black"/>
<path d="M310.328 339.549L317.945 352.742L318.09 352.919C319.675 354.683 324.75 360.722 326.883 366.98L359.529 338.378L359.615 338.263C362.148 334.166 357.146 334.289 357.146 334.289C351.655 328.36 354.206 323.73 354.206 323.73L362.109 319.167L357.999 312.048L310.321 339.575L310.328 339.549ZM334.912 357.054C332.734 358.638 329.657 360.85 327.282 362.09L327.155 361.946C333.854 355.901 347.442 343.876 354.267 337.976L354.394 338.121C348.873 345.488 342.184 351.549 334.912 357.054Z" fill="black"/>
<path d="M297.641 346.873L296.779 350.245L245.835 379.657L249.738 386.417C253.577 384.658 256.732 384.164 259.286 384.366C259.613 383.763 260.006 383.123 260.267 382.972C260.789 382.671 264.22 382.693 266.264 383.102L316.146 354.303L308.303 340.718L297.641 346.873ZM313.931 353.143L308.33 356.377L303.466 347.951L309.067 344.718L313.931 353.143Z" fill="black"/>
<path d="M311.57 352.787L309.202 354.154L305.203 348.887L309.008 346.69L311.57 352.787Z" fill="black"/>
<path d="M172.106 423.794C172.106 423.794 172.124 423.674 172.122 423.632C172.041 422.851 171.323 422.286 170.526 422.376C170.056 422.43 169.686 422.731 169.463 423.099L172.106 423.794Z" fill="black"/>
<path d="M169.26 423.805C169.26 423.805 169.242 423.924 169.245 423.966C169.335 424.763 170.043 425.312 170.84 425.222C171.31 425.168 171.681 424.867 171.904 424.499L169.26 423.805Z" fill="black"/>
<path d="M521.702 209.869C518.616 211.651 516.318 210.953 515.482 209.542C515.171 209.003 515.058 208.393 515.205 207.742C515.627 205.909 517.735 204.583 518.372 204.215L531.908 196.4L530.89 194.637C530.572 194.124 529.902 193.944 529.364 194.255L510.88 204.927C511.51 207.263 513.414 211.541 516.403 215.171L517.263 216.133L535.583 205.556C536.285 205.151 536.51 204.259 536.105 203.556L535.238 202.054L521.669 209.888L521.702 209.869Z" fill="black"/>
<path d="M532.659 197.514L519.155 205.31C518.64 205.586 516.228 207.065 516.09 208.146C516.057 208.427 516.114 208.677 516.284 208.971C516.679 209.657 518.469 210.191 521.032 208.711L533.882 201.292L534.601 200.877L532.659 197.514Z" fill="black"/>
<path d="M509.277 207.355L503.71 210.57L501.711 207.109L473.589 223.258C478.234 226.628 480.994 232.916 482.745 237.457L489.689 233.534L501.625 226.643L502.992 229.011C503.614 230.088 504.979 230.454 506.057 229.832L508.473 228.437C509.551 227.815 509.917 226.45 509.295 225.372L507.362 222.025L509.109 221.016L508.478 219.922L514.437 216.481C512.017 213.459 510.251 210.059 509.261 207.365L509.277 207.355ZM506.488 227.863C505.688 228.325 504.683 228.056 504.221 227.256C503.759 226.456 504.028 225.452 504.828 224.99C505.629 224.528 506.642 224.813 507.095 225.597C507.547 226.381 507.271 227.411 506.488 227.863Z" fill="black"/>
<path d="M151.906 421.347C151.91 421.693 151.972 422.027 152.161 422.354C152.726 423.333 153.988 423.672 154.968 423.106C155.294 422.917 155.522 422.633 155.699 422.336L151.932 421.354L151.906 421.347Z" fill="black"/>
<path d="M155.949 421.299C155.945 420.953 155.883 420.619 155.694 420.292C155.129 419.312 153.867 418.974 152.887 419.54C152.561 419.728 152.333 420.012 152.156 420.31L155.923 421.292L155.949 421.299Z" fill="black"/>
<path d="M160.006 442.578C160.006 442.578 160.024 442.611 160.036 442.669C160.112 442.8 160.006 442.578 160.006 442.578Z" fill="black"/>
<path d="M160.006 442.578C160.006 442.578 160.024 442.611 160.036 442.669C160.112 442.8 160.006 442.578 160.006 442.578Z" fill="black"/>
<path d="M167.589 399.906L167.679 400.137C170.08 405.805 177.017 417.932 179.091 421.524C180.09 423.255 180.086 425.435 179.093 427.184C177.427 430.105 173.985 434.4 170.968 438.188C169.303 440.281 167.708 442.269 166.678 443.691C165.797 444.918 164.936 445.764 164.054 446.273C162.976 446.895 161.81 447.024 160.779 446.596C159.231 445.988 158.487 444.436 158.172 443.551C157.769 442.891 156.414 440.582 151.229 431.449C145.164 420.756 143.204 416.118 142.581 414.323L141.03 415.218L141.187 415.868C141.878 418.647 143.529 421.809 144.713 423.934C152.827 438.517 168.299 464.787 168.412 464.983C168.525 465.179 169.684 467.449 171.802 469.383L172.346 469.874L219.763 442.498C219.992 442.366 220.174 442.152 220.294 441.909L242.011 391.249C244.312 389.464 246.373 388.208 248.328 387.145L243.304 378.442L243.353 378.414L233.709 361.71L167.58 399.89L167.589 399.906ZM214.793 427.516C207.394 429.784 207.97 437.268 207.97 437.268L170.709 458.78C169.893 459.252 168.846 458.985 168.384 458.185L165.198 452.666C164.868 452.095 164.909 451.374 165.307 450.818L173.729 439.424L175.916 436.463C217.185 385.053 226.783 398.735 226.783 398.735L214.776 427.525L214.793 427.516Z" fill="black"/>
<path d="M160.036 442.669L160.006 442.578C160.006 442.578 160.128 442.79 160.036 442.669C160.236 443.316 161.6 447.187 164.984 442.49C167.931 438.394 174.79 430.515 177.282 426.159C177.916 425.031 177.936 423.67 177.295 422.56C174.872 418.363 168.187 406.635 165.777 400.951L144.403 413.291C144.79 414.526 146.415 418.813 153.018 430.437C158.675 440.385 159.85 442.384 160.053 442.659L160.036 442.669ZM167.283 424.225C167.135 422.874 167.807 421.55 168.999 420.861C169.407 420.626 169.846 420.481 170.307 420.411C172.193 420.171 173.894 421.497 174.099 423.36C174.248 424.711 173.575 426.035 172.383 426.723C171.975 426.959 171.536 427.103 171.066 427.157C169.196 427.387 167.495 426.062 167.274 424.209L167.283 424.225ZM151.876 417.75C153.852 416.609 156.376 417.286 157.516 419.261C158.657 421.237 157.981 423.761 156.005 424.902C154.029 426.042 151.505 425.366 150.365 423.39C149.224 421.415 149.9 418.891 151.876 417.75Z" fill="black"/>
<path d="M289.559 387.44L289.317 387.21L282.935 376.155L266.623 385.573L265.734 385.39C264.741 385.179 263.436 385.105 262.431 385.098C266.42 386.54 268.173 389.577 268.173 389.577L267.27 400.57L264.56 433.659C264.54 433.888 264.662 434.101 264.854 434.207C281.145 443.569 298.91 430.786 298.917 430.76C291.807 424.328 296.371 418.733 297.486 417.044C297.665 416.788 297.619 416.445 297.419 416.212C291.883 409.829 295.867 405.003 296.924 403.74C297.065 403.571 297.034 403.328 296.872 403.16C290.341 397.09 291.381 391.613 291.381 391.613L294.075 390.058C291.407 389.094 289.747 387.615 289.524 387.417L289.559 387.44ZM281.447 427.501L273.017 427.644C271.072 427.744 268.745 427.258 267.911 425.323C267.753 424.936 267.728 424.515 267.77 424.099L269.78 400.166C269.916 398.629 270.796 397.25 272.151 396.467C272.837 396.071 273.601 395.848 274.393 395.826L281.357 395.594C283.919 395.507 286.059 397.516 286.143 400.037L286.922 422.729C286.992 424.736 286.121 426.131 284.341 427.158C283.59 427.592 282.331 427.448 281.464 427.492L281.447 427.501ZM296.49 429.158C295.25 431.724 291.366 432.878 289.175 430.855L296.49 429.158ZM288.92 418.158L296.234 416.46C294.994 419.027 291.111 420.18 288.92 418.158ZM288.355 404.812L295.67 403.114C294.43 405.68 290.546 406.834 288.355 404.812Z" fill="black"/>
<path d="M352.182 348.128L344.213 355.102C344.676 355.64 345.057 356.073 345.266 356.323C357.962 371.939 374.67 385.305 393.697 392.28L397.722 385.45C383.918 379.378 371.682 369.874 361.092 359.225C357.845 355.787 354.46 352.299 352.182 348.128Z" fill="black"/>
<path d="M355.296 349.333C366.851 363.692 381.783 376.168 398.817 383.575L402.45 377.385C368.975 357.002 366.066 345.967 362.026 339.46L353.384 347.041C354.188 348.057 354.959 348.94 355.286 349.317L355.296 349.333Z" fill="black"/>
<path d="M351.119 366.158C348.18 363.066 345.112 359.938 342.841 356.307L336.221 362.111C336.936 363.048 337.608 363.835 337.9 364.189C350.87 380.998 367.903 395.568 387.176 403.382L392.609 394.128C376.828 388.326 362.951 377.941 351.119 366.158Z" fill="black"/>
<path d="M343.796 374.479C340.628 370.952 337.338 367.365 335 363.164L328.58 368.786C351.458 396.572 381.256 412.852 381.516 412.963L386.084 405.188C370.05 398.683 355.867 387.278 343.787 374.462L343.796 374.479Z" fill="black"/>
<path d="M165.739 466.612C165.664 466.481 150.003 439.884 141.993 425.481C140.524 422.824 138.95 419.683 138.248 416.845L131.471 420.757L131.629 421.407C132.319 424.187 133.97 427.348 135.154 429.473C143.268 444.056 158.74 470.326 158.853 470.522C158.966 470.718 160.125 472.988 162.243 474.922L162.788 475.413L169.547 471.511C167.152 469.323 165.824 466.759 165.756 466.602L165.739 466.612ZM162.701 469.607C161.117 470.521 159.082 469.976 158.168 468.392C157.254 466.809 157.799 464.774 159.383 463.86C160.966 462.945 163.001 463.49 163.916 465.074C164.83 466.658 164.285 468.693 162.701 469.607Z" fill="black"/>
<path d="M161.664 467.81C162.259 467.467 162.463 466.706 162.119 466.111C161.775 465.515 161.014 465.312 160.419 465.655C159.824 465.999 159.62 466.76 159.964 467.355C160.307 467.95 161.068 468.154 161.664 467.81Z" fill="black"/>
<path d="M157.657 471.278C157.581 471.147 142.035 444.484 133.91 430.147C132.409 427.509 130.737 424.425 129.675 421.794L123.372 425.433C122.687 425.829 122.791 427.292 123.611 428.713L151.575 478.316C152.423 479.786 153.676 480.673 154.378 480.268L161.089 476.393C159.135 473.951 157.758 471.415 157.673 471.268L157.657 471.278ZM154.324 474.443C152.741 475.357 150.706 474.812 149.791 473.228C148.877 471.644 149.422 469.61 151.006 468.695C152.59 467.781 154.625 468.326 155.539 469.91C156.453 471.494 155.908 473.528 154.324 474.443Z" fill="black"/>
<path d="M153.287 472.646C153.883 472.303 154.086 471.542 153.743 470.947C153.399 470.351 152.638 470.147 152.043 470.491C151.448 470.835 151.244 471.596 151.588 472.191C151.931 472.786 152.692 472.99 153.287 472.646Z" fill="black"/>
<path d="M487.563 182.642L477.995 188.166L472.587 215.868L347.04 288.352L365.234 319.866L367.861 320.418L478.598 256.483C478.598 256.483 478.68 256.436 478.729 256.408L478.342 254.607L485.249 250.619C485.249 250.619 481.945 239.617 476.628 230.407C474.922 227.452 472.401 225.01 469.987 222.638L500.424 204.956L487.547 182.652L487.563 182.642ZM382.356 305.779L377.098 308.815C377.098 308.815 375.399 308.663 375.967 306.855L381.11 303.886C381.11 303.886 382.917 304.149 382.339 305.789L382.356 305.779ZM396.953 297.351L391.695 300.387C391.695 300.387 389.997 300.235 390.564 298.427L395.707 295.458C395.707 295.458 397.514 295.721 396.937 297.361L396.953 297.351ZM411.55 288.923L406.293 291.959C406.293 291.959 404.594 291.808 405.161 290L410.305 287.03C410.305 287.03 412.111 287.293 411.534 288.933L411.55 288.923ZM426.148 280.496L420.89 283.531C420.89 283.531 419.192 283.38 419.759 281.572L424.902 278.602C424.902 278.602 426.709 278.866 426.131 280.505L426.148 280.496ZM440.745 272.068L435.488 275.103C435.488 275.103 433.789 274.952 434.356 273.144L439.5 270.174C439.5 270.174 441.306 270.438 440.729 272.077L440.745 272.068ZM455.343 263.64L450.085 266.676C450.085 266.676 448.386 266.524 448.954 264.716L454.097 261.747C454.097 261.747 455.904 262.01 455.326 263.65L455.343 263.64ZM469.94 255.212L464.682 258.248C464.682 258.248 462.984 258.096 463.551 256.288L468.694 253.319C468.694 253.319 470.501 253.582 469.924 255.222L469.94 255.212ZM476.108 243.836L367.166 306.733L356.457 288.184C356.136 287.629 356.339 286.924 356.894 286.604L437.327 240.166L437.67 239.968L437.93 240.079C438.26 240.085 438.52 240.196 438.745 240.436L438.761 240.426C443.509 242.54 446.822 248.769 448.433 252.389C448.748 253.122 449.013 253.884 449.22 254.657L456.6 250.396C454.699 245.594 447.741 235.503 447.741 235.503L465.473 225.265C472.969 231.083 476.124 243.826 476.124 243.826L476.108 243.836ZM485.91 206.739C485.91 206.739 478.276 213.541 479.47 207.54L481.169 194.041L487.508 190.729C487.508 190.729 488.314 192.201 485.9 206.723L485.91 206.739Z" fill="black"/>
<path d="M452.302 218.327L453.829 220.972L268.731 327.534L265.734 325.585L251.756 330.259L246.873 322.367L241.354 320.35L237.925 322.329L248.276 340.258L245.762 341.71L246.827 343.555L465.902 217.072L463.046 212.124L452.302 218.327ZM244.564 326.965C243.519 327.569 242.18 327.21 241.576 326.165C240.973 325.12 241.332 323.781 242.377 323.177C243.422 322.574 244.761 322.933 245.365 323.978C245.968 325.023 245.609 326.362 244.564 326.965Z" fill="black"/>
<path d="M244.691 324.997C244.672 324.812 244.636 324.637 244.532 324.457C244.193 323.87 243.437 323.653 242.832 324.002C242.669 324.096 242.534 324.24 242.425 324.39L244.666 324.99L244.691 324.997Z" fill="black"/>
<path d="M242.234 325.153C242.253 325.337 242.289 325.513 242.393 325.692C242.732 326.28 243.489 326.497 244.093 326.148C244.256 326.053 244.391 325.91 244.5 325.76L242.26 325.16L242.234 325.153Z" fill="black"/>
</svg>
