<svg width="512" height="160" viewBox="0 0 512 160" fill="none" xmlns="http://www.w3.org/2000/svg">
<path d="M150.207 103.057L163.047 84.0705C163.726 83.0901 165.668 82.0343 166.742 82.5999L174.227 86.465C175.359 87.0683 176.226 89.4628 175.623 90.5941L164.367 111.202C163.575 112.71 161.689 113.276 160.162 112.503L151.357 107.525C149.679 106.677 149.151 104.584 150.207 103.057Z" fill="black"/>
<path d="M293.216 138.108C292.047 136.656 290.577 133.338 289.502 131.924C289.144 132.414 288.71 132.848 288.163 133.149L254.565 152.022C254.339 152.154 254.094 152.154 253.849 152.23C256.036 155.435 257.789 157.886 258.826 159.281C259.392 160.054 260.486 160.224 261.277 159.696L292.858 140.672C293.725 140.088 293.876 138.9 293.216 138.089V138.108Z" fill="black"/>
<path d="M188.199 83.034C188.199 83.034 189.104 85.9752 191.838 88.2755H219.044L221.91 85.1268L226.039 85.0137C227.566 78.7541 226.001 70.496 225.605 68.5352L188.199 68.6671V83.0151V83.034ZM201.849 82.0536C201.849 82.0536 192.573 70.6091 205.017 70.6091L218.573 70.4206C218.573 70.4206 220.854 76.6047 217.159 84.5612H192.611C192.611 84.5612 189.349 78.4147 191.479 71.8723C191.838 70.7977 193.007 70.0623 194.439 70.6845C194.439 70.6845 193.346 80.8658 201.849 82.0536Z" fill="black"/>
<path d="M269.479 32.7676H224.097C223.129 32.7676 222.344 33.5526 222.344 34.521V42.4209C222.344 43.3893 223.129 44.1743 224.097 44.1743H269.479C270.447 44.1743 271.232 43.3893 271.232 42.4209V34.521C271.232 33.5526 270.447 32.7676 269.479 32.7676Z" fill="black"/>
<path d="M417.936 47.06C418.559 44.1941 419.483 38.1042 417.71 32.0332H401.401C401.628 35.8229 401.929 42.535 401.59 47.06H417.936Z" fill="black"/>
<path d="M375.515 30.8828C375.515 30.8828 378.211 41.8371 376.062 47.0597H387.544C387.544 47.0597 390.429 35.9357 386.752 30.8828H375.515Z" fill="black"/>
<path d="M168.157 20.7012H162.52C161.596 20.7012 160.747 21.1725 160.257 21.9455L159.691 22.8317H168.157V20.7012Z" fill="black"/>
<path d="M158.352 25.0371L158.032 25.6027L162.368 25.565V26.8848H167.044L168.477 29.053V32.7673H197.852C197.852 32.7673 200.284 33.4083 202.339 30.4482V25.0371H158.352Z" fill="black"/>
<path d="M373.874 46.1748C375.402 42.4605 373.931 34.259 373.233 31.412L373.101 30.8652H295.856V47.0421H373.516L373.874 46.1748Z" fill="black"/>
<path d="M204.696 25.0384V31.1848L204.281 31.7693C202.226 34.7106 199.737 35.1442 198.436 35.1442C198.116 35.1442 197.852 35.1254 197.645 35.0876H166.139V29.7331L165.781 29.1863H160.031V27.8665H152.545V51.2834H209.787L212.219 48.7946H282.922V25.0195H204.696V25.0384ZM213.671 46.2116H202.339V35.0499H213.671V46.2116ZM273.589 39.8766C273.589 43.5343 270.572 46.4944 266.877 46.4944H226.736C223.041 46.4944 220.024 43.5343 220.024 39.8766V37.0673C220.024 33.4285 223.041 30.4495 226.736 30.4495H266.877C270.572 30.4495 273.589 33.4096 273.589 37.0673V39.8766Z" fill="black"/>
<path d="M211.691 36.9922H204.338V44.2322H211.691V36.9922Z" fill="black"/>
<path d="M227.868 51.1133V66.3474L227.906 66.5737C228.396 68.8927 229.772 76.6606 228.49 83.1465L271.063 74.6998L271.195 74.6433C275.437 72.3619 271.044 69.9674 271.044 69.9674C269.253 62.0864 273.778 59.3525 273.778 59.3525H282.903V51.1321H227.849L227.868 51.1133ZM240.406 78.5649C237.729 78.8477 233.958 79.2248 231.281 79.1117L231.243 78.9231C240.067 77.0377 257.846 73.4177 266.708 71.7209L266.745 71.9094C258.28 75.5294 249.456 77.4337 240.406 78.5649Z" fill="black"/>
<path d="M213.218 51.1133L210.786 53.602H151.961V61.4077C156.165 61.8036 159.144 62.9537 161.256 64.4055C161.841 64.0472 162.5 63.689 162.802 63.689C163.405 63.689 166.366 65.4236 167.93 66.7999H225.53V51.1133H213.218ZM224.191 64.6883H217.724V54.9595H224.191V64.6883Z" fill="black"/>
<path d="M222.324 63.1999H219.591L218.761 56.6387H223.154L222.324 63.1999Z" fill="black"/>
<path d="M66.0426 54.9594C66.0426 54.9594 66.118 54.8651 66.1368 54.8274C66.4574 54.111 66.118 53.2625 65.3827 52.942C64.949 52.7534 64.4777 52.8289 64.1006 53.0363L66.0426 54.9594Z" fill="black"/>
<path d="M63.5728 53.5449C63.5728 53.5449 63.4974 53.6392 63.4785 53.6769C63.158 54.4122 63.4974 55.2418 64.2327 55.5623C64.6663 55.7509 65.1377 55.6754 65.5148 55.468L63.5728 53.5449Z" fill="black"/>
<path d="M475.762 44.4957C472.199 44.4957 470.558 42.7423 470.539 41.102C470.539 40.4798 470.747 39.8953 471.199 39.4051C472.481 38.0287 474.97 37.9345 475.706 37.9345H491.336V35.8982C491.317 35.2949 490.827 34.8047 490.204 34.8047H468.861C468.239 37.1426 467.749 41.7996 468.522 46.4377L468.786 47.7009H489.94C490.751 47.7009 491.392 47.041 491.392 46.2303V44.4957H475.724H475.762Z" fill="black"/>
<path d="M491.43 39.2738H475.837C475.253 39.255 472.425 39.3304 471.765 40.1977C471.595 40.4239 471.52 40.669 471.52 41.0084C471.52 41.8003 472.802 43.1578 475.762 43.1578H490.6H491.43V39.2738Z" fill="black"/>
<path d="M466.26 36.1057H459.83V32.1086L427.401 32.0332C429.739 37.2747 428.985 44.0999 428.231 48.9077L436.206 48.9831H449.989V51.7169C449.989 52.9613 450.988 53.9606 452.232 53.9606H455.023C456.267 53.9606 457.266 52.9613 457.266 51.7169V47.8518H459.284V46.5886H466.165C465.581 42.7612 465.751 38.9338 466.241 36.1057H466.26ZM453.59 52.4711C452.666 52.4711 451.931 51.7358 451.931 50.8119C451.931 49.8881 452.666 49.1528 453.59 49.1528C454.514 49.1528 455.249 49.9069 455.249 50.8119C455.249 51.7169 454.495 52.4711 453.59 52.4711Z" fill="black"/>
<path d="M49.7711 42.7422C49.6014 43.0439 49.4883 43.3644 49.4883 43.7415C49.4883 44.8727 50.4121 45.7966 51.5434 45.7966C51.9205 45.7966 52.2598 45.6646 52.5615 45.4949L49.7899 42.761L49.7711 42.7422Z" fill="black"/>
<path d="M53.2968 44.7224C53.4664 44.4207 53.5796 44.1002 53.5796 43.7231C53.5796 42.5918 52.6557 41.668 51.5245 41.668C51.1474 41.668 50.808 41.7999 50.5063 41.9696L53.2779 44.7035L53.2968 44.7224Z" fill="black"/>
<path d="M46.1702 65.1777C46.1702 65.1777 46.1702 65.2154 46.1514 65.2718C46.1514 65.4224 46.1702 65.1777 46.1702 65.1777Z" fill="black"/>
<path d="M46.1702 65.1777C46.1702 65.1777 46.1702 65.2154 46.1514 65.2718C46.1514 65.4224 46.1702 65.1777 46.1702 65.1777Z" fill="black"/>
<path d="M74.0742 32.0149L74.0365 32.2601C73.2823 38.3688 73.2258 52.3397 73.2258 56.4876C73.2258 58.4862 72.1322 60.3716 70.3977 61.3897C67.4941 63.0866 62.3658 65.0851 57.8597 66.8574C55.3709 67.8378 52.9953 68.7617 51.3927 69.4781C50.0163 70.1003 48.8474 70.402 47.8292 70.402C46.5849 70.402 45.5102 69.9306 44.8314 69.0445C43.7945 67.7436 43.9264 66.0278 44.0961 65.104C44.0773 64.331 44.0584 61.6537 44.1338 51.1519C44.2281 38.859 44.8503 33.8627 45.2085 31.9961H43.4174L43.2288 32.6371C42.437 35.3898 42.2861 38.9533 42.2484 41.3855C41.9845 58.0714 42.2484 88.5586 42.2484 88.7848C42.2484 89.0111 42.1164 91.5564 42.9837 94.2902L43.21 94.9878H97.9624C98.2264 94.9878 98.4903 94.8935 98.7166 94.7427L142.854 61.7291C145.739 61.3332 148.152 61.2766 150.377 61.3332V51.2839H150.434V31.9961H74.0742V32.0149ZM101.149 79.5274C93.6071 77.7928 90.3642 84.5615 90.3642 84.5615H47.339C46.3963 84.5615 45.6233 83.8073 45.6233 82.8834V76.5107C45.6233 75.8509 46.0192 75.2475 46.6414 74.9647L59.6319 69.3085L63.0068 67.8378C124.453 43.9496 125.923 60.5978 125.923 60.5978L101.13 79.5274H101.149Z" fill="black"/>
<path d="M46.1514 65.2724L46.1702 65.1781C46.1702 65.1781 46.1702 65.4232 46.1514 65.2724C46.0005 65.9323 45.2464 69.9671 50.5255 67.5914C55.1259 65.5175 65.0055 62.1237 69.342 59.5973C70.4544 58.9374 71.152 57.7684 71.152 56.4864C71.152 51.6408 71.2274 38.1413 71.9815 32.0137H47.3015C47.0186 33.2769 46.2833 37.8019 46.1891 51.1695C46.1136 62.6139 46.1325 64.933 46.1702 65.2724H46.1514ZM61.6495 52.9229C62.1962 51.6785 63.4406 50.8678 64.817 50.8678C65.2883 50.8678 65.7408 50.9621 66.1745 51.1318C67.9279 51.8671 68.7386 53.8656 67.9845 55.5814C67.4377 56.8257 66.1933 57.6365 64.817 57.6365C64.3456 57.6365 63.8931 57.5422 63.4595 57.3536C61.7249 56.6183 60.9142 54.6198 61.6495 52.9041V52.9229ZM51.5436 39.6119C53.825 39.6119 55.6727 41.4596 55.6727 43.741C55.6727 46.0223 53.825 47.87 51.5436 47.87C49.2623 47.87 47.4146 46.0223 47.4146 43.741C47.4146 41.4596 49.2623 39.6119 51.5436 39.6119Z" fill="black"/>
<path d="M185.936 82.2037L185.842 81.8832V69.1189H167.007L166.328 68.5156C165.574 67.8368 164.48 67.1204 163.613 66.6113C166.347 69.8542 166.347 73.3611 166.347 73.3611L160.068 82.43L141.176 109.731C141.044 109.919 141.044 110.164 141.158 110.353C150.585 126.605 172.361 124.418 172.38 124.399C169.439 115.274 176.189 112.71 177.999 111.805C178.281 111.673 178.413 111.352 178.357 111.051C176.754 102.755 182.618 100.568 184.164 100.002C184.371 99.9266 184.466 99.7004 184.409 99.4741C181.788 90.952 185.427 86.7287 185.427 86.7287H188.538C186.709 84.5605 186.012 82.4488 185.917 82.166L185.936 82.2037ZM158.88 112.842L151.509 108.75C149.774 107.864 148.002 106.28 148.247 104.188C148.303 103.773 148.492 103.396 148.737 103.056L162.444 83.335C163.33 82.0717 164.782 81.3176 166.347 81.3176C167.139 81.3176 167.912 81.5061 168.609 81.8832L174.756 85.1638C177.018 86.3705 177.867 89.1797 176.679 91.4045L166.007 111.446C165.065 113.219 163.613 113.992 161.558 113.992C160.69 113.992 159.672 113.238 158.899 112.842H158.88ZM171.079 121.797C168.722 123.4 164.782 122.457 163.896 119.61L171.079 121.797ZM170.023 108.486L177.207 110.673C174.85 112.276 170.909 111.333 170.023 108.486ZM176.207 96.646L183.391 98.8331C181.034 100.436 177.094 99.493 176.207 96.646Z" fill="black"/>
<path d="M259.825 79.4707L249.437 81.5258C249.569 82.2234 249.682 82.789 249.738 83.1096C252.925 102.982 260.712 122.911 273.702 138.465L280.603 134.563C271.685 122.402 265.84 108.054 261.994 93.5359C260.9 88.9355 259.712 84.2219 259.825 79.4707Z" fill="black"/>
<path d="M261.918 82.0716C264.747 100.285 271.44 118.554 282.488 133.487L288.729 129.942C269.931 95.5523 272.929 84.5415 272.684 76.8867L261.409 79.1304C261.598 80.4124 261.824 81.5626 261.918 82.0528V82.0716Z" fill="black"/>
<path d="M249.89 94.5548C248.89 90.4068 247.797 86.1647 247.646 81.8848L239.011 83.6005C239.162 84.7694 239.35 85.7876 239.426 86.2401C242.254 107.281 249.72 128.417 262.503 144.82L271.836 139.522C261.07 126.607 254.245 110.675 249.89 94.5548Z" fill="black"/>
<path d="M239.387 98.0976C238.407 93.4594 237.351 88.7082 237.427 83.9004L229.055 85.5596C234.976 121.062 252.642 150.06 252.812 150.286L260.655 145.836C250.021 132.186 243.441 115.217 239.387 98.0787V98.0976Z" fill="black"/>
<path d="M39.1191 88.8589C39.1191 88.7081 38.8551 57.8439 39.1191 41.3653C39.1756 38.3298 39.383 34.8229 40.1938 32.0137H32.3693L32.1807 32.6547C31.3889 35.4074 31.238 38.9709 31.2003 41.403C30.9364 58.089 31.2003 88.5761 31.2003 88.8024C31.2003 89.0286 31.0683 91.5739 31.9356 94.3078L32.1619 95.0054H39.9675C38.9871 91.9133 39.1191 89.0286 39.1379 88.8589H39.1191ZM34.99 89.9336C33.1612 89.9336 31.6717 88.4441 31.6717 86.6153C31.6717 84.7864 33.1612 83.297 34.99 83.297C36.8189 83.297 38.3083 84.7864 38.3083 86.6153C38.3083 88.4441 36.8189 89.9336 34.99 89.9336Z" fill="black"/>
<path d="M34.9897 87.8598C35.677 87.8598 36.2341 87.3027 36.2341 86.6155C36.2341 85.9282 35.677 85.3711 34.9897 85.3711C34.3025 85.3711 33.7454 85.9282 33.7454 86.6155C33.7454 87.3027 34.3025 87.8598 34.9897 87.8598Z" fill="black"/>
<path d="M29.786 88.8589C29.786 88.7081 29.6541 57.8439 29.786 41.3653C29.8049 38.3298 29.8992 34.8229 30.2951 32.0137H23.0174C22.2255 32.0137 21.5845 33.3335 21.5845 34.9738L21 91.9133C21 93.6102 21.641 95.0054 22.4518 95.0054H30.2008C29.7295 91.9133 29.8049 89.0286 29.8049 88.8589H29.786ZM25.3176 89.9336C23.4887 89.9336 21.9993 88.4441 21.9993 86.6153C21.9993 84.7864 23.4887 83.297 25.3176 83.297C27.1465 83.297 28.6359 84.7864 28.6359 86.6153C28.6359 88.4441 27.1465 89.9336 25.3176 89.9336Z" fill="black"/>
<path d="M25.3179 87.8598C26.0051 87.8598 26.5622 87.3027 26.5622 86.6155C26.5622 85.9282 26.0051 85.3711 25.3179 85.3711C24.6306 85.3711 24.0735 85.9282 24.0735 86.6155C24.0735 87.3027 24.6306 87.8598 25.3179 87.8598Z" fill="black"/>
<path d="M459.811 3.8457H448.763L430.229 25.132H285.26V61.5205L287.258 63.3117H415.127C415.127 63.3117 415.221 63.3117 415.278 63.3117L415.844 61.5583H423.819C423.819 61.5583 426.458 50.3777 426.458 39.744C426.458 36.3314 425.497 32.9565 424.592 29.6947L459.793 29.6005V3.8457H459.811ZM307.131 57.8817H301.06C301.06 57.8817 299.664 56.9013 301.06 55.6192H306.999C306.999 55.6192 308.432 56.7504 307.112 57.8817H307.131ZM323.986 57.8817H317.915C317.915 57.8817 316.52 56.9013 317.915 55.6192H323.854C323.854 55.6192 325.287 56.7504 323.967 57.8817H323.986ZM340.842 57.8817H334.771C334.771 57.8817 333.376 56.9013 334.771 55.6192H340.71C340.71 55.6192 342.143 56.7504 340.823 57.8817H340.842ZM357.697 57.8817H351.626C351.626 57.8817 350.231 56.9013 351.626 55.6192H357.565C357.565 55.6192 358.998 56.7504 357.679 57.8817H357.697ZM374.553 57.8817H368.482C368.482 57.8817 367.087 56.9013 368.482 55.6192H374.421C374.421 55.6192 375.854 56.7504 374.534 57.8817H374.553ZM391.409 57.8817H385.338C385.338 57.8817 383.942 56.9013 385.338 55.6192H391.277C391.277 55.6192 392.71 56.7504 391.39 57.8817H391.409ZM408.264 57.8817H402.193C402.193 57.8817 400.798 56.9013 402.193 55.6192H408.132C408.132 55.6192 409.565 56.7504 408.245 57.8817H408.264ZM419.294 51.1131H293.499V29.6947C293.499 29.0537 294.027 28.5446 294.668 28.5446H387.544H387.939L388.109 28.7709C388.392 28.9406 388.562 29.1668 388.637 29.4873H388.656C391.71 33.6918 391.465 40.7433 391.05 44.6838C390.956 45.4757 390.805 46.2675 390.598 47.0406H399.12C399.874 41.9311 398.894 29.7136 398.894 29.7136H419.369C422.952 38.4996 419.313 51.1131 419.313 51.1131H419.294ZM446.331 23.8877C446.331 23.8877 436.319 25.9616 440.354 21.3612L448.574 10.5201L455.72 10.8217C455.72 10.8217 455.682 12.4998 446.331 23.8688V23.8877Z" fill="black"/>
<path d="M411.431 17.1196V20.1739L197.852 19.91L196.23 16.7236L181.788 13.7824L181.505 4.50614L177.734 0H173.775V20.7018H170.871V22.8324H423.838V17.1196H411.431ZM177.206 7.33426C176 7.33426 175.019 6.35385 175.019 5.14718C175.019 3.94052 176 2.9601 177.206 2.9601C178.413 2.9601 179.393 3.94052 179.393 5.14718C179.393 6.35385 178.413 7.33426 177.206 7.33426Z" fill="black"/>
<path d="M178.3 5.6935C178.376 5.52381 178.432 5.35412 178.432 5.14672C178.432 4.46797 177.885 3.90234 177.188 3.90234C176.999 3.90234 176.811 3.95891 176.641 4.03432L178.281 5.67464L178.3 5.6935Z" fill="black"/>
<path d="M176.094 4.59961C176.019 4.7693 175.962 4.93899 175.962 5.14638C175.962 5.82513 176.509 6.39076 177.207 6.39076C177.395 6.39076 177.584 6.3342 177.753 6.25878L176.113 4.61846L176.094 4.59961Z" fill="black"/>
</svg>
