<svg width="512" height="512" viewBox="0 0 512 512" fill="none" xmlns="http://www.w3.org/2000/svg">
<path d="M212.265 268.615C213.061 269.21 222.7 275.483 228.633 268.861C228.676 268.806 228.701 268.739 228.706 268.669C228.711 268.599 228.695 268.529 228.66 268.468C228.625 268.408 228.572 268.359 228.509 268.328C228.446 268.297 228.376 268.286 228.306 268.295C226.017 268.456 222.884 269.692 217.946 266.179C215.333 264.265 213.133 257.844 213.133 257.844L203.995 266.437C204.737 268.052 205.933 269.416 207.437 270.361C208.655 270.955 210.721 267.455 212.265 268.615Z" fill="black"/>
<path d="M253.484 177.365C253.249 177.272 252.997 177.232 252.745 177.247C252.494 177.262 252.248 177.332 252.026 177.453L246.835 180.45C246.563 180.626 246.365 180.896 246.281 181.21C246.197 181.523 246.233 181.856 246.381 182.145L247.413 183.932L256.963 178.689L253.484 177.365Z" fill="black"/>
<path d="M104.624 287.211C105.892 288.259 106.53 289.443 108.335 289.774C108.539 285.369 108.176 280.956 107.254 276.645C106.174 277.404 105.381 278.505 105.002 279.77C104.919 279.986 104.787 280.181 104.617 280.339C104.447 280.498 104.243 280.615 104.021 280.683C102.075 281.309 97.1498 283.278 97.6476 287.378C97.6561 287.448 97.6823 287.513 97.7236 287.569C97.7649 287.625 97.8199 287.67 97.8834 287.698C97.9468 287.727 98.0166 287.738 98.0859 287.732C98.1552 287.726 98.2217 287.702 98.279 287.662C101.463 285.447 103.086 285.958 104.624 287.211Z" fill="black"/>
<path d="M175.656 402.565C177.476 401.364 178.759 399.504 179.236 397.376L171.319 401.947C171.854 402.544 172.582 402.932 173.375 403.045C174.168 403.158 174.976 402.988 175.656 402.565Z" fill="black"/>
<path d="M119.298 251.535C118.428 251.464 116.023 251.374 115.492 253.249L114.953 256.155C114.855 256.771 114.964 257.403 115.265 257.95L115.801 258.877L127.334 252.369C126.122 252.254 123.177 251.829 119.298 251.535Z" fill="black"/>
<path d="M185.556 271.066C185.93 270.846 186.202 270.487 186.313 270.067C186.424 269.648 186.364 269.201 186.147 268.825L182.954 263.295L165.616 273.305L168.809 278.835C169.026 279.205 169.378 279.476 169.79 279.592C170.203 279.708 170.645 279.66 171.023 279.457L185.556 271.066Z" fill="black"/>
<path d="M270.552 180.993C273.643 185.453 276.331 190.179 278.585 195.114L282.849 192.653C280.748 187.639 277.893 182.977 274.383 178.826L270.552 180.993Z" fill="black"/>
<path d="M121.014 272.531L108.867 279.544C109.344 283.295 109.214 292.916 109.263 293.445L137.888 276.918C139.019 276.265 143.541 274.198 143.829 270.126C144.007 267.821 141.604 263.659 139.8 261.685L136.407 263.644C137.839 264.133 139.044 265.125 139.799 266.436L140.452 267.567C141.058 268.616 141.222 269.864 140.908 271.035C140.594 272.206 139.828 273.204 138.778 273.811L128.6 279.687C127.55 280.293 126.302 280.458 125.131 280.144C123.96 279.83 122.962 279.064 122.356 278.014L121.703 276.883C120.952 275.564 120.707 274.017 121.014 272.531Z" fill="black"/>
<path d="M265.509 175.339L106.856 265.429C106.591 265.581 106.379 265.811 106.25 266.088C106.121 266.365 106.081 266.676 106.136 266.976L106.925 271.346C107.521 272.918 108.033 274.52 108.459 276.146C108.544 276.293 108.549 276.486 108.583 276.647L270.688 183.056C269.152 180.361 267.421 177.782 265.509 175.339Z" fill="black"/>
<path d="M187.278 268.174C187.666 268.852 187.77 269.657 187.568 270.412C187.366 271.167 186.873 271.811 186.198 272.205L171.676 280.59C170.998 280.981 170.193 281.087 169.436 280.884C168.68 280.682 168.036 280.187 167.644 279.509L164.451 273.979L111.181 304.734C112.054 307.217 113.349 309.53 115.009 311.572C115.168 311.765 115.392 311.893 115.639 311.932L119.315 312.449C119.66 312.508 120.014 312.451 120.324 312.289C122.974 310.924 136.325 304.875 141.663 318.064C147.638 332.801 145.964 365.058 155.616 384.021C165.267 402.984 166.572 402.789 170.467 400.917L181.415 394.596C181.269 393.367 181.229 392.128 181.298 390.893C181.385 389.758 181.75 388.661 182.359 387.7C182.968 386.738 183.804 385.94 184.794 385.377L215.545 367.622C215.545 367.622 218.86 365.527 216.642 360.746C213.43 353.719 199.151 317.13 198.448 314.58C196.965 309.163 198.12 300.821 204.909 296.464C210.617 292.821 234.977 275.123 242.692 269.522C243.336 269.05 243.783 268.356 243.947 267.574C244.11 266.792 243.979 265.977 243.578 265.286L235.09 250.583C235.09 250.583 230.875 244.406 235.764 241.146C240.652 237.886 253.853 229.721 255.667 226.985C256.16 226.122 256.426 225.147 256.44 224.153C256.454 223.158 256.216 222.176 255.747 221.299L184.098 262.666L187.278 268.174ZM185.044 297.422C186.438 301.247 211.319 355.992 211.407 358.913C211.515 364.324 206.135 367.491 205.886 367.634C205.004 368.144 171.274 387.739 170.305 388.177C169.432 388.575 168.485 388.787 167.526 388.802C166.566 388.816 165.614 388.632 164.728 388.26C162.064 387.145 159.886 384.391 158.251 380.071C155.609 373.092 148.625 324.767 147.635 320.754C147.052 318.321 146.23 315.952 145.18 313.681C143.251 309.427 141.586 305.759 147.48 301.994C149.745 300.535 167.3 290.928 172.441 288.366C173.293 287.951 174.228 287.736 175.175 287.738C176.123 287.74 177.057 287.959 177.907 288.378C181.413 289.958 183.868 294.21 185.044 297.422ZM194.677 301.858C193.936 302.286 193.085 302.484 192.232 302.428C191.378 302.371 190.56 302.063 189.882 301.542C189.203 301.021 188.695 300.31 188.421 299.499C188.147 298.689 188.119 297.815 188.342 296.989C188.565 296.163 189.028 295.422 189.672 294.859C190.316 294.296 191.113 293.937 191.961 293.827C192.81 293.718 193.672 293.862 194.438 294.243C195.204 294.623 195.84 295.222 196.266 295.964C196.55 296.455 196.733 296.998 196.807 297.56C196.881 298.122 196.842 298.693 196.695 299.241C196.547 299.788 196.293 300.301 195.947 300.751C195.601 301.2 195.169 301.576 194.677 301.858ZM218.009 252.603C225.416 246.366 228.026 245.583 234.365 255.465C236.034 257.928 237.365 260.603 238.323 263.419C238.522 264.074 238.509 264.774 238.288 265.422C238.066 266.069 237.647 266.631 237.089 267.027L206.441 288.566C205.545 289.214 204.516 289.653 203.429 289.853C200.933 290.284 196.77 289.943 194.177 284.066C190.253 275.233 211.404 258.166 218.009 252.603Z" fill="black"/>
<path d="M182.625 390.97C182.57 391.935 182.589 392.902 182.682 393.863L216.781 374.176C217.261 373.899 217.611 373.442 217.755 372.907C217.898 372.372 217.823 371.802 217.546 371.322L216.123 368.856L185.473 386.552C184.675 387.002 183.999 387.639 183.503 388.409C183.007 389.179 182.705 390.058 182.625 390.97Z" fill="black"/>
<path d="M191.014 295.511C190.497 295.809 190.081 296.254 189.817 296.789C189.553 297.325 189.454 297.926 189.531 298.518C189.609 299.109 189.861 299.664 190.254 300.113C190.648 300.561 191.165 300.883 191.742 301.038C192.318 301.192 192.927 301.172 193.492 300.98C194.057 300.789 194.552 300.434 194.916 299.96C195.279 299.487 195.494 298.916 195.533 298.321C195.572 297.726 195.433 297.132 195.135 296.615C194.735 295.922 194.076 295.417 193.303 295.21C192.53 295.003 191.707 295.111 191.014 295.511Z" fill="black"/>
<path d="M371.191 112.89L270.396 171.084C277.86 179.984 283.802 190.056 287.983 200.892L389.128 142.496C385.793 131.182 379.421 119.494 371.191 112.89Z" fill="black"/>
<path d="M173.008 289.531C168.594 291.732 154.028 299.674 149.38 302.358L148.147 303.07C143.245 306.202 144.424 308.793 146.41 313.121C147.576 315.459 148.435 317.939 148.965 320.498C149.223 321.962 149.73 325.244 150.412 329.796C152.694 344.795 156.947 372.771 159.543 379.566C161.051 383.536 162.987 386.052 165.343 386.999C166.057 387.294 166.824 387.442 167.596 387.434C168.369 387.425 169.132 387.261 169.84 386.952C172.611 385.744 204.957 366.677 205.285 366.487C205.341 366.455 210.274 363.531 210.145 358.946C210.059 356.055 200.596 335.355 193.672 320.201C188.686 309.267 184.663 299.766 183.797 297.718C182.296 294.151 180.162 290.769 177.379 289.526C176.7 289.185 175.952 289.008 175.193 289.009C174.434 289.01 173.686 289.188 173.008 289.531ZM180.055 354.287C178.388 355.249 176.473 355.696 174.552 355.57C172.631 355.443 170.791 354.75 169.265 353.578C167.738 352.406 166.593 350.807 165.975 348.984C165.358 347.161 165.294 345.196 165.794 343.337C166.293 341.478 167.333 339.809 168.781 338.541C170.229 337.273 172.021 336.463 173.93 336.214C175.838 335.964 177.778 336.287 179.503 337.14C181.229 337.994 182.662 339.34 183.622 341.008C184.909 343.242 185.255 345.896 184.586 348.386C183.917 350.875 182.287 352.998 180.055 354.287Z" fill="black"/>
<path d="M170.985 338.577C169.542 339.41 168.379 340.652 167.642 342.147C166.905 343.641 166.628 345.32 166.845 346.972C167.063 348.623 167.765 350.174 168.863 351.426C169.962 352.679 171.407 353.577 173.016 354.009C174.626 354.44 176.327 354.384 177.904 353.849C179.482 353.313 180.865 352.322 181.879 351C182.894 349.678 183.493 348.086 183.602 346.423C183.711 344.761 183.324 343.103 182.491 341.661C181.374 339.726 179.535 338.314 177.377 337.736C175.219 337.158 172.92 337.46 170.985 338.577Z" fill="black"/>
<path d="M132.124 276.205L138.175 272.712C138.787 272.357 139.268 271.813 139.545 271.161C139.821 270.509 139.878 269.785 139.707 269.098C139.66 268.912 139.6 268.73 139.528 268.552C139.463 268.439 139.391 268.315 139.326 268.202L138.673 267.071C138.239 266.327 137.529 265.784 136.697 265.561C135.865 265.338 134.978 265.453 134.231 265.881L129.175 268.799L128.157 269.387C127.407 269.82 126.86 270.533 126.636 271.37C126.412 272.206 126.529 273.097 126.962 273.847L127.615 274.978C128.018 275.678 128.666 276.204 129.435 276.454C130.203 276.704 131.036 276.66 131.774 276.331L132.124 276.205Z" fill="black"/>
<path d="M272.014 185.35L140.988 260.998C142.761 262.658 145.384 267.357 145.179 270.19C144.859 274.702 140.046 277.18 138.587 278.022L109.34 294.908C109.467 297.355 109.824 299.784 110.407 302.163L152.91 277.624C152.91 277.624 152.91 277.624 152.864 277.545L149.194 261.915C149.136 261.745 149.115 261.565 149.131 261.386C149.146 261.207 149.199 261.033 149.285 260.875C149.371 260.718 149.488 260.579 149.63 260.469C149.772 260.359 149.935 260.279 150.109 260.235C150.283 260.19 150.465 260.182 150.642 260.211C150.819 260.24 150.989 260.305 151.14 260.403C151.291 260.5 151.42 260.628 151.519 260.777C151.619 260.927 151.686 261.096 151.718 261.272L155.24 276.279L158.553 274.366C158.553 274.366 158.553 274.366 158.508 274.287L154.837 258.657C154.78 258.333 154.847 257.998 155.026 257.721C155.205 257.444 155.481 257.245 155.801 257.164C156.12 257.083 156.459 257.125 156.748 257.283C157.037 257.44 157.256 257.702 157.361 258.014L160.883 273.021L164.197 271.108C164.197 271.108 164.197 271.108 164.151 271.029L160.481 255.399C160.423 255.074 160.491 254.74 160.669 254.463C160.848 254.186 161.125 253.987 161.444 253.905C161.764 253.824 162.102 253.867 162.392 254.024C162.681 254.182 162.9 254.443 163.005 254.756L166.527 269.763L169.841 267.849C169.841 267.849 169.841 267.849 169.795 267.77L166.124 252.14C166.067 251.816 166.134 251.481 166.313 251.205C166.492 250.928 166.769 250.728 167.088 250.647C167.407 250.566 167.746 250.608 168.035 250.766C168.325 250.924 168.544 251.185 168.649 251.497L172.171 266.504L175.484 264.591C175.484 264.591 175.484 264.591 175.439 264.512L171.768 248.882C171.711 248.712 171.69 248.531 171.705 248.352C171.721 248.173 171.774 248 171.859 247.842C171.945 247.684 172.063 247.546 172.205 247.435C172.347 247.325 172.51 247.245 172.684 247.201C172.858 247.157 173.039 247.149 173.217 247.178C173.394 247.207 173.563 247.272 173.714 247.369C173.865 247.467 173.995 247.594 174.094 247.744C174.193 247.894 174.261 248.062 174.292 248.239L177.814 263.246L181.128 261.333C181.128 261.333 181.128 261.333 181.082 261.253L177.412 245.624C177.355 245.453 177.333 245.273 177.349 245.094C177.365 244.915 177.417 244.741 177.503 244.583C177.589 244.426 177.707 244.287 177.849 244.177C177.99 244.067 178.153 243.987 178.328 243.943C178.502 243.898 178.683 243.89 178.86 243.919C179.038 243.948 179.207 244.014 179.358 244.111C179.509 244.208 179.638 244.336 179.738 244.485C179.837 244.635 179.905 244.804 179.936 244.981L183.458 259.987L281.606 203.322C280.563 201.255 273.485 187.245 272.014 185.35Z" fill="black"/>
</svg>
