<svg width="512" height="512" viewBox="0 0 512 512" fill="none" xmlns="http://www.w3.org/2000/svg">
<path d="M200.675 238.3C201.067 239.214 206.277 249.466 214.727 246.697C214.792 246.671 214.847 246.625 214.886 246.567C214.925 246.509 214.946 246.441 214.946 246.371C214.946 246.301 214.925 246.232 214.886 246.174C214.847 246.116 214.792 246.071 214.727 246.044C212.664 245.039 209.333 244.542 206.813 239.031C205.507 236.067 206.813 229.406 206.813 229.406L194.602 232.279C194.437 234.049 194.791 235.828 195.621 237.399C196.378 238.522 199.917 236.524 200.675 238.3Z" fill="black"/>
<path d="M281.997 179.883C281.84 179.686 281.642 179.525 281.417 179.412C281.191 179.299 280.943 179.237 280.691 179.23H274.697C274.373 179.246 274.066 179.382 273.837 179.611C273.608 179.841 273.472 180.147 273.456 180.471V182.535L284.348 182.77L281.997 179.883Z" fill="black"/>
<path d="M98.157 200.584C98.7317 202.125 98.6925 203.47 100.09 204.658C102.469 200.946 104.361 196.943 105.719 192.748C104.404 192.866 103.166 193.423 102.206 194.328C102.025 194.474 101.814 194.577 101.587 194.629C101.361 194.681 101.126 194.681 100.9 194.629C98.9014 194.198 93.6515 193.44 92.0321 197.241C92.0049 197.305 91.9948 197.375 92.0025 197.444C92.0103 197.513 92.0358 197.579 92.0764 197.635C92.1171 197.692 92.1717 197.737 92.2348 197.766C92.298 197.795 92.3676 197.808 92.4369 197.802C96.3026 197.476 97.4518 198.729 98.157 200.584Z" fill="black"/>
<path d="M101.997 335.998C104.173 335.868 106.214 334.899 107.691 333.295H98.5488C98.7142 334.079 99.1504 334.78 99.7808 335.274C100.411 335.768 101.196 336.025 101.997 335.998Z" fill="black"/>
<path d="M128.703 177.024C127.985 176.527 125.948 175.248 124.551 176.606L122.631 178.852C122.237 179.337 122.017 179.939 122.004 180.563V181.634L135.246 181.764C134.254 181.059 131.916 179.218 128.703 177.024Z" fill="black"/>
<path d="M176.319 227.069C176.753 227.065 177.168 226.89 177.474 226.582C177.779 226.274 177.951 225.857 177.951 225.423V219.037H157.931V225.423C157.934 225.852 158.103 226.263 158.402 226.57C158.702 226.876 159.108 227.055 159.537 227.069H176.319Z" fill="black"/>
<path d="M294.966 191.559C295.412 196.966 295.377 202.403 294.861 207.805H299.785C300.472 202.413 300.331 196.947 299.367 191.598L294.966 191.559Z" fill="black"/>
<path d="M119.692 196.064H105.666C104.204 199.551 99.2801 207.818 99.0581 208.301H132.112C133.418 208.301 138.367 208.771 140.653 205.389C141.959 203.482 141.959 198.676 141.384 196.064H137.466C138.462 197.204 139.009 198.666 139.007 200.178V201.484C139.007 202.696 138.526 203.859 137.669 204.716C136.811 205.573 135.649 206.055 134.437 206.055H122.683C121.471 206.055 120.308 205.573 119.451 204.716C118.594 203.859 118.112 202.696 118.112 201.484V200.178C118.121 198.66 118.683 197.198 119.692 196.064Z" fill="black"/>
<path d="M293.424 184.142L110.981 182.836C110.676 182.834 110.377 182.928 110.127 183.103C109.877 183.279 109.687 183.528 109.584 183.815L108.082 187.994C107.813 189.654 107.456 191.297 107.011 192.918C107.011 193.088 106.92 193.258 106.868 193.414H294.051C294.068 190.312 293.858 187.213 293.424 184.142Z" fill="black"/>
<path d="M179.257 225.423C179.254 226.205 178.941 226.954 178.389 227.506C177.836 228.059 177.087 228.371 176.306 228.375H159.537C158.754 228.375 158.004 228.064 157.45 227.51C156.896 226.957 156.586 226.206 156.586 225.423V219.037H95.0748C94.5894 221.624 94.554 224.274 94.9704 226.873C95.0123 227.119 95.1422 227.342 95.336 227.5L98.2614 229.785C98.5304 230.008 98.8654 230.137 99.2147 230.151C102.192 230.294 116.78 231.731 114.808 245.822C112.614 261.572 95.0357 288.671 93.9125 309.919C92.7894 331.167 94.017 331.65 98.3267 331.976H110.968C111.455 330.839 112.041 329.747 112.718 328.712C113.361 327.772 114.225 327.004 115.234 326.476C116.242 325.948 117.365 325.675 118.504 325.682H154.013C154.013 325.682 157.931 325.525 158.401 320.275C159.132 312.583 165.061 273.757 165.727 271.197C167.151 265.764 172.322 259.117 180.38 258.738C187.145 258.438 217.091 255.291 226.572 254.298C227.366 254.211 228.1 253.834 228.633 253.238C229.166 252.643 229.46 251.871 229.458 251.072V234.095C229.458 234.095 228.897 226.638 234.76 226.259C240.624 225.88 256.139 225.41 259.077 223.948C259.936 223.446 260.654 222.735 261.163 221.881C261.673 221.027 261.957 220.057 261.99 219.063H179.257V225.423ZM162.697 249.636C161.992 253.645 156.168 313.497 154.783 316.07C152.171 320.811 145.929 320.863 145.642 320.863C144.623 320.863 105.614 320.967 104.556 320.863C103.601 320.77 102.675 320.481 101.837 320.014C100.998 319.546 100.266 318.911 99.6849 318.146C97.9349 315.848 97.4256 312.374 98.17 307.816C99.3714 300.451 117.485 255.108 118.634 251.138C119.346 248.739 119.819 246.276 120.045 243.785C120.502 239.136 120.894 235.127 127.881 234.813C130.571 234.683 150.578 235.14 156.311 235.492C157.256 235.558 158.174 235.839 158.993 236.315C159.813 236.79 160.513 237.447 161.039 238.235C163.285 241.356 163.285 246.266 162.697 249.636ZM168.822 258.294C167.967 258.294 167.131 258.04 166.419 257.565C165.708 257.089 165.154 256.413 164.827 255.623C164.501 254.832 164.416 253.962 164.584 253.123C164.752 252.285 165.165 251.514 165.77 250.91C166.376 250.306 167.148 249.896 167.987 249.73C168.826 249.565 169.696 249.652 170.486 249.982C171.275 250.311 171.95 250.867 172.423 251.579C172.896 252.292 173.148 253.129 173.145 253.985C173.145 254.552 173.033 255.113 172.816 255.637C172.598 256.161 172.28 256.636 171.878 257.037C171.477 257.437 171 257.754 170.476 257.97C169.951 258.186 169.389 258.296 168.822 258.294ZM213.656 227.304C223.189 225.606 225.841 226.233 226.389 237.96C226.603 240.928 226.419 243.91 225.841 246.828C225.685 247.494 225.324 248.095 224.808 248.545C224.293 248.995 223.649 249.271 222.967 249.335L185.656 252.666C184.557 252.778 183.446 252.644 182.404 252.274C180.028 251.399 176.593 249.022 177.285 242.636C178.304 233.024 205.154 228.819 213.656 227.304Z" fill="black"/>
<path d="M113.829 329.442C113.299 330.25 112.832 331.097 112.431 331.976H151.806C152.36 331.976 152.891 331.756 153.283 331.364C153.675 330.972 153.895 330.44 153.895 329.886V327.039H118.504C117.588 327.03 116.684 327.244 115.869 327.663C115.055 328.082 114.354 328.692 113.829 329.442Z" fill="black"/>
<path d="M168.822 250.967C168.226 250.967 167.643 251.144 167.146 251.475C166.65 251.807 166.264 252.278 166.035 252.829C165.807 253.38 165.747 253.987 165.864 254.572C165.98 255.157 166.267 255.695 166.689 256.117C167.111 256.539 167.649 256.826 168.234 256.942C168.819 257.059 169.426 256.999 169.977 256.771C170.528 256.542 170.999 256.156 171.331 255.66C171.662 255.163 171.839 254.58 171.839 253.984C171.839 253.183 171.521 252.416 170.956 251.85C170.39 251.285 169.623 250.967 168.822 250.967Z" fill="black"/>
<path d="M416.171 182.9H299.784C301.797 194.34 301.908 206.033 300.111 217.508H416.903C419.671 206.042 419.998 192.734 416.171 182.9Z" fill="black"/>
<path d="M156.22 236.785C151.296 236.485 134.711 236.08 129.343 236.08H127.92C122.108 236.341 121.834 239.175 121.39 243.916C121.23 246.524 120.734 249.101 119.914 251.582C119.405 252.979 118.203 256.074 116.519 260.358C110.995 274.488 100.691 300.843 99.5413 308.025C98.8622 312.218 99.2801 315.365 100.847 317.363C101.318 317.975 101.908 318.486 102.581 318.866C103.255 319.245 103.997 319.484 104.765 319.57C107.769 319.91 145.315 319.57 145.694 319.57C145.759 319.57 151.492 319.505 153.673 315.469C155.045 312.923 157.199 290.264 158.78 273.679C159.929 261.716 161.196 251.477 161.47 249.27C161.953 245.431 161.796 241.435 160.007 238.966C159.59 238.332 159.03 237.805 158.373 237.426C157.715 237.047 156.978 236.828 156.22 236.785ZM129.944 296.389C128.019 296.389 126.138 295.818 124.537 294.749C122.937 293.679 121.69 292.159 120.954 290.38C120.218 288.602 120.026 286.645 120.403 284.757C120.779 282.869 121.707 281.136 123.069 279.776C124.431 278.415 126.166 277.49 128.054 277.116C129.942 276.742 131.899 276.936 133.676 277.675C135.454 278.413 136.973 279.662 138.04 281.264C139.108 282.866 139.676 284.748 139.673 286.673C139.67 289.251 138.643 291.722 136.819 293.544C134.995 295.366 132.522 296.389 129.944 296.389Z" fill="black"/>
<path d="M129.944 278.248C128.278 278.248 126.649 278.742 125.264 279.668C123.879 280.593 122.799 281.909 122.162 283.448C121.524 284.987 121.357 286.681 121.682 288.315C122.007 289.949 122.81 291.45 123.988 292.628C125.166 293.806 126.667 294.608 128.301 294.933C129.935 295.258 131.628 295.091 133.167 294.454C134.707 293.816 136.022 292.737 136.948 291.351C137.873 289.966 138.367 288.337 138.367 286.671C138.367 284.437 137.48 282.295 135.9 280.715C134.321 279.136 132.178 278.248 129.944 278.248Z" fill="black"/>
<path d="M127.476 204.802H134.462C135.171 204.801 135.859 204.57 136.425 204.144C136.99 203.717 137.401 203.119 137.597 202.438C137.648 202.254 137.688 202.066 137.714 201.877C137.714 201.746 137.714 201.602 137.714 201.472V200.166C137.711 199.305 137.367 198.479 136.758 197.87C136.149 197.261 135.324 196.918 134.462 196.914H128.625H127.449C126.584 196.914 125.753 197.258 125.141 197.87C124.529 198.483 124.185 199.313 124.185 200.179V201.485C124.183 202.293 124.482 203.072 125.022 203.673C125.563 204.274 126.306 204.653 127.11 204.737L127.476 204.802Z" fill="black"/>
<path d="M294.051 196.064H142.756C143.461 198.389 143.383 203.77 141.789 206.12C139.256 209.868 133.849 209.607 132.164 209.607H98.3923C97.279 211.79 96.3739 214.072 95.689 216.424H144.767C144.767 216.424 144.767 216.424 144.767 216.333L149.403 200.962C149.439 200.786 149.51 200.619 149.613 200.472C149.717 200.325 149.849 200.2 150.002 200.107C150.156 200.013 150.327 199.952 150.505 199.927C150.683 199.903 150.864 199.915 151.037 199.964C151.21 200.013 151.371 200.096 151.51 200.21C151.649 200.324 151.763 200.465 151.845 200.625C151.927 200.785 151.975 200.96 151.986 201.139C151.998 201.318 151.972 201.498 151.911 201.667L147.457 216.424H151.284C151.284 216.424 151.284 216.424 151.284 216.333L155.92 200.962C156.032 200.652 156.258 200.396 156.551 200.246C156.844 200.095 157.184 200.061 157.501 200.15C157.818 200.24 158.09 200.446 158.262 200.727C158.434 201.008 158.493 201.344 158.427 201.667L153.974 216.424H157.8C157.8 216.424 157.8 216.424 157.8 216.333L162.437 200.962C162.549 200.652 162.775 200.396 163.068 200.246C163.361 200.095 163.7 200.061 164.018 200.15C164.335 200.24 164.607 200.446 164.779 200.727C164.95 201.008 165.009 201.344 164.944 201.667L160.491 216.424H164.317C164.317 216.424 164.317 216.424 164.317 216.333L168.953 200.962C169.066 200.652 169.291 200.396 169.585 200.246C169.878 200.095 170.217 200.061 170.534 200.15C170.852 200.24 171.123 200.446 171.295 200.727C171.467 201.008 171.526 201.344 171.461 201.667L167.007 216.424H170.834C170.834 216.424 170.834 216.424 170.834 216.333L175.47 200.962C175.506 200.786 175.577 200.619 175.68 200.472C175.784 200.325 175.916 200.2 176.069 200.107C176.223 200.013 176.394 199.952 176.571 199.927C176.749 199.903 176.931 199.915 177.104 199.964C177.276 200.013 177.438 200.096 177.577 200.21C177.716 200.324 177.83 200.465 177.912 200.625C177.994 200.785 178.042 200.96 178.053 201.139C178.065 201.318 178.039 201.498 177.977 201.667L173.524 216.424H177.351C177.351 216.424 177.351 216.424 177.351 216.333L181.987 200.962C182.022 200.786 182.094 200.619 182.197 200.472C182.3 200.325 182.433 200.2 182.586 200.107C182.739 200.013 182.91 199.952 183.088 199.927C183.266 199.903 183.447 199.915 183.62 199.964C183.793 200.013 183.954 200.096 184.093 200.21C184.232 200.324 184.347 200.465 184.429 200.625C184.511 200.785 184.559 200.96 184.57 201.139C184.581 201.318 184.556 201.498 184.494 201.667L180.041 216.424H293.372C293.503 214.113 294.378 198.441 294.051 196.064Z" fill="black"/>
</svg>
