<svg width="512" height="160" viewBox="0 0 512 160" fill="none" xmlns="http://www.w3.org/2000/svg">
<path d="M200.675 62.2998C201.067 63.214 206.277 73.4658 214.727 70.6971C214.792 70.6707 214.847 70.6255 214.886 70.5673C214.925 70.5092 214.946 70.4407 214.946 70.3707C214.946 70.3006 214.925 70.2321 214.886 70.174C214.847 70.1158 214.792 70.0706 214.727 70.0442C212.664 69.0386 209.333 68.5423 206.813 63.0312C205.507 60.0666 206.813 53.4062 206.813 53.4062L194.602 56.2794C194.437 58.0486 194.791 59.8275 195.621 61.3987C196.378 62.5218 199.917 60.5237 200.675 62.2998Z" fill="black"/>
<path d="M281.997 3.88345C281.84 3.68567 281.642 3.52469 281.417 3.41187C281.191 3.29904 280.943 3.23711 280.691 3.23047H274.697C274.373 3.2463 274.066 3.38209 273.837 3.61142C273.608 3.84075 273.472 4.14719 273.456 4.47112V6.53454L284.348 6.76961L281.997 3.88345Z" fill="black"/>
<path d="M98.157 24.5838C98.7317 26.1248 98.6925 27.47 100.09 28.6584C102.469 24.9462 104.361 20.9432 105.719 16.748C104.404 16.8661 103.166 17.4227 102.206 18.3283C102.025 18.4743 101.814 18.5772 101.587 18.6292C101.361 18.6813 101.126 18.6811 100.9 18.6286C98.9014 18.1977 93.6515 17.4402 92.0321 21.2406C92.0049 21.3046 91.9948 21.3746 92.0025 21.4437C92.0103 21.5129 92.0358 21.5789 92.0764 21.6353C92.1171 21.6917 92.1717 21.7367 92.2348 21.766C92.298 21.7952 92.3676 21.8076 92.4369 21.8021C96.3026 21.4756 97.4518 22.7293 98.157 24.5838Z" fill="black"/>
<path d="M101.997 159.998C104.173 159.868 106.214 158.899 107.691 157.295H98.5488C98.7142 158.079 99.1504 158.78 99.7808 159.274C100.411 159.768 101.196 160.025 101.997 159.998Z" fill="black"/>
<path d="M128.703 1.02369C127.985 0.527426 125.948 -0.752414 124.551 0.605784L122.631 2.85204C122.237 3.33677 122.017 3.93874 122.004 4.56284V5.63372L135.246 5.76433C134.254 5.05911 131.916 3.2177 128.703 1.02369Z" fill="black"/>
<path d="M176.319 51.0688C176.753 51.0653 177.168 50.8904 177.474 50.5822C177.779 50.274 177.951 49.8574 177.951 49.4233V43.0371H157.931V49.4233C157.934 49.852 158.103 50.2628 158.402 50.5696C158.702 50.8764 159.108 51.0553 159.537 51.0688H176.319Z" fill="black"/>
<path d="M294.966 15.5586C295.412 20.9664 295.377 26.4031 294.861 31.8047H299.785C300.472 26.4127 300.331 20.9472 299.367 15.5978L294.966 15.5586Z" fill="black"/>
<path d="M119.692 20.0645H105.666C104.204 23.5514 99.2801 31.8181 99.0581 32.3013H132.112C133.418 32.3013 138.367 32.7714 140.653 29.389C141.959 27.4823 141.959 22.6764 141.384 20.0645H137.466C138.462 21.2037 139.009 22.6656 139.007 24.1782V25.4842C139.007 26.6965 138.526 27.8591 137.669 28.7163C136.811 29.5735 135.649 30.055 134.437 30.055H122.683C121.471 30.055 120.308 29.5735 119.451 28.7163C118.594 27.8591 118.112 26.6965 118.112 25.4842V24.1782C118.121 22.6605 118.683 21.198 119.692 20.0645Z" fill="black"/>
<path d="M293.424 8.14191L110.981 6.83596C110.676 6.83439 110.377 6.92778 110.127 7.10323C109.877 7.27869 109.687 7.52754 109.584 7.81543L108.082 11.9945C107.813 13.6536 107.456 15.2971 107.011 16.9179C107.011 17.0877 106.92 17.2575 106.868 17.4142H294.051C294.068 14.3123 293.858 11.2133 293.424 8.14191Z" fill="black"/>
<path d="M179.257 49.4233C179.254 50.205 178.941 50.9537 178.389 51.5065C177.836 52.0592 177.087 52.3713 176.306 52.3747H159.537C158.754 52.3747 158.004 52.0638 157.45 51.5103C156.896 50.9568 156.586 50.206 156.586 49.4233V43.0371H95.0748C94.5894 45.6236 94.554 48.2744 94.9704 50.8729C95.0123 51.1192 95.1422 51.342 95.336 51.4997L98.2614 53.7852C98.5304 54.0083 98.8654 54.1368 99.2147 54.1508C102.192 54.2945 116.78 55.731 114.808 69.8223C112.614 85.5722 95.0357 112.671 93.9125 133.919C92.7894 155.167 94.017 155.65 98.3267 155.976H110.968C111.455 154.839 112.041 153.747 112.718 152.712C113.361 151.772 114.225 151.004 115.234 150.476C116.242 149.948 117.365 149.675 118.504 149.682H154.013C154.013 149.682 157.931 149.525 158.401 144.275C159.132 136.583 165.061 97.7568 165.727 95.1971C167.151 89.7644 172.322 83.117 180.38 82.7383C187.145 82.4379 217.091 79.2905 226.572 78.298C227.366 78.211 228.1 77.8335 228.633 77.2381C229.166 76.6426 229.46 75.8713 229.458 75.0723V58.0948C229.458 58.0948 228.897 50.6378 234.76 50.2591C240.624 49.8803 256.139 49.4102 259.077 47.9475C259.936 47.4463 260.654 46.7353 261.163 45.8811C261.673 45.0268 261.957 44.0573 261.99 43.0632H179.257V49.4233ZM162.697 73.6357C161.992 77.645 156.168 137.497 154.783 140.07C152.171 144.811 145.929 144.863 145.642 144.863C144.623 144.863 105.614 144.967 104.556 144.863C103.601 144.77 102.675 144.481 101.837 144.014C100.998 143.546 100.266 142.911 99.6849 142.146C97.9349 139.848 97.4256 136.374 98.17 131.816C99.3714 124.451 117.485 79.1077 118.634 75.1376C119.346 72.7393 119.819 70.2765 120.045 67.785C120.502 63.1358 120.894 59.1265 127.881 58.8131C130.571 58.6825 150.578 59.1396 156.311 59.4922C157.256 59.558 158.174 59.8394 158.993 60.3147C159.813 60.7901 160.513 61.4469 161.039 62.2347C163.285 65.356 163.285 70.2664 162.697 73.6357ZM168.822 82.2943C167.967 82.2943 167.131 82.0404 166.419 81.5648C165.708 81.0893 165.154 80.4134 164.827 79.6227C164.501 78.8321 164.416 77.9623 164.584 77.1234C164.752 76.2845 165.165 75.5143 165.77 74.9103C166.376 74.3063 167.148 73.8956 167.987 73.7303C168.826 73.565 169.696 73.6524 170.486 73.9816C171.275 74.3108 171.95 74.8669 172.423 75.5795C172.896 76.292 173.148 77.1291 173.145 77.9846C173.145 78.5516 173.033 79.1131 172.816 79.6368C172.598 80.1606 172.28 80.6362 171.878 81.0366C171.477 81.437 171 81.7541 170.476 81.97C169.951 82.1858 169.389 82.296 168.822 82.2943ZM213.656 51.3038C223.189 49.6061 225.841 50.233 226.389 61.9605C226.603 64.9275 226.419 67.9099 225.841 70.8279C225.685 71.4942 225.324 72.0948 224.808 72.5447C224.293 72.9946 223.649 73.2712 222.967 73.3354L185.656 76.6656C184.557 76.778 183.446 76.6442 182.404 76.2738C180.028 75.3988 176.593 73.0219 177.285 66.6358C178.304 57.0239 205.154 52.8187 213.656 51.3038Z" fill="black"/>
<path d="M113.829 153.442C113.299 154.25 112.832 155.097 112.431 155.976H151.806C152.36 155.976 152.891 155.756 153.283 155.364C153.675 154.972 153.895 154.44 153.895 153.886V151.039H118.504C117.588 151.03 116.684 151.244 115.869 151.663C115.055 152.082 114.354 152.692 113.829 153.442Z" fill="black"/>
<path d="M168.822 74.9668C168.226 74.9668 167.643 75.1437 167.146 75.4752C166.65 75.8067 166.264 76.2779 166.035 76.8291C165.807 77.3803 165.747 77.9869 165.864 78.5721C165.98 79.1573 166.267 79.6948 166.689 80.1168C167.111 80.5387 167.649 80.826 168.234 80.9424C168.819 81.0588 169.426 80.999 169.977 80.7707C170.528 80.5424 170.999 80.1557 171.331 79.6596C171.662 79.1635 171.839 78.5802 171.839 77.9836C171.839 77.1835 171.521 76.4161 170.956 75.8504C170.39 75.2846 169.623 74.9668 168.822 74.9668Z" fill="black"/>
<path d="M416.171 6.90039H299.784C301.797 18.3397 301.908 30.033 300.111 41.5083H416.903C419.671 30.042 419.998 16.7343 416.171 6.90039Z" fill="black"/>
<path d="M156.22 60.7853C151.296 60.4849 134.711 60.0801 129.343 60.0801H127.92C122.108 60.3413 121.834 63.1752 121.39 67.9158C121.23 70.5241 120.734 73.1007 119.914 75.5818C119.405 76.9792 118.203 80.0743 116.519 84.3579C110.995 98.4883 100.691 124.843 99.5413 132.025C98.8622 136.218 99.2801 139.365 100.847 141.363C101.318 141.975 101.908 142.486 102.581 142.866C103.255 143.245 103.997 143.484 104.765 143.57C107.769 143.91 145.315 143.57 145.694 143.57C145.759 143.57 151.492 143.505 153.673 139.469C155.045 136.923 157.199 114.264 158.78 97.6787C159.929 85.7161 161.196 75.4773 161.47 73.2703C161.953 69.4307 161.796 65.4345 160.007 62.9662C159.59 62.3322 159.03 61.8046 158.373 61.4259C157.715 61.0471 156.978 60.8277 156.22 60.7853ZM129.944 120.389C128.019 120.389 126.138 119.818 124.537 118.749C122.937 117.679 121.69 116.159 120.954 114.38C120.218 112.602 120.026 110.645 120.403 108.757C120.779 106.869 121.707 105.136 123.069 103.776C124.431 102.415 126.166 101.49 128.054 101.116C129.942 100.742 131.899 100.936 133.676 101.675C135.454 102.413 136.973 103.662 138.04 105.264C139.108 106.866 139.676 108.748 139.673 110.673C139.67 113.251 138.643 115.722 136.819 117.544C134.995 119.366 132.522 120.389 129.944 120.389Z" fill="black"/>
<path d="M129.944 102.248C128.278 102.248 126.649 102.742 125.264 103.668C123.879 104.593 122.799 105.909 122.162 107.448C121.524 108.987 121.357 110.681 121.682 112.315C122.007 113.949 122.81 115.45 123.988 116.628C125.166 117.806 126.667 118.608 128.301 118.933C129.935 119.258 131.628 119.091 133.167 118.454C134.707 117.816 136.022 116.737 136.948 115.351C137.873 113.966 138.367 112.337 138.367 110.671C138.367 108.437 137.48 106.295 135.9 104.715C134.321 103.136 132.178 102.248 129.944 102.248Z" fill="black"/>
<path d="M127.476 28.802H134.462C135.171 28.8012 135.859 28.5702 136.425 28.1438C136.99 27.7175 137.401 27.1189 137.597 26.4383C137.648 26.2539 137.688 26.0663 137.714 25.8767C137.714 25.7461 137.714 25.6024 137.714 25.4719V24.1659C137.711 23.3045 137.367 22.4794 136.758 21.8703C136.149 21.2612 135.324 20.9175 134.462 20.9141H128.625H127.449C126.584 20.9141 125.753 21.258 125.141 21.8703C124.529 22.4826 124.185 23.3131 124.185 24.179V25.4849C124.183 26.2928 124.482 27.0725 125.022 27.6731C125.563 28.2738 126.306 28.6527 127.11 28.7367L127.476 28.802Z" fill="black"/>
<path d="M294.051 20.0645H142.756C143.461 22.3891 143.383 27.7696 141.789 30.1203C139.256 33.8684 133.849 33.6073 132.164 33.6073H98.3923C97.279 35.7896 96.3739 38.0721 95.689 40.4244H144.767C144.767 40.4244 144.767 40.4244 144.767 40.3329L149.403 24.9618C149.439 24.7857 149.51 24.6189 149.613 24.4718C149.717 24.3246 149.849 24.2003 150.002 24.1067C150.156 24.013 150.327 23.952 150.505 23.9275C150.683 23.9029 150.864 23.9153 151.037 23.964C151.21 24.0126 151.371 24.0964 151.51 24.2102C151.649 24.3239 151.763 24.4651 151.845 24.6249C151.927 24.7848 151.975 24.9598 151.986 25.1391C151.998 25.3184 151.972 25.4982 151.911 25.667L147.457 40.4244H151.284C151.284 40.4244 151.284 40.4244 151.284 40.3329L155.92 24.9618C156.032 24.652 156.258 24.3962 156.551 24.2457C156.844 24.0953 157.184 24.0612 157.501 24.1505C157.818 24.2397 158.09 24.4456 158.262 24.7269C158.434 25.0082 158.493 25.344 158.427 25.667L153.974 40.4244H157.8C157.8 40.4244 157.8 40.4244 157.8 40.3329L162.437 24.9618C162.549 24.652 162.775 24.3962 163.068 24.2457C163.361 24.0953 163.7 24.0612 164.018 24.1505C164.335 24.2397 164.607 24.4456 164.779 24.7269C164.95 25.0082 165.009 25.344 164.944 25.667L160.491 40.4244H164.317C164.317 40.4244 164.317 40.4244 164.317 40.3329L168.953 24.9618C169.066 24.652 169.291 24.3962 169.585 24.2457C169.878 24.0953 170.217 24.0612 170.534 24.1505C170.852 24.2397 171.123 24.4456 171.295 24.7269C171.467 25.0082 171.526 25.344 171.461 25.667L167.007 40.4244H170.834C170.834 40.4244 170.834 40.4244 170.834 40.3329L175.47 24.9618C175.506 24.7857 175.577 24.6189 175.68 24.4718C175.784 24.3246 175.916 24.2003 176.069 24.1067C176.223 24.013 176.394 23.952 176.571 23.9275C176.749 23.9029 176.931 23.9153 177.104 23.964C177.276 24.0126 177.438 24.0964 177.577 24.2102C177.716 24.3239 177.83 24.4651 177.912 24.6249C177.994 24.7848 178.042 24.9598 178.053 25.1391C178.065 25.3184 178.039 25.4982 177.977 25.667L173.524 40.4244H177.351C177.351 40.4244 177.351 40.4244 177.351 40.3329L181.987 24.9618C182.022 24.7857 182.094 24.6189 182.197 24.4718C182.3 24.3246 182.433 24.2003 182.586 24.1067C182.739 24.013 182.91 23.952 183.088 23.9275C183.266 23.9029 183.447 23.9153 183.62 23.964C183.793 24.0126 183.954 24.0964 184.093 24.2102C184.232 24.3239 184.347 24.4651 184.429 24.6249C184.511 24.7848 184.559 24.9598 184.57 25.1391C184.581 25.3184 184.556 25.4982 184.494 25.667L180.041 40.4244H293.372C293.503 38.1128 294.378 22.4413 294.051 20.0645Z" fill="black"/>
</svg>
