<svg width="512" height="512" viewBox="0 0 512 512" fill="none" xmlns="http://www.w3.org/2000/svg">
<path d="M309.539 324H217.539V372.98H309.539V324Z" fill="black"/>
<path d="M315.539 376V380.8C315.539 384.78 312.499 388 308.759 388H218.319C214.579 388 211.539 384.78 211.539 380.8V376H315.539Z" fill="black"/>
<path d="M217.277 102.301V318.001H309.277V102.301H217.277ZM300.277 260.001C300.277 262.21 298.486 264.001 296.277 264.001H228.277C227.173 264.001 226.277 263.105 226.277 262.001V118.001C226.277 115.792 228.068 114.001 230.277 114.001H296.277C298.486 114.001 300.277 115.792 300.277 118.001V260.001Z" fill="black"/>
<path d="M242 138C246.418 138 250 134.418 250 130C250 125.582 246.418 122 242 122C237.582 122 234 125.582 234 130C234 134.418 237.582 138 242 138Z" fill="black"/>
<path d="M242 162C246.418 162 250 158.418 250 154C250 149.582 246.418 146 242 146C237.582 146 234 149.582 234 154C234 158.418 237.582 162 242 162Z" fill="black"/>
<path d="M242 186C246.418 186 250 182.418 250 178C250 173.582 246.418 170 242 170C237.582 170 234 173.582 234 178C234 182.418 237.582 186 242 186Z" fill="black"/>
<path d="M242 210C246.418 210 250 206.418 250 202C250 197.582 246.418 194 242 194C237.582 194 234 197.582 234 202C234 206.418 237.582 210 242 210Z" fill="black"/>
<path d="M242 234C246.418 234 250 230.418 250 226C250 221.582 246.418 218 242 218C237.582 218 234 221.582 234 226C234 230.418 237.582 234 242 234Z" fill="black"/>
<path d="M242 258C246.418 258 250 254.418 250 250C250 245.582 246.418 242 242 242C237.582 242 234 245.582 234 250C234 254.418 237.582 258 242 258Z" fill="black"/>
<path d="M263.199 150C267.618 150 271.199 146.418 271.199 142C271.199 137.582 267.618 134 263.199 134C258.781 134 255.199 137.582 255.199 142C255.199 146.418 258.781 150 263.199 150Z" fill="black"/>
<path d="M263.199 174C267.618 174 271.199 170.418 271.199 166C271.199 161.582 267.618 158 263.199 158C258.781 158 255.199 161.582 255.199 166C255.199 170.418 258.781 174 263.199 174Z" fill="black"/>
<path d="M263.199 198C267.618 198 271.199 194.418 271.199 190C271.199 185.582 267.618 182 263.199 182C258.781 182 255.199 185.582 255.199 190C255.199 194.418 258.781 198 263.199 198Z" fill="black"/>
<path d="M263.199 222C267.618 222 271.199 218.418 271.199 214C271.199 209.582 267.618 206 263.199 206C258.781 206 255.199 209.582 255.199 214C255.199 218.418 258.781 222 263.199 222Z" fill="black"/>
<path d="M263.199 246C267.618 246 271.199 242.418 271.199 238C271.199 233.582 267.618 230 263.199 230C258.781 230 255.199 233.582 255.199 238C255.199 242.418 258.781 246 263.199 246Z" fill="black"/>
<path d="M285 138C289.418 138 293 134.418 293 130C293 125.582 289.418 122 285 122C280.582 122 277 125.582 277 130C277 134.418 280.582 138 285 138Z" fill="black"/>
<path d="M285 161.199C289.418 161.199 293 157.617 293 153.199C293 148.781 289.418 145.199 285 145.199C280.582 145.199 277 148.781 277 153.199C277 157.617 280.582 161.199 285 161.199Z" fill="black"/>
<path d="M285 184.4C289.418 184.4 293 180.819 293 176.4C293 171.982 289.418 168.4 285 168.4C280.582 168.4 277 171.982 277 176.4C277 180.819 280.582 184.4 285 184.4Z" fill="black"/>
<path d="M285 207.6C289.418 207.6 293 204.018 293 199.6C293 195.181 289.418 191.6 285 191.6C280.582 191.6 277 195.181 277 199.6C277 204.018 280.582 207.6 285 207.6Z" fill="black"/>
<path d="M285 230.801C289.418 230.801 293 227.219 293 222.801C293 218.383 289.418 214.801 285 214.801C280.582 214.801 277 218.383 277 222.801C277 227.219 280.582 230.801 285 230.801Z" fill="black"/>
<path d="M285 254C289.418 254 293 250.418 293 246C293 241.582 289.418 238 285 238C280.582 238 277 241.582 277 246C277 250.418 280.582 254 285 254Z" fill="black"/>
</svg>
