<svg width="512" height="512" viewBox="0 0 512 512" fill="none" xmlns="http://www.w3.org/2000/svg">
<path d="M125.859 292V326.34H164.559V286H129.079V292" fill="black"/>
<path d="M114 325.721C114 328.681 116.54 331.081 119.68 331.081H123.48V292.001H121.26C117.28 292.001 114.06 288.961 114.06 285.221" fill="black"/>
<path d="M211.961 285.74V315.02C211.961 317.229 213.752 319.02 215.961 319.02H326.461C328.67 319.02 330.461 317.229 330.461 315.02V285.74H339.721V326.12H169.301V286L211.961 285.74Z" fill="black"/>
<path d="M308.34 296.041C311.84 296.041 314.659 293.221 314.659 289.721C314.659 288.201 314.099 286.821 313.199 285.721H303.48C302.58 286.821 302.02 288.201 302.02 289.721C302.02 293.221 304.86 296.041 308.34 296.041Z" fill="black"/>
<path d="M289.379 296.041C292.879 296.041 295.699 293.221 295.699 289.721C295.699 288.201 295.139 286.821 294.239 285.721H284.519C283.619 286.821 283.059 288.201 283.059 289.721C283.059 293.221 285.899 296.041 289.379 296.041Z" fill="black"/>
<path d="M270.422 296.041C273.922 296.041 276.742 293.221 276.742 289.721C276.742 288.201 276.182 286.821 275.282 285.721H265.562C264.662 286.821 264.102 288.201 264.102 289.721C264.102 293.221 266.942 296.041 270.422 296.041Z" fill="black"/>
<path d="M251.461 296.041C254.961 296.041 257.781 293.221 257.781 289.721C257.781 288.201 257.221 286.821 256.321 285.721H246.601C245.701 286.821 245.141 288.201 245.141 289.721C245.141 293.221 247.981 296.041 251.461 296.041Z" fill="black"/>
<path d="M232.5 296.041C236 296.041 238.82 293.221 238.82 289.721C238.82 288.201 238.26 286.821 237.36 285.721H227.64C226.74 286.821 226.18 288.201 226.18 289.721C226.18 293.221 229.02 296.041 232.5 296.041Z" fill="black"/>
<path d="M317.82 313.281C321.31 313.281 324.14 310.451 324.14 306.961C324.14 303.47 321.31 300.641 317.82 300.641C314.33 300.641 311.5 303.47 311.5 306.961C311.5 310.451 314.33 313.281 317.82 313.281Z" fill="black"/>
<path d="M299.5 313.281C302.99 313.281 305.82 310.451 305.82 306.961C305.82 303.47 302.99 300.641 299.5 300.641C296.009 300.641 293.18 303.47 293.18 306.961C293.18 310.451 296.009 313.281 299.5 313.281Z" fill="black"/>
<path d="M281.16 313.281C284.65 313.281 287.48 310.451 287.48 306.961C287.48 303.47 284.65 300.641 281.16 300.641C277.669 300.641 274.84 303.47 274.84 306.961C274.84 310.451 277.669 313.281 281.16 313.281Z" fill="black"/>
<path d="M262.84 313.281C266.33 313.281 269.159 310.451 269.159 306.961C269.159 303.47 266.33 300.641 262.84 300.641C259.349 300.641 256.52 303.47 256.52 306.961C256.52 310.451 259.349 313.281 262.84 313.281Z" fill="black"/>
<path d="M244.519 313.281C248.01 313.281 250.839 310.451 250.839 306.961C250.839 303.47 248.01 300.641 244.519 300.641C241.029 300.641 238.199 303.47 238.199 306.961C238.199 310.451 241.029 313.281 244.519 313.281Z" fill="black"/>
<path d="M226.179 300.641C222.679 300.641 219.859 303.461 219.859 306.961C219.859 310.461 222.679 313.281 226.179 313.281C229.679 313.281 232.499 310.461 232.499 306.961C232.499 303.461 229.679 300.641 226.179 300.641Z" fill="black"/>
<path d="M178.058 247.44V188H129.078V247.66V280H164.558H169.298H178.058V247.44Z" fill="black"/>
<path d="M126.059 247.66V182H121.259C117.279 182 114.059 185.04 114.059 188.78V247.78V279.22C114.059 282.96 117.279 286 121.259 286H123.479H125.859H126.059V247.66Z" fill="black"/>
<path d="M211.959 279.74H227.639H237.359H246.599H256.319H265.559H275.279H284.519H294.239H303.479H313.199H330.459H339.699H399.759V187.74H184.059V247.46V279.74H211.959ZM238.059 262.06V254.56V247.46V200.74C238.059 198.531 239.849 196.74 242.059 196.74H384.059C386.268 196.74 388.059 198.531 388.059 200.74V266.74C388.059 268.949 386.268 270.74 384.059 270.74H339.719H330.479H322.899H312.779H303.939H293.819H284.979H274.859H266.019H255.899H247.059H242.079C239.869 270.74 238.079 268.949 238.079 266.74V262.06H238.059Z" fill="black"/>
<path d="M372.059 220.461C376.477 220.461 380.059 216.879 380.059 212.461C380.059 208.043 376.477 204.461 372.059 204.461C367.64 204.461 364.059 208.043 364.059 212.461C364.059 216.879 367.64 220.461 372.059 220.461Z" fill="black"/>
<path d="M348.059 220.461C352.477 220.461 356.059 216.879 356.059 212.461C356.059 208.043 352.477 204.461 348.059 204.461C343.64 204.461 340.059 208.043 340.059 212.461C340.059 216.879 343.64 220.461 348.059 220.461Z" fill="black"/>
<path d="M324.059 220.461C328.477 220.461 332.059 216.879 332.059 212.461C332.059 208.043 328.477 204.461 324.059 204.461C319.64 204.461 316.059 208.043 316.059 212.461C316.059 216.879 319.64 220.461 324.059 220.461Z" fill="black"/>
<path d="M300.059 220.461C304.477 220.461 308.059 216.879 308.059 212.461C308.059 208.043 304.477 204.461 300.059 204.461C295.64 204.461 292.059 208.043 292.059 212.461C292.059 216.879 295.64 220.461 300.059 220.461Z" fill="black"/>
<path d="M276.059 220.461C280.477 220.461 284.059 216.879 284.059 212.461C284.059 208.043 280.477 204.461 276.059 204.461C271.64 204.461 268.059 208.043 268.059 212.461C268.059 216.879 271.64 220.461 276.059 220.461Z" fill="black"/>
<path d="M252.059 220.461C256.477 220.461 260.059 216.879 260.059 212.461C260.059 208.043 256.477 204.461 252.059 204.461C247.64 204.461 244.059 208.043 244.059 212.461C244.059 216.879 247.64 220.461 252.059 220.461Z" fill="black"/>
<path d="M360.059 241.66C364.477 241.66 368.059 238.078 368.059 233.66C368.059 229.242 364.477 225.66 360.059 225.66C355.64 225.66 352.059 229.242 352.059 233.66C352.059 238.078 355.64 241.66 360.059 241.66Z" fill="black"/>
<path d="M336.059 241.66C340.477 241.66 344.059 238.078 344.059 233.66C344.059 229.242 340.477 225.66 336.059 225.66C331.64 225.66 328.059 229.242 328.059 233.66C328.059 238.078 331.64 241.66 336.059 241.66Z" fill="black"/>
<path d="M312.059 241.66C316.477 241.66 320.059 238.078 320.059 233.66C320.059 229.242 316.477 225.66 312.059 225.66C307.64 225.66 304.059 229.242 304.059 233.66C304.059 238.078 307.64 241.66 312.059 241.66Z" fill="black"/>
<path d="M288.059 241.66C292.477 241.66 296.059 238.078 296.059 233.66C296.059 229.242 292.477 225.66 288.059 225.66C283.64 225.66 280.059 229.242 280.059 233.66C280.059 238.078 283.64 241.66 288.059 241.66Z" fill="black"/>
<path d="M264.059 241.66C268.477 241.66 272.059 238.078 272.059 233.66C272.059 229.242 268.477 225.66 264.059 225.66C259.64 225.66 256.059 229.242 256.059 233.66C256.059 238.078 259.64 241.66 264.059 241.66Z" fill="black"/>
<path d="M372.059 263.461C376.477 263.461 380.059 259.879 380.059 255.461C380.059 251.043 376.477 247.461 372.059 247.461C367.64 247.461 364.059 251.043 364.059 255.461C364.059 259.879 367.64 263.461 372.059 263.461Z" fill="black"/>
<path d="M348.859 263.461C353.278 263.461 356.859 259.879 356.859 255.461C356.859 251.043 353.278 247.461 348.859 247.461C344.441 247.461 340.859 251.043 340.859 255.461C340.859 259.879 344.441 263.461 348.859 263.461Z" fill="black"/>
<path d="M319.96 261.061C320.7 261.821 321.58 262.421 322.56 262.841C323.52 263.241 324.56 263.461 325.66 263.461C327.48 263.461 329.12 262.841 330.46 261.821C332.38 260.361 333.66 258.061 333.66 255.461C333.66 251.041 330.08 247.461 325.66 247.461C321.54 247.461 318.2 250.581 317.76 254.561C317.72 254.861 317.66 255.161 317.66 255.461C317.66 257.641 318.54 259.621 319.96 261.061Z" fill="black"/>
<path d="M296.757 261.061C298.217 262.541 300.237 263.461 302.457 263.461C302.977 263.461 303.497 263.401 303.977 263.301C307.657 262.581 310.457 259.341 310.457 255.461C310.457 255.161 310.397 254.861 310.357 254.561C309.897 250.561 306.557 247.461 302.457 247.461C298.337 247.461 294.997 250.581 294.557 254.561C294.517 254.861 294.457 255.161 294.457 255.461C294.457 257.641 295.337 259.601 296.757 261.061Z" fill="black"/>
<path d="M275.478 262.459C276.598 263.059 277.878 263.439 279.258 263.439C280.938 263.439 282.498 262.919 283.798 262.019C285.878 260.579 287.258 258.179 287.258 255.439C287.258 255.139 287.198 254.839 287.158 254.539C286.698 250.539 283.358 247.439 279.258 247.439C275.138 247.439 271.798 250.559 271.358 254.539C271.318 254.839 271.258 255.139 271.258 255.439C271.258 258.499 272.978 261.119 275.478 262.459Z" fill="black"/>
<path d="M261.999 260.759C263.259 259.339 264.059 257.499 264.059 255.439C264.059 255.139 263.999 254.839 263.959 254.539C263.499 250.539 260.159 247.439 256.059 247.439C251.939 247.439 248.599 250.559 248.159 254.539C248.119 254.839 248.059 255.139 248.059 255.439C248.059 259.739 251.459 263.219 255.719 263.399C255.839 263.399 255.939 263.439 256.059 263.439C258.419 263.459 260.539 262.399 261.999 260.759Z" fill="black"/>
</svg>
