<svg width="512" height="512" viewBox="0 0 512 512" fill="none" xmlns="http://www.w3.org/2000/svg">
<path d="M127.29 248.686C130.055 248.6 132.809 248.288 135.524 247.753C137.426 247.366 139.136 246.336 140.368 244.837C141.6 243.337 142.279 241.459 142.29 239.519V236.503L137.528 229.062L132.687 230.233C132.34 230.309 132.025 230.491 131.787 230.755C131.549 231.018 131.399 231.349 131.357 231.701C130.979 235.457 129.502 239.018 127.111 241.939L127.29 248.686Z" fill="black"/>
<path d="M138.242 263.507V248.904C137.543 249.253 136.803 249.513 136.04 249.678C133.175 250.245 130.268 250.576 127.349 250.67L127.766 266.841L132.111 263.15L138.242 263.507Z" fill="black"/>
<path d="M125.147 242.316L112.825 243.249L113.44 268.963L125.821 268.408L125.147 242.316Z" fill="black"/>
<path d="M189.73 260.372C189.764 259.946 189.71 259.518 189.57 259.114C189.431 258.71 189.209 258.339 188.919 258.025C188.629 257.711 188.278 257.461 187.886 257.289C187.495 257.118 187.072 257.029 186.645 257.029C186.217 257.029 185.795 257.118 185.403 257.289C185.012 257.461 184.66 257.711 184.37 258.025C184.08 258.339 183.859 258.71 183.719 259.114C183.58 259.518 183.525 259.946 183.559 260.372C183.564 261.166 183.873 261.928 184.423 262.5C184.973 263.073 185.723 263.412 186.516 263.448C186.931 263.464 187.344 263.396 187.732 263.249C188.12 263.102 188.475 262.878 188.775 262.591C189.075 262.304 189.314 261.96 189.478 261.579C189.642 261.197 189.728 260.787 189.73 260.372Z" fill="black"/>
<path d="M143.639 243.051C142.951 244.883 141.77 246.49 140.226 247.694V263.567L147.29 263.983L152.329 250.729L143.639 243.051Z" fill="black"/>
<path d="M286.913 238.627H283.163V240.254H286.913V238.627Z" fill="black"/>
<path d="M421.476 228.43H430.821V215.374L427.905 212.438H419.73L416.119 216.049V223.072L421.476 228.43Z" fill="black"/>
<path d="M157.309 240.255H255.821L265.901 234.263V230.076H156.714L151.972 232.616L157.309 240.255Z" fill="black"/>
<path d="M310.008 229.439V243.328H404.055V229.439H310.008ZM320.405 235.392C320.302 235.469 320.176 235.511 320.047 235.511C319.919 235.511 319.793 235.469 319.69 235.392L316.417 232.336C316.371 232.297 316.334 232.249 316.308 232.194C316.283 232.139 316.27 232.079 316.27 232.019C316.27 231.958 316.283 231.899 316.308 231.844C316.334 231.789 316.371 231.74 316.417 231.701C316.461 231.654 316.515 231.616 316.575 231.59C316.634 231.564 316.699 231.551 316.764 231.551C316.829 231.551 316.893 231.564 316.953 231.59C317.013 231.616 317.066 231.654 317.111 231.701L320.405 234.737C320.483 234.824 320.526 234.937 320.526 235.055C320.526 235.172 320.483 235.285 320.405 235.372V235.392ZM321.317 241.562C321.255 241.565 321.192 241.555 321.134 241.534C321.075 241.512 321.021 241.48 320.975 241.437C320.929 241.395 320.891 241.344 320.865 241.287C320.839 241.23 320.824 241.169 320.821 241.106V236.801C320.821 236.669 320.874 236.543 320.967 236.45C321.06 236.357 321.186 236.305 321.317 236.305C321.449 236.305 321.575 236.357 321.668 236.45C321.761 236.543 321.813 236.669 321.813 236.801V241.106C321.794 241.222 321.733 241.326 321.641 241.399C321.55 241.473 321.434 241.509 321.317 241.503V241.562ZM326.159 232.336L322.865 235.392C322.763 235.472 322.637 235.514 322.508 235.511C322.385 235.511 322.266 235.469 322.17 235.392C322.124 235.351 322.087 235.301 322.061 235.244C322.036 235.188 322.023 235.126 322.023 235.064C322.023 235.003 322.036 234.941 322.061 234.885C322.087 234.828 322.124 234.778 322.17 234.737L325.444 231.701C325.54 231.609 325.668 231.558 325.801 231.558C325.935 231.558 326.063 231.609 326.159 231.701C326.201 231.74 326.235 231.788 326.259 231.841C326.282 231.894 326.294 231.951 326.294 232.009C326.294 232.067 326.282 232.124 326.259 232.177C326.235 232.23 326.201 232.277 326.159 232.316V232.336ZM334.294 238.289L331 241.503C330.953 241.55 330.897 241.586 330.836 241.61C330.774 241.634 330.709 241.645 330.643 241.642C330.58 241.643 330.518 241.631 330.46 241.608C330.402 241.584 330.349 241.548 330.305 241.503C330.259 241.462 330.222 241.412 330.196 241.355C330.171 241.299 330.158 241.238 330.158 241.176C330.158 241.114 330.171 241.052 330.196 240.996C330.222 240.94 330.259 240.889 330.305 240.848L333.579 237.812C333.677 237.725 333.805 237.676 333.936 237.676C334.068 237.676 334.195 237.725 334.294 237.812C334.352 237.893 334.383 237.991 334.383 238.09C334.383 238.19 334.352 238.287 334.294 238.368V238.289ZM335.127 236.682C335.064 236.684 335.002 236.674 334.943 236.653C334.884 236.631 334.83 236.599 334.784 236.556C334.738 236.514 334.701 236.463 334.675 236.406C334.648 236.349 334.633 236.288 334.631 236.225V231.92C334.631 231.788 334.683 231.662 334.776 231.569C334.869 231.476 334.995 231.424 335.127 231.424C335.258 231.424 335.385 231.476 335.478 231.569C335.571 231.662 335.623 231.788 335.623 231.92V236.225C335.632 236.294 335.625 236.364 335.604 236.431C335.583 236.497 335.547 236.558 335.5 236.609C335.453 236.66 335.395 236.7 335.33 236.726C335.266 236.753 335.196 236.764 335.127 236.761V236.682ZM340.047 241.324C340.001 241.371 339.945 241.407 339.883 241.431C339.822 241.455 339.756 241.466 339.69 241.463C339.63 241.496 339.564 241.516 339.496 241.523C339.428 241.53 339.359 241.523 339.294 241.503L336.02 238.467C335.973 238.426 335.936 238.376 335.911 238.319C335.885 238.263 335.872 238.202 335.872 238.14C335.872 238.078 335.885 238.017 335.911 237.96C335.936 237.904 335.973 237.853 336.02 237.812C336.115 237.726 336.238 237.678 336.367 237.678C336.495 237.678 336.619 237.726 336.714 237.812L340.008 240.848C340.057 240.886 340.097 240.934 340.126 240.989C340.155 241.044 340.172 241.105 340.176 241.167C340.18 241.229 340.17 241.291 340.148 241.349C340.126 241.407 340.092 241.459 340.047 241.503V241.324ZM348.182 235.372C348.079 235.449 347.954 235.491 347.825 235.491C347.696 235.491 347.571 235.449 347.468 235.372L344.194 232.316C344.148 232.277 344.111 232.229 344.086 232.174C344.061 232.119 344.048 232.059 344.048 231.999C344.048 231.939 344.061 231.879 344.086 231.824C344.111 231.769 344.148 231.721 344.194 231.682C344.239 231.634 344.293 231.596 344.352 231.57C344.412 231.545 344.476 231.531 344.542 231.531C344.607 231.531 344.671 231.545 344.731 231.57C344.79 231.596 344.844 231.634 344.889 231.682L348.182 234.717C348.266 234.806 348.313 234.923 348.313 235.045C348.313 235.166 348.266 235.284 348.182 235.372ZM349.095 241.543C349.033 241.545 348.97 241.536 348.911 241.514C348.853 241.493 348.799 241.46 348.752 241.417C348.706 241.375 348.669 241.324 348.643 241.267C348.616 241.21 348.602 241.149 348.599 241.086V236.781C348.599 236.649 348.651 236.523 348.744 236.43C348.837 236.337 348.964 236.285 349.095 236.285C349.227 236.285 349.353 236.337 349.446 236.43C349.539 236.523 349.591 236.649 349.591 236.781V241.086C349.576 241.206 349.517 241.315 349.425 241.392C349.333 241.469 349.215 241.509 349.095 241.503V241.543ZM353.936 232.316L350.643 235.372C350.541 235.452 350.415 235.494 350.286 235.491C350.163 235.491 350.044 235.449 349.948 235.372C349.902 235.331 349.865 235.281 349.839 235.224C349.814 235.168 349.8 235.107 349.8 235.045C349.8 234.983 349.814 234.921 349.839 234.865C349.865 234.809 349.902 234.758 349.948 234.717L353.222 231.682C353.318 231.589 353.446 231.538 353.579 231.538C353.712 231.538 353.84 231.589 353.936 231.682C353.982 231.721 354.019 231.769 354.045 231.824C354.07 231.879 354.083 231.939 354.083 231.999C354.083 232.059 354.07 232.119 354.045 232.174C354.019 232.229 353.982 232.277 353.936 232.316ZM362.071 238.269L358.778 241.503C358.731 241.55 358.675 241.586 358.614 241.61C358.552 241.634 358.486 241.645 358.421 241.642C358.358 241.643 358.295 241.631 358.237 241.608C358.179 241.584 358.127 241.548 358.083 241.503C358.037 241.462 358 241.412 357.974 241.355C357.949 241.299 357.935 241.238 357.935 241.176C357.935 241.114 357.949 241.052 357.974 240.996C358 240.94 358.037 240.889 358.083 240.848L361.357 237.812C361.455 237.725 361.582 237.676 361.714 237.676C361.846 237.676 361.973 237.725 362.071 237.812C362.129 237.893 362.161 237.991 362.161 238.09C362.161 238.19 362.129 238.287 362.071 238.368V238.269ZM362.905 236.662C362.842 236.664 362.78 236.655 362.721 236.633C362.662 236.612 362.608 236.579 362.562 236.536C362.516 236.494 362.479 236.443 362.452 236.386C362.426 236.329 362.411 236.268 362.409 236.205V231.9C362.409 231.768 362.461 231.642 362.554 231.549C362.647 231.456 362.773 231.404 362.905 231.404C363.036 231.404 363.162 231.456 363.255 231.549C363.348 231.642 363.401 231.768 363.401 231.9V236.205C363.413 236.276 363.409 236.348 363.389 236.417C363.369 236.486 363.334 236.549 363.286 236.603C363.239 236.656 363.18 236.698 363.114 236.725C363.048 236.753 362.976 236.765 362.905 236.761V236.662ZM367.825 241.305C367.779 241.351 367.723 241.388 367.661 241.411C367.6 241.435 367.534 241.446 367.468 241.443C367.409 241.479 367.344 241.503 367.276 241.513C367.208 241.524 367.138 241.52 367.071 241.503L363.797 238.467C363.751 238.426 363.714 238.376 363.688 238.319C363.663 238.263 363.65 238.202 363.65 238.14C363.65 238.078 363.663 238.017 363.688 237.96C363.714 237.904 363.751 237.853 363.797 237.812C363.892 237.726 364.016 237.678 364.145 237.678C364.273 237.678 364.397 237.726 364.492 237.812L367.786 240.848C367.835 240.886 367.875 240.934 367.904 240.989C367.933 241.044 367.95 241.105 367.954 241.167C367.957 241.229 367.948 241.291 367.926 241.349C367.904 241.407 367.869 241.459 367.825 241.503V241.305ZM375.96 235.352C375.857 235.429 375.732 235.471 375.603 235.471C375.474 235.471 375.349 235.429 375.246 235.352L371.972 232.297C371.926 232.257 371.889 232.209 371.864 232.154C371.838 232.099 371.825 232.04 371.825 231.979C371.825 231.919 371.838 231.859 371.864 231.804C371.889 231.749 371.926 231.701 371.972 231.662C372.017 231.614 372.07 231.576 372.13 231.551C372.19 231.525 372.254 231.511 372.319 231.511C372.384 231.511 372.449 231.525 372.508 231.551C372.568 231.576 372.622 231.614 372.667 231.662L375.96 234.697C376.005 234.742 376.04 234.794 376.064 234.852C376.088 234.91 376.1 234.972 376.1 235.035C376.1 235.097 376.088 235.159 376.064 235.217C376.04 235.275 376.005 235.328 375.96 235.372V235.352ZM376.873 241.523C376.81 241.525 376.748 241.516 376.689 241.494C376.63 241.473 376.576 241.44 376.53 241.397C376.484 241.355 376.447 241.304 376.421 241.247C376.394 241.19 376.379 241.129 376.377 241.066V236.761C376.377 236.629 376.429 236.503 376.522 236.41C376.615 236.317 376.741 236.265 376.873 236.265C377.004 236.265 377.131 236.317 377.224 236.41C377.317 236.503 377.369 236.629 377.369 236.761V241.066C377.359 241.189 377.301 241.303 377.209 241.385C377.116 241.466 376.996 241.509 376.873 241.503V241.523ZM381.714 232.297L378.421 235.352C378.319 235.432 378.193 235.474 378.063 235.471C377.941 235.471 377.822 235.429 377.726 235.352C377.68 235.311 377.642 235.261 377.617 235.204C377.591 235.148 377.578 235.087 377.578 235.025C377.578 234.963 377.591 234.902 377.617 234.845C377.642 234.789 377.68 234.738 377.726 234.697L381 231.662C381.096 231.57 381.224 231.518 381.357 231.518C381.49 231.518 381.618 231.57 381.714 231.662C381.764 231.701 381.804 231.75 381.831 231.807C381.859 231.864 381.873 231.926 381.873 231.989C381.873 232.052 381.859 232.114 381.831 232.171C381.804 232.228 381.764 232.277 381.714 232.316V232.297ZM389.849 238.249L386.555 241.503C386.509 241.55 386.453 241.586 386.391 241.61C386.33 241.634 386.264 241.645 386.198 241.642C386.136 241.643 386.073 241.631 386.015 241.608C385.957 241.584 385.905 241.548 385.861 241.503C385.815 241.462 385.777 241.412 385.752 241.355C385.726 241.299 385.713 241.238 385.713 241.176C385.713 241.114 385.726 241.052 385.752 240.996C385.777 240.94 385.815 240.889 385.861 240.848L389.135 237.812C389.233 237.725 389.36 237.676 389.492 237.676C389.624 237.676 389.751 237.725 389.849 237.812C389.907 237.893 389.938 237.991 389.938 238.09C389.938 238.19 389.907 238.287 389.849 238.368V238.249ZM390.682 236.642C390.62 236.645 390.557 236.635 390.499 236.613C390.44 236.592 390.386 236.559 390.34 236.517C390.294 236.474 390.256 236.423 390.23 236.366C390.204 236.309 390.189 236.248 390.186 236.185V231.88C390.186 231.748 390.239 231.622 390.332 231.529C390.425 231.436 390.551 231.384 390.682 231.384C390.814 231.384 390.94 231.436 391.033 231.529C391.126 231.622 391.178 231.748 391.178 231.88V236.185C391.194 236.257 391.193 236.332 391.174 236.403C391.156 236.475 391.122 236.541 391.074 236.597C391.026 236.652 390.965 236.696 390.897 236.725C390.829 236.753 390.756 236.766 390.682 236.761V236.642ZM395.603 241.285C395.556 241.331 395.501 241.368 395.439 241.392C395.378 241.416 395.312 241.426 395.246 241.424C395.189 241.463 395.124 241.49 395.056 241.504C394.987 241.517 394.917 241.517 394.849 241.503L391.575 238.467C391.529 238.426 391.492 238.376 391.466 238.319C391.441 238.263 391.427 238.202 391.427 238.14C391.427 238.078 391.441 238.017 391.466 237.96C391.492 237.904 391.529 237.853 391.575 237.812C391.67 237.726 391.794 237.678 391.922 237.678C392.051 237.678 392.175 237.726 392.27 237.812L395.563 240.848C395.612 240.886 395.653 240.934 395.682 240.989C395.711 241.044 395.728 241.105 395.731 241.167C395.735 241.229 395.726 241.291 395.704 241.349C395.681 241.407 395.647 241.459 395.603 241.503V241.285Z" fill="black"/>
<path d="M154.254 251.426L151 259.957H181.615C181.708 259.022 182.06 258.131 182.631 257.384C183.202 256.637 183.97 256.064 184.849 255.73C185.727 255.395 186.681 255.312 187.605 255.489C188.528 255.667 189.383 256.098 190.075 256.734C190.767 257.371 191.268 258.188 191.522 259.093C191.775 259.998 191.772 260.956 191.511 261.859C191.251 262.763 190.744 263.576 190.047 264.207C189.351 264.838 188.492 265.263 187.567 265.433V266.525H213.044L214.393 265.275C213.448 265.082 212.565 264.662 211.819 264.053C211.072 263.443 210.485 262.661 210.108 261.774C209.73 260.888 209.573 259.922 209.651 258.962C209.729 258.001 210.039 257.074 210.555 256.259C211.07 255.445 211.776 254.768 212.61 254.287C213.445 253.805 214.385 253.533 215.348 253.495C216.311 253.457 217.269 253.653 218.139 254.067C219.01 254.48 219.767 255.099 220.345 255.87L227.627 251.068L154.254 251.426Z" fill="black"/>
<path d="M286.913 233.25H283.163V234.956H286.913V233.25Z" fill="black"/>
<path d="M281.179 240.255V230.076H267.885V235.394L259.71 240.255H281.179Z" fill="black"/>
<path d="M286.913 235.949H283.163V237.656H286.913V235.949Z" fill="black"/>
<path d="M286.913 230.076H283.163V232.259H286.913V230.076Z" fill="black"/>
<path d="M316.298 256.187C316.63 256.147 316.936 255.986 317.158 255.736C317.38 255.486 317.502 255.162 317.502 254.828C317.502 254.493 317.38 254.17 317.158 253.92C316.936 253.669 316.63 253.509 316.298 253.469C315.965 253.509 315.66 253.669 315.438 253.92C315.216 254.17 315.093 254.493 315.093 254.828C315.093 255.162 315.216 255.486 315.438 255.736C315.66 255.986 315.965 256.147 316.298 256.187Z" fill="black"/>
<path d="M215.563 255.393C214.779 255.393 214.011 255.625 213.359 256.061C212.706 256.497 212.198 257.117 211.897 257.842C211.597 258.567 211.518 259.365 211.671 260.135C211.825 260.905 212.203 261.612 212.757 262.167C213.312 262.722 214.02 263.1 214.789 263.253C215.559 263.406 216.357 263.327 217.082 263.027C217.807 262.727 218.427 262.218 218.863 261.565C219.299 260.913 219.532 260.146 219.532 259.361C219.532 258.308 219.114 257.299 218.369 256.555C217.625 255.811 216.616 255.393 215.563 255.393Z" fill="black"/>
<path d="M327.21 256.187C327.483 256.191 327.75 256.114 327.978 255.965C328.207 255.816 328.385 255.602 328.491 255.351C328.597 255.1 328.626 254.823 328.574 254.556C328.522 254.289 328.391 254.043 328.198 253.85C328.006 253.658 327.76 253.527 327.492 253.475C327.225 253.422 326.948 253.451 326.697 253.557C326.446 253.663 326.233 253.842 326.084 254.07C325.935 254.298 325.857 254.566 325.861 254.838C325.866 255.194 326.01 255.534 326.262 255.786C326.514 256.038 326.854 256.182 327.21 256.187Z" fill="black"/>
<path d="M310.603 264.678V300.392H323.421C323.678 300.39 323.932 300.332 324.165 300.222C324.398 300.113 324.604 299.954 324.77 299.757L331.199 291.94V264.698H310.603V264.678Z" fill="black"/>
<path d="M336.972 251.188H333.441V254.521H336.972V251.188Z" fill="black"/>
<path d="M463.52 236.96H435.167V244.599H415.96V233.369H405.048V245.333H309.016H288.897V254.579H309.254V249.202H332.428H333.44H430.206V245.889H463.52V236.96Z" fill="black"/>
<path d="M323.46 259.719H318.341V263.687H323.46V259.719Z" fill="black"/>
<path d="M311.734 258.727H330.94C331.074 258.727 331.202 258.676 331.298 258.583C331.395 258.491 331.451 258.365 331.456 258.231V251.188H311.238V258.231C311.238 258.363 311.29 258.489 311.383 258.582C311.476 258.675 311.603 258.727 311.734 258.727ZM327.21 252.477C327.678 252.473 328.137 252.608 328.527 252.865C328.918 253.122 329.224 253.49 329.406 253.921C329.588 254.352 329.637 254.827 329.548 255.287C329.459 255.746 329.236 256.169 328.907 256.501C328.577 256.833 328.157 257.06 327.698 257.153C327.24 257.245 326.764 257.2 326.331 257.022C325.899 256.843 325.529 256.541 325.268 256.152C325.008 255.763 324.869 255.306 324.869 254.838C324.869 254.216 325.115 253.618 325.554 253.176C325.992 252.733 326.588 252.482 327.21 252.477ZM316.298 252.477C316.765 252.473 317.224 252.608 317.615 252.865C318.006 253.122 318.311 253.49 318.493 253.921C318.675 254.352 318.724 254.827 318.636 255.287C318.547 255.746 318.323 256.169 317.994 256.501C317.665 256.833 317.244 257.06 316.785 257.153C316.327 257.245 315.851 257.2 315.418 257.022C314.986 256.843 314.616 256.541 314.356 256.152C314.095 255.763 313.956 255.306 313.956 254.838C313.954 254.529 314.012 254.223 314.129 253.936C314.245 253.65 314.417 253.389 314.635 253.17C314.853 252.95 315.112 252.776 315.397 252.657C315.682 252.538 315.988 252.477 316.298 252.477Z" fill="black"/>
<path d="M351.198 251.188H347.448V254.521H351.198V251.188Z" fill="black"/>
<path d="M346.456 251.188H342.706V254.521H346.456V251.188Z" fill="black"/>
<path d="M317.31 259.719H313.54V263.687H317.31V259.719Z" fill="black"/>
<path d="M355.96 251.188H352.21V254.521H355.96V251.188Z" fill="black"/>
<path d="M328.46 259.719H324.492V263.687H328.46V259.719Z" fill="black"/>
<path d="M341.714 251.188H337.964V254.521H341.714V251.188Z" fill="black"/>
<path d="M286.893 242.239H156.278L150.206 233.568L144.254 236.783V239.521C144.245 239.986 144.205 240.45 144.135 240.91L153.718 249.441L230.683 249.064H286.893V242.239Z" fill="black"/>
<path d="M23.3413 300.036L16.2976 262.655L20.0675 258.687L18.6984 250.869C16.6149 250.107 14.3823 249.84 12.1779 250.092C9.97356 250.343 7.85821 251.105 6 252.318L6.61508 262.536L6.81349 263.012L10.2857 266.861C10.4527 267.035 10.5753 267.246 10.6429 267.476C12.0913 272.099 15.5833 295.453 17.1111 302.873C17.6922 306.063 18.6101 309.183 19.8492 312.179C23.7057 312.546 27.5592 311.448 30.6429 309.103C30.7937 307.259 30.7471 305.403 30.504 303.568L23.3413 300.036Z" fill="black"/>
<path d="M143.639 234.856L155.226 228.626L151.833 219.995L145.663 216.92L139.194 219.995V227.932L143.639 234.856Z" fill="black"/>
<path d="M21.7143 257.694L111.04 251.464L110.841 243.408L106.198 243.746V246.186L20.6031 251.345L21.7143 257.694Z" fill="black"/>
<path d="M196.952 208.884H199.552V191.563C199.189 191.28 198.765 191.084 198.315 190.991C197.864 190.898 197.398 190.911 196.952 191.027V208.884Z" fill="black"/>
<path d="M257.27 260.949V318.092L265.841 316.326C266.03 316.29 266.201 316.188 266.324 316.04C266.447 315.892 266.515 315.705 266.516 315.513V268.985L257.27 260.949Z" fill="black"/>
<path d="M195.96 191.365C194.763 191.996 193.699 192.852 192.825 193.885V208.984H195.96V191.365Z" fill="black"/>
<path d="M421.059 240.512C421.33 240.512 421.595 240.431 421.82 240.281C422.045 240.13 422.221 239.917 422.324 239.666C422.428 239.416 422.455 239.141 422.402 238.875C422.349 238.61 422.219 238.366 422.028 238.174C421.836 237.983 421.592 237.853 421.327 237.8C421.061 237.747 420.786 237.774 420.536 237.878C420.285 237.981 420.072 238.157 419.921 238.382C419.771 238.607 419.69 238.872 419.69 239.142C419.69 239.506 419.835 239.854 420.091 240.111C420.348 240.367 420.696 240.512 421.059 240.512Z" fill="black"/>
<path d="M231.794 274.123H234.849V283.309H231.794V293.964H234.849V303.151H231.794V311.821H234.849V321.008H231.794V323.329L255.286 318.488V259.758H231.794V274.123Z" fill="black"/>
<path d="M233.857 312.812H231.794V319.995H233.857V312.812Z" fill="black"/>
<path d="M233.857 294.957H231.794V302.14H233.857V294.957Z" fill="black"/>
<path d="M233.857 275.115H231.794V282.298H233.857V275.115Z" fill="black"/>
<path d="M140.167 294.678L135.583 298.646C135.32 298.867 135.113 299.148 134.977 299.464C134.842 299.78 134.782 300.123 134.803 300.467C134.825 300.81 134.926 301.144 135.099 301.441C135.273 301.738 135.513 301.99 135.802 302.178L158.937 317.336C159.278 317.559 159.685 317.657 160.09 317.614C160.495 317.57 160.873 317.388 161.159 317.098L162.925 315.333V311.781L140.167 294.678Z" fill="black"/>
<path d="M185.603 267.933V265.314C184.424 265.071 183.369 264.417 182.627 263.468C182.249 262.991 181.967 262.445 181.794 261.861H150.246L149.373 264.163L157.627 264.639L161.377 269.937V276.722L141.714 293.369L163.54 309.619L182.746 284.441H185.702L185.603 267.933Z" fill="black"/>
<path d="M187.587 267.656V279.878C187.587 280.446 187.699 281.008 187.917 281.532C188.135 282.057 188.455 282.533 188.857 282.933C189.628 283.707 190.663 284.161 191.754 284.203C196.397 284.342 201.337 284.322 204.155 284.203C205.056 284.218 205.948 284.023 206.76 283.634C207.573 283.245 208.284 282.672 208.837 281.961C212.29 277.239 210.583 269.699 209.056 267.576L187.587 267.656ZM206.357 281.187C205.735 281.744 204.985 282.139 204.175 282.338C200.025 282.705 195.849 282.632 191.714 282.12C190.887 281.816 190.185 281.245 189.718 280.498C189.251 279.751 189.046 278.869 189.135 277.993V272.993H190.98C190.98 278.033 193.758 279.6 194.492 280.017C195.226 280.433 197.964 280.969 198.46 280.275C198.679 279.878 194.889 279.203 195.246 274.54C195.349 273.48 195.748 272.469 196.397 271.624C197.046 270.779 197.919 270.132 198.917 269.759C205.087 268.211 207.667 270.552 208.202 271.505C208.918 273.075 209.179 274.814 208.956 276.525C208.869 277.439 208.593 278.326 208.145 279.128C207.698 279.931 207.089 280.632 206.357 281.187Z" fill="black"/>
<path d="M229.79 262.238C228.679 264.004 227.806 265.353 227.052 266.365L227.667 324.183L229.79 323.746V262.238Z" fill="black"/>
<path d="M324.413 302.297H310.524V304.46C310.524 304.707 310.622 304.944 310.797 305.119C310.972 305.294 311.209 305.392 311.456 305.392H330.226C330.479 305.392 330.721 305.292 330.9 305.113C331.078 304.935 331.179 304.693 331.179 304.44V294.658L325.722 301.623C325.564 301.821 325.365 301.983 325.139 302.099C324.914 302.216 324.666 302.283 324.413 302.297Z" fill="black"/>
<path d="M504.968 235.016H465.504V247.456H504.968C504.968 247.456 507.29 243.19 504.968 235.016Z" fill="black"/>
<path d="M356.932 251.188V254.521H359.611L384.591 261.624H397.091C397.693 261.624 398.27 261.386 398.698 260.963C399.125 260.539 399.368 259.964 399.373 259.362V251.188H356.932Z" fill="black"/>
<path d="M286.893 250.969H231.337L221.417 257.596C221.594 258.154 221.687 258.736 221.694 259.322C221.691 260.238 221.476 261.14 221.066 261.959C220.657 262.778 220.064 263.492 219.333 264.044L226 264.6C227.23 262.794 228.718 260.473 230.087 258.251L230.365 257.774H256.794L267.905 267.437L272.191 266.247V254.6H287.032L286.893 250.969Z" fill="black"/>
<path d="M247.21 197.278C246.543 197.273 245.884 197.12 245.284 196.828C244.683 196.536 244.155 196.114 243.738 195.592H240.445V210.989H247.21V197.278Z" fill="black"/>
<path d="M244.254 194.599L244.393 194.797C244.764 195.316 245.267 195.727 245.849 195.988C246.431 196.25 247.072 196.352 247.706 196.286H248.202V210.988H249.552V193.766C249.549 193.258 249.372 192.766 249.051 192.372C248.729 191.979 248.283 191.707 247.786 191.603C244.968 190.988 244.254 193.329 244.056 194.599H244.254Z" fill="black"/>
<path d="M111.119 253.408L65.4842 256.503C65.4366 256.5 65.3894 256.513 65.3496 256.539C65.3099 256.566 65.2799 256.604 65.2641 256.649C65.2484 256.694 65.2478 256.743 65.2624 256.788C65.2771 256.834 65.3062 256.873 65.3453 256.9C66.3455 257.832 66.9868 259.085 67.1572 260.441C67.3277 261.798 67.0164 263.171 66.2778 264.321L34.6707 290.849L27.3294 286.642L21.8334 259.499L18.381 263.15L25.0675 298.686L30.8611 301.543C35.2857 297.734 65.7818 271.265 69.4524 269.281C73.123 267.297 105.405 267.297 111.357 267.416L111.119 253.408Z" fill="black"/>
<path d="M218.143 189.401C218.143 188.799 217.905 188.222 217.482 187.794C217.058 187.367 216.483 187.124 215.881 187.119L202.766 187C202.438 187.005 202.125 187.139 201.895 187.373C201.665 187.607 201.536 187.922 201.536 188.25V209.758C201.533 209.912 201.561 210.066 201.619 210.209C201.677 210.352 201.763 210.482 201.873 210.592C201.982 210.701 202.112 210.787 202.255 210.845C202.398 210.903 202.552 210.931 202.706 210.929H207.686C208.411 210.933 209.121 210.733 209.736 210.35C210.35 209.967 210.844 209.418 211.159 208.766L211.794 207.456C212.042 206.946 212.428 206.516 212.909 206.215C213.389 205.913 213.945 205.752 214.512 205.75H218.143V197.853V189.401Z" fill="black"/>
<path d="M232.627 192.258L219.135 192.397V197.813H232.627V192.258Z" fill="black"/>
<path d="M233.619 195.334V197.814V210.989H238.48V195.334H233.619Z" fill="black"/>
<path d="M421.059 229.421L415.643 224.004H409.849L407.409 228.627L404.611 226.167V222.199H396.298L395.385 225.889H390.722V221.663H386.04V225.81H382.944V221.663H378.182V225.77H375.008V221.663H370.325V225.631H367.171V221.663H362.468V225.631H359.333V221.663H354.651V225.631H351.476V221.663H346.794V225.631H343.639V221.663H338.956V225.512H335.782V221.663H331.099V225.473H327.944V221.663H323.242V225.413H320.087V221.663H315.484V225.373H312.329V221.663H307.548V225.334H304.393V221.663H299.71V225.274H295.742L294.135 222.239H258.143C257.281 222.338 256.492 222.773 255.946 223.448C255.401 224.123 255.142 224.986 255.226 225.85H251.417V221.544H246.734V225.85H243.579V221.544H238.877V225.85H235.722V221.544H231.04V225.85H227.865V221.544H223.182V225.85H219.036V219.679C220.266 216.286 237.845 214.758 237.845 214.758V212.973H212.686C207.171 219.143 194.294 217.08 194.294 217.08C194.294 222.794 184.809 225.85 184.809 225.85H184.194V221.663H179.532V225.949H176.357V221.663H171.675V225.949H170.325L168.163 222.258H157.071C157.071 222.258 154.274 222.893 156.575 228.211H288.877V243.469H309.016V228.568L405.048 228.449V232.417H416.952V243.647H434.175V229.461L421.059 229.421ZM421.059 241.504C420.592 241.508 420.133 241.373 419.742 241.116C419.351 240.859 419.046 240.492 418.864 240.061C418.682 239.63 418.633 239.154 418.721 238.695C418.81 238.236 419.034 237.813 419.363 237.481C419.692 237.149 420.113 236.922 420.572 236.829C421.03 236.736 421.506 236.782 421.939 236.96C422.371 237.138 422.741 237.441 423.001 237.829C423.262 238.218 423.401 238.675 423.401 239.143C423.401 239.766 423.155 240.364 422.716 240.806C422.278 241.248 421.682 241.499 421.059 241.504Z" fill="black"/>
<path d="M286.893 220.215L285.325 216.603C285.258 216.433 285.14 216.287 284.988 216.184C284.836 216.081 284.656 216.027 284.472 216.028H266.119C266.119 216.028 260.444 215.492 259.294 220.215H286.893Z" fill="black"/>
<path d="M218.143 206.801H214.691C214.243 206.825 213.809 206.963 213.431 207.203C213.052 207.443 212.741 207.776 212.528 208.17L211.476 210.333H218.143V206.801Z" fill="black"/>
<path d="M219.135 198.805V206.543H219.155V210.987H232.627V198.805H219.135Z" fill="black"/>
</svg>
