<svg width="512" height="160" viewBox="0 0 512 160" fill="none" xmlns="http://www.w3.org/2000/svg">
<path d="M127.29 72.6855C130.055 72.6 132.809 72.2881 135.524 71.753C137.426 71.3658 139.136 70.336 140.368 68.8366C141.6 67.3372 142.279 65.4595 142.29 63.5188V60.503L137.528 53.0625L132.687 54.2331C132.34 54.3092 132.025 54.4915 131.787 54.7546C131.549 55.0178 131.399 55.3488 131.357 55.7014C130.979 59.4572 129.502 63.0182 127.111 65.9395L127.29 72.6855Z" fill="black"/>
<path d="M138.242 87.5075V72.9043C137.543 73.2531 136.803 73.513 136.04 73.6781C133.175 74.2445 130.268 74.5763 127.349 74.6702L127.766 90.8408L132.111 87.1503L138.242 87.5075Z" fill="black"/>
<path d="M125.147 66.3164L112.825 67.2489L113.44 92.9632L125.821 92.4077L125.147 66.3164Z" fill="black"/>
<path d="M189.73 84.3722C189.764 83.9462 189.71 83.5177 189.57 83.1138C189.431 82.7099 189.209 82.3393 188.919 82.0252C188.629 81.7112 188.278 81.4606 187.886 81.2892C187.495 81.1178 187.072 81.0293 186.645 81.0293C186.217 81.0293 185.795 81.1178 185.403 81.2892C185.012 81.4606 184.66 81.7112 184.37 82.0252C184.08 82.3393 183.859 82.7099 183.719 83.1138C183.58 83.5177 183.525 83.9462 183.559 84.3722C183.564 85.1661 183.873 85.9281 184.423 86.5005C184.973 87.0729 185.723 87.4119 186.516 87.4475C186.931 87.4635 187.344 87.3959 187.732 87.2488C188.12 87.1016 188.475 86.878 188.775 86.591C189.075 86.3041 189.314 85.9598 189.478 85.5787C189.642 85.1975 189.728 84.7872 189.73 84.3722Z" fill="black"/>
<path d="M143.639 67.0508C142.951 68.8835 141.77 70.4903 140.226 71.6936V87.5666L147.29 87.9833L152.329 74.7294L143.639 67.0508Z" fill="black"/>
<path d="M286.913 62.627H283.163V64.2539H286.913V62.627Z" fill="black"/>
<path d="M421.476 52.4296H430.821V39.374L427.905 36.4375H419.73L416.119 40.0486V47.0724L421.476 52.4296Z" fill="black"/>
<path d="M157.309 64.2547H255.821L265.901 58.2627V54.0762H156.714L151.972 56.6159L157.309 64.2547Z" fill="black"/>
<path d="M310.008 53.4395V67.3284H404.055V53.4395H310.008ZM320.405 59.3918C320.302 59.4691 320.176 59.5109 320.047 59.5109C319.919 59.5109 319.793 59.4691 319.69 59.3918L316.417 56.3363C316.371 56.2972 316.334 56.2485 316.308 56.1937C316.283 56.1389 316.27 56.0792 316.27 56.0188C316.27 55.9584 316.283 55.8988 316.308 55.8439C316.334 55.7891 316.371 55.7405 316.417 55.7014C316.461 55.6539 316.515 55.6161 316.575 55.5902C316.634 55.5644 316.699 55.551 316.764 55.551C316.829 55.551 316.893 55.5644 316.953 55.5902C317.013 55.6161 317.066 55.6539 317.111 55.7014L320.405 58.7371C320.483 58.8244 320.526 58.9374 320.526 59.0545C320.526 59.1717 320.483 59.2847 320.405 59.372V59.3918ZM321.317 65.5625C321.255 65.5651 321.192 65.5554 321.134 65.5339C321.075 65.5124 321.021 65.4796 320.975 65.4372C320.929 65.3948 320.891 65.3437 320.865 65.2869C320.839 65.2301 320.824 65.1687 320.821 65.1061V60.8006C320.821 60.669 320.874 60.5429 320.967 60.4498C321.06 60.3568 321.186 60.3045 321.317 60.3045C321.449 60.3045 321.575 60.3568 321.668 60.4498C321.761 60.5429 321.813 60.669 321.813 60.8006V65.1061C321.794 65.2217 321.733 65.3261 321.641 65.3993C321.55 65.4726 321.434 65.5095 321.317 65.503V65.5625ZM326.159 56.3363L322.865 59.3918C322.763 59.4719 322.637 59.514 322.508 59.5109C322.385 59.511 322.266 59.469 322.17 59.3918C322.124 59.3509 322.087 59.3005 322.061 59.2441C322.036 59.1876 322.023 59.1264 322.023 59.0645C322.023 59.0025 322.036 58.9413 322.061 58.8849C322.087 58.8284 322.124 58.778 322.17 58.7371L325.444 55.7014C325.54 55.6092 325.668 55.5577 325.801 55.5577C325.935 55.5577 326.063 55.6092 326.159 55.7014C326.201 55.7404 326.235 55.7879 326.259 55.8409C326.282 55.8938 326.294 55.951 326.294 56.0089C326.294 56.0668 326.282 56.124 326.259 56.1769C326.235 56.2299 326.201 56.2774 326.159 56.3164V56.3363ZM334.294 62.2887L331 65.503C330.953 65.5496 330.897 65.586 330.836 65.6099C330.774 65.6338 330.709 65.6447 330.643 65.6418C330.58 65.6431 330.518 65.6315 330.46 65.6076C330.402 65.5837 330.349 65.5481 330.305 65.503C330.259 65.462 330.222 65.4116 330.196 65.3552C330.171 65.2987 330.158 65.2375 330.158 65.1756C330.158 65.1136 330.171 65.0524 330.196 64.996C330.222 64.9395 330.259 64.8892 330.305 64.8482L333.579 61.8125C333.677 61.7246 333.805 61.6761 333.936 61.6761C334.068 61.6761 334.195 61.7246 334.294 61.8125C334.352 61.8934 334.383 61.9906 334.383 62.0903C334.383 62.1899 334.352 62.2871 334.294 62.368V62.2887ZM335.127 60.6815C335.064 60.6842 335.002 60.6745 334.943 60.653C334.884 60.6315 334.83 60.5986 334.784 60.5562C334.738 60.5138 334.701 60.4628 334.675 60.406C334.648 60.3492 334.633 60.2877 334.631 60.2252V55.9196C334.631 55.7881 334.683 55.6619 334.776 55.5689C334.869 55.4758 334.995 55.4236 335.127 55.4236C335.258 55.4236 335.385 55.4758 335.478 55.5689C335.571 55.6619 335.623 55.7881 335.623 55.9196V60.2252C335.632 60.2942 335.625 60.3644 335.604 60.4306C335.583 60.4969 335.547 60.5577 335.5 60.6088C335.453 60.6599 335.395 60.7 335.33 60.7262C335.266 60.7525 335.196 60.7643 335.127 60.7609V60.6815ZM340.047 65.3244C340.001 65.371 339.945 65.4074 339.883 65.4313C339.822 65.4553 339.756 65.4661 339.69 65.4633C339.63 65.4959 339.564 65.5162 339.496 65.523C339.428 65.5298 339.359 65.523 339.294 65.503L336.02 62.4672C335.973 62.4263 335.936 62.3759 335.911 62.3195C335.885 62.263 335.872 62.2018 335.872 62.1399C335.872 62.0779 335.885 62.0167 335.911 61.9603C335.936 61.9038 335.973 61.8534 336.02 61.8125C336.115 61.726 336.238 61.6781 336.367 61.6781C336.495 61.6781 336.619 61.726 336.714 61.8125L340.008 64.8482C340.057 64.8863 340.097 64.9344 340.126 64.9893C340.155 65.0442 340.172 65.1046 340.176 65.1666C340.18 65.2286 340.17 65.2906 340.148 65.3486C340.126 65.4066 340.092 65.4592 340.047 65.503V65.3244ZM348.182 59.372C348.079 59.4493 347.954 59.4911 347.825 59.4911C347.696 59.4911 347.571 59.4493 347.468 59.372L344.194 56.3164C344.148 56.2773 344.111 56.2287 344.086 56.1739C344.061 56.1191 344.048 56.0594 344.048 55.999C344.048 55.9386 344.061 55.8789 344.086 55.8241C344.111 55.7693 344.148 55.7206 344.194 55.6815C344.239 55.6341 344.293 55.5963 344.352 55.5704C344.412 55.5445 344.476 55.5312 344.542 55.5312C344.607 55.5312 344.671 55.5445 344.731 55.5704C344.79 55.5963 344.844 55.6341 344.889 55.6815L348.182 58.7172C348.266 58.8057 348.313 58.9228 348.313 59.0446C348.313 59.1664 348.266 59.2836 348.182 59.372ZM349.095 65.5426C349.033 65.5453 348.97 65.5356 348.911 65.5141C348.853 65.4926 348.799 65.4597 348.752 65.4173C348.706 65.3749 348.669 65.3239 348.643 65.2671C348.616 65.2103 348.602 65.1488 348.599 65.0863V60.7807C348.599 60.6492 348.651 60.523 348.744 60.43C348.837 60.337 348.964 60.2847 349.095 60.2847C349.227 60.2847 349.353 60.337 349.446 60.43C349.539 60.523 349.591 60.6492 349.591 60.7807V65.0863C349.576 65.2055 349.517 65.3147 349.425 65.392C349.333 65.4692 349.215 65.5089 349.095 65.503V65.5426ZM353.936 56.3164L350.643 59.372C350.541 59.452 350.415 59.4941 350.286 59.4911C350.163 59.4912 350.044 59.4492 349.948 59.372C349.902 59.331 349.865 59.2807 349.839 59.2242C349.814 59.1678 349.8 59.1066 349.8 59.0446C349.8 58.9827 349.814 58.9215 349.839 58.865C349.865 58.8086 349.902 58.7582 349.948 58.7172L353.222 55.6815C353.318 55.5894 353.446 55.5379 353.579 55.5379C353.712 55.5379 353.84 55.5894 353.936 55.6815C353.982 55.7206 354.019 55.7693 354.045 55.8241C354.07 55.8789 354.083 55.9386 354.083 55.999C354.083 56.0594 354.07 56.1191 354.045 56.1739C354.019 56.2287 353.982 56.2773 353.936 56.3164ZM362.071 62.2688L358.778 65.503C358.731 65.5496 358.675 65.586 358.614 65.6099C358.552 65.6338 358.486 65.6447 358.421 65.6418C358.358 65.6431 358.295 65.6315 358.237 65.6076C358.179 65.5837 358.127 65.5481 358.083 65.503C358.037 65.462 358 65.4116 357.974 65.3552C357.949 65.2987 357.935 65.2375 357.935 65.1756C357.935 65.1136 357.949 65.0524 357.974 64.996C358 64.9395 358.037 64.8892 358.083 64.8482L361.357 61.8125C361.455 61.7246 361.582 61.6761 361.714 61.6761C361.846 61.6761 361.973 61.7246 362.071 61.8125C362.129 61.8934 362.161 61.9906 362.161 62.0903C362.161 62.1899 362.129 62.2871 362.071 62.368V62.2688ZM362.905 60.6617C362.842 60.6643 362.78 60.6546 362.721 60.6331C362.662 60.6116 362.608 60.5788 362.562 60.5364C362.516 60.494 362.479 60.4429 362.452 60.3861C362.426 60.3293 362.411 60.2679 362.409 60.2053V55.8998C362.409 55.7682 362.461 55.6421 362.554 55.549C362.647 55.456 362.773 55.4038 362.905 55.4038C363.036 55.4038 363.162 55.456 363.255 55.549C363.348 55.6421 363.401 55.7682 363.401 55.8998V60.2053C363.413 60.2759 363.409 60.3482 363.389 60.417C363.369 60.4858 363.334 60.5492 363.286 60.6026C363.239 60.656 363.18 60.6979 363.114 60.7253C363.048 60.7527 362.976 60.7649 362.905 60.7609V60.6617ZM367.825 65.3045C367.779 65.3512 367.723 65.3876 367.661 65.4115C367.6 65.4354 367.534 65.4463 367.468 65.4434C367.409 65.4794 367.344 65.5031 367.276 65.5134C367.208 65.5236 367.138 65.52 367.071 65.503L363.797 62.4672C363.751 62.4263 363.714 62.3759 363.688 62.3195C363.663 62.263 363.65 62.2018 363.65 62.1399C363.65 62.0779 363.663 62.0167 363.688 61.9603C363.714 61.9038 363.751 61.8534 363.797 61.8125C363.892 61.726 364.016 61.6781 364.145 61.6781C364.273 61.6781 364.397 61.726 364.492 61.8125L367.786 64.8482C367.835 64.8863 367.875 64.9344 367.904 64.9893C367.933 65.0442 367.95 65.1046 367.954 65.1666C367.957 65.2286 367.948 65.2906 367.926 65.3486C367.904 65.4066 367.869 65.4592 367.825 65.503V65.3045ZM375.96 59.3522C375.857 59.4294 375.732 59.4712 375.603 59.4712C375.474 59.4712 375.349 59.4294 375.246 59.3522L371.972 56.2966C371.926 56.2575 371.889 56.2088 371.864 56.154C371.838 56.0992 371.825 56.0395 371.825 55.9791C371.825 55.9187 371.838 55.8591 371.864 55.8043C371.889 55.7494 371.926 55.7008 371.972 55.6617C372.017 55.6142 372.07 55.5764 372.13 55.5506C372.19 55.5247 372.254 55.5114 372.319 55.5114C372.384 55.5114 372.449 55.5247 372.508 55.5506C372.568 55.5764 372.622 55.6142 372.667 55.6617L375.96 58.6974C376.005 58.7416 376.04 58.7942 376.064 58.8521C376.088 58.91 376.1 58.972 376.1 59.0347C376.1 59.0974 376.088 59.1594 376.064 59.2173C376.04 59.2752 376.005 59.3278 375.96 59.372V59.3522ZM376.873 65.5228C376.81 65.5255 376.748 65.5158 376.689 65.4943C376.63 65.4728 376.576 65.4399 376.53 65.3975C376.484 65.3551 376.447 65.304 376.421 65.2472C376.394 65.1904 376.379 65.129 376.377 65.0664V60.7609C376.377 60.6293 376.429 60.5032 376.522 60.4101C376.615 60.3171 376.741 60.2649 376.873 60.2649C377.004 60.2649 377.131 60.3171 377.224 60.4101C377.317 60.5032 377.369 60.6293 377.369 60.7609V65.0664C377.359 65.1892 377.301 65.3033 377.209 65.3847C377.116 65.4661 376.996 65.5085 376.873 65.503V65.5228ZM381.714 56.2966L378.421 59.3522C378.319 59.4322 378.193 59.4743 378.063 59.4712C377.941 59.4713 377.822 59.4293 377.726 59.3522C377.68 59.3112 377.642 59.2608 377.617 59.2044C377.591 59.1479 377.578 59.0867 377.578 59.0248C377.578 58.9629 377.591 58.9016 377.617 58.8452C377.642 58.7887 377.68 58.7384 377.726 58.6974L381 55.6617C381.096 55.5695 381.224 55.5181 381.357 55.5181C381.49 55.5181 381.618 55.5695 381.714 55.6617C381.764 55.7007 381.804 55.7504 381.831 55.8071C381.859 55.8638 381.873 55.926 381.873 55.9891C381.873 56.0521 381.859 56.1143 381.831 56.171C381.804 56.2277 381.764 56.2775 381.714 56.3164V56.2966ZM389.849 62.249L386.555 65.503C386.509 65.5496 386.453 65.586 386.391 65.6099C386.33 65.6338 386.264 65.6447 386.198 65.6418C386.136 65.6431 386.073 65.6315 386.015 65.6076C385.957 65.5837 385.905 65.5481 385.861 65.503C385.815 65.462 385.777 65.4116 385.752 65.3552C385.726 65.2987 385.713 65.2375 385.713 65.1756C385.713 65.1136 385.726 65.0524 385.752 64.996C385.777 64.9395 385.815 64.8892 385.861 64.8482L389.135 61.8125C389.233 61.7246 389.36 61.6761 389.492 61.6761C389.624 61.6761 389.751 61.7246 389.849 61.8125C389.907 61.8934 389.938 61.9906 389.938 62.0903C389.938 62.1899 389.907 62.2871 389.849 62.368V62.249ZM390.682 60.6418C390.62 60.6445 390.557 60.6348 390.499 60.6133C390.44 60.5918 390.386 60.5589 390.34 60.5165C390.294 60.4741 390.256 60.4231 390.23 60.3663C390.204 60.3095 390.189 60.248 390.186 60.1855V55.8799C390.186 55.7484 390.239 55.6222 390.332 55.5292C390.425 55.4362 390.551 55.3839 390.682 55.3839C390.814 55.3839 390.94 55.4362 391.033 55.5292C391.126 55.6222 391.178 55.7484 391.178 55.8799V60.1855C391.194 60.2575 391.193 60.332 391.174 60.4034C391.156 60.4747 391.122 60.5408 391.074 60.5966C391.026 60.6524 390.965 60.6962 390.897 60.7247C390.829 60.7532 390.756 60.7656 390.682 60.7609V60.6418ZM395.603 65.2847C395.556 65.3313 395.501 65.3678 395.439 65.3917C395.378 65.4156 395.312 65.4264 395.246 65.4236C395.189 65.4629 395.124 65.4902 395.056 65.5038C394.987 65.5174 394.917 65.5172 394.849 65.503L391.575 62.4672C391.529 62.4263 391.492 62.3759 391.466 62.3195C391.441 62.263 391.427 62.2018 391.427 62.1399C391.427 62.0779 391.441 62.0167 391.466 61.9603C391.492 61.9038 391.529 61.8534 391.575 61.8125C391.67 61.726 391.794 61.6781 391.922 61.6781C392.051 61.6781 392.175 61.726 392.27 61.8125L395.563 64.8482C395.612 64.8863 395.653 64.9344 395.682 64.9893C395.711 65.0442 395.728 65.1046 395.731 65.1666C395.735 65.2286 395.726 65.2906 395.704 65.3486C395.681 65.4066 395.647 65.4592 395.603 65.503V65.2847Z" fill="black"/>
<path d="M154.254 75.4255L151 83.9573H181.615C181.708 83.0218 182.06 82.1307 182.631 81.384C183.202 80.6372 183.97 80.0644 184.849 79.7298C185.727 79.3951 186.681 79.3118 187.605 79.4893C188.528 79.6667 189.383 80.0979 190.075 80.7344C190.767 81.3709 191.268 82.1876 191.522 83.0928C191.775 83.9981 191.772 84.9561 191.511 85.8594C191.251 86.7627 190.744 87.5756 190.047 88.2069C189.351 88.8382 188.492 89.2629 187.567 89.4334V90.5247H213.044L214.393 89.2747C213.448 89.0818 212.565 88.6624 211.819 88.0527C211.072 87.443 210.485 86.6612 210.108 85.7744C209.73 84.8877 209.573 83.9225 209.651 82.9619C209.729 82.0012 210.039 81.0739 210.555 80.2595C211.07 79.4451 211.776 78.7681 212.61 78.2866C213.445 77.805 214.385 77.5335 215.348 77.4951C216.311 77.4568 217.269 77.6529 218.139 78.0666C219.01 78.4802 219.767 79.0991 220.345 79.8699L227.627 75.0684L154.254 75.4255Z" fill="black"/>
<path d="M286.913 57.25H283.163V58.9563H286.913V57.25Z" fill="black"/>
<path d="M281.179 64.2547V54.0762H267.885V59.3936L259.71 64.2547H281.179Z" fill="black"/>
<path d="M286.913 59.9492H283.163V61.6556H286.913V59.9492Z" fill="black"/>
<path d="M286.913 54.0762H283.163V56.2587H286.913V54.0762Z" fill="black"/>
<path d="M316.298 80.187C316.63 80.1468 316.936 79.9863 317.158 79.7359C317.38 79.4855 317.502 79.1625 317.502 78.8279C317.502 78.4933 317.38 78.1703 317.158 77.9198C316.936 77.6694 316.63 77.509 316.298 77.4688C315.965 77.509 315.66 77.6694 315.438 77.9198C315.216 78.1703 315.093 78.4933 315.093 78.8279C315.093 79.1625 315.216 79.4855 315.438 79.7359C315.66 79.9863 315.965 80.1468 316.298 80.187Z" fill="black"/>
<path d="M215.563 79.3926C214.779 79.3926 214.011 79.6253 213.359 80.0613C212.706 80.4974 212.198 81.1171 211.897 81.8423C211.597 82.5674 211.518 83.3652 211.671 84.135C211.825 84.9048 212.203 85.6119 212.757 86.1668C213.312 86.7218 214.02 87.0997 214.789 87.2529C215.559 87.406 216.357 87.3274 217.082 87.027C217.807 86.7267 218.427 86.2181 218.863 85.5655C219.299 84.9129 219.532 84.1457 219.532 83.3608C219.532 82.3084 219.114 81.299 218.369 80.5549C217.625 79.8107 216.616 79.3926 215.563 79.3926Z" fill="black"/>
<path d="M327.21 80.1872C327.483 80.1911 327.75 80.1136 327.978 79.9647C328.207 79.8158 328.385 79.6022 328.491 79.3513C328.597 79.1003 328.626 78.8234 328.574 78.556C328.522 78.2886 328.391 78.0429 328.198 77.8502C328.006 77.6576 327.76 77.5268 327.492 77.4746C327.225 77.4224 326.948 77.4512 326.697 77.5572C326.446 77.6633 326.233 77.8418 326.084 78.07C325.935 78.2981 325.857 78.5655 325.861 78.838C325.866 79.1942 326.01 79.5344 326.262 79.7863C326.514 80.0383 326.854 80.182 327.21 80.1872Z" fill="black"/>
<path d="M310.603 88.6777V124.392H323.421C323.678 124.39 323.932 124.332 324.165 124.222C324.398 124.113 324.604 123.954 324.77 123.757L331.199 115.94V88.6976H310.603V88.6777Z" fill="black"/>
<path d="M336.972 75.1875H333.441V78.5208H336.972V75.1875Z" fill="black"/>
<path d="M463.52 60.9604H435.167V68.5993H415.96V57.3691H405.048V69.3334H309.016H288.897V78.5795H309.254V73.2025H332.428H333.44H430.206V69.889H463.52V60.9604Z" fill="black"/>
<path d="M323.46 83.7188H318.341V87.687H323.46V83.7188Z" fill="black"/>
<path d="M311.734 82.7272H330.94C331.074 82.7273 331.202 82.6757 331.298 82.5832C331.395 82.4907 331.451 82.3645 331.456 82.2312V75.1875H311.238V82.2312C311.238 82.3627 311.29 82.4889 311.383 82.5819C311.476 82.6749 311.603 82.7272 311.734 82.7272ZM327.21 76.4772C327.678 76.4733 328.137 76.6084 328.527 76.8654C328.918 77.1225 329.224 77.4898 329.406 77.9209C329.588 78.352 329.637 78.8273 329.548 79.2867C329.459 79.746 329.236 80.1685 328.907 80.5007C328.577 80.8329 328.157 81.0598 327.698 81.1525C327.24 81.2452 326.764 81.1996 326.331 81.0215C325.899 80.8434 325.529 80.5408 325.268 80.1521C325.008 79.7634 324.869 79.3061 324.869 78.8383C324.869 78.2155 325.115 77.6179 325.554 77.1757C325.992 76.7335 326.588 76.4824 327.21 76.4772ZM316.298 76.4772C316.765 76.4733 317.224 76.6084 317.615 76.8654C318.006 77.1225 318.311 77.4898 318.493 77.9209C318.675 78.352 318.724 78.8273 318.636 79.2867C318.547 79.746 318.323 80.1685 317.994 80.5007C317.665 80.8329 317.244 81.0598 316.785 81.1525C316.327 81.2452 315.851 81.1996 315.418 81.0215C314.986 80.8434 314.616 80.5408 314.356 80.1521C314.095 79.7634 313.956 79.3061 313.956 78.8383C313.954 78.5292 314.012 78.2226 314.129 77.9363C314.245 77.6499 314.417 77.3894 314.635 77.1699C314.853 76.9504 315.112 76.7762 315.397 76.6573C315.682 76.5384 315.988 76.4772 316.298 76.4772Z" fill="black"/>
<path d="M351.198 75.1875H347.448V78.5208H351.198V75.1875Z" fill="black"/>
<path d="M346.456 75.1875H342.706V78.5208H346.456V75.1875Z" fill="black"/>
<path d="M317.31 83.7188H313.54V87.687H317.31V83.7188Z" fill="black"/>
<path d="M355.96 75.1875H352.21V78.5208H355.96V75.1875Z" fill="black"/>
<path d="M328.46 83.7188H324.492V87.687H328.46V83.7188Z" fill="black"/>
<path d="M341.714 75.1875H337.964V78.5208H341.714V75.1875Z" fill="black"/>
<path d="M286.893 66.239H156.278L150.206 57.5684L144.254 60.7827V63.5207C144.245 63.9858 144.205 64.4498 144.135 64.9096L153.718 73.4414L230.683 73.0644H286.893V66.239Z" fill="black"/>
<path d="M23.3413 124.036L16.2976 86.655L20.0675 82.6868L18.6984 74.8693C16.6149 74.1067 14.3823 73.8405 12.1779 74.0919C9.97356 74.3433 7.85821 75.1055 6 76.3177L6.61508 86.536L6.81349 87.0122L10.2857 90.8614C10.4527 91.0345 10.5753 91.2456 10.6429 91.4764C12.0913 96.0995 15.5833 119.453 17.1111 126.873C17.6922 130.063 18.6101 133.183 19.8492 136.179C23.7057 136.546 27.5592 135.448 30.6429 133.103C30.7937 131.259 30.7471 129.403 30.504 127.568L23.3413 124.036Z" fill="black"/>
<path d="M143.639 58.8564L155.226 52.6263L151.833 43.9953L145.663 40.9199L139.194 43.9953V51.9318L143.639 58.8564Z" fill="black"/>
<path d="M21.7143 81.6939L111.04 75.4638L110.841 67.4082L106.198 67.7455V70.186L20.6031 75.3447L21.7143 81.6939Z" fill="black"/>
<path d="M196.952 32.8841H199.552V15.5627C199.189 15.2798 198.765 15.0843 198.315 14.9914C197.864 14.8985 197.398 14.9106 196.952 15.027V32.8841Z" fill="black"/>
<path d="M257.27 84.9492V142.092L265.841 140.326C266.03 140.29 266.201 140.188 266.324 140.04C266.447 139.892 266.515 139.705 266.516 139.513V92.9849L257.27 84.9492Z" fill="black"/>
<path d="M195.96 15.3652C194.763 15.9961 193.699 16.8516 192.825 17.8851V32.9843H195.96V15.3652Z" fill="black"/>
<path d="M421.059 64.5115C421.33 64.5115 421.595 64.4312 421.82 64.2808C422.045 64.1304 422.221 63.9166 422.324 63.6664C422.428 63.4162 422.455 63.141 422.402 62.8754C422.349 62.6098 422.219 62.3659 422.028 62.1744C421.836 61.983 421.592 61.8526 421.327 61.7997C421.061 61.7469 420.786 61.774 420.536 61.8777C420.285 61.9813 420.072 62.1568 419.921 62.3819C419.771 62.607 419.69 62.8717 419.69 63.1425C419.69 63.5056 419.835 63.8538 420.091 64.1106C420.348 64.3673 420.696 64.5115 421.059 64.5115Z" fill="black"/>
<path d="M231.794 98.1229H234.849V107.309H231.794V117.964H234.849V127.151H231.794V135.821H234.849V145.008H231.794V147.329L255.286 142.488V83.7578H231.794V98.1229Z" fill="black"/>
<path d="M233.857 136.812H231.794V143.995H233.857V136.812Z" fill="black"/>
<path d="M233.857 118.957H231.794V126.14H233.857V118.957Z" fill="black"/>
<path d="M233.857 99.1152H231.794V106.298H233.857V99.1152Z" fill="black"/>
<path d="M140.167 118.678L135.583 122.646C135.32 122.867 135.113 123.148 134.977 123.464C134.842 123.78 134.782 124.123 134.803 124.467C134.825 124.81 134.926 125.144 135.099 125.441C135.273 125.738 135.513 125.99 135.802 126.178L158.937 141.336C159.278 141.559 159.685 141.657 160.09 141.614C160.495 141.57 160.873 141.388 161.159 141.098L162.925 139.333V135.781L140.167 118.678Z" fill="black"/>
<path d="M185.603 91.9328V89.3137C184.424 89.0709 183.369 88.4169 182.627 87.4685C182.249 86.9907 181.967 86.4452 181.794 85.8613H150.246L149.373 88.1629L157.627 88.6391L161.377 93.9367V100.722L141.714 117.369L163.54 133.619L182.746 108.441H185.702L185.603 91.9328Z" fill="black"/>
<path d="M187.587 91.6555V103.878C187.587 104.446 187.699 105.008 187.917 105.532C188.135 106.057 188.455 106.533 188.857 106.933C189.628 107.707 190.663 108.161 191.754 108.203C196.397 108.342 201.337 108.322 204.155 108.203C205.056 108.218 205.948 108.023 206.76 107.634C207.573 107.245 208.284 106.672 208.837 105.961C212.29 101.239 210.583 93.6992 209.056 91.5762L187.587 91.6555ZM206.357 105.187C205.735 105.744 204.985 106.139 204.175 106.338C200.025 106.705 195.849 106.632 191.714 106.12C190.887 105.816 190.185 105.245 189.718 104.498C189.251 103.751 189.046 102.869 189.135 101.993V96.9928H190.98C190.98 102.033 193.758 103.6 194.492 104.017C195.226 104.433 197.964 104.969 198.46 104.275C198.679 103.878 194.889 103.203 195.246 98.5404C195.349 97.4798 195.748 96.4694 196.397 95.624C197.046 94.7787 197.919 94.1325 198.917 93.7587C205.087 92.2111 207.667 94.5524 208.202 95.5047C208.918 97.0746 209.179 98.8137 208.956 100.525C208.869 101.439 208.593 102.326 208.145 103.128C207.698 103.931 207.089 104.632 206.357 105.187Z" fill="black"/>
<path d="M229.79 86.2383C228.679 88.0042 227.806 89.3534 227.052 90.3653L227.667 148.183L229.79 147.746V86.2383Z" fill="black"/>
<path d="M324.413 126.297H310.524V128.46C310.524 128.707 310.622 128.944 310.797 129.119C310.972 129.294 311.209 129.392 311.456 129.392H330.226C330.479 129.392 330.721 129.292 330.9 129.113C331.078 128.935 331.179 128.693 331.179 128.44V118.658L325.722 125.623C325.564 125.821 325.365 125.983 325.139 126.099C324.914 126.216 324.666 126.283 324.413 126.297Z" fill="black"/>
<path d="M504.968 59.0156H465.504V71.4561H504.968C504.968 71.4561 507.29 67.1902 504.968 59.0156Z" fill="black"/>
<path d="M356.932 75.1875V78.5208H359.611L384.591 85.624H397.091C397.693 85.624 398.27 85.3864 398.698 84.9627C399.125 84.5391 399.368 83.9638 399.373 83.3621V75.1875H356.932Z" fill="black"/>
<path d="M286.893 74.9688H231.337L221.417 81.5957C221.594 82.1543 221.687 82.736 221.694 83.3219C221.691 84.2376 221.476 85.1401 221.066 85.9591C220.657 86.7782 220.064 87.4917 219.333 88.0442L226 88.5997C227.23 86.7942 228.718 84.4727 230.087 82.2505L230.365 81.7743H256.794L267.905 91.437L272.191 90.2466V78.5997H287.032L286.893 74.9688Z" fill="black"/>
<path d="M247.21 21.2783C246.543 21.2735 245.884 21.1196 245.284 20.8278C244.683 20.536 244.155 20.1137 243.738 19.5918H240.445V34.9886H247.21V21.2783Z" fill="black"/>
<path d="M244.254 18.5991L244.393 18.7975C244.764 19.3161 245.267 19.7271 245.849 19.9885C246.431 20.2499 247.072 20.3524 247.706 20.2856H248.202V34.9879H249.552V17.7657C249.549 17.2577 249.372 16.766 249.051 16.3724C248.729 15.9789 248.283 15.7074 247.786 15.603C244.968 14.9879 244.254 17.3292 244.056 18.5991H244.254Z" fill="black"/>
<path d="M111.119 77.4082L65.4842 80.5034C65.4366 80.5004 65.3894 80.513 65.3496 80.5393C65.3099 80.5656 65.2799 80.6042 65.2641 80.6491C65.2484 80.6941 65.2478 80.743 65.2624 80.7884C65.2771 80.8337 65.3062 80.873 65.3453 80.9003C66.3455 81.8319 66.9868 83.0852 67.1572 84.4415C67.3277 85.7977 67.0164 87.1707 66.2778 88.3209L34.6707 114.849L27.3294 110.642L21.8334 83.4995L18.381 87.1503L25.0675 122.686L30.8611 125.543C35.2857 121.734 65.7818 95.2653 69.4524 93.2812C73.123 91.2971 105.405 91.2971 111.357 91.4161L111.119 77.4082Z" fill="black"/>
<path d="M218.143 13.4008C218.143 12.7991 217.905 12.2217 217.482 11.7943C217.058 11.367 216.483 11.1243 215.881 11.119L202.766 11C202.438 11.0052 202.125 11.1392 201.895 11.3731C201.665 11.6069 201.536 11.9219 201.536 12.25V33.7579C201.533 33.9124 201.561 34.0658 201.619 34.2091C201.677 34.3523 201.763 34.4825 201.873 34.5917C201.982 34.7009 202.112 34.7871 202.255 34.8449C202.398 34.9028 202.552 34.9313 202.706 34.9286H207.686C208.411 34.9332 209.121 34.7325 209.736 34.3497C210.35 33.9669 210.844 33.4177 211.159 32.7659L211.794 31.4563C212.042 30.9464 212.428 30.5162 212.909 30.2146C213.389 29.913 213.945 29.7521 214.512 29.75H218.143V21.8532V13.4008Z" fill="black"/>
<path d="M232.627 16.2578L219.135 16.3967V21.8134H232.627V16.2578Z" fill="black"/>
<path d="M233.619 19.334V21.8141V34.9888H238.48V19.334H233.619Z" fill="black"/>
<path d="M421.059 53.4211L415.643 48.0044H409.849L407.409 52.6274L404.611 50.1671V46.1988H396.298L395.385 49.8893H390.722V45.6631H386.04V49.8099H382.944V45.6631H378.182V49.7703H375.008V45.6631H370.325V49.6314H367.171V45.6631H362.468V49.6314H359.333V45.6631H354.651V49.6314H351.476V45.6631H346.794V49.6314H343.639V45.6631H338.956V49.5123H335.782V45.6631H331.099V49.4726H327.944V45.6631H323.242V49.4131H320.087V45.6631H315.484V49.3735H312.329V45.6631H307.548V49.3338H304.393V45.6631H299.71V49.2742H295.742L294.135 46.2385H258.143C257.281 46.3384 256.492 46.7727 255.946 47.448C255.401 48.1233 255.142 48.9856 255.226 49.8496H251.417V45.5441H246.734V49.8496H243.579V45.5441H238.877V49.8496H235.722V45.5441H231.04V49.8496H227.865V45.5441H223.182V49.8496H219.036V43.679C220.266 40.2861 237.845 38.7584 237.845 38.7584V36.9727H212.686C207.171 43.1433 194.294 41.0798 194.294 41.0798C194.294 46.7941 184.809 49.8496 184.809 49.8496H184.194V45.6631H179.532V49.9489H176.357V45.6631H171.675V49.9489H170.325L168.163 46.2584H157.071C157.071 46.2584 154.274 46.8933 156.575 52.2108H288.877V67.4687H309.016V52.5679L405.048 52.4488V56.4171H416.952V67.6473H434.175V53.4607L421.059 53.4211ZM421.059 65.5044C420.592 65.5083 420.133 65.3732 419.742 65.1162C419.351 64.8591 419.046 64.4918 418.864 64.0607C418.682 63.6296 418.633 63.1542 418.721 62.6949C418.81 62.2356 419.034 61.8131 419.363 61.4809C419.692 61.1487 420.113 60.9218 420.572 60.8291C421.03 60.7364 421.506 60.782 421.939 60.9601C422.371 61.1382 422.741 61.4408 423.001 61.8295C423.262 62.2182 423.401 62.6755 423.401 63.1433C423.401 63.7661 423.155 64.3636 422.716 64.8059C422.278 65.2481 421.682 65.4992 421.059 65.5044Z" fill="black"/>
<path d="M286.893 44.2146L285.325 40.6035C285.258 40.4329 285.14 40.2867 284.988 40.1841C284.836 40.0814 284.656 40.0271 284.472 40.0281H266.119C266.119 40.0281 260.444 39.4924 259.294 44.2146H286.893Z" fill="black"/>
<path d="M218.143 30.8008H214.691C214.243 30.8249 213.809 30.9634 213.431 31.2031C213.052 31.4428 212.741 31.7757 212.528 32.1698L211.476 34.3325H218.143V30.8008Z" fill="black"/>
<path d="M219.135 22.8047V30.5428H219.155V34.9872H232.627V22.8047H219.135Z" fill="black"/>
</svg>
