<svg width="512" height="512" viewBox="0 0 512 512" fill="none" xmlns="http://www.w3.org/2000/svg">
<path d="M140.883 314.778C143.236 313.321 145.465 311.674 147.548 309.853C149.001 308.567 149.968 306.82 150.285 304.905C150.602 302.991 150.251 301.025 149.29 299.339L147.782 296.727L139.938 292.665L136.331 296.099C136.069 296.338 135.887 296.653 135.813 297.001C135.738 297.348 135.773 297.709 135.914 298.035C137.464 301.477 137.965 305.3 137.356 309.025L140.883 314.778Z" fill="black"/>
<path d="M157.779 322.136L150.477 309.489C150.046 310.141 149.536 310.736 148.957 311.26C146.759 313.183 144.408 314.924 141.927 316.465L150.373 330.261L152.291 324.892L157.779 322.136Z" fill="black"/>
<path d="M135.843 310.333L125.638 317.302L139.028 339.263L149.473 332.592L135.843 310.333Z" fill="black"/>
<path d="M200.801 293.678C200.618 293.292 200.357 292.948 200.034 292.668C199.711 292.388 199.334 292.178 198.926 292.051C198.518 291.924 198.088 291.882 197.663 291.93C197.238 291.977 196.828 292.112 196.458 292.325C196.088 292.539 195.766 292.827 195.513 293.171C195.259 293.515 195.08 293.908 194.986 294.325C194.892 294.742 194.886 295.174 194.967 295.593C195.048 296.013 195.215 296.411 195.457 296.763C195.858 297.449 196.507 297.954 197.27 298.174C198.032 298.395 198.851 298.314 199.555 297.948C199.923 297.755 200.247 297.489 200.51 297.168C200.772 296.846 200.967 296.475 201.083 296.077C201.2 295.679 201.235 295.261 201.186 294.849C201.138 294.437 201.007 294.038 200.801 293.678Z" fill="black"/>
<path d="M152.225 301.723C152.545 303.654 152.326 305.636 151.591 307.451L159.527 321.197L165.853 318.026L163.59 304.028L152.225 301.723Z" fill="black"/>
<path d="M274.091 226.254L270.843 228.129L271.657 229.538L274.904 227.663L274.091 226.254Z" fill="black"/>
<path d="M385.527 150.14L393.62 145.467L387.093 134.161L383.098 133.076L376.019 137.163L374.697 142.096L378.209 148.179L385.527 150.14Z" fill="black"/>
<path d="M162.665 292.465L247.979 243.209L253.712 232.98L251.618 229.354L157.06 283.947L154.223 288.518L162.665 292.465Z" fill="black"/>
<path d="M289.499 206.75L296.443 218.778L377.891 171.754L370.946 159.726L289.499 206.75ZM301.479 206.707C301.428 206.825 301.341 206.924 301.229 206.988C301.117 207.053 300.988 207.079 300.86 207.064L296.497 206.054C296.438 206.043 296.381 206.02 296.332 205.985C296.283 205.95 296.242 205.905 296.211 205.853C296.181 205.801 296.163 205.742 296.157 205.682C296.152 205.622 296.159 205.561 296.18 205.505C296.195 205.441 296.222 205.381 296.261 205.329C296.3 205.277 296.349 205.233 296.405 205.201C296.462 205.168 296.524 205.148 296.589 205.14C296.653 205.133 296.719 205.138 296.781 205.157L301.151 206.139C301.263 206.176 301.357 206.252 301.415 206.354C301.474 206.455 301.493 206.575 301.469 206.689L301.479 206.707ZM305.355 211.594C305.302 211.628 305.243 211.651 305.181 211.661C305.119 211.672 305.056 211.671 304.995 211.657C304.934 211.643 304.876 211.618 304.825 211.582C304.774 211.546 304.73 211.5 304.697 211.447L302.544 207.718C302.478 207.604 302.46 207.469 302.494 207.342C302.528 207.215 302.612 207.106 302.726 207.041C302.839 206.975 302.975 206.957 303.102 206.991C303.229 207.025 303.337 207.108 303.403 207.222L305.556 210.951C305.597 211.061 305.596 211.182 305.553 211.291C305.511 211.4 305.429 211.49 305.325 211.543L305.355 211.594ZM304.934 201.183L303.609 205.476C303.562 205.596 303.473 205.696 303.36 205.758C303.253 205.82 303.129 205.843 303.008 205.824C302.947 205.811 302.89 205.786 302.84 205.75C302.789 205.714 302.747 205.668 302.716 205.614C302.685 205.56 302.666 205.501 302.66 205.439C302.654 205.377 302.661 205.315 302.681 205.257L303.998 200.991C304.035 200.863 304.12 200.754 304.235 200.688C304.351 200.621 304.487 200.602 304.617 200.633C304.673 200.646 304.726 200.67 304.773 200.704C304.82 200.738 304.859 200.782 304.888 200.832C304.917 200.882 304.935 200.938 304.941 200.995C304.947 201.053 304.942 201.111 304.924 201.166L304.934 201.183ZM314.955 202.271L313.71 206.701C313.693 206.765 313.663 206.824 313.622 206.876C313.58 206.927 313.529 206.97 313.47 207C313.417 207.033 313.357 207.054 313.294 207.062C313.232 207.07 313.169 207.066 313.109 207.048C313.048 207.036 312.991 207.011 312.94 206.975C312.89 206.939 312.848 206.892 312.817 206.839C312.786 206.785 312.767 206.726 312.761 206.664C312.754 206.602 312.762 206.54 312.781 206.481L314.099 202.216C314.14 202.09 314.226 201.985 314.34 201.919C314.454 201.853 314.588 201.831 314.717 201.858C314.808 201.899 314.884 201.968 314.934 202.054C314.983 202.141 315.005 202.24 314.995 202.34L314.955 202.271ZM314.873 200.462C314.821 200.496 314.762 200.519 314.7 200.529C314.638 200.54 314.575 200.539 314.514 200.525C314.453 200.511 314.395 200.486 314.344 200.45C314.293 200.414 314.249 200.368 314.216 200.315L312.063 196.586C311.997 196.472 311.979 196.337 312.013 196.21C312.047 196.083 312.131 195.975 312.244 195.909C312.358 195.843 312.494 195.825 312.621 195.859C312.748 195.893 312.856 195.976 312.922 196.09L315.075 199.819C315.117 199.874 315.146 199.938 315.161 200.006C315.176 200.074 315.176 200.145 315.16 200.213C315.145 200.281 315.115 200.344 315.072 200.399C315.029 200.454 314.975 200.499 314.913 200.531L314.873 200.462ZM321.456 202.023C321.439 202.087 321.409 202.146 321.368 202.197C321.326 202.249 321.275 202.291 321.216 202.322C321.181 202.38 321.133 202.431 321.078 202.471C321.022 202.511 320.959 202.539 320.893 202.554L316.54 201.562C316.479 201.55 316.421 201.525 316.371 201.489C316.321 201.453 316.279 201.406 316.248 201.353C316.217 201.299 316.198 201.239 316.192 201.178C316.185 201.116 316.192 201.054 316.212 200.995C316.251 200.873 316.334 200.77 316.446 200.705C316.557 200.641 316.688 200.621 316.814 200.648L321.184 201.63C321.245 201.639 321.304 201.66 321.357 201.693C321.409 201.726 321.454 201.77 321.489 201.822C321.523 201.874 321.546 201.932 321.555 201.994C321.565 202.055 321.562 202.118 321.546 202.177L321.456 202.023ZM325.525 192.8C325.475 192.919 325.387 193.018 325.275 193.082C325.164 193.147 325.034 193.173 324.907 193.158L320.544 192.148C320.484 192.137 320.428 192.114 320.378 192.079C320.329 192.044 320.288 191.999 320.258 191.947C320.227 191.894 320.209 191.836 320.204 191.776C320.198 191.716 320.206 191.655 320.226 191.598C320.241 191.535 320.269 191.475 320.307 191.423C320.346 191.371 320.395 191.327 320.452 191.295C320.508 191.262 320.57 191.241 320.635 191.234C320.7 191.227 320.765 191.232 320.827 191.251L325.198 192.233C325.314 192.268 325.413 192.346 325.474 192.452C325.535 192.557 325.553 192.682 325.525 192.8ZM329.401 197.688C329.348 197.722 329.289 197.744 329.227 197.755C329.166 197.766 329.103 197.764 329.041 197.751C328.98 197.737 328.923 197.712 328.871 197.676C328.82 197.64 328.777 197.594 328.743 197.541L326.59 193.812C326.525 193.698 326.507 193.563 326.541 193.436C326.575 193.309 326.658 193.2 326.772 193.135C326.886 193.069 327.021 193.051 327.148 193.085C327.275 193.119 327.384 193.202 327.449 193.316L329.602 197.045C329.649 197.155 329.652 197.28 329.611 197.393C329.57 197.506 329.488 197.599 329.381 197.654L329.401 197.688ZM328.98 187.277L327.656 191.57C327.608 191.69 327.52 191.79 327.406 191.852C327.3 191.913 327.176 191.937 327.054 191.918C326.994 191.905 326.936 191.88 326.886 191.844C326.836 191.808 326.794 191.762 326.763 191.708C326.732 191.654 326.713 191.595 326.706 191.533C326.7 191.471 326.707 191.409 326.727 191.35L328.044 187.085C328.081 186.957 328.167 186.848 328.282 186.782C328.397 186.715 328.534 186.696 328.663 186.727C328.722 186.738 328.779 186.762 328.828 186.797C328.877 186.832 328.919 186.877 328.949 186.929C328.979 186.981 328.997 187.039 329.003 187.1C329.008 187.16 329.001 187.22 328.98 187.277ZM339.002 188.365L337.766 192.812C337.749 192.876 337.719 192.936 337.678 192.987C337.636 193.038 337.585 193.081 337.526 193.111C337.473 193.144 337.413 193.165 337.351 193.173C337.289 193.181 337.225 193.177 337.165 193.16C337.104 193.147 337.047 193.122 336.997 193.086C336.946 193.05 336.904 193.004 336.873 192.95C336.842 192.896 336.823 192.837 336.817 192.775C336.811 192.714 336.818 192.651 336.838 192.593L338.155 188.327C338.196 188.201 338.282 188.096 338.396 188.03C338.51 187.964 338.644 187.943 338.773 187.97C338.864 188.011 338.94 188.079 338.99 188.165C339.04 188.252 339.061 188.351 339.051 188.451L339.002 188.365ZM338.92 186.556C338.867 186.59 338.808 186.613 338.746 186.623C338.685 186.634 338.621 186.633 338.56 186.619C338.499 186.605 338.441 186.58 338.39 186.544C338.339 186.508 338.295 186.462 338.262 186.409L336.109 182.68C336.043 182.566 336.026 182.431 336.06 182.304C336.094 182.177 336.177 182.069 336.291 182.003C336.405 181.937 336.54 181.919 336.667 181.953C336.794 181.987 336.903 182.07 336.968 182.184L339.121 185.913C339.167 185.968 339.2 186.033 339.217 186.102C339.234 186.172 339.235 186.244 339.221 186.314C339.206 186.384 339.176 186.45 339.133 186.507C339.089 186.564 339.033 186.61 338.969 186.642L338.92 186.556ZM345.503 188.117C345.485 188.18 345.455 188.24 345.414 188.291C345.373 188.343 345.321 188.385 345.263 188.416C345.23 188.476 345.185 188.529 345.131 188.572C345.077 188.615 345.015 188.647 344.949 188.666L340.596 187.673C340.535 187.661 340.478 187.636 340.427 187.6C340.377 187.564 340.335 187.517 340.304 187.464C340.273 187.41 340.254 187.351 340.248 187.289C340.242 187.227 340.249 187.165 340.268 187.106C340.307 186.984 340.391 186.881 340.502 186.816C340.613 186.752 340.744 186.732 340.87 186.759L345.24 187.741C345.302 187.75 345.361 187.771 345.413 187.804C345.466 187.837 345.511 187.881 345.545 187.933C345.579 187.985 345.602 188.043 345.612 188.105C345.621 188.166 345.618 188.229 345.602 188.289L345.503 188.117ZM349.571 178.894C349.521 179.013 349.433 179.112 349.322 179.176C349.21 179.24 349.081 179.267 348.953 179.252L344.59 178.242C344.53 178.231 344.474 178.208 344.425 178.173C344.375 178.138 344.334 178.093 344.304 178.041C344.274 177.988 344.255 177.93 344.25 177.87C344.244 177.81 344.252 177.749 344.272 177.692C344.287 177.629 344.315 177.569 344.354 177.517C344.393 177.465 344.442 177.421 344.498 177.389C344.554 177.356 344.617 177.335 344.681 177.328C344.746 177.32 344.812 177.326 344.874 177.345L349.244 178.327C349.305 178.343 349.361 178.371 349.411 178.409C349.461 178.448 349.503 178.495 349.534 178.549C349.565 178.604 349.586 178.664 349.594 178.726C349.602 178.788 349.598 178.851 349.581 178.912L349.571 178.894ZM353.447 183.782C353.394 183.816 353.335 183.838 353.274 183.849C353.212 183.86 353.149 183.858 353.088 183.845C353.027 183.831 352.969 183.805 352.918 183.769C352.866 183.733 352.823 183.688 352.789 183.635L350.637 179.906C350.571 179.792 350.553 179.657 350.587 179.53C350.621 179.403 350.704 179.294 350.818 179.228C350.932 179.163 351.068 179.145 351.195 179.179C351.322 179.213 351.43 179.296 351.496 179.41L353.649 183.139C353.701 183.25 353.709 183.378 353.669 183.494C353.63 183.611 353.547 183.708 353.437 183.765L353.447 183.782ZM353.027 173.371L351.702 177.664C351.654 177.784 351.566 177.884 351.452 177.946C351.346 178.007 351.222 178.031 351.101 178.011C351.04 177.999 350.983 177.974 350.932 177.938C350.882 177.902 350.84 177.855 350.809 177.802C350.778 177.748 350.759 177.689 350.753 177.627C350.747 177.565 350.754 177.503 350.773 177.444L352.091 173.178C352.128 173.051 352.213 172.942 352.328 172.876C352.443 172.809 352.58 172.79 352.709 172.821C352.772 172.83 352.831 172.853 352.883 172.889C352.936 172.924 352.979 172.971 353.011 173.025C353.042 173.08 353.061 173.141 353.065 173.204C353.07 173.267 353.06 173.33 353.037 173.388L353.027 173.371ZM363.048 174.459L361.823 178.923C361.805 178.987 361.775 179.047 361.734 179.098C361.693 179.15 361.641 179.192 361.583 179.222C361.529 179.255 361.469 179.276 361.407 179.284C361.345 179.293 361.282 179.288 361.221 179.271C361.16 179.258 361.103 179.233 361.053 179.197C361.002 179.161 360.96 179.115 360.93 179.061C360.899 179.007 360.879 178.948 360.873 178.886C360.867 178.825 360.874 178.762 360.894 178.704L362.211 174.438C362.252 174.313 362.338 174.207 362.452 174.141C362.566 174.075 362.701 174.054 362.83 174.081C362.921 174.122 362.996 174.19 363.046 174.276C363.096 174.363 363.117 174.463 363.108 174.562L363.048 174.459ZM362.966 172.65C362.913 172.684 362.854 172.707 362.793 172.717C362.731 172.728 362.668 172.727 362.607 172.713C362.546 172.699 362.488 172.674 362.437 172.638C362.385 172.602 362.342 172.556 362.308 172.503L360.156 168.774C360.09 168.66 360.072 168.525 360.106 168.398C360.14 168.271 360.223 168.162 360.337 168.097C360.451 168.031 360.586 168.013 360.714 168.047C360.841 168.081 360.949 168.164 361.015 168.278L363.167 172.007C363.217 172.062 363.253 172.127 363.273 172.198C363.293 172.269 363.296 172.343 363.282 172.415C363.269 172.488 363.238 172.556 363.194 172.614C363.149 172.673 363.092 172.721 363.026 172.753L362.966 172.65ZM369.549 174.211C369.532 174.274 369.502 174.334 369.46 174.385C369.419 174.437 369.368 174.479 369.309 174.51C369.279 174.572 369.237 174.628 369.184 174.674C369.132 174.72 369.071 174.755 369.005 174.777L364.652 173.785C364.591 173.772 364.534 173.747 364.484 173.711C364.433 173.675 364.391 173.629 364.36 173.575C364.329 173.521 364.31 173.462 364.304 173.4C364.298 173.338 364.305 173.276 364.325 173.218C364.364 173.095 364.447 172.992 364.558 172.928C364.669 172.863 364.801 172.843 364.926 172.87L369.296 173.852C369.358 173.861 369.417 173.882 369.469 173.915C369.522 173.949 369.567 173.992 369.601 174.044C369.635 174.096 369.658 174.155 369.668 174.216C369.678 174.277 369.674 174.34 369.658 174.4L369.549 174.211Z" fill="black"/>
<path d="M165.604 303.667L167.052 312.682L193.565 297.375C193.178 296.518 193.037 295.571 193.159 294.638C193.28 293.706 193.658 292.826 194.252 292.097C194.845 291.368 195.63 290.819 196.519 290.511C197.407 290.203 198.363 290.148 199.281 290.354C200.198 290.559 201.04 291.016 201.712 291.673C202.385 292.33 202.861 293.162 203.087 294.074C203.313 294.987 203.28 295.944 202.993 296.839C202.705 297.734 202.174 298.531 201.458 299.141L202.004 300.086L224.067 287.348L224.61 285.591C223.696 285.896 222.722 285.975 221.77 285.82C220.819 285.665 219.92 285.281 219.149 284.702C218.379 284.123 217.761 283.365 217.348 282.495C216.935 281.624 216.74 280.666 216.779 279.703C216.818 278.74 217.091 277.801 217.573 276.966C218.055 276.132 218.733 275.427 219.548 274.912C220.362 274.397 221.29 274.088 222.251 274.011C223.211 273.934 224.177 274.092 225.063 274.47L228.968 266.671L165.604 303.667Z" fill="black"/>
<path d="M271.403 221.598L268.155 223.473L269.008 224.95L272.256 223.075L271.403 221.598Z" fill="black"/>
<path d="M269.939 230.53L264.849 221.715L253.337 228.362L255.995 232.967L251.346 241.264L269.939 230.53Z" fill="black"/>
<path d="M272.752 223.934L269.504 225.809L270.357 227.286L273.605 225.411L272.752 223.934Z" fill="black"/>
<path d="M269.815 218.848L266.568 220.723L267.659 222.613L270.906 220.738L269.815 218.848Z" fill="black"/>
<path d="M308.319 226.769C308.586 226.568 308.771 226.277 308.838 225.949C308.905 225.621 308.85 225.28 308.682 224.99C308.515 224.7 308.248 224.482 307.93 224.376C307.613 224.27 307.268 224.284 306.96 224.415C306.692 224.616 306.507 224.908 306.44 225.236C306.374 225.564 306.429 225.905 306.596 226.195C306.763 226.484 307.031 226.703 307.349 226.809C307.666 226.915 308.011 226.901 308.319 226.769Z" fill="black"/>
<path d="M220.684 276.448C220.004 276.84 219.456 277.425 219.109 278.129C218.762 278.833 218.631 279.624 218.734 280.402C218.836 281.18 219.167 281.911 219.684 282.501C220.202 283.091 220.883 283.514 221.641 283.717C222.399 283.92 223.2 283.894 223.943 283.642C224.687 283.39 225.338 282.923 225.816 282.3C226.294 281.677 226.576 280.927 226.628 280.144C226.679 279.36 226.497 278.58 226.104 277.9C225.578 276.989 224.711 276.323 223.695 276.051C222.678 275.779 221.595 275.921 220.684 276.448Z" fill="black"/>
<path d="M317.769 221.312C318.007 221.179 318.2 220.978 318.323 220.735C318.446 220.492 318.494 220.218 318.461 219.947C318.427 219.677 318.314 219.423 318.135 219.217C317.956 219.012 317.72 218.864 317.456 218.794C317.193 218.723 316.915 218.733 316.657 218.822C316.4 218.91 316.174 219.073 316.01 219.291C315.846 219.508 315.75 219.769 315.735 220.042C315.72 220.314 315.787 220.584 315.926 220.818C316.109 221.124 316.404 221.347 316.748 221.439C317.092 221.531 317.458 221.485 317.769 221.312Z" fill="black"/>
<path d="M307.633 236.971L325.49 267.9L336.591 261.491C336.812 261.361 337.003 261.184 337.15 260.972C337.297 260.761 337.396 260.52 337.442 260.267L339.1 250.283L325.479 226.69L307.643 236.988L307.633 236.971Z" fill="black"/>
<path d="M323.724 212.101L320.665 213.867L322.332 216.754L325.39 214.988L323.724 212.101Z" fill="black"/>
<path d="M426.204 136.508L401.649 150.684L405.469 157.3L388.836 166.903L383.221 157.177L373.77 162.634L379.752 172.995L296.586 221.011L279.163 231.07L283.786 239.078L301.415 228.899L298.727 224.242L318.797 212.655L319.673 212.149L403.475 163.766L401.818 160.897L430.668 144.24L426.204 136.508Z" fill="black"/>
<path d="M316.288 226.245L311.855 228.805L313.839 232.241L318.272 229.682L316.288 226.245Z" fill="black"/>
<path d="M305.637 231.25L322.27 221.647C322.385 221.581 322.471 221.472 322.508 221.343C322.545 221.215 322.531 221.078 322.469 220.96L318.947 214.86L301.437 224.969L304.959 231.069C305.025 231.183 305.133 231.266 305.26 231.3C305.387 231.334 305.523 231.316 305.637 231.25ZM315.914 218.1C316.318 217.862 316.782 217.75 317.249 217.777C317.716 217.804 318.165 217.97 318.538 218.252C318.911 218.535 319.191 218.921 319.344 219.364C319.497 219.806 319.515 220.283 319.395 220.736C319.276 221.188 319.025 221.595 318.675 221.905C318.324 222.214 317.889 222.413 317.425 222.475C316.962 222.537 316.49 222.46 316.07 222.253C315.65 222.047 315.301 221.72 315.067 221.315C314.756 220.776 314.67 220.135 314.829 219.533C314.988 218.931 315.378 218.415 315.914 218.1ZM306.464 223.556C306.867 223.319 307.332 223.206 307.799 223.234C308.266 223.261 308.714 223.426 309.087 223.708C309.46 223.991 309.741 224.378 309.893 224.82C310.046 225.262 310.064 225.74 309.945 226.192C309.826 226.645 309.575 227.051 309.224 227.361C308.873 227.671 308.438 227.869 307.975 227.931C307.511 227.993 307.039 227.916 306.619 227.709C306.2 227.503 305.851 227.176 305.617 226.771C305.46 226.505 305.357 226.21 305.315 225.904C305.273 225.598 305.292 225.286 305.37 224.987C305.449 224.688 305.586 224.408 305.774 224.162C305.962 223.916 306.196 223.71 306.464 223.556Z" fill="black"/>
<path d="M336.044 204.988L332.796 206.863L334.463 209.75L337.711 207.875L336.044 204.988Z" fill="black"/>
<path d="M331.937 207.359L328.689 209.234L330.356 212.121L333.604 210.246L331.937 207.359Z" fill="black"/>
<path d="M310.961 229.32L307.696 231.205L309.68 234.642L312.945 232.757L310.961 229.32Z" fill="black"/>
<path d="M340.168 202.607L336.92 204.482L338.587 207.369L341.835 205.494L340.168 202.607Z" fill="black"/>
<path d="M320.618 223.746L317.181 225.73L319.165 229.167L322.602 227.183L320.618 223.746Z" fill="black"/>
<path d="M327.831 209.73L324.583 211.605L326.25 214.492L329.497 212.617L327.831 209.73Z" fill="black"/>
<path d="M275.879 229.392L162.763 294.699L153.17 290.226L149.622 295.986L150.991 298.357C151.216 298.765 151.413 299.186 151.583 299.619L164.148 302.216L230.612 263.408L279.292 235.303L275.879 229.392Z" fill="black"/>
<path d="M76.536 411.22L51.7455 382.369L53.0262 377.048L47.9318 370.962C45.7461 371.343 43.6795 372.229 41.8962 373.549C40.1129 374.869 38.662 376.587 37.6589 378.566L43.3007 387.108L43.7106 387.421L48.6422 389.018C48.8734 389.085 49.0851 389.206 49.2591 389.372C52.8249 392.652 67.5257 411.13 72.5591 416.793C74.6574 419.265 77.0119 421.507 79.5832 423.482C83.1067 421.872 85.8949 418.995 87.3931 415.422C86.6012 413.749 85.633 412.165 84.5049 410.698L76.536 411.22Z" fill="black"/>
<path d="M148.127 294.626L155.047 283.437L147.793 277.658L140.912 278.08L136.848 283.978L140.816 290.851L148.127 294.626Z" fill="black"/>
<path d="M53.9561 375.365L128.199 325.307L123.999 318.43L120.147 321.043L121.367 323.157L49.8192 370.422L53.9561 375.365Z" fill="black"/>
<path d="M181.312 245.477L183.563 244.177L174.902 229.176C174.446 229.113 173.982 229.155 173.545 229.3C173.109 229.445 172.711 229.689 172.383 230.012L181.312 245.477Z" fill="black"/>
<path d="M259.58 260.406L288.152 309.893L294.692 304.078C294.837 303.952 294.935 303.779 294.967 303.589C294.999 303.399 294.965 303.204 294.869 303.037L271.605 262.742L259.58 260.406Z" fill="black"/>
<path d="M171.693 230.8C170.972 231.945 170.478 233.218 170.238 234.549L177.788 247.626L180.503 246.058L171.693 230.8Z" fill="black"/>
<path d="M391.208 160.814C391.443 160.678 391.632 160.476 391.751 160.234C391.871 159.991 391.916 159.718 391.881 159.449C391.846 159.181 391.731 158.929 391.553 158.725C391.374 158.522 391.139 158.376 390.878 158.306C390.616 158.236 390.34 158.245 390.084 158.332C389.827 158.419 389.602 158.58 389.437 158.795C389.273 159.009 389.175 159.268 389.157 159.539C389.14 159.809 389.203 160.078 389.338 160.313C389.52 160.627 389.819 160.856 390.169 160.95C390.52 161.044 390.894 160.995 391.208 160.814Z" fill="black"/>
<path d="M244.105 284.554L246.751 283.026L251.344 290.982L248.698 292.51L254.025 301.737L256.671 300.209L261.265 308.165L258.618 309.693L262.954 317.202L265.6 315.674L270.193 323.63L267.547 325.157L268.708 327.168L286.632 311.229L257.267 260.367L236.922 272.113L244.105 284.554Z" fill="black"/>
<path d="M265.237 317.029L263.45 318.061L267.041 324.281L268.828 323.249L265.237 317.029Z" fill="black"/>
<path d="M256.308 301.564L254.521 302.596L258.113 308.816L259.9 307.784L256.308 301.564Z" fill="black"/>
<path d="M246.388 284.38L244.601 285.412L248.192 291.632L249.979 290.601L246.388 284.38Z" fill="black"/>
<path d="M175.031 348.17L173.046 353.898C172.929 354.221 172.889 354.568 172.93 354.909C172.971 355.251 173.091 355.578 173.281 355.865C173.471 356.152 173.725 356.39 174.024 356.56C174.323 356.731 174.657 356.829 175.001 356.847L202.616 358.408C203.022 358.43 203.424 358.311 203.753 358.071C204.082 357.831 204.318 357.485 204.421 357.091L205.067 354.678L203.292 351.603L175.031 348.17Z" fill="black"/>
<path d="M201.007 302.288L199.698 300.02C198.555 300.399 197.314 300.36 196.198 299.91C195.632 299.685 195.114 299.354 194.672 298.935L167.351 314.709L167.746 317.138L175.132 313.424L181.029 316.137L184.422 322.013L175.717 346.261L202.743 349.421L206.787 318.013L209.347 316.535L201.007 302.288Z" fill="black"/>
<path d="M202.587 301.055L208.698 311.64C208.982 312.132 209.36 312.563 209.811 312.908C210.262 313.253 210.776 313.506 211.325 313.651C212.38 313.936 213.503 313.811 214.469 313.302C218.559 311.101 222.828 308.614 225.208 307.102C225.996 306.664 226.671 306.05 227.18 305.306C227.689 304.563 228.019 303.711 228.143 302.819C228.771 297.003 223.524 291.327 221.139 290.252L202.587 301.055ZM225.608 303.389C225.347 304.182 224.896 304.899 224.293 305.477C220.883 307.869 217.229 309.894 213.393 311.518C212.525 311.668 211.631 311.526 210.853 311.112C210.075 310.698 209.457 310.037 209.096 309.234L206.596 304.903L208.194 303.981C210.714 308.345 213.903 308.314 214.747 308.308C215.591 308.301 218.23 307.396 218.313 306.547C218.303 306.094 214.684 307.405 212.662 303.188C212.221 302.218 212.061 301.144 212.2 300.087C212.34 299.031 212.773 298.034 213.45 297.212C218.02 292.786 221.424 293.524 222.365 294.081C223.769 295.083 224.865 296.458 225.527 298.051C225.909 298.887 226.113 299.793 226.127 300.712C226.141 301.63 225.964 302.542 225.608 303.389Z" fill="black"/>
<path d="M236.427 275.264C236.347 277.349 236.266 278.954 236.119 280.207L265.56 329.971L267.181 328.531L236.427 275.264Z" fill="black"/>
<path d="M338.402 262.644L326.374 269.588L327.455 271.461C327.579 271.675 327.783 271.832 328.022 271.896C328.261 271.96 328.515 271.926 328.729 271.802L344.984 262.418C345.203 262.291 345.363 262.083 345.428 261.839C345.494 261.595 345.459 261.335 345.333 261.117L340.442 252.645L339.199 261.405C339.161 261.656 339.07 261.896 338.933 262.109C338.795 262.323 338.615 262.505 338.402 262.644Z" fill="black"/>
<path d="M461.127 114.098L426.95 133.83L433.17 144.604L467.347 124.872C467.347 124.872 467.225 120.017 461.127 114.098Z" fill="black"/>
<path d="M341.01 202.121L342.677 205.008L344.996 203.669L370.181 197.33L381.007 191.08C381.528 190.779 381.909 190.285 382.067 189.704C382.225 189.124 382.148 188.504 381.852 187.98L377.764 180.901L341.01 202.121Z" fill="black"/>
<path d="M280.244 236.951L232.132 264.728L226.854 275.428C227.287 275.823 227.658 276.28 227.958 276.784C228.412 277.579 228.677 278.468 228.732 279.382C228.787 280.296 228.63 281.211 228.274 282.054L234.325 279.202C234.488 277.023 234.616 274.269 234.69 271.66L234.693 271.108L257.581 257.894L272.034 260.707L275.151 257.533L269.327 247.446L282.18 240.026L280.244 236.951Z" fill="black"/>
<path d="M219.033 210.296C218.452 210.626 217.805 210.822 217.139 210.87C216.473 210.917 215.805 210.816 215.183 210.572L212.331 212.219L220.029 225.553L225.888 222.17L219.033 210.296Z" fill="black"/>
<path d="M215.134 209.454L215.353 209.556C215.934 209.82 216.575 209.924 217.21 209.86C217.844 209.795 218.451 209.564 218.967 209.188L219.396 208.94L226.747 221.673L227.916 220.998L219.305 206.084C219.048 205.645 218.649 205.308 218.174 205.127C217.699 204.947 217.177 204.935 216.694 205.094C213.947 205.97 214.499 208.354 214.962 209.553L215.134 209.454Z" fill="black"/>
<path d="M129.24 326.951L91.2667 352.449C91.224 352.47 91.1893 352.505 91.1681 352.548C91.1468 352.59 91.1401 352.639 91.149 352.685C91.1578 352.732 91.1818 352.775 91.2171 352.807C91.2525 352.839 91.2973 352.858 91.3448 352.862C92.6769 353.169 93.8589 353.934 94.6846 355.023C95.5104 356.112 95.9273 357.457 95.8627 358.823L81.754 397.6L73.2931 397.628L54.962 376.869L53.7975 381.757L77.3561 409.189L83.8021 408.766C85.7292 403.255 98.9054 365.085 101.092 361.531C103.279 357.977 131.236 341.837 136.45 338.963L129.24 326.951Z" fill="black"/>
<path d="M189.921 218.008C189.621 217.487 189.126 217.106 188.546 216.947C187.965 216.789 187.345 216.866 186.822 217.163L175.404 223.617C175.123 223.786 174.919 224.058 174.836 224.376C174.754 224.693 174.8 225.031 174.964 225.315L185.718 243.941C185.793 244.076 185.894 244.195 186.016 244.29C186.138 244.385 186.277 244.455 186.426 244.495C186.576 244.535 186.731 244.544 186.884 244.523C187.037 244.501 187.185 244.449 187.317 244.37L191.63 241.88C192.259 241.522 192.774 240.993 193.115 240.354C193.456 239.715 193.609 238.993 193.556 238.271L193.451 236.819C193.411 236.253 193.53 235.688 193.796 235.186C194.061 234.685 194.461 234.268 194.952 233.982L198.096 232.167L194.148 225.328L189.921 218.008Z" fill="black"/>
<path d="M203.894 213.24L192.279 220.107L194.987 224.798L206.671 218.052L203.894 213.24Z" fill="black"/>
<path d="M206.29 215.408L207.53 217.556L214.118 228.966L218.328 226.535L210.5 212.978L206.29 215.408Z" fill="black"/>
<path d="M385.663 151.209L378.263 149.226L373.246 152.123L373.444 157.347L369.791 156.615L367.807 153.178L360.607 157.335L361.662 160.987L357.624 163.319L355.511 159.659L351.455 162L353.529 165.591L350.848 167.139L348.775 163.548L344.651 165.929L346.705 169.485L343.955 171.073L341.902 167.516L337.846 169.857L339.831 173.294L337.099 174.871L335.114 171.434L331.042 173.786L333.026 177.222L330.311 178.79L328.327 175.353L324.272 177.694L326.256 181.131L323.507 182.718L321.523 179.282L317.467 181.623L319.452 185.06L316.719 186.637L314.735 183.2L310.68 185.542L312.605 188.875L309.855 190.462L307.931 187.129L303.876 189.47L305.78 192.769L303.048 194.347L301.143 191.048L297.071 193.399L298.946 196.646L296.214 198.224L294.339 194.976L290.353 197.278L292.208 200.491L289.476 202.068L287.62 198.855L283.479 201.246L285.315 204.425L282.583 206.002L280.747 202.823L276.692 205.165L278.498 208.292L275.061 210.276L272.151 208.451L240.981 226.447C240.284 226.964 239.819 227.735 239.684 228.592C239.549 229.45 239.756 230.326 240.261 231.032L236.962 232.937L234.809 229.208L230.754 231.55L232.907 235.278L230.174 236.856L228.022 233.127L223.949 235.478L226.102 239.207L223.37 240.784L221.217 237.056L217.162 239.397L219.315 243.126L216.565 244.713L214.413 240.984L210.358 243.325L212.51 247.054L208.919 249.128L205.834 243.784C205.203 240.23 219.663 230.117 219.663 230.117L218.77 228.571L196.982 241.15C195.29 249.252 183.107 253.904 183.107 253.904C185.964 258.852 179.278 266.241 179.278 266.241L178.746 266.548L176.652 262.923L172.614 265.254L174.757 268.965L172.008 270.553L169.865 266.841L165.81 269.182L167.953 272.894L166.784 273.569L163.066 271.454L153.461 277C153.461 277 151.355 278.948 156.007 282.403L270.584 216.252L278.213 229.465L295.654 219.396L288.203 206.492L371.31 158.373L373.294 161.809L383.604 155.857L389.219 165.582L404.134 156.971L397.04 144.685L385.663 151.209ZM391.704 161.673C391.301 161.91 390.836 162.023 390.369 161.995C389.902 161.968 389.454 161.803 389.081 161.52C388.708 161.238 388.427 160.851 388.275 160.409C388.122 159.967 388.104 159.489 388.223 159.037C388.342 158.584 388.593 158.178 388.944 157.868C389.295 157.558 389.73 157.36 390.193 157.298C390.657 157.236 391.129 157.313 391.548 157.52C391.968 157.726 392.317 158.053 392.551 158.458C392.863 158.997 392.948 159.638 392.79 160.24C392.631 160.842 392.241 161.357 391.704 161.673Z" fill="black"/>
<path d="M264.868 210.318L261.705 207.975C261.561 207.861 261.386 207.793 261.202 207.781C261.019 207.768 260.837 207.81 260.678 207.903L244.784 217.08C244.784 217.08 239.602 219.453 240.966 224.118L264.868 210.318Z" fill="black"/>
<path d="M198.622 233.077L195.632 234.803C195.257 235.048 194.95 235.385 194.742 235.781C194.534 236.178 194.431 236.622 194.444 237.07L194.614 239.469L200.388 236.135L198.622 233.077Z" fill="black"/>
<path d="M195.483 225.656L199.352 232.358L199.369 232.348L201.591 236.197L213.259 229.461L207.168 218.91L195.483 225.656Z" fill="black"/>
</svg>
