<svg width="512" height="512" viewBox="0 0 512 512" fill="none" xmlns="http://www.w3.org/2000/svg">
<path d="M100.099 368.241C100.241 370.094 99.503 371.505 98.9331 372.295C98.7259 372.593 98.9331 372.995 99.3087 372.995H148.098C148.202 372.995 148.72 373.008 148.836 372.995C153.978 372.684 159.379 373.526 154.587 368.229H100.099V368.241Z" fill="black"/>
<path d="M250.819 230.369H214.373C213.958 233.296 213.712 237.648 218.44 240.808H246.713C246.895 240.808 251.816 240.549 251.816 234.63V230.369H250.832H250.819Z" fill="black"/>
<path d="M215.227 223.646C215.227 223.646 215.409 226.548 214.865 228.814H251.79C251.79 228.814 250.586 225.693 251.13 223.646H215.227Z" fill="black"/>
<path d="M186.682 292.072C188.999 292.072 190.878 290.193 190.878 287.876C190.878 285.558 188.999 283.68 186.682 283.68C184.364 283.68 182.485 285.558 182.485 287.876C182.485 290.193 184.364 292.072 186.682 292.072Z" fill="black"/>
<path d="M270.143 267.722C261.012 267.657 219.009 267.411 207.935 267.722C195.501 268.085 191.383 279.715 191.383 279.715C197.716 285.142 194.297 292.952 193.144 295.128C195.242 295.672 196.745 296.902 196.745 296.902C206.951 309.427 221.263 306.927 221.263 306.927C242.568 304.427 240.6 283.653 240.6 283.653C239.848 280.441 240.056 277.565 242.167 276.529C247.205 274.055 254.639 274.561 257.605 274.884C258.421 274.975 259.224 274.612 259.691 273.939L261.18 271.828C264.379 271.828 267.436 270.52 269.651 268.201L269.948 267.89L270.143 267.696V267.722ZM224.138 303.093C208.479 307.652 199.529 293.056 199.529 293.056C196.266 285.453 198.662 280.169 200.889 277.28C201.641 276.309 203.221 276.879 203.156 278.109C202.275 296.579 216.173 299.765 216.173 299.765C212.857 297.887 210.888 291.89 210.888 291.89C205.967 281.956 214.295 274.612 214.295 274.612C229.889 264.873 234.435 279.003 234.435 279.003C242.491 296.449 224.138 303.081 224.138 303.081V303.093Z" fill="black"/>
<path d="M395.076 239.227H342.362C341.715 239.227 341.197 238.489 341.197 237.582C341.197 236.676 341.715 235.938 342.362 235.938H395.076C395.724 235.938 396.242 236.676 396.242 237.582C396.242 238.489 395.724 239.227 395.076 239.227Z" fill="black"/>
<path d="M398.301 226.756L401.047 226.652H402.795C404.324 229.1 405.347 233.322 405.347 238.14C405.347 242.958 404.324 247.18 402.795 249.628H402.07L399.532 248.527L399.506 248.333H399.532C400.464 245.885 401.047 242.608 401.047 238.995C401.047 234.85 400.283 231.185 399.091 228.66L398.301 226.756Z" fill="black"/>
<path d="M415.54 226.639H404.505C405.995 229.462 406.888 233.632 406.888 238.126C406.888 242.62 405.982 246.791 404.505 249.614H414.361C414.361 249.614 421.199 240.25 415.527 226.639H415.54Z" fill="black"/>
<path d="M403.858 225.563H414.18L411.149 216.795H404.272L401.526 224.902L403.858 225.563Z" fill="black"/>
<path d="M134.24 218.337V215.526C134.24 214.724 134.784 214.024 135.548 213.83L138.553 213.053C139.019 212.936 139.524 213.014 139.926 213.273L148.901 218.946L134.227 218.35L134.24 218.337Z" fill="black"/>
<path d="M256.362 223.349H253.357V234.63C253.357 240.536 249.045 242.271 246.765 242.362H246.739H217.96L217.572 242.103C211.627 238.14 212.469 232.467 212.935 229.423L213.039 228.763C213.272 227.053 213.181 225.24 213.116 224.307L213.026 223.349H200.177L194.686 221.562H151.828L133.385 221.018L121.625 228.102C120.368 229.1 117.648 229.112 116.185 228.983L110.732 228.426C109.981 228.348 109.217 228.426 108.543 228.763C106.031 229.941 104.761 232.454 105.979 233.827C106.652 234.591 109.437 233.853 110.434 234.086C122.402 236.754 122.104 243.761 122.777 248.773H259.264V228.128C258.655 224.787 256.375 223.362 256.375 223.362L256.362 223.349ZM143.189 246.986C143.06 246.986 142.93 246.96 142.801 246.921C142.153 246.701 141.791 246.002 142.011 245.341L146.894 230.706C147.114 230.058 147.8 229.708 148.474 229.915C149.121 230.136 149.484 230.835 149.264 231.496L144.381 246.131C144.2 246.649 143.72 246.986 143.202 246.986H143.189ZM147.243 246.986C147.114 246.986 146.984 246.96 146.855 246.921C146.207 246.701 145.845 246.002 146.065 245.341L150.948 230.706C151.168 230.058 151.854 229.708 152.528 229.915C153.175 230.136 153.538 230.835 153.318 231.496L148.435 246.131C148.254 246.649 147.774 246.986 147.256 246.986H147.243ZM151.297 246.986C151.168 246.986 151.038 246.96 150.909 246.921C150.261 246.701 149.898 246.002 150.119 245.341L155.001 230.706C155.222 230.058 155.908 229.708 156.582 229.915C157.229 230.136 157.592 230.835 157.372 231.496L152.489 246.131C152.308 246.649 151.828 246.986 151.31 246.986H151.297ZM155.338 246.986C155.209 246.986 155.079 246.96 154.95 246.921C154.302 246.701 153.939 246.002 154.16 245.341L159.042 230.706C159.263 230.058 159.949 229.708 160.623 229.915C161.27 230.136 161.633 230.835 161.413 231.496L156.53 246.131C156.348 246.649 155.869 246.986 155.351 246.986H155.338ZM159.392 246.986C159.263 246.986 159.133 246.96 159.004 246.921C158.356 246.701 157.993 246.002 158.214 245.341L163.096 230.706C163.317 230.058 164.003 229.708 164.676 229.915C165.324 230.136 165.687 230.835 165.467 231.496L160.584 246.131C160.402 246.649 159.923 246.986 159.405 246.986H159.392ZM163.446 246.986C163.317 246.986 163.187 246.96 163.058 246.921C162.41 246.701 162.047 246.002 162.267 245.341L167.15 230.706C167.37 230.058 168.057 229.708 168.73 229.915C169.378 230.136 169.741 230.835 169.52 231.496L164.638 246.131C164.456 246.649 163.977 246.986 163.459 246.986H163.446ZM167.5 246.986C167.37 246.986 167.241 246.96 167.111 246.921C166.464 246.701 166.101 246.002 166.321 245.341L171.204 230.706C171.424 230.058 172.111 229.708 172.784 229.915C173.432 230.136 173.795 230.835 173.574 231.496L168.692 246.131C168.51 246.649 168.031 246.986 167.513 246.986H167.5ZM171.541 246.986C171.411 246.986 171.282 246.96 171.152 246.921C170.505 246.701 170.142 246.002 170.362 245.341L175.245 230.706C175.465 230.058 176.152 229.708 176.825 229.915C177.473 230.136 177.836 230.835 177.615 231.496L172.733 246.131C172.551 246.649 172.072 246.986 171.554 246.986H171.541ZM175.595 246.986C175.465 246.986 175.336 246.96 175.206 246.921C174.559 246.701 174.196 246.002 174.416 245.341L179.299 230.706C179.519 230.058 180.206 229.708 180.879 229.915C181.527 230.136 181.889 230.835 181.669 231.496L176.786 246.131C176.605 246.649 176.126 246.986 175.608 246.986H175.595ZM185.697 231.509L180.814 246.144C180.633 246.662 180.154 246.999 179.636 246.999C179.506 246.999 179.377 246.973 179.247 246.934C178.6 246.714 178.237 246.015 178.457 245.354L183.34 230.718C183.56 230.071 184.247 229.721 184.92 229.928C185.568 230.149 185.93 230.848 185.71 231.509H185.697Z" fill="black"/>
<path d="M398.068 230.226L397.408 228.672L391.761 228.711L260.792 229.695L260.818 248.32H397.9L398.392 246.882C399.104 244.628 399.493 241.87 399.493 238.982C399.493 235.705 398.975 232.57 398.068 230.213V230.226ZM395.076 240.082H342.362C340.977 240.082 339.863 238.956 339.863 237.583C339.863 236.21 340.99 235.083 342.362 235.083H395.076C396.462 235.083 397.576 236.21 397.576 237.583C397.576 238.956 396.449 240.082 395.076 240.082Z" fill="black"/>
<path d="M132.517 256.337C131.986 255.974 131.364 255.78 130.717 255.741C129.007 255.611 126.158 255.857 126.041 259.005C125.873 263.576 129.46 264.327 131.364 264.315C133.268 264.302 139.977 265.066 141.155 264.056C142.243 263.123 143.927 261.09 141.427 258.784C141.026 258.409 139.873 258.111 139.329 258.189C137.905 258.409 134.874 257.956 132.53 256.337H132.517Z" fill="black"/>
<path d="M181.216 259.821C180.322 259.614 179.675 258.824 179.649 257.904C179.61 256.596 179.765 254.77 180.879 254.084C182.679 252.957 189.595 255.729 189.595 255.729L188.805 259.925C188.805 259.925 184.259 260.521 181.216 259.821Z" fill="black"/>
<path d="M196.383 255.639H221.406C222.001 255.639 222.377 256.286 222.079 256.804L219.994 260.431C219.748 260.858 219.281 261.13 218.789 261.13H195.644C194.932 261.13 194.401 260.47 194.556 259.77L195.295 256.506C195.411 256.001 195.865 255.639 196.383 255.639Z" fill="black"/>
<path d="M227.299 255.741L226.159 258.992C225.952 259.575 226.288 260.21 226.897 260.365L232.207 261.751C233.14 261.997 234.137 261.712 234.797 261.012C235.743 260.002 236.895 258.409 236.792 256.687C236.766 256.221 236.52 255.793 236.118 255.56C235.238 255.016 233.152 254.226 228.788 254.602C228.115 254.653 227.532 255.107 227.312 255.741H227.299Z" fill="black"/>
<path d="M260.805 250.329H122.285C122.208 250.575 122.143 250.847 122.052 251.08C120.757 254.409 119.902 257.504 116.638 258.968C114.359 260.004 111.458 260.198 111.328 261.675C111.25 262.594 111.419 263.967 113.012 264.576C114.864 265.275 118.931 266.234 118.931 266.234C131.08 268.785 127.997 275.974 125.238 279.872C123.062 282.955 121.236 286.257 119.578 289.651C114.113 300.906 103.92 322.134 101.342 329.206C97.7676 338.984 94.1929 354.384 94.1929 354.384C92.5869 366.196 101.537 366.74 101.537 366.74L154.768 366.908C157.864 367.232 157.203 362.621 157.203 362.621C157.566 345.434 180.659 303.159 180.659 303.159C183.923 296.943 188.353 294.132 191.565 294.896L191.59 294.857C191.811 294.508 196.771 286.231 190.477 280.843L189.661 280.144L190.023 279.134C190.062 279.004 194.647 266.493 208.013 266.104C211.692 266.001 219.152 265.949 230.174 265.949C247.84 265.949 268.913 266.091 271.723 266.104L272.928 264.848L272.967 264.874C272.954 264.718 272.941 264.615 272.941 264.615L277.539 267.4L283.445 267.464C283.16 265.936 283.03 264.615 283.03 264.615L287.796 267.503L294.57 267.568C294.272 265.988 294.13 264.602 294.13 264.602L299.09 267.607L305.683 267.672C305.359 266.053 305.23 264.589 305.23 264.589L310.281 267.659L310.242 267.723L316.407 267.788C316.07 266.117 315.928 264.602 315.928 264.602L320.979 267.672L320.888 267.827C324.605 267.684 327.636 265.703 327.636 261.934V249.889L260.844 250.342L260.805 250.329ZM126.3 263.747C125.161 262.568 124.63 260.95 124.707 258.955C124.811 256.093 126.806 254.383 130.031 254.383C130.303 254.383 130.575 254.383 130.821 254.409C131.74 254.487 132.595 254.772 133.281 255.238C134.952 256.39 137.128 256.909 138.54 256.909C138.76 256.909 138.954 256.909 139.123 256.87C139.252 256.844 139.395 256.844 139.537 256.844C140.262 256.844 141.609 257.142 142.322 257.802C143.487 258.877 144.07 260.069 144.044 261.325C144.019 262.646 143.319 263.941 142.011 265.055C141.312 265.664 140.068 265.91 137.711 265.91C136.286 265.91 134.68 265.819 133.398 265.742C132.543 265.69 131.805 265.651 131.352 265.651C130.147 265.651 127.881 265.405 126.287 263.747H126.3ZM177.849 279.354C169.508 288.692 151.466 325.449 147.01 348.102C146.207 352.156 143.423 358.205 138.993 358.205L109.878 357.764C106.368 357.738 102.534 357.402 100.798 354.98C99.8399 353.646 99.7104 351.936 100.384 349.877C106.536 331.381 125.912 289.741 136.571 274.083C137.724 272.386 140.042 269.524 142.633 269.381L170.259 268.526C170.44 268.526 170.764 268.513 171.178 268.513C185.736 268.513 186.19 270.145 186.332 270.689C186.462 271.181 186.358 271.907 185.62 272.347C183.159 273.824 179.325 277.696 177.849 279.354ZM191.824 286.426C192.899 290.48 189.285 294.093 185.244 293.018C183.47 292.552 181.734 291.153 181.255 289.379C180.18 285.325 183.56 281.271 187.601 282.346C189.376 282.812 191.344 284.651 191.824 286.426ZM189.933 261.118L188.974 261.247C188.897 261.247 187.044 261.493 184.881 261.493C183.275 261.493 181.903 261.364 180.815 261.105C179.351 260.755 178.367 259.46 178.315 257.958C178.237 255.458 178.859 253.774 180.167 252.958C180.672 252.647 181.32 252.492 182.162 252.492C185.037 252.492 189.881 254.422 190.088 254.5L191.111 254.901L189.933 261.118ZM223.232 257.478L221.146 261.105C220.654 261.947 219.761 262.465 218.789 262.465H195.644C194.893 262.465 194.207 262.128 193.74 261.545C193.274 260.962 193.106 260.211 193.274 259.486L194.012 256.222C194.272 255.108 195.256 254.318 196.396 254.318H221.418C222.17 254.318 222.869 254.72 223.245 255.38C223.62 256.028 223.62 256.844 223.245 257.491L223.232 257.478ZM235.73 261.947C234.979 262.737 233.943 263.164 232.868 263.164C232.531 263.164 232.194 263.125 231.858 263.035L226.547 261.649C225.9 261.481 225.356 261.053 225.045 260.457C224.734 259.875 224.682 259.175 224.89 258.54L226.029 255.29C226.418 254.176 227.428 253.373 228.607 253.269C229.423 253.204 230.2 253.165 230.925 253.165C234.098 253.165 235.873 253.852 236.805 254.422C237.569 254.888 238.062 255.704 238.113 256.611C238.243 258.812 236.883 260.729 235.743 261.947H235.73Z" fill="black"/>
<path d="M144.044 271.75L171.062 270.494C173.16 270.377 186.228 270.286 184.7 271.206C182.071 272.786 177.939 277.578 176.476 279.223C168.277 288.393 150.533 323.091 145.935 346.404C145.301 349.616 143.306 355.444 139.589 355.419L110.512 354.978C105.914 354.952 100.448 354.318 102.262 348.852C108.323 330.603 127.09 291.501 137.672 275.959C138.579 274.625 142.011 271.854 144.044 271.737V271.75Z" fill="black"/>
</svg>
