<svg width="512" height="512" viewBox="0 0 512 512" fill="none" xmlns="http://www.w3.org/2000/svg">
<path d="M158.591 399.055C159.641 400.588 159.707 402.18 159.609 403.149C159.578 403.511 159.959 403.755 160.284 403.567L202.537 379.172C202.627 379.12 203.082 378.873 203.176 378.803C207.474 375.963 212.572 373.991 205.773 371.8L158.585 399.044L158.591 399.055Z" fill="black"/>
<path d="M220.183 204.296L188.619 222.519C189.724 225.261 191.687 229.153 197.361 229.526L221.847 215.389C222.004 215.298 226.136 212.613 223.177 207.487L221.046 203.797L220.194 204.289L220.183 204.296Z" fill="black"/>
<path d="M185.998 216.268C185.998 216.268 187.606 218.69 188.268 220.925L220.246 202.462C220.246 202.462 217.643 200.361 217.091 198.317L185.998 216.268Z" fill="black"/>
<path d="M195.489 289.799C197.496 288.64 198.184 286.074 197.025 284.067C195.866 282.06 193.3 281.372 191.293 282.531C189.286 283.69 188.599 286.256 189.757 288.263C190.916 290.27 193.482 290.958 195.489 289.799Z" fill="black"/>
<path d="M255.594 226.982C247.654 231.491 211.155 252.279 201.721 258.085C191.134 264.616 193.383 276.748 193.383 276.748C201.581 278.281 202.525 286.754 202.614 289.215C204.703 288.637 206.62 288.952 206.62 288.952C221.721 294.695 232.865 285.374 232.865 285.374C250.067 272.557 237.974 255.55 237.974 255.55C235.718 253.143 234.46 250.55 235.77 248.597C238.896 243.935 245.587 240.656 248.318 239.453C249.07 239.124 249.584 238.408 249.651 237.592L249.885 235.019C252.656 233.419 254.649 230.758 255.407 227.643L255.51 227.225L255.581 226.959L255.594 226.982ZM233.438 280.617C222.157 292.394 207.108 284.228 207.108 284.228C200.48 279.276 199.913 273.501 200.398 269.886C200.563 268.669 202.216 268.373 202.775 269.471C211.247 285.906 224.876 281.717 224.876 281.717C221.065 281.748 216.362 277.539 216.362 277.539C207.133 271.397 210.673 260.873 210.673 260.873C219.308 244.641 230.31 254.605 230.31 254.605C246.01 265.686 233.432 280.605 233.432 280.605L233.438 280.617Z" fill="black"/>
<path d="M349.543 139.839L303.891 166.196C303.33 166.52 302.513 166.139 302.059 165.354C301.606 164.569 301.685 163.671 302.246 163.347L347.898 136.99C348.459 136.666 349.276 137.046 349.73 137.832C350.183 138.617 350.104 139.515 349.543 139.839Z" fill="black"/>
<path d="M346.1 127.424L348.426 125.961L349.94 125.087C352.487 126.443 355.484 129.588 357.893 133.76C360.302 137.932 361.527 142.1 361.427 144.984L360.799 145.347L358.051 145.663L357.931 145.507L357.953 145.494C357.537 142.908 356.404 139.779 354.597 136.65C352.525 133.061 350.03 130.269 347.736 128.677L346.1 127.424Z" fill="black"/>
<path d="M360.97 118.704L351.414 124.221C354.116 125.921 356.975 129.086 359.222 132.978C361.469 136.87 362.769 140.935 362.902 144.118L371.437 139.19C371.437 139.19 372.677 127.662 360.959 118.71L360.97 118.704Z" fill="black"/>
<path d="M350.315 123.613L359.254 118.452L352.246 112.374L346.29 115.813L347.966 124.207L350.315 123.613Z" fill="black"/>
<path d="M113.206 252.164L111.801 249.73C111.399 249.035 111.521 248.157 112.085 247.607L114.299 245.432C114.644 245.098 115.121 244.912 115.598 244.936L126.207 245.361L113.201 252.182L113.206 252.164Z" fill="black"/>
<path d="M221.474 195.443L218.871 196.946L224.512 206.715C227.465 211.83 224.598 215.49 222.669 216.708L222.646 216.721L197.723 231.11L197.257 231.08C190.127 230.62 188.02 225.287 186.902 222.418L186.661 221.794C186.008 220.197 185.023 218.672 184.501 217.896L183.943 217.112L172.816 223.536L167.167 224.734L130.051 246.162L113.806 254.913L107.164 266.929C106.575 268.42 104.226 269.792 102.893 270.411L97.8928 272.655C97.2034 272.964 96.5804 273.413 96.1656 274.041C94.5788 276.318 94.7359 279.129 96.4767 279.709C97.4421 280.034 99.4845 278.003 100.465 277.706C112.163 274.033 115.408 280.25 118.498 284.254L236.698 216.011L226.376 198.132C224.178 195.542 221.491 195.448 221.491 195.448L221.474 195.443ZM135.282 272.5C135.169 272.565 135.044 272.607 134.913 272.638C134.242 272.771 133.578 272.347 133.438 271.665L130.349 256.549C130.216 255.878 130.636 255.232 131.323 255.074C131.994 254.941 132.657 255.366 132.797 256.048L135.886 271.164C135.988 271.703 135.741 272.235 135.293 272.494L135.282 272.5ZM138.792 270.473C138.68 270.538 138.555 270.58 138.423 270.611C137.753 270.744 137.089 270.32 136.949 269.638L133.86 254.522C133.727 253.851 134.147 253.205 134.833 253.047C135.504 252.914 136.168 253.339 136.308 254.021L139.397 269.137C139.499 269.676 139.252 270.208 138.804 270.467L138.792 270.473ZM142.303 268.446C142.191 268.511 142.066 268.553 141.934 268.584C141.263 268.717 140.6 268.293 140.46 267.611L137.371 252.495C137.238 251.824 137.657 251.178 138.344 251.02C139.015 250.887 139.679 251.312 139.819 251.994L142.908 267.11C143.01 267.649 142.763 268.181 142.314 268.44L142.303 268.446ZM145.803 266.426C145.691 266.49 145.565 266.533 145.434 266.564C144.763 266.697 144.099 266.273 143.96 265.59L140.87 250.474C140.737 249.803 141.157 249.157 141.844 249C142.515 248.867 143.179 249.291 143.318 249.973L146.407 265.09C146.509 265.629 146.263 266.16 145.814 266.419L145.803 266.426ZM149.313 264.399C149.201 264.463 149.076 264.506 148.945 264.537C148.274 264.67 147.61 264.246 147.47 263.563L144.381 248.447C144.248 247.776 144.668 247.13 145.355 246.973C146.026 246.84 146.689 247.264 146.829 247.946L149.918 263.063C150.02 263.602 149.773 264.133 149.325 264.392L149.313 264.399ZM152.824 262.372C152.712 262.436 152.587 262.479 152.455 262.51C151.784 262.643 151.121 262.219 150.981 261.537L147.892 246.42C147.759 245.749 148.179 245.103 148.865 244.946C149.536 244.813 150.2 245.237 150.34 245.919L153.429 261.036C153.531 261.575 153.284 262.106 152.836 262.365L152.824 262.372ZM156.335 260.345C156.223 260.41 156.098 260.452 155.966 260.483C155.295 260.616 154.632 260.192 154.492 259.51L151.403 244.393C151.27 243.722 151.689 243.076 152.376 242.919C153.047 242.786 153.711 243.21 153.85 243.893L156.94 259.009C157.042 259.548 156.795 260.079 156.346 260.338L156.335 260.345ZM159.835 258.324C159.722 258.389 159.597 258.431 159.466 258.462C158.795 258.596 158.131 258.171 157.992 257.489L154.902 242.373C154.769 241.702 155.189 241.056 155.876 240.899C156.547 240.766 157.21 241.19 157.35 241.872L160.439 256.988C160.541 257.528 160.295 258.059 159.846 258.318L159.835 258.324ZM163.345 256.297C163.233 256.362 163.108 256.404 162.977 256.436C162.306 256.569 161.642 256.144 161.502 255.462L158.413 240.346C158.28 239.675 158.7 239.029 159.387 238.872C160.058 238.739 160.721 239.163 160.861 239.845L163.95 254.961C164.052 255.501 163.805 256.032 163.357 256.291L163.345 256.297ZM164.356 237.842L167.445 252.958C167.547 253.498 167.3 254.029 166.852 254.288C166.739 254.353 166.614 254.395 166.483 254.426C165.812 254.559 165.148 254.135 165.008 253.453L161.919 238.337C161.786 237.666 162.206 237.02 162.893 236.862C163.564 236.729 164.227 237.154 164.367 237.836L164.356 237.842Z" fill="black"/>
<path d="M347.632 130.546L346.283 129.53L341.412 132.387L228.482 198.724L237.817 214.841L356.533 146.3L356.241 144.808C355.731 142.501 354.688 139.917 353.244 137.416C351.606 134.578 349.59 132.123 347.626 130.535L347.632 130.546ZM349.97 140.578L304.318 166.934C303.118 167.627 301.59 167.208 300.903 166.02C300.217 164.831 300.629 163.291 301.818 162.605L347.47 136.248C348.67 135.555 350.198 135.974 350.885 137.163C351.571 138.352 351.159 139.891 349.97 140.578Z" fill="black"/>
<path d="M130.714 285.935C130.073 285.886 129.438 286.029 128.857 286.319C127.312 287.061 124.968 288.699 126.44 291.483C128.58 295.526 132.063 294.383 133.705 293.42C135.347 292.457 141.539 289.764 142.055 288.3C142.531 286.949 142.972 284.346 139.655 283.599C139.119 283.475 137.972 283.793 137.54 284.132C136.416 285.035 133.565 286.158 130.726 285.928L130.714 285.935Z" fill="black"/>
<path d="M174.631 264.603C173.753 264.871 172.797 264.51 172.315 263.727C171.627 262.614 170.849 260.954 171.47 259.803C172.466 257.927 179.841 256.869 179.841 256.869L181.255 260.898C181.255 260.898 177.616 263.687 174.631 264.603Z" fill="black"/>
<path d="M185.674 253.398L207.345 240.886C207.861 240.588 208.51 240.961 208.511 241.559L208.518 245.742C208.519 246.235 208.251 246.704 207.825 246.95L187.781 258.522C187.164 258.879 186.374 258.572 186.159 257.889L185.166 254.693C185.014 254.197 185.226 253.657 185.674 253.398Z" fill="black"/>
<path d="M212.5 238.028L213.138 241.413C213.25 242.021 213.859 242.402 214.464 242.233L219.755 240.778C220.686 240.525 221.407 239.779 221.629 238.843C221.943 237.496 222.145 235.54 221.194 234.1C220.938 233.709 220.511 233.462 220.047 233.461C219.012 233.43 216.812 233.789 213.22 236.296C212.662 236.678 212.384 237.362 212.511 238.021L212.5 238.028Z" fill="black"/>
<path d="M238.811 216.586L118.849 285.846C118.905 286.098 118.985 286.366 119.023 286.613C119.566 290.143 120.373 293.252 118.278 296.151C116.822 298.188 114.407 299.807 115.033 301.15C115.425 301.986 116.258 303.09 117.942 302.821C119.895 302.501 123.897 301.297 123.897 301.297C135.694 297.433 136.618 305.199 136.178 309.955C135.835 313.712 135.905 317.485 136.166 321.253C137.06 333.733 138.847 357.214 140.15 364.627C141.944 374.883 146.548 390.006 146.548 390.006C151.063 401.039 159.086 397.035 159.086 397.035L205.27 370.565C208.113 369.298 205.235 365.635 205.235 365.635C196.956 350.569 195.818 302.412 195.818 302.412C195.536 295.396 197.967 290.747 201.13 289.803L201.133 289.756C201.149 289.343 201.307 279.696 193.162 278.177L192.106 277.979L191.915 276.923C191.883 276.791 189.598 263.664 200.98 256.644C204.113 254.715 210.548 250.94 220.093 245.429C235.393 236.596 253.714 226.183 256.154 224.789L256.569 223.099L256.616 223.102C256.527 222.974 256.464 222.89 256.464 222.89L261.838 223.003L266.985 220.106C265.974 218.925 265.201 217.846 265.201 217.846L270.773 217.964L276.672 214.633C275.624 213.413 274.808 212.285 274.808 212.285L280.606 212.406L286.348 209.166C285.258 207.926 284.414 206.723 284.414 206.723L290.323 206.856L290.322 206.932L295.693 203.905C294.566 202.627 293.685 201.386 293.685 201.386L299.594 201.518L299.593 201.698C302.741 199.716 304.375 196.485 302.491 193.221L296.468 182.789L238.851 216.578L238.811 216.586ZM129.036 295.459C127.459 295.008 126.19 293.872 125.26 292.105C123.918 289.575 124.791 287.097 127.584 285.484C127.819 285.348 128.055 285.212 128.281 285.112C129.116 284.719 129.999 284.539 130.827 284.599C132.85 284.762 134.993 284.123 136.216 283.417C136.407 283.307 136.575 283.21 136.701 283.092C136.8 283.005 136.924 282.933 137.047 282.862C137.675 282.499 138.991 282.084 139.938 282.3C141.485 282.648 142.586 283.389 143.191 284.489C143.829 285.647 143.871 287.118 143.295 288.737C142.994 289.613 142.04 290.448 139.999 291.627C138.765 292.339 137.329 293.064 136.179 293.638C135.413 294.02 134.755 294.356 134.362 294.582C133.319 295.184 131.233 296.105 129.024 295.465L129.036 295.459ZM181.481 283.201C178.927 295.459 181.681 336.312 189.148 358.158C190.48 362.07 191.093 368.7 187.257 370.915L161.821 385.092C158.769 386.824 155.28 388.449 152.566 387.22C151.069 386.544 150.102 385.128 149.656 383.008C145.736 363.914 141.696 318.165 143.098 299.274C143.248 297.229 143.825 293.591 145.997 292.172L169.494 277.619C169.651 277.528 169.925 277.355 170.284 277.148C182.892 269.869 184.1 271.055 184.496 271.455C184.854 271.817 185.127 272.497 184.708 273.247C183.315 275.756 181.931 281.027 181.481 283.201ZM197.12 282.338C200.077 285.311 198.755 290.247 194.718 291.337C192.948 291.82 190.746 291.476 189.443 290.179C186.485 287.206 187.386 282.005 191.423 280.916C193.193 280.432 195.817 281.041 197.12 282.338ZM182.828 261.366L182.063 261.957C181.995 261.996 180.515 263.135 178.641 264.217C177.25 265.02 175.997 265.594 174.925 265.914C173.483 266.343 171.983 265.713 171.187 264.438C169.869 262.312 169.566 260.543 170.291 259.182C170.573 258.661 171.056 258.202 171.785 257.781C174.275 256.344 179.435 255.593 179.653 255.556L180.74 255.393L182.828 261.366ZM209.846 241.564L209.854 245.748C209.848 246.723 209.333 247.618 208.492 248.104L188.448 259.677C187.797 260.052 187.035 260.104 186.339 259.832C185.644 259.56 185.123 258.994 184.906 258.282L183.913 255.086C183.581 253.992 184.038 252.816 185.025 252.246L206.696 239.734C207.346 239.359 208.153 239.357 208.808 239.741C209.457 240.114 209.865 240.821 209.864 241.569L209.846 241.564ZM222.904 239.185C222.649 240.245 221.965 241.133 221.034 241.67C220.743 241.839 220.432 241.974 220.095 242.063L214.803 243.518C214.158 243.696 213.473 243.598 212.906 243.238C212.345 242.888 211.951 242.309 211.813 241.655L211.175 238.27C210.954 237.111 211.427 235.911 212.396 235.232C213.071 234.768 213.724 234.345 214.352 233.983C217.1 232.396 218.98 232.103 220.073 232.131C220.968 232.152 221.802 232.613 222.3 233.372C223.513 235.214 223.294 237.554 222.916 239.178L222.904 239.185Z" fill="black"/>
<path d="M148.404 293.52L171.174 278.923C172.932 277.773 184.205 271.161 183.341 272.721C181.854 275.404 180.672 281.62 180.227 283.776C177.712 295.817 179.694 334.738 187.369 357.227C188.425 360.326 189.612 366.371 186.38 368.207L160.978 382.364C156.984 384.64 151.933 386.824 150.77 381.184C146.895 362.349 143.597 319.102 144.99 300.352C145.108 298.743 146.695 294.627 148.398 293.509L148.404 293.52Z" fill="black"/>
</svg>
