<svg width="512" height="160" viewBox="0 0 512 160" fill="none" xmlns="http://www.w3.org/2000/svg">
<path d="M100.099 155.241C100.241 157.094 99.503 158.505 98.9331 159.295C98.7259 159.593 98.9331 159.995 99.3087 159.995H148.098C148.202 159.995 148.72 160.008 148.836 159.995C153.978 159.684 159.379 160.526 154.587 155.229H100.099V155.241Z" fill="black"/>
<path d="M250.819 17.3691H214.373C213.958 20.2962 213.712 24.648 218.44 27.8083H246.713C246.895 27.8083 251.816 27.5493 251.816 21.6303V17.3691H250.832H250.819Z" fill="black"/>
<path d="M215.227 10.6465C215.227 10.6465 215.409 13.5477 214.865 15.8143H251.79C251.79 15.8143 250.586 12.6929 251.13 10.6465H215.227Z" fill="black"/>
<path d="M186.682 79.072C188.999 79.072 190.878 77.1933 190.878 74.8758C190.878 72.5584 188.999 70.6797 186.682 70.6797C184.364 70.6797 182.485 72.5584 182.485 74.8758C182.485 77.1933 184.364 79.072 186.682 79.072Z" fill="black"/>
<path d="M270.143 54.7221C261.012 54.6573 219.009 54.4112 207.935 54.7221C195.501 55.0847 191.383 66.7154 191.383 66.7154C197.716 72.1422 194.297 79.9522 193.144 82.1281C195.242 82.6721 196.745 83.9025 196.745 83.9025C206.951 96.4269 221.263 93.9272 221.263 93.9272C242.568 91.4275 240.6 70.6528 240.6 70.6528C239.848 67.4407 240.056 64.5654 242.167 63.5293C247.205 61.0555 254.639 61.5606 257.605 61.8844C258.421 61.9751 259.224 61.6124 259.691 60.9389L261.18 58.8278C264.379 58.8278 267.436 57.5197 269.651 55.2013L269.948 54.8904L270.143 54.6962V54.7221ZM224.138 90.0935C208.479 94.6525 199.529 80.0558 199.529 80.0558C196.266 72.4531 198.662 67.1688 200.889 64.2805C201.641 63.3091 203.221 63.879 203.156 65.1094C202.275 83.5787 216.173 86.7648 216.173 86.7648C212.857 84.8868 210.888 78.8901 210.888 78.8901C205.967 68.9561 214.295 61.6124 214.295 61.6124C229.889 51.8727 234.435 66.0031 234.435 66.0031C242.491 83.4492 224.138 90.0805 224.138 90.0805V90.0935Z" fill="black"/>
<path d="M395.076 26.2273H342.362C341.715 26.2273 341.197 25.489 341.197 24.5824C341.197 23.6758 341.715 22.9375 342.362 22.9375H395.076C395.724 22.9375 396.242 23.6758 396.242 24.5824C396.242 25.489 395.724 26.2273 395.076 26.2273Z" fill="black"/>
<path d="M398.301 13.756L401.047 13.6523H402.795C404.324 16.1001 405.347 20.3222 405.347 25.14C405.347 29.9578 404.324 34.1799 402.795 36.6276H402.07L399.532 35.5268L399.506 35.3325H399.532C400.464 32.8848 401.047 29.6081 401.047 25.9948C401.047 21.8504 400.283 18.1852 399.091 15.6598L398.301 13.756Z" fill="black"/>
<path d="M415.54 13.6387H404.505C405.995 16.462 406.888 20.6323 406.888 25.1263C406.888 29.6203 405.982 33.7906 404.505 36.614H414.361C414.361 36.614 421.199 27.2503 415.527 13.6387H415.54Z" fill="black"/>
<path d="M403.858 12.5628H414.18L411.149 3.79492H404.272L401.526 11.9023L403.858 12.5628Z" fill="black"/>
<path d="M134.24 5.33687V2.52647C134.24 1.7235 134.784 1.02414 135.548 0.829875L138.553 0.0528071C139.019 -0.0637531 139.524 0.0139537 139.926 0.272976L148.901 5.94557L134.227 5.34982L134.24 5.33687Z" fill="black"/>
<path d="M256.362 10.3489H253.357V21.6299C253.357 27.5359 249.045 29.2715 246.765 29.3622H246.739H217.96L217.572 29.1031C211.627 25.1399 212.469 19.467 212.935 16.4233L213.039 15.7628C213.272 14.0531 213.181 12.2399 213.116 11.3073L213.026 10.3489H200.177L194.686 8.56155H151.828L133.385 8.01758L121.625 15.1022C120.368 16.0995 117.648 16.1125 116.185 15.9829L110.732 15.426C109.981 15.3483 109.217 15.426 108.543 15.7628C106.031 16.9414 104.761 19.454 105.979 20.8269C106.652 21.5911 109.437 20.8528 110.434 21.086C122.402 23.754 122.104 30.761 122.777 35.7733H259.264V15.1281C258.655 11.7866 256.375 10.3619 256.375 10.3619L256.362 10.3489ZM143.189 33.986C143.06 33.986 142.93 33.96 142.801 33.9212C142.153 33.701 141.791 33.0016 142.011 32.3411L146.894 17.7055C147.114 17.0579 147.8 16.7082 148.474 16.9155C149.121 17.1356 149.484 17.835 149.264 18.4956L144.381 33.1311C144.2 33.6492 143.72 33.986 143.202 33.986H143.189ZM147.243 33.986C147.114 33.986 146.984 33.96 146.855 33.9212C146.207 33.701 145.845 33.0016 146.065 32.3411L150.948 17.7055C151.168 17.0579 151.854 16.7082 152.528 16.9155C153.175 17.1356 153.538 17.835 153.318 18.4956L148.435 33.1311C148.254 33.6492 147.774 33.986 147.256 33.986H147.243ZM151.297 33.986C151.168 33.986 151.038 33.96 150.909 33.9212C150.261 33.701 149.898 33.0016 150.119 32.3411L155.001 17.7055C155.222 17.0579 155.908 16.7082 156.582 16.9155C157.229 17.1356 157.592 17.835 157.372 18.4956L152.489 33.1311C152.308 33.6492 151.828 33.986 151.31 33.986H151.297ZM155.338 33.986C155.209 33.986 155.079 33.96 154.95 33.9212C154.302 33.701 153.939 33.0016 154.16 32.3411L159.042 17.7055C159.263 17.0579 159.949 16.7082 160.623 16.9155C161.27 17.1356 161.633 17.835 161.413 18.4956L156.53 33.1311C156.348 33.6492 155.869 33.986 155.351 33.986H155.338ZM159.392 33.986C159.263 33.986 159.133 33.96 159.004 33.9212C158.356 33.701 157.993 33.0016 158.214 32.3411L163.096 17.7055C163.317 17.0579 164.003 16.7082 164.676 16.9155C165.324 17.1356 165.687 17.835 165.467 18.4956L160.584 33.1311C160.402 33.6492 159.923 33.986 159.405 33.986H159.392ZM163.446 33.986C163.317 33.986 163.187 33.96 163.058 33.9212C162.41 33.701 162.047 33.0016 162.267 32.3411L167.15 17.7055C167.37 17.0579 168.057 16.7082 168.73 16.9155C169.378 17.1356 169.741 17.835 169.52 18.4956L164.638 33.1311C164.456 33.6492 163.977 33.986 163.459 33.986H163.446ZM167.5 33.986C167.37 33.986 167.241 33.96 167.111 33.9212C166.464 33.701 166.101 33.0016 166.321 32.3411L171.204 17.7055C171.424 17.0579 172.111 16.7082 172.784 16.9155C173.432 17.1356 173.795 17.835 173.574 18.4956L168.692 33.1311C168.51 33.6492 168.031 33.986 167.513 33.986H167.5ZM171.541 33.986C171.411 33.986 171.282 33.96 171.152 33.9212C170.505 33.701 170.142 33.0016 170.362 32.3411L175.245 17.7055C175.465 17.0579 176.152 16.7082 176.825 16.9155C177.473 17.1356 177.836 17.835 177.615 18.4956L172.733 33.1311C172.551 33.6492 172.072 33.986 171.554 33.986H171.541ZM175.595 33.986C175.465 33.986 175.336 33.96 175.206 33.9212C174.559 33.701 174.196 33.0016 174.416 32.3411L179.299 17.7055C179.519 17.0579 180.206 16.7082 180.879 16.9155C181.527 17.1356 181.889 17.835 181.669 18.4956L176.786 33.1311C176.605 33.6492 176.126 33.986 175.608 33.986H175.595ZM185.697 18.5085L180.814 33.1441C180.633 33.6622 180.154 33.9989 179.636 33.9989C179.506 33.9989 179.377 33.973 179.247 33.9341C178.6 33.714 178.237 33.0146 178.457 32.354L183.34 17.7185C183.56 17.0709 184.247 16.7212 184.92 16.9284C185.568 17.1486 185.93 17.848 185.71 18.5085H185.697Z" fill="black"/>
<path d="M398.068 17.2261L397.408 15.6719L391.761 15.7107L260.792 16.6951L260.818 35.3198H397.9L398.392 33.8821C399.104 31.6285 399.493 28.8698 399.493 25.9815C399.493 22.7047 398.975 19.5704 398.068 17.2131V17.2261ZM395.076 27.0824H342.362C340.977 27.0824 339.863 25.9556 339.863 24.5827C339.863 23.2098 340.99 22.083 342.362 22.083H395.076C396.462 22.083 397.576 23.2098 397.576 24.5827C397.576 25.9556 396.449 27.0824 395.076 27.0824Z" fill="black"/>
<path d="M132.517 43.3366C131.986 42.974 131.364 42.7797 130.717 42.7409C129.007 42.6114 126.158 42.8574 126.041 46.0046C125.873 50.5763 129.46 51.3275 131.364 51.3145C133.268 51.3016 139.977 52.0657 141.155 51.0555C142.243 50.123 143.927 48.0897 141.427 45.7844C141.026 45.4088 139.873 45.1109 139.329 45.1887C137.905 45.4088 134.874 44.9555 132.53 43.3366H132.517Z" fill="black"/>
<path d="M181.216 46.8212C180.322 46.614 179.675 45.824 179.649 44.9045C179.61 43.5964 179.765 41.7703 180.879 41.0839C182.679 39.9571 189.595 42.7287 189.595 42.7287L188.805 46.9249C188.805 46.9249 184.259 47.5206 181.216 46.8212Z" fill="black"/>
<path d="M196.383 42.6387H221.406C222.001 42.6387 222.377 43.2863 222.079 43.8043L219.994 47.4308C219.748 47.8582 219.281 48.1302 218.789 48.1302H195.644C194.932 48.1302 194.401 47.4697 194.556 46.7703L195.295 43.5064C195.411 43.0013 195.865 42.6387 196.383 42.6387Z" fill="black"/>
<path d="M227.299 42.7414L226.159 45.9921C225.952 46.5749 226.288 47.2095 226.897 47.3649L232.207 48.7507C233.14 48.9968 234.137 48.7118 234.797 48.0125C235.743 47.0023 236.895 45.4093 236.792 43.6868C236.766 43.2206 236.52 42.7932 236.118 42.56C235.238 42.0161 233.152 41.2261 228.788 41.6017C228.115 41.6535 227.532 42.1068 227.312 42.7414H227.299Z" fill="black"/>
<path d="M260.805 37.329H122.285C122.208 37.5751 122.143 37.8471 122.052 38.0802C120.757 41.4089 119.902 44.5043 116.638 45.9679C114.359 47.004 111.458 47.1983 111.328 48.6748C111.25 49.5944 111.419 50.9673 113.012 51.576C114.864 52.2754 118.931 53.2339 118.931 53.2339C131.08 55.7854 127.997 62.9736 125.238 66.8721C123.062 69.9546 121.236 73.2573 119.578 76.6507C114.113 87.9058 103.92 109.134 101.342 116.206C97.7676 125.984 94.1929 141.384 94.1929 141.384C92.5869 153.196 101.537 153.74 101.537 153.74L154.768 153.908C157.864 154.232 157.203 149.621 157.203 149.621C157.566 132.434 180.659 90.1595 180.659 90.1595C183.923 83.9426 188.353 81.132 191.565 81.8962L191.59 81.8573C191.811 81.5076 196.771 73.2314 190.477 67.8435L189.661 67.1441L190.023 66.1338C190.062 66.0043 194.647 53.4929 208.013 53.1043C211.692 53.0007 219.152 52.9489 230.174 52.9489C247.84 52.9489 268.913 53.0914 271.723 53.1043L272.928 51.848L272.967 51.8739C272.954 51.7185 272.941 51.6149 272.941 51.6149L277.539 54.3995L283.445 54.4643C283.16 52.936 283.03 51.6149 283.03 51.6149L287.796 54.5031L294.57 54.5679C294.272 52.9878 294.13 51.6019 294.13 51.6019L299.09 54.6067L305.683 54.6715C305.359 53.0525 305.23 51.589 305.23 51.589L310.281 54.6585L310.242 54.7233L316.407 54.7881C316.07 53.1173 315.928 51.6019 315.928 51.6019L320.979 54.6715L320.888 54.8269C324.605 54.6845 327.636 52.7028 327.636 48.9339V36.8887L260.844 37.342L260.805 37.329ZM126.3 50.7471C125.161 49.5685 124.63 47.9495 124.707 45.9549C124.811 43.0926 126.806 41.3829 130.031 41.3829C130.303 41.3829 130.575 41.3829 130.821 41.4089C131.74 41.4866 132.595 41.7715 133.281 42.2378C134.952 43.3905 137.128 43.9085 138.54 43.9085C138.76 43.9085 138.954 43.9086 139.123 43.8697C139.252 43.8438 139.395 43.8438 139.537 43.8438C140.262 43.8438 141.609 44.1417 142.322 44.8022C143.487 45.8772 144.07 47.0688 144.044 48.3251C144.019 49.6462 143.319 50.9414 142.011 52.0552C141.312 52.664 140.068 52.9101 137.711 52.9101C136.286 52.9101 134.68 52.8194 133.398 52.7417C132.543 52.6899 131.805 52.651 131.352 52.651C130.147 52.651 127.881 52.4049 126.287 50.7471H126.3ZM177.849 66.354C169.508 75.6923 151.466 112.449 147.01 135.102C146.207 139.156 143.423 145.205 138.993 145.205L109.878 144.764C106.368 144.738 102.534 144.402 100.798 141.98C99.8399 140.646 99.7104 138.936 100.384 136.877C106.536 118.381 125.912 76.7414 136.571 61.0826C137.724 59.386 140.042 56.5236 142.633 56.3811L170.259 55.5263C170.44 55.5263 170.764 55.5134 171.178 55.5134C185.736 55.5134 186.19 57.1453 186.332 57.6893C186.462 58.1814 186.358 58.9067 185.62 59.3471C183.159 60.8236 179.325 64.6962 177.849 66.354ZM191.824 73.4257C192.899 77.4796 189.285 81.0932 185.244 80.0182C183.47 79.5519 181.734 78.1531 181.255 76.3787C180.18 72.3248 183.56 68.2709 187.601 69.3459C189.376 69.8122 191.344 71.6513 191.824 73.4257ZM189.933 48.1179L188.974 48.2474C188.897 48.2474 187.044 48.4935 184.881 48.4935C183.275 48.4935 181.903 48.364 180.815 48.1049C179.351 47.7552 178.367 46.4601 178.315 44.9576C178.237 42.458 178.859 40.7742 180.167 39.9583C180.672 39.6474 181.32 39.492 182.162 39.492C185.037 39.492 189.881 41.4218 190.088 41.4995L191.111 41.901L189.933 48.1179ZM223.232 44.4784L221.146 48.1049C220.654 48.9468 219.761 49.4649 218.789 49.4649H195.644C194.893 49.4649 194.207 49.1281 193.74 48.5453C193.274 47.9625 193.106 47.2113 193.274 46.486L194.012 43.2221C194.272 42.1083 195.256 41.3182 196.396 41.3182H221.418C222.17 41.3182 222.869 41.7197 223.245 42.3802C223.62 43.0278 223.62 43.8438 223.245 44.4914L223.232 44.4784ZM235.73 48.9468C234.979 49.7369 233.943 50.1643 232.868 50.1643C232.531 50.1643 232.194 50.1254 231.858 50.0348L226.547 48.6489C225.9 48.4805 225.356 48.0531 225.045 47.4573C224.734 46.8745 224.682 46.1751 224.89 45.5405L226.029 42.2896C226.418 41.1757 227.428 40.3727 228.607 40.2691C229.423 40.2043 230.2 40.1655 230.925 40.1655C234.098 40.1655 235.873 40.8519 236.805 41.4218C237.569 41.8881 238.062 42.704 238.113 43.6107C238.243 45.8125 236.883 47.7293 235.743 48.9468H235.73Z" fill="black"/>
<path d="M144.044 58.7499L171.062 57.4936C173.16 57.377 186.228 57.2863 184.7 58.2059C182.071 59.786 177.939 64.5782 176.476 66.2231C168.277 75.393 150.533 110.091 145.935 133.404C145.301 136.616 143.306 142.444 139.589 142.419L110.512 141.978C105.914 141.952 100.448 141.318 102.262 135.852C108.323 117.603 127.09 78.5014 137.672 62.9592C138.579 61.6252 142.011 58.8535 144.044 58.7369V58.7499Z" fill="black"/>
</svg>
