<svg width="512" height="512" viewBox="0 0 512 512" fill="none" xmlns="http://www.w3.org/2000/svg">
<path d="M302 360H210V392H302V360Z" fill="black"/>
<path d="M308 394V398.8C308 402.78 304.96 406 301.22 406H210.78C207.04 406 204 402.78 204 398.8V394H308Z" fill="black"/>
<path d="M210 106V356H302V106H210ZM292 202C292 204.2 290.2 206 288 206H224C221.8 206 220 204.2 220 202V146.5C220 145.42 220.42 144.4 221.18 143.64C226.44 138.44 235.58 138.62 238.82 138.88C239.62 138.94 240.42 138.72 241.12 138.34C254.4 130.8 267.42 136.56 271.02 138.46C271.68 138.8 272.4 138.96 273.14 138.9C276.34 138.64 285.54 138.42 290.82 143.66C291.58 144.42 292 145.46 292 146.52V202Z" fill="black"/>
<path d="M241.361 183.501V155.121C241.361 151.981 238.841 149.441 235.741 149.441C232.641 149.441 230.121 151.981 230.121 155.121V183.501C230.121 186.641 232.641 189.181 235.741 189.181C238.841 189.181 241.361 186.641 241.361 183.501Z" fill="black"/>
<path d="M284.861 190.559H270.781H270.261H256.001H255.081H242.701H242.181H229.021H228.681H222.301V200.019C222.301 202.119 223.981 203.799 226.041 203.799H285.961C288.021 203.799 289.701 202.099 289.701 200.019V190.559H285.181H284.861Z" fill="black"/>
<path d="M227.921 183.501V155.121C227.921 151.981 225.401 149.441 222.301 149.441V189.181C225.401 189.181 227.921 186.641 227.921 183.501Z" fill="black"/>
<path d="M272.04 140.3C271.36 140.36 270.68 140.22 270.06 139.9C266.68 138.1 254.5 132.66 242.06 139.78C241.4 140.16 240.66 140.36 239.92 140.3C236.9 140.06 228.34 139.88 223.4 144.8C222.8 145.4 222.44 146.2 222.34 147.04H228.68H229.02H242.18H242.7H255.08H256H270.26H270.78H284.86H285.2H289.66C289.56 146.2 289.2 145.4 288.6 144.8C283.64 139.84 275.04 140.06 272.04 140.3Z" fill="black"/>
<path d="M285.961 153.241V185.401C285.961 187.501 287.641 189.181 289.701 189.181V149.441C287.641 149.441 285.961 151.141 285.961 153.241Z" fill="black"/>
<path d="M255.181 183.501V155.121C255.181 151.981 252.661 149.441 249.561 149.441C246.461 149.441 243.941 151.981 243.941 155.121V183.501C243.941 186.641 246.461 189.181 249.561 189.181C252.661 189.181 255.181 186.641 255.181 183.501Z" fill="black"/>
<path d="M269.002 183.501V155.121C269.002 151.981 266.482 149.441 263.382 149.441C260.282 149.441 257.762 151.981 257.762 155.121V183.501C257.762 186.641 260.282 189.181 263.382 189.181C266.482 189.181 269.002 186.641 269.002 183.501Z" fill="black"/>
<path d="M282.799 183.501V155.121C282.799 151.981 280.279 149.441 277.179 149.441C274.079 149.441 271.559 151.981 271.559 155.121V183.501C271.559 186.641 274.079 189.181 277.179 189.181C280.279 189.181 282.799 186.641 282.799 183.501Z" fill="black"/>
</svg>
