<svg width="512" height="512" viewBox="0 0 512 512" fill="none" xmlns="http://www.w3.org/2000/svg">
<path d="M121.478 282V276H145.478V333.16H118.398V282H121.478Z" fill="black"/>
<path d="M106.56 277.179L106 272.939C106.08 274.399 106.08 274.399 106.08 275.499L106.54 332.499C106.54 335.659 109.26 338.239 112.64 338.239H116.7V281.999H114.66C110.7 281.999 107.48 280.719 106.56 277.179Z" fill="black"/>
<path d="M275.799 276V321.32C275.799 323.18 277.319 324.7 279.179 324.7H326.139C327.039 324.7 327.919 324.34 328.559 323.7C332.979 319.22 332.799 311.44 332.579 308.74C332.539 308.12 332.659 307.5 332.939 306.96C334.539 303.92 339.419 292.9 333.039 281.66C332.699 281.06 332.519 280.4 332.579 279.72C332.639 278.88 332.699 277.56 332.639 276.02H360.419V333.18H148.859V276.02H275.799V276Z" fill="black"/>
<path d="M294.82 281.86H318.84C321.5 281.86 323.64 279.74 323.64 277.1C323.64 276.72 323.58 276.36 323.5 276H290.16C290.08 276.36 290.02 276.72 290.02 277.1C290.02 279.72 292.18 281.86 294.82 281.86Z" fill="black"/>
<path d="M280.86 322.76H288.86V318.94V318.66V306.74V306.3V294.24V293.46V282.98V282.54V276H277.66V319.58C277.66 321.34 279.08 322.76 280.86 322.76Z" fill="black"/>
<path d="M325.7 282.98V293.46V294.24V306.3V306.74V318.66V318.94V322.72C326.42 322.64 327.08 322.32 327.58 321.82C331.76 317.64 331.6 310.34 331.38 307.82C331.34 307.24 331.46 306.66 331.72 306.14C333.24 303.28 337.86 292.98 331.82 282.46C331.5 281.9 331.34 281.28 331.38 280.64C331.46 279.64 331.52 277.96 331.34 276H325.68V282.54V282.98H325.7Z" fill="black"/>
<path d="M320.44 319.58H293.22C291.46 319.58 290.02 321 290.02 322.74H323.64C323.64 321 322.22 319.58 320.44 319.58Z" fill="black"/>
<path d="M294.82 293.539H318.84C321.5 293.539 323.64 291.42 323.64 288.78C323.64 286.16 321.48 284.02 318.84 284.02H294.82C292.16 284.02 290.02 286.14 290.02 288.78C290.02 291.42 292.18 293.539 294.82 293.539Z" fill="black"/>
<path d="M294.82 305.239H318.84C321.5 305.239 323.64 303.119 323.64 300.479C323.64 297.859 321.48 295.719 318.84 295.719H294.82C292.16 295.719 290.02 297.839 290.02 300.479C290.02 303.099 292.18 305.239 294.82 305.239Z" fill="black"/>
<path d="M294.82 316.92H318.84C321.5 316.92 323.64 314.8 323.64 312.16C323.64 309.54 321.48 307.4 318.84 307.4H294.82C292.16 307.4 290.02 309.52 290.02 312.16C290.02 314.8 292.18 316.92 294.82 316.92Z" fill="black"/>
<path d="M153.48 249.32V178H121.48V249.32V270H145.48H148.86H153.48V249.32Z" fill="black"/>
<path d="M119.48 249.32V172H114.68C110.7 172 107.48 175.04 107.48 178.78V246.96V269.2C107.48 272.94 110.7 275.98 114.68 275.98H116.72H118.42H119.5V249.32H119.48Z" fill="black"/>
<path d="M157.48 178V249.32V270H275.78H277.64H288.84H290.14H323.48H325.66H331.32H332.6H360.38H407.46V178H157.48ZM375.04 239.02C374.7 239.68 374.54 240.4 374.6 241.14C374.86 244.34 375.08 253.54 369.84 258.82C369.08 259.58 368.04 260 366.98 260H360.4H329.58H326.52H325.68H323.6H311.46C310.94 260 310.46 259.9 310.02 259.72C309.1 259.36 308.34 258.66 307.9 257.78C307.64 257.24 307.46 256.64 307.46 256V249.32V192C307.46 189.8 309.26 188 311.46 188H366.96C368.04 188 369.06 188.42 369.82 189.18C375.02 194.44 374.84 203.58 374.58 206.82C374.52 207.62 374.74 208.42 375.12 209.12C382.7 222.4 376.92 235.42 375.04 239.02Z" fill="black"/>
<path d="M358.361 198.141H329.981C326.841 198.141 324.301 200.661 324.301 203.761C324.301 206.861 326.841 209.381 329.981 209.381H358.361C361.501 209.381 364.041 206.861 364.041 203.761C364.041 200.641 361.501 198.141 358.361 198.141Z" fill="black"/>
<path d="M313.46 257.699H322.92V253.179V252.839V249.299V238.759V238.239V223.979V223.059V210.679V210.159V196.999V196.659V190.279H313.46C311.36 190.279 309.68 191.959 309.68 194.019V249.279V253.919C309.68 256.019 311.38 257.699 313.46 257.699Z" fill="black"/>
<path d="M329.981 195.921H358.361C361.501 195.921 364.041 193.401 364.041 190.301H324.301C324.301 193.401 326.841 195.921 329.981 195.921Z" fill="black"/>
<path d="M373.201 207.92C373.441 204.9 373.621 196.34 368.701 191.4C368.101 190.8 367.301 190.44 366.461 190.34V196.68V197.02V210.18V210.7V223.08V224V238.26V238.78V252.86V253.2V257.66C367.301 257.56 368.101 257.2 368.701 256.6C373.641 251.66 373.441 243.04 373.201 240.04C373.141 239.36 373.281 238.68 373.601 238.06C375.401 234.68 380.841 222.5 373.721 210.06C373.341 209.42 373.141 208.68 373.201 207.92Z" fill="black"/>
<path d="M328.081 253.961C325.981 253.961 324.301 255.641 324.301 257.701H360.401H364.041C364.041 255.681 362.421 254.061 360.401 253.981C360.341 253.981 360.301 253.961 360.241 253.961H328.081Z" fill="black"/>
<path d="M358.361 211.939H329.981C326.841 211.939 324.301 214.459 324.301 217.559C324.301 220.659 326.841 223.179 329.981 223.179H358.361C361.501 223.179 364.041 220.659 364.041 217.559C364.041 214.459 361.501 211.939 358.361 211.939Z" fill="black"/>
<path d="M358.361 225.76H329.981C326.841 225.76 324.301 228.28 324.301 231.38C324.301 234.48 326.841 237 329.981 237H358.361C361.501 237 364.041 234.48 364.041 231.38C364.041 228.28 361.501 225.76 358.361 225.76Z" fill="black"/>
<path d="M358.361 250.801C359.081 250.801 359.761 250.661 360.401 250.401C362.521 249.581 364.041 247.561 364.041 245.181C364.041 242.081 361.501 239.561 358.361 239.561H329.981C326.841 239.561 324.301 242.081 324.301 245.181C324.301 246.821 325.021 248.281 326.161 249.301C327.181 250.221 328.501 250.801 329.981 250.801H358.361Z" fill="black"/>
</svg>
