<svg width="512" height="512" viewBox="0 0 512 512" fill="none" xmlns="http://www.w3.org/2000/svg">
<path d="M290.405 247.009L239.324 318.643L252.824 328.269L303.905 256.636L290.405 247.009Z" fill="black"/>
<path d="M238.263 320.069L230.844 330.475L244.343 340.099L251.762 329.694L238.263 320.069Z" fill="black"/>
<path d="M163.282 453.86L167.482 447.98C163.022 443.4 158.202 440.08 154.322 437.84L149.762 444.22L163.282 453.86Z" fill="black"/>
<path d="M155.32 436.44C159.22 438.7 163.98 441.98 168.48 446.56L243.38 341.54L229.88 331.9L155.32 436.44Z" fill="black"/>
<path d="M384.401 124.46L395.081 101.84L403.841 108.08C404.061 108.24 404.141 108.52 404.021 108.76L382.261 154.78C380.601 158.26 378.661 161.58 376.421 164.72L373.021 169.48C372.941 169.6 372.761 169.64 372.641 169.54L364.961 164.06L377.661 146C377.882 145.696 378.371 144.664 378.368 143.859C378.365 143.212 377.771 142.77 377.314 142.313L375.001 140C378.462 134.616 381.626 130.331 384.401 124.46Z" fill="black"/>
<path d="M403.343 105.62L407.543 99.7399L401.623 95.4199L397.383 101.36L403.343 105.62Z" fill="black"/>
<path d="M300.54 245.661C300.84 245.881 301.4 244.561 301.4 244.301L301.3 239.381C301.28 238.341 301.54 237.401 302.08 236.661L306.58 230.361C307.64 228.861 307.58 226.701 306.44 224.481L326.06 196.941C328.82 193.061 331.96 189.461 335.44 186.181L341.68 180.141L357.1 191.141C357.24 191.241 357.26 191.441 357.14 191.561L339.8 208.321C336.8 211.161 334.08 214.301 331.68 217.661L314.66 241.541C315.64 243.461 315.7 245.341 314.78 246.641L310.88 252.121C310.42 252.781 310.18 253.581 310.2 254.481L310.28 258.741C310.28 258.961 310 259.021 309.74 258.841L291.34 245.701L294.06 241.901L300.54 245.661Z" fill="black"/>
<path d="M361.463 191.879C362.203 192.399 363.023 192.519 363.303 192.119L374.622 176.239C374.902 175.839 374.523 175.099 373.803 174.579L370.803 172.439L369.643 171.619L362.963 166.859L362.523 167.479C362.203 167.919 360.862 168.6 360.002 168L355.002 165L343.062 178.739L361.463 191.879Z" fill="black"/>
<path d="M281.401 231.14L268.141 221.68L209.301 304.3L225.441 315.8L229.161 318.46L232.301 314.06L233.321 312.62L284.401 241L285.341 239.68L288.041 235.88L281.401 231.14Z" fill="black"/>
<path d="M224.259 317.461L208.119 305.961L199.559 317.961L215.699 329.461L219.419 332.121L223.859 325.881L224.879 324.481L227.979 320.121L224.259 317.461Z" fill="black"/>
<path d="M106 449.06L125.92 463.26L130.76 456.48C123.6 449.1 115.58 444.56 110.86 442.26L106 449.06Z" fill="black"/>
<path d="M214.54 331.1L198.4 319.6L112 440.66C116.86 443.04 124.7 447.5 131.9 454.86L143.76 438.24L148.32 431.86L149.32 430.46L218.26 333.78L214.54 331.1Z" fill="black"/>
<path d="M392.959 57.2602C392.719 57.0802 392.379 57.1002 392.159 57.3202L350.199 98.2602C347.039 101.36 344.139 104.74 341.559 108.36L337.599 113.92C337.499 114.06 337.539 114.26 337.679 114.36L355.859 127.32L367.319 135.48C367.459 135.58 367.659 135.56 367.759 135.4L371.659 129.92C374.239 126.3 376.499 122.48 378.399 118.46L389.079 95.8402L403.459 65.4002C403.599 65.1202 403.499 64.8002 403.259 64.6202L392.959 57.2602Z" fill="black"/>
<path d="M407.54 54.98L400.72 50L395.82 56.86L402.7 61.78L407.54 54.98Z" fill="black"/>
<path d="M349.399 160.34L331.939 147.88L319.939 139.32C319.779 139.2 319.599 139.26 319.519 139.44L307.779 164.6C305.799 168.94 302.899 172.94 300.139 176.82L280.519 204.34C278.099 203.88 276.539 203.82 275.279 205.5L270.519 212.16C269.959 212.96 269.119 213.54 268.059 213.88L263.359 215.4C263.119 215.48 263.159 215.82 263.459 216.02L282.839 229.86L294.779 238.38C295.079 238.6 295.419 238.54 295.399 238.28L295.299 233.36C295.279 232.32 295.539 231.38 296.079 230.64L300.579 224.34C301.639 222.84 301.579 220.68 300.439 218.46L320.059 190.92C322.819 187.04 325.959 183.44 329.439 180.16L335.679 174.12L337.059 172.78L349.419 160.82C349.579 160.68 349.559 160.46 349.399 160.34Z" fill="black"/>
<path d="M368.619 141.3L365.179 138.84L363.859 137.9L352.979 130.14L344.319 123.96L331.299 114.68L330.779 114.3C330.339 113.98 329.699 114.08 329.379 114.54L316.319 132.84C315.999 133.28 316.099 133.92 316.559 134.24L319.199 136.12L333.239 146.12L335.059 147.42L349.679 157.84L350.999 158.78L354.439 161.24C355.279 161.84 356.239 161.96 356.559 161.52L356.999 160.9L358.999 158.08L369.599 143.22C369.899 142.76 369.459 141.9 368.619 141.3Z" fill="black"/>
</svg>
