<svg width="512" height="512" viewBox="0 0 512 512" fill="none" xmlns="http://www.w3.org/2000/svg">
<path d="M185.857 166.419V190.819H287.277V166.359L185.857 166.419Z" fill="black"/>
<path d="M183.82 190.82V166.42H169.08V190.82H183.82Z" fill="black"/>
<path d="M16.3601 166.359H8.00013L8.00013 190.819H16.3401C18.2001 180.719 17.2401 171.539 16.3601 166.359Z" fill="black"/>
<path d="M18.3386 190.821C20.1386 180.701 19.2186 171.701 18.3386 166.381L167.059 166.441V190.841L18.3386 190.821Z" fill="black"/>
<path d="M493.617 172.519C493.617 172.219 493.397 171.959 493.097 171.899L435.417 161.519C431.057 160.739 426.617 160.359 422.177 160.359H415.357C415.177 160.359 415.037 160.499 415.037 160.679V197.079C415.037 197.259 415.177 197.399 415.357 197.399H422.097C426.537 197.399 430.957 196.999 435.337 196.239L493.097 185.839C493.397 185.779 493.617 185.519 493.617 185.219V172.519Z" fill="black"/>
<path d="M503.939 183.101H495.599V174.641H504.039L503.939 183.101Z" fill="black"/>
<path d="M289.138 197.76C289.138 198.12 289.378 198.36 289.578 198.22L293.538 195.28C294.378 194.66 295.298 194.34 296.218 194.34H303.958C305.798 194.34 307.518 193.02 308.658 190.82L342.478 190.8C347.238 190.8 351.998 191.26 356.678 192.18L384.018 197.24C384.218 197.28 384.398 197.12 384.398 196.92V160.74C384.398 160.54 384.238 160.42 384.058 160.46L356.758 165.5C352.078 166.42 347.138 166.38 342.378 166.38H308.578C307.538 164.14 306.698 162.82 304.598 162.78H296.418C295.438 162.78 294.478 162.44 293.578 161.78L289.618 158.82C289.398 158.66 289.178 158.9 289.178 159.28L289.138 197.76Z" fill="black"/>
<path d="M411.059 201.5V197.26V195.64V171.64V155.64V155C411.059 154.44 410.619 154 410.059 154H387.579C387.019 154 386.579 154.44 386.579 155V158.24V177.7V195.64V197.28V201.52C386.579 202.56 387.019 203.4 387.579 203.4H410.059C410.619 203.38 411.059 202.54 411.059 201.5Z" fill="black"/>
<path d="M185.857 243.82V268.22H287.277V243.76L185.857 243.82Z" fill="black"/>
<path d="M183.82 268.22V243.82H169.08V268.22H183.82Z" fill="black"/>
<path d="M16.3601 243.76H8.00013L8.00013 268.22H16.3401C18.2001 258.12 17.2401 248.94 16.3601 243.76Z" fill="black"/>
<path d="M18.3386 268.221C20.1386 258.101 19.2186 249.101 18.3386 243.781L167.059 243.841V268.241L18.3386 268.221Z" fill="black"/>
<path d="M493.617 249.92C493.617 249.62 493.397 249.36 493.097 249.3L435.417 238.92C431.057 238.14 426.617 237.76 422.177 237.76H415.357C415.177 237.76 415.037 237.9 415.037 238.08V274.48C415.037 274.66 415.177 274.8 415.357 274.8H422.097C426.537 274.8 430.957 274.4 435.337 273.64L493.097 263.24C493.397 263.18 493.617 262.92 493.617 262.62V249.92Z" fill="black"/>
<path d="M503.939 260.501H495.599V252.041H504.039L503.939 260.501Z" fill="black"/>
<path d="M289.138 275.16C289.138 275.52 289.378 275.76 289.578 275.62L293.538 272.68C294.378 272.06 295.298 271.74 296.218 271.74H303.958C305.798 271.74 307.518 270.42 308.658 268.22L342.478 268.2C347.238 268.2 351.998 268.66 356.678 269.58L384.018 274.64C384.218 274.68 384.398 274.52 384.398 274.32V238.14C384.398 237.94 384.238 237.82 384.058 237.86L356.758 242.9C352.078 243.82 347.138 243.78 342.378 243.78H308.578C307.538 241.54 306.698 240.22 304.598 240.18H296.418C295.438 240.18 294.478 239.84 293.578 239.18L289.618 236.22C289.398 236.06 289.178 236.3 289.178 236.68L289.138 275.16Z" fill="black"/>
<path d="M411.059 278.9V274.66V273.04V249.04V233.04V232.4C411.059 231.84 410.619 231.4 410.059 231.4H387.579C387.019 231.4 386.579 231.84 386.579 232.4V235.64V255.1V273.04V274.68V278.92C386.579 279.96 387.019 280.8 387.579 280.8H410.059C410.619 280.78 411.059 279.94 411.059 278.9Z" fill="black"/>
<path d="M185.857 321.22V345.62H287.277V321.16L185.857 321.22Z" fill="black"/>
<path d="M183.82 345.621V321.221H169.08V345.621H183.82Z" fill="black"/>
<path d="M16.3601 321.16H8.00013L8.00013 345.62H16.3401C18.2001 335.52 17.2401 326.34 16.3601 321.16Z" fill="black"/>
<path d="M18.3386 345.622C20.1386 335.502 19.2186 326.502 18.3386 321.182L167.059 321.242V345.642L18.3386 345.622Z" fill="black"/>
<path d="M493.617 327.32C493.617 327.02 493.397 326.76 493.097 326.7L435.417 316.32C431.057 315.54 426.617 315.16 422.177 315.16H415.357C415.177 315.16 415.037 315.3 415.037 315.48V351.88C415.037 352.06 415.177 352.2 415.357 352.2H422.097C426.537 352.2 430.957 351.8 435.337 351.04L493.097 340.64C493.397 340.58 493.617 340.32 493.617 340.02V327.32Z" fill="black"/>
<path d="M503.939 337.901H495.599V329.441H504.039L503.939 337.901Z" fill="black"/>
<path d="M289.138 352.561C289.138 352.921 289.378 353.161 289.578 353.021L293.538 350.081C294.378 349.461 295.298 349.141 296.218 349.141H303.958C305.798 349.141 307.518 347.821 308.658 345.621L342.478 345.601C347.238 345.601 351.998 346.061 356.678 346.981L384.018 352.041C384.218 352.081 384.398 351.921 384.398 351.721V315.541C384.398 315.341 384.238 315.221 384.058 315.261L356.758 320.301C352.078 321.221 347.138 321.181 342.378 321.181H308.578C307.538 318.941 306.698 317.621 304.598 317.581H296.418C295.438 317.581 294.478 317.241 293.578 316.581L289.618 313.621C289.398 313.461 289.178 313.701 289.178 314.081L289.138 352.561Z" fill="black"/>
<path d="M411.059 356.301V352.061V350.441V326.441V310.441V309.801C411.059 309.241 410.619 308.801 410.059 308.801H387.579C387.019 308.801 386.579 309.241 386.579 309.801V313.041V332.501V350.441V352.081V356.321C386.579 357.361 387.019 358.201 387.579 358.201H410.059C410.619 358.181 411.059 357.341 411.059 356.301Z" fill="black"/>
</svg>
