<svg width="512" height="512" viewBox="0 0 512 512" fill="none" xmlns="http://www.w3.org/2000/svg">
<path d="M169.564 301.465H192.284V235.768H169.508L169.564 301.465Z" fill="black"/>
<path d="M192.287 302.789H169.566V312.337H192.287V302.789Z" fill="black"/>
<path d="M169.508 411.266V416.681H192.284V411.278C182.879 410.074 174.331 410.695 169.508 411.266Z" fill="black"/>
<path d="M192.285 409.981C182.862 408.815 174.481 409.411 169.527 409.981L169.583 313.645H192.304L192.285 409.981Z" fill="black"/>
<path d="M175.245 102.107C174.966 102.107 174.724 102.25 174.668 102.444L165.002 139.808C164.276 142.632 163.922 145.508 163.922 148.384V152.802C163.922 152.919 164.052 153.009 164.22 153.009H198.115C198.282 153.009 198.413 152.919 198.413 152.802V148.436C198.413 145.56 198.04 142.697 197.332 139.86L187.648 102.444C187.592 102.25 187.35 102.107 187.071 102.107H175.245Z" fill="black"/>
<path d="M185.096 95.4222V100.825H177.219V95.3574L185.096 95.4222Z" fill="black"/>
<path d="M198.748 234.564C199.083 234.564 199.307 234.409 199.176 234.279L196.439 231.714C195.862 231.17 195.564 230.574 195.564 229.978V224.964C195.564 223.772 194.334 222.658 192.286 221.92L192.267 200.012C192.267 196.929 192.696 193.845 193.552 190.814L198.264 173.104C198.301 172.974 198.152 172.857 197.966 172.857H164.276C164.09 172.857 163.978 172.961 164.015 173.078L168.709 190.762C169.565 193.793 169.528 196.993 169.528 200.077V221.972C167.442 222.645 166.213 223.189 166.176 224.55V229.848C166.176 230.483 165.859 231.105 165.245 231.688L162.488 234.253C162.339 234.396 162.563 234.538 162.917 234.538L198.748 234.564Z" fill="black"/>
<path d="M202.231 155.588H198.283H196.774H174.426H159.527H158.931C158.41 155.588 158 155.873 158 156.236V170.798C158 171.16 158.41 171.445 158.931 171.445H161.948H180.069H196.774H198.301H202.249C203.218 171.445 204 171.16 204 170.798V156.236C203.981 155.873 203.199 155.588 202.231 155.588Z" fill="black"/>
<path d="M244.419 326.18H268.819V224.76H244.359L244.419 326.18Z" fill="black"/>
<path d="M268.822 328.221H244.422V342.961H268.822V328.221Z" fill="black"/>
<path d="M244.359 495.681V504.041H268.819V495.701C258.719 493.841 249.539 494.801 244.359 495.681Z" fill="black"/>
<path d="M268.819 493.7C258.699 491.9 249.699 492.82 244.379 493.7L244.439 344.98H268.839L268.819 493.7Z" fill="black"/>
<path d="M250.519 18.4199C250.219 18.4199 249.959 18.6399 249.899 18.9399L239.519 76.6199C238.739 80.9799 238.359 85.4199 238.359 89.8599V96.6799C238.359 96.8599 238.499 96.9999 238.679 96.9999H275.079C275.259 96.9999 275.399 96.8599 275.399 96.6799V89.9399C275.399 85.4999 274.999 81.0799 274.239 76.6999L263.839 18.9399C263.779 18.6399 263.519 18.4199 263.219 18.4199H250.519Z" fill="black"/>
<path d="M261.101 8.1V16.44H252.641V8L261.101 8.1Z" fill="black"/>
<path d="M275.76 222.901C276.12 222.901 276.36 222.661 276.22 222.461L273.28 218.501C272.66 217.661 272.34 216.741 272.34 215.821V208.081C272.34 206.241 271.02 204.521 268.82 203.381L268.8 169.561C268.8 164.801 269.26 160.041 270.18 155.361L275.24 128.021C275.28 127.821 275.12 127.641 274.92 127.641H238.74C238.54 127.641 238.42 127.801 238.46 127.981L243.5 155.281C244.42 159.961 244.38 164.901 244.38 169.661V203.461C242.14 204.501 240.82 205.341 240.78 207.441V215.621C240.78 216.601 240.44 217.561 239.78 218.461L236.82 222.421C236.66 222.641 236.9 222.861 237.28 222.861L275.76 222.901Z" fill="black"/>
<path d="M279.5 100.98H275.26H273.64H249.64H233.64H233C232.44 100.98 232 101.42 232 101.98V124.46C232 125.02 232.44 125.46 233 125.46H236.24H255.7H273.64H275.28H279.52C280.56 125.46 281.4 125.02 281.4 124.46V101.98C281.38 101.42 280.54 100.98 279.5 100.98Z" fill="black"/>
<path d="M320.962 301.465H343.683V235.768H320.906L320.962 301.465Z" fill="black"/>
<path d="M343.685 302.789H320.965V312.337H343.685V302.789Z" fill="black"/>
<path d="M320.906 411.266V416.681H343.683V411.278C334.278 410.074 325.73 410.695 320.906 411.266Z" fill="black"/>
<path d="M343.684 409.981C334.26 408.815 325.88 409.411 320.926 409.981L320.982 313.645H343.702L343.684 409.981Z" fill="black"/>
<path d="M326.643 102.107C326.364 102.107 326.122 102.25 326.066 102.444L316.4 139.808C315.674 142.632 315.32 145.508 315.32 148.384V152.802C315.32 152.919 315.451 153.009 315.618 153.009H349.513C349.681 153.009 349.811 152.919 349.811 152.802V148.436C349.811 145.56 349.439 142.697 348.731 139.86L339.047 102.444C338.991 102.25 338.749 102.107 338.469 102.107H326.643Z" fill="black"/>
<path d="M336.495 95.4222V100.825H328.617V95.3574L336.495 95.4222Z" fill="black"/>
<path d="M350.147 234.564C350.482 234.564 350.705 234.409 350.575 234.279L347.837 231.714C347.26 231.17 346.962 230.574 346.962 229.978V224.964C346.962 223.772 345.733 222.658 343.684 221.92L343.666 200.012C343.666 196.929 344.094 193.845 344.951 190.814L349.662 173.104C349.7 172.974 349.551 172.857 349.364 172.857H315.675C315.488 172.857 315.377 172.961 315.414 173.078L320.107 190.762C320.964 193.793 320.926 196.993 320.926 200.077V221.972C318.841 222.645 317.611 223.189 317.574 224.55V229.848C317.574 230.483 317.258 231.105 316.643 231.688L313.887 234.253C313.738 234.396 313.961 234.538 314.315 234.538L350.147 234.564Z" fill="black"/>
<path d="M353.629 155.588H349.681H348.173H325.824H310.926H310.33C309.808 155.588 309.398 155.873 309.398 156.236V170.798C309.398 171.16 309.808 171.445 310.33 171.445H313.347H331.467H348.173H349.7H353.648C354.616 171.445 355.398 171.16 355.398 170.798V156.236C355.38 155.873 354.598 155.588 353.629 155.588Z" fill="black"/>
</svg>
