<svg width="512" height="512" viewBox="0 0 512 512" fill="none" xmlns="http://www.w3.org/2000/svg">
<path d="M244.419 326.18H268.819V224.76H244.359L244.419 326.18Z" fill="black"/>
<path d="M268.822 328.221H244.422V342.961H268.822V328.221Z" fill="black"/>
<path d="M244.359 495.681V504.041H268.819V495.701C258.719 493.841 249.539 494.801 244.359 495.681Z" fill="black"/>
<path d="M268.819 493.7C258.699 491.9 249.699 492.82 244.379 493.7L244.439 344.98H268.839L268.819 493.7Z" fill="black"/>
<path d="M250.519 18.4199C250.219 18.4199 249.959 18.6399 249.899 18.9399L239.519 76.6199C238.739 80.9799 238.359 85.4199 238.359 89.8599V96.6799C238.359 96.8599 238.499 96.9999 238.679 96.9999H275.079C275.259 96.9999 275.399 96.8599 275.399 96.6799V89.9399C275.399 85.4999 274.999 81.0799 274.239 76.6999L263.839 18.9399C263.779 18.6399 263.519 18.4199 263.219 18.4199H250.519Z" fill="black"/>
<path d="M261.101 8.1V16.44H252.641V8L261.101 8.1Z" fill="black"/>
<path d="M275.76 222.901C276.12 222.901 276.36 222.661 276.22 222.461L273.28 218.501C272.66 217.661 272.34 216.741 272.34 215.821V208.081C272.34 206.241 271.02 204.521 268.82 203.381L268.8 169.561C268.8 164.801 269.26 160.041 270.18 155.361L275.24 128.021C275.28 127.821 275.12 127.641 274.92 127.641H238.74C238.54 127.641 238.42 127.801 238.46 127.981L243.5 155.281C244.42 159.961 244.38 164.901 244.38 169.661V203.461C242.14 204.501 240.82 205.341 240.78 207.441V215.621C240.78 216.601 240.44 217.561 239.78 218.461L236.82 222.421C236.66 222.641 236.9 222.861 237.28 222.861L275.76 222.901Z" fill="black"/>
<path d="M279.5 100.98H275.26H273.64H249.64H233.64H233C232.44 100.98 232 101.42 232 101.98V124.46C232 125.02 232.44 125.46 233 125.46H236.24H255.7H273.64H275.28H279.52C280.56 125.46 281.4 125.02 281.4 124.46V101.98C281.38 101.42 280.54 100.98 279.5 100.98Z" fill="black"/>
</svg>
