<svg width="512" height="512" viewBox="0 0 512 512" fill="none" xmlns="http://www.w3.org/2000/svg">
<path d="M295.141 310.441L312.241 293.041L239.901 221.941L222.781 239.381L295.141 310.441Z" fill="black"/>
<path d="M313.71 294.444L296.605 311.846L307.118 322.178L324.222 304.776L313.71 294.444Z" fill="black"/>
<path d="M415.98 429.281L421.94 435.141L439.08 417.701L433.14 411.861C424.72 417.761 418.98 424.981 415.98 429.281Z" fill="black"/>
<path d="M431.699 410.461C423.319 416.421 417.679 423.461 414.559 427.901L308.539 323.601L325.639 306.201L431.699 410.461Z" fill="black"/>
<path d="M79.9393 90.3408C79.7193 90.5608 79.6993 90.9008 79.8793 91.1408L113.739 138.981C116.299 142.601 119.199 145.981 122.359 149.101L127.219 153.881C127.339 154.001 127.539 154.001 127.659 153.881L153.179 127.921C153.299 127.801 153.299 127.601 153.179 127.481L148.379 122.761C145.219 119.641 141.779 116.821 138.119 114.321L89.6393 81.2208C89.3793 81.0408 89.0393 81.0808 88.8393 81.3008L79.9393 90.3408Z" fill="black"/>
<path d="M79.98 75.5605L85.94 81.4005L80 87.4406L74 81.5206L79.98 75.5605Z" fill="black"/>
<path d="M243.462 215.7C243.722 215.44 243.722 215.1 243.462 215.06L238.582 214.38C237.542 214.24 236.662 213.82 236.002 213.18L230.482 207.74C229.182 206.46 227.022 206.18 224.662 206.96L200.542 183.26C197.142 179.92 194.082 176.26 191.382 172.32L175.422 149.54C175.302 149.38 175.082 149.36 174.942 149.5L149.582 175.3C149.442 175.44 149.462 175.64 149.622 175.74L172.622 191.28C176.602 193.9 180.102 197.4 183.502 200.74L207.622 224.44C206.782 226.76 206.482 228.3 207.942 229.8L213.782 235.54C214.482 236.22 214.922 237.14 215.102 238.24L215.862 243.12C215.902 243.38 216.242 243.38 216.502 243.12L243.462 215.7Z" fill="black"/>
<path d="M159.121 127.541L156.141 130.561L155.021 131.721L138.201 148.841L126.981 160.261L126.521 160.721C126.141 161.121 126.141 161.741 126.541 162.141L142.581 177.901C142.981 178.281 143.601 178.281 144.001 177.881L146.261 175.581L159.901 161.701L172.481 148.901L173.621 147.721L176.601 144.701C177.321 143.961 177.601 143.041 177.201 142.661L161.161 126.901C160.761 126.501 159.861 126.801 159.121 127.541Z" fill="black"/>
<path d="M200.799 296.451L190.645 307.135L208.33 323.944L218.484 313.26L200.799 296.451Z" fill="black"/>
<path d="M85.4006 417.779L79.6406 423.839L97.3806 440.699L103.121 434.659C97.0606 426.339 89.7606 420.719 85.4006 417.779Z" fill="black"/>
<path d="M104.482 433.18C98.3817 424.9 91.2417 419.38 86.7617 416.34L189.262 308.58L206.942 325.38L104.482 433.18Z" fill="black"/>
<path d="M418.659 76.0995C418.439 75.8795 418.099 75.8595 417.859 76.0395L370.599 110.699C367.019 113.339 363.699 116.279 360.639 119.479L355.939 124.419C355.819 124.539 355.819 124.739 355.959 124.859L382.339 149.939C382.459 150.059 382.659 150.059 382.779 149.939L387.419 145.059C390.479 141.839 393.239 138.359 395.699 134.659L427.959 85.6195C428.119 85.3595 428.079 85.0195 427.859 84.8195L418.659 76.0995Z" fill="black"/>
<path d="M433.423 75.9L427.683 81.94L421.562 76.12L427.363 70L433.423 75.9Z" fill="black"/>
<path d="M296.062 241.7C296.322 241.96 296.662 241.94 296.702 241.68L297.302 236.8C297.422 235.76 297.822 234.88 298.462 234.2L303.802 228.58C305.062 227.24 305.302 225.1 304.482 222.74L327.762 198.22C331.042 194.76 334.662 191.64 338.542 188.88L361.042 172.54C361.202 172.42 361.222 172.2 361.082 172.06L334.862 147.14C334.722 147 334.522 147.04 334.422 147.2L319.282 170.46C316.722 174.48 313.282 178.04 310.002 181.48L286.702 205.98C284.382 205.18 282.822 204.9 281.362 206.38L275.722 212.32C275.042 213.02 274.142 213.5 273.042 213.68L268.162 214.52C267.902 214.56 267.922 214.9 268.182 215.16L296.062 241.7Z" fill="black"/>
<path d="M382.8 155.901L379.72 152.981L378.54 151.861L361.14 135.321L349.54 124.301L349.08 123.861C348.68 123.481 348.04 123.501 347.66 123.901L332.16 140.201C331.78 140.601 331.8 141.241 332.2 141.621L334.54 143.841L348.64 157.241L361.66 169.601L362.84 170.721L365.92 173.641C366.68 174.361 367.6 174.621 367.98 174.221L383.48 157.921C383.84 157.521 383.54 156.621 382.8 155.901Z" fill="black"/>
<path d="M277.522 251.12L289.762 238.26L272.042 221.42L260.242 233.84L277.522 251.12Z" fill="black"/>
<path d="M235.959 259.42L202.199 294.98L219.879 311.78L253.219 276.7L235.959 259.42Z" fill="black"/>
</svg>
