<svg width="512" height="512" viewBox="0 0 512 512" fill="none" xmlns="http://www.w3.org/2000/svg">
<path d="M325.278 201.724L465.294 120.886C465.294 120.886 465.926 119.554 463.955 116.14C461.984 112.726 460.514 112.607 460.514 112.607L320.498 193.445L325.278 201.724Z" fill="black"/>
<path d="M442.63 121.033L449.515 117.058L447.937 114.326C447.584 113.714 447.793 112.933 448.405 112.579C449.018 112.225 449.227 111.444 448.873 110.832L447.173 107.887C446.636 106.957 445.451 106.64 444.522 107.176L438.775 110.494C437.845 111.031 437.528 112.216 438.064 113.146L442.621 121.038L442.63 121.033Z" fill="black"/>
<path d="M318.917 194.938L183.297 273.238L185.667 277.343L321.287 199.043L318.917 194.938Z" fill="black"/>
<path d="M122.963 287.188L126.037 292.513L129.087 290.753C129.087 290.753 131.164 294.731 133.217 295.469C135.27 296.206 137.219 294.977 137.219 294.977L138.402 297.027L159.252 284.99L158.43 283.565C157.574 282.084 155.683 281.577 154.202 282.432L154.124 282.477C152.643 283.332 150.752 282.826 149.897 281.344C149.041 279.863 147.15 279.357 145.669 280.212L144.153 281.087C142.672 281.942 140.781 281.435 139.926 279.954L137.624 275.967C137.049 274.961 135.767 274.617 134.768 275.194L130.025 277.933C129.022 278.512 128.678 279.793 129.258 280.797C129.817 281.765 129.514 283.006 128.57 283.609L122.967 287.185L122.963 287.188Z" fill="black"/>
<path d="M158.453 321.273L161.62 319.404C161.62 319.404 161.623 321.858 162.86 323.217C163.728 324.169 165.47 324.508 166.27 324.619C166.507 324.65 166.686 324.859 166.674 325.098C166.666 325.317 166.509 325.506 166.294 325.543C165.311 325.728 162.589 326.089 161.026 324.826C158.914 323.115 158.442 321.273 158.442 321.273L158.453 321.273Z" fill="black"/>
<path d="M170.457 313.896L173.623 312.027C173.623 312.027 173.627 314.481 174.864 315.84C175.732 316.792 177.474 317.131 178.273 317.242C178.511 317.273 178.69 317.482 178.678 317.721C178.67 317.94 178.513 318.129 178.298 318.167C177.315 318.351 174.593 318.712 173.03 317.449C170.918 315.738 170.446 313.896 170.446 313.896L170.457 313.896Z" fill="black"/>
<path d="M184.115 321.422L164.355 332.83C161.419 334.525 157.718 333.633 156.105 330.84L155.125 329.142C154.43 327.938 153.573 326.835 152.584 325.854L152.075 325.354L154.978 323.169C155.296 324.914 155.911 326.591 156.799 328.129L157.799 329.862C158.9 331.769 161.425 332.379 163.431 331.22L183.191 319.812C185.193 318.656 185.931 316.163 184.83 314.256L184.189 313.074C183.148 311.161 181.588 309.583 179.685 308.533L179.004 308.156L183.754 305.118L183.84 306.331C183.962 308.056 184.476 309.729 185.338 311.223L186.524 313.278C188.137 316.071 187.06 319.722 184.123 321.417L184.115 321.422Z" fill="black"/>
<path d="M138.349 301.592L139.676 303.89L157.238 293.75C158.128 293.236 159.391 293.468 159.906 294.359L160.302 295.045C160.746 295.814 161.732 296.078 162.501 295.634L185.106 282.583C185.875 282.14 186.139 281.153 185.695 280.384L182.001 273.986L139.116 298.746C138.121 299.32 137.779 300.594 138.354 301.589L138.349 301.592Z" fill="black"/>
<path d="M164.791 296.048L160.794 306.51L160.516 306.509C160.032 306.504 159.564 306.636 159.16 306.869C158.639 307.17 158.222 307.642 158.001 308.222C157.474 309.597 158.169 311.142 159.542 311.664C160.917 312.19 162.462 311.495 162.984 310.123C163.378 309.09 163.084 307.899 162.249 307.164L162.038 306.979L166.617 294.988L164.793 296.041L164.791 296.048Z" fill="black"/>
<path d="M186.455 278.7L187.244 280.069C187.967 281.32 187.539 282.916 186.288 283.638L167.723 294.357L162.985 306.765C163.91 307.725 164.216 309.158 163.732 310.416C163.437 311.189 162.891 311.799 162.227 312.183C161.18 312.787 159.833 312.841 158.662 312.138C157.683 311.546 157.057 310.471 157.013 309.332C156.941 307.352 158.453 305.848 160.232 305.719L163.679 296.692L163.123 297.013C161.876 297.732 160.273 297.303 159.553 296.056C159.553 296.056 159.373 295.784 159.173 295.517C158.935 295.197 158.492 295.111 158.145 295.312C148.258 301.019 141.867 304.756 140.956 305.386C135.887 308.903 128.486 323.23 122.752 327.132C119.246 329.515 115.388 329.565 112.915 329.243C111.085 329.003 109.223 329.389 107.662 330.377L39.194 373.723C37.4923 374.799 37.052 377.086 38.2264 378.718L63.6666 414.105C64.9393 415.878 67.5076 416.063 69.0199 414.489C79.7852 403.322 116.914 364.87 119.996 362.332C122.364 360.386 124.239 362.199 125.256 363.679C125.953 364.696 127.092 365.324 128.326 365.376C129.768 365.435 131.811 365.373 134.211 364.885C137.304 364.253 140.7 362.321 142.706 361.041C143.76 360.369 144.271 359.107 143.984 357.888C142.81 352.884 140.063 339.661 142.411 334.268C145.334 327.554 154.066 321.922 159.923 318.245C165.313 314.86 291.147 237.056 311.281 224.609C312.975 223.562 314.048 221.749 314.149 219.756C314.163 217.825 315.146 216.036 316.761 214.982L323.151 210.823C325.163 209.511 325.801 206.855 324.6 204.774L322.074 200.4C322.074 200.4 240.29 247.827 186.459 278.698L186.455 278.7Z" fill="black"/>
</svg>
