<svg width="512" height="160" viewBox="0 0 512 160" fill="none" xmlns="http://www.w3.org/2000/svg">
<path d="M343.107 67.6283H504.783C504.783 67.6283 505.997 66.7907 505.997 62.8483C505.997 58.906 504.783 58.0684 504.783 58.0684H343.107V67.6283Z" fill="black"/>
<path d="M485.082 56.4238H493.032V53.2689C493.032 52.5617 493.604 51.9899 494.311 51.9899C495.018 51.9899 495.59 51.4181 495.59 50.7109V47.3102C495.59 46.2369 494.722 45.3691 493.649 45.3691H487.013C485.94 45.3691 485.072 46.2369 485.072 47.3102V56.4238H485.082Z" fill="black"/>
<path d="M340.991 58.5703H184.391V63.3102H340.991V58.5703Z" fill="black"/>
<path d="M125.166 40.484V46.6333H128.687C128.687 46.6333 128.496 51.1173 129.906 52.7825C131.315 54.4477 133.617 54.3575 133.617 54.3575V56.7249H157.693V55.0797C157.693 53.3694 156.308 51.985 154.598 51.985H154.508C152.797 51.985 151.413 50.6007 151.413 48.8903C151.413 47.18 150.029 45.7957 148.318 45.7957H146.568C144.858 45.7957 143.473 44.4113 143.473 42.701V38.0966C143.478 36.9379 142.54 36 141.387 36H135.91C134.751 36 133.813 36.9379 133.813 38.0966C133.813 39.2151 132.93 40.138 131.812 40.1881L125.171 40.484H125.166Z" fill="black"/>
<path d="M138.859 87.748L142.536 87.7129C142.536 87.7129 141.312 89.8395 141.703 91.6352C141.979 92.8941 143.318 94.0578 143.955 94.5543C144.146 94.6998 144.196 94.9706 144.066 95.1712C143.95 95.3568 143.72 95.4421 143.514 95.3669C142.571 95.0358 140.033 93.9875 139.311 92.1117C138.338 89.5737 138.849 87.743 138.849 87.743L138.859 87.748Z" fill="black"/>
<path d="M152.943 87.3613L156.62 87.3262C156.62 87.3262 155.396 89.4528 155.787 91.2485C156.063 92.5074 157.402 93.671 158.039 94.1676C158.23 94.313 158.28 94.5839 158.15 94.7845C158.034 94.9701 157.803 95.0554 157.598 94.9801C156.655 94.6491 154.117 93.6008 153.395 91.7249C152.422 89.187 152.933 87.3563 152.933 87.3563L152.943 87.3613Z" fill="black"/>
<path d="M161.008 100.708H138.192C134.801 100.708 132.042 98.0847 132.042 94.8596V92.8985C132.042 91.5092 131.852 90.1248 131.486 88.7806L131.295 88.0935L134.901 87.6521C134.304 89.3223 133.998 91.0828 133.998 92.8584V94.8596C133.998 97.0615 135.879 98.8521 138.197 98.8521H161.013C163.325 98.8521 165.211 97.0615 165.211 94.8596L165.246 93.5154C165.301 91.3386 164.74 89.1919 163.616 87.3311L163.215 86.664L168.847 86.4082L168.316 87.5016C167.558 89.0565 167.167 90.7618 167.167 92.4872V94.8596C167.167 98.0847 164.409 100.708 161.018 100.708H161.008Z" fill="black"/>
<path d="M131.289 60.6518V63.3051H151.568C152.596 63.3051 153.574 64.1377 153.574 65.166V65.9584C153.574 66.8462 154.296 67.5685 155.184 67.5685H181.286C182.173 67.5685 182.896 66.8462 182.896 65.9584V58.5703H133.376C132.227 58.5703 131.294 59.5032 131.294 60.6518H131.289Z" fill="black"/>
<path d="M156.961 69.0734L148.269 76.1355L148.028 75.995C147.612 75.7493 147.14 75.6289 146.674 75.6289C146.072 75.6289 145.475 75.8295 144.994 76.2207C143.85 77.1487 143.68 78.8339 144.607 79.9725C145.535 81.1161 147.221 81.2866 148.359 80.3587C149.217 79.6615 149.558 78.4828 149.202 77.4295L149.112 77.1637L159.073 69.0684H156.966L156.961 69.0734Z" fill="black"/>
<path d="M184.396 64.8809V66.4608C184.396 67.9053 183.227 69.074 181.783 69.074H160.346L150.039 77.4502C150.36 78.7443 149.908 80.1386 148.86 80.9863C148.218 81.5079 147.44 81.7637 146.673 81.7637C145.464 81.7637 144.27 81.1367 143.608 79.943C143.057 78.9399 143.052 77.696 143.583 76.6878C144.511 74.9373 146.573 74.3906 148.178 75.1681L155.676 69.074H155.034C153.595 69.074 152.421 67.9003 152.421 66.4608C152.421 66.4608 152.401 66.1348 152.361 65.8037C152.316 65.4075 151.975 65.1116 151.573 65.1116C140.158 65.1116 132.754 65.1517 131.651 65.242C125.502 65.7536 111.929 74.4608 105.013 74.9724C100.784 75.2834 97.4188 73.3975 95.4376 71.8828C93.9731 70.7593 92.1674 70.1624 90.3216 70.2376L9.35319 73.543C7.34189 73.6232 5.81712 75.3837 6.01775 77.385L10.3563 120.751C10.572 122.923 12.7037 124.367 14.8002 123.76C29.7069 119.472 81.0877 104.736 85.025 104.079C88.0495 103.577 88.7668 106.085 88.9072 107.875C89.0025 109.104 89.6746 110.218 90.7179 110.88C91.9367 111.652 93.7373 112.62 96.0596 113.398C99.054 114.396 102.961 114.421 105.339 114.316C106.588 114.26 107.661 113.423 108.022 112.224C109.507 107.304 113.74 94.4785 118.47 90.9826C124.358 86.6289 134.736 86.1173 141.647 85.8615C148.007 85.6258 295.885 81.1618 319.544 80.4496C321.535 80.3894 323.371 79.3562 324.454 77.6809C325.432 76.0157 327.178 74.9574 329.104 74.8521L336.718 74.4458C339.115 74.3154 340.996 72.3342 340.996 69.9317V64.8809C340.996 64.8809 246.455 65.0614 184.401 64.8809H184.396Z" fill="black"/>
</svg>
