<svg width="512" height="512" viewBox="0 0 512 512" fill="none" xmlns="http://www.w3.org/2000/svg">
<path d="M343.107 243.628H504.783C504.783 243.628 505.997 242.791 505.997 238.848C505.997 234.906 504.783 234.068 504.783 234.068H343.107V243.628Z" fill="black"/>
<path d="M485.082 232.424H493.032V229.269C493.032 228.562 493.604 227.99 494.311 227.99C495.018 227.99 495.59 227.418 495.59 226.711V223.31C495.59 222.237 494.722 221.369 493.649 221.369H487.013C485.94 221.369 485.072 222.237 485.072 223.31V232.424H485.082Z" fill="black"/>
<path d="M340.991 234.57H184.391V239.31H340.991V234.57Z" fill="black"/>
<path d="M125.166 216.484V222.633H128.687C128.687 222.633 128.496 227.117 129.906 228.783C131.315 230.448 133.617 230.357 133.617 230.357V232.725H157.693V231.08C157.693 229.369 156.308 227.985 154.598 227.985H154.508C152.797 227.985 151.413 226.601 151.413 224.89C151.413 223.18 150.029 221.796 148.318 221.796H146.568C144.858 221.796 143.473 220.411 143.473 218.701V214.097C143.478 212.938 142.54 212 141.387 212H135.91C134.751 212 133.813 212.938 133.813 214.097C133.813 215.215 132.93 216.138 131.812 216.188L125.171 216.484H125.166Z" fill="black"/>
<path d="M138.859 263.748L142.536 263.713C142.536 263.713 141.312 265.84 141.703 267.635C141.979 268.894 143.318 270.058 143.955 270.554C144.146 270.7 144.196 270.971 144.066 271.171C143.95 271.357 143.72 271.442 143.514 271.367C142.571 271.036 140.033 269.988 139.311 268.112C138.338 265.574 138.849 263.743 138.849 263.743L138.859 263.748Z" fill="black"/>
<path d="M152.943 263.361L156.62 263.326C156.62 263.326 155.396 265.453 155.787 267.248C156.063 268.507 157.402 269.671 158.039 270.168C158.23 270.313 158.28 270.584 158.15 270.785C158.034 270.97 157.803 271.055 157.598 270.98C156.655 270.649 154.117 269.601 153.395 267.725C152.422 265.187 152.933 263.356 152.933 263.356L152.943 263.361Z" fill="black"/>
<path d="M161.008 276.708H138.192C134.801 276.708 132.042 274.085 132.042 270.86V268.899C132.042 267.509 131.852 266.125 131.486 264.781L131.295 264.093L134.901 263.652C134.304 265.322 133.998 267.083 133.998 268.858V270.86C133.998 273.062 135.879 274.852 138.197 274.852H161.013C163.325 274.852 165.211 273.062 165.211 270.86L165.246 269.515C165.301 267.339 164.74 265.192 163.616 263.331L163.215 262.664L168.847 262.408L168.316 263.502C167.558 265.056 167.167 266.762 167.167 268.487V270.86C167.167 274.085 164.409 276.708 161.018 276.708H161.008Z" fill="black"/>
<path d="M131.289 236.652V239.305H151.568C152.596 239.305 153.574 240.138 153.574 241.166V241.958C153.574 242.846 154.296 243.568 155.184 243.568H181.286C182.173 243.568 182.896 242.846 182.896 241.958V234.57H133.376C132.227 234.57 131.294 235.503 131.294 236.652H131.289Z" fill="black"/>
<path d="M156.961 245.073L148.269 252.135L148.028 251.995C147.612 251.749 147.14 251.629 146.674 251.629C146.072 251.629 145.475 251.83 144.994 252.221C143.85 253.149 143.68 254.834 144.607 255.972C145.535 257.116 147.221 257.287 148.359 256.359C149.217 255.662 149.558 254.483 149.202 253.43L149.112 253.164L159.073 245.068H156.966L156.961 245.073Z" fill="black"/>
<path d="M184.396 240.881V242.461C184.396 243.905 183.227 245.074 181.783 245.074H160.346L150.039 253.45C150.36 254.744 149.908 256.139 148.86 256.986C148.218 257.508 147.44 257.764 146.673 257.764C145.464 257.764 144.27 257.137 143.608 255.943C143.057 254.94 143.052 253.696 143.583 252.688C144.511 250.937 146.573 250.391 148.178 251.168L155.676 245.074H155.034C153.595 245.074 152.421 243.9 152.421 242.461C152.421 242.461 152.401 242.135 152.361 241.804C152.316 241.408 151.975 241.112 151.573 241.112C140.158 241.112 132.754 241.152 131.651 241.242C125.502 241.754 111.929 250.461 105.013 250.972C100.784 251.283 97.4188 249.398 95.4376 247.883C93.9731 246.759 92.1674 246.162 90.3216 246.238L9.35319 249.543C7.34189 249.623 5.81712 251.384 6.01775 253.385L10.3563 296.751C10.572 298.923 12.7037 300.367 14.8002 299.76C29.7069 295.472 81.0877 280.736 85.025 280.079C88.0495 279.577 88.7668 282.085 88.9072 283.875C89.0025 285.104 89.6746 286.218 90.7179 286.88C91.9367 287.652 93.7373 288.62 96.0596 289.398C99.054 290.396 102.961 290.421 105.339 290.316C106.588 290.26 107.661 289.423 108.022 288.224C109.507 283.304 113.74 270.479 118.47 266.983C124.358 262.629 134.736 262.117 141.647 261.862C148.007 261.626 295.885 257.162 319.544 256.45C321.535 256.389 323.371 255.356 324.454 253.681C325.432 252.016 327.178 250.957 329.104 250.852L336.718 250.446C339.115 250.315 340.996 248.334 340.996 245.932V240.881C340.996 240.881 246.455 241.061 184.401 240.881H184.396Z" fill="black"/>
</svg>
