<svg width="512" height="160" viewBox="0 0 512 160" fill="none" xmlns="http://www.w3.org/2000/svg">
<path d="M241.46 34.3994L244.4 32.9194C245.09 32.5781 245.85 32.4001 246.62 32.3994H284.84V27.3594H246.92C246.152 27.3574 245.399 27.5648 244.74 27.9594L243.76 28.5594L241.58 29.7394L241.46 34.3994Z" fill="black"/>
<path d="M410.54 21.0801H387.14V28.3801H410.54V21.0801Z" fill="black"/>
<path d="M286.26 21.1406V32.5006H294.92V28.9006L289.3 24.4806C288.745 24.1248 288.287 23.6373 287.966 23.0616C287.645 22.4858 287.471 21.8397 287.46 21.1806L286.26 21.1406Z" fill="black"/>
<path d="M289.68 17.2794H289.78C290.461 16.8854 291.234 16.6784 292.02 16.6794H304.36L307.84 13.5194L307.58 13.2194C307.047 12.6891 306.332 12.3816 305.58 12.3594H291.58C290.811 12.3698 290.076 12.6815 289.534 13.2274C288.992 13.7733 288.685 14.51 288.68 15.2794C288.657 15.6711 288.737 16.0621 288.913 16.4131C289.088 16.7641 289.353 17.0628 289.68 17.2794Z" fill="black"/>
<path d="M291.26 18.1606C290.732 18.3131 290.251 18.595 289.86 18.9805C289.312 19.5091 288.977 20.221 288.92 20.9805C288.932 21.4415 289.055 21.8928 289.277 22.2965C289.5 22.7002 289.817 23.0446 290.2 23.3006L297.06 28.7805H310.02V21.2805L305.8 24.5605C304.93 25.2751 303.845 25.6766 302.72 25.7005C302.266 25.7187 301.813 25.6326 301.397 25.4489C300.981 25.2652 300.613 24.9886 300.32 24.6405C299.892 24.1166 299.665 23.457 299.68 22.7805C299.715 22.1218 299.884 21.4771 300.176 20.8857C300.468 20.2943 300.878 19.7685 301.38 19.3405L302.78 18.0605H292.02C291.764 18.0629 291.508 18.0965 291.26 18.1606Z" fill="black"/>
<path d="M376.54 18.3203H372.78V28.8803H376.54V18.3203Z" fill="black"/>
<path d="M385.72 21.0801H377.96V28.3801H385.72V21.0801Z" fill="black"/>
<path d="M385.72 33.9004H377.96V47.6204H385.72V33.9004Z" fill="black"/>
<path d="M313.24 18.7404L311.24 20.2404C311.32 20.5473 311.361 20.8632 311.36 21.1804V28.9004H319.16V16.9004H314.72C314.345 17.577 313.842 18.1746 313.24 18.6604V18.7404Z" fill="black"/>
<path d="M302.32 20.3593C301.967 20.6575 301.677 21.0235 301.467 21.4358C301.257 21.848 301.133 22.298 301.1 22.7593C301.092 23.1067 301.205 23.446 301.42 23.7193C302.1 24.5393 303.66 24.4193 304.92 23.4193L312.36 17.6393C313.141 17.0484 313.67 16.1839 313.84 15.2193C313.881 14.7909 313.759 14.3627 313.5 14.0193L313.04 13.5193C312.869 13.3509 312.666 13.2196 312.442 13.1336C312.219 13.0475 311.979 13.0086 311.74 13.0193C311.018 13.0442 310.32 13.2884 309.74 13.7193C309.585 13.8214 309.438 13.935 309.3 14.0593L302.32 20.3593ZM311.16 14.2193C311.445 14.2193 311.723 14.3038 311.96 14.462C312.197 14.6202 312.381 14.8451 312.49 15.1082C312.599 15.3714 312.628 15.6609 312.572 15.9402C312.517 16.2196 312.38 16.4762 312.178 16.6775C311.977 16.8789 311.72 17.0161 311.441 17.0716C311.162 17.1272 310.872 17.0987 310.609 16.9897C310.346 16.8807 310.121 16.6961 309.963 16.4593C309.804 16.2225 309.72 15.9441 309.72 15.6593C309.725 15.279 309.879 14.9157 310.147 14.6468C310.416 14.3779 310.78 14.2245 311.16 14.2193Z" fill="black"/>
<path d="M240.04 24.1797L162.6 24.3597L153.18 34.5797H184.66L196.1 34.3797L200.48 30.3797C201.716 29.2217 203.346 28.5781 205.04 28.5797H240.14L240.04 24.1797Z" fill="black"/>
<path d="M284.92 21.1406H246.92C246.174 21.1414 245.442 21.3416 244.8 21.7206L241.6 23.5806V28.2006L244.04 26.8406C244.916 26.3163 245.919 26.0398 246.94 26.0406H284.94L284.92 21.1406Z" fill="black"/>
<path d="M240.04 34.6994V29.8594H204.92C203.587 29.8585 202.302 30.3582 201.32 31.2594L198.02 34.3394L232.94 33.6994C233.402 33.6827 233.853 33.8467 234.196 34.1566C234.54 34.4664 234.749 34.8978 234.78 35.3594C234.799 35.4652 234.799 35.5736 234.78 35.6794L240.04 34.6994Z" fill="black"/>
<path d="M186.26 36.1407C185.961 36.1102 185.139 36.0703 184.84 36.1007C183.72 36.2065 182.679 36.7262 181.922 37.5584C181.164 38.3906 180.745 39.4754 180.745 40.6007C180.745 41.7259 181.164 42.8107 181.922 43.6429C182.679 44.4752 183.72 44.995 184.84 45.1007H185.36C186.49 45.1145 187.584 44.7045 188.427 43.9515C189.27 43.1985 189.8 42.1572 189.913 41.0328C190.025 39.9083 189.713 38.7824 189.037 37.8769C188.361 36.9713 187.37 36.3519 186.26 36.1407Z" fill="black"/>
<path d="M320.66 28.9005H323.46C323.61 28.5251 323.869 28.2039 324.205 27.979C324.54 27.7541 324.936 27.6361 325.34 27.6405H338.44C338.841 27.6401 339.232 27.76 339.564 27.9846C339.895 28.2093 340.152 28.5283 340.3 28.9005H350.4C350.548 28.5283 350.805 28.2093 351.136 27.9846C351.468 27.76 351.859 27.6401 352.26 27.6405H365.38C365.781 27.6401 366.172 27.76 366.504 27.9846C366.835 28.2093 367.092 28.5283 367.24 28.9005H371.36V18.1005C371.36 17.8034 371.242 17.5186 371.032 17.3085C370.822 17.0985 370.537 16.9805 370.24 16.9805H320.66V28.9005Z" fill="black"/>
<path d="M228.58 36.8391L233.1 35.9591C233.152 35.9521 233.202 35.9343 233.247 35.9068C233.292 35.8793 233.331 35.8428 233.361 35.7995C233.391 35.7563 233.412 35.7073 233.422 35.6555C233.432 35.6038 233.432 35.5506 233.42 35.4991C233.41 35.3948 233.361 35.298 233.284 35.2277C233.206 35.1574 233.105 35.1187 233 35.1191L189 35.9191C189.689 36.4734 190.248 37.1732 190.635 37.9684C191.022 38.7637 191.229 39.6347 191.24 40.5192C191.246 41.7532 190.861 42.9575 190.14 43.9591L228.58 36.8391Z" fill="black"/>
<path d="M167.82 69.4202L156.92 102.62C156.843 102.84 156.857 103.082 156.958 103.292C157.06 103.502 157.24 103.663 157.46 103.74L167.98 106.9C169.98 95.7001 177.3 73.8002 178.78 69.4402L168.28 69.1401C168.182 69.1212 168.081 69.1394 167.996 69.1912C167.911 69.2429 167.848 69.3246 167.82 69.4202Z" fill="black"/>
<path d="M297.8 54.4006C298.277 55.0832 298.912 55.6411 299.649 56.0274C300.387 56.4137 301.207 56.6172 302.04 56.6206H302.48C305.473 56.6107 308.391 55.6822 310.84 53.9606L315.02 51.0206C316.42 50.0197 318.099 49.4813 319.82 49.4806L347.58 49.1406C350.519 49.1193 353.446 49.503 356.28 50.2806L358.28 50.8406C359.505 51.1771 360.77 51.3453 362.04 51.3406H369.44C369.97 51.3406 370.479 51.1299 370.854 50.7548C371.229 50.3798 371.44 49.8711 371.44 49.3406V31.6406H367.34C367.204 32.0309 366.95 32.3693 366.613 32.6093C366.276 32.8493 365.873 32.979 365.46 32.9806H352.34C351.927 32.979 351.524 32.8493 351.187 32.6093C350.85 32.3693 350.596 32.0309 350.46 31.6406H340.46C340.324 32.0309 340.07 32.3693 339.733 32.6093C339.396 32.8493 338.993 32.979 338.58 32.9806H325.48C325.046 33.0047 324.617 32.887 324.256 32.6452C323.895 32.4035 323.623 32.0509 323.48 31.6406H297.8V54.4006Z" fill="black"/>
<path d="M201.12 65.2794C200.493 64.2055 200.143 62.9926 200.101 61.7497C200.059 60.5068 200.327 59.273 200.88 58.1594C201.867 56.8329 203.103 55.712 204.52 54.8594H194.22C194.352 58.0693 195.092 61.225 196.4 64.1594C196.969 65.5866 197.993 66.7868 199.312 67.5748C200.631 68.3627 202.173 68.6947 203.7 68.5194C203.725 68.5055 203.746 68.4853 203.76 68.4606C203.775 68.436 203.783 68.408 203.783 68.3794C203.783 68.3508 203.775 68.3227 203.76 68.2981C203.746 68.2735 203.725 68.2532 203.7 68.2394C202.633 67.4541 201.752 66.4435 201.12 65.2794Z" fill="black"/>
<path d="M416.8 35.4004H387.14V47.6204H416.8V35.4004Z" fill="black"/>
<path d="M376.54 31.7207H372.78V49.8007H376.54V31.7207Z" fill="black"/>
<path d="M483.72 50.1203V33.8203H467.3V49.8203C467.394 49.9371 467.513 50.0317 467.648 50.0974C467.782 50.1631 467.93 50.1982 468.08 50.2003L483.72 50.1203Z" fill="black"/>
<path d="M492.74 35.4609V45.1609H507.18C499.9 43.1609 498.54 35.4809 498.54 35.4809L492.74 35.4609Z" fill="black"/>
<path d="M439.2 47.6406H465.88V36.1406H439.5H439.2V47.6406Z" fill="black"/>
<path d="M491.32 33.7793H486.26V33.7993H485.14V50.0993H491.32V33.7793Z" fill="black"/>
<path d="M419.86 30.7196V33.0796H431.06C429.954 32.3549 429.106 31.2973 428.64 30.0596L426.64 24.8396C425.98 23.7006 425.032 22.7554 423.891 22.0989C422.75 21.4424 421.456 21.0978 420.14 21.0996H411.92V28.3996H417.5C417.808 28.3943 418.114 28.4504 418.4 28.5646C418.686 28.6788 418.947 28.8489 419.166 29.0648C419.386 29.2808 419.561 29.5383 419.68 29.8224C419.799 30.1066 419.86 30.4116 419.86 30.7196Z" fill="black"/>
<path d="M437.8 34.4805H418.22V49.4805H437.8V34.4805Z" fill="black"/>
<path d="M473.08 26.54L470.1 31.98C469.936 32.2607 469.742 32.5223 469.52 32.76H475.34C475.15 32.5209 475.044 32.2255 475.04 31.92V28.68C475.04 28.2981 475.192 27.9318 475.462 27.6618C475.732 27.3917 476.098 27.24 476.48 27.24H479.7C480.082 27.24 480.448 27.3917 480.718 27.6618C480.988 27.9318 481.14 28.2981 481.14 28.68V31.92C481.136 32.2255 481.03 32.5209 480.84 32.76H484.44V11H475.2V18.28C475.193 21.167 474.464 24.0064 473.08 26.54Z" fill="black"/>
<path d="M159.66 50.9199L153.14 51.1799V55.9999H157.4V57.9999C157.397 58.8241 157.56 59.6404 157.88 60.3999L159.88 57.3999C161.044 55.7252 162.744 54.4976 164.7 53.9199C164.388 53.881 164.08 53.8141 163.78 53.7199C162.205 53.1251 160.793 52.1655 159.66 50.9199Z" fill="black"/>
<path d="M153.14 40.2395L158.62 40.0795C159.726 38.2955 161.314 36.8604 163.2 35.9395H153.56C153.08 35.9395 153.14 36.4994 153.14 37.0594V40.2395Z" fill="black"/>
<path d="M246.64 33.8203C245.854 33.8181 245.08 34.0032 244.38 34.3603L241.5 35.8403L216.52 40.5803L186.92 46.3003C186.439 46.3972 185.951 46.4574 185.46 46.4803C183.869 46.4803 182.343 45.8482 181.217 44.723C180.092 43.5978 179.46 42.0716 179.46 40.4803C179.447 39.633 179.619 38.7931 179.965 38.0193C180.31 37.2455 180.821 36.5565 181.46 36.0003H170.46C172.15 36.7197 173.595 37.9147 174.619 39.44C175.643 40.9653 176.202 42.7553 176.227 44.5922C176.253 46.4291 175.744 48.2338 174.762 49.7869C173.781 51.34 172.37 52.5745 170.7 53.3403L170.14 53.5803H186.92C187.108 53.5803 187.294 53.6177 187.468 53.6903C187.642 53.7629 187.799 53.8693 187.931 54.0033C188.063 54.1373 188.168 54.2962 188.238 54.4708C188.308 54.6454 188.343 54.8322 188.34 55.0203V70.2203C188.346 70.3251 188.387 70.4249 188.456 70.5044C188.524 70.5839 188.617 70.6387 188.72 70.6603C189.104 70.7824 189.463 70.972 189.78 71.2203C190.48 71.7003 191.54 72.4603 192.46 73.2203C193.622 74.0655 195.023 74.5206 196.46 74.5203H211.7C213.391 74.7232 215.105 74.4387 216.64 73.7003C217.717 72.9333 218.528 71.8497 218.96 70.6003C219.428 69.3184 219.672 67.9652 219.68 66.6003L219.88 55.3203C219.895 54.7006 220.145 54.1097 220.579 53.6677C221.014 53.2256 221.601 52.9656 222.22 52.9403L294.92 50.4803V33.9403L246.64 33.8203ZM196.92 46.6203C197.474 46.6203 198.006 46.8405 198.398 47.2325C198.79 47.6244 199.01 48.156 199.01 48.7103C199.01 49.2646 198.79 49.7962 198.398 50.1882C198.006 50.5801 197.474 50.8003 196.92 50.8003C196.366 50.8003 195.834 50.5801 195.442 50.1882C195.05 49.7962 194.83 49.2646 194.83 48.7103C194.83 48.156 195.05 47.6244 195.442 47.2325C195.834 46.8405 196.366 46.6203 196.92 46.6203ZM217.88 67.1203C217.62 69.6403 215.88 72.3803 213.76 72.3803L196.82 72.5603C195.345 72.4577 193.942 71.8826 192.82 70.9203L191.02 69.1203C190.774 68.8772 190.578 68.5877 190.444 68.2684C190.31 67.9491 190.241 67.6065 190.24 67.2603L190.38 54.9603C190.38 54.5678 190.536 54.1914 190.813 53.9138C191.091 53.6363 191.467 53.4803 191.86 53.4803H216.66C216.839 53.4797 217.016 53.5147 217.18 53.5834C217.345 53.6521 217.495 53.7531 217.62 53.8803C217.865 54.1318 218.001 54.4693 218 54.8203L217.88 67.1203ZM252.24 49.4403H243.12C242.235 49.3735 241.408 48.9747 240.804 48.3238C240.201 47.6729 239.865 46.818 239.865 45.9303C239.865 45.0427 240.201 44.1878 240.804 43.5369C241.408 42.886 242.235 42.4872 243.12 42.4203H252.18C252.663 42.3838 253.149 42.4475 253.606 42.6073C254.064 42.7672 254.483 43.0198 254.839 43.3493C255.194 43.6788 255.477 44.0781 255.671 44.5222C255.865 44.9664 255.965 45.4457 255.965 45.9303C255.965 46.4149 255.865 46.8943 255.671 47.3384C255.477 47.7826 255.194 48.1819 254.839 48.5114C254.483 48.8409 254.064 49.0935 253.606 49.2533C253.149 49.4132 252.663 49.4768 252.18 49.4403H252.24Z" fill="black"/>
<path d="M169.78 44.7603C169.784 45.3624 169.609 45.9521 169.277 46.4546C168.946 46.9572 168.472 47.3499 167.917 47.5831C167.362 47.8163 166.75 47.8793 166.159 47.7643C165.568 47.6493 165.025 47.3613 164.598 46.937C164.17 46.5126 163.879 45.971 163.76 45.3808C163.641 44.7905 163.7 44.1783 163.93 43.6216C164.159 43.0649 164.549 42.589 165.049 42.254C165.549 41.9191 166.138 41.7403 166.74 41.7403C167.138 41.7377 167.533 41.8138 167.902 41.9644C168.271 42.115 168.606 42.337 168.888 42.6177C169.171 42.8984 169.395 43.2322 169.548 43.6C169.701 43.9677 169.78 44.362 169.78 44.7603Z" fill="black"/>
<path d="M186.92 56.2793L167.32 56.3993C166.326 56.3968 165.346 56.6358 164.465 57.0956C163.583 57.5555 162.827 58.2225 162.26 59.0393L159.58 62.8793C161.262 64.4246 162.428 66.4493 162.92 68.6793C162.92 70.9793 156.1 90.8393 152.54 100.959C152.004 102.525 152.102 104.238 152.812 105.733C153.522 107.228 154.788 108.386 156.34 108.959L167.92 113.279C168.755 113.585 169.649 113.693 170.533 113.594C171.417 113.495 172.265 113.192 173.012 112.709C173.758 112.227 174.383 111.577 174.835 110.812C175.288 110.046 175.557 109.186 175.62 108.299C175.78 106.159 175.22 102.199 175.22 100.439C175.22 95.4793 178.8 92.5993 178.8 89.5393C179.275 84.4645 180.629 79.5108 182.8 74.8993C183.769 73.5718 184.96 72.4216 186.32 71.4993C186.546 71.3381 186.729 71.1249 186.854 70.8776C186.98 70.6304 187.043 70.3565 187.04 70.0793L186.92 56.2793ZM180.26 69.2793C179.92 70.1193 171.5 95.2793 169.24 107.279C169.149 107.677 168.905 108.022 168.56 108.239C168.352 108.374 168.108 108.444 167.86 108.439C167.728 108.46 167.593 108.46 167.46 108.439L156.92 105.079C156.632 104.986 156.366 104.837 156.135 104.641C155.905 104.445 155.716 104.206 155.579 103.936C155.441 103.667 155.358 103.373 155.334 103.072C155.311 102.77 155.346 102.467 155.44 102.179L166.46 68.9593C166.584 68.6004 166.816 68.2886 167.123 68.0666C167.431 67.8446 167.8 67.7233 168.18 67.7193L179.46 68.0393C179.599 68.0485 179.735 68.0892 179.856 68.1585C179.977 68.2278 180.081 68.3239 180.16 68.4393L180.36 68.7593L180.26 69.2793Z" fill="black"/>
<path d="M243.14 48.0199H252.2C252.754 48.0199 253.286 47.7997 253.678 47.4077C254.07 47.0157 254.29 46.4841 254.29 45.9298C254.29 45.3755 254.07 44.8439 253.678 44.452C253.286 44.06 252.754 43.8398 252.2 43.8398H243.14C242.586 43.8398 242.054 44.06 241.662 44.452C241.27 44.8439 241.05 45.3755 241.05 45.9298C241.05 46.4841 241.27 47.0157 241.662 47.4077C242.054 47.7997 242.586 48.0199 243.14 48.0199Z" fill="black"/>
<path d="M163.9 22.9403L240.04 22.7603L244.04 20.5003C244.898 19.986 245.88 19.7163 246.88 19.7203H287.6C287.681 19.1538 287.974 18.6392 288.42 18.2803H237.42C237.134 18.2853 236.851 18.229 236.588 18.1151C236.326 18.0013 236.091 17.8325 235.9 17.6203L235.34 17.0403C235.137 16.8323 234.894 16.6669 234.626 16.5541C234.359 16.4412 234.071 16.3831 233.78 16.3831C233.489 16.3831 233.202 16.4412 232.934 16.5541C232.666 16.6669 232.423 16.8323 232.22 17.0403L231.68 17.6003C231.484 17.8178 231.243 17.9896 230.973 18.1036C230.704 18.2176 230.412 18.2711 230.12 18.2603H213.34C213.049 18.2622 212.76 18.2047 212.492 18.0912C212.224 17.9777 211.981 17.8107 211.78 17.6003L211.22 17.0403C211.02 16.8272 210.778 16.6573 210.51 16.5412C210.242 16.4251 209.952 16.3652 209.66 16.3652C209.368 16.3652 209.078 16.4251 208.81 16.5412C208.542 16.6573 208.3 16.8272 208.1 17.0403L207.56 17.6003C207.357 17.8088 207.115 17.9747 206.847 18.088C206.579 18.2014 206.291 18.2599 206 18.2603H189.2C188.911 18.2682 188.623 18.2133 188.358 18.0993C188.092 17.9854 187.854 17.8151 187.66 17.6003L187.08 17.0203C186.88 16.8134 186.641 16.6489 186.377 16.5365C186.112 16.4242 185.827 16.3662 185.54 16.3662C185.253 16.3662 184.968 16.4242 184.703 16.5365C184.439 16.6489 184.2 16.8134 184 17.0203L183.34 17.6803C182.935 18.0789 182.389 18.3017 181.82 18.3003H173.04C170.84 18.3003 168.48 18.1603 167.04 19.6803L163.9 22.9403Z" fill="black"/>
<path d="M258.92 67.4406C258.889 67.3208 258.819 67.2145 258.722 67.1385C258.624 67.0626 258.504 67.0211 258.38 67.0206C258.289 67.0155 258.198 67.0288 258.112 67.0597C258.026 67.0906 257.947 67.1386 257.88 67.2006C257.831 67.2539 257.795 67.3176 257.774 67.3869C257.753 67.4561 257.749 67.5292 257.76 67.6006C261.76 87.8206 274.7 106.541 295.86 122.241C295.97 122.339 296.112 122.393 296.26 122.393C296.408 122.393 296.55 122.339 296.66 122.241C296.71 122.199 296.751 122.147 296.779 122.089C296.806 122.03 296.821 121.966 296.821 121.901C296.821 121.836 296.806 121.771 296.779 121.713C296.751 121.654 296.71 121.602 296.66 121.561C272.92 102.021 262.92 87.5406 258.92 67.4406Z" fill="black"/>
<path d="M251.06 67.7597C251.025 67.6436 250.954 67.5418 250.857 67.4697C250.759 67.3976 250.641 67.3589 250.52 67.3597C250.331 67.3545 250.146 67.4185 250 67.5397C249.951 67.593 249.915 67.6567 249.894 67.7259C249.873 67.7952 249.869 67.8683 249.88 67.9397C256.34 101.02 290.16 126.48 291.58 127.54C291.689 127.633 291.827 127.684 291.97 127.684C292.113 127.684 292.251 127.633 292.36 127.54C292.41 127.498 292.451 127.447 292.478 127.388C292.506 127.329 292.521 127.265 292.521 127.2C292.521 127.135 292.506 127.07 292.478 127.012C292.451 126.953 292.41 126.901 292.36 126.86C268.92 107.4 255.2 87.8997 251.06 67.7597Z" fill="black"/>
<path d="M242.38 68.0202C242.357 67.9003 242.292 67.7924 242.196 67.7156C242.101 67.6388 241.982 67.598 241.86 67.6002C241.764 67.5962 241.669 67.6118 241.579 67.6463C241.49 67.6807 241.408 67.7331 241.34 67.8002C241.29 67.8487 241.253 67.9088 241.232 67.9751C241.211 68.0414 241.207 68.1119 241.22 68.1802C247.02 97.9002 279.22 127.06 287.22 133.04C287.329 133.133 287.467 133.184 287.61 133.184C287.753 133.184 287.891 133.133 288 133.04C288.047 132.997 288.085 132.945 288.111 132.886C288.137 132.827 288.15 132.764 288.15 132.7C288.15 132.636 288.137 132.573 288.111 132.514C288.085 132.456 288.047 132.403 288 132.36C264.1 112.54 246.52 88.0202 242.38 68.0202Z" fill="black"/>
<path d="M264.56 53.9199L229.68 55.4199C238.34 111.88 283.68 143.8 290.98 148C291.264 148.162 291.599 148.211 291.918 148.137C292.237 148.063 292.516 147.871 292.7 147.6L310.7 121.98C310.798 121.836 310.866 121.674 310.901 121.503C310.936 121.332 310.937 121.156 310.903 120.985C310.87 120.814 310.803 120.651 310.706 120.506C310.61 120.361 310.485 120.237 310.34 120.14C272.92 94.5599 265.72 63.2799 264.56 53.9199ZM289.08 133.78C288.675 134.179 288.129 134.401 287.56 134.4C287.109 134.399 286.669 134.259 286.3 134C278.18 128 245.7 98.4999 239.82 68.3999C239.771 68.1453 239.786 67.8826 239.863 67.6349C239.939 67.3873 240.076 67.1623 240.26 66.9799C240.455 66.7749 240.691 66.6137 240.953 66.5068C241.215 66.3999 241.497 66.3499 241.78 66.3599C242.224 66.341 242.661 66.4702 243.023 66.7273C243.385 66.9844 243.652 67.3548 243.78 67.7799C247.78 87.5399 265.3 111.78 288.92 131.38C289.101 131.518 289.25 131.694 289.357 131.894C289.465 132.095 289.528 132.317 289.544 132.544C289.559 132.771 289.525 132.999 289.445 133.212C289.365 133.425 289.241 133.619 289.08 133.78ZM293.44 128.3C293.074 128.648 292.599 128.858 292.096 128.894C291.592 128.93 291.092 128.791 290.68 128.5C289.24 127.44 255.04 101.7 248.48 68.1599C248.438 67.9053 248.456 67.6444 248.532 67.3979C248.609 67.1514 248.741 66.9261 248.92 66.7399C249.12 66.5347 249.36 66.3721 249.624 66.2621C249.889 66.1521 250.173 66.097 250.46 66.0999C250.906 66.0822 251.346 66.2143 251.708 66.4753C252.071 66.7362 252.335 67.1111 252.46 67.5399C256.46 87.3999 270.12 106.68 293.3 125.88C293.48 126.022 293.628 126.2 293.733 126.403C293.839 126.606 293.901 126.83 293.914 127.058C293.927 127.287 293.892 127.516 293.81 127.73C293.729 127.944 293.602 128.138 293.44 128.3ZM297.66 123C297.467 123.202 297.234 123.362 296.976 123.469C296.717 123.576 296.439 123.627 296.16 123.62C295.707 123.633 295.263 123.492 294.9 123.22C273.44 107.32 260.28 88.3199 256.28 67.8199C256.234 67.5669 256.248 67.3065 256.321 67.0598C256.394 66.8131 256.524 66.5871 256.7 66.3999C256.9 66.1947 257.14 66.0321 257.404 65.9221C257.669 65.8121 257.953 65.7569 258.24 65.7599C258.689 65.7433 259.13 65.8783 259.493 66.1432C259.856 66.408 260.119 66.7873 260.24 67.2199C264.34 87.0199 274.24 101.22 297.5 120.6C297.681 120.738 297.83 120.914 297.937 121.114C298.045 121.315 298.108 121.537 298.124 121.764C298.139 121.991 298.105 122.219 298.025 122.432C297.945 122.645 297.821 122.839 297.66 123Z" fill="black"/>
<path d="M169.78 44.7603C169.784 45.3624 169.609 45.9521 169.277 46.4546C168.946 46.9572 168.472 47.3499 167.917 47.5831C167.362 47.8163 166.75 47.8793 166.159 47.7643C165.568 47.6493 165.025 47.3613 164.598 46.937C164.17 46.5126 163.879 45.971 163.76 45.3808C163.641 44.7905 163.7 44.1783 163.93 43.6216C164.159 43.0649 164.549 42.589 165.049 42.254C165.549 41.9191 166.138 41.7403 166.74 41.7403C167.138 41.7377 167.533 41.8138 167.902 41.9644C168.271 42.115 168.606 42.337 168.888 42.6177C169.171 42.8984 169.395 43.2322 169.548 43.6C169.701 43.9677 169.78 44.362 169.78 44.7603Z" fill="black"/>
<path d="M19.96 47.0196C19.3029 46.8884 18.679 46.6259 18.1257 46.2479C17.5724 45.8699 17.1011 45.3841 16.74 44.8196C15.1812 42.2862 14.3958 39.353 14.48 36.3796C14.48 28.8396 10.48 27.8996 7.58 26.1596C7.52845 26.1275 7.46785 26.1129 7.40733 26.1183C7.34681 26.1236 7.28966 26.1484 7.24451 26.1891C7.19935 26.2297 7.16864 26.2839 7.157 26.3436C7.14537 26.4032 7.15344 26.465 7.18 26.5196C9.48 31.6196 11.02 38.7796 10.74 56.9196C10.36 80.5596 4 93.0396 4 93.0396C12 96.0996 16.2 76.0596 16.58 67.2796C16.6381 64.6763 17.0485 62.0928 17.8 59.5996C18.006 58.9592 18.3651 58.3786 18.846 57.9082C19.3269 57.4377 19.9152 57.0915 20.56 56.8996C21.6345 56.6514 22.5804 56.0174 23.2183 55.1178C23.8561 54.2182 24.1414 53.1157 24.02 52.0196C24.0658 50.8353 23.6791 49.6748 22.932 48.7547C22.1849 47.8346 21.1285 47.2179 19.96 47.0196ZM18.46 55.2796C17.8215 55.2836 17.1962 55.0976 16.6636 54.7453C16.131 54.393 15.7152 53.8903 15.469 53.3011C15.2228 52.7119 15.1574 52.0628 15.281 51.4364C15.4046 50.8099 15.7117 50.2343 16.1632 49.7828C16.6147 49.3313 17.1903 49.0242 17.8168 48.9006C18.4432 48.777 19.0923 48.8424 19.6815 49.0886C20.2707 49.3348 20.7734 49.7506 21.1257 50.2832C21.478 50.8158 21.664 51.4411 21.66 52.0796C21.6548 52.9267 21.3159 53.7376 20.7169 54.3366C20.118 54.9355 19.3071 55.2744 18.46 55.2796Z" fill="black"/>
<path d="M18.46 53.3199C19.1228 53.3199 19.66 52.7827 19.66 52.1199C19.66 51.4572 19.1228 50.9199 18.46 50.9199C17.7973 50.9199 17.26 51.4572 17.26 52.1199C17.26 52.7827 17.7973 53.3199 18.46 53.3199Z" fill="black"/>
<path d="M166.76 37C165.23 37.0118 163.738 37.4731 162.468 38.3266C161.199 39.18 160.208 40.3879 159.62 41.8L24.92 47.28C25.9859 48.6155 26.5707 50.2713 26.58 51.98C26.5743 53.0262 26.3566 54.0603 25.94 55.02L154.46 49.28L160.46 49.02C161.165 50.0567 162.114 50.9049 163.222 51.4906C164.331 52.0763 165.566 52.3817 166.82 52.38C168.863 52.3643 170.817 51.5459 172.262 50.1015C173.706 48.6571 174.524 46.7026 174.54 44.66C174.455 42.6352 173.604 40.7183 172.16 39.2965C170.716 37.8747 168.786 37.0539 166.76 37ZM166.76 49.78C165.768 49.776 164.799 49.4783 163.976 48.9243C163.154 48.3703 162.513 47.5849 162.136 46.6673C161.76 45.7496 161.663 44.7409 161.859 43.7684C162.055 42.796 162.535 41.9034 163.237 41.2033C163.94 40.5032 164.835 40.0271 165.808 39.835C166.781 39.643 167.79 39.7435 168.706 40.1241C169.622 40.5046 170.405 41.148 170.955 41.9731C171.506 42.7982 171.8 43.768 171.8 44.76C171.8 45.4226 171.669 46.0787 171.414 46.6904C171.159 47.302 170.786 47.8572 170.316 48.3239C169.845 48.7906 169.287 49.1595 168.673 49.4094C168.06 49.6593 167.403 49.7853 166.74 49.78H166.76Z" fill="black"/>
</svg>
