<svg width="512" height="512" viewBox="0 0 512 512" fill="none" xmlns="http://www.w3.org/2000/svg">
<path d="M241.46 210.399L244.4 208.919C245.09 208.578 245.85 208.4 246.62 208.399H284.84V203.359H246.92C246.152 203.357 245.399 203.565 244.74 203.959L243.76 204.559L241.58 205.739L241.46 210.399Z" fill="black"/>
<path d="M410.54 197.08H387.14V204.38H410.54V197.08Z" fill="black"/>
<path d="M286.26 197.141V208.501H294.92V204.901L289.3 200.481C288.745 200.125 288.287 199.637 287.966 199.062C287.645 198.486 287.471 197.84 287.46 197.181L286.26 197.141Z" fill="black"/>
<path d="M289.68 193.279H289.78C290.461 192.885 291.234 192.678 292.02 192.679H304.36L307.84 189.519L307.58 189.219C307.047 188.689 306.332 188.382 305.58 188.359H291.58C290.811 188.37 290.076 188.681 289.534 189.227C288.992 189.773 288.685 190.51 288.68 191.279C288.657 191.671 288.737 192.062 288.913 192.413C289.088 192.764 289.353 193.063 289.68 193.279Z" fill="black"/>
<path d="M291.26 194.161C290.732 194.313 290.251 194.595 289.86 194.981C289.312 195.509 288.977 196.221 288.92 196.981C288.932 197.441 289.055 197.893 289.277 198.296C289.5 198.7 289.817 199.045 290.2 199.301L297.06 204.781H310.02V197.281L305.8 200.561C304.93 201.275 303.845 201.677 302.72 201.701C302.266 201.719 301.813 201.633 301.397 201.449C300.981 201.265 300.613 200.989 300.32 200.641C299.892 200.117 299.665 199.457 299.68 198.781C299.715 198.122 299.884 197.477 300.176 196.886C300.468 196.294 300.878 195.769 301.38 195.341L302.78 194.061H292.02C291.764 194.063 291.508 194.097 291.26 194.161Z" fill="black"/>
<path d="M376.54 194.32H372.78V204.88H376.54V194.32Z" fill="black"/>
<path d="M385.72 197.08H377.96V204.38H385.72V197.08Z" fill="black"/>
<path d="M385.72 209.9H377.96V223.62H385.72V209.9Z" fill="black"/>
<path d="M313.24 194.74L311.24 196.24C311.32 196.547 311.361 196.863 311.36 197.18V204.9H319.16V192.9H314.72C314.345 193.577 313.842 194.175 313.24 194.66V194.74Z" fill="black"/>
<path d="M302.32 196.359C301.967 196.658 301.677 197.024 301.467 197.436C301.257 197.848 301.133 198.298 301.1 198.759C301.092 199.107 301.205 199.446 301.42 199.719C302.1 200.539 303.66 200.419 304.92 199.419L312.36 193.639C313.141 193.048 313.67 192.184 313.84 191.219C313.881 190.791 313.759 190.363 313.5 190.019L313.04 189.519C312.869 189.351 312.666 189.22 312.442 189.134C312.219 189.048 311.979 189.009 311.74 189.019C311.018 189.044 310.32 189.288 309.74 189.719C309.585 189.821 309.438 189.935 309.3 190.059L302.32 196.359ZM311.16 190.219C311.445 190.219 311.723 190.304 311.96 190.462C312.197 190.62 312.381 190.845 312.49 191.108C312.599 191.371 312.628 191.661 312.572 191.94C312.517 192.22 312.38 192.476 312.178 192.678C311.977 192.879 311.72 193.016 311.441 193.072C311.162 193.127 310.872 193.099 310.609 192.99C310.346 192.881 310.121 192.696 309.963 192.459C309.804 192.223 309.72 191.944 309.72 191.659C309.725 191.279 309.879 190.916 310.147 190.647C310.416 190.378 310.78 190.224 311.16 190.219Z" fill="black"/>
<path d="M240.04 200.18L162.6 200.36L153.18 210.58H184.66L196.1 210.38L200.48 206.38C201.716 205.222 203.346 204.578 205.04 204.58H240.14L240.04 200.18Z" fill="black"/>
<path d="M284.92 197.141H246.92C246.174 197.141 245.442 197.342 244.8 197.721L241.6 199.581V204.201L244.04 202.841C244.916 202.316 245.919 202.04 246.94 202.041H284.94L284.92 197.141Z" fill="black"/>
<path d="M240.04 210.699V205.859H204.92C203.587 205.859 202.302 206.358 201.32 207.259L198.02 210.339L232.94 209.699C233.402 209.683 233.853 209.847 234.196 210.157C234.54 210.466 234.749 210.898 234.78 211.359C234.799 211.465 234.799 211.574 234.78 211.679L240.04 210.699Z" fill="black"/>
<path d="M186.26 212.141C185.961 212.11 185.139 212.07 184.84 212.101C183.72 212.206 182.679 212.726 181.922 213.558C181.164 214.391 180.745 215.475 180.745 216.601C180.745 217.726 181.164 218.811 181.922 219.643C182.679 220.475 183.72 220.995 184.84 221.101H185.36C186.49 221.114 187.584 220.704 188.427 219.951C189.27 219.199 189.8 218.157 189.913 217.033C190.025 215.908 189.713 214.782 189.037 213.877C188.361 212.971 187.37 212.352 186.26 212.141Z" fill="black"/>
<path d="M320.66 204.9H323.46C323.61 204.525 323.869 204.204 324.205 203.979C324.54 203.754 324.936 203.636 325.34 203.64H338.44C338.841 203.64 339.232 203.76 339.564 203.985C339.895 204.209 340.152 204.528 340.3 204.9H350.4C350.548 204.528 350.805 204.209 351.136 203.985C351.468 203.76 351.859 203.64 352.26 203.64H365.38C365.781 203.64 366.172 203.76 366.504 203.985C366.835 204.209 367.092 204.528 367.24 204.9H371.36V194.1C371.36 193.803 371.242 193.519 371.032 193.309C370.822 193.098 370.537 192.98 370.24 192.98H320.66V204.9Z" fill="black"/>
<path d="M228.58 212.839L233.1 211.959C233.152 211.952 233.202 211.934 233.247 211.907C233.292 211.879 233.331 211.843 233.361 211.8C233.391 211.756 233.412 211.707 233.422 211.656C233.432 211.604 233.432 211.551 233.42 211.499C233.41 211.395 233.361 211.298 233.284 211.228C233.206 211.157 233.105 211.119 233 211.119L189 211.919C189.689 212.473 190.248 213.173 190.635 213.968C191.022 214.764 191.229 215.635 191.24 216.519C191.246 217.753 190.861 218.957 190.14 219.959L228.58 212.839Z" fill="black"/>
<path d="M167.82 245.42L156.92 278.62C156.843 278.84 156.857 279.082 156.958 279.292C157.06 279.502 157.24 279.663 157.46 279.74L167.98 282.9C169.98 271.7 177.3 249.8 178.78 245.44L168.28 245.14C168.182 245.121 168.081 245.139 167.996 245.191C167.911 245.243 167.848 245.325 167.82 245.42Z" fill="black"/>
<path d="M297.8 230.401C298.277 231.083 298.912 231.641 299.649 232.027C300.387 232.414 301.207 232.617 302.04 232.621H302.48C305.473 232.611 308.391 231.682 310.84 229.961L315.02 227.021C316.42 226.02 318.099 225.481 319.82 225.481L347.58 225.141C350.519 225.119 353.446 225.503 356.28 226.281L358.28 226.841C359.505 227.177 360.77 227.345 362.04 227.341H369.44C369.97 227.341 370.479 227.13 370.854 226.755C371.229 226.38 371.44 225.871 371.44 225.341V207.641H367.34C367.204 208.031 366.95 208.369 366.613 208.609C366.276 208.849 365.873 208.979 365.46 208.981H352.34C351.927 208.979 351.524 208.849 351.187 208.609C350.85 208.369 350.596 208.031 350.46 207.641H340.46C340.324 208.031 340.07 208.369 339.733 208.609C339.396 208.849 338.993 208.979 338.58 208.981H325.48C325.046 209.005 324.617 208.887 324.256 208.645C323.895 208.403 323.623 208.051 323.48 207.641H297.8V230.401Z" fill="black"/>
<path d="M201.12 241.279C200.493 240.206 200.143 238.993 200.101 237.75C200.059 236.507 200.327 235.273 200.88 234.159C201.867 232.833 203.103 231.712 204.52 230.859H194.22C194.352 234.069 195.092 237.225 196.4 240.159C196.969 241.587 197.993 242.787 199.312 243.575C200.631 244.363 202.173 244.695 203.7 244.519C203.725 244.506 203.746 244.485 203.76 244.461C203.775 244.436 203.783 244.408 203.783 244.379C203.783 244.351 203.775 244.323 203.76 244.298C203.746 244.273 203.725 244.253 203.7 244.239C202.633 243.454 201.752 242.444 201.12 241.279Z" fill="black"/>
<path d="M416.8 211.4H387.14V223.62H416.8V211.4Z" fill="black"/>
<path d="M376.54 207.721H372.78V225.801H376.54V207.721Z" fill="black"/>
<path d="M483.72 226.12V209.82H467.3V225.82C467.394 225.937 467.513 226.032 467.648 226.097C467.782 226.163 467.93 226.198 468.08 226.2L483.72 226.12Z" fill="black"/>
<path d="M492.74 211.461V221.161H507.18C499.9 219.161 498.54 211.481 498.54 211.481L492.74 211.461Z" fill="black"/>
<path d="M439.2 223.641H465.88V212.141H439.5H439.2V223.641Z" fill="black"/>
<path d="M491.32 209.779H486.26V209.799H485.14V226.099H491.32V209.779Z" fill="black"/>
<path d="M419.86 206.72V209.08H431.06C429.954 208.355 429.106 207.297 428.64 206.06L426.64 200.84C425.98 199.701 425.032 198.755 423.891 198.099C422.75 197.442 421.456 197.098 420.14 197.1H411.92V204.4H417.5C417.808 204.394 418.114 204.45 418.4 204.565C418.686 204.679 418.947 204.849 419.166 205.065C419.386 205.281 419.561 205.538 419.68 205.822C419.799 206.107 419.86 206.412 419.86 206.72Z" fill="black"/>
<path d="M437.8 210.48H418.22V225.48H437.8V210.48Z" fill="black"/>
<path d="M473.08 202.54L470.1 207.98C469.936 208.261 469.742 208.522 469.52 208.76H475.34C475.15 208.521 475.044 208.225 475.04 207.92V204.68C475.04 204.298 475.192 203.932 475.462 203.662C475.732 203.392 476.098 203.24 476.48 203.24H479.7C480.082 203.24 480.448 203.392 480.718 203.662C480.988 203.932 481.14 204.298 481.14 204.68V207.92C481.136 208.225 481.03 208.521 480.84 208.76H484.44V187H475.2V194.28C475.193 197.167 474.464 200.006 473.08 202.54Z" fill="black"/>
<path d="M159.66 226.92L153.14 227.18V232H157.4V234C157.397 234.824 157.56 235.64 157.88 236.4L159.88 233.4C161.044 231.725 162.744 230.498 164.7 229.92C164.388 229.881 164.08 229.814 163.78 229.72C162.205 229.125 160.793 228.166 159.66 226.92Z" fill="black"/>
<path d="M153.14 216.239L158.62 216.079C159.726 214.296 161.314 212.86 163.2 211.939H153.56C153.08 211.939 153.14 212.499 153.14 213.059V216.239Z" fill="black"/>
<path d="M246.64 209.82C245.854 209.818 245.08 210.003 244.38 210.36L241.5 211.84L216.52 216.58L186.92 222.3C186.439 222.397 185.951 222.457 185.46 222.48C183.869 222.48 182.343 221.848 181.217 220.723C180.092 219.598 179.46 218.072 179.46 216.48C179.447 215.633 179.619 214.793 179.965 214.019C180.31 213.245 180.821 212.556 181.46 212H170.46C172.15 212.72 173.595 213.915 174.619 215.44C175.643 216.965 176.202 218.755 176.227 220.592C176.253 222.429 175.744 224.234 174.762 225.787C173.781 227.34 172.37 228.574 170.7 229.34L170.14 229.58H186.92C187.108 229.58 187.294 229.618 187.468 229.69C187.642 229.763 187.799 229.869 187.931 230.003C188.063 230.137 188.168 230.296 188.238 230.471C188.308 230.645 188.343 230.832 188.34 231.02V246.22C188.346 246.325 188.387 246.425 188.456 246.504C188.524 246.584 188.617 246.639 188.72 246.66C189.104 246.782 189.463 246.972 189.78 247.22C190.48 247.7 191.54 248.46 192.46 249.22C193.622 250.065 195.023 250.521 196.46 250.52H211.7C213.391 250.723 215.105 250.439 216.64 249.7C217.717 248.933 218.528 247.85 218.96 246.6C219.428 245.318 219.672 243.965 219.68 242.6L219.88 231.32C219.895 230.701 220.145 230.11 220.579 229.668C221.014 229.226 221.601 228.966 222.22 228.94L294.92 226.48V209.94L246.64 209.82ZM196.92 222.62C197.474 222.62 198.006 222.841 198.398 223.232C198.79 223.624 199.01 224.156 199.01 224.71C199.01 225.265 198.79 225.796 198.398 226.188C198.006 226.58 197.474 226.8 196.92 226.8C196.366 226.8 195.834 226.58 195.442 226.188C195.05 225.796 194.83 225.265 194.83 224.71C194.83 224.156 195.05 223.624 195.442 223.232C195.834 222.841 196.366 222.62 196.92 222.62ZM217.88 243.12C217.62 245.64 215.88 248.38 213.76 248.38L196.82 248.56C195.345 248.458 193.942 247.883 192.82 246.92L191.02 245.12C190.774 244.877 190.578 244.588 190.444 244.268C190.31 243.949 190.241 243.607 190.24 243.26L190.38 230.96C190.38 230.568 190.536 230.191 190.813 229.914C191.091 229.636 191.467 229.48 191.86 229.48H216.66C216.839 229.48 217.016 229.515 217.18 229.583C217.345 229.652 217.495 229.753 217.62 229.88C217.865 230.132 218.001 230.469 218 230.82L217.88 243.12ZM252.24 225.44H243.12C242.235 225.373 241.408 224.975 240.804 224.324C240.201 223.673 239.865 222.818 239.865 221.93C239.865 221.043 240.201 220.188 240.804 219.537C241.408 218.886 242.235 218.487 243.12 218.42H252.18C252.663 218.384 253.149 218.448 253.606 218.607C254.064 218.767 254.483 219.02 254.839 219.349C255.194 219.679 255.477 220.078 255.671 220.522C255.865 220.966 255.965 221.446 255.965 221.93C255.965 222.415 255.865 222.894 255.671 223.338C255.477 223.783 255.194 224.182 254.839 224.511C254.483 224.841 254.064 225.093 253.606 225.253C253.149 225.413 252.663 225.477 252.18 225.44H252.24Z" fill="black"/>
<path d="M169.78 220.76C169.784 221.362 169.609 221.952 169.277 222.455C168.946 222.957 168.472 223.35 167.917 223.583C167.362 223.816 166.75 223.879 166.159 223.764C165.568 223.649 165.025 223.361 164.598 222.937C164.17 222.513 163.879 221.971 163.76 221.381C163.641 220.791 163.7 220.178 163.93 219.622C164.159 219.065 164.549 218.589 165.049 218.254C165.549 217.919 166.138 217.74 166.74 217.74C167.138 217.738 167.533 217.814 167.902 217.964C168.271 218.115 168.606 218.337 168.888 218.618C169.171 218.898 169.395 219.232 169.548 219.6C169.701 219.968 169.78 220.362 169.78 220.76Z" fill="black"/>
<path d="M186.92 232.279L167.32 232.399C166.326 232.397 165.346 232.636 164.465 233.096C163.583 233.555 162.827 234.222 162.26 235.039L159.58 238.879C161.262 240.425 162.428 242.449 162.92 244.679C162.92 246.979 156.1 266.839 152.54 276.959C152.004 278.525 152.102 280.238 152.812 281.733C153.522 283.228 154.788 284.386 156.34 284.959L167.92 289.279C168.755 289.585 169.649 289.693 170.533 289.594C171.417 289.495 172.265 289.192 173.012 288.709C173.758 288.227 174.383 287.577 174.835 286.812C175.288 286.046 175.557 285.186 175.62 284.299C175.78 282.159 175.22 278.199 175.22 276.439C175.22 271.479 178.8 268.599 178.8 265.539C179.275 260.464 180.629 255.511 182.8 250.899C183.769 249.572 184.96 248.422 186.32 247.499C186.546 247.338 186.729 247.125 186.854 246.878C186.98 246.63 187.043 246.356 187.04 246.079L186.92 232.279ZM180.26 245.279C179.92 246.119 171.5 271.279 169.24 283.279C169.149 283.677 168.905 284.022 168.56 284.239C168.352 284.374 168.108 284.444 167.86 284.439C167.728 284.46 167.593 284.46 167.46 284.439L156.92 281.079C156.632 280.986 156.366 280.837 156.135 280.641C155.905 280.445 155.716 280.206 155.579 279.936C155.441 279.667 155.358 279.373 155.334 279.072C155.311 278.77 155.346 278.467 155.44 278.179L166.46 244.959C166.584 244.6 166.816 244.289 167.123 244.067C167.431 243.845 167.8 243.723 168.18 243.719L179.46 244.039C179.599 244.048 179.735 244.089 179.856 244.159C179.977 244.228 180.081 244.324 180.16 244.439L180.36 244.759L180.26 245.279Z" fill="black"/>
<path d="M243.14 224.02H252.2C252.754 224.02 253.286 223.8 253.678 223.408C254.07 223.016 254.29 222.484 254.29 221.93C254.29 221.376 254.07 220.844 253.678 220.452C253.286 220.06 252.754 219.84 252.2 219.84H243.14C242.586 219.84 242.054 220.06 241.662 220.452C241.27 220.844 241.05 221.376 241.05 221.93C241.05 222.484 241.27 223.016 241.662 223.408C242.054 223.8 242.586 224.02 243.14 224.02Z" fill="black"/>
<path d="M163.9 198.94L240.04 198.76L244.04 196.5C244.898 195.986 245.88 195.716 246.88 195.72H287.6C287.681 195.154 287.974 194.639 288.42 194.28H237.42C237.134 194.285 236.851 194.229 236.588 194.115C236.326 194.001 236.091 193.833 235.9 193.62L235.34 193.04C235.137 192.832 234.894 192.667 234.626 192.554C234.359 192.441 234.071 192.383 233.78 192.383C233.489 192.383 233.202 192.441 232.934 192.554C232.666 192.667 232.423 192.832 232.22 193.04L231.68 193.6C231.484 193.818 231.243 193.99 230.973 194.104C230.704 194.218 230.412 194.271 230.12 194.26H213.34C213.049 194.262 212.76 194.205 212.492 194.091C212.224 193.978 211.981 193.811 211.78 193.6L211.22 193.04C211.02 192.827 210.778 192.657 210.51 192.541C210.242 192.425 209.952 192.365 209.66 192.365C209.368 192.365 209.078 192.425 208.81 192.541C208.542 192.657 208.3 192.827 208.1 193.04L207.56 193.6C207.357 193.809 207.115 193.975 206.847 194.088C206.579 194.201 206.291 194.26 206 194.26H189.2C188.911 194.268 188.623 194.213 188.358 194.099C188.092 193.985 187.854 193.815 187.66 193.6L187.08 193.02C186.88 192.813 186.641 192.649 186.377 192.537C186.112 192.424 185.827 192.366 185.54 192.366C185.253 192.366 184.968 192.424 184.703 192.537C184.439 192.649 184.2 192.813 184 193.02L183.34 193.68C182.935 194.079 182.389 194.302 181.82 194.3H173.04C170.84 194.3 168.48 194.16 167.04 195.68L163.9 198.94Z" fill="black"/>
<path d="M258.92 243.441C258.889 243.321 258.819 243.215 258.722 243.139C258.624 243.063 258.504 243.021 258.38 243.021C258.289 243.015 258.198 243.029 258.112 243.06C258.026 243.091 257.947 243.139 257.88 243.201C257.831 243.254 257.795 243.318 257.774 243.387C257.753 243.456 257.749 243.529 257.76 243.601C261.76 263.821 274.7 282.541 295.86 298.241C295.97 298.339 296.112 298.393 296.26 298.393C296.408 298.393 296.55 298.339 296.66 298.241C296.71 298.199 296.751 298.147 296.779 298.089C296.806 298.03 296.821 297.966 296.821 297.901C296.821 297.836 296.806 297.771 296.779 297.713C296.751 297.654 296.71 297.602 296.66 297.561C272.92 278.021 262.92 263.541 258.92 243.441Z" fill="black"/>
<path d="M251.06 243.76C251.025 243.644 250.954 243.542 250.857 243.47C250.759 243.398 250.641 243.359 250.52 243.36C250.331 243.355 250.146 243.419 250 243.54C249.951 243.593 249.915 243.657 249.894 243.726C249.873 243.795 249.869 243.868 249.88 243.94C256.34 277.02 290.16 302.48 291.58 303.54C291.689 303.633 291.827 303.684 291.97 303.684C292.113 303.684 292.251 303.633 292.36 303.54C292.41 303.498 292.451 303.447 292.478 303.388C292.506 303.329 292.521 303.265 292.521 303.2C292.521 303.135 292.506 303.07 292.478 303.012C292.451 302.953 292.41 302.901 292.36 302.86C268.92 283.4 255.2 263.9 251.06 243.76Z" fill="black"/>
<path d="M242.38 244.02C242.357 243.9 242.292 243.792 242.196 243.716C242.101 243.639 241.982 243.598 241.86 243.6C241.764 243.596 241.669 243.612 241.579 243.646C241.49 243.681 241.408 243.733 241.34 243.8C241.29 243.849 241.253 243.909 241.232 243.975C241.211 244.041 241.207 244.112 241.22 244.18C247.02 273.9 279.22 303.06 287.22 309.04C287.329 309.133 287.467 309.184 287.61 309.184C287.753 309.184 287.891 309.133 288 309.04C288.047 308.997 288.085 308.945 288.111 308.886C288.137 308.827 288.15 308.764 288.15 308.7C288.15 308.636 288.137 308.573 288.111 308.514C288.085 308.456 288.047 308.403 288 308.36C264.1 288.54 246.52 264.02 242.38 244.02Z" fill="black"/>
<path d="M264.56 229.92L229.68 231.42C238.34 287.88 283.68 319.8 290.98 324C291.264 324.162 291.599 324.211 291.918 324.137C292.237 324.063 292.516 323.871 292.7 323.6L310.7 297.98C310.798 297.836 310.866 297.674 310.901 297.503C310.936 297.332 310.937 297.156 310.903 296.985C310.87 296.814 310.803 296.651 310.706 296.506C310.61 296.361 310.485 296.237 310.34 296.14C272.92 270.56 265.72 239.28 264.56 229.92ZM289.08 309.78C288.675 310.179 288.129 310.401 287.56 310.4C287.109 310.399 286.669 310.259 286.3 310C278.18 304 245.7 274.5 239.82 244.4C239.771 244.145 239.786 243.883 239.863 243.635C239.939 243.387 240.076 243.162 240.26 242.98C240.455 242.775 240.691 242.614 240.953 242.507C241.215 242.4 241.497 242.35 241.78 242.36C242.224 242.341 242.661 242.47 243.023 242.727C243.385 242.984 243.652 243.355 243.78 243.78C247.78 263.54 265.3 287.78 288.92 307.38C289.101 307.518 289.25 307.694 289.357 307.894C289.465 308.095 289.528 308.317 289.544 308.544C289.559 308.771 289.525 308.999 289.445 309.212C289.365 309.425 289.241 309.619 289.08 309.78ZM293.44 304.3C293.074 304.648 292.599 304.858 292.096 304.894C291.592 304.93 291.092 304.791 290.68 304.5C289.24 303.44 255.04 277.7 248.48 244.16C248.438 243.905 248.456 243.644 248.532 243.398C248.609 243.151 248.741 242.926 248.92 242.74C249.12 242.535 249.36 242.372 249.624 242.262C249.889 242.152 250.173 242.097 250.46 242.1C250.906 242.082 251.346 242.214 251.708 242.475C252.071 242.736 252.335 243.111 252.46 243.54C256.46 263.4 270.12 282.68 293.3 301.88C293.48 302.022 293.628 302.2 293.733 302.403C293.839 302.606 293.901 302.83 293.914 303.058C293.927 303.287 293.892 303.516 293.81 303.73C293.729 303.944 293.602 304.138 293.44 304.3ZM297.66 299C297.467 299.202 297.234 299.362 296.976 299.469C296.717 299.576 296.439 299.627 296.16 299.62C295.707 299.633 295.263 299.492 294.9 299.22C273.44 283.32 260.28 264.32 256.28 243.82C256.234 243.567 256.248 243.306 256.321 243.06C256.394 242.813 256.524 242.587 256.7 242.4C256.9 242.195 257.14 242.032 257.404 241.922C257.669 241.812 257.953 241.757 258.24 241.76C258.689 241.743 259.13 241.878 259.493 242.143C259.856 242.408 260.119 242.787 260.24 243.22C264.34 263.02 274.24 277.22 297.5 296.6C297.681 296.738 297.83 296.914 297.937 297.114C298.045 297.315 298.108 297.537 298.124 297.764C298.139 297.991 298.105 298.219 298.025 298.432C297.945 298.645 297.821 298.839 297.66 299Z" fill="black"/>
<path d="M169.78 220.76C169.784 221.362 169.609 221.952 169.277 222.455C168.946 222.957 168.472 223.35 167.917 223.583C167.362 223.816 166.75 223.879 166.159 223.764C165.568 223.649 165.025 223.361 164.598 222.937C164.17 222.513 163.879 221.971 163.76 221.381C163.641 220.791 163.7 220.178 163.93 219.622C164.159 219.065 164.549 218.589 165.049 218.254C165.549 217.919 166.138 217.74 166.74 217.74C167.138 217.738 167.533 217.814 167.902 217.964C168.271 218.115 168.606 218.337 168.888 218.618C169.171 218.898 169.395 219.232 169.548 219.6C169.701 219.968 169.78 220.362 169.78 220.76Z" fill="black"/>
<path d="M19.96 223.02C19.3029 222.888 18.679 222.626 18.1257 222.248C17.5724 221.87 17.1011 221.384 16.74 220.82C15.1812 218.286 14.3958 215.353 14.48 212.38C14.48 204.84 10.48 203.9 7.58 202.16C7.52845 202.127 7.46785 202.113 7.40733 202.118C7.34681 202.124 7.28966 202.148 7.24451 202.189C7.19935 202.23 7.16864 202.284 7.157 202.344C7.14537 202.403 7.15344 202.465 7.18 202.52C9.48 207.62 11.02 214.78 10.74 232.92C10.36 256.56 4 269.04 4 269.04C12 272.1 16.2 252.06 16.58 243.28C16.6381 240.676 17.0485 238.093 17.8 235.6C18.006 234.959 18.3651 234.379 18.846 233.908C19.3269 233.438 19.9152 233.092 20.56 232.9C21.6345 232.651 22.5804 232.017 23.2183 231.118C23.8561 230.218 24.1414 229.116 24.02 228.02C24.0658 226.835 23.6791 225.675 22.932 224.755C22.1849 223.835 21.1285 223.218 19.96 223.02ZM18.46 231.28C17.8215 231.284 17.1962 231.098 16.6636 230.745C16.131 230.393 15.7152 229.89 15.469 229.301C15.2228 228.712 15.1574 228.063 15.281 227.436C15.4046 226.81 15.7117 226.234 16.1632 225.783C16.6147 225.331 17.1903 225.024 17.8168 224.901C18.4432 224.777 19.0923 224.842 19.6815 225.089C20.2707 225.335 20.7734 225.751 21.1257 226.283C21.478 226.816 21.664 227.441 21.66 228.08C21.6548 228.927 21.3159 229.738 20.7169 230.337C20.118 230.936 19.3071 231.274 18.46 231.28Z" fill="black"/>
<path d="M18.46 229.32C19.1228 229.32 19.66 228.783 19.66 228.12C19.66 227.457 19.1228 226.92 18.46 226.92C17.7973 226.92 17.26 227.457 17.26 228.12C17.26 228.783 17.7973 229.32 18.46 229.32Z" fill="black"/>
<path d="M166.76 213C165.23 213.012 163.738 213.473 162.468 214.327C161.199 215.18 160.208 216.388 159.62 217.8L24.92 223.28C25.9859 224.616 26.5707 226.271 26.58 227.98C26.5743 229.026 26.3566 230.06 25.94 231.02L154.46 225.28L160.46 225.02C161.165 226.057 162.114 226.905 163.222 227.491C164.331 228.076 165.566 228.382 166.82 228.38C168.863 228.364 170.817 227.546 172.262 226.102C173.706 224.657 174.524 222.703 174.54 220.66C174.455 218.635 173.604 216.718 172.16 215.297C170.716 213.875 168.786 213.054 166.76 213ZM166.76 225.78C165.768 225.776 164.799 225.478 163.976 224.924C163.154 224.37 162.513 223.585 162.136 222.667C161.76 221.75 161.663 220.741 161.859 219.768C162.055 218.796 162.535 217.903 163.237 217.203C163.94 216.503 164.835 216.027 165.808 215.835C166.781 215.643 167.79 215.744 168.706 216.124C169.622 216.505 170.405 217.148 170.955 217.973C171.506 218.798 171.8 219.768 171.8 220.76C171.8 221.423 171.669 222.079 171.414 222.69C171.159 223.302 170.786 223.857 170.316 224.324C169.845 224.791 169.287 225.159 168.673 225.409C168.06 225.659 167.403 225.785 166.74 225.78H166.76Z" fill="black"/>
</svg>
