<svg width="512" height="512" viewBox="0 0 512 512" fill="none" xmlns="http://www.w3.org/2000/svg">
<path d="M221.346 224.534L223.152 221.783C223.58 221.142 224.149 220.608 224.815 220.222L257.915 201.112L255.395 196.747L222.555 215.708C221.889 216.09 221.34 216.646 220.967 217.317L220.418 218.327L219.12 220.439L221.346 224.534Z" fill="black"/>
<path d="M361.114 128.46L340.849 140.16L344.499 146.482L364.764 134.782L361.114 128.46Z" fill="black"/>
<path d="M253.514 190.652L259.194 200.49L266.694 196.16L264.894 193.043L257.817 192.025C257.159 191.994 256.518 191.801 255.952 191.463C255.386 191.125 254.913 190.652 254.574 190.087L253.514 190.652Z" fill="black"/>
<path d="M254.546 185.599L254.633 185.549C255.025 184.867 255.591 184.302 256.273 183.909L266.959 177.739L268.393 173.262L268.018 173.133C267.291 172.94 266.518 173.031 265.856 173.388L253.732 180.388C253.071 180.782 252.59 181.419 252.394 182.163C252.197 182.907 252.3 183.698 252.68 184.367C252.856 184.718 253.121 185.016 253.448 185.232C253.776 185.448 254.154 185.575 254.546 185.599Z" fill="black"/>
<path d="M256.354 185.571C255.974 185.967 255.698 186.452 255.552 186.981C255.341 187.713 255.408 188.497 255.738 189.183C255.979 189.576 256.311 189.906 256.705 190.144C257.1 190.382 257.546 190.522 258.006 190.552L266.687 191.868L277.911 185.388L274.161 178.893L272.146 183.843C271.75 184.897 271.012 185.787 270.049 186.371C269.665 186.614 269.23 186.765 268.778 186.814C268.325 186.863 267.868 186.808 267.441 186.653C266.808 186.413 266.282 185.955 265.956 185.362C265.657 184.774 265.481 184.131 265.439 183.473C265.396 182.815 265.488 182.154 265.709 181.533L266.281 179.724L256.963 185.104C256.742 185.235 256.537 185.391 256.354 185.571Z" fill="black"/>
<path d="M330.289 143.069L327.033 144.949L332.313 154.094L335.569 152.214L330.289 143.069Z" fill="black"/>
<path d="M339.619 140.87L332.899 144.75L336.549 151.072L343.269 147.192L339.619 140.87Z" fill="black"/>
<path d="M346.029 151.972L339.309 155.852L346.169 167.733L352.889 163.853L346.029 151.972Z" fill="black"/>
<path d="M275.68 175.084L274.698 177.383C274.921 177.608 275.114 177.862 275.272 178.137L279.132 184.823L285.887 180.923L279.887 170.53L276.041 172.75C276.055 173.524 275.918 174.293 275.64 175.014L275.68 175.084Z" fill="black"/>
<path d="M267.033 181.945C266.876 182.38 266.808 182.842 266.832 183.304C266.857 183.766 266.974 184.218 267.176 184.634C267.343 184.938 267.611 185.176 267.933 185.305C268.932 185.675 270.223 184.791 270.814 183.295L274.368 174.57C274.749 173.667 274.774 172.654 274.439 171.734C274.26 171.342 273.941 171.032 273.545 170.865L272.897 170.662C272.665 170.601 272.423 170.589 272.186 170.626C271.949 170.664 271.723 170.75 271.521 170.879C270.908 171.261 270.426 171.822 270.139 172.485C270.055 172.651 269.985 172.823 269.928 172.999L267.033 181.945ZM271.618 172.208C271.865 172.065 272.148 171.999 272.433 172.018C272.717 172.037 272.989 172.139 273.215 172.312C273.441 172.486 273.61 172.722 273.702 172.992C273.794 173.262 273.803 173.552 273.729 173.828C273.656 174.103 273.502 174.35 273.288 174.538C273.074 174.725 272.809 174.845 272.526 174.883C272.244 174.92 271.957 174.872 271.702 174.746C271.446 174.62 271.234 174.422 271.091 174.175C270.906 173.843 270.857 173.452 270.955 173.084C271.054 172.717 271.292 172.402 271.618 172.208Z" fill="black"/>
<path d="M215.007 216.394L148.032 255.27L144.984 268.831L172.246 253.091L182.053 247.198L183.847 241.544C184.338 239.923 185.428 238.55 186.896 237.705L217.293 220.155L215.007 216.394Z" fill="black"/>
<path d="M252.354 191.322L219.445 210.322C218.799 210.696 218.266 211.235 217.899 211.885L216.058 215.096L218.368 219.097L219.801 216.699C220.298 215.806 221.027 215.066 221.912 214.556L254.821 195.556L252.354 191.322Z" fill="black"/>
<path d="M220.267 225.504L217.847 221.312L187.432 238.872C186.277 239.538 185.414 240.613 185.014 241.885L183.696 246.202L213.618 228.188C214.01 227.942 214.482 227.859 214.934 227.956C215.387 228.052 215.784 228.321 216.041 228.705C216.111 228.787 216.165 228.881 216.201 228.983L220.267 225.504Z" fill="black"/>
<path d="M174.412 253.642C174.137 253.765 173.406 254.141 173.162 254.317C172.245 254.969 171.603 255.939 171.364 257.039C171.124 258.138 171.303 259.287 171.865 260.262C172.428 261.236 173.334 261.966 174.406 262.308C175.478 262.65 176.639 262.58 177.662 262.111L178.112 261.851C179.098 261.298 179.84 260.396 180.194 259.323C180.547 258.249 180.485 257.083 180.021 256.052C179.557 255.022 178.723 254.203 177.685 253.757C176.647 253.311 175.479 253.27 174.412 253.642Z" fill="black"/>
<path d="M287.186 180.173L289.61 178.773C289.552 178.373 289.616 177.965 289.795 177.602C289.973 177.24 290.257 176.94 290.609 176.741L301.954 170.191C302.3 169.991 302.699 169.899 303.099 169.928C303.498 169.956 303.88 170.104 304.194 170.353L312.941 165.303C312.883 164.906 312.946 164.502 313.121 164.141C313.296 163.781 313.575 163.481 313.922 163.281L325.284 156.721C325.631 156.521 326.03 156.429 326.429 156.458C326.829 156.486 327.211 156.634 327.525 156.883L331.093 154.823L325.693 145.47C325.545 145.212 325.3 145.025 325.013 144.948C324.726 144.871 324.42 144.911 324.163 145.06L281.226 169.85L287.186 180.173Z" fill="black"/>
<path d="M211.412 233.088L214.886 230.066C214.928 230.034 214.963 229.993 214.988 229.947C215.013 229.901 215.028 229.85 215.033 229.797C215.037 229.745 215.031 229.692 215.014 229.642C214.997 229.592 214.969 229.547 214.934 229.508C214.873 229.422 214.782 229.363 214.68 229.341C214.577 229.319 214.47 229.336 214.38 229.389L176.675 252.081C177.549 252.217 178.382 252.544 179.115 253.039C179.848 253.534 180.463 254.185 180.915 254.945C181.537 256.011 181.806 257.246 181.682 258.474L211.412 233.088Z" fill="black"/>
<path d="M175.082 291.683L182.243 325.885C182.286 326.114 182.419 326.316 182.612 326.447C182.804 326.578 183.041 326.628 183.27 326.585L193.961 324.061C190.093 313.362 185.482 290.736 184.584 286.22L175.341 291.21C175.246 291.243 175.168 291.309 175.12 291.396C175.072 291.484 175.059 291.586 175.082 291.683Z" fill="black"/>
<path d="M280.138 213.685C280.893 214.038 281.721 214.204 282.553 214.169C283.385 214.135 284.197 213.901 284.92 213.488L285.301 213.268C287.889 211.763 289.951 209.5 291.211 206.784L293.361 202.148C294.074 200.581 295.258 199.276 296.748 198.415L320.619 184.24C323.153 182.752 325.88 181.621 328.723 180.877L330.735 180.362C331.964 180.041 333.144 179.554 334.242 178.915L340.65 175.215C341.11 174.95 341.445 174.513 341.582 174.001C341.719 173.489 341.648 172.943 341.382 172.483L332.532 157.155L328.982 159.205C329.059 159.611 329.008 160.031 328.836 160.407C328.665 160.783 328.381 161.097 328.024 161.305L316.661 167.865C316.302 168.07 315.889 168.159 315.477 168.12C315.066 168.08 314.676 167.914 314.363 167.645L305.703 172.645C305.78 173.051 305.729 173.471 305.558 173.847C305.386 174.223 305.102 174.537 304.745 174.745L293.4 181.295C293.036 181.533 292.605 181.646 292.172 181.617C291.739 181.588 291.326 181.419 290.998 181.135L268.758 193.975L280.138 213.685Z" fill="black"/>
<path d="M201.851 271.447C200.771 270.831 199.861 269.955 199.203 268.9C198.546 267.844 198.161 266.642 198.083 265.401C198.275 263.759 198.785 262.17 199.585 260.723L190.665 265.873C192.385 268.587 194.603 270.95 197.203 272.837C198.41 273.788 199.896 274.316 201.433 274.339C202.969 274.362 204.471 273.878 205.705 272.963C205.72 272.938 205.728 272.91 205.728 272.882C205.728 272.853 205.721 272.825 205.707 272.8C205.692 272.776 205.672 272.755 205.647 272.741C205.622 272.727 205.594 272.72 205.565 272.72C204.249 272.574 202.98 272.139 201.851 271.447Z" fill="black"/>
<path d="M373.695 137.731L348.009 152.561L354.119 163.143L379.805 148.313L373.695 137.731Z" fill="black"/>
<path d="M336.989 154.675L333.733 156.555L342.773 172.212L346.029 170.332L336.989 154.675Z" fill="black"/>
<path d="M439.01 117.02L430.86 102.903L416.64 111.113L424.64 124.97C424.779 125.024 424.929 125.046 425.079 125.036C425.229 125.025 425.374 124.982 425.505 124.909L439.01 117.02Z" fill="black"/>
<path d="M439.491 99.8125L444.341 108.213L456.847 100.993C449.542 102.901 444.524 96.9298 444.524 96.9298L439.491 99.8125Z" fill="black"/>
<path d="M399.214 137.131L422.32 123.791L416.57 113.832L393.724 127.022L393.464 127.172L399.214 137.131Z" fill="black"/>
<path d="M437.421 99.0682L433.039 101.598L433.049 101.616L432.079 102.176L440.229 116.292L445.581 113.202L437.421 99.0682Z" fill="black"/>
<path d="M374.005 132.148L375.185 134.192L384.885 128.592C383.564 128.518 382.302 128.025 381.279 127.187L376.937 123.666C375.796 123.01 374.502 122.665 373.186 122.667C371.87 122.669 370.577 123.017 369.438 123.677L362.319 127.787L365.969 134.109L370.802 131.319C371.066 131.16 371.359 131.056 371.664 131.012C371.968 130.968 372.279 130.985 372.577 131.062C372.875 131.139 373.155 131.275 373.401 131.461C373.646 131.648 373.851 131.881 374.005 132.148Z" fill="black"/>
<path d="M391.422 126.435L374.465 136.225L381.965 149.215L398.922 139.425L391.422 126.435Z" fill="black"/>
<path d="M418.005 101.918L418.144 108.119C418.143 108.444 418.105 108.768 418.032 109.085L423.072 106.175C422.788 106.063 422.549 105.86 422.393 105.597L420.773 102.792C420.582 102.461 420.53 102.068 420.629 101.699C420.728 101.33 420.969 101.015 421.3 100.824L424.088 99.2145C424.419 99.0235 424.812 98.9718 425.181 99.0706C425.55 99.1695 425.864 99.4108 426.055 99.7416L427.675 102.547C427.824 102.814 427.881 103.123 427.836 103.425L430.953 101.625L420.073 82.7802L412.071 87.4002L415.711 93.7049C417.148 96.2087 417.937 99.0321 418.005 101.918Z" fill="black"/>
<path d="M158.766 279.742L153.249 283.227L155.659 287.401L159.348 285.271L160.348 287.003C160.758 287.719 161.307 288.344 161.964 288.842L162.196 285.244C162.367 283.212 163.225 281.298 164.63 279.82C164.341 279.942 164.04 280.038 163.734 280.107C162.072 280.379 160.369 280.254 158.766 279.742Z" fill="black"/>
<path d="M147.779 273.752L152.445 270.873C152.511 268.775 153.168 266.739 154.341 264.998L145.993 269.818C145.577 270.058 145.909 270.513 146.189 270.998L147.779 273.752Z" fill="black"/>
<path d="M225.542 221.443C224.861 221.834 224.283 222.382 223.855 223.041L222.101 225.763L202.838 242.358L180.063 262.111C179.695 262.436 179.302 262.732 178.889 262.997C177.511 263.793 175.873 264.009 174.336 263.597C172.799 263.185 171.488 262.179 170.693 260.801C170.258 260.074 169.987 259.26 169.9 258.417C169.812 257.574 169.909 256.723 170.185 255.921L160.659 261.421C162.482 261.199 164.331 261.511 165.98 262.321C167.63 263.13 169.008 264.4 169.949 265.979C170.889 267.557 171.351 269.374 171.278 271.21C171.205 273.045 170.6 274.82 169.536 276.318L169.171 276.806L183.703 268.416C183.866 268.322 184.046 268.261 184.233 268.237C184.42 268.213 184.609 268.227 184.791 268.277C184.972 268.327 185.142 268.412 185.29 268.528C185.438 268.644 185.561 268.789 185.653 268.953L193.253 282.117C193.311 282.204 193.396 282.27 193.495 282.305C193.595 282.339 193.702 282.34 193.802 282.308C194.196 282.221 194.601 282.206 195 282.263C195.846 282.328 197.144 282.457 198.321 282.655C199.75 282.805 201.191 282.499 202.435 281.781L215.633 274.161C217.199 273.491 218.542 272.387 219.502 270.98C220.051 269.778 220.211 268.434 219.961 267.136C219.725 265.791 219.26 264.498 218.584 263.312L213.118 253.443C212.82 252.899 212.742 252.262 212.897 251.662C213.052 251.062 213.43 250.543 213.954 250.212L275.684 211.731L267.414 197.407L225.542 221.443ZM188.884 257.389C189.364 257.111 189.934 257.036 190.47 257.18C191.005 257.323 191.461 257.673 191.739 258.153C192.016 258.634 192.091 259.204 191.947 259.739C191.804 260.275 191.454 260.731 190.974 261.008C190.494 261.286 189.923 261.361 189.388 261.217C188.852 261.074 188.396 260.724 188.119 260.243C187.841 259.763 187.766 259.193 187.91 258.658C188.053 258.122 188.404 257.666 188.884 257.389ZM217.286 264.662C218.32 266.974 218.183 270.217 216.347 271.277L201.767 279.903C200.438 280.552 198.936 280.755 197.483 280.483L195.024 279.824C194.689 279.737 194.375 279.584 194.099 279.374C193.824 279.165 193.592 278.903 193.419 278.603L187.39 267.881C187.194 267.541 187.14 267.137 187.242 266.758C187.344 266.379 187.592 266.056 187.932 265.859L209.409 253.459C209.563 253.37 209.734 253.311 209.911 253.289C210.088 253.266 210.268 253.278 210.44 253.326C210.778 253.421 211.065 253.645 211.239 253.95L217.286 264.662ZM238.202 232.171L230.304 236.731C229.504 237.115 228.588 237.184 227.74 236.922C226.892 236.66 226.174 236.087 225.73 235.318C225.286 234.55 225.149 233.642 225.347 232.776C225.544 231.911 226.061 231.152 226.794 230.651L234.64 226.121C235.04 225.848 235.493 225.66 235.969 225.57C236.445 225.48 236.935 225.489 237.407 225.596C237.88 225.704 238.325 225.908 238.715 226.196C239.105 226.484 239.431 226.849 239.673 227.268C239.915 227.688 240.069 228.153 240.123 228.635C240.177 229.116 240.131 229.604 239.988 230.067C239.845 230.53 239.608 230.958 239.292 231.326C238.976 231.693 238.587 231.991 238.15 232.201L238.202 232.171Z" fill="black"/>
<path d="M164.45 269.347C164.754 269.866 164.898 270.465 164.862 271.066C164.826 271.667 164.612 272.243 164.248 272.723C163.884 273.202 163.385 273.563 162.816 273.759C162.247 273.955 161.632 273.977 161.05 273.823C160.468 273.669 159.945 273.346 159.546 272.894C159.148 272.443 158.893 271.883 158.814 271.286C158.734 270.689 158.834 270.082 159.099 269.542C159.365 269.002 159.786 268.553 160.307 268.252C160.651 268.05 161.031 267.919 161.425 267.865C161.82 267.811 162.221 267.835 162.606 267.937C162.991 268.039 163.352 268.216 163.669 268.458C163.985 268.7 164.251 269.002 164.45 269.347Z" fill="black"/>
<path d="M185.053 270.754L168.139 280.658C167.277 281.153 166.548 281.85 166.015 282.689C165.481 283.528 165.16 284.484 165.077 285.475L164.676 290.14C166.905 290.638 168.927 291.808 170.469 293.493C171.619 295.485 175.642 316.094 177.619 326.638C177.938 328.262 178.879 329.697 180.241 330.637C181.604 331.576 183.279 331.946 184.91 331.667L197.099 329.618C197.975 329.465 198.803 329.111 199.519 328.584C200.235 328.056 200.818 327.37 201.224 326.578C201.629 325.787 201.844 324.912 201.854 324.023C201.863 323.134 201.666 322.255 201.277 321.455C200.346 319.522 197.881 316.372 197.001 314.848C194.521 310.553 196.181 306.268 194.651 303.618C192.525 298.986 191.221 294.019 190.795 288.94C190.971 287.306 191.427 285.714 192.144 284.235C192.258 283.983 192.311 283.707 192.296 283.43C192.28 283.153 192.199 282.884 192.057 282.646L185.053 270.754ZM185.786 285.343C185.911 286.24 191.199 312.239 195.242 323.762C195.362 324.151 195.323 324.572 195.133 324.933C195.021 325.154 194.844 325.336 194.627 325.456C194.523 325.541 194.406 325.608 194.28 325.656L183.473 328.016C183.177 328.08 182.872 328.084 182.574 328.029C182.277 327.975 181.993 327.862 181.739 327.697C181.486 327.533 181.267 327.32 181.095 327.071C180.924 326.821 180.804 326.541 180.741 326.245L173.674 291.966C173.602 291.593 173.647 291.207 173.803 290.861C173.958 290.515 174.217 290.225 174.544 290.032L184.473 284.669C184.598 284.607 184.736 284.575 184.875 284.574C185.015 284.573 185.153 284.605 185.279 284.665L185.612 284.842L185.786 285.343Z" fill="black"/>
<path d="M229.611 235.491L237.457 230.961C237.938 230.684 238.288 230.227 238.431 229.692C238.575 229.157 238.5 228.586 238.222 228.106C237.945 227.626 237.489 227.276 236.953 227.132C236.418 226.989 235.848 227.064 235.367 227.341L227.521 231.871C227.041 232.148 226.691 232.605 226.548 233.14C226.404 233.676 226.479 234.246 226.756 234.726C227.033 235.206 227.49 235.556 228.025 235.7C228.561 235.843 229.131 235.768 229.611 235.491Z" fill="black"/>
<path d="M148.447 253.389L214.297 215.164L216.631 211.206C217.116 210.332 217.832 209.607 218.7 209.111L253.965 188.751C253.752 188.22 253.748 187.628 253.955 187.094L209.788 212.594C209.543 212.741 209.269 212.834 208.985 212.867C208.701 212.899 208.413 212.87 208.141 212.782L207.366 212.56C207.086 212.481 206.794 212.459 206.505 212.496C206.217 212.532 205.938 212.625 205.687 212.771C205.435 212.916 205.215 213.11 205.039 213.342C204.864 213.574 204.736 213.838 204.664 214.12L204.477 214.875C204.416 215.161 204.293 215.431 204.116 215.664C203.94 215.898 203.714 216.09 203.456 216.226L188.924 224.616C188.672 224.764 188.394 224.858 188.105 224.894C187.816 224.93 187.522 224.906 187.243 224.825L186.478 224.62C186.198 224.535 185.904 224.509 185.613 224.543C185.323 224.576 185.042 224.669 184.789 224.815C184.536 224.961 184.316 225.158 184.141 225.393C183.967 225.627 183.843 225.895 183.776 226.18L183.588 226.935C183.517 227.217 183.39 227.482 183.214 227.714C183.039 227.946 182.819 228.141 182.567 228.286L168.018 236.686C167.771 236.838 167.495 236.934 167.208 236.968C166.921 237.003 166.629 236.974 166.354 236.885L165.562 236.673C165.286 236.593 164.996 236.57 164.711 236.605C164.426 236.64 164.15 236.732 163.901 236.876C163.652 237.02 163.435 237.212 163.262 237.442C163.089 237.672 162.964 237.934 162.895 238.213L162.653 239.114C162.501 239.662 162.14 240.128 161.647 240.411L154.043 244.801C152.138 245.901 150.024 246.96 149.537 248.996L148.447 253.389Z" fill="black"/>
<path d="M252.987 244.418C252.9 244.33 252.787 244.273 252.664 244.256C252.542 244.239 252.417 244.263 252.31 244.325C252.228 244.366 252.156 244.423 252.097 244.493C252.038 244.562 251.994 244.643 251.967 244.731C251.951 244.801 251.951 244.874 251.968 244.945C251.985 245.015 252.017 245.081 252.063 245.137C265.637 260.648 286.203 270.39 312.378 273.407C312.523 273.437 312.673 273.413 312.801 273.339C312.929 273.265 313.025 273.147 313.071 273.007C313.094 272.946 313.103 272.88 313.098 272.816C313.092 272.751 313.073 272.688 313.04 272.632C313.008 272.575 312.963 272.527 312.91 272.49C312.856 272.453 312.795 272.428 312.731 272.418C282.402 267.366 266.501 259.825 252.987 244.418Z" fill="black"/>
<path d="M246.34 248.625C246.252 248.542 246.14 248.489 246.019 248.475C245.899 248.462 245.777 248.487 245.673 248.548C245.506 248.639 245.378 248.786 245.312 248.964C245.297 249.035 245.297 249.108 245.314 249.178C245.33 249.249 245.363 249.315 245.408 249.371C267.543 274.789 309.562 279.928 311.322 280.136C311.462 280.162 311.608 280.137 311.731 280.066C311.855 279.994 311.949 279.881 311.997 279.746C312.02 279.685 312.029 279.62 312.024 279.555C312.018 279.49 311.999 279.427 311.966 279.371C311.934 279.315 311.889 279.266 311.836 279.229C311.782 279.192 311.721 279.167 311.657 279.157C281.627 274.024 259.996 263.997 246.34 248.625Z" fill="black"/>
<path d="M238.953 253.191C238.873 253.099 238.763 253.038 238.642 253.019C238.521 253 238.398 253.024 238.293 253.087C238.208 253.131 238.133 253.193 238.073 253.267C238.012 253.342 237.968 253.428 237.942 253.52C237.923 253.587 237.921 253.658 237.936 253.726C237.951 253.793 237.983 253.857 238.029 253.909C257.912 276.748 300.378 285.901 310.296 287.08C310.436 287.106 310.582 287.081 310.706 287.009C310.829 286.938 310.924 286.825 310.971 286.69C310.991 286.629 310.997 286.564 310.99 286.501C310.983 286.437 310.963 286.376 310.931 286.32C310.899 286.265 310.856 286.217 310.804 286.179C310.753 286.141 310.694 286.114 310.631 286.101C280.023 280.886 252.538 268.441 238.953 253.191Z" fill="black"/>
<path d="M251.112 229.89L221.655 248.629C257.384 293.195 312.61 298.168 321.032 298.156C321.359 298.154 321.674 298.029 321.913 297.805C322.152 297.581 322.298 297.276 322.322 296.949L325.1 265.762C325.113 265.588 325.091 265.413 325.036 265.248C324.981 265.083 324.893 264.93 324.779 264.798C324.664 264.667 324.525 264.559 324.368 264.482C324.212 264.405 324.042 264.359 323.868 264.348C278.672 260.905 256.796 237.416 251.112 229.89ZM312.277 286.791C312.125 287.339 311.763 287.805 311.27 288.088C310.879 288.312 310.428 288.411 309.979 288.371C299.947 287.235 257.068 277.927 236.926 254.8C236.757 254.604 236.638 254.369 236.58 254.116C236.523 253.864 236.529 253.6 236.597 253.35C236.664 253.075 236.788 252.817 236.961 252.594C237.135 252.37 237.354 252.186 237.604 252.053C237.978 251.815 238.422 251.708 238.864 251.75C239.306 251.792 239.722 251.979 240.046 252.283C253.39 267.396 280.682 279.628 310.938 284.792C311.164 284.822 311.381 284.899 311.574 285.019C311.767 285.139 311.933 285.299 312.06 285.488C312.187 285.678 312.271 285.892 312.309 286.116C312.346 286.341 312.335 286.571 312.277 286.791ZM313.312 279.865C313.169 280.349 312.863 280.768 312.445 281.052C312.028 281.335 311.525 281.464 311.022 281.418C309.245 281.22 266.757 276.029 244.306 250.262C244.142 250.063 244.027 249.828 243.97 249.576C243.913 249.325 243.915 249.063 243.977 248.813C244.048 248.535 244.174 248.274 244.348 248.047C244.522 247.819 244.741 247.629 244.991 247.488C245.368 247.25 245.815 247.144 246.259 247.189C246.704 247.234 247.12 247.426 247.443 247.735C260.837 262.935 282.307 272.802 311.981 277.839C312.208 277.872 312.425 277.953 312.618 278.076C312.812 278.199 312.976 278.361 313.102 278.553C313.228 278.744 313.312 278.96 313.348 279.186C313.384 279.413 313.372 279.644 313.312 279.865ZM314.317 273.165C314.251 273.437 314.129 273.692 313.959 273.913C313.789 274.135 313.574 274.319 313.328 274.452C312.942 274.69 312.487 274.79 312.037 274.736C285.502 271.696 264.605 261.821 250.891 246.068C250.724 245.872 250.606 245.639 250.546 245.389C250.486 245.139 250.485 244.878 250.545 244.628C250.615 244.35 250.742 244.09 250.916 243.862C251.09 243.634 251.309 243.445 251.558 243.304C251.939 243.065 252.389 242.961 252.835 243.009C253.282 243.057 253.699 243.254 254.02 243.568C267.471 258.666 283.145 266.013 312.978 271.167C313.204 271.196 313.421 271.274 313.615 271.394C313.808 271.514 313.974 271.674 314.1 271.863C314.227 272.052 314.312 272.266 314.349 272.491C314.387 272.715 314.376 272.945 314.317 273.165Z" fill="black"/>
<path d="M164.45 269.347C164.754 269.866 164.898 270.465 164.862 271.066C164.826 271.667 164.612 272.243 164.248 272.723C163.884 273.202 163.385 273.563 162.816 273.759C162.247 273.955 161.632 273.977 161.05 273.823C160.468 273.669 159.945 273.346 159.546 272.894C159.148 272.443 158.893 271.883 158.814 271.286C158.734 270.689 158.834 270.082 159.099 269.542C159.365 269.002 159.786 268.553 160.307 268.252C160.651 268.05 161.031 267.919 161.425 267.865C161.82 267.811 162.221 267.835 162.606 267.937C162.991 268.039 163.352 268.216 163.669 268.458C163.985 268.7 164.251 269.002 164.45 269.347Z" fill="black"/>
<path d="M35.8318 346.214C35.1971 346.429 34.5255 346.513 33.8574 346.463C33.1892 346.412 32.5381 346.227 31.9431 345.919C29.3265 344.504 27.1797 342.356 25.7659 339.739C21.9959 333.209 18.0618 334.395 14.6804 334.339C14.6196 334.336 14.5599 334.354 14.5101 334.389C14.4604 334.424 14.4233 334.474 14.4045 334.532C14.3858 334.59 14.3863 334.652 14.406 334.709C14.4257 334.767 14.4636 334.816 14.514 334.85C19.0558 338.117 23.9695 343.548 32.797 359.397C44.2879 380.06 45.02 394.048 45.02 394.048C53.4782 392.698 47.0955 373.243 43.0346 365.449C41.7832 363.166 40.8469 360.723 40.2511 358.188C40.1094 357.531 40.13 356.848 40.3113 356.201C40.4925 355.553 40.8289 354.959 41.2914 354.47C42.0978 353.718 42.6 352.696 42.7026 351.598C42.8052 350.5 42.501 349.402 41.8478 348.514C41.2954 347.465 40.3802 346.654 39.2731 346.23C38.1661 345.807 36.9428 345.801 35.8318 346.214ZM38.6627 354.117C38.1117 354.44 37.4772 354.591 36.8398 354.553C36.2024 354.514 35.591 354.286 35.0832 353.899C34.5754 353.512 34.1942 352.983 33.988 352.378C33.7818 351.774 33.7599 351.122 33.9252 350.505C34.0905 349.888 34.4354 349.335 34.9161 348.914C35.3969 348.494 35.9917 348.226 36.6251 348.145C37.2584 348.063 37.9017 348.172 38.473 348.457C39.0444 348.742 39.5181 349.191 39.834 349.746C40.253 350.482 40.365 351.354 40.1458 352.172C39.9265 352.99 39.3937 353.689 38.6627 354.117Z" fill="black"/>
<path d="M37.6827 352.42C38.2567 352.089 38.4533 351.355 38.1219 350.781C37.7906 350.207 37.0567 350.01 36.4827 350.341C35.9088 350.673 35.7121 351.407 36.0435 351.981C36.3749 352.555 37.1088 352.751 37.6827 352.42Z" fill="black"/>
<path d="M157.954 264.137C156.635 264.912 155.574 266.057 154.901 267.431C154.228 268.805 153.974 270.347 154.171 271.864L40.2572 343.959C41.8482 344.583 43.1825 345.725 44.0448 347.2C44.563 348.109 44.8915 349.113 45.0106 350.152L153.442 280.921L158.508 277.696C159.637 278.241 160.883 278.502 162.136 278.455C163.389 278.408 164.611 278.054 165.696 277.426C167.457 276.391 168.741 274.705 169.27 272.732C169.798 270.759 169.53 268.657 168.522 266.88C167.436 265.17 165.74 263.935 163.779 263.426C161.817 262.916 159.736 263.17 157.954 264.137ZM164.344 275.204C163.483 275.697 162.496 275.923 161.506 275.855C160.516 275.787 159.569 275.427 158.784 274.821C157.999 274.214 157.411 273.389 157.094 272.449C156.778 271.509 156.747 270.496 157.005 269.538C157.264 268.58 157.801 267.721 158.547 267.068C159.294 266.415 160.218 265.998 161.201 265.869C162.185 265.741 163.185 265.907 164.074 266.346C164.964 266.785 165.703 267.478 166.199 268.337C166.53 268.911 166.745 269.545 166.83 270.202C166.915 270.859 166.869 271.526 166.695 272.166C166.521 272.805 166.223 273.404 165.816 273.927C165.41 274.45 164.903 274.888 164.327 275.214L164.344 275.204Z" fill="black"/>
</svg>
