<svg width="512" height="160" viewBox="0 0 512 160" fill="none" xmlns="http://www.w3.org/2000/svg">
<path d="M267.509 11.1606L308.701 28.238C308.896 28.3211 309.117 28.3235 309.314 28.2446C309.511 28.1658 309.669 28.0121 309.753 27.8173L314.266 17.1271C314.315 17.0253 314.342 16.914 314.344 16.8009C314.346 16.6879 314.323 16.5758 314.278 16.4722C314.232 16.3687 314.165 16.2762 314.08 16.2011C313.996 16.126 313.896 16.07 313.788 16.0371C301.052 11.8873 276.191 1.2545 273.38 0.049711C273.207 -0.0165703 273.017 -0.0165703 272.844 0.049711C267.107 1.78996 267.107 8.40675 267.107 10.4912C267.104 10.6294 267.139 10.7658 267.21 10.8844C267.282 11.0029 267.385 11.0987 267.509 11.1606Z" fill="black"/>
<path d="M270.664 47.0548V48.8142H295.2V44.5879H279.461V47.0548H270.664Z" fill="black"/>
<path d="M313.539 25.5217C313.994 25.3443 314.482 25.2708 314.969 25.3066C315.455 25.3424 315.928 25.4866 316.351 25.7287C316.775 25.9707 317.139 26.3044 317.417 26.7054C317.694 27.1064 317.879 27.5645 317.957 28.0461C317.957 28.4285 314.247 43.6701 314.247 43.6701H319.812L324 26.1337C324.201 25.3543 324.119 24.529 323.768 23.8043C323.418 23.0796 322.823 22.5024 322.088 22.1751L314.438 19.2109L311.378 26.2102L313.539 25.5217Z" fill="black"/>
<path d="M230.562 44.2835V18.1797H224.194V45.1823C225.972 45.1823 227.636 45.0675 228.745 44.991C229.855 44.9146 230.294 44.6468 230.562 44.2835Z" fill="black"/>
<path d="M143.893 62.2775L146.36 49.2542L136.416 45.2383L129.589 49.7897V60.5755L133.72 64.7062L143.893 62.2775Z" fill="black"/>
<path d="M17.4287 132.176V73.9634L24.2559 67.1362H35.099C34.1581 66.1283 33.1346 65.2007 32.0392 64.3633C28.632 64.9644 25.1667 65.1698 21.7124 64.9752C15.6311 64.6693 15 71.0374 15 71.0374V127.223C15 131.526 16.5299 132.176 17.4287 132.176Z" fill="black"/>
<path d="M149.21 70.3674H255.04L265.463 64.0949V56.541H147.087L145.557 63.6359L149.21 70.3674Z" fill="black"/>
<path d="M233.813 18.1797H231.518V33.6316L233.755 31.4324C233.774 30.3997 233.794 19.3462 233.813 18.1797Z" fill="black"/>
<path d="M288.583 60.9395H283.84V61.8956H288.583V60.9395Z" fill="black"/>
<path d="M284.93 98.6896V90.7915L281.278 87.1389V82.5684H273.341V90.1987H268.14V108.481H273.896L284.93 98.6896Z" fill="black"/>
<path d="M340.255 141.296L345.074 141.812L345.514 144.279C345.562 144.536 345.683 144.774 345.863 144.964C346.043 145.154 346.274 145.288 346.528 145.35L355.822 147.511C356.111 147.578 356.413 147.57 356.698 147.486C356.982 147.402 357.241 147.246 357.447 147.033L358.939 145.56C359.392 145.102 359.647 144.484 359.647 143.839V134.086C359.645 133.585 359.445 133.104 359.092 132.748L355.956 129.611V139.058C355.949 139.36 355.871 139.656 355.728 139.922C355.585 140.188 355.382 140.416 355.133 140.588C354.834 140.79 354.481 140.896 354.12 140.894C353.869 140.901 353.62 140.848 353.393 140.741L339.299 134.717V140.263C339.307 140.522 339.408 140.769 339.584 140.959C339.759 141.149 339.998 141.268 340.255 141.296Z" fill="black"/>
<path d="M288.583 56.541H283.84V58.09H288.583V56.541Z" fill="black"/>
<path d="M494.2 79.2408C495.459 76.9082 496.118 74.2993 496.118 71.6487C496.118 68.9982 495.459 66.3892 494.2 64.0566H454.041C453.142 65.4144 453.008 77.6727 454.156 79.1452L494.2 79.2408Z" fill="black"/>
<path d="M288.583 68.5898H283.84V69.9094H288.583V68.5898Z" fill="black"/>
<path d="M423.118 88.0575C422.496 87.0974 422.083 86.0174 421.905 84.8875C421.727 83.7575 421.788 82.6027 422.085 81.498H320.73V85.3228H338.553L342.034 83.4104H359.092V88.3061H368.118V84.9786H371.159C372.567 86.0365 373.696 87.4215 374.448 89.0136H422.889L423.118 88.0575Z" fill="black"/>
<path d="M288.583 66.6758H283.84V67.632H288.583V66.6758Z" fill="black"/>
<path d="M288.583 64.7637H283.84V65.7199H288.583V64.7637Z" fill="black"/>
<path d="M271.2 82.5684H227.942L214.938 95.2282H223.008L230.524 88.3246H271.181L271.2 82.5684Z" fill="black"/>
<path d="M288.583 59.0273H283.84V59.9835H288.583V59.0273Z" fill="black"/>
<path d="M224.652 108.48H266.227V90.2363H231.288L224.652 96.4515V108.48Z" fill="black"/>
<path d="M273.418 80.6554H281.278V80.6172H288.602V71.8394L273.418 71.8203V80.6554Z" fill="black"/>
<path d="M288.583 62.8516H283.84V63.8078H288.583V62.8516Z" fill="black"/>
<path d="M212.548 95.2086L227.158 80.6555H271.142V69.908H282.865V56.5215H267.299V65.0315L255.576 72.2794H148.158L143.932 64.2283L133.988 66.5997V83.9639H162.501V91.4413C162.778 91.3475 163.069 91.3022 163.361 91.3074C163.817 91.3102 164.266 91.4135 164.677 91.6097C165.088 91.806 165.451 92.0905 165.739 92.4429C166.028 92.7954 166.235 93.2071 166.346 93.6488C166.458 94.0905 166.47 94.5512 166.383 94.9983L212.548 95.2086Z" fill="black"/>
<path d="M433.732 56.6945H444.097C444.097 55.5662 443.963 51.7224 444.097 47.8976C444.326 40.4777 444.708 40.8601 436.198 40.9175C428.415 40.9175 429.792 40.3247 429.907 49.6188C429.888 49.6761 430.978 54.6865 433.732 56.6945Z" fill="black"/>
<path d="M451.364 67.0977L446.047 67.1742V76.2005H451.364V67.0977Z" fill="black"/>
<path d="M290.534 76.6793V80.8865L293.421 83.7934H310.996L315.165 79.6053H444.173V74.8243H429.486C428.979 74.8243 428.493 74.6229 428.134 74.2642C427.775 73.9056 427.574 73.4192 427.574 72.912V62.1836H417.266V73.5239C417.266 73.884 417.123 74.2294 416.868 74.484C416.614 74.7387 416.268 74.8817 415.908 74.8817H292.427L290.534 76.6793Z" fill="black"/>
<path d="M18.3848 94.8066V135.387C19.3601 140.053 22.3242 140.264 22.3242 140.264L64.97 139.135C65.8236 139.11 66.656 138.864 67.3864 138.421C68.1169 137.979 68.7206 137.355 69.139 136.611L86.3503 105.707H72.0649L68.3549 102.016H44.9667L38.1013 94.8066H18.3848ZM39.1531 106.281L29.2088 130.95C29.0761 131.292 28.8419 131.586 28.5376 131.791C28.2334 131.996 27.8736 132.103 27.5068 132.098H22.7258C22.2348 132.098 21.7623 131.91 21.4063 131.572C21.0503 131.234 20.838 130.771 20.8135 130.281V102.8C20.8135 102.293 21.015 101.807 21.3736 101.448C21.7322 101.089 22.2186 100.888 22.7258 100.888H34.6781C35.1639 100.895 35.6288 101.086 35.9785 101.423L38.7515 104.196C39.013 104.464 39.1905 104.802 39.2618 105.169C39.3332 105.536 39.2954 105.916 39.1531 106.262V106.281Z" fill="black"/>
<path d="M45.3686 101.06H68.7377L72.4668 104.77H86.8669L92.4128 94.8066H39.249L45.3686 101.06ZM83.6159 97.1015C84.1681 97.1015 84.7079 97.2652 85.1671 97.572C85.6262 97.8788 85.9841 98.3149 86.1954 98.8251C86.4068 99.3352 86.462 99.8966 86.3543 100.438C86.2466 100.98 85.9807 101.477 85.5902 101.868C85.1997 102.258 84.7022 102.524 84.1606 102.632C83.619 102.74 83.0576 102.684 82.5474 102.473C82.0373 102.262 81.6012 101.904 81.2944 101.445C80.9876 100.986 80.8239 100.446 80.8239 99.8935C80.8212 99.5229 80.8929 99.1555 81.0347 98.813C81.1765 98.4706 81.3855 98.16 81.6493 97.8998C81.9132 97.6395 82.2266 97.4347 82.5709 97.2976C82.9153 97.1605 83.2836 97.0938 83.6542 97.1015H83.6159Z" fill="black"/>
<path d="M83.6538 101.711C84.0321 101.711 84.4018 101.599 84.7163 101.389C85.0308 101.179 85.2759 100.88 85.4206 100.531C85.5654 100.181 85.6032 99.797 85.5294 99.426C85.4557 99.055 85.2735 98.7143 85.0061 98.4468C84.7386 98.1794 84.3979 97.9973 84.0269 97.9235C83.6559 97.8497 83.2714 97.8876 82.922 98.0323C82.5726 98.177 82.2739 98.4221 82.0637 98.7366C81.8536 99.0511 81.7415 99.4209 81.7415 99.7991C81.7415 100.306 81.9429 100.793 82.3016 101.151C82.6602 101.51 83.1466 101.711 83.6538 101.711Z" fill="black"/>
<path d="M162.654 92.837C162.29 92.9905 161.99 93.266 161.807 93.6161C161.624 93.9662 161.568 94.3692 161.649 94.756C161.731 95.1427 161.944 95.4891 162.253 95.7356C162.562 95.9821 162.947 96.1135 163.342 96.1071C163.707 96.1075 164.062 95.9879 164.352 95.7668C164.643 95.5456 164.852 95.2352 164.949 94.8832C164.978 94.7252 164.978 94.5632 164.949 94.4051C164.949 93.957 164.772 93.527 164.457 93.2084C164.142 92.8897 163.714 92.7082 163.266 92.7031C163.055 92.7081 162.847 92.7536 162.654 92.837Z" fill="black"/>
<path d="M320.883 49.5218V51.6445H319.907L319.869 44.5879H313.845L311.971 45.5441H296.156V49.1776L298.833 52.6963L405.486 52.9832V49.5218H402.158V51.4533H399.577V49.5218H396.421V51.4533H393.84V49.5218H390.684V51.4533H390.665V51.568H388.083V49.5218H384.947V51.4533H384.871V51.5872H382.289V49.5218H380.3H379.057V51.5872H376.494V49.5218H373.262V51.5872H370.681V49.5218H367.449V51.6063H364.886V49.5218H361.654V51.6063H359.092V49.5218H355.86V51.6063H353.278V49.5218H350.046V51.6254H347.484V49.5218H344.252V51.6254H341.67V49.5218H338.438V51.6254H335.876V49.5218H332.644V51.6254L330.062 51.6445V49.5218H326.83V51.6445H324.268V49.5218H320.883Z" fill="black"/>
<path d="M290.515 74.0015L291.624 72.8923H312.105V56.6946C312.105 56.3345 312.249 55.9891 312.503 55.7345C312.758 55.4798 313.103 55.3368 313.463 55.3368H415.794C415.972 55.3368 416.149 55.3719 416.314 55.4402C416.478 55.5084 416.628 55.6084 416.754 55.7345C416.88 55.8606 416.98 56.0103 417.048 56.175C417.117 56.3397 417.152 56.5163 417.152 56.6946V60.1751H429.372V70.9035C429.372 71.4107 429.573 71.8971 429.932 72.2557C430.291 72.6143 430.777 72.8158 431.284 72.8158H444.059V58.2818L432.585 58.1671C430.858 56.624 429.582 54.6412 428.894 52.43H417.42V47.9551H409.502C409.13 47.9579 408.769 48.0858 408.478 48.3181C408.186 48.5504 407.982 48.8738 407.896 49.2364L406.902 53.826L298.26 53.5966L295.162 49.5232H258.827V51.9519H256.284V49.5232H253.09V51.9519H250.546V49.5232H247.353V51.9519H244.809V49.5232H241.616V51.9519H239.072V49.5232H235.879V51.9519H233.335V49.5232H230.141V51.9519H227.598V49.5232H224.404V51.9519H221.861V49.5232H218.667V52.2961H183.346V49.485H180.152V52.0284H177.609V49.485H174.415V52.0284H171.872V49.485H168.678V52.0284H166.135V49.485H148.598L147.489 54.6101H290.515V74.0015ZM432.451 67.2317C432.714 67.1332 432.992 67.0814 433.273 67.0787C433.816 67.0787 434.336 67.2943 434.72 67.6781C435.104 68.0618 435.319 68.5823 435.319 69.125C435.318 69.3326 435.286 69.5388 435.224 69.7369C435.076 70.2021 434.767 70.5992 434.353 70.8568C433.939 71.1143 433.446 71.2153 432.963 71.1414C432.481 71.0676 432.041 70.8238 431.723 70.454C431.404 70.0843 431.228 69.6129 431.227 69.125C431.228 68.7253 431.344 68.3343 431.561 67.9986C431.778 67.6629 432.087 67.3967 432.451 67.2317Z" fill="black"/>
<path d="M433.273 70.2331C433.509 70.2322 433.739 70.1529 433.926 70.0075C434.113 69.8622 434.246 69.6591 434.305 69.4299C434.334 69.33 434.334 69.2239 434.305 69.124C434.305 68.8349 434.19 68.5576 433.986 68.3532C433.782 68.1488 433.504 68.0339 433.215 68.0339C433.071 68.0286 432.927 68.0531 432.792 68.106C432.657 68.1589 432.535 68.239 432.433 68.3413C432.33 68.4436 432.25 68.5659 432.197 68.7006C432.144 68.8352 432.12 68.9794 432.125 69.124C432.122 69.2737 432.15 69.4223 432.208 69.5607C432.265 69.6991 432.35 69.8243 432.457 69.9283C432.565 70.0324 432.693 70.1132 432.833 70.1656C432.974 70.2181 433.123 70.241 433.273 70.2331Z" fill="black"/>
<path d="M314.017 57.248V72.8721H415.258V57.248H314.017ZM329.316 64.0943C329.275 64.1388 329.224 64.1737 329.168 64.1968C329.112 64.22 329.052 64.2306 328.991 64.2282C328.928 64.2309 328.864 64.2205 328.805 64.1974C328.746 64.1744 328.692 64.1393 328.647 64.0943L325.472 60.9198C325.389 60.8283 325.343 60.7089 325.343 60.5851C325.343 60.4613 325.389 60.342 325.472 60.2505C325.517 60.2042 325.57 60.1674 325.63 60.1423C325.689 60.1171 325.752 60.1042 325.817 60.1042C325.881 60.1042 325.945 60.1171 326.004 60.1423C326.063 60.1674 326.116 60.2042 326.161 60.2505L329.316 63.425C329.365 63.4652 329.404 63.515 329.432 63.5711C329.461 63.6273 329.477 63.6886 329.481 63.7514C329.484 63.8141 329.475 63.8769 329.453 63.9359C329.431 63.9949 329.398 64.0488 329.355 64.0943H329.316ZM330.215 70.5199C330.088 70.5199 329.967 70.4695 329.877 70.3798C329.787 70.2902 329.737 70.1686 329.737 70.0418V65.5668C329.737 65.4401 329.787 65.3184 329.877 65.2288C329.967 65.1391 330.088 65.0888 330.215 65.0888C330.342 65.0888 330.463 65.1391 330.553 65.2288C330.643 65.3184 330.693 65.4401 330.693 65.5668V70.0418C330.694 70.1622 330.648 70.2784 330.567 70.367C330.485 70.4556 330.373 70.5102 330.253 70.5199H330.215ZM334.881 60.958L331.707 64.1326C331.662 64.1775 331.608 64.2126 331.549 64.2357C331.489 64.2587 331.426 64.2692 331.363 64.2664C331.302 64.2677 331.242 64.2564 331.186 64.2334C331.13 64.2104 331.079 64.176 331.037 64.1326C330.992 64.0897 330.955 64.0378 330.93 63.9802C330.905 63.9227 330.893 63.8606 330.893 63.7979C330.893 63.7352 330.905 63.6731 330.93 63.6156C330.955 63.558 330.992 63.5062 331.037 63.4632L334.193 60.2887C334.237 60.2424 334.291 60.2056 334.35 60.1805C334.409 60.1554 334.473 60.1424 334.537 60.1424C334.601 60.1424 334.665 60.1554 334.724 60.1805C334.783 60.2056 334.837 60.2424 334.881 60.2887C334.96 60.3731 335.007 60.4823 335.014 60.5974C335.021 60.7125 334.987 60.8265 334.92 60.9198L334.881 60.958ZM342.703 67.2497L339.547 70.4243C339.502 70.4692 339.449 70.5043 339.389 70.5273C339.33 70.5504 339.267 70.5609 339.203 70.5581C339.076 70.5594 338.952 70.5114 338.859 70.4243C338.776 70.3327 338.729 70.2134 338.729 70.0896C338.729 69.9658 338.776 69.8465 338.859 69.7549L342.033 66.5804C342.075 66.5256 342.127 66.4803 342.187 66.4475C342.247 66.4147 342.314 66.3952 342.382 66.3904C342.45 66.3855 342.519 66.3954 342.583 66.4193C342.647 66.4433 342.706 66.4808 342.754 66.5292C342.802 66.5776 342.84 66.6359 342.864 66.7001C342.888 66.7642 342.898 66.8328 342.893 66.9012C342.888 66.9695 342.869 67.036 342.836 67.0961C342.803 67.1562 342.758 67.2086 342.703 67.2497ZM343.525 65.586C343.398 65.586 343.277 65.5356 343.187 65.4459C343.097 65.3563 343.047 65.2347 343.047 65.1079V60.6329C343.047 60.5061 343.097 60.3845 343.187 60.2949C343.277 60.2052 343.398 60.1549 343.525 60.1549C343.652 60.1549 343.774 60.2052 343.863 60.2949C343.953 60.3845 344.003 60.5061 344.003 60.6329V65.1079C343.994 65.2216 343.945 65.3285 343.865 65.4091C343.784 65.4898 343.677 65.5389 343.563 65.5477L343.525 65.586ZM348.268 70.4243C348.175 70.5114 348.051 70.5594 347.924 70.5581C347.86 70.5609 347.797 70.5504 347.737 70.5273C347.678 70.5043 347.624 70.4692 347.579 70.4243L344.424 67.2497C344.355 67.1577 344.321 67.0438 344.33 66.929C344.338 66.8142 344.387 66.7062 344.468 66.6248C344.55 66.5434 344.658 66.4941 344.773 66.486C344.887 66.4778 345.001 66.5114 345.093 66.5804L348.268 69.7549C348.346 69.8393 348.393 69.9485 348.4 70.0636C348.407 70.1787 348.374 70.2927 348.306 70.386L348.268 70.4243ZM356.089 64.1326C356.048 64.177 355.998 64.212 355.942 64.2351C355.885 64.2582 355.825 64.2689 355.764 64.2664C355.701 64.2692 355.637 64.2587 355.578 64.2357C355.519 64.2126 355.465 64.1775 355.42 64.1326L352.246 60.958C352.162 60.8665 352.116 60.7472 352.116 60.6234C352.116 60.4996 352.162 60.3803 352.246 60.2887C352.29 60.2424 352.344 60.2056 352.403 60.1805C352.462 60.1554 352.525 60.1424 352.59 60.1424C352.654 60.1424 352.718 60.1554 352.777 60.1805C352.836 60.2056 352.889 60.2424 352.934 60.2887L356.089 63.4632C356.175 63.5435 356.227 63.6537 356.235 63.7711C356.242 63.8886 356.203 64.0043 356.128 64.0943L356.089 64.1326ZM356.988 70.5581C356.861 70.5581 356.74 70.5077 356.65 70.4181C356.56 70.3284 356.51 70.2068 356.51 70.08V65.6051C356.51 65.4783 356.56 65.3567 356.65 65.267C356.74 65.1774 356.861 65.127 356.988 65.127C357.115 65.127 357.237 65.1774 357.326 65.267C357.416 65.3567 357.466 65.4783 357.466 65.6051V70.08C357.458 70.1938 357.408 70.3006 357.328 70.3813C357.247 70.4619 357.14 70.5111 357.026 70.5199L356.988 70.5581ZM361.654 60.9963L358.48 64.1708C358.435 64.2158 358.381 64.2509 358.322 64.2739C358.263 64.297 358.199 64.3074 358.136 64.3047C358.075 64.3059 358.015 64.2947 357.959 64.2716C357.903 64.2486 357.853 64.2143 357.811 64.1708C357.765 64.1279 357.728 64.0761 357.703 64.0185C357.678 63.9609 357.666 63.8989 357.666 63.8362C357.666 63.7734 357.678 63.7114 357.703 63.6538C357.728 63.5963 357.765 63.5444 357.811 63.5015L360.966 60.327C361.011 60.2807 361.064 60.2439 361.123 60.2188C361.182 60.1936 361.246 60.1807 361.31 60.1807C361.374 60.1807 361.438 60.1936 361.497 60.2188C361.556 60.2439 361.61 60.2807 361.654 60.327C361.724 60.4085 361.765 60.5102 361.772 60.617C361.779 60.7238 361.751 60.83 361.693 60.9198L361.654 60.9963ZM369.476 67.288L366.321 70.4625C366.276 70.5074 366.222 70.5425 366.162 70.5656C366.103 70.5886 366.04 70.5991 365.976 70.5964C365.849 70.5976 365.725 70.5497 365.632 70.4625C365.549 70.371 365.503 70.2516 365.503 70.1278C365.503 70.004 365.549 69.8847 365.632 69.7932L368.807 66.6186C368.848 66.5638 368.9 66.5185 368.96 66.4857C369.02 66.453 369.087 66.4335 369.155 66.4286C369.224 66.4238 369.292 66.4336 369.356 66.4576C369.42 66.4815 369.479 66.519 369.527 66.5674C369.576 66.6159 369.613 66.6742 369.637 66.7383C369.661 66.8025 369.671 66.8711 369.666 66.9394C369.661 67.0077 369.642 67.0742 369.609 67.1343C369.576 67.1945 369.531 67.2469 369.476 67.288ZM370.298 65.6242C370.171 65.6242 370.05 65.5738 369.96 65.4842C369.871 65.3945 369.82 65.2729 369.82 65.1461V60.6712C369.82 60.5444 369.871 60.4228 369.96 60.3331C370.05 60.2435 370.171 60.1931 370.298 60.1931C370.425 60.1931 370.547 60.2435 370.636 60.3331C370.726 60.4228 370.776 60.5444 370.776 60.6712V65.1461C370.759 65.253 370.707 65.3508 370.627 65.4238C370.547 65.4967 370.444 65.5404 370.337 65.5477L370.298 65.6242ZM375.041 70.4625C374.948 70.5497 374.824 70.5976 374.697 70.5964C374.633 70.5991 374.57 70.5886 374.511 70.5656C374.451 70.5425 374.397 70.5074 374.352 70.4625L371.197 67.288C371.128 67.1959 371.095 67.082 371.103 66.9672C371.111 66.8524 371.16 66.7444 371.241 66.6631C371.323 66.5817 371.431 66.5324 371.546 66.5242C371.66 66.5161 371.774 66.5496 371.866 66.6186L375.041 69.7932C375.11 69.8747 375.151 69.9764 375.158 70.0832C375.165 70.1901 375.137 70.2962 375.079 70.386L375.041 70.4625ZM382.863 64.1708C382.821 64.2153 382.771 64.2502 382.715 64.2733C382.659 64.2964 382.598 64.3071 382.537 64.3047C382.474 64.3074 382.41 64.297 382.351 64.2739C382.292 64.2509 382.238 64.2158 382.193 64.1708L379.019 60.9963C378.935 60.9047 378.889 60.7854 378.889 60.6616C378.889 60.5378 378.935 60.4185 379.019 60.327C379.063 60.2807 379.117 60.2439 379.176 60.2188C379.235 60.1936 379.299 60.1807 379.363 60.1807C379.427 60.1807 379.491 60.1936 379.55 60.2188C379.609 60.2439 379.663 60.2807 379.707 60.327L382.863 63.5015C382.938 63.5797 382.983 63.6823 382.99 63.7909C382.998 63.8995 382.966 64.007 382.901 64.0943L382.863 64.1708ZM383.761 70.5964C383.635 70.5964 383.513 70.546 383.423 70.4563C383.334 70.3667 383.283 70.2451 383.283 70.1183V65.6433C383.283 65.5165 383.334 65.3949 383.423 65.3053C383.513 65.2156 383.635 65.1653 383.761 65.1653C383.888 65.1653 384.01 65.2156 384.099 65.3053C384.189 65.3949 384.239 65.5165 384.239 65.6433V70.1183C384.222 70.2251 384.17 70.323 384.09 70.3959C384.01 70.4689 383.908 70.5126 383.8 70.5199L383.761 70.5964ZM388.428 61.0345L385.253 64.2091C385.208 64.254 385.154 64.2891 385.095 64.3122C385.036 64.3352 384.972 64.3457 384.909 64.3429C384.848 64.3442 384.788 64.3329 384.732 64.3099C384.676 64.2869 384.626 64.2525 384.584 64.2091C384.538 64.1661 384.501 64.1143 384.477 64.0567C384.452 63.9992 384.439 63.9371 384.439 63.8744C384.439 63.8117 384.452 63.7496 384.477 63.6921C384.501 63.6345 384.538 63.5827 384.584 63.5397L387.739 60.3652C387.784 60.3189 387.837 60.2821 387.896 60.257C387.955 60.2319 388.019 60.2189 388.083 60.2189C388.148 60.2189 388.211 60.2319 388.27 60.257C388.329 60.2821 388.383 60.3189 388.428 60.3652C388.488 60.4433 388.525 60.5379 388.531 60.6367C388.538 60.7355 388.515 60.8341 388.466 60.9198L388.428 61.0345ZM396.249 67.3262L393.094 70.5007C393.049 70.5457 392.995 70.5808 392.936 70.6038C392.876 70.6269 392.813 70.6374 392.749 70.6346C392.622 70.6358 392.499 70.5879 392.405 70.5007C392.322 70.4092 392.276 70.2899 392.276 70.1661C392.276 70.0423 392.322 69.923 392.405 69.8314L395.58 66.6569C395.621 66.6021 395.673 66.5568 395.733 66.524C395.794 66.4912 395.86 66.4717 395.928 66.4669C395.997 66.462 396.065 66.4719 396.129 66.4958C396.194 66.5198 396.252 66.5573 396.3 66.6057C396.349 66.6541 396.386 66.7124 396.41 66.7766C396.434 66.8407 396.444 66.9093 396.439 66.9776C396.434 67.046 396.415 67.1124 396.382 67.1726C396.349 67.2327 396.304 67.2851 396.249 67.3262ZM397.071 65.6625C396.945 65.6625 396.823 65.6121 396.733 65.5224C396.644 65.4328 396.593 65.3112 396.593 65.1844V60.7094C396.593 60.5826 396.644 60.461 396.733 60.3714C396.823 60.2817 396.945 60.2313 397.071 60.2313C397.198 60.2313 397.32 60.2817 397.409 60.3714C397.499 60.461 397.549 60.5826 397.549 60.7094V65.1844C397.525 65.2842 397.469 65.3734 397.39 65.4388C397.31 65.5043 397.212 65.5425 397.11 65.5477L397.071 65.6625ZM401.814 70.5007C401.721 70.5879 401.597 70.6358 401.47 70.6346C401.406 70.6374 401.343 70.6269 401.284 70.6038C401.224 70.5808 401.171 70.5457 401.126 70.5007L397.97 67.3262C397.901 67.2342 397.868 67.1203 397.876 67.0055C397.884 66.8907 397.933 66.7827 398.015 66.7013C398.096 66.6199 398.204 66.5706 398.319 66.5625C398.434 66.5543 398.547 66.5878 398.64 66.6569L401.814 69.8314C401.875 69.9095 401.911 70.0041 401.918 70.1029C401.925 70.2017 401.902 70.3003 401.852 70.386L401.814 70.5007Z" fill="black"/>
<path d="M357.524 89.4729V85.3613H342.359L339.223 87.2737V88.8992L336.411 91.7104V95.822L339.299 98.6905V133.687L353.757 139.883C353.886 139.953 354.03 139.99 354.177 139.99C354.324 139.99 354.469 139.953 354.598 139.883C354.724 139.804 354.827 139.694 354.897 139.563C354.967 139.432 355.003 139.285 355 139.137V122.614V107.315C358.442 104.389 358.518 101.999 357.218 99.6658C356.204 97.8682 352.743 95.0761 354.694 92.0164C355.371 90.9126 356.354 90.0291 357.524 89.4729ZM351.022 135.905C350.626 135.905 350.247 135.748 349.967 135.468C349.687 135.189 349.53 134.809 349.53 134.414C349.53 134.119 349.618 133.83 349.782 133.585C349.946 133.34 350.179 133.148 350.451 133.035C350.724 132.923 351.024 132.893 351.313 132.951C351.602 133.008 351.868 133.15 352.077 133.359C352.285 133.567 352.427 133.833 352.485 134.123C352.543 134.412 352.513 134.712 352.4 134.984C352.287 135.257 352.096 135.49 351.851 135.654C351.605 135.818 351.317 135.905 351.022 135.905Z" fill="black"/>
<path d="M185.315 50.4398L216.544 50.3059V46.4238H185.315V50.4398Z" fill="black"/>
<path d="M273.227 157.781H219.929V160H273.227V157.781Z" fill="black"/>
<path d="M273.227 110.393H223.735L219.91 114.217V156.882H239.856V118.444H255.155V156.825H273.169L273.227 110.393ZM227.081 152.197C227.081 152.546 226.978 152.887 226.783 153.176C226.589 153.466 226.313 153.691 225.991 153.824C225.668 153.957 225.313 153.99 224.972 153.921C224.63 153.851 224.316 153.682 224.071 153.434C223.826 153.186 223.66 152.871 223.594 152.528C223.528 152.186 223.566 151.831 223.702 151.51C223.838 151.189 224.067 150.916 224.358 150.725C224.65 150.534 224.992 150.434 225.341 150.438C225.804 150.443 226.247 150.63 226.573 150.96C226.899 151.289 227.081 151.734 227.081 152.197ZM266.266 152.197C266.24 151.949 266.266 151.699 266.344 151.462C266.421 151.225 266.547 151.007 266.713 150.822C266.88 150.637 267.084 150.489 267.312 150.388C267.539 150.287 267.786 150.234 268.035 150.234C268.284 150.234 268.53 150.287 268.758 150.388C268.985 150.489 269.189 150.637 269.356 150.822C269.522 151.007 269.649 151.225 269.726 151.462C269.803 151.699 269.829 151.949 269.804 152.197C269.758 152.634 269.552 153.039 269.225 153.334C268.899 153.628 268.474 153.791 268.035 153.791C267.595 153.791 267.171 153.628 266.844 153.334C266.517 153.039 266.311 152.634 266.266 152.197Z" fill="black"/>
<path d="M254.275 119.42H240.774V156.807H254.275V119.42Z" fill="black"/>
<path d="M421.913 94.3676L422.563 90.9062H375.156C375.485 92.1528 375.582 93.4493 375.442 94.731H380.09V92.9525H382.633V94.731H385.827V92.9907H388.37V94.731H391.564V93.029H394.107V94.731H397.301V93.0481H399.844V94.7119H403.038V93.0672H405.581V94.6927H408.775V93.0863H411.318V94.6736H414.512V93.1055H417.056V94.6545L421.913 94.3676Z" fill="black"/>
<path d="M199.697 19.0011C199.697 19.0011 199.448 16.6107 199.371 16.3812C198.912 15.0808 197.249 14.3541 194.151 14.4689C191.053 14.5836 189.599 14.1629 188.796 16.3812C188.634 17.3626 188.634 18.364 188.796 19.3454C188.873 21.0091 199.792 21.3534 199.697 19.0011Z" fill="black"/>
<path d="M176.213 34.8364C175.563 37.1312 174.3 40.1528 175.084 43.5376C175.218 44.054 175.735 44.4747 176.997 44.513C177.245 44.513 221.153 44.513 223.238 44.513V18.1797C216.927 18.1797 206.027 18.1797 202.317 18.1797C201.418 18.1797 200.959 18.1797 200.768 18.696C200.538 20.6084 198.339 21.2968 194.801 21.3924C190.613 21.3924 188.318 20.9909 187.955 18.9829C187.915 18.7716 187.804 18.5804 187.641 18.4411C187.477 18.3019 187.271 18.2231 187.056 18.2179C185.602 18.2179 182.696 18.2179 180.879 18.2179C180.149 18.2719 179.442 18.4932 178.812 18.8646C178.182 19.2361 177.646 19.7477 177.245 20.3598C175.333 23.7447 173.631 27.0531 176.022 31.6045C176.504 32.6158 176.572 33.7753 176.213 34.8364ZM219.509 26.422C219.512 26.6278 219.455 26.8301 219.343 27.0028C219.231 27.1755 219.07 27.3108 218.88 27.3913C218.691 27.4719 218.481 27.4939 218.279 27.4547C218.077 27.4154 217.892 27.3167 217.746 27.1711C217.6 27.0256 217.502 26.8398 217.462 26.6377C217.423 26.4357 217.445 26.2265 217.526 26.037C217.606 25.8475 217.742 25.6865 217.914 25.5745C218.087 25.4625 218.289 25.4046 218.495 25.4084C218.762 25.4133 219.017 25.5217 219.206 25.7107C219.395 25.8997 219.504 26.1547 219.509 26.422ZM216.908 21.4689C217.113 21.469 217.313 21.5301 217.484 21.6444C217.654 21.7587 217.786 21.9212 217.864 22.111C217.941 22.3008 217.961 22.5094 217.919 22.7102C217.878 22.9111 217.777 23.095 217.631 23.2386C217.485 23.3823 217.299 23.4791 217.097 23.5167C216.896 23.5544 216.688 23.5312 216.499 23.4501C216.311 23.369 216.151 23.2337 216.04 23.0613C215.929 22.889 215.871 22.6875 215.875 22.4825C215.875 22.3478 215.902 22.2144 215.954 22.0902C216.006 21.9659 216.083 21.8533 216.179 21.759C216.275 21.6646 216.389 21.5903 216.514 21.5405C216.639 21.4907 216.773 21.4664 216.908 21.4689ZM214.422 24.9494C214.628 24.9457 214.83 25.0035 215.003 25.1155C215.175 25.2275 215.311 25.3886 215.391 25.578C215.472 25.7675 215.494 25.9767 215.455 26.1788C215.415 26.3809 215.317 26.5666 215.171 26.7122C215.025 26.8577 214.84 26.9565 214.638 26.9957C214.436 27.0349 214.226 27.0129 214.037 26.9324C213.847 26.8518 213.686 26.7165 213.574 26.5438C213.462 26.3711 213.404 26.1688 213.408 25.963C213.411 25.8274 213.44 25.6936 213.494 25.5692C213.548 25.4449 213.627 25.3325 213.724 25.2383C213.822 25.1442 213.937 25.0703 214.063 25.0207C214.19 24.9711 214.324 24.9469 214.46 24.9494H214.422Z" fill="black"/>
<path d="M156.171 153.344L155.884 145.695L155.75 145.905L152.155 136.841C152.155 136.535 152.155 136.535 159.078 127.546L159.345 127.202L164.509 130.453L165.388 129.115L160.359 125.653L168.926 114.485L178.928 114.37C180.496 113.835 181.07 114.542 181.07 114.542C182.176 115.602 183.552 116.336 185.047 116.665C189.274 116.665 199.256 116.952 199.945 116.665C213.752 110.718 204.19 99.9701 204.19 99.9701H207.786L209.009 97.6944L163.361 97.5032C162.949 97.5084 162.54 97.4306 162.158 97.2746C161.776 97.1186 161.429 96.8875 161.139 96.595C160.848 96.3024 160.619 95.9545 160.465 95.5717C160.312 95.189 160.236 94.7793 160.244 94.3669V85.8377H132.056V68.8751H36.2845C36.175 68.5863 36.0339 68.3105 35.8638 68.0527H24.6573L18.3848 74.3253V93.8123L143.836 93.3342L154.144 99.4729V110.412L154.01 110.565C152.709 111.846 151.026 113.51 149.152 115.307C143.588 120.801 137.659 125.913 131.406 130.606L125.477 137.931L151.619 157.494L156.171 153.344ZM181.242 104.158H184.894C184.74 104.662 184.644 105.182 184.608 105.707C184.474 109.092 184.608 110.22 187.036 111.98C188.124 112.456 189.328 112.602 190.498 112.4C190.192 111.406 187.075 110.22 188.471 105.497C189.211 103.431 190.582 101.652 192.391 100.41C192.887 100.071 193.474 99.8914 194.074 99.8936H199.811C200.465 99.8899 201.1 100.113 201.609 100.525C202.619 101.286 203.444 102.267 204.02 103.393C204.597 104.519 204.91 105.762 204.936 107.027C204.918 108.324 204.554 109.593 203.882 110.702C203.209 111.812 202.253 112.721 201.111 113.338C200.082 114.2 198.782 114.673 197.44 114.676H187.725C186.332 114.771 184.938 114.514 183.671 113.93C182.963 113.411 182.381 112.739 181.967 111.964C181.553 111.19 181.319 110.333 181.28 109.455C181.223 107.237 181.242 104.158 181.242 104.158Z" fill="black"/>
<path d="M153.13 136.67L155.98 143.841L158.294 140.552C160.378 136.976 162.271 133.878 164.031 131.181L159.537 128.408L153.13 136.67Z" fill="black"/>
<path d="M169.404 115.404L161.755 125.406L165.962 128.294C171.221 120.51 174.778 116.819 177.111 115.309L169.404 115.404Z" fill="black"/>
</svg>
