<svg width="512" height="512" viewBox="0 0 512 512" fill="none" xmlns="http://www.w3.org/2000/svg">
<path d="M232.259 190.412L276.472 184.605C276.682 184.579 276.874 184.471 277.006 184.304C277.137 184.138 277.197 183.926 277.172 183.715L275.736 172.2C275.727 172.087 275.694 171.978 275.64 171.879C275.585 171.78 275.509 171.694 275.418 171.627C275.327 171.56 275.223 171.514 275.112 171.491C275.001 171.468 274.887 171.47 274.777 171.495C261.672 174.27 234.825 177.492 231.788 177.854C231.606 177.883 231.441 177.978 231.325 178.122C227.226 182.497 230.535 188.228 231.577 190.033C231.643 190.154 231.742 190.255 231.863 190.322C231.984 190.389 232.121 190.42 232.259 190.412Z" fill="black"/>
<path d="M252.939 219.92L253.819 221.443L275.067 209.175L272.954 205.515L259.324 213.385L260.558 215.521L252.939 219.92Z" fill="black"/>
<path d="M279.304 179.834C279.609 179.453 279.995 179.145 280.434 178.933C280.873 178.721 281.354 178.61 281.842 178.607C282.33 178.605 282.812 178.712 283.253 178.921C283.694 179.129 284.083 179.433 284.392 179.811C284.583 180.143 288.991 195.197 288.991 195.197L293.81 192.415L288.669 175.134C288.453 174.358 287.969 173.685 287.304 173.232C286.638 172.78 285.834 172.577 285.033 172.662L276.927 173.919L277.776 181.511L279.304 179.834Z" fill="black"/>
<path d="M216.824 237.569L203.772 214.962L198.257 218.146L211.758 241.531C213.298 240.642 214.682 239.711 215.604 239.09C216.527 238.469 216.774 238.017 216.824 237.569Z" fill="black"/>
<path d="M150.764 296.487L146.389 283.975L135.769 285.469L132.132 292.824L137.525 302.165L143.167 303.677L150.764 296.487Z" fill="black"/>
<path d="M76.191 420.253L47.0848 369.84L49.5837 360.514L58.9741 355.092C57.6553 354.69 56.3051 354.398 54.9378 354.221C52.2876 356.445 49.3893 358.355 46.3005 359.914C40.8809 362.69 43.5185 368.52 43.5185 368.52L71.6111 417.178C73.7625 420.904 75.4126 420.703 76.191 420.253Z" fill="black"/>
<path d="M159.413 300.835L251.065 247.92L256.954 237.277L253.178 230.735L150.661 289.923L152.884 296.832L159.413 300.835Z" fill="black"/>
<path d="M206.587 213.337L204.6 214.484L212.326 227.866L213.164 224.843C212.664 223.939 207.154 214.357 206.587 213.337Z" fill="black"/>
<path d="M275.4 222.984L271.292 225.355L271.77 226.184L275.878 223.812L275.4 222.984Z" fill="black"/>
<path d="M291.111 257.502L287.162 250.662L282.173 249.325L279.887 245.367L273.014 249.335L276.829 255.943L272.325 258.544L281.466 274.376L286.451 271.498L291.111 257.502Z" fill="black"/>
<path d="M360.328 266.739L364.759 264.776L366.374 266.693C366.544 266.892 366.768 267.037 367.018 267.112C367.269 267.186 367.536 267.187 367.787 267.113L376.916 264.338C377.2 264.252 377.457 264.093 377.662 263.878C377.867 263.663 378.013 263.399 378.085 263.111L378.641 261.09C378.804 260.467 378.715 259.804 378.393 259.246L373.516 250.799C373.264 250.366 372.851 250.049 372.367 249.917L368.082 248.769L372.806 256.951C372.951 257.215 373.032 257.511 373.041 257.812C373.05 258.114 372.988 258.414 372.859 258.687C372.7 259.011 372.448 259.28 372.134 259.459C371.92 259.59 371.678 259.669 371.428 259.689L356.21 261.52L358.983 266.322C359.119 266.543 359.33 266.706 359.578 266.782C359.825 266.859 360.091 266.843 360.328 266.739Z" fill="black"/>
<path d="M273.2 219.174L269.093 221.545L269.868 222.886L273.975 220.515L273.2 219.174Z" fill="black"/>
<path d="M462.62 136.024C462.544 133.374 461.81 130.785 460.485 128.49C459.16 126.194 457.285 124.265 455.028 122.874L420.249 142.954C420.149 144.579 426.163 155.262 427.893 155.963L462.62 136.024Z" fill="black"/>
<path d="M279.224 229.609L275.117 231.98L275.777 233.123L279.884 230.752L279.224 229.609Z" fill="black"/>
<path d="M405.469 179.199C404.45 178.679 403.552 177.95 402.833 177.061C402.114 176.171 401.59 175.14 401.295 174.035L313.519 224.713L315.431 228.025L330.866 219.114L332.924 215.717L347.697 207.188L350.145 211.428L357.962 206.915L356.299 204.033L358.932 202.513C360.68 202.725 362.35 203.36 363.798 204.362L405.748 180.142L405.469 179.199Z" fill="black"/>
<path d="M278.268 227.953L274.161 230.324L274.639 231.152L278.746 228.781L278.268 227.953Z" fill="black"/>
<path d="M277.312 226.297L273.205 228.668L273.683 229.496L277.79 227.125L277.312 226.297Z" fill="black"/>
<path d="M271.16 250.406L233.697 272.035L228.765 289.501L235.754 285.466L238.811 275.729L274.021 255.401L271.16 250.406Z" fill="black"/>
<path d="M274.443 221.328L270.336 223.699L270.814 224.527L274.922 222.156L274.443 221.328Z" fill="black"/>
<path d="M243.805 296.12L279.81 275.333L270.688 259.533L240.43 277.002L237.79 285.703L243.805 296.12Z" fill="black"/>
<path d="M272.124 247.642L278.931 243.712L278.912 243.679L285.255 240.016L280.866 232.415L267.707 239.99L272.124 247.642Z" fill="black"/>
<path d="M276.356 224.64L272.248 227.012L272.727 227.84L276.834 225.468L276.356 224.64Z" fill="black"/>
<path d="M226.685 290.679L232.062 270.771L270.154 248.778L264.78 239.471L274.932 233.609L268.239 222.016L254.758 229.8L259.013 237.169L252.484 249.308L159.458 303.016L151.772 298.157L144.346 305.183L153.028 320.221L177.721 305.964L181.46 312.44C181.653 312.22 181.883 312.035 182.138 311.894C182.534 311.668 182.975 311.533 183.429 311.498C183.883 311.462 184.339 311.527 184.766 311.688C185.192 311.849 185.577 312.102 185.894 312.429C186.211 312.756 186.453 313.148 186.601 313.579L226.685 290.679Z" fill="black"/>
<path d="M398.979 146.732L407.955 141.549C407.391 140.572 405.353 137.31 403.557 133.931C400.046 127.39 400.568 127.53 393.227 131.835C386.486 135.727 387.383 134.525 392.129 142.516C392.141 142.576 395.59 146.37 398.979 146.732Z" fill="black"/>
<path d="M419.451 146.926L414.885 149.65L419.398 157.467L424.002 154.809L419.451 146.926Z" fill="black"/>
<path d="M284.958 235.638L287.062 239.281L291.016 240.355L306.236 231.567L307.753 225.856L419.477 161.352L417.087 157.211L404.367 164.555C403.928 164.809 403.406 164.877 402.916 164.746C402.426 164.615 402.009 164.294 401.755 163.855L396.391 154.564L387.464 159.718L393.134 169.539C393.314 169.851 393.363 170.221 393.27 170.569C393.177 170.917 392.949 171.213 392.637 171.394L285.699 233.134L284.958 235.638Z" fill="black"/>
<path d="M58.3347 387.412L78.6249 422.556C81.8026 426.109 84.4749 424.809 84.4749 424.809L120.843 402.509C121.569 402.06 122.167 401.431 122.579 400.683C122.99 399.934 123.201 399.092 123.191 398.239L122.645 362.869L110.273 370.012L105.215 368.671L84.9601 380.365L75.4097 377.554L58.3347 387.412ZM82.0577 386.965L85.7804 413.301C85.8366 413.664 85.7804 414.035 85.6195 414.365C85.4585 414.695 85.2005 414.967 84.8802 415.146L80.7398 417.537C80.3148 417.783 79.8115 417.856 79.3341 417.741C78.8566 417.626 78.4417 417.332 78.1752 416.919L64.4349 393.12C64.1813 392.681 64.1126 392.159 64.2438 391.669C64.3751 391.179 64.6956 390.762 65.1349 390.508L75.4858 384.532C75.9099 384.295 76.4083 384.228 76.8798 384.346L80.6676 385.36C81.0278 385.461 81.3505 385.665 81.5959 385.947C81.8412 386.23 81.9985 386.578 82.0481 386.948L82.0577 386.965Z" fill="black"/>
<path d="M84.8302 379.336L105.068 367.652L110.153 369L122.624 361.8L122.445 350.399L76.4038 376.98L84.8302 379.336ZM115.974 356.784C116.452 356.508 117.002 356.38 117.553 356.416C118.104 356.452 118.632 356.651 119.07 356.987C119.508 357.323 119.836 357.782 120.014 358.305C120.191 358.828 120.21 359.392 120.067 359.925C119.924 360.458 119.626 360.937 119.211 361.302C118.796 361.666 118.282 361.898 117.735 361.971C117.187 362.043 116.63 361.951 116.135 361.707C115.64 361.462 115.228 361.077 114.952 360.598C114.765 360.279 114.643 359.925 114.594 359.557C114.546 359.19 114.572 358.816 114.67 358.459C114.768 358.102 114.937 357.768 115.167 357.477C115.397 357.186 115.682 356.944 116.007 356.765L115.974 356.784Z" fill="black"/>
<path d="M118.312 360.758C118.639 360.569 118.903 360.287 119.071 359.948C119.238 359.609 119.301 359.228 119.252 358.853C119.202 358.478 119.043 358.126 118.793 357.841C118.544 357.557 118.216 357.353 117.85 357.255C117.485 357.157 117.099 357.17 116.741 357.291C116.383 357.413 116.069 357.638 115.838 357.938C115.608 358.238 115.472 358.6 115.447 358.977C115.422 359.355 115.51 359.731 115.699 360.059C115.953 360.498 116.371 360.818 116.861 360.95C117.35 361.081 117.872 361.012 118.312 360.758Z" fill="black"/>
<path d="M182.291 313.574C182.052 313.889 181.931 314.277 181.947 314.672C181.963 315.067 182.117 315.444 182.381 315.738C182.644 316.032 183.002 316.226 183.393 316.285C183.784 316.344 184.183 316.265 184.522 316.062C184.838 315.88 185.086 315.599 185.227 315.262C185.368 314.925 185.394 314.552 185.301 314.199C185.248 314.047 185.167 313.907 185.062 313.785C184.838 313.397 184.47 313.112 184.038 312.994C183.606 312.876 183.144 312.932 182.754 313.152C182.574 313.262 182.417 313.405 182.291 313.574Z" fill="black"/>
<path d="M297.663 196.947L298.725 198.785L297.88 199.273L294.319 193.18L289.102 196.192L287.957 197.958L274.26 205.865L276.077 209.012L280.155 210.721L372.663 157.643L370.932 154.645L368.05 156.309L369.016 157.982L366.78 159.272L365.814 157.6L363.082 159.177L364.047 160.85L361.812 162.141L360.846 160.468L358.113 162.046L359.079 163.719L359.062 163.728L359.12 163.828L356.884 165.118L355.861 163.346L353.145 164.914L354.11 166.587L354.044 166.625L354.111 166.741L351.875 168.032L350.843 166.244L349.12 167.238L348.044 167.859L349.076 169.648L346.857 170.929L345.824 169.141L343.026 170.757L344.058 172.545L341.822 173.836L340.79 172.048L337.991 173.664L339.033 175.469L336.814 176.75L335.772 174.945L332.973 176.561L334.015 178.366L331.796 179.647L330.753 177.842L327.955 179.458L328.997 181.263L326.761 182.554L325.719 180.749L322.92 182.365L323.972 184.187L321.752 185.468L320.701 183.646L317.902 185.262L318.953 187.084L316.718 188.375L315.666 186.553L312.867 188.169L313.919 189.991L311.699 191.272L310.648 189.45L307.849 191.066L308.901 192.888L306.674 194.195L305.613 192.357L302.814 193.973L303.875 195.811L301.656 197.092L300.595 195.254L297.663 196.947Z" fill="black"/>
<path d="M283.603 233.329L284.009 231.814L301.747 221.573L293.648 207.546C293.468 207.234 293.419 206.863 293.512 206.515C293.605 206.167 293.833 205.871 294.145 205.691L382.766 154.525C382.92 154.436 383.091 154.378 383.268 154.355C383.444 154.332 383.624 154.344 383.796 154.39C383.968 154.436 384.13 154.516 384.271 154.624C384.413 154.733 384.531 154.868 384.621 155.022L386.361 158.037L396.944 151.927L402.308 161.218C402.562 161.657 402.979 161.977 403.469 162.109C403.959 162.24 404.481 162.171 404.92 161.918L415.983 155.53L408.716 142.944L398.722 148.581C396.455 148.108 394.359 147.029 392.657 145.458L382.72 151.195L380.483 147.32L373.626 151.278C373.305 151.467 373.056 151.758 372.92 152.105C372.784 152.452 372.769 152.834 372.876 153.191L374.309 157.663L280.108 211.785L275.389 209.807L243.922 227.974L245.136 230.078L242.933 231.349L241.719 229.246L238.953 230.843L240.168 232.946L237.965 234.218L236.75 232.114L233.985 233.711L235.199 235.815L232.996 237.086L231.782 234.983L229.016 236.58L230.231 238.683L228.028 239.955L226.814 237.852L224.048 239.448L225.262 241.552L223.059 242.823L221.845 240.72L219.079 242.317L220.294 244.42L218.091 245.692L216.877 243.589L214.111 245.186L215.325 247.289L213.122 248.561L211.908 246.457L209.142 248.054L210.529 250.455L179.94 268.116L178.534 265.682L175.768 267.278L177.04 269.481L174.837 270.753L173.565 268.55L170.8 270.147L172.071 272.35L169.869 273.621L168.597 271.419L165.831 273.016L167.103 275.218L164.9 276.49L163.629 274.287L148.442 283.055L150.044 288.049L273.908 216.536L283.603 233.329ZM403.138 156.498C403.317 156.281 403.532 156.098 403.774 155.955C404.244 155.683 404.803 155.61 405.327 155.75C405.851 155.891 406.298 156.234 406.569 156.704C406.672 156.884 406.747 157.079 406.793 157.281C406.897 157.758 406.829 158.256 406.598 158.687C406.368 159.117 405.992 159.451 405.537 159.628C405.083 159.805 404.58 159.814 404.119 159.653C403.658 159.492 403.27 159.172 403.025 158.75C402.826 158.403 402.731 158.007 402.751 157.608C402.771 157.208 402.906 156.823 403.138 156.498Z" fill="black"/>
<path d="M405.351 158.689C405.556 158.569 405.715 158.386 405.804 158.167C405.894 157.947 405.908 157.705 405.844 157.477C405.819 157.376 405.766 157.284 405.691 157.212C405.547 156.961 405.309 156.779 405.029 156.704C404.75 156.629 404.453 156.668 404.202 156.813C404.074 156.88 403.962 156.974 403.872 157.087C403.781 157.2 403.715 157.33 403.678 157.47C403.641 157.61 403.632 157.756 403.654 157.899C403.675 158.042 403.726 158.179 403.803 158.302C403.876 158.433 403.974 158.547 404.093 158.639C404.212 158.73 404.348 158.796 404.493 158.832C404.638 158.868 404.79 158.874 404.937 158.85C405.085 158.825 405.226 158.77 405.351 158.689Z" fill="black"/>
<path d="M295.581 207.07L303.393 220.601L391.07 169.981L383.258 156.45L295.581 207.07ZM312.253 205.35C312.24 205.409 312.214 205.465 312.177 205.513C312.14 205.561 312.093 205.6 312.039 205.628C311.985 205.663 311.925 205.685 311.862 205.695C311.799 205.704 311.735 205.701 311.674 205.685L307.337 204.523C307.219 204.485 307.12 204.405 307.058 204.298C306.996 204.19 306.976 204.064 307.003 203.943C307.018 203.881 307.046 203.822 307.085 203.771C307.123 203.719 307.172 203.676 307.228 203.644C307.283 203.612 307.345 203.591 307.409 203.584C307.472 203.576 307.537 203.581 307.599 203.599L311.919 204.77C311.981 204.781 312.04 204.804 312.092 204.839C312.145 204.873 312.19 204.918 312.224 204.971C312.259 205.023 312.282 205.082 312.293 205.144C312.304 205.206 312.301 205.27 312.287 205.331L312.253 205.35ZM316.245 210.465C316.135 210.529 316.004 210.546 315.882 210.513C315.759 210.48 315.655 210.4 315.592 210.29L313.354 206.415C313.291 206.305 313.273 206.174 313.306 206.052C313.339 205.93 313.419 205.825 313.529 205.762C313.639 205.698 313.769 205.681 313.892 205.714C314.014 205.747 314.119 205.827 314.182 205.937L316.42 209.812C316.48 209.916 316.499 210.039 316.473 210.157C316.447 210.274 316.377 210.378 316.278 210.446L316.245 210.465ZM315.505 199.851L314.343 204.188C314.326 204.249 314.297 204.307 314.257 204.356C314.218 204.406 314.168 204.446 314.112 204.476C314.06 204.507 314.002 204.527 313.942 204.535C313.882 204.543 313.821 204.539 313.763 204.522C313.702 204.508 313.645 204.481 313.594 204.444C313.544 204.407 313.502 204.359 313.47 204.305C313.439 204.251 313.419 204.191 313.412 204.128C313.405 204.066 313.41 204.003 313.428 203.943L314.574 199.616C314.589 199.554 314.617 199.495 314.656 199.444C314.695 199.392 314.743 199.349 314.799 199.317C314.854 199.285 314.916 199.264 314.98 199.257C315.044 199.249 315.108 199.254 315.17 199.272C315.28 199.305 315.375 199.377 315.439 199.473C315.503 199.569 315.531 199.684 315.519 199.799L315.505 199.851ZM325.424 201.389L324.279 205.716C324.262 205.778 324.233 205.835 324.194 205.885C324.154 205.934 324.104 205.975 324.048 206.004C323.938 206.069 323.807 206.089 323.683 206.06C323.565 206.023 323.465 205.943 323.403 205.835C323.341 205.728 323.322 205.602 323.348 205.481L324.51 201.144C324.518 201.076 324.541 201.011 324.577 200.952C324.612 200.894 324.66 200.844 324.717 200.805C324.774 200.767 324.838 200.741 324.905 200.73C324.973 200.719 325.042 200.722 325.108 200.74C325.175 200.757 325.236 200.789 325.289 200.833C325.342 200.876 325.385 200.931 325.415 200.992C325.444 201.054 325.461 201.121 325.463 201.19C325.464 201.258 325.451 201.326 325.424 201.389ZM325.305 199.537C325.195 199.601 325.064 199.618 324.942 199.585C324.819 199.552 324.715 199.472 324.651 199.362L322.414 195.487C322.351 195.377 322.333 195.247 322.366 195.124C322.399 195.002 322.479 194.897 322.589 194.834C322.699 194.77 322.829 194.753 322.952 194.786C323.074 194.819 323.179 194.899 323.242 195.009L325.48 198.884C325.529 198.987 325.54 199.104 325.51 199.214C325.481 199.325 325.413 199.421 325.319 199.485L325.305 199.537ZM331.831 201.356C331.794 201.478 331.711 201.581 331.6 201.644C331.546 201.678 331.486 201.701 331.423 201.71C331.36 201.72 331.296 201.717 331.235 201.7L326.915 200.529C326.809 200.484 326.723 200.402 326.673 200.298C326.622 200.195 326.611 200.076 326.641 199.965C326.671 199.854 326.739 199.757 326.835 199.693C326.93 199.629 327.046 199.601 327.16 199.614L331.496 200.776C331.607 200.81 331.702 200.881 331.765 200.978C331.829 201.074 331.857 201.189 331.845 201.304L331.831 201.356ZM335.459 191.996C335.445 192.056 335.419 192.111 335.382 192.159C335.345 192.207 335.298 192.247 335.244 192.275C335.191 192.309 335.13 192.332 335.068 192.341C335.005 192.351 334.941 192.348 334.879 192.331L330.543 191.169C330.425 191.132 330.325 191.051 330.263 190.944C330.201 190.837 330.182 190.71 330.208 190.59C330.223 190.527 330.251 190.469 330.29 190.417C330.329 190.366 330.377 190.323 330.433 190.291C330.489 190.259 330.55 190.238 330.614 190.23C330.678 190.222 330.742 190.228 330.804 190.245L335.124 191.417C335.239 191.443 335.339 191.513 335.404 191.611C335.469 191.709 335.493 191.828 335.473 191.944L335.459 191.996ZM339.45 197.112C339.34 197.175 339.21 197.192 339.087 197.159C338.965 197.127 338.86 197.047 338.797 196.937L336.559 193.061C336.496 192.952 336.479 192.821 336.512 192.699C336.544 192.576 336.625 192.472 336.734 192.408C336.844 192.345 336.975 192.328 337.097 192.36C337.22 192.393 337.324 192.473 337.387 192.583L339.625 196.459C339.674 196.562 339.685 196.679 339.656 196.789C339.626 196.899 339.558 196.995 339.464 197.059L339.45 197.112ZM338.71 186.498L337.548 190.834C337.532 190.896 337.503 190.953 337.463 191.003C337.423 191.052 337.373 191.093 337.317 191.122C337.265 191.154 337.208 191.174 337.148 191.182C337.088 191.19 337.027 191.186 336.968 191.169C336.907 191.155 336.85 191.128 336.8 191.091C336.749 191.053 336.707 191.006 336.676 190.952C336.644 190.897 336.624 190.837 336.617 190.775C336.61 190.713 336.616 190.649 336.634 190.589L337.779 186.262C337.795 186.2 337.823 186.141 337.861 186.09C337.9 186.039 337.948 185.996 338.004 185.964C338.06 185.931 338.121 185.911 338.185 185.903C338.249 185.895 338.314 185.9 338.375 185.918C338.476 185.954 338.563 186.022 338.622 186.111C338.681 186.2 338.711 186.306 338.705 186.412L338.71 186.498ZM348.63 188.036L347.484 192.363C347.468 192.424 347.439 192.481 347.399 192.531C347.359 192.581 347.309 192.621 347.253 192.651C347.143 192.716 347.012 192.736 346.888 192.707C346.77 192.669 346.67 192.589 346.608 192.482C346.547 192.375 346.527 192.248 346.553 192.127L347.715 187.791C347.723 187.723 347.746 187.657 347.782 187.599C347.818 187.54 347.865 187.49 347.922 187.452C347.979 187.414 348.043 187.388 348.111 187.377C348.178 187.365 348.248 187.369 348.314 187.386C348.38 187.404 348.441 187.436 348.494 187.479C348.547 187.523 348.59 187.577 348.62 187.639C348.65 187.701 348.666 187.768 348.668 187.836C348.67 187.905 348.656 187.973 348.63 188.036ZM348.51 186.184C348.4 186.247 348.27 186.264 348.147 186.232C348.025 186.199 347.92 186.119 347.857 186.009L345.619 182.133C345.556 182.024 345.539 181.893 345.572 181.771C345.604 181.648 345.684 181.544 345.794 181.48C345.904 181.417 346.035 181.4 346.157 181.433C346.28 181.465 346.384 181.546 346.447 181.655L348.685 185.531C348.724 185.632 348.727 185.743 348.694 185.846C348.661 185.949 348.595 186.038 348.505 186.098L348.51 186.184ZM355.036 188.003C354.999 188.125 354.916 188.228 354.805 188.291C354.751 188.325 354.691 188.347 354.628 188.357C354.566 188.367 354.501 188.363 354.44 188.347L350.12 187.175C350.014 187.13 349.928 187.048 349.878 186.945C349.828 186.841 349.816 186.723 349.846 186.612C349.876 186.501 349.945 186.404 350.04 186.34C350.135 186.275 350.251 186.247 350.365 186.261L354.702 187.423C354.802 187.459 354.889 187.526 354.948 187.615C355.008 187.704 355.037 187.81 355.031 187.917L355.036 188.003ZM358.664 178.643C358.651 178.702 358.624 178.758 358.587 178.806C358.55 178.854 358.503 178.893 358.45 178.921C358.396 178.956 358.336 178.978 358.273 178.988C358.21 178.998 358.146 178.994 358.084 178.978L353.748 177.816C353.63 177.778 353.53 177.698 353.468 177.591C353.407 177.483 353.387 177.357 353.413 177.236C353.429 177.174 353.457 177.115 353.495 177.064C353.534 177.012 353.583 176.969 353.638 176.937C353.694 176.905 353.755 176.885 353.819 176.877C353.883 176.869 353.948 176.874 354.01 176.892L358.329 178.063C358.434 178.093 358.525 178.159 358.585 178.25C358.645 178.341 358.672 178.45 358.659 178.558L358.664 178.643ZM362.655 183.758C362.545 183.822 362.415 183.839 362.293 183.806C362.17 183.773 362.066 183.693 362.002 183.583L359.765 179.708C359.701 179.598 359.684 179.468 359.717 179.345C359.75 179.223 359.83 179.118 359.94 179.055C360.05 178.991 360.18 178.974 360.303 179.007C360.425 179.04 360.529 179.12 360.593 179.23L362.83 183.105C362.869 183.206 362.872 183.317 362.839 183.421C362.807 183.524 362.74 183.613 362.65 183.673L362.655 183.758ZM361.915 173.144L360.753 177.481C360.737 177.542 360.708 177.6 360.668 177.649C360.628 177.699 360.579 177.74 360.522 177.769C360.471 177.8 360.413 177.821 360.353 177.829C360.293 177.837 360.232 177.832 360.174 177.816C360.113 177.801 360.055 177.775 360.005 177.737C359.955 177.7 359.912 177.653 359.881 177.598C359.85 177.544 359.83 177.484 359.823 177.421C359.815 177.359 359.821 177.296 359.839 177.236L360.985 172.909C361 172.847 361.028 172.788 361.067 172.737C361.105 172.685 361.154 172.642 361.209 172.61C361.265 172.578 361.327 172.557 361.39 172.55C361.454 172.542 361.519 172.547 361.581 172.565C361.673 172.602 361.751 172.666 361.806 172.748C361.862 172.83 361.891 172.927 361.891 173.026L361.915 173.144ZM371.835 174.682L370.69 179.009C370.673 179.071 370.644 179.128 370.604 179.178C370.564 179.227 370.515 179.268 370.458 179.297C370.348 179.362 370.218 179.382 370.093 179.354C369.975 179.316 369.876 179.236 369.814 179.128C369.752 179.021 369.732 178.895 369.759 178.774L370.921 174.437C370.929 174.369 370.951 174.304 370.987 174.245C371.023 174.187 371.071 174.137 371.127 174.099C371.184 174.06 371.249 174.034 371.316 174.023C371.384 174.012 371.453 174.015 371.519 174.033C371.585 174.051 371.647 174.082 371.7 174.126C371.752 174.169 371.795 174.224 371.825 174.286C371.855 174.347 371.872 174.414 371.873 174.483C371.875 174.551 371.862 174.619 371.835 174.682ZM371.715 172.83C371.605 172.894 371.475 172.911 371.352 172.878C371.23 172.845 371.126 172.765 371.062 172.655L368.825 168.78C368.761 168.67 368.744 168.54 368.777 168.417C368.81 168.295 368.89 168.19 369 168.127C369.109 168.063 369.24 168.046 369.362 168.079C369.485 168.112 369.589 168.192 369.653 168.302L371.89 172.177C371.919 172.276 371.915 172.381 371.879 172.478C371.843 172.574 371.777 172.656 371.691 172.712L371.715 172.83ZM378.242 174.649C378.204 174.771 378.122 174.874 378.01 174.937C377.957 174.971 377.897 174.994 377.834 175.004C377.771 175.013 377.707 175.01 377.645 174.993L373.325 173.822C373.22 173.777 373.134 173.695 373.083 173.591C373.033 173.488 373.022 173.37 373.051 173.258C373.081 173.147 373.15 173.051 373.245 172.986C373.341 172.922 373.456 172.894 373.57 172.908L377.907 174.069C377.999 174.107 378.077 174.17 378.133 174.253C378.188 174.335 378.217 174.432 378.217 174.531L378.242 174.649Z" fill="black"/>
<path d="M349.371 213.223L347.315 209.662L334.181 217.245L332.421 220.469L333.234 221.877L332.205 225.717L334.261 229.278L338.196 230.318L355.694 260.626L371.313 258.763C371.46 258.76 371.603 258.719 371.731 258.646C371.858 258.572 371.965 258.468 372.042 258.343C372.111 258.211 372.145 258.064 372.14 257.916C372.136 257.768 372.093 257.623 372.016 257.496L363.755 243.187L356.106 229.937C357.624 225.682 356.495 223.574 354.202 222.204C352.425 221.154 348.032 220.466 348.191 216.841C348.226 215.546 348.636 214.29 349.371 213.223ZM366.956 256.686C366.613 256.884 366.206 256.937 365.824 256.835C365.442 256.732 365.116 256.482 364.918 256.14C364.771 255.884 364.702 255.591 364.721 255.296C364.741 255.002 364.847 254.72 365.026 254.486C365.206 254.252 365.451 254.076 365.73 253.981C366.01 253.887 366.311 253.877 366.596 253.953C366.881 254.03 367.137 254.189 367.331 254.41C367.526 254.632 367.65 254.907 367.689 255.199C367.727 255.492 367.678 255.789 367.548 256.054C367.417 256.318 367.211 256.538 366.956 256.686Z" fill="black"/>
<path d="M180.717 265.525L207.696 249.794L205.755 246.432L178.709 262.047L180.717 265.525Z" fill="black"/>
<path d="M310.522 314.529L264.365 341.178L265.474 343.099L311.631 316.45L310.522 314.529Z" fill="black"/>
<path d="M286.827 273.49L243.966 298.236L242.566 303.461L263.899 340.41L281.172 330.437L261.953 297.148L275.202 289.498L294.393 322.737L309.994 313.73L286.827 273.49ZM267.767 332.766C267.941 333.068 268.022 333.415 267.998 333.763C267.975 334.111 267.849 334.445 267.636 334.721C267.423 334.997 267.132 335.204 266.802 335.314C266.471 335.425 266.115 335.435 265.778 335.343C265.442 335.251 265.14 335.061 264.912 334.797C264.684 334.533 264.539 334.207 264.497 333.861C264.454 333.515 264.515 333.164 264.672 332.853C264.83 332.541 265.076 332.284 265.38 332.113C265.784 331.886 266.261 331.827 266.707 331.949C267.154 332.071 267.535 332.365 267.767 332.766ZM301.701 313.174C301.555 312.972 301.453 312.742 301.401 312.499C301.35 312.255 301.35 312.003 301.402 311.76C301.454 311.516 301.556 311.286 301.703 311.084C301.849 310.883 302.036 310.715 302.252 310.59C302.468 310.465 302.707 310.388 302.955 310.361C303.202 310.335 303.453 310.362 303.69 310.438C303.927 310.515 304.145 310.641 304.33 310.808C304.515 310.974 304.664 311.178 304.765 311.405C304.944 311.807 304.969 312.261 304.833 312.679C304.697 313.097 304.411 313.451 304.03 313.67C303.649 313.89 303.201 313.961 302.77 313.87C302.34 313.778 301.959 313.53 301.701 313.174Z" fill="black"/>
<path d="M274.929 290.783L263.236 297.533L281.929 329.911L293.622 323.16L274.929 290.783Z" fill="black"/>
<path d="M407.581 185.267L406.413 181.945L365.357 205.648C366.265 206.563 366.998 207.638 367.518 208.817L371.542 206.494L370.653 204.954L372.856 203.682L373.745 205.222L376.511 203.625L375.641 202.118L377.843 200.846L378.713 202.354L381.479 200.757L380.628 199.283L382.831 198.011L383.682 199.485L386.448 197.888L385.606 196.431L387.809 195.159L388.641 196.6L391.407 195.003L390.584 193.579L392.787 192.307L393.6 193.715L396.365 192.118L395.562 190.727L397.765 189.455L398.559 190.83L401.324 189.233L400.54 187.875L402.743 186.603L403.517 187.945L407.581 185.267Z" fill="black"/>
<path d="M177.453 231.108C177.453 231.108 176.042 229.162 175.861 229.001C174.813 228.105 173.009 228.307 170.384 229.956C167.758 231.604 166.289 231.966 166.703 234.289C167.053 235.22 167.553 236.087 168.185 236.856C169.083 238.259 178.711 233.097 177.453 231.108Z" fill="black"/>
<path d="M165.032 256.563C165.616 258.875 166.034 262.123 168.406 264.662C168.78 265.043 169.437 265.149 170.549 264.551C170.765 264.427 208.79 242.473 210.595 241.43L197.429 218.625C191.963 221.781 182.523 227.231 179.31 229.086C178.532 229.535 178.134 229.765 178.227 230.307C178.984 232.078 177.424 233.774 174.408 235.626C170.781 237.72 168.593 238.52 167.274 236.962C167.134 236.799 166.943 236.689 166.732 236.65C166.52 236.611 166.302 236.646 166.113 236.749C164.855 237.476 162.337 238.929 160.764 239.838C160.159 240.249 159.657 240.794 159.297 241.431C158.937 242.068 158.729 242.779 158.688 243.509C158.724 247.397 158.905 251.113 163.251 253.859C164.174 254.494 164.813 255.464 165.032 256.563ZM198.32 227.628C198.427 227.804 198.478 228.008 198.467 228.214C198.456 228.419 198.384 228.617 198.261 228.781C198.137 228.946 197.967 229.07 197.772 229.137C197.577 229.204 197.367 229.211 197.168 229.158C196.97 229.105 196.791 228.993 196.656 228.838C196.521 228.682 196.436 228.49 196.411 228.286C196.386 228.081 196.422 227.874 196.516 227.691C196.609 227.508 196.756 227.356 196.936 227.257C197.17 227.127 197.445 227.094 197.703 227.163C197.961 227.232 198.182 227.399 198.32 227.628ZM193.591 224.639C193.769 224.536 193.973 224.489 194.178 224.503C194.382 224.517 194.578 224.591 194.74 224.717C194.902 224.842 195.023 225.013 195.088 225.208C195.152 225.403 195.158 225.612 195.103 225.81C195.048 226.007 194.935 226.184 194.779 226.317C194.624 226.451 194.432 226.535 194.228 226.559C194.025 226.583 193.818 226.545 193.636 226.452C193.454 226.358 193.303 226.212 193.204 226.033C193.137 225.916 193.093 225.787 193.076 225.654C193.059 225.52 193.069 225.384 193.105 225.254C193.141 225.125 193.203 225.003 193.286 224.898C193.37 224.792 193.474 224.704 193.591 224.639ZM193.179 228.896C193.355 228.79 193.559 228.739 193.765 228.749C193.97 228.76 194.168 228.832 194.332 228.956C194.497 229.079 194.621 229.25 194.688 229.444C194.755 229.639 194.762 229.849 194.709 230.048C194.656 230.247 194.544 230.425 194.389 230.56C194.233 230.695 194.041 230.781 193.837 230.806C193.632 230.831 193.425 230.794 193.242 230.7C193.059 230.607 192.907 230.461 192.808 230.28C192.742 230.162 192.7 230.031 192.685 229.896C192.67 229.762 192.681 229.625 192.719 229.495C192.757 229.365 192.819 229.243 192.904 229.137C192.988 229.031 193.093 228.942 193.212 228.877L193.179 228.896Z" fill="black"/>
<path d="M206.93 369.216L202.857 362.735L202.846 362.984L195.2 356.931C195.047 356.666 195.047 356.666 196.548 345.421L196.608 344.989L202.705 345.223L202.798 343.623L196.711 343.141L198.547 329.185L207.151 324.085C208.242 322.837 209.092 323.163 209.092 323.163C210.58 323.527 212.139 323.475 213.598 323.012C217.258 320.899 226.047 316.156 226.5 315.564C235.484 303.509 221.829 298.983 221.829 298.983L224.943 297.185L224.865 294.602L185.237 317.261C184.882 317.471 184.489 317.609 184.08 317.665C183.671 317.72 183.256 317.693 182.858 317.585C182.46 317.478 182.087 317.291 181.763 317.036C181.438 316.781 181.168 316.464 180.969 316.103L176.704 308.717L152.293 322.811L143.811 308.121L60.8708 356.006C60.6316 355.811 60.3715 355.643 60.0953 355.505L50.3902 361.108L48.0943 369.676L57.8378 386.553L166.243 323.413L178.239 323.575L183.708 333.049L183.669 333.248C183.183 335.008 182.558 337.29 181.833 339.784C179.762 347.324 177.183 354.715 174.114 361.907L172.642 371.214L205.063 375.085L206.93 369.216ZM204.049 314.084L207.212 312.258C207.331 312.771 207.507 313.269 207.738 313.742C209.315 316.741 209.995 317.651 212.978 317.96C214.158 317.829 215.274 317.354 216.186 316.594C215.424 315.886 212.131 316.418 210.979 311.629C210.587 309.47 210.885 307.243 211.83 305.263C212.09 304.722 212.509 304.273 213.03 303.975L217.998 301.106C218.563 300.776 219.224 300.651 219.87 300.754C221.126 300.908 222.331 301.345 223.393 302.032C224.456 302.719 225.348 303.639 226.003 304.721C226.636 305.853 226.955 307.134 226.928 308.431C226.9 309.728 226.527 310.994 225.846 312.099C225.386 313.36 224.497 314.42 223.336 315.094L214.922 319.951C213.764 320.729 212.428 321.204 211.039 321.332C210.166 321.236 209.326 320.946 208.58 320.482C207.835 320.018 207.203 319.393 206.731 318.652C205.572 316.76 204.049 314.084 204.049 314.084Z" fill="black"/>
<path d="M195.959 356.293L202.012 361.079L202.372 357.074C202.389 352.934 202.479 349.305 202.655 346.09L197.376 345.935L195.959 356.293Z" fill="black"/>
<path d="M199.42 329.741L197.796 342.227L202.883 342.624C203.546 333.254 204.781 328.279 206.046 325.804L199.42 329.741Z" fill="black"/>
</svg>
