<svg width="512" height="512" viewBox="0 0 512 512" fill="none" xmlns="http://www.w3.org/2000/svg">
<path d="M268.509 187.161L309.701 204.238C309.896 204.321 310.117 204.323 310.314 204.245C310.511 204.166 310.669 204.012 310.753 203.817L315.266 193.127C315.315 193.025 315.342 192.914 315.344 192.801C315.346 192.688 315.323 192.576 315.278 192.472C315.232 192.369 315.165 192.276 315.08 192.201C314.996 192.126 314.896 192.07 314.788 192.037C302.052 187.887 277.191 177.255 274.38 176.05C274.207 175.983 274.017 175.983 273.844 176.05C268.107 177.79 268.107 184.407 268.107 186.491C268.104 186.629 268.139 186.766 268.21 186.884C268.282 187.003 268.385 187.099 268.509 187.161Z" fill="black"/>
<path d="M271.664 223.055V224.814H296.2V220.588H280.461V223.055H271.664Z" fill="black"/>
<path d="M314.539 201.522C314.994 201.344 315.482 201.271 315.969 201.307C316.455 201.342 316.928 201.487 317.351 201.729C317.775 201.971 318.139 202.304 318.417 202.705C318.694 203.106 318.879 203.564 318.957 204.046C318.957 204.429 315.247 219.67 315.247 219.67H320.812L325 202.134C325.201 201.354 325.119 200.529 324.768 199.804C324.418 199.08 323.823 198.502 323.088 198.175L315.438 195.211L312.378 202.21L314.539 201.522Z" fill="black"/>
<path d="M231.562 220.283V194.18H225.194V221.182C226.972 221.182 228.636 221.068 229.745 220.991C230.855 220.915 231.294 220.647 231.562 220.283Z" fill="black"/>
<path d="M144.893 238.277L147.36 225.254L137.416 221.238L130.589 225.79V236.575L134.72 240.706L144.893 238.277Z" fill="black"/>
<path d="M18.4287 308.176V249.963L25.2559 243.136H36.099C35.1581 242.128 34.1346 241.201 33.0392 240.363C29.632 240.964 26.1667 241.17 22.7124 240.975C16.6311 240.669 16 247.037 16 247.037V303.223C16 307.526 17.5299 308.176 18.4287 308.176Z" fill="black"/>
<path d="M150.21 246.367H256.04L266.463 240.095V232.541H148.087L146.557 239.636L150.21 246.367Z" fill="black"/>
<path d="M234.813 194.18H232.518V209.632L234.755 207.432C234.774 206.4 234.794 195.346 234.813 194.18Z" fill="black"/>
<path d="M289.583 236.939H284.84V237.896H289.583V236.939Z" fill="black"/>
<path d="M285.93 274.69V266.792L282.278 263.139V258.568H274.341V266.199H269.14V284.481H274.896L285.93 274.69Z" fill="black"/>
<path d="M341.255 317.296L346.074 317.812L346.514 320.279C346.562 320.536 346.683 320.774 346.863 320.964C347.043 321.154 347.274 321.288 347.528 321.35L356.822 323.511C357.111 323.578 357.413 323.57 357.698 323.486C357.982 323.402 358.241 323.246 358.447 323.033L359.939 321.56C360.392 321.102 360.647 320.484 360.647 319.839V310.086C360.645 309.585 360.445 309.104 360.092 308.748L356.956 305.611V315.058C356.949 315.36 356.871 315.656 356.728 315.922C356.585 316.188 356.382 316.416 356.133 316.588C355.834 316.79 355.481 316.896 355.12 316.894C354.869 316.901 354.62 316.848 354.393 316.741L340.299 310.717V316.263C340.307 316.522 340.408 316.769 340.584 316.959C340.759 317.149 340.998 317.268 341.255 317.296Z" fill="black"/>
<path d="M289.583 232.541H284.84V234.09H289.583V232.541Z" fill="black"/>
<path d="M495.2 255.241C496.459 252.908 497.118 250.299 497.118 247.649C497.118 244.998 496.459 242.389 495.2 240.057H455.041C454.142 241.414 454.008 253.673 455.156 255.145L495.2 255.241Z" fill="black"/>
<path d="M289.583 244.59H284.84V245.909H289.583V244.59Z" fill="black"/>
<path d="M424.118 264.057C423.496 263.097 423.083 262.017 422.905 260.887C422.727 259.757 422.788 258.603 423.085 257.498H321.73V261.323H339.553L343.034 259.41H360.092V264.306H369.118V260.979H372.159C373.567 262.037 374.696 263.421 375.448 265.014H423.889L424.118 264.057Z" fill="black"/>
<path d="M289.583 242.676H284.84V243.632H289.583V242.676Z" fill="black"/>
<path d="M289.583 240.764H284.84V241.72H289.583V240.764Z" fill="black"/>
<path d="M272.2 258.568H228.942L215.938 271.228H224.008L231.524 264.325H272.181L272.2 258.568Z" fill="black"/>
<path d="M289.583 235.027H284.84V235.984H289.583V235.027Z" fill="black"/>
<path d="M225.652 284.48H267.227V266.236H232.288L225.652 272.452V284.48Z" fill="black"/>
<path d="M274.418 256.655H282.278V256.617H289.602V247.839L274.418 247.82V256.655Z" fill="black"/>
<path d="M289.583 238.852H284.84V239.808H289.583V238.852Z" fill="black"/>
<path d="M213.548 271.209L228.158 256.656H272.142V245.908H283.865V232.521H268.299V241.032L256.576 248.279H149.158L144.932 240.228L134.988 242.6V259.964H163.501V267.441C163.778 267.348 164.069 267.302 164.361 267.307C164.817 267.31 165.266 267.413 165.677 267.61C166.088 267.806 166.451 268.09 166.739 268.443C167.028 268.795 167.235 269.207 167.346 269.649C167.458 270.09 167.47 270.551 167.383 270.998L213.548 271.209Z" fill="black"/>
<path d="M434.732 232.695H445.097C445.097 231.566 444.963 227.722 445.097 223.898C445.326 216.478 445.708 216.86 437.198 216.918C429.415 216.918 430.792 216.325 430.907 225.619C430.888 225.676 431.978 230.687 434.732 232.695Z" fill="black"/>
<path d="M452.364 243.098L447.047 243.174V252.201H452.364V243.098Z" fill="black"/>
<path d="M291.534 252.679V256.887L294.421 259.793H311.996L316.165 255.605H445.173V250.824H430.486C429.979 250.824 429.493 250.623 429.134 250.264C428.775 249.906 428.574 249.419 428.574 248.912V238.184H418.266V249.524C418.266 249.884 418.123 250.229 417.868 250.484C417.614 250.739 417.268 250.882 416.908 250.882H293.427L291.534 252.679Z" fill="black"/>
<path d="M19.3848 270.807V311.387C20.3601 316.053 23.3242 316.264 23.3242 316.264L65.97 315.135C66.8236 315.11 67.656 314.864 68.3864 314.421C69.1169 313.979 69.7206 313.355 70.139 312.611L87.3503 281.707H73.0649L69.3549 278.016H45.9667L39.1013 270.807H19.3848ZM40.1531 282.281L30.2088 306.95C30.0761 307.292 29.8419 307.586 29.5376 307.791C29.2334 307.996 28.8736 308.103 28.5068 308.098H23.7258C23.2348 308.098 22.7623 307.91 22.4063 307.572C22.0503 307.234 21.838 306.771 21.8135 306.281V278.8C21.8135 278.293 22.015 277.807 22.3736 277.448C22.7322 277.089 23.2186 276.888 23.7258 276.888H35.6781C36.1639 276.895 36.6288 277.086 36.9785 277.423L39.7515 280.196C40.013 280.464 40.1905 280.802 40.2618 281.169C40.3332 281.536 40.2954 281.916 40.1531 282.262V282.281Z" fill="black"/>
<path d="M46.3686 277.06H69.7377L73.4668 280.77H87.8669L93.4128 270.807H40.249L46.3686 277.06ZM84.6159 273.101C85.1681 273.101 85.7079 273.265 86.1671 273.572C86.6262 273.879 86.9841 274.315 87.1954 274.825C87.4068 275.335 87.462 275.897 87.3543 276.438C87.2466 276.98 86.9807 277.477 86.5902 277.868C86.1997 278.258 85.7022 278.524 85.1606 278.632C84.619 278.74 84.0576 278.684 83.5474 278.473C83.0373 278.262 82.6012 277.904 82.2944 277.445C81.9876 276.986 81.8239 276.446 81.8239 275.894C81.8212 275.523 81.8929 275.155 82.0347 274.813C82.1765 274.471 82.3855 274.16 82.6493 273.9C82.9132 273.639 83.2266 273.435 83.5709 273.298C83.9153 273.16 84.2836 273.094 84.6542 273.101H84.6159Z" fill="black"/>
<path d="M84.6538 277.711C85.0321 277.711 85.4018 277.599 85.7163 277.389C86.0308 277.179 86.2759 276.88 86.4206 276.531C86.5654 276.181 86.6032 275.797 86.5294 275.426C86.4557 275.055 86.2735 274.714 86.0061 274.447C85.7386 274.179 85.3979 273.997 85.0269 273.923C84.6559 273.85 84.2714 273.888 83.922 274.032C83.5726 274.177 83.2739 274.422 83.0637 274.737C82.8536 275.051 82.7415 275.421 82.7415 275.799C82.7415 276.306 82.9429 276.793 83.3016 277.151C83.6602 277.51 84.1466 277.711 84.6538 277.711Z" fill="black"/>
<path d="M163.654 268.837C163.29 268.99 162.99 269.266 162.807 269.616C162.624 269.966 162.568 270.369 162.649 270.756C162.731 271.143 162.944 271.489 163.253 271.736C163.562 271.982 163.947 272.113 164.342 272.107C164.707 272.108 165.062 271.988 165.352 271.767C165.643 271.546 165.852 271.235 165.949 270.883C165.978 270.725 165.978 270.563 165.949 270.405C165.949 269.957 165.772 269.527 165.457 269.208C165.142 268.89 164.714 268.708 164.266 268.703C164.055 268.708 163.847 268.754 163.654 268.837Z" fill="black"/>
<path d="M321.883 225.522V227.645H320.907L320.869 220.588H314.845L312.971 221.544H297.156V225.178L299.833 228.696L406.486 228.983V225.522H403.158V227.453H400.577V225.522H397.421V227.453H394.84V225.522H391.684V227.453H391.665V227.568H389.083V225.522H385.947V227.453H385.871V227.587H383.289V225.522H381.3H380.057V227.587H377.494V225.522H374.262V227.587H371.681V225.522H368.449V227.606H365.886V225.522H362.654V227.606H360.092V225.522H356.86V227.606H354.278V225.522H351.046V227.625H348.484V225.522H345.252V227.625H342.67V225.522H339.438V227.625H336.876V225.522H333.644V227.625L331.062 227.645V225.522H327.83V227.645H325.268V225.522H321.883Z" fill="black"/>
<path d="M291.515 250.001L292.624 248.892H313.105V232.695C313.105 232.334 313.249 231.989 313.503 231.734C313.758 231.48 314.103 231.337 314.463 231.337H416.794C416.972 231.337 417.149 231.372 417.314 231.44C417.478 231.508 417.628 231.608 417.754 231.734C417.88 231.861 417.98 232.01 418.048 232.175C418.117 232.34 418.152 232.516 418.152 232.695V236.175H430.372V246.903C430.372 247.411 430.573 247.897 430.932 248.256C431.291 248.614 431.777 248.816 432.284 248.816H445.059V234.282L433.585 234.167C431.858 232.624 430.582 230.641 429.894 228.43H418.42V223.955H410.502C410.13 223.958 409.769 224.086 409.478 224.318C409.186 224.55 408.982 224.874 408.896 225.236L407.902 229.826L299.26 229.597L296.162 225.523H259.827V227.952H257.284V225.523H254.09V227.952H251.546V225.523H248.353V227.952H245.809V225.523H242.616V227.952H240.072V225.523H236.879V227.952H234.335V225.523H231.141V227.952H228.598V225.523H225.404V227.952H222.861V225.523H219.667V228.296H184.346V225.485H181.152V228.028H178.609V225.485H175.415V228.028H172.872V225.485H169.678V228.028H167.135V225.485H149.598L148.489 230.61H291.515V250.001ZM433.451 243.232C433.714 243.133 433.992 243.081 434.273 243.079C434.816 243.079 435.336 243.294 435.72 243.678C436.104 244.062 436.319 244.582 436.319 245.125C436.318 245.333 436.286 245.539 436.224 245.737C436.076 246.202 435.767 246.599 435.353 246.857C434.939 247.114 434.446 247.215 433.963 247.141C433.481 247.068 433.041 246.824 432.723 246.454C432.404 246.084 432.228 245.613 432.227 245.125C432.228 244.725 432.344 244.334 432.561 243.999C432.778 243.663 433.087 243.397 433.451 243.232Z" fill="black"/>
<path d="M434.273 246.233C434.509 246.232 434.739 246.153 434.926 246.008C435.113 245.862 435.246 245.659 435.305 245.43C435.334 245.33 435.334 245.224 435.305 245.124C435.305 244.835 435.19 244.558 434.986 244.353C434.782 244.149 434.504 244.034 434.215 244.034C434.071 244.029 433.927 244.053 433.792 244.106C433.657 244.159 433.535 244.239 433.433 244.341C433.33 244.444 433.25 244.566 433.197 244.701C433.144 244.835 433.12 244.979 433.125 245.124C433.122 245.274 433.15 245.422 433.208 245.561C433.265 245.699 433.35 245.824 433.457 245.928C433.565 246.032 433.693 246.113 433.833 246.166C433.974 246.218 434.123 246.241 434.273 246.233Z" fill="black"/>
<path d="M315.017 233.248V248.872H416.258V233.248H315.017ZM330.316 240.094C330.275 240.139 330.224 240.174 330.168 240.197C330.112 240.22 330.052 240.231 329.991 240.228C329.928 240.231 329.864 240.22 329.805 240.197C329.746 240.174 329.692 240.139 329.647 240.094L326.472 236.92C326.389 236.828 326.343 236.709 326.343 236.585C326.343 236.461 326.389 236.342 326.472 236.25C326.517 236.204 326.57 236.167 326.63 236.142C326.689 236.117 326.752 236.104 326.817 236.104C326.881 236.104 326.945 236.117 327.004 236.142C327.063 236.167 327.116 236.204 327.161 236.25L330.316 239.425C330.365 239.465 330.404 239.515 330.432 239.571C330.461 239.627 330.477 239.689 330.481 239.751C330.484 239.814 330.475 239.877 330.453 239.936C330.431 239.995 330.398 240.049 330.355 240.094H330.316ZM331.215 246.52C331.088 246.52 330.967 246.47 330.877 246.38C330.787 246.29 330.737 246.169 330.737 246.042V241.567C330.737 241.44 330.787 241.318 330.877 241.229C330.967 241.139 331.088 241.089 331.215 241.089C331.342 241.089 331.463 241.139 331.553 241.229C331.643 241.318 331.693 241.44 331.693 241.567V246.042C331.694 246.162 331.648 246.278 331.567 246.367C331.485 246.456 331.373 246.51 331.253 246.52H331.215ZM335.881 236.958L332.707 240.133C332.662 240.178 332.608 240.213 332.549 240.236C332.489 240.259 332.426 240.269 332.363 240.266C332.302 240.268 332.242 240.256 332.186 240.233C332.13 240.21 332.079 240.176 332.037 240.133C331.992 240.09 331.955 240.038 331.93 239.98C331.905 239.923 331.893 239.861 331.893 239.798C331.893 239.735 331.905 239.673 331.93 239.616C331.955 239.558 331.992 239.506 332.037 239.463L335.193 236.289C335.237 236.242 335.291 236.206 335.35 236.181C335.409 236.155 335.473 236.142 335.537 236.142C335.601 236.142 335.665 236.155 335.724 236.181C335.783 236.206 335.837 236.242 335.881 236.289C335.96 236.373 336.007 236.482 336.014 236.597C336.021 236.713 335.987 236.826 335.92 236.92L335.881 236.958ZM343.703 243.25L340.547 246.424C340.502 246.469 340.449 246.504 340.389 246.527C340.33 246.55 340.267 246.561 340.203 246.558C340.076 246.559 339.952 246.511 339.859 246.424C339.776 246.333 339.729 246.213 339.729 246.09C339.729 245.966 339.776 245.846 339.859 245.755L343.033 242.58C343.075 242.526 343.127 242.48 343.187 242.447C343.247 242.415 343.314 242.395 343.382 242.39C343.45 242.386 343.519 242.395 343.583 242.419C343.647 242.443 343.706 242.481 343.754 242.529C343.802 242.578 343.84 242.636 343.864 242.7C343.888 242.764 343.898 242.833 343.893 242.901C343.888 242.969 343.869 243.036 343.836 243.096C343.803 243.156 343.758 243.209 343.703 243.25ZM344.525 241.586C344.398 241.586 344.277 241.536 344.187 241.446C344.097 241.356 344.047 241.235 344.047 241.108V236.633C344.047 236.506 344.097 236.385 344.187 236.295C344.277 236.205 344.398 236.155 344.525 236.155C344.652 236.155 344.774 236.205 344.863 236.295C344.953 236.385 345.003 236.506 345.003 236.633V241.108C344.994 241.222 344.945 241.328 344.865 241.409C344.784 241.49 344.677 241.539 344.563 241.548L344.525 241.586ZM349.268 246.424C349.175 246.511 349.051 246.559 348.924 246.558C348.86 246.561 348.797 246.55 348.737 246.527C348.678 246.504 348.624 246.469 348.579 246.424L345.424 243.25C345.355 243.158 345.321 243.044 345.33 242.929C345.338 242.814 345.387 242.706 345.468 242.625C345.55 242.543 345.658 242.494 345.773 242.486C345.887 242.478 346.001 242.511 346.093 242.58L349.268 245.755C349.346 245.839 349.393 245.948 349.4 246.064C349.407 246.179 349.374 246.293 349.306 246.386L349.268 246.424ZM357.089 240.133C357.048 240.177 356.998 240.212 356.942 240.235C356.885 240.258 356.825 240.269 356.764 240.266C356.701 240.269 356.637 240.259 356.578 240.236C356.519 240.213 356.465 240.178 356.42 240.133L353.246 236.958C353.162 236.866 353.116 236.747 353.116 236.623C353.116 236.5 353.162 236.38 353.246 236.289C353.29 236.242 353.344 236.206 353.403 236.181C353.462 236.155 353.525 236.142 353.59 236.142C353.654 236.142 353.718 236.155 353.777 236.181C353.836 236.206 353.889 236.242 353.934 236.289L357.089 239.463C357.175 239.543 357.227 239.654 357.235 239.771C357.242 239.889 357.203 240.004 357.128 240.094L357.089 240.133ZM357.988 246.558C357.861 246.558 357.74 246.508 357.65 246.418C357.56 246.328 357.51 246.207 357.51 246.08V241.605C357.51 241.478 357.56 241.357 357.65 241.267C357.74 241.177 357.861 241.127 357.988 241.127C358.115 241.127 358.237 241.177 358.326 241.267C358.416 241.357 358.466 241.478 358.466 241.605V246.08C358.458 246.194 358.408 246.301 358.328 246.381C358.247 246.462 358.14 246.511 358.026 246.52L357.988 246.558ZM362.654 236.996L359.48 240.171C359.435 240.216 359.381 240.251 359.322 240.274C359.263 240.297 359.199 240.307 359.136 240.305C359.075 240.306 359.015 240.295 358.959 240.272C358.903 240.249 358.853 240.214 358.811 240.171C358.765 240.128 358.728 240.076 358.703 240.018C358.678 239.961 358.666 239.899 358.666 239.836C358.666 239.773 358.678 239.711 358.703 239.654C358.728 239.596 358.765 239.544 358.811 239.501L361.966 236.327C362.011 236.281 362.064 236.244 362.123 236.219C362.182 236.194 362.246 236.181 362.31 236.181C362.374 236.181 362.438 236.194 362.497 236.219C362.556 236.244 362.61 236.281 362.654 236.327C362.724 236.408 362.765 236.51 362.772 236.617C362.779 236.724 362.751 236.83 362.693 236.92L362.654 236.996ZM370.476 243.288L367.321 246.463C367.276 246.507 367.222 246.543 367.162 246.566C367.103 246.589 367.04 246.599 366.976 246.596C366.849 246.598 366.725 246.55 366.632 246.463C366.549 246.371 366.503 246.252 366.503 246.128C366.503 246.004 366.549 245.885 366.632 245.793L369.807 242.619C369.848 242.564 369.9 242.519 369.96 242.486C370.02 242.453 370.087 242.433 370.155 242.429C370.224 242.424 370.292 242.434 370.356 242.458C370.42 242.482 370.479 242.519 370.527 242.567C370.576 242.616 370.613 242.674 370.637 242.738C370.661 242.802 370.671 242.871 370.666 242.939C370.661 243.008 370.642 243.074 370.609 243.134C370.576 243.194 370.531 243.247 370.476 243.288ZM371.298 241.624C371.171 241.624 371.05 241.574 370.96 241.484C370.871 241.395 370.82 241.273 370.82 241.146V236.671C370.82 236.544 370.871 236.423 370.96 236.333C371.05 236.243 371.171 236.193 371.298 236.193C371.425 236.193 371.547 236.243 371.636 236.333C371.726 236.423 371.776 236.544 371.776 236.671V241.146C371.759 241.253 371.707 241.351 371.627 241.424C371.547 241.497 371.444 241.54 371.337 241.548L371.298 241.624ZM376.041 246.463C375.948 246.55 375.824 246.598 375.697 246.596C375.633 246.599 375.57 246.589 375.511 246.566C375.451 246.543 375.397 246.507 375.352 246.463L372.197 243.288C372.128 243.196 372.095 243.082 372.103 242.967C372.111 242.852 372.16 242.744 372.241 242.663C372.323 242.582 372.431 242.532 372.546 242.524C372.66 242.516 372.774 242.55 372.866 242.619L376.041 245.793C376.11 245.875 376.151 245.976 376.158 246.083C376.165 246.19 376.137 246.296 376.079 246.386L376.041 246.463ZM383.863 240.171C383.821 240.215 383.771 240.25 383.715 240.273C383.659 240.296 383.598 240.307 383.537 240.305C383.474 240.307 383.41 240.297 383.351 240.274C383.292 240.251 383.238 240.216 383.193 240.171L380.019 236.996C379.935 236.905 379.889 236.785 379.889 236.662C379.889 236.538 379.935 236.419 380.019 236.327C380.063 236.281 380.117 236.244 380.176 236.219C380.235 236.194 380.299 236.181 380.363 236.181C380.427 236.181 380.491 236.194 380.55 236.219C380.609 236.244 380.663 236.281 380.707 236.327L383.863 239.501C383.938 239.58 383.983 239.682 383.99 239.791C383.998 239.899 383.966 240.007 383.901 240.094L383.863 240.171ZM384.761 246.596C384.635 246.596 384.513 246.546 384.423 246.456C384.334 246.367 384.283 246.245 384.283 246.118V241.643C384.283 241.517 384.334 241.395 384.423 241.305C384.513 241.216 384.635 241.165 384.761 241.165C384.888 241.165 385.01 241.216 385.099 241.305C385.189 241.395 385.239 241.517 385.239 241.643V246.118C385.222 246.225 385.17 246.323 385.09 246.396C385.01 246.469 384.908 246.513 384.8 246.52L384.761 246.596ZM389.428 237.035L386.253 240.209C386.208 240.254 386.154 240.289 386.095 240.312C386.036 240.335 385.972 240.346 385.909 240.343C385.848 240.344 385.788 240.333 385.732 240.31C385.676 240.287 385.626 240.253 385.584 240.209C385.538 240.166 385.501 240.114 385.477 240.057C385.452 239.999 385.439 239.937 385.439 239.874C385.439 239.812 385.452 239.75 385.477 239.692C385.501 239.635 385.538 239.583 385.584 239.54L388.739 236.365C388.784 236.319 388.837 236.282 388.896 236.257C388.955 236.232 389.019 236.219 389.083 236.219C389.148 236.219 389.211 236.232 389.27 236.257C389.329 236.282 389.383 236.319 389.428 236.365C389.488 236.443 389.525 236.538 389.531 236.637C389.538 236.735 389.515 236.834 389.466 236.92L389.428 237.035ZM397.249 243.326L394.094 246.501C394.049 246.546 393.995 246.581 393.936 246.604C393.876 246.627 393.813 246.637 393.749 246.635C393.622 246.636 393.499 246.588 393.405 246.501C393.322 246.409 393.276 246.29 393.276 246.166C393.276 246.042 393.322 245.923 393.405 245.831L396.58 242.657C396.621 242.602 396.673 242.557 396.733 242.524C396.794 242.491 396.86 242.472 396.928 242.467C396.997 242.462 397.065 242.472 397.129 242.496C397.194 242.52 397.252 242.557 397.3 242.606C397.349 242.654 397.386 242.712 397.41 242.777C397.434 242.841 397.444 242.909 397.439 242.978C397.434 243.046 397.415 243.112 397.382 243.173C397.349 243.233 397.304 243.285 397.249 243.326ZM398.071 241.662C397.945 241.662 397.823 241.612 397.733 241.522C397.644 241.433 397.593 241.311 397.593 241.184V236.709C397.593 236.583 397.644 236.461 397.733 236.371C397.823 236.282 397.945 236.231 398.071 236.231C398.198 236.231 398.32 236.282 398.409 236.371C398.499 236.461 398.549 236.583 398.549 236.709V241.184C398.525 241.284 398.469 241.373 398.39 241.439C398.31 241.504 398.212 241.542 398.11 241.548L398.071 241.662ZM402.814 246.501C402.721 246.588 402.597 246.636 402.47 246.635C402.406 246.637 402.343 246.627 402.284 246.604C402.224 246.581 402.171 246.546 402.126 246.501L398.97 243.326C398.901 243.234 398.868 243.12 398.876 243.005C398.884 242.891 398.933 242.783 399.015 242.701C399.096 242.62 399.204 242.571 399.319 242.562C399.434 242.554 399.547 242.588 399.64 242.657L402.814 245.831C402.875 245.91 402.911 246.004 402.918 246.103C402.925 246.202 402.902 246.3 402.852 246.386L402.814 246.501Z" fill="black"/>
<path d="M358.524 265.473V261.361H343.359L340.223 263.274V264.899L337.411 267.71V271.822L340.299 274.691V309.687L354.757 315.883C354.886 315.953 355.03 315.99 355.177 315.99C355.324 315.99 355.469 315.953 355.598 315.883C355.724 315.804 355.827 315.694 355.897 315.563C355.967 315.432 356.003 315.285 356 315.137V298.614V283.315C359.442 280.389 359.518 277.999 358.218 275.666C357.204 273.868 353.743 271.076 355.694 268.016C356.371 266.913 357.354 266.029 358.524 265.473ZM352.022 311.905C351.626 311.905 351.247 311.748 350.967 311.468C350.687 311.189 350.53 310.809 350.53 310.414C350.53 310.119 350.618 309.83 350.782 309.585C350.946 309.34 351.179 309.148 351.451 309.035C351.724 308.923 352.024 308.893 352.313 308.951C352.602 309.008 352.868 309.15 353.077 309.359C353.285 309.567 353.427 309.833 353.485 310.123C353.543 310.412 353.513 310.712 353.4 310.984C353.287 311.257 353.096 311.49 352.851 311.654C352.605 311.818 352.317 311.905 352.022 311.905Z" fill="black"/>
<path d="M186.315 226.44L217.544 226.306V222.424H186.315V226.44Z" fill="black"/>
<path d="M274.227 333.781H220.929V336H274.227V333.781Z" fill="black"/>
<path d="M274.227 286.393H224.735L220.91 290.217V332.882H240.856V294.444H256.155V332.825H274.169L274.227 286.393ZM228.081 328.197C228.081 328.546 227.978 328.887 227.783 329.176C227.589 329.466 227.313 329.691 226.991 329.824C226.668 329.957 226.313 329.99 225.972 329.921C225.63 329.851 225.316 329.682 225.071 329.434C224.826 329.186 224.66 328.871 224.594 328.528C224.528 328.186 224.566 327.831 224.702 327.51C224.838 327.189 225.067 326.916 225.358 326.725C225.65 326.534 225.992 326.434 226.341 326.438C226.804 326.443 227.247 326.63 227.573 326.96C227.899 327.289 228.081 327.734 228.081 328.197ZM267.266 328.197C267.24 327.949 267.266 327.699 267.344 327.462C267.421 327.225 267.547 327.007 267.713 326.822C267.88 326.637 268.084 326.489 268.312 326.388C268.539 326.287 268.786 326.234 269.035 326.234C269.284 326.234 269.53 326.287 269.758 326.388C269.985 326.489 270.189 326.637 270.356 326.822C270.522 327.007 270.649 327.225 270.726 327.462C270.803 327.699 270.829 327.949 270.804 328.197C270.758 328.634 270.552 329.039 270.225 329.334C269.899 329.628 269.474 329.791 269.035 329.791C268.595 329.791 268.171 329.628 267.844 329.334C267.517 329.039 267.311 328.634 267.266 328.197Z" fill="black"/>
<path d="M255.275 295.42H241.774V332.807H255.275V295.42Z" fill="black"/>
<path d="M422.913 270.368L423.563 266.906H376.156C376.485 268.153 376.582 269.449 376.442 270.731H381.09V268.952H383.633V270.731H386.827V268.991H389.37V270.731H392.564V269.029H395.107V270.731H398.301V269.048H400.844V270.712H404.038V269.067H406.581V270.693H409.775V269.086H412.318V270.674H415.512V269.105H418.056V270.654L422.913 270.368Z" fill="black"/>
<path d="M200.697 195.001C200.697 195.001 200.448 192.611 200.371 192.381C199.912 191.081 198.249 190.354 195.151 190.469C192.053 190.584 190.599 190.163 189.796 192.381C189.634 193.363 189.634 194.364 189.796 195.345C189.873 197.009 200.792 197.353 200.697 195.001Z" fill="black"/>
<path d="M177.213 210.836C176.563 213.131 175.3 216.153 176.084 219.538C176.218 220.054 176.735 220.475 177.997 220.513C178.245 220.513 222.153 220.513 224.238 220.513V194.18C217.927 194.18 207.027 194.18 203.317 194.18C202.418 194.18 201.959 194.18 201.768 194.696C201.538 196.608 199.339 197.297 195.801 197.392C191.613 197.392 189.318 196.991 188.955 194.983C188.915 194.772 188.804 194.58 188.641 194.441C188.477 194.302 188.271 194.223 188.056 194.218C186.602 194.218 183.696 194.218 181.879 194.218C181.149 194.272 180.442 194.493 179.812 194.865C179.182 195.236 178.646 195.748 178.245 196.36C176.333 199.745 174.631 203.053 177.022 207.604C177.504 208.616 177.572 209.775 177.213 210.836ZM220.509 202.422C220.512 202.628 220.455 202.83 220.343 203.003C220.231 203.176 220.07 203.311 219.88 203.391C219.691 203.472 219.481 203.494 219.279 203.455C219.077 203.415 218.892 203.317 218.746 203.171C218.6 203.026 218.502 202.84 218.462 202.638C218.423 202.436 218.445 202.226 218.526 202.037C218.606 201.848 218.742 201.686 218.914 201.574C219.087 201.462 219.289 201.405 219.495 201.408C219.762 201.413 220.017 201.522 220.206 201.711C220.395 201.9 220.504 202.155 220.509 202.422ZM217.908 197.469C218.113 197.469 218.313 197.53 218.484 197.644C218.654 197.759 218.786 197.921 218.864 198.111C218.941 198.301 218.961 198.509 218.919 198.71C218.878 198.911 218.777 199.095 218.631 199.239C218.485 199.382 218.299 199.479 218.097 199.517C217.896 199.554 217.688 199.531 217.499 199.45C217.311 199.369 217.151 199.234 217.04 199.061C216.929 198.889 216.871 198.688 216.875 198.483C216.875 198.348 216.902 198.214 216.954 198.09C217.006 197.966 217.083 197.853 217.179 197.759C217.275 197.665 217.389 197.59 217.514 197.541C217.639 197.491 217.773 197.466 217.908 197.469ZM215.422 200.949C215.628 200.946 215.83 201.003 216.003 201.115C216.175 201.228 216.311 201.389 216.391 201.578C216.472 201.767 216.494 201.977 216.455 202.179C216.415 202.381 216.317 202.567 216.171 202.712C216.025 202.858 215.84 202.956 215.638 202.996C215.436 203.035 215.226 203.013 215.037 202.932C214.847 202.852 214.686 202.717 214.574 202.544C214.462 202.371 214.404 202.169 214.408 201.963C214.411 201.827 214.44 201.694 214.494 201.569C214.548 201.445 214.627 201.332 214.724 201.238C214.822 201.144 214.937 201.07 215.063 201.021C215.19 200.971 215.324 200.947 215.46 200.949H215.422Z" fill="black"/>
<path d="M157.171 329.344L156.884 321.695L156.75 321.905L153.155 312.841C153.155 312.535 153.155 312.535 160.078 303.546L160.345 303.202L165.509 306.453L166.388 305.115L161.359 301.653L169.926 290.485L179.928 290.37C181.496 289.835 182.07 290.542 182.07 290.542C183.176 291.602 184.552 292.336 186.047 292.665C190.274 292.665 200.256 292.952 200.945 292.665C214.752 286.718 205.19 275.97 205.19 275.97H208.786L210.009 273.694L164.361 273.503C163.949 273.508 163.54 273.431 163.158 273.275C162.776 273.119 162.429 272.887 162.139 272.595C161.848 272.302 161.619 271.954 161.465 271.572C161.312 271.189 161.236 270.779 161.244 270.367V261.838H133.056V244.875H37.2845C37.175 244.586 37.0339 244.31 36.8638 244.053H25.6573L19.3848 250.325V269.812L144.836 269.334L155.144 275.473V286.412L155.01 286.565C153.709 287.846 152.026 289.51 150.152 291.307C144.588 296.801 138.659 301.913 132.406 306.606L126.477 313.931L152.619 333.494L157.171 329.344ZM182.242 280.158H185.894C185.74 280.662 185.644 281.182 185.608 281.707C185.474 285.092 185.608 286.22 188.036 287.98C189.124 288.456 190.328 288.602 191.498 288.4C191.192 287.406 188.075 286.22 189.471 281.497C190.211 279.431 191.582 277.652 193.391 276.41C193.887 276.071 194.474 275.891 195.074 275.894H200.811C201.465 275.89 202.1 276.113 202.609 276.525C203.619 277.286 204.444 278.267 205.02 279.393C205.597 280.519 205.91 281.762 205.936 283.027C205.918 284.324 205.554 285.593 204.882 286.702C204.209 287.812 203.253 288.721 202.111 289.338C201.082 290.2 199.782 290.673 198.44 290.676H188.725C187.332 290.771 185.938 290.514 184.671 289.93C183.963 289.411 183.381 288.739 182.967 287.964C182.553 287.19 182.319 286.333 182.28 285.455C182.223 283.237 182.242 280.158 182.242 280.158Z" fill="black"/>
<path d="M154.13 312.67L156.98 319.841L159.294 316.552C161.378 312.976 163.271 309.878 165.031 307.181L160.537 304.408L154.13 312.67Z" fill="black"/>
<path d="M170.404 291.404L162.755 301.406L166.962 304.294C172.221 296.51 175.778 292.819 178.111 291.309L170.404 291.404Z" fill="black"/>
</svg>
