<svg width="512" height="512" viewBox="0 0 512 512" fill="none" xmlns="http://www.w3.org/2000/svg">
<path d="M163.352 135.332L155.674 120.646H150.292L142.578 135.332H163.352Z" fill="black"/>
<path d="M187.964 283.632C187.964 278.206 187.964 274.906 187.964 274.892V252.878C187.964 221.708 182.708 190.731 172.375 161.002L164.481 138.305H141.429L133.823 159.992C123.328 189.913 118 221.128 118 252.536V274.892C118 274.906 118 278.206 118 283.632H187.964Z" fill="black"/>
<path d="M119.524 352.006H186.313C183.766 350.534 182.079 348.097 182.079 345.317C182.079 343.087 183.156 341.066 184.914 339.594C186.779 338.019 187.981 335.982 187.981 333.783V330.111C187.981 327.896 186.779 325.86 184.914 324.284C183.174 322.813 182.097 320.791 182.097 318.562C182.097 316.332 183.174 314.31 184.932 312.839C186.797 311.263 187.999 309.227 187.999 307.012V303.356C187.999 301.156 186.797 299.119 184.932 297.544C183.174 296.072 182.097 294.051 182.097 291.806C182.097 289.026 183.784 286.589 186.331 285.117H119.542C122.089 286.589 123.776 289.026 123.776 291.806C123.776 294.006 122.717 295.998 121.013 297.469C119.183 299.03 118.035 301.037 118.035 303.207V307.131C118.035 309.316 119.201 311.323 121.031 312.898C122.735 314.37 123.776 316.362 123.776 318.547C123.776 320.747 122.735 322.738 121.031 324.195C119.201 325.756 118.053 327.777 118.053 329.948V333.887C118.053 336.057 119.219 338.078 121.031 339.639C122.735 341.111 123.776 343.102 123.776 345.287C123.758 348.097 122.072 350.534 119.524 352.006Z" fill="black"/>
<path d="M118.035 353.492C118.035 366.617 118.053 378.107 118.053 384.707C118.053 387.992 121.264 390.653 125.229 390.653H180.77C184.734 390.653 187.945 387.992 187.945 384.707C187.945 378.107 187.963 366.617 187.963 353.492H118.035Z" fill="black"/>
<path d="M266.558 93.76L257.998 74H251.998L243.398 93.76H266.558Z" fill="black"/>
<path d="M294 293.3C294 286 294 281.56 294 281.54V251.92C294 209.98 288.14 168.3 276.62 128.3L267.82 97.7598H242.12L233.64 126.94C221.94 167.2 216 209.2 216 251.46V281.54C216 281.56 216 286 216 293.3H294Z" fill="black"/>
<path d="M217.699 385.301H292.159C289.319 383.321 287.439 380.041 287.439 376.301C287.439 373.301 288.639 370.581 290.599 368.601C292.679 366.481 294.019 363.741 294.019 360.781V355.841C294.019 352.861 292.679 350.121 290.599 348.001C288.659 346.021 287.459 343.301 287.459 340.301C287.459 337.301 288.659 334.581 290.619 332.601C292.699 330.481 294.039 327.741 294.039 324.761V319.841C294.039 316.881 292.699 314.141 290.619 312.021C288.659 310.041 287.459 307.321 287.459 304.301C287.459 300.561 289.339 297.281 292.179 295.301H217.719C220.559 297.281 222.439 300.561 222.439 304.301C222.439 307.261 221.259 309.941 219.359 311.921C217.319 314.021 216.039 316.721 216.039 319.641V324.921C216.039 327.861 217.339 330.561 219.379 332.681C221.279 334.661 222.439 337.341 222.439 340.281C222.439 343.241 221.279 345.921 219.379 347.881C217.339 349.981 216.059 352.701 216.059 355.621V360.921C216.059 363.841 217.359 366.561 219.379 368.661C221.279 370.641 222.439 373.321 222.439 376.261C222.419 380.041 220.539 383.321 217.699 385.301Z" fill="black"/>
<path d="M216.039 387.301C216.039 404.961 216.059 420.421 216.059 429.301C216.059 433.721 219.639 437.301 224.059 437.301H285.979C290.399 437.301 293.979 433.721 293.979 429.301C293.979 420.421 293.999 404.961 293.999 387.301H216.039Z" fill="black"/>
<path d="M367.391 135.332L359.713 120.646H354.331L346.617 135.332H367.391Z" fill="black"/>
<path d="M392.003 283.632C392.003 278.206 392.003 274.906 392.003 274.892V252.878C392.003 221.708 386.747 190.731 376.414 161.002L368.52 138.305H345.468L337.862 159.992C327.367 189.913 322.039 221.128 322.039 252.536V274.892C322.039 274.906 322.039 278.206 322.039 283.632H392.003Z" fill="black"/>
<path d="M323.563 352.006H390.352C387.805 350.534 386.118 348.097 386.118 345.317C386.118 343.087 387.195 341.066 388.953 339.594C390.818 338.019 392.02 335.982 392.02 333.783V330.111C392.02 327.896 390.818 325.86 388.953 324.284C387.213 322.813 386.136 320.791 386.136 318.562C386.136 316.332 387.213 314.31 388.971 312.839C390.836 311.263 392.038 309.227 392.038 307.012V303.356C392.038 301.156 390.836 299.119 388.971 297.544C387.213 296.072 386.136 294.051 386.136 291.806C386.136 289.026 387.823 286.589 390.37 285.117H323.581C326.129 286.589 327.815 289.026 327.815 291.806C327.815 294.006 326.756 295.998 325.052 297.469C323.222 299.03 322.074 301.037 322.074 303.207V307.131C322.074 309.316 323.24 311.323 325.07 312.898C326.774 314.37 327.815 316.362 327.815 318.547C327.815 320.747 326.774 322.738 325.07 324.195C323.24 325.756 322.092 327.777 322.092 329.948V333.887C322.092 336.057 323.258 338.078 325.07 339.639C326.774 341.111 327.815 343.102 327.815 345.287C327.797 348.097 326.111 350.534 323.563 352.006Z" fill="black"/>
<path d="M322.074 353.492C322.074 366.617 322.092 378.107 322.092 384.707C322.092 387.992 325.303 390.653 329.268 390.653H384.809C388.773 390.653 391.985 387.992 391.985 384.707C391.985 378.107 392.002 366.617 392.002 353.492H322.074Z" fill="black"/>
</svg>
