<svg width="512" height="512" viewBox="0 0 512 512" fill="none" xmlns="http://www.w3.org/2000/svg">
<path d="M403.241 112.26L399.001 108L378.941 115.9L395.321 132.28L403.241 112.26Z" fill="black"/>
<path d="M304.762 237.62C299.602 232.46 296.462 229.32 296.442 229.3L275.502 208.36C270.962 203.82 266.322 199.4 261.602 195.06C288.042 170.72 317.282 149.66 348.582 132.46L375.202 117.82L393.362 135.98L377.982 163.8C360.202 195.96 338.362 225.94 313.082 252.94C311.162 252.48 309.342 251.54 307.862 250.06C305.222 247.42 304.242 243.78 304.842 240.36L304.762 237.62Z" fill="black"/>
<path d="M242.222 305C245.462 304.42 248.902 305.3 251.502 307.64C251.402 307.72 251.302 307.8 251.202 307.9C249.082 310.02 248.002 312.8 247.982 315.6C247.962 318.56 246.962 321.44 244.862 323.54L241.382 327.02C239.282 329.12 236.382 330.12 233.422 330.14C230.642 330.16 227.862 331.24 225.742 333.36C223.622 335.48 222.542 338.26 222.522 341.02C222.502 344 221.502 346.88 219.402 348.98L215.902 352.48C213.802 354.58 210.922 355.58 207.942 355.6C205.162 355.62 202.382 356.7 200.262 358.82C197.622 361.46 196.642 365.1 197.242 368.52L144.602 315.88C148.022 316.48 151.662 315.5 154.302 312.86C156.402 310.76 157.462 308.04 157.522 305.32C157.582 302.4 158.582 299.56 160.642 297.5L164.382 293.76C166.442 291.68 169.282 290.7 172.202 290.64C174.942 290.58 177.662 289.52 179.762 287.42C181.842 285.34 182.922 282.62 182.982 279.88C183.042 276.94 184.042 274.1 186.102 272.02L189.842 268.28C191.902 266.22 194.742 265.22 197.662 265.16C198.442 265.14 199.222 265.02 200.002 264.84C203.282 268.34 206.622 271.8 210.022 275.2L231.282 296.46C231.302 296.48 234.442 299.62 239.602 304.78L242.222 305Z" fill="black"/>
<path d="M112.34 345.819C109.22 348.939 109.22 353.999 112.34 357.139L156.12 400.919C159.24 404.039 164.3 404.039 167.42 400.919C173.7 394.639 184.64 383.699 197.14 371.219L142.02 316.119C129.54 328.599 118.62 339.539 112.34 345.819Z" fill="black"/>
<path d="M138.26 121.94L118.24 114L114 118.26L121.88 138.32L138.26 121.94Z" fill="black"/>
<path d="M235.3 290.459C235.32 290.479 238.46 293.619 243.62 298.779L254.22 288.179L255.64 286.759L298.78 243.619C293.62 238.459 290.48 235.319 290.46 235.299L269.52 214.359C264.98 209.819 260.34 205.399 255.62 201.059C229.5 177.079 200.66 156.279 169.82 139.239L142 123.859L123.84 142.019L138.48 168.639C156.38 201.199 178.44 231.519 204.02 258.799C207.3 262.299 210.64 265.759 214.04 269.159L235.3 290.459Z" fill="black"/>
<path d="M362.499 309.999C359.079 310.599 355.439 309.619 352.799 306.979C350.679 304.859 349.599 302.079 349.579 299.299C349.559 296.319 348.559 293.459 346.459 291.339L342.959 287.839C340.859 285.739 337.979 284.739 334.999 284.719C332.219 284.699 329.459 283.619 327.339 281.499C325.219 279.379 324.139 276.599 324.119 273.819C324.099 270.839 323.099 267.959 320.999 265.859L317.519 262.379C315.419 260.279 312.539 259.279 309.579 259.259C308.739 259.259 307.919 259.119 307.119 258.939C305.199 258.479 303.379 257.539 301.899 256.059C299.259 253.419 298.279 249.779 298.879 246.359L257.039 288.199L255.619 289.619L246.219 299.019C249.459 298.439 252.899 299.319 255.499 301.659C255.639 301.799 255.799 301.899 255.939 302.039C258.039 304.139 259.099 306.859 259.159 309.599C259.219 312.519 260.199 315.339 262.279 317.419L266.019 321.159C268.099 323.239 270.939 324.239 273.879 324.279C276.619 324.339 279.339 325.399 281.419 327.499C283.519 329.599 284.579 332.319 284.639 335.059C284.699 337.979 285.699 340.819 287.759 342.879L291.499 346.619C293.559 348.679 296.399 349.679 299.319 349.739C302.059 349.799 304.779 350.859 306.859 352.959C309.499 355.599 310.499 359.239 309.879 362.659L362.499 309.999Z" fill="black"/>
<path d="M394.898 339.82C388.618 333.54 377.678 322.6 365.198 310.1L310.078 365.22C322.558 377.7 333.498 388.62 339.798 394.92C342.918 398.04 347.978 398.04 351.118 394.92L394.898 351.14C398.018 348.02 398.018 342.96 394.898 339.82Z" fill="black"/>
</svg>
