<svg width="512" height="512" viewBox="0 0 512 512" fill="none" xmlns="http://www.w3.org/2000/svg">
<path d="M268.137 84.4592L259.577 64.6992H253.577L244.977 84.4592H268.137Z" fill="black"/>
<path d="M295.578 283.999C295.578 276.699 295.578 272.259 295.578 272.239V242.619C295.578 200.679 289.718 158.999 278.198 118.999L269.398 88.459H243.698L235.218 117.639C223.518 157.899 217.578 199.899 217.578 242.159V272.239C217.578 272.259 217.578 276.699 217.578 283.999H295.578Z" fill="black"/>
<path d="M219.277 376H293.737C290.897 374.02 289.017 370.74 289.017 367C289.017 364 290.217 361.28 292.177 359.3C294.257 357.18 295.597 354.44 295.597 351.48V346.54C295.597 343.56 294.257 340.82 292.177 338.7C290.237 336.72 289.037 334 289.037 331C289.037 328 290.237 325.28 292.197 323.3C294.277 321.18 295.617 318.44 295.617 315.46V310.54C295.617 307.58 294.277 304.84 292.197 302.72C290.237 300.74 289.037 298.02 289.037 295C289.037 291.26 290.917 287.98 293.757 286H219.297C222.137 287.98 224.017 291.26 224.017 295C224.017 297.96 222.837 300.64 220.937 302.62C218.897 304.72 217.617 307.42 217.617 310.34V315.62C217.617 318.56 218.917 321.26 220.957 323.38C222.857 325.36 224.017 328.04 224.017 330.98C224.017 333.94 222.857 336.62 220.957 338.58C218.917 340.68 217.637 343.4 217.637 346.32V351.62C217.637 354.54 218.937 357.26 220.957 359.36C222.857 361.34 224.017 364.02 224.017 366.96C223.997 370.74 222.117 374.02 219.277 376Z" fill="black"/>
<path d="M217.617 378C217.617 395.66 217.637 411.12 217.637 420C217.637 424.42 221.217 428 225.637 428H287.557C291.977 428 295.557 424.42 295.557 420C295.557 411.12 295.577 395.66 295.577 378H217.617Z" fill="black"/>
</svg>
