<svg width="512" height="512" viewBox="0 0 512 512" fill="none" xmlns="http://www.w3.org/2000/svg">
<path d="M377.666 142.301L363.066 153.081L379.966 162.841L382.046 144.821L377.666 142.301Z" fill="black"/>
<path d="M342.009 173.18C340.649 174.48 339.349 175.84 338.009 177.16C328.109 209.8 314.449 241.36 297.269 271.1L282.449 296.76C282.449 296.78 281.849 297.78 280.809 299.6L315.969 319.9C319.049 314.58 320.909 311.34 320.929 311.32L333.389 289.72C351.049 259.14 364.309 226.28 372.749 192.28L379.189 166.3L360.449 155.48L342.009 173.18Z" fill="black"/>
<path d="M276.57 306.922C277.91 304.602 279.05 302.621 279.97 301.021L313.77 320.542C310.85 320.782 308.11 322.381 306.53 325.121C305.27 327.321 304.99 329.801 305.59 332.081C306.21 334.501 306.03 337.061 304.79 339.221L302.71 342.822C301.45 345.002 299.33 346.422 296.91 347.102C294.65 347.722 292.63 349.201 291.37 351.382C290.11 353.562 289.85 356.062 290.43 358.322C291.05 360.742 290.87 363.302 289.63 365.482L287.55 369.081C286.29 371.241 284.17 372.681 281.77 373.341C279.51 373.961 277.49 375.441 276.23 377.621C274.65 380.341 274.65 383.521 275.89 386.181L241.93 366.561C242.25 366.161 242.57 365.781 242.83 365.341L245.31 361.061C246.79 358.481 247.01 355.441 246.27 352.561C245.57 349.861 245.89 346.922 247.39 344.322C248.89 341.722 251.29 339.961 253.97 339.221C256.83 338.421 259.37 336.722 260.85 334.142L263.31 329.882C264.79 327.322 265.01 324.281 264.27 321.401C263.57 318.701 263.89 315.742 265.39 313.142C267.25 309.902 270.53 308.001 273.99 307.721L276.57 306.922Z" fill="black"/>
<path d="M229.548 388.32C226.228 394.06 223.068 399.54 220.168 404.56L249.488 421.5C252.708 423.36 256.828 422.26 258.688 419.04C262.428 412.56 268.948 401.3 276.388 388.42L240.728 367.84C239.368 369.04 237.748 369.94 235.948 370.44C233.268 371.18 230.868 372.94 229.368 375.54C227.508 378.78 227.488 382.56 228.968 385.7L229.548 388.32Z" fill="black"/>
<path d="M345.048 93L339.848 90L322.508 102.82L342.568 114.4L345.048 93Z" fill="black"/>
<path d="M287.271 265.081C304.431 235.341 318.111 203.781 328.011 171.141C330.191 163.921 332.211 156.641 334.031 149.321L341.691 118.481L319.431 105.641L297.511 126.661C267.251 155.681 241.091 189.081 219.971 225.681L204.931 251.721C204.911 251.741 202.691 255.581 199.051 261.901L249.531 291.041L266.611 300.901C267.951 298.581 269.091 296.601 270.011 295.001C270.311 294.461 270.591 293.981 270.851 293.541C271.891 291.721 272.491 290.721 272.491 290.701L287.271 265.081Z" fill="black"/>
<path d="M235.288 355.08C236.768 352.5 236.988 349.46 236.248 346.58C235.548 343.88 235.868 340.94 237.368 338.34C238.868 335.74 241.268 333.98 243.948 333.24C246.808 332.44 249.348 330.74 250.828 328.16L253.288 323.9C254.768 321.34 254.988 318.3 254.248 315.42C253.548 312.72 253.868 309.76 255.368 307.16C257.228 303.92 260.508 302.02 263.968 301.74L248.448 292.78L199.488 264.52C200.968 267.66 200.948 271.44 199.088 274.68C197.608 277.24 195.248 278.98 192.608 279.74C189.788 280.54 187.328 282.24 185.868 284.78L183.228 289.36C181.768 291.9 181.528 294.9 182.228 297.76C182.888 300.42 182.548 303.32 181.088 305.88C179.608 308.44 177.248 310.18 174.628 310.94C171.808 311.76 169.348 313.44 167.868 315.98L165.228 320.58C163.768 323.12 163.528 326.1 164.248 328.94C164.908 331.6 164.588 334.5 163.108 337.06C161.248 340.3 157.968 342.2 154.508 342.5L198.908 368.14L218.988 379.72C217.508 376.58 217.528 372.8 219.388 369.56C220.888 366.96 223.288 365.22 225.968 364.46C227.768 363.96 229.388 363.06 230.748 361.86C231.188 361.48 231.588 361.06 231.948 360.6C232.268 360.2 232.588 359.82 232.848 359.38L235.288 355.08Z" fill="black"/>
<path d="M197.889 369.819L152.049 343.359C143.229 358.659 135.509 372.039 131.069 379.739C128.869 383.559 130.169 388.459 134.009 390.659L187.629 421.619C191.449 423.819 196.349 422.519 198.549 418.699C201.329 413.899 205.389 406.879 210.189 398.559C213.089 393.559 216.249 388.079 219.569 382.319L197.889 369.819Z" fill="black"/>
</svg>
