<svg width="512" height="512" viewBox="0 0 512 512" fill="none" xmlns="http://www.w3.org/2000/svg">
<path d="M417.541 160.56L437.301 152V146L417.541 137.4V160.56Z" fill="black"/>
<path d="M217.999 188C225.299 188 229.739 188 229.759 188H259.379C301.319 188 342.999 182.14 382.999 170.62L413.539 161.82V136.12L384.359 127.64C344.099 115.94 302.099 110 259.839 110H229.759C229.739 110 225.299 110 217.999 110V188Z" fill="black"/>
<path d="M126 111.699V186.159C127.98 183.319 131.26 181.439 135 181.439C138 181.439 140.72 182.639 142.7 184.599C144.82 186.679 147.56 188.019 150.52 188.019H155.46C158.44 188.019 161.18 186.679 163.3 184.599C165.28 182.659 168 181.459 171 181.459C174 181.459 176.72 182.659 178.7 184.619C180.82 186.699 183.56 188.039 186.54 188.039H191.46C194.42 188.039 197.16 186.699 199.28 184.619C201.26 182.659 203.98 181.459 207 181.459C210.74 181.459 214.02 183.339 216 186.179V111.719C214.02 114.559 210.74 116.439 207 116.439C204.04 116.439 201.36 115.259 199.38 113.359C197.28 111.319 194.58 110.039 191.66 110.039H186.38C183.44 110.039 180.74 111.339 178.62 113.379C176.64 115.279 173.96 116.439 171.02 116.439C168.06 116.439 165.38 115.279 163.42 113.379C161.32 111.339 158.6 110.059 155.68 110.059H150.38C147.46 110.059 144.74 111.359 142.64 113.379C140.66 115.279 137.98 116.439 135.04 116.439C131.26 116.419 127.98 114.539 126 111.699Z" fill="black"/>
<path d="M124 110.039C106.34 110.039 90.88 110.059 82 110.059C77.58 110.059 74 113.639 74 118.059V179.979C74 184.399 77.58 187.979 82 187.979C90.88 187.979 106.34 187.999 124 187.999V110.039Z" fill="black"/>
<path d="M417.541 266.599L437.301 258.039V252.039L417.541 243.439V266.599Z" fill="black"/>
<path d="M217.999 294.039C225.299 294.039 229.739 294.039 229.759 294.039H259.379C301.319 294.039 342.999 288.179 382.999 276.659L413.539 267.859V242.159L384.359 233.679C344.099 221.979 302.099 216.039 259.839 216.039H229.759C229.739 216.039 225.299 216.039 217.999 216.039V294.039Z" fill="black"/>
<path d="M126 217.738V292.198C127.98 289.358 131.26 287.478 135 287.478C138 287.478 140.72 288.678 142.7 290.638C144.82 292.718 147.56 294.058 150.52 294.058H155.46C158.44 294.058 161.18 292.718 163.3 290.638C165.28 288.698 168 287.498 171 287.498C174 287.498 176.72 288.698 178.7 290.658C180.82 292.738 183.56 294.078 186.54 294.078H191.46C194.42 294.078 197.16 292.738 199.28 290.658C201.26 288.698 203.98 287.498 207 287.498C210.74 287.498 214.02 289.378 216 292.218V217.758C214.02 220.598 210.74 222.478 207 222.478C204.04 222.478 201.36 221.298 199.38 219.398C197.28 217.358 194.58 216.078 191.66 216.078H186.38C183.44 216.078 180.74 217.378 178.62 219.418C176.64 221.318 173.96 222.478 171.02 222.478C168.06 222.478 165.38 221.318 163.42 219.418C161.32 217.378 158.6 216.098 155.68 216.098H150.38C147.46 216.098 144.74 217.398 142.64 219.418C140.66 221.318 137.98 222.478 135.04 222.478C131.26 222.458 127.98 220.578 126 217.738Z" fill="black"/>
<path d="M124 216.078C106.34 216.078 90.88 216.098 82 216.098C77.58 216.098 74 219.678 74 224.098V286.018C74 290.438 77.58 294.018 82 294.018C90.88 294.018 106.34 294.038 124 294.038V216.078Z" fill="black"/>
<path d="M417.541 372.64L437.301 364.08V358.08L417.541 349.48V372.64Z" fill="black"/>
<path d="M217.999 400.08C225.299 400.08 229.739 400.08 229.759 400.08H259.379C301.319 400.08 342.999 394.22 382.999 382.7L413.539 373.9V348.2L384.359 339.72C344.099 328.02 302.099 322.08 259.839 322.08H229.759C229.739 322.08 225.299 322.08 217.999 322.08V400.08Z" fill="black"/>
<path d="M126 323.779V398.239C127.98 395.399 131.26 393.519 135 393.519C138 393.519 140.72 394.719 142.7 396.679C144.82 398.759 147.56 400.099 150.52 400.099H155.46C158.44 400.099 161.18 398.759 163.3 396.679C165.28 394.739 168 393.539 171 393.539C174 393.539 176.72 394.739 178.7 396.699C180.82 398.779 183.56 400.119 186.54 400.119H191.46C194.42 400.119 197.16 398.779 199.28 396.699C201.26 394.739 203.98 393.539 207 393.539C210.74 393.539 214.02 395.419 216 398.259V323.799C214.02 326.639 210.74 328.519 207 328.519C204.04 328.519 201.36 327.339 199.38 325.439C197.28 323.399 194.58 322.119 191.66 322.119H186.38C183.44 322.119 180.74 323.419 178.62 325.459C176.64 327.359 173.96 328.519 171.02 328.519C168.06 328.519 165.38 327.359 163.42 325.459C161.32 323.419 158.6 322.139 155.68 322.139H150.38C147.46 322.139 144.74 323.439 142.64 325.459C140.66 327.359 137.98 328.519 135.04 328.519C131.26 328.499 127.98 326.619 126 323.779Z" fill="black"/>
<path d="M124 322.119C106.34 322.119 90.88 322.139 82 322.139C77.58 322.139 74 325.719 74 330.139V392.059C74 396.479 77.58 400.059 82 400.059C90.88 400.059 106.34 400.079 124 400.079V322.119Z" fill="black"/>
</svg>
