<svg width="512" height="512" viewBox="0 0 512 512" fill="none" xmlns="http://www.w3.org/2000/svg">
<path d="M271.681 84C271.581 83.3 271.521 82.6 271.521 81.9V78.34C271.521 77.06 270.481 76 269.181 76H242.801C241.521 76 240.461 77.04 240.461 78.34V81.9C240.461 82.6 240.401 83.32 240.301 84H271.681Z" fill="black"/>
<path d="M273.92 89.74C273.14 88.58 272.54 87.32 272.12 86H239.84C239.44 87.32 238.84 88.58 238.04 89.74C234.06 95.56 226.68 109.36 228.04 130H283.88C285.28 109.36 277.9 95.56 273.92 89.74Z" fill="black"/>
<path d="M284 134H228V426H284V134Z" fill="black"/>
<path d="M222 430V434C222 436.2 224.18 438 226.86 438H285.14C287.82 438 290 436.2 290 434V430C290 428.9 288.92 428 287.58 428H224.44C223.08 428 222 428.9 222 430Z" fill="black"/>
</svg>
