<svg width="512" height="512" viewBox="0 0 512 512" fill="none" xmlns="http://www.w3.org/2000/svg">
<path d="M138.75 116.59C138.19 116.17 137.65 115.71 137.15 115.21L134.63 112.69C133.71 111.77 132.23 111.77 131.33 112.69L112.69 131.35C111.77 132.27 111.77 133.75 112.69 134.65L115.21 137.17C115.71 137.67 116.17 138.21 116.59 138.77L138.75 116.59Z" fill="black"/>
<path d="M144.392 119.05C143.012 118.79 141.712 118.33 140.492 117.67L117.672 140.51C118.312 141.73 118.792 143.05 119.052 144.41C120.352 151.35 124.892 166.33 140.452 179.95L179.952 140.45C166.312 124.91 151.332 120.37 144.392 119.05Z" fill="black"/>
<path d="M182.824 143.231L143.227 182.828L349.7 389.301L389.297 349.704L182.824 143.231Z" fill="black"/>
<path d="M348.291 396.39L351.111 399.21C352.671 400.77 355.471 400.51 357.371 398.61L398.591 357.39C400.491 355.49 400.751 352.69 399.191 351.13L396.371 348.31C395.591 347.53 394.191 347.67 393.231 348.61L348.591 393.25C347.651 394.19 347.511 395.61 348.291 396.39Z" fill="black"/>
<path d="M395.629 138.77C396.049 138.21 396.509 137.67 397.009 137.17L399.529 134.65C400.449 133.73 400.449 132.25 399.529 131.35L380.869 112.69C379.949 111.77 378.469 111.77 377.569 112.69L375.049 115.21C374.549 115.71 374.009 116.17 373.449 116.59L395.629 138.77Z" fill="black"/>
<path d="M393.169 144.409C393.429 143.029 393.889 141.729 394.549 140.509L371.729 117.689C370.509 118.329 369.189 118.809 367.829 119.069C360.889 120.369 345.909 124.909 332.289 140.469L371.789 179.969C387.329 166.329 391.849 151.349 393.169 144.409Z" fill="black"/>
<path d="M115.849 348.291L113.029 351.111C111.469 352.671 111.729 355.471 113.629 357.371L154.849 398.591C156.749 400.491 159.549 400.751 161.109 399.191L163.929 396.371C164.709 395.591 164.569 394.191 163.629 393.231L118.989 348.591C118.029 347.651 116.629 347.511 115.849 348.291Z" fill="black"/>
<path d="M329.382 143.245L260.199 212.428L299.797 252.025L368.979 182.843L329.382 143.245Z" fill="black"/>
<path d="M212.712 259.913L122.91 349.715L162.508 389.312L252.309 299.511L212.712 259.913Z" fill="black"/>
</svg>
