<svg width="512" height="512" viewBox="0 0 512 512" fill="none" xmlns="http://www.w3.org/2000/svg">
<path d="M372.531 153.371L358.691 145.371C357.871 147.311 356.951 149.291 355.871 151.311L371.031 160.071C371.251 159.531 371.491 159.011 371.771 158.511L373.231 155.991C373.751 155.071 373.431 153.891 372.531 153.371Z" fill="black"/>
<path d="M355.049 152.752L370.509 161.672C370.249 162.772 370.169 163.912 370.249 165.052C370.689 170.812 370.269 183.632 360.849 197.732L336.969 183.932L355.049 152.752Z" fill="black"/>
<path d="M335.321 186.791L215.691 393.99L239.628 407.81L359.258 200.611L335.321 186.791Z" fill="black"/>
<path d="M235.53 416.79C237.43 417.89 239.71 417.51 240.61 415.95L242.25 413.11C242.71 412.33 242.29 411.25 241.35 410.69L214.87 395.41L210.77 402.51L235.53 416.79Z" fill="black"/>
<path d="M357.393 107.77L359.173 104.69C359.813 103.57 359.433 102.15 358.313 101.49L335.473 88.3104C334.353 87.6704 332.933 88.0504 332.273 89.1704L330.493 92.2504C330.133 92.8704 329.733 93.4504 329.293 93.9904L356.453 109.67C356.733 109.01 357.033 108.37 357.393 107.77Z" fill="black"/>
<path d="M355.551 115.75C355.451 114.35 355.551 112.97 355.871 111.63L327.931 95.4902C326.931 96.4302 325.771 97.2102 324.511 97.8302C318.151 100.89 304.851 109.15 295.711 127.71L334.051 149.85L344.071 155.63C345.171 153.99 346.151 152.37 347.051 150.75C347.311 150.27 347.611 149.79 347.851 149.33C348.931 147.31 349.871 145.33 350.671 143.39C355.751 131.29 355.951 121.07 355.551 115.75Z" fill="black"/>
<path d="M330.292 152.291L293.652 131.131L147.652 384.011L196.132 412.011L202.792 400.491L206.872 393.411L207.692 391.991L327.332 184.771L328.972 181.931L342.132 159.131L330.292 152.291Z" fill="black"/>
<path d="M198.231 415.53L143.551 383.95C142.391 383.27 140.991 383.51 140.451 384.47L138.451 387.93C137.351 389.85 138.331 392.49 140.651 393.83L191.131 422.97C193.451 424.31 196.231 423.85 197.331 421.93L199.331 418.47C199.891 417.51 199.391 416.19 198.231 415.53Z" fill="black"/>
</svg>
