<svg width="512" height="512" viewBox="0 0 512 512" fill="none" xmlns="http://www.w3.org/2000/svg">
<path d="M177.295 134.881C177.204 134.387 177.149 133.893 177.149 133.399V130.886C177.149 129.983 176.201 129.234 175.015 129.234H150.963C149.796 129.234 148.829 129.968 148.829 130.886V133.399C148.829 133.893 148.775 134.401 148.684 134.881H177.295Z" fill="black"/>
<path d="M179.338 138.933C178.626 138.114 178.079 137.225 177.696 136.293H148.265C147.9 137.225 147.353 138.114 146.624 138.933C142.995 143.041 136.266 152.782 137.506 167.352H188.419C189.695 152.782 182.966 143.041 179.338 138.933Z" fill="black"/>
<path d="M188.528 170.176H137.469V376.293H188.528V170.176Z" fill="black"/>
<path d="M132 379.117V381.94C132 383.493 133.988 384.764 136.431 384.764H189.569C192.012 384.764 194 383.493 194 381.94V379.117C194 378.34 193.015 377.705 191.794 377.705H134.225C132.985 377.705 132 378.34 132 379.117Z" fill="black"/>
<path d="M271.681 84C271.581 83.3 271.521 82.6 271.521 81.9V78.34C271.521 77.06 270.481 76 269.181 76H242.801C241.521 76 240.461 77.04 240.461 78.34V81.9C240.461 82.6 240.401 83.32 240.301 84H271.681Z" fill="black"/>
<path d="M273.92 89.74C273.14 88.58 272.54 87.32 272.12 86H239.84C239.44 87.32 238.84 88.58 238.04 89.74C234.06 95.56 226.68 109.36 228.04 130H283.88C285.28 109.36 277.9 95.56 273.92 89.74Z" fill="black"/>
<path d="M284 134H228V426H284V134Z" fill="black"/>
<path d="M222 430V434C222 436.2 224.18 438 226.86 438H285.14C287.82 438 290 436.2 290 434V430C290 428.9 288.92 428 287.58 428H224.44C223.08 428 222 428.9 222 430Z" fill="black"/>
<path d="M363.295 134.881C363.204 134.387 363.149 133.893 363.149 133.399V130.886C363.149 129.983 362.201 129.234 361.015 129.234H336.963C335.796 129.234 334.829 129.968 334.829 130.886V133.399C334.829 133.893 334.775 134.401 334.684 134.881H363.295Z" fill="black"/>
<path d="M365.338 138.933C364.626 138.114 364.079 137.225 363.696 136.293H334.265C333.9 137.225 333.353 138.114 332.624 138.933C328.995 143.041 322.266 152.782 323.506 167.352H374.419C375.695 152.782 368.966 143.041 365.338 138.933Z" fill="black"/>
<path d="M374.528 170.176H323.469V376.293H374.528V170.176Z" fill="black"/>
<path d="M318 379.117V381.94C318 383.493 319.988 384.764 322.431 384.764H375.569C378.012 384.764 380 383.493 380 381.94V379.117C380 378.34 379.015 377.705 377.794 377.705H320.225C318.985 377.705 318 378.34 318 379.117Z" fill="black"/>
</svg>
