<svg width="512" height="512" viewBox="0 0 512 512" fill="none" xmlns="http://www.w3.org/2000/svg">
<path d="M430 175.681C430.7 175.581 431.4 175.521 432.1 175.521H435.66C436.94 175.521 438 174.481 438 173.181V146.801C438 145.521 436.96 144.461 435.66 144.461H432.1C431.4 144.461 430.68 144.401 430 144.301V175.681Z" fill="black"/>
<path d="M424.26 177.92C425.42 177.14 426.68 176.54 428 176.12V143.84C426.68 143.44 425.42 142.84 424.26 142.04C418.44 138.06 404.64 130.68 384 132.04V187.88C404.64 189.28 418.44 181.9 424.26 177.92Z" fill="black"/>
<path d="M380 188V132L88 132V188L380 188Z" fill="black"/>
<path d="M84 126H80C77.8 126 76 128.18 76 130.86V189.14C76 191.82 77.8 194 80 194H84C85.1 194 86 192.92 86 191.58V128.44C86 127.08 85.1 126 84 126Z" fill="black"/>
<path d="M430 271.681C430.7 271.581 431.4 271.521 432.1 271.521H435.66C436.94 271.521 438 270.481 438 269.181V242.801C438 241.521 436.96 240.461 435.66 240.461H432.1C431.4 240.461 430.68 240.401 430 240.301V271.681Z" fill="black"/>
<path d="M424.26 273.92C425.42 273.14 426.68 272.54 428 272.12V239.84C426.68 239.44 425.42 238.84 424.26 238.04C418.44 234.06 404.64 226.68 384 228.04V283.88C404.64 285.28 418.44 277.9 424.26 273.92Z" fill="black"/>
<path d="M380 284V228L88 228V284H380Z" fill="black"/>
<path d="M84 222H80C77.8 222 76 224.18 76 226.86V285.14C76 287.82 77.8 290 80 290H84C85.1 290 86 288.92 86 287.58V224.44C86 223.08 85.1 222 84 222Z" fill="black"/>
<path d="M430 367.681C430.7 367.581 431.4 367.521 432.1 367.521H435.66C436.94 367.521 438 366.481 438 365.181V338.801C438 337.521 436.96 336.461 435.66 336.461H432.1C431.4 336.461 430.68 336.401 430 336.301V367.681Z" fill="black"/>
<path d="M424.26 369.92C425.42 369.14 426.68 368.54 428 368.12V335.84C426.68 335.44 425.42 334.84 424.26 334.04C418.44 330.06 404.64 322.68 384 324.04V379.88C404.64 381.28 418.44 373.9 424.26 369.92Z" fill="black"/>
<path d="M380 380V324H88V380H380Z" fill="black"/>
<path d="M84 318H80C77.8 318 76 320.18 76 322.86V381.14C76 383.82 77.8 386 80 386H84C85.1 386 86 384.92 86 383.58V320.44C86 319.08 85.1 318 84 318Z" fill="black"/>
</svg>
