<svg width="512" height="512" viewBox="0 0 512 512" fill="none" xmlns="http://www.w3.org/2000/svg">
<path d="M284.819 144.02H227.879V204.02H284.819V144.02Z" fill="black"/>
<path d="M282 140.02V82.12C282 73.42 277.16 65.38 269.34 61.16L269.24 61.1C265.48 59.06 261.26 58 256.96 58C252.7 58 248.52 59.06 244.78 61.08L244.66 61.14C236.84 65.38 231.98 73.4 231.98 82.12V140.02H282Z" fill="black"/>
<path d="M284.82 206.02H227.88L226 224.02V439.9C228.42 439.9 230.44 441.64 230.9 443.94H281.7C282.16 441.64 284.18 439.9 286.6 439.9C286.64 439.9 286.66 439.92 286.7 439.92V224.02L284.82 206.02Z" fill="black"/>
<path d="M281.7 445.939H230.9C230.44 448.239 228.42 449.979 226 449.979V454.819L286.7 454.799V449.979C286.66 449.979 286.64 449.999 286.6 449.999C284.18 449.979 282.16 448.239 281.7 445.939Z" fill="black"/>
</svg>
