<svg width="512" height="512" viewBox="0 0 512 512" fill="none" xmlns="http://www.w3.org/2000/svg">
<path d="M368.801 195.821V138.881H308.801V195.821H368.801Z" fill="black"/>
<path d="M372.8 193H430.7C439.4 193 447.44 188.16 451.66 180.34L451.72 180.24C453.76 176.48 454.82 172.26 454.82 167.96C454.82 163.7 453.76 159.52 451.74 155.78L451.68 155.66C447.44 147.84 439.42 142.98 430.7 142.98H372.8V193Z" fill="black"/>
<path d="M306.801 195.82V138.88L288.801 137L72.9208 137C72.9208 139.42 71.1808 141.44 68.8808 141.9V192.7C71.1808 193.16 72.9208 195.18 72.9208 197.6C72.9208 197.64 72.9008 197.66 72.9008 197.7H288.801L306.801 195.82Z" fill="black"/>
<path d="M66.8789 192.7V141.9C64.5789 141.44 62.8389 139.42 62.8389 137H57.9989L58.0189 197.7H62.8389C62.8389 197.66 62.8189 197.64 62.8189 197.6C62.8389 195.18 64.5789 193.16 66.8789 192.7Z" fill="black"/>
<path d="M368.801 284.52V227.58H308.801V284.52H368.801Z" fill="black"/>
<path d="M372.8 281.7H430.7C439.4 281.7 447.44 276.86 451.66 269.04L451.72 268.94C453.76 265.18 454.82 260.96 454.82 256.66C454.82 252.4 453.76 248.22 451.74 244.48L451.68 244.36C447.44 236.54 439.42 231.68 430.7 231.68H372.8V281.7Z" fill="black"/>
<path d="M306.801 284.519V227.579L288.801 225.699L72.9208 225.699C72.9208 228.119 71.1808 230.139 68.8808 230.599V281.399C71.1808 281.859 72.9208 283.879 72.9208 286.299C72.9208 286.339 72.9008 286.359 72.9008 286.399H288.801L306.801 284.519Z" fill="black"/>
<path d="M66.8789 281.399V230.599C64.5789 230.139 62.8389 228.119 62.8389 225.699H57.9989L58.0189 286.399H62.8389C62.8389 286.359 62.8189 286.339 62.8189 286.299C62.8389 283.879 64.5789 281.859 66.8789 281.399Z" fill="black"/>
<path d="M368.801 373.221V316.281H308.801V373.221H368.801Z" fill="black"/>
<path d="M372.8 370.401H430.7C439.4 370.401 447.44 365.561 451.66 357.741L451.72 357.641C453.76 353.881 454.82 349.661 454.82 345.361C454.82 341.101 453.76 336.921 451.74 333.181L451.68 333.061C447.44 325.241 439.42 320.381 430.7 320.381H372.8V370.401Z" fill="black"/>
<path d="M306.801 373.22V316.28L288.801 314.4H72.9208C72.9208 316.82 71.1808 318.84 68.8808 319.3V370.1C71.1808 370.56 72.9208 372.58 72.9208 375C72.9208 375.04 72.9008 375.06 72.9008 375.1H288.801L306.801 373.22Z" fill="black"/>
<path d="M66.8789 370.1V319.3C64.5789 318.84 62.8389 316.82 62.8389 314.4H57.9989L58.0189 375.1H62.8389C62.8389 375.06 62.8189 375.04 62.8189 375C62.8389 372.58 64.5789 370.56 66.8789 370.1Z" fill="black"/>
</svg>
