<svg width="512" height="512" viewBox="0 0 512 512" fill="none" xmlns="http://www.w3.org/2000/svg">
<path d="M333.122 183.809L355.662 196.809L330.702 240.049L308.742 227.369L333.122 183.809Z" fill="black"/>
<path d="M342.581 162.969L366.061 121.129C367.901 121.609 369.701 122.309 371.381 123.269C374.481 125.049 377.081 127.569 378.941 130.609L379.001 130.689C382.861 136.989 383.021 144.789 379.401 151.069L355.321 192.769L334.781 180.929L342.341 167.849L342.581 162.969Z" fill="black"/>
<path d="M210 400.809L228.66 411.589C229.96 410.129 232.12 409.709 233.86 410.729C233.88 410.749 233.9 410.769 233.94 410.789L323.74 255.249L329.88 241.489L308.06 228.889L303.98 238.049L210 400.809Z" fill="black"/>
<path d="M227.741 421.51L229.741 418.03C229.721 418.01 229.681 418.01 229.661 417.99C227.921 416.99 227.181 414.89 227.801 413.05L209.141 402.27L205.461 408.65L227.741 421.51Z" fill="black"/>
<path d="M334.339 167.829L318.819 158.869L285.039 139.369L255.039 191.329L285.859 209.129L304.339 219.809L325.119 183.809L326.779 180.929L334.339 167.829Z" fill="black"/>
<path d="M358.062 121.129L362.842 112.829C367.202 105.289 367.022 95.9091 362.362 88.3491L362.302 88.2491C360.062 84.6091 356.942 81.5691 353.222 79.4291C349.522 77.3091 345.382 76.1291 341.142 76.0091H341.002C332.102 75.7691 323.902 80.2891 319.542 87.8491L290.602 137.969L320.822 155.429L333.902 162.969L358.062 121.129Z" fill="black"/>
<path d="M284.861 210.868L254.041 193.068L243.401 207.708L135.461 394.648C137.561 395.848 138.441 398.368 137.681 400.588L181.681 425.988C183.241 424.228 185.841 423.728 187.941 424.948C187.981 424.968 188.001 424.988 188.021 425.008L197.461 408.648L201.141 402.268L201.981 400.808L295.941 238.048L300.021 228.888L300.701 227.368L303.301 221.528L284.861 210.868Z" fill="black"/>
<path d="M180.68 427.75L136.68 402.35C135.12 404.11 132.52 404.61 130.42 403.39L128 407.57L180.58 437.91L183 433.73C182.96 433.71 182.94 433.71 182.9 433.69C180.8 432.49 179.92 429.97 180.68 427.75Z" fill="black"/>
</svg>
