<svg width="512" height="512" viewBox="0 0 512 512" fill="none" xmlns="http://www.w3.org/2000/svg">
<path d="M196.388 182.348H147.609V221.886H196.388V182.348Z" fill="black"/>
<path d="M193.972 179.712V141.557C193.972 135.824 189.826 130.525 183.126 127.744L183.041 127.705C179.82 126.361 176.204 125.662 172.521 125.662C168.871 125.662 165.29 126.361 162.086 127.692L161.984 127.731C155.285 130.525 151.121 135.81 151.121 141.557V179.712H193.972Z" fill="black"/>
<path d="M196.389 223.205H147.611L146 235.067V377.327C148.073 377.327 149.804 378.474 150.198 379.989H193.717C194.111 378.474 195.841 377.327 197.914 377.327C197.949 377.327 197.966 377.34 198 377.34V235.067L196.389 223.205Z" fill="black"/>
<path d="M193.717 381.307H150.198C149.804 382.822 148.073 383.969 146 383.969V387.158L198 387.145V383.969C197.966 383.969 197.949 383.982 197.914 383.982C195.841 383.969 194.111 382.822 193.717 381.307Z" fill="black"/>
<path d="M284.819 144.02H227.879V204.02H284.819V144.02Z" fill="black"/>
<path d="M282 140.02V82.12C282 73.42 277.16 65.38 269.34 61.16L269.24 61.1C265.48 59.06 261.26 58 256.96 58C252.7 58 248.52 59.06 244.78 61.08L244.66 61.14C236.84 65.38 231.98 73.4 231.98 82.12V140.02H282Z" fill="black"/>
<path d="M284.82 206.02H227.88L226 224.02V439.9C228.42 439.9 230.44 441.64 230.9 443.94H281.7C282.16 441.64 284.18 439.9 286.6 439.9C286.64 439.9 286.66 439.92 286.7 439.92V224.02L284.82 206.02Z" fill="black"/>
<path d="M281.7 445.939H230.9C230.44 448.239 228.42 449.979 226 449.979V454.819L286.7 454.799V449.979C286.66 449.979 286.64 449.999 286.6 449.999C284.18 449.979 282.16 448.239 281.7 445.939Z" fill="black"/>
<path d="M365.091 182.348H316.312V221.886H365.091V182.348Z" fill="black"/>
<path d="M362.675 179.712V141.557C362.675 135.824 358.529 130.525 351.829 127.744L351.744 127.705C348.523 126.361 344.908 125.662 341.224 125.662C337.574 125.662 333.994 126.361 330.79 127.692L330.687 127.731C323.988 130.525 319.824 135.81 319.824 141.557V179.712H362.675Z" fill="black"/>
<path d="M365.093 223.205H316.314L314.703 235.067V377.327C316.776 377.327 318.507 378.474 318.901 379.989H362.42C362.814 378.474 364.544 377.327 366.617 377.327C366.652 377.327 366.669 377.34 366.703 377.34V235.067L365.093 223.205Z" fill="black"/>
<path d="M362.42 381.307H318.901C318.507 382.822 316.776 383.969 314.703 383.969V387.158L366.703 387.145V383.969C366.669 383.969 366.652 383.982 366.617 383.982C364.544 383.969 362.814 382.822 362.42 381.307Z" fill="black"/>
</svg>
