<svg width="512" height="512" viewBox="0 0 512 512" fill="none" xmlns="http://www.w3.org/2000/svg">
<path d="M188.485 148.667L148.223 188.93L190.649 231.356L230.911 191.093L188.485 148.667Z" fill="black"/>
<path d="M183.662 147.837L142.722 106.897C136.562 100.737 127.462 98.4967 118.942 101.017L118.822 101.057C114.722 102.277 110.982 104.497 107.962 107.557C104.962 110.577 102.742 114.277 101.542 118.337L101.502 118.477C98.9619 126.997 101.222 136.117 107.382 142.277L148.302 183.197L183.662 147.837Z" fill="black"/>
<path d="M232.322 192.518L192.062 232.778L203.462 246.838L356.103 399.478C357.823 397.758 360.462 397.558 362.422 398.858L398.342 362.938C397.042 360.978 397.242 358.338 398.962 356.618C398.982 356.598 399.023 356.578 399.043 356.558L246.383 203.898L232.322 192.518Z" fill="black"/>
<path d="M399.763 364.376L363.843 400.296C365.143 402.256 364.943 404.896 363.223 406.616L366.643 410.036L409.563 367.096L406.143 363.676C406.123 363.696 406.103 363.736 406.083 363.756C404.383 365.476 401.723 365.676 399.763 364.376Z" fill="black"/>
<path d="M321.102 148.22L278.676 190.646L318.938 230.909L361.364 188.483L321.102 148.22Z" fill="black"/>
<path d="M362.2 183.656L403.14 142.716C409.3 136.556 411.54 127.456 409.02 118.936L408.98 118.816C407.76 114.716 405.54 110.976 402.48 107.956C399.46 104.956 395.76 102.736 391.7 101.536L391.56 101.496C383.04 98.9561 373.92 101.216 367.76 107.376L326.84 148.296L362.2 183.656Z" fill="black"/>
<path d="M145.66 399.757L109.74 363.837C107.78 365.137 105.14 364.937 103.42 363.217L100 366.637L142.94 409.557L146.36 406.137C146.34 406.117 146.3 406.097 146.28 406.077C144.56 404.377 144.36 401.717 145.66 399.757Z" fill="black"/>
<path d="M207.459 259.195L110.559 356.095C112.279 357.815 112.479 360.455 111.179 362.415L147.099 398.335C149.059 397.035 151.699 397.235 153.419 398.955C153.439 398.975 153.459 399.015 153.479 399.035L250.399 302.115L207.459 259.195Z" fill="black"/>
<path d="M301.639 250.877L306.119 246.377L317.519 232.317L277.259 192.057L263.199 203.457L258.719 207.937L301.639 250.877Z" fill="black"/>
</svg>
