<svg width="512" height="512" viewBox="0 0 512 512" fill="none" xmlns="http://www.w3.org/2000/svg">
<path d="M116.826 231.478C116.333 230.603 116.163 229.583 116.346 228.596C116.529 227.609 117.052 226.718 117.826 226.078L120.226 223.878V223.678C119.624 222.295 118.746 221.049 117.645 220.017C116.545 218.986 115.245 218.189 113.826 217.678H113.626C44.626 243.878 26.826 283.278 22.226 300.478C21.9633 301.491 21.9291 302.55 22.126 303.578C22.3266 304.605 22.765 305.571 23.406 306.398C24.0446 307.237 24.8652 307.921 25.806 308.398C26.7466 308.857 27.7793 309.096 28.826 309.098H60.826C62.6013 309.054 64.3116 308.422 65.6876 307.299C67.0636 306.177 68.027 304.628 68.426 302.898C79.426 248.698 128.426 255.898 128.426 255.898C156.626 255.498 176.826 255.098 191.626 254.898V250.898C191.626 250.767 191.6 250.638 191.55 250.518C191.499 250.398 191.425 250.289 191.332 250.198C191.239 250.106 191.128 250.035 191.007 249.987C190.886 249.938 190.756 249.915 190.626 249.918L129.606 250.478C128.659 250.476 127.731 250.214 126.923 249.72C126.115 249.226 125.459 248.52 125.026 247.678L116.826 231.478ZM109.426 249.478C109.188 250.188 108.767 250.822 108.206 251.318C107.643 251.82 106.95 252.153 106.206 252.278C99.206 253.878 64.006 263.478 63.006 299.678C62.9956 300.841 62.5287 301.955 61.7057 302.777C60.8828 303.6 59.7697 304.067 58.606 304.078H34.826C34.1537 304.088 33.4897 303.928 32.8954 303.613C32.3011 303.299 31.7958 302.839 31.426 302.278C31.029 301.678 30.7821 300.992 30.706 300.278C30.6304 299.542 30.7404 298.8 31.026 298.118C35.026 286.518 51.226 248.518 101.426 228.318C102.414 227.924 103.513 227.911 104.51 228.28C105.508 228.65 106.333 229.376 106.826 230.318C108.826 234.078 112.026 241.878 109.426 249.478Z" fill="black"/>
<path d="M114.826 215.478C118.057 216.633 120.711 219 122.226 222.078L133.026 212.478C136.126 209.658 135.666 209.118 141.826 209.278H215.426V204.678H130.026C125.426 209.479 110.509 206.197 101.626 202.078C101.226 201.878 100.826 202.078 100.826 202.478V206.478C100.834 206.635 100.898 206.784 101.006 206.898C101.126 206.998 101.272 207.061 101.426 207.078C112.826 208.078 114.826 212.878 114.826 215.478Z" fill="black"/>
<path d="M102.825 229.879C102.543 229.846 102.259 229.917 102.025 230.079C52.4254 250.079 36.4254 287.879 32.8254 298.879C32.6834 299.214 32.6485 299.584 32.7254 299.939C32.7898 300.297 32.9646 300.626 33.2254 300.879C33.4246 301.173 33.6924 301.413 34.0054 301.579C34.3176 301.757 34.6668 301.86 35.0254 301.879H58.8254C59.4073 301.874 59.9638 301.641 60.3753 301.229C60.7867 300.818 61.0202 300.261 61.0254 299.679C62.0254 261.879 98.4254 251.879 105.825 250.079C106.211 249.98 106.563 249.78 106.845 249.498C107.126 249.217 107.327 248.865 107.425 248.479C109.825 241.679 106.825 234.479 104.825 230.879C104.591 230.57 104.29 230.317 103.945 230.139C103.598 229.964 103.214 229.875 102.825 229.879Z" fill="black"/>
<path d="M481.627 204.879C482.427 206.679 485.227 215.279 482.427 222.479H491.627V204.879H481.627Z" fill="black"/>
<path d="M408.627 253.879C418.827 253.079 436.027 251.279 446.027 238.679C449.232 234.631 451.487 229.915 452.627 224.879H217.227V255.479C223.027 255.479 226.227 255.479 228.427 255.479M418.627 241.479H252.227C250.9 241.479 249.629 240.952 248.691 240.014C247.753 239.077 247.227 237.805 247.227 236.479C247.227 235.153 247.753 233.881 248.691 232.943C249.629 232.006 250.9 231.479 252.227 231.479H418.627C419.953 231.479 421.224 232.006 422.162 232.943C423.1 233.881 423.627 235.153 423.627 236.479C423.627 237.805 423.1 239.077 422.162 240.014C421.224 240.952 419.953 241.479 418.627 241.479Z" fill="black"/>
<path d="M453.027 222.278H480.227C483.827 215.078 479.827 205.278 479.627 205.078L217.227 204.678V222.678" fill="black"/>
<path d="M418.626 233.678H252.226C251.436 233.698 250.685 234.021 250.127 234.579C249.569 235.137 249.246 235.888 249.226 236.678C249.209 237.274 249.377 237.861 249.706 238.359C250.036 238.856 250.51 239.24 251.066 239.458C251.433 239.609 251.828 239.684 252.226 239.678H418.626C419.421 239.678 420.184 239.362 420.747 238.799C421.31 238.236 421.626 237.473 421.626 236.678C421.626 235.882 421.31 235.119 420.747 234.556C420.184 233.994 419.421 233.678 418.626 233.678Z" fill="black"/>
<path d="M126.206 244.819C128.706 249.379 129.526 248.439 131.986 248.419L192.486 247.879C193.066 247.879 193.624 248.104 194.042 248.506C194.46 248.909 194.705 249.459 194.726 250.039L194.906 255.479C203.426 255.479 210.426 255.479 215.886 255.479V225.639C202.886 225.439 189.886 225.439 177.126 225.439V211.879H140.506C138.8 211.873 137.155 212.517 135.906 213.679L121.106 226.679C120.317 227.352 119.785 228.279 119.603 229.3C119.421 230.321 119.598 231.374 120.106 232.279L121.506 235.359M131.706 244.579C131.114 244.581 130.534 244.422 130.026 244.119C129.549 243.818 129.168 243.388 128.926 242.879C128.697 242.376 128.636 241.814 128.752 241.274C128.867 240.733 129.152 240.245 129.566 239.879C129.999 239.492 130.533 239.235 131.106 239.139C131.688 239.025 132.29 239.073 132.846 239.279C133.378 239.49 133.841 239.843 134.186 240.299C134.519 240.736 134.702 241.269 134.706 241.819C134.707 242.184 134.632 242.545 134.486 242.879C134.345 243.23 134.118 243.539 133.826 243.779C133.543 244.043 133.209 244.247 132.846 244.379C132.479 244.501 132.092 244.555 131.706 244.539V244.579ZM137.306 220.879C136.866 220.883 136.435 220.758 136.066 220.519C135.709 220.269 135.431 219.922 135.266 219.519C135.104 219.115 135.064 218.674 135.149 218.248C135.234 217.821 135.442 217.429 135.746 217.119C136.052 216.813 136.442 216.604 136.866 216.519C137.295 216.439 137.739 216.48 138.146 216.639C138.543 216.814 138.883 217.099 139.126 217.459C139.37 217.819 139.503 218.244 139.506 218.679C139.492 219.264 139.256 219.822 138.846 220.239C138.428 220.628 137.877 220.843 137.306 220.839V220.879ZM174.906 243.679C174.271 243.684 173.65 243.496 173.126 243.139C172.589 242.797 172.175 242.293 171.946 241.699C171.698 241.119 171.635 240.476 171.766 239.859C171.883 239.239 172.183 238.668 172.626 238.219C173.072 237.766 173.644 237.456 174.267 237.329C174.891 237.202 175.538 237.263 176.126 237.506C176.714 237.749 177.217 238.161 177.569 238.69C177.922 239.22 178.109 239.843 178.106 240.479C178.105 240.904 178.024 241.325 177.866 241.719C177.702 242.107 177.464 242.461 177.166 242.759C176.87 243.055 176.516 243.287 176.126 243.439C175.736 243.585 175.322 243.653 174.906 243.639V243.679ZM171.546 230.879L171.946 218.739L172.926 229.099L200.286 229.699L171.546 230.879ZM206.106 251.879C205.128 252.416 204.003 252.621 202.899 252.462C201.795 252.303 200.772 251.79 199.986 250.999C199.198 250.211 198.686 249.189 198.528 248.085C198.369 246.982 198.572 245.857 199.106 244.879C199.551 244.023 200.25 243.324 201.106 242.879C202.08 242.34 203.204 242.136 204.306 242.299C205.408 242.461 206.428 242.975 207.214 243.764C208 244.554 208.509 245.576 208.666 246.679C208.824 247.778 208.628 248.899 208.106 249.879C207.906 250.639 207.106 251.239 206.106 251.839V251.879Z" fill="black"/>
<path d="M179.426 211.479V223.479H215.426V211.479H179.426ZM181.426 220.479V219.479L211.666 221.359L181.426 220.479Z" fill="black"/>
<path d="M133.887 259.079C133.792 259.066 133.695 259.088 133.615 259.14C133.535 259.193 133.476 259.272 133.449 259.364C133.423 259.456 133.43 259.555 133.47 259.642C133.51 259.729 133.58 259.799 133.667 259.839C138.797 263.465 142.301 268.958 143.427 275.139C143.884 277.088 144.99 278.825 146.564 280.064C148.137 281.303 150.084 281.971 152.087 281.959H182.447C183.683 281.947 184.898 281.631 185.983 281.038C187.067 280.445 187.989 279.593 188.667 278.559C200.127 261.439 212.447 262.099 212.447 262.099C210.247 268.699 220.647 261.299 225.847 257.299C216.907 257.699 193.427 258.079 133.887 259.079ZM187.127 272.819C187.127 274.765 186.353 276.632 184.977 278.009C183.6 279.385 181.733 280.159 179.787 280.159H153.587C151.64 280.159 149.773 279.385 148.397 278.009C147.02 276.632 146.247 274.765 146.247 272.819V267.339C146.247 265.392 147.02 263.525 148.397 262.149C149.773 260.772 151.64 259.999 153.587 259.999H179.787C181.733 259.999 183.6 260.772 184.977 262.149C186.353 263.525 187.127 265.392 187.127 267.339V272.819Z" fill="black"/>
<path d="M161.246 262.919C161.246 262.719 161.446 262.119 161.446 261.719H154.846C154.246 265.719 155.046 271.319 166.446 273.719C170.246 269.319 159.246 272.719 161.246 262.919Z" fill="black"/>
</svg>
