<svg width="512" height="512" viewBox="0 0 512 512" fill="none" xmlns="http://www.w3.org/2000/svg">
<path d="M123.545 304.696C122.681 304.186 122.024 303.387 121.688 302.441C121.353 301.495 121.361 300.461 121.711 299.52L122.69 296.415L122.59 296.241C121.377 295.345 119.993 294.705 118.524 294.362C117.055 294.019 115.532 293.979 114.047 294.245L113.874 294.345C67.2181 351.535 71.5029 394.556 76.1192 411.752C76.3982 412.761 76.8981 413.695 77.5826 414.487C78.2698 415.276 79.1324 415.893 80.1011 416.289C81.0739 416.697 82.1264 416.879 83.1795 416.821C84.2238 416.749 85.2378 416.44 86.1449 415.917L113.858 399.917C115.373 398.992 116.538 397.589 117.169 395.929C117.799 394.269 117.859 392.446 117.34 390.748C99.7658 338.309 145.801 320.045 145.801 320.045C170.023 305.598 187.317 295.152 200.034 287.579L198.034 284.115C197.969 284.002 197.882 283.903 197.778 283.824C197.674 283.745 197.555 283.688 197.429 283.655C197.303 283.623 197.171 283.616 197.042 283.635C196.913 283.654 196.789 283.698 196.678 283.766L144.113 314.761C143.292 315.233 142.357 315.47 141.411 315.446C140.464 315.422 139.543 315.139 138.747 314.626L123.545 304.696ZM126.137 323.985C126.285 324.719 126.238 325.479 126 326.188C125.764 326.905 125.33 327.539 124.748 328.02C119.486 332.905 93.8017 358.819 111.036 390.669C111.609 391.682 111.761 392.88 111.459 394.004C111.158 395.128 110.428 396.089 109.425 396.68L88.8311 408.57C88.2538 408.915 87.5989 409.108 86.9269 409.133C86.255 409.158 85.5876 409.012 84.9866 408.711C84.3432 408.39 83.7863 407.92 83.3631 407.339C82.9298 406.74 82.6538 406.042 82.5602 405.308C80.2243 393.262 75.2539 352.253 108.628 309.66C109.287 308.825 110.232 308.264 111.281 308.085C112.329 307.906 113.407 308.123 114.305 308.692C117.917 310.948 124.588 316.103 126.137 323.985Z" fill="black"/>
<path d="M113.813 291.841C117.188 291.225 120.67 291.948 123.521 293.856L128.074 280.143C129.349 276.15 128.681 275.913 134.095 272.971L197.835 236.171L195.535 232.188L121.576 274.888C119.993 281.345 105.433 285.961 95.6813 286.836C95.2349 286.863 94.9884 287.236 95.1884 287.582L97.1884 291.046C97.2739 291.178 97.4037 291.275 97.5543 291.32C97.7076 291.347 97.8653 291.328 98.0081 291.266C108.381 286.432 112.513 289.589 113.813 291.841Z" fill="black"/>
<path d="M110.62 310.31C110.359 310.422 110.148 310.626 110.027 310.883C77.0723 353.004 82.1159 393.74 84.4982 405.066C84.5425 405.427 84.6974 405.765 84.9416 406.034C85.1763 406.312 85.4921 406.509 85.8446 406.598C86.1638 406.752 86.5158 406.827 86.8701 406.814C87.2293 406.812 87.583 406.726 87.9035 406.564L108.515 394.664C109.016 394.369 109.381 393.888 109.532 393.326C109.683 392.764 109.607 392.165 109.32 391.659C91.2862 358.423 117.81 331.563 123.318 326.304C123.603 326.026 123.807 325.676 123.91 325.291C124.013 324.907 124.011 324.502 123.904 324.118C122.582 317.029 116.384 312.294 112.852 310.176C112.494 310.026 112.108 309.957 111.72 309.975C111.332 309.997 110.954 310.112 110.62 310.31Z" fill="black"/>
<path d="M426.17 99.2598C427.763 100.419 434.488 106.466 435.663 114.102L443.63 109.502L434.83 94.2598L426.17 99.2598Z" fill="black"/>
<path d="M387.451 178.196C395.884 172.403 409.88 162.244 412.24 146.332C412.991 141.224 412.587 136.012 411.056 131.081L207.193 248.781L222.493 275.282C227.516 272.382 230.288 270.782 232.193 269.682M389.911 162.457L245.804 245.657C244.656 246.32 243.291 246.5 242.01 246.157C240.729 245.814 239.637 244.976 238.974 243.827C238.311 242.679 238.131 241.314 238.475 240.033C238.818 238.752 239.656 237.66 240.804 236.997L384.911 153.797C386.059 153.134 387.424 152.954 388.705 153.298C389.986 153.641 391.078 154.479 391.741 155.627C392.404 156.776 392.584 158.14 392.241 159.421C391.897 160.702 391.059 161.794 389.911 162.457Z" fill="black"/>
<path d="M410.103 128.629L433.658 115.029C433.176 106.994 424.812 100.507 424.539 100.434L197.094 231.287L206.094 246.876" fill="black"/>
<path d="M386.01 155.702L241.904 238.902C241.23 239.314 240.741 239.969 240.537 240.732C240.332 241.494 240.429 242.306 240.806 243C241.09 243.525 241.528 243.949 242.062 244.215C242.596 244.481 243.199 244.576 243.789 244.487C244.183 244.435 244.563 244.302 244.904 244.098L389.01 160.898C389.699 160.5 390.202 159.845 390.408 159.076C390.614 158.308 390.506 157.489 390.108 156.8C389.711 156.111 389.055 155.608 388.287 155.402C387.518 155.196 386.699 155.304 386.01 155.702Z" fill="black"/>
<path d="M138.339 311.56C142.784 314.259 143.024 313.035 145.144 311.787L197.269 281.07C197.771 280.779 198.367 280.695 198.93 280.835C199.494 280.975 199.981 281.328 200.289 281.82L203.165 286.442C210.543 282.182 216.605 278.682 221.334 275.952L206.414 250.109C195.055 256.436 183.797 262.936 172.747 269.316L165.967 257.573L134.253 275.883C132.772 276.731 131.67 278.111 131.169 279.742L124.852 298.4C124.505 299.378 124.508 300.446 124.861 301.421C125.213 302.397 125.894 303.22 126.786 303.75L129.538 305.717M142.982 308.602C142.47 308.899 141.888 309.052 141.297 309.044C140.734 309.021 140.188 308.839 139.724 308.52C139.275 308.198 138.941 307.742 138.77 307.216C138.6 306.691 138.603 306.125 138.778 305.602C138.96 305.05 139.294 304.561 139.742 304.191C140.189 303.801 140.734 303.542 141.319 303.442C141.885 303.359 142.463 303.432 142.989 303.655C143.497 303.867 143.921 304.238 144.2 304.712C144.383 305.027 144.498 305.377 144.539 305.74C144.593 306.114 144.551 306.495 144.418 306.849C144.304 307.219 144.118 307.562 143.869 307.859C143.612 308.148 143.305 308.388 142.962 308.567L142.982 308.602ZM135.981 285.277C135.603 285.501 135.167 285.608 134.728 285.585C134.294 285.547 133.88 285.385 133.535 285.119C133.193 284.851 132.937 284.488 132.798 284.077C132.659 283.665 132.642 283.222 132.75 282.801C132.863 282.383 133.096 282.007 133.42 281.721C133.752 281.437 134.157 281.251 134.589 281.185C135.021 281.138 135.457 281.214 135.848 281.405C136.239 281.595 136.566 281.896 136.787 282.272C137.067 282.785 137.142 283.386 136.995 283.953C136.828 284.499 136.458 284.96 135.961 285.242L135.981 285.277ZM179.944 286.222C179.397 286.544 178.765 286.691 178.132 286.645C177.497 286.617 176.886 286.387 176.391 285.988C175.885 285.609 175.51 285.084 175.315 284.484C175.107 283.889 175.08 283.245 175.239 282.634C175.399 282.018 175.739 281.464 176.216 281.042C176.692 280.621 177.283 280.351 177.914 280.266C178.545 280.182 179.186 280.288 179.756 280.571C180.327 280.853 180.8 281.299 181.115 281.851C181.327 282.219 181.467 282.625 181.527 283.045C181.579 283.464 181.55 283.888 181.441 284.296C181.333 284.7 181.142 285.078 180.881 285.405C180.616 285.726 180.291 285.992 179.924 286.188L179.944 286.222ZM170.634 276.817L164.911 266.104L170.939 274.586L194.934 261.425L170.634 276.817ZM211.064 277.724C210.486 278.678 209.614 279.418 208.578 279.832C207.543 280.247 206.4 280.313 205.324 280.022C204.247 279.733 203.293 279.104 202.604 278.228C201.915 277.352 201.529 276.276 201.502 275.162C201.459 274.197 201.715 273.244 202.234 272.43C202.808 271.476 203.68 270.737 204.715 270.327C205.75 269.916 206.891 269.851 207.966 270.142C209.042 270.433 209.994 271.064 210.681 271.941C211.368 272.813 211.758 273.882 211.796 274.992C212.003 275.75 211.61 276.67 211.044 277.689L211.064 277.724Z" fill="black"/>
<path d="M167.758 256.076L173.758 266.468L204.935 248.468L198.935 238.076L167.758 256.076ZM173.99 262.87L173.49 262.004L200.618 248.513L173.99 262.87Z" fill="black"/>
<path d="M152.118 320.069C152.03 320.105 151.957 320.172 151.914 320.258C151.87 320.343 151.859 320.442 151.882 320.535C151.905 320.628 151.961 320.709 152.039 320.765C152.117 320.82 152.212 320.846 152.308 320.837C158.564 321.412 164.345 324.417 168.41 329.207C169.781 330.667 171.607 331.618 173.589 331.904C175.571 332.19 177.592 331.795 179.32 330.783L205.613 315.603C206.677 314.975 207.571 314.094 208.214 313.038C208.857 311.982 209.23 310.783 209.299 309.549C210.664 288.993 221.663 283.404 221.663 283.404C223.058 290.22 228.365 278.611 230.868 272.547C223.326 277.364 203.182 289.433 152.118 320.069ZM205.096 305.348C206.069 307.034 206.333 309.037 205.829 310.918C205.325 312.798 204.095 314.401 202.409 315.375L179.719 328.475C178.033 329.448 176.03 329.712 174.149 329.208C172.269 328.704 170.666 327.474 169.692 325.788L166.952 321.042C165.979 319.356 165.715 317.353 166.219 315.472C166.723 313.592 167.953 311.989 169.639 311.016L192.329 297.916C194.015 296.942 196.018 296.678 197.899 297.182C199.779 297.686 201.382 298.916 202.356 300.602L205.096 305.348Z" fill="black"/>
<path d="M177.733 309.714C177.633 309.541 177.506 308.921 177.306 308.575L171.59 311.875C173.07 315.639 176.563 320.089 187.636 316.467C188.727 310.757 180.901 319.201 177.733 309.714Z" fill="black"/>
</svg>
