<svg width="512" height="160" viewBox="0 0 512 160" fill="none" xmlns="http://www.w3.org/2000/svg">
<path d="M116.826 55.4777C116.333 54.6033 116.163 53.5833 116.346 52.5962C116.529 51.6091 117.052 50.7176 117.826 50.0777L120.226 47.8777V47.6777C119.624 46.2946 118.746 45.0491 117.645 44.0173C116.545 42.9856 115.245 42.1895 113.826 41.6777H113.626C44.626 67.8777 26.826 107.278 22.226 124.478C21.9633 125.491 21.9291 126.55 22.126 127.578C22.3266 128.605 22.765 129.571 23.406 130.398C24.0446 131.237 24.8652 131.921 25.806 132.398C26.7466 132.857 27.7793 133.096 28.826 133.098H60.826C62.6013 133.054 64.3116 132.422 65.6876 131.299C67.0636 130.177 68.027 128.628 68.426 126.898C79.426 72.6977 128.426 79.8977 128.426 79.8977C156.626 79.4977 176.826 79.0977 191.626 78.8977V74.8977C191.626 74.7673 191.6 74.6383 191.55 74.518C191.499 74.3978 191.425 74.2889 191.332 74.1976C191.239 74.1063 191.128 74.0346 191.007 73.9865C190.886 73.9384 190.756 73.9151 190.626 73.9177L129.606 74.4777C128.659 74.4761 127.731 74.2141 126.923 73.7202C126.115 73.2263 125.459 72.5197 125.026 71.6777L116.826 55.4777ZM109.426 73.4777C109.188 74.1876 108.767 74.8223 108.206 75.3177C107.643 75.8199 106.95 76.1527 106.206 76.2777C99.206 77.8777 64.006 87.4777 63.006 123.678C62.9956 124.841 62.5287 125.955 61.7057 126.777C60.8828 127.6 59.7697 128.067 58.606 128.078H34.826C34.1537 128.088 33.4897 127.928 32.8954 127.613C32.3011 127.299 31.7958 126.839 31.426 126.278C31.029 125.678 30.7821 124.992 30.706 124.278C30.6304 123.542 30.7404 122.8 31.026 122.118C35.026 110.518 51.226 72.5177 101.426 52.3177C102.414 51.9243 103.513 51.911 104.51 52.2803C105.508 52.6497 106.333 53.3756 106.826 54.3177C108.826 58.0777 112.026 65.8777 109.426 73.4777Z" fill="black"/>
<path d="M114.826 39.4785C118.057 40.6332 120.711 43.0004 122.226 46.0785L133.026 36.4785C136.126 33.6585 135.666 33.1185 141.826 33.2785L215.426 33.2785V28.6785L130.026 28.6785C125.426 33.4785 110.509 30.1967 101.626 26.0785C101.226 25.8785 100.826 26.0785 100.826 26.4785V30.4785C100.834 30.6354 100.898 30.7844 101.006 30.8985C101.126 30.998 101.272 31.0606 101.426 31.0785C112.826 32.0785 114.826 36.8785 114.826 39.4785Z" fill="black"/>
<path d="M102.825 53.8792C102.543 53.8457 102.259 53.9168 102.025 54.0792C52.4254 74.0792 36.4254 111.879 32.8254 122.879C32.6834 123.214 32.6485 123.584 32.7254 123.939C32.7898 124.297 32.9646 124.626 33.2254 124.879C33.4246 125.173 33.6924 125.413 34.0054 125.579C34.3176 125.757 34.6668 125.86 35.0254 125.879H58.8254C59.4073 125.874 59.9638 125.641 60.3753 125.229C60.7867 124.818 61.0202 124.261 61.0254 123.679C62.0254 85.8792 98.4254 75.8792 105.825 74.0792C106.211 73.9805 106.563 73.7799 106.845 73.4984C107.126 73.2169 107.327 72.8649 107.425 72.4792C109.825 65.6792 106.825 58.4792 104.825 54.8792C104.591 54.57 104.29 54.3171 103.945 54.1392C103.598 53.9638 103.214 53.8746 102.825 53.8792Z" fill="black"/>
<path d="M481.627 28.8789C482.427 30.6789 485.227 39.2789 482.427 46.4789H491.627V28.8789H481.627Z" fill="black"/>
<path d="M408.627 77.8789C418.827 77.0789 436.027 75.2789 446.027 62.6789C449.232 58.6307 451.487 53.9148 452.627 48.8789L217.227 48.8789V79.4789C223.027 79.4789 226.227 79.4789 228.427 79.4789M418.627 65.4789L252.227 65.4789C250.9 65.4789 249.629 64.9521 248.691 64.0145C247.753 63.0768 247.227 61.805 247.227 60.4789C247.227 59.1528 247.753 57.8811 248.691 56.9434C249.629 56.0057 250.9 55.4789 252.227 55.4789L418.627 55.4789C419.953 55.4789 421.224 56.0057 422.162 56.9434C423.1 57.8811 423.627 59.1528 423.627 60.4789C423.627 61.805 423.1 63.0768 422.162 64.0145C421.224 64.9521 419.953 65.4789 418.627 65.4789Z" fill="black"/>
<path d="M453.027 46.2777H480.227C483.827 39.0777 479.827 29.2777 479.627 29.0777L217.227 28.6777V46.6777" fill="black"/>
<path d="M418.626 57.6777L252.226 57.6777C251.436 57.698 250.685 58.0206 250.127 58.5788C249.569 59.1371 249.246 59.8885 249.226 60.6777C249.209 61.2741 249.377 61.8611 249.706 62.3586C250.036 62.8561 250.51 63.2399 251.066 63.4577C251.433 63.6093 251.828 63.6842 252.226 63.6777L418.626 63.6777C419.421 63.6777 420.184 63.3617 420.747 62.7991C421.31 62.2364 421.626 61.4734 421.626 60.6777C421.626 59.8821 421.31 59.119 420.747 58.5564C420.184 57.9938 419.421 57.6777 418.626 57.6777Z" fill="black"/>
<path d="M126.206 68.8189C128.706 73.3789 129.526 72.439 131.986 72.419L192.486 71.8789C193.066 71.8786 193.624 72.1036 194.042 72.5065C194.46 72.9094 194.705 73.4588 194.726 74.0389L194.906 79.479C203.426 79.479 210.426 79.479 215.886 79.479V49.639C202.886 49.439 189.886 49.439 177.126 49.439V35.8789H140.506C138.8 35.8732 137.155 36.5167 135.906 37.6789L121.106 50.6789C120.317 51.3522 119.785 52.2786 119.603 53.2999C119.421 54.3212 119.598 55.3741 120.106 56.279L121.506 59.359M131.706 68.579C131.114 68.5808 130.534 68.4218 130.026 68.1189C129.549 67.818 129.168 67.388 128.926 66.8789C128.697 66.3762 128.636 65.8135 128.752 65.2735C128.867 64.7335 129.152 64.2447 129.566 63.8789C129.999 63.492 130.533 63.2355 131.106 63.139C131.688 63.0245 132.29 63.073 132.846 63.279C133.378 63.4897 133.841 63.8426 134.186 64.299C134.519 64.736 134.702 65.2694 134.706 65.8189C134.707 66.1837 134.632 66.5446 134.486 66.8789C134.345 67.2298 134.118 67.5394 133.826 67.779C133.543 68.0428 133.209 68.2468 132.846 68.3789C132.479 68.5012 132.092 68.5554 131.706 68.5389V68.579ZM137.306 44.8789C136.866 44.8833 136.435 44.7581 136.066 44.5189C135.709 44.2689 135.431 43.9219 135.266 43.5189C135.104 43.1155 135.064 42.6737 135.149 42.2476C135.234 41.8215 135.442 41.4293 135.746 41.1189C136.052 40.8131 136.442 40.6044 136.866 40.5189C137.295 40.4387 137.739 40.4802 138.146 40.639C138.543 40.8142 138.883 41.0985 139.126 41.4589C139.37 41.8191 139.503 42.2436 139.506 42.6789C139.492 43.264 139.256 43.8218 138.846 44.2389C138.428 44.6279 137.877 44.8426 137.306 44.839V44.8789ZM174.906 67.6789C174.271 67.6841 173.65 67.4958 173.126 67.139C172.589 66.7973 172.175 66.2927 171.946 65.699C171.698 65.1188 171.635 64.4762 171.766 63.859C171.883 63.2391 172.183 62.6682 172.626 62.219C173.072 61.7656 173.644 61.4557 174.267 61.3287C174.891 61.2017 175.538 61.2634 176.126 61.506C176.714 61.7485 177.217 62.1609 177.569 62.6905C177.922 63.2201 178.109 63.8427 178.106 64.479C178.105 64.9038 178.024 65.3246 177.866 65.719C177.702 66.1074 177.464 66.4605 177.166 66.7589C176.87 67.0553 176.516 67.2868 176.126 67.439C175.736 67.5853 175.322 67.6533 174.906 67.639V67.6789ZM171.546 54.8789L171.946 42.7389L172.926 53.0989L200.286 53.699L171.546 54.8789ZM206.106 75.8789C205.128 76.4161 204.003 76.6208 202.899 76.462C201.795 76.3033 200.772 75.7898 199.986 74.999C199.198 74.2107 198.686 73.1885 198.528 72.0854C198.369 70.9822 198.572 69.8573 199.106 68.8789C199.551 68.0227 200.25 67.3244 201.106 66.8789C202.08 66.3402 203.204 66.1364 204.306 66.299C205.408 66.4606 206.428 66.9746 207.214 67.764C208 68.5535 208.509 69.5761 208.666 70.6789C208.824 71.778 208.628 72.899 208.106 73.8789C207.906 74.6389 207.106 75.239 206.106 75.839V75.8789Z" fill="black"/>
<path d="M179.426 35.4785V47.4785H215.426V35.4785H179.426ZM181.426 44.4785V43.4785L211.666 45.3585L181.426 44.4785Z" fill="black"/>
<path d="M133.887 83.0788C133.792 83.0661 133.695 83.0879 133.615 83.1402C133.535 83.1926 133.476 83.272 133.449 83.364C133.423 83.4561 133.43 83.5547 133.47 83.6418C133.51 83.7289 133.58 83.7988 133.667 83.8388C138.797 87.4648 142.301 92.958 143.427 99.1388C143.884 101.088 144.99 102.825 146.564 104.064C148.137 105.303 150.084 105.971 152.087 105.959H182.447C183.683 105.947 184.898 105.631 185.983 105.038C187.067 104.445 187.989 103.593 188.667 102.559C200.127 85.4388 212.447 86.0988 212.447 86.0988C210.247 92.6988 220.647 85.2988 225.847 81.2988C216.907 81.6988 193.427 82.0788 133.887 83.0788ZM187.127 96.8188C187.127 98.7655 186.353 100.632 184.977 102.009C183.6 103.385 181.733 104.159 179.787 104.159H153.587C151.64 104.159 149.773 103.385 148.397 102.009C147.02 100.632 146.247 98.7655 146.247 96.8188V91.3388C146.247 89.3921 147.02 87.5252 148.397 86.1486C149.773 84.7721 151.64 83.9988 153.587 83.9988H179.787C181.733 83.9988 183.6 84.7721 184.977 86.1486C186.353 87.5252 187.127 89.3921 187.127 91.3388V96.8188Z" fill="black"/>
<path d="M161.246 86.9188C161.246 86.7188 161.446 86.1188 161.446 85.7188H154.846C154.246 89.7188 155.046 95.3188 166.446 97.7188C170.246 93.3187 159.246 96.7188 161.246 86.9188Z" fill="black"/>
</svg>
