<svg width="512" height="160" viewBox="0 0 512 160" fill="none" xmlns="http://www.w3.org/2000/svg">
<path d="M169.323 155.84L168.845 160.001C181.995 160.001 199.027 159.513 205.607 159.306C206.349 159.28 207.053 158.968 207.569 158.434C208.086 157.9 208.376 157.187 208.378 156.445V155.84H169.323Z" fill="black"/>
<path d="M280.457 40.8233V30.209H151.389V38.4585C151.389 38.4585 151.091 42.809 143.87 43.7747C140.522 44.226 142.065 50.3545 145.387 50.3545C148.708 50.3545 159.313 52.8908 163.61 56.9433C167.906 60.9959 168.926 65.5449 164.882 78.9662C160.839 92.3876 153.185 111.919 150.188 132.886C147.21 153.483 147.399 157.436 152.21 159.214C153.754 159.783 160.081 159.982 167.969 160L168.556 154.936H208.378V153.898C209.803 153.027 210.877 151.682 211.41 150.098C212.168 147.562 208.883 137.697 209.388 132.886C210.472 122.561 213.901 120.738 215.463 115.421C217.024 110.105 217.485 95.673 217.485 92.6313C217.485 89.5896 219.515 83.5243 226.853 84.7879C231.366 85.5731 237.287 87.0624 241.123 88.0823C243.818 88.7981 246.594 89.1621 249.382 89.1654H277.723C280.34 89.0932 282.037 87.3602 282.037 85.3023L282.145 64.9853C282.157 63.0062 282.809 61.0841 284.005 59.5067C284.857 58.3868 285.955 57.4785 287.216 56.8524C288.476 56.2262 289.863 55.8991 291.27 55.8964H296.749L280.457 40.8233ZM159.214 126.704H202.249C202.015 127.595 201.832 128.499 201.699 129.411H158.961C159.043 128.491 159.133 127.588 159.214 126.704ZM158.609 133.924H201.726C201.843 134.827 201.996 135.729 202.15 136.632H158.528C158.555 135.756 158.591 134.845 158.646 133.924H158.609ZM202.836 143.419C202.675 143.638 202.441 143.791 202.177 143.853H158.438C158.438 143.121 158.438 142.21 158.438 141.145H202.845C202.923 141.901 202.92 142.664 202.836 143.419ZM203.621 122.191H159.972C160.147 121.282 160.327 120.38 160.514 119.483H204.524L203.621 122.191ZM207.051 112.262C206.699 113.165 206.347 114.068 206.004 114.97H161.777C161.777 114.97 162.093 112.867 162.247 112.262H207.051ZM208.73 107.749H163.456C163.736 106.784 164.007 105.881 164.278 105.042H209.407C209.316 105.665 208.856 107.406 208.73 107.749ZM209.795 100.529H165.812C166.119 99.6714 166.444 98.7237 166.787 97.8211H209.885L209.795 100.529ZM168.502 93.3082C168.845 92.4056 169.206 91.5031 169.576 90.6005H209.93V90.8442C209.93 91.7016 209.93 92.523 209.93 93.3082H168.502ZM212.394 86.0876H171.444C171.841 85.1549 172.238 84.2523 172.635 83.3799H212.295C212.503 84.2675 212.537 85.1871 212.394 86.0876ZM213.793 74.9949C212.783 74.9949 211.795 74.6953 210.955 74.1339C210.115 73.5726 209.46 72.7748 209.073 71.8413C208.687 70.9078 208.586 69.8806 208.783 68.8897C208.98 67.8987 209.466 66.9884 210.181 66.274C210.895 65.5595 211.805 65.073 212.796 64.8759C213.787 64.6788 214.815 64.7799 215.748 65.1666C216.682 65.5532 217.479 66.208 218.041 67.0481C218.602 67.8882 218.902 68.8759 218.902 69.8863C218.899 71.2405 218.36 72.5385 217.403 73.496C216.445 74.4535 215.147 74.9925 213.793 74.9949ZM252.866 33.0972H266.666C267.889 33.0765 269.077 33.5081 270.002 34.3093C270.926 35.1105 271.522 36.2249 271.675 37.4386C271.735 38.1016 271.657 38.7699 271.445 39.4009C271.233 40.032 270.892 40.612 270.444 41.1043C269.996 41.5966 269.45 41.9903 268.842 42.2605C268.233 42.5306 267.576 42.6713 266.91 42.6736H253.082C251.858 42.6984 250.668 42.2682 249.743 41.4662C248.817 40.6642 248.222 39.5475 248.073 38.3322C248.011 37.6666 248.09 36.9956 248.303 36.362C248.516 35.7285 248.859 35.1465 249.31 34.6536C249.762 34.1606 250.311 33.7674 250.923 33.4994C251.536 33.2314 252.197 33.0944 252.866 33.0972ZM277.046 82.2336C277.046 82.5961 276.973 82.955 276.832 83.2889C276.691 83.6228 276.484 83.925 276.224 84.1775C275.964 84.4301 275.656 84.6278 275.318 84.759C274.98 84.8902 274.619 84.9522 274.257 84.9413C266.134 84.7247 248.56 86.2952 238.497 83.0278C231.935 80.8978 226.357 77.8831 226.817 68.713C227.025 64.6423 227.124 61.8443 227.945 59.9489C228.491 58.7336 229.38 57.7038 230.502 56.9856C231.624 56.2674 232.931 55.892 234.264 55.9054H242.251V55.9595H249.662H267.867C269.184 55.9606 270.487 56.2458 271.684 56.7956C272.882 57.3455 273.947 58.147 274.807 59.1456L274.943 59.3171C276.378 60.9831 277.163 63.1114 277.154 65.3102L277.046 82.2336Z" fill="black"/>
<path d="M282.064 41.0664L288.969 47.4386H365.86V41.0664H282.064Z" fill="black"/>
<path d="M357.466 10.7591H171.796L151.416 25.7689V28.4767H200.155L202.664 13.187H205.426L202.935 28.5128H205.643L208.152 13.2231H210.914L208.351 28.5128H211.058L213.568 13.2231H216.329L213.766 28.5128H216.474L218.983 13.2231H221.745L219.182 28.5128H221.889L224.398 13.2231H227.16L224.597 28.5128H227.305L229.814 13.2231H232.576L230.013 28.5128H232.72L235.229 13.2231H237.991L235.473 28.5128H296.794L299.312 13.2231H302.074L299.556 28.5128H302.21L304.728 13.2231H307.49L304.972 28.5128H307.625L310.143 13.2231H312.905L310.387 28.5128H313.041L315.559 13.2231H318.321L315.803 28.5128H318.456L320.974 13.2231H323.736L321.218 28.5128H323.872L326.39 13.2231H329.152L326.633 28.5128H329.287L331.805 13.2231H334.567L332.049 28.5128H365.905V4.86523L357.466 10.7591ZM191.852 25.074C191.55 25.6241 191.143 26.1091 190.654 26.5011C190.164 26.893 189.602 27.1841 188.999 27.3575C188.571 27.4828 188.128 27.5466 187.682 27.547C186.879 27.5399 186.091 27.332 185.389 26.9423L174.351 20.8409C173.801 20.5359 173.317 20.1255 172.926 19.6333C172.535 19.1411 172.245 18.5767 172.072 17.9724C171.9 17.368 171.848 16.7356 171.92 16.1111C171.992 15.4867 172.186 14.8826 172.491 14.3333C173.107 13.2258 174.137 12.408 175.356 12.0594C176.574 11.7108 177.881 11.8599 178.99 12.474L189.992 18.5754C191.1 19.1914 191.918 20.2217 192.266 21.4401C192.615 22.6585 192.466 23.9654 191.852 25.074Z" fill="black"/>
<path d="M365.86 30.209H281.36V40.1644H365.86V30.209Z" fill="black"/>
<path d="M171.498 9.74784H357.177L365.3 4.03452H359.704L356.879 0.902578C356.752 0.766336 356.598 0.657598 356.427 0.583082C356.257 0.508567 356.072 0.469857 355.886 0.469341H348.214C347.989 0.469341 347.773 0.558727 347.614 0.717837C347.455 0.876947 347.366 1.09275 347.366 1.31776V4.0255H277.055V7.88853H244.598V4.03452H192.429L189.36 1.32679C188.406 0.476117 187.173 0.00417374 185.894 0H178.259C177.997 0.00911073 177.748 0.117859 177.564 0.304046C177.379 0.490234 177.273 0.739823 177.266 1.00186V3.7818H171.164L151.416 20.2358V24.5411L171.498 9.74784Z" fill="black"/>
<path d="M276.107 4.03516H245.51V6.99561H276.107V4.03516Z" fill="black"/>
<path d="M263.85 41.7712H266.739C267.724 41.7857 268.68 41.4366 269.424 40.7906C270.169 40.1445 270.649 39.2469 270.773 38.2692C270.826 37.7297 270.765 37.1851 270.595 36.6703C270.425 36.1555 270.15 35.682 269.786 35.28C269.422 34.878 268.979 34.5565 268.483 34.3361C267.988 34.1157 267.452 34.0012 266.91 34H263.652C263.111 34.0003 262.577 34.1132 262.083 34.3314C261.588 34.5496 261.145 34.8685 260.781 35.2676C260.416 35.6667 260.139 36.1373 259.967 36.6494C259.794 37.1616 259.731 37.704 259.78 38.2421C259.902 39.2294 260.386 40.1363 261.138 40.788C261.889 41.4397 262.856 41.7899 263.85 41.7712Z" fill="black"/>
<path d="M182.681 24.2801L185.1 25.8596C185.917 26.41 186.907 26.6406 187.883 26.5074C188.858 26.3742 189.75 25.8866 190.389 25.1376C190.73 24.7151 190.978 24.226 191.118 23.7018C191.257 23.1776 191.285 22.6299 191.2 22.0941C191.115 21.5583 190.919 21.0463 190.624 20.5911C190.329 20.1359 189.941 19.7476 189.487 19.4513L186.779 17.6462C186.327 17.3514 185.819 17.1541 185.287 17.0668C184.754 16.9795 184.209 17.0041 183.687 17.1392C183.165 17.2742 182.676 17.5167 182.253 17.8511C181.83 18.1854 181.481 18.6044 181.228 19.0813C180.783 19.9739 180.686 20.9999 180.954 21.9604C181.223 22.9209 181.838 23.7475 182.681 24.2801Z" fill="black"/>
<path d="M213.793 65.6797C212.961 65.6797 212.148 65.9264 211.456 66.3885C210.765 66.8507 210.225 67.5076 209.907 68.2761C209.589 69.0447 209.505 69.8904 209.668 70.7063C209.83 71.5221 210.231 72.2716 210.819 72.8598C211.407 73.448 212.156 73.8486 212.972 74.0109C213.788 74.1732 214.634 74.0899 215.403 73.7716C216.171 73.4532 216.828 72.9141 217.29 72.2224C217.752 71.5308 217.999 70.7176 217.999 69.8857C217.999 68.7702 217.556 67.7004 216.767 66.9116C215.978 66.1228 214.908 65.6797 213.793 65.6797Z" fill="black"/>
<path d="M289.943 48.3418L298.067 55.8512L356.933 55.6798C357.588 55.6824 358.217 55.4261 358.684 54.9667L365.408 48.3418H289.943Z" fill="black"/>
<path d="M256.81 76.5846C254.626 75.4205 252.766 73.7335 251.394 71.6746C250.685 70.4404 250.153 69.1127 249.815 67.7303C249.663 67.1713 249.587 66.5946 249.589 66.0154V56.8633H242.251C242.251 58.9482 242.314 63.8492 242.314 65.5732C242.522 68.9724 244.012 72.1661 246.484 74.5087C250.094 77.6858 254.923 77.2976 256.773 76.9998C256.813 76.9834 256.848 76.9564 256.873 76.9217C256.899 76.887 256.914 76.846 256.918 76.8032C256.921 76.7603 256.913 76.7173 256.894 76.6787C256.875 76.6402 256.846 76.6076 256.81 76.5846Z" fill="black"/>
<path d="M369.37 7.79883H366.545V25.5796H369.37V7.79883Z" fill="black"/>
</svg>
