<svg width="512" height="512" viewBox="0 0 512 512" fill="none" xmlns="http://www.w3.org/2000/svg">
<path d="M169.323 331.84L168.845 336.001C181.995 336.001 199.027 335.513 205.607 335.306C206.349 335.28 207.053 334.968 207.569 334.434C208.086 333.9 208.376 333.187 208.378 332.445V331.84H169.323Z" fill="black"/>
<path d="M280.457 216.823V206.209H151.389V214.459C151.389 214.459 151.091 218.809 143.87 219.775C140.522 220.226 142.065 226.355 145.387 226.355C148.708 226.355 159.313 228.891 163.61 232.943C167.906 236.996 168.926 241.545 164.882 254.966C160.839 268.388 153.185 287.919 150.188 308.886C147.21 329.483 147.399 333.436 152.21 335.214C153.754 335.783 160.081 335.982 167.969 336L168.556 330.936H208.378V329.898C209.803 329.027 210.877 327.682 211.41 326.098C212.168 323.562 208.883 313.697 209.388 308.886C210.472 298.561 213.901 296.738 215.463 291.421C217.024 286.105 217.485 271.673 217.485 268.631C217.485 265.59 219.515 259.524 226.853 260.788C231.366 261.573 237.287 263.062 241.123 264.082C243.818 264.798 246.594 265.162 249.382 265.165H277.723C280.34 265.093 282.037 263.36 282.037 261.302L282.145 240.985C282.157 239.006 282.809 237.084 284.005 235.507C284.857 234.387 285.955 233.479 287.216 232.852C288.476 232.226 289.863 231.899 291.27 231.896H296.749L280.457 216.823ZM159.214 302.704H202.249C202.015 303.595 201.832 304.499 201.699 305.411H158.961C159.043 304.491 159.133 303.588 159.214 302.704ZM158.609 309.924H201.726C201.843 310.827 201.996 311.729 202.15 312.632H158.528C158.555 311.756 158.591 310.845 158.646 309.924H158.609ZM202.836 319.419C202.675 319.638 202.441 319.791 202.177 319.853H158.438C158.438 319.121 158.438 318.21 158.438 317.145H202.845C202.923 317.901 202.92 318.664 202.836 319.419ZM203.621 298.191H159.972C160.147 297.282 160.327 296.38 160.514 295.483H204.524L203.621 298.191ZM207.051 288.262C206.699 289.165 206.347 290.068 206.004 290.97H161.777C161.777 290.97 162.093 288.867 162.247 288.262H207.051ZM208.73 283.749H163.456C163.736 282.784 164.007 281.881 164.278 281.042H209.407C209.316 281.665 208.856 283.406 208.73 283.749ZM209.795 276.529H165.812C166.119 275.671 166.444 274.724 166.787 273.821H209.885L209.795 276.529ZM168.502 269.308C168.845 268.406 169.206 267.503 169.576 266.6H209.93V266.844C209.93 267.702 209.93 268.523 209.93 269.308H168.502ZM212.394 262.088H171.444C171.841 261.155 172.238 260.252 172.635 259.38H212.295C212.503 260.267 212.537 261.187 212.394 262.088ZM213.793 250.995C212.783 250.995 211.795 250.695 210.955 250.134C210.115 249.573 209.46 248.775 209.073 247.841C208.687 246.908 208.586 245.881 208.783 244.89C208.98 243.899 209.466 242.988 210.181 242.274C210.895 241.56 211.805 241.073 212.796 240.876C213.787 240.679 214.815 240.78 215.748 241.167C216.682 241.553 217.479 242.208 218.041 243.048C218.602 243.888 218.902 244.876 218.902 245.886C218.899 247.24 218.36 248.538 217.403 249.496C216.445 250.454 215.147 250.993 213.793 250.995ZM252.866 209.097H266.666C267.889 209.076 269.077 209.508 270.002 210.309C270.926 211.111 271.522 212.225 271.675 213.439C271.735 214.102 271.657 214.77 271.445 215.401C271.233 216.032 270.892 216.612 270.444 217.104C269.996 217.597 269.45 217.99 268.842 218.26C268.233 218.531 267.576 218.671 266.91 218.674H253.082C251.858 218.698 250.668 218.268 249.743 217.466C248.817 216.664 248.222 215.548 248.073 214.332C248.011 213.667 248.09 212.996 248.303 212.362C248.516 211.728 248.859 211.147 249.31 210.654C249.762 210.161 250.311 209.767 250.923 209.499C251.536 209.231 252.197 209.094 252.866 209.097ZM277.046 258.234C277.046 258.596 276.973 258.955 276.832 259.289C276.691 259.623 276.484 259.925 276.224 260.178C275.964 260.43 275.656 260.628 275.318 260.759C274.98 260.89 274.619 260.952 274.257 260.941C266.134 260.725 248.56 262.295 238.497 259.028C231.935 256.898 226.357 253.883 226.817 244.713C227.025 240.642 227.124 237.844 227.945 235.949C228.491 234.734 229.38 233.704 230.502 232.986C231.624 232.267 232.931 231.892 234.264 231.905H242.251V231.96H249.662H267.867C269.184 231.961 270.487 232.246 271.684 232.796C272.882 233.345 273.947 234.147 274.807 235.146L274.943 235.317C276.378 236.983 277.163 239.111 277.154 241.31L277.046 258.234Z" fill="black"/>
<path d="M282.064 217.066L288.969 223.439H365.86V217.066H282.064Z" fill="black"/>
<path d="M357.466 186.759H171.796L151.416 201.769V204.477H200.155L202.664 189.187H205.426L202.935 204.513H205.643L208.152 189.223H210.914L208.351 204.513H211.058L213.568 189.223H216.329L213.766 204.513H216.474L218.983 189.223H221.745L219.182 204.513H221.889L224.398 189.223H227.16L224.597 204.513H227.305L229.814 189.223H232.576L230.013 204.513H232.72L235.229 189.223H237.991L235.473 204.513H296.794L299.312 189.223H302.074L299.556 204.513H302.21L304.728 189.223H307.49L304.972 204.513H307.625L310.143 189.223H312.905L310.387 204.513H313.041L315.559 189.223H318.321L315.803 204.513H318.456L320.974 189.223H323.736L321.218 204.513H323.872L326.39 189.223H329.152L326.633 204.513H329.287L331.805 189.223H334.567L332.049 204.513H365.905V180.865L357.466 186.759ZM191.852 201.074C191.55 201.624 191.143 202.109 190.654 202.501C190.164 202.893 189.602 203.184 188.999 203.357C188.571 203.483 188.128 203.547 187.682 203.547C186.879 203.54 186.091 203.332 185.389 202.942L174.351 196.841C173.801 196.536 173.317 196.126 172.926 195.633C172.535 195.141 172.245 194.577 172.072 193.972C171.9 193.368 171.848 192.736 171.92 192.111C171.992 191.487 172.186 190.883 172.491 190.333C173.107 189.226 174.137 188.408 175.356 188.059C176.574 187.711 177.881 187.86 178.99 188.474L189.992 194.575C191.1 195.191 191.918 196.222 192.266 197.44C192.615 198.658 192.466 199.965 191.852 201.074Z" fill="black"/>
<path d="M365.86 206.209H281.36V216.164H365.86V206.209Z" fill="black"/>
<path d="M171.498 185.748H357.177L365.3 180.035H359.704L356.879 176.903C356.752 176.766 356.598 176.658 356.427 176.583C356.257 176.509 356.072 176.47 355.886 176.469H348.214C347.989 176.469 347.773 176.559 347.614 176.718C347.455 176.877 347.366 177.093 347.366 177.318V180.025H277.055V183.889H244.598V180.035H192.429L189.36 177.327C188.406 176.476 187.173 176.004 185.894 176H178.259C177.997 176.009 177.748 176.118 177.564 176.304C177.379 176.49 177.273 176.74 177.266 177.002V179.782H171.164L151.416 196.236V200.541L171.498 185.748Z" fill="black"/>
<path d="M276.107 180.035H245.51V182.996H276.107V180.035Z" fill="black"/>
<path d="M263.85 217.771H266.739C267.724 217.786 268.68 217.437 269.424 216.791C270.169 216.145 270.649 215.247 270.773 214.269C270.826 213.73 270.765 213.185 270.595 212.67C270.425 212.156 270.15 211.682 269.786 211.28C269.422 210.878 268.979 210.557 268.483 210.336C267.988 210.116 267.452 210.001 266.91 210H263.652C263.111 210 262.577 210.113 262.083 210.331C261.588 210.55 261.145 210.868 260.781 211.268C260.416 211.667 260.139 212.137 259.967 212.649C259.794 213.162 259.731 213.704 259.78 214.242C259.902 215.229 260.386 216.136 261.138 216.788C261.889 217.44 262.856 217.79 263.85 217.771Z" fill="black"/>
<path d="M182.681 200.28L185.1 201.86C185.917 202.41 186.907 202.641 187.883 202.507C188.858 202.374 189.75 201.887 190.389 201.138C190.73 200.715 190.978 200.226 191.118 199.702C191.257 199.178 191.285 198.63 191.2 198.094C191.115 197.558 190.919 197.046 190.624 196.591C190.329 196.136 189.941 195.748 189.487 195.451L186.779 193.646C186.327 193.351 185.819 193.154 185.287 193.067C184.754 192.979 184.209 193.004 183.687 193.139C183.165 193.274 182.676 193.517 182.253 193.851C181.83 194.185 181.481 194.604 181.228 195.081C180.783 195.974 180.686 197 180.954 197.96C181.223 198.921 181.838 199.748 182.681 200.28Z" fill="black"/>
<path d="M213.793 241.68C212.961 241.68 212.148 241.926 211.456 242.389C210.765 242.851 210.225 243.508 209.907 244.276C209.589 245.045 209.505 245.89 209.668 246.706C209.83 247.522 210.231 248.272 210.819 248.86C211.407 249.448 212.156 249.849 212.972 250.011C213.788 250.173 214.634 250.09 215.403 249.772C216.171 249.453 216.828 248.914 217.29 248.222C217.752 247.531 217.999 246.718 217.999 245.886C217.999 244.77 217.556 243.7 216.767 242.912C215.978 242.123 214.908 241.68 213.793 241.68Z" fill="black"/>
<path d="M289.943 224.342L298.067 231.851L356.933 231.68C357.588 231.682 358.217 231.426 358.684 230.967L365.408 224.342H289.943Z" fill="black"/>
<path d="M256.81 252.585C254.626 251.42 252.766 249.734 251.394 247.675C250.685 246.44 250.153 245.113 249.815 243.73C249.663 243.171 249.587 242.595 249.589 242.015V232.863H242.251C242.251 234.948 242.314 239.849 242.314 241.573C242.522 244.972 244.012 248.166 246.484 250.509C250.094 253.686 254.923 253.298 256.773 253C256.813 252.983 256.848 252.956 256.873 252.922C256.899 252.887 256.914 252.846 256.918 252.803C256.921 252.76 256.913 252.717 256.894 252.679C256.875 252.64 256.846 252.608 256.81 252.585Z" fill="black"/>
<path d="M369.37 183.799H366.545V201.58H369.37V183.799Z" fill="black"/>
</svg>
