<svg width="512" height="512" viewBox="0 0 512 512" fill="none" xmlns="http://www.w3.org/2000/svg">
<path d="M218.813 364.86L220.479 368.703C231.868 362.128 246.374 353.19 251.968 349.72C252.598 349.327 253.051 348.704 253.232 347.984C253.413 347.264 253.307 346.501 252.937 345.857L252.635 345.333L218.813 364.86Z" fill="black"/>
<path d="M257.55 209.686L252.243 200.494L140.466 265.028L144.591 272.173C144.591 272.173 146.508 276.089 140.738 280.536C138.063 282.601 142.464 287.137 145.341 285.476C148.217 283.815 158.67 280.709 164.417 282.07C170.164 283.432 173.321 286.862 176.53 300.507C179.739 314.151 182.877 334.893 190.765 354.55C198.484 373.876 200.625 377.205 205.68 376.34C207.301 376.06 212.88 373.069 219.72 369.14L217.697 364.462L252.183 344.551L251.664 343.652C252.464 342.185 252.721 340.483 252.391 338.845C251.779 336.269 244.001 329.368 242.034 324.95C237.809 315.466 239.868 312.172 238.562 306.787C237.256 301.403 230.439 288.674 228.918 286.04C227.397 283.405 226.123 277.137 233.11 274.563C237.41 272.986 243.283 271.316 247.115 270.281C249.806 269.553 252.392 268.481 254.808 267.09L279.352 252.919C281.583 251.548 282.186 249.199 281.157 247.416L271.093 229.767C270.113 228.047 269.717 226.057 269.963 224.093C270.141 222.697 270.639 221.361 271.417 220.189C272.195 219.016 273.233 218.039 274.451 217.333L279.195 214.594L257.55 209.686ZM195.49 344.682L232.76 323.165C233.003 324.054 233.296 324.929 233.637 325.785L196.625 347.154C196.235 346.316 195.862 345.489 195.49 344.682ZM198.577 351.238L235.916 329.68C236.469 330.403 237.054 331.108 237.638 331.813L199.86 353.624C199.446 352.852 199.021 352.044 198.608 351.22L198.577 351.238ZM241.625 337.348C241.595 337.617 241.47 337.867 241.271 338.052L203.392 359.922C203.027 359.289 202.571 358.499 202.039 357.577L240.496 335.374C240.942 335.989 241.321 336.651 241.625 337.348ZM231.691 318.571L193.89 340.395C193.587 339.521 193.292 338.649 193.005 337.779L231.119 315.774L231.691 318.571ZM229.697 308.258C229.844 309.215 229.99 310.173 230.144 311.126L191.843 333.239C191.843 333.239 191.065 331.26 190.896 330.66L229.697 308.258ZM228.895 303.51L189.687 326.147C189.446 325.17 189.23 324.253 189.044 323.391L228.127 300.826C228.36 301.411 228.833 303.15 228.895 303.51ZM226.207 296.724L188.117 318.715C187.954 317.819 187.761 316.836 187.607 315.883L224.931 294.334L226.207 296.724ZM186.836 311.117C186.681 310.164 186.543 309.202 186.412 308.235L221.36 288.058L221.482 288.269C221.91 289.012 222.321 289.723 222.714 290.403L186.836 311.117ZM221.237 282.918L185.774 303.393C185.651 302.387 185.544 301.406 185.452 300.452L219.797 280.623C220.422 281.287 220.911 282.067 221.237 282.918ZM216.903 272.612C216.028 273.117 215.022 273.351 214.014 273.285C213.006 273.219 212.04 272.856 211.238 272.241C210.437 271.626 209.836 270.787 209.511 269.83C209.186 268.873 209.152 267.841 209.414 266.865C209.675 265.89 210.22 265.013 210.98 264.347C211.74 263.681 212.68 263.255 213.681 263.123C214.683 262.991 215.702 263.159 216.608 263.606C217.514 264.053 218.267 264.758 218.772 265.633C219.447 266.807 219.63 268.201 219.279 269.509C218.929 270.817 218.074 271.933 216.903 272.612ZM229.792 216.791L241.743 209.891C242.792 209.261 244.036 209.041 245.238 209.273C246.439 209.505 247.512 210.172 248.252 211.146C248.635 211.69 248.902 212.308 249.034 212.961C249.166 213.613 249.16 214.286 249.018 214.936C248.876 215.587 248.601 216.2 248.209 216.739C247.817 217.277 247.318 217.728 246.742 218.062L234.767 224.976C233.72 225.61 232.474 225.832 231.272 225.6C230.069 225.368 228.996 224.699 228.258 223.721C227.872 223.176 227.604 222.555 227.472 221.9C227.34 221.245 227.346 220.569 227.491 219.917C227.635 219.264 227.914 218.649 228.311 218.111C228.707 217.572 229.211 217.123 229.792 216.791ZM275.3 247.254C275.482 247.568 275.598 247.915 275.643 248.275C275.688 248.635 275.66 249 275.561 249.349C275.462 249.697 275.294 250.023 275.067 250.305C274.84 250.588 274.558 250.822 274.239 250.994C267.096 254.868 252.662 265.015 242.313 267.217C235.565 268.653 229.227 268.831 225.041 260.659C223.185 257.03 221.872 254.558 221.636 252.505C221.501 251.18 221.755 249.844 222.368 248.661C222.981 247.478 223.925 246.499 225.086 245.845L232.003 241.851L232.03 241.898L238.448 238.193L254.214 229.09C255.356 228.432 256.626 228.028 257.938 227.905C259.25 227.782 260.574 227.944 261.818 228.379L262.021 228.46C264.097 229.185 265.841 230.635 266.932 232.544L275.3 247.254Z" fill="black"/>
<path d="M259.063 209.094L268.229 211.16L334.818 172.715L331.632 167.196L259.063 209.094Z" fill="black"/>
<path d="M309.208 145.146L148.414 237.981L138.269 261.17L139.623 263.515L181.832 239.145L176.361 224.649L178.753 223.268L184.258 237.786L186.603 236.432L181.131 221.937L183.523 220.556L188.948 235.078L191.293 233.725L185.821 219.229L188.213 217.848L193.638 232.371L195.983 231.017L190.511 216.521L192.903 215.14L198.328 229.663L200.673 228.309L195.201 213.813L197.593 212.432L203.018 226.955L205.363 225.601L199.891 211.106L202.283 209.725L207.708 224.248L210.053 222.894L204.581 208.398L206.973 207.017L212.437 221.517L265.542 190.857L260.078 176.356L262.47 174.975L267.934 189.476L270.232 188.149L264.768 173.649L267.16 172.268L272.624 186.768L274.922 185.441L269.458 170.941L271.85 169.56L277.314 184.06L279.612 182.733L274.148 168.233L276.54 166.852L282.004 181.353L284.302 180.026L278.838 165.525L281.23 164.144L286.694 178.645L288.992 177.318L283.528 162.818L285.92 161.437L291.384 175.937L293.682 174.61L288.218 160.11L290.61 158.729L296.074 173.229L325.394 156.301L313.57 135.822L309.208 145.146ZM172.94 240.35C172.954 240.977 172.844 241.6 172.616 242.185C172.388 242.769 172.047 243.302 171.612 243.754C171.304 244.076 170.951 244.353 170.565 244.577C169.866 244.972 169.08 245.186 168.277 245.199L155.667 245.434C155.039 245.445 154.414 245.332 153.83 245.101C153.245 244.87 152.712 244.526 152.26 244.089C151.808 243.652 151.447 243.131 151.197 242.554C150.947 241.977 150.813 241.357 150.803 240.728C150.783 239.461 151.266 238.238 152.147 237.327C153.028 236.416 154.234 235.891 155.501 235.869L168.08 235.652C169.348 235.631 170.571 236.115 171.482 236.996C172.393 237.876 172.917 239.083 172.94 240.35Z" fill="black"/>
<path d="M326.203 157.793L253.024 200.043L258.002 208.665L331.181 166.415L326.203 157.793Z" fill="black"/>
<path d="M147.651 237.254L308.453 144.415L312.631 135.406L307.785 138.204L303.772 136.904C303.594 136.849 303.406 136.832 303.221 136.853C303.036 136.874 302.857 136.932 302.696 137.025L296.052 140.861C295.857 140.973 295.715 141.159 295.656 141.376C295.598 141.593 295.629 141.825 295.741 142.02L297.095 144.365L236.204 179.52L238.135 182.866L210.027 199.094L208.1 195.756L162.92 221.841L158.909 221.03C157.657 220.771 156.353 220.979 155.244 221.614L148.631 225.432C148.409 225.571 148.248 225.79 148.181 226.043C148.115 226.297 148.147 226.566 148.272 226.796L149.662 229.204L144.378 232.254L135.503 256.378L137.655 260.107L147.651 237.254Z" fill="black"/>
<path d="M235.388 180L208.89 195.299L210.37 197.863L236.868 182.564L235.388 180Z" fill="black"/>
<path d="M243.641 218.81L246.143 217.366C247.003 216.886 247.657 216.105 247.979 215.173C248.3 214.242 248.267 213.224 247.886 212.316C247.662 211.822 247.337 211.381 246.932 211.02C246.528 210.659 246.052 210.387 245.536 210.22C245.02 210.054 244.475 209.998 243.936 210.054C243.397 210.111 242.876 210.28 242.406 210.55L239.584 212.179C239.116 212.449 238.71 212.814 238.391 213.251C238.072 213.687 237.847 214.185 237.731 214.712C237.615 215.24 237.611 215.786 237.717 216.316C237.824 216.846 238.04 217.347 238.352 217.789C238.951 218.583 239.824 219.126 240.801 219.315C241.777 219.503 242.789 219.323 243.641 218.81Z" fill="black"/>
<path d="M164.601 244.246L167.486 244.404C168.468 244.473 169.441 244.177 170.219 243.574C170.998 242.971 171.527 242.103 171.705 241.134C171.789 240.598 171.759 240.051 171.618 239.527C171.477 239.003 171.228 238.515 170.886 238.093C170.544 237.672 170.118 237.327 169.635 237.08C169.152 236.833 168.622 236.691 168.081 236.661L164.833 236.452C164.294 236.423 163.756 236.506 163.251 236.696C162.746 236.887 162.287 237.181 161.902 237.559C161.517 237.937 161.215 238.391 161.016 238.892C160.816 239.394 160.724 239.931 160.744 240.47C160.805 241.466 161.233 242.403 161.946 243.101C162.659 243.798 163.605 244.206 164.601 244.246Z" fill="black"/>
<path d="M212.245 264.545C211.525 264.961 210.944 265.582 210.576 266.328C210.208 267.074 210.069 267.912 210.178 268.737C210.287 269.562 210.637 270.336 211.186 270.961C211.734 271.587 212.456 272.035 213.259 272.251C214.063 272.466 214.912 272.438 215.7 272.171C216.488 271.903 217.179 271.408 217.685 270.748C218.191 270.088 218.491 269.293 218.545 268.463C218.599 267.633 218.407 266.805 217.991 266.085C217.433 265.119 216.514 264.414 215.437 264.125C214.359 263.837 213.211 263.988 212.245 264.545Z" fill="black"/>
<path d="M269.524 211.455L280.314 213.897L331.208 184.315C331.776 183.99 332.193 183.453 332.368 182.822L334.879 173.723L269.524 211.455Z" fill="black"/>
<path d="M254.95 252.48C252.478 252.563 250.023 252.032 247.805 250.935C246.574 250.221 245.45 249.337 244.465 248.309C244.055 247.901 243.7 247.439 243.412 246.937L238.836 239.011L232.481 242.68C233.524 244.485 236.029 248.698 236.891 250.191C238.771 253.031 241.658 255.052 244.97 255.845C249.685 256.791 253.673 254.04 255.127 252.857C255.153 252.823 255.169 252.782 255.174 252.74C255.179 252.697 255.171 252.654 255.153 252.615C255.135 252.576 255.106 252.543 255.071 252.519C255.035 252.495 254.993 252.481 254.95 252.48Z" fill="black"/>
<path d="M318.038 136.628L315.592 138.041L324.482 153.44L326.929 152.027L318.038 136.628Z" fill="black"/>
</svg>
