<svg width="512" height="160" viewBox="0 0 512 160" fill="none" xmlns="http://www.w3.org/2000/svg">
<path d="M143.056 28.8487C143.122 28.7896 143.2 28.7456 143.285 28.7198C143.369 28.694 143.458 28.687 143.546 28.6992C143.633 28.7115 143.717 28.7427 143.791 28.7908C143.866 28.8388 143.929 28.9025 143.976 28.9774C145.272 31.1745 146.108 34.8239 152.58 38.1057C154.253 38.9514 158.472 36.7452 158.472 36.7452L154.051 41.7184L157.195 47.6661C157.195 47.6661 150.879 49.2564 147.395 46.5538C143.911 43.8511 140.629 40.6245 141.034 34.0977C141.053 32.1615 141.772 30.2975 143.056 28.8487Z" fill="black"/>
<path d="M213.067 106.131C213.315 105.212 213.555 104.292 213.794 103.373H207.46C207.23 104.292 206.991 105.212 206.752 106.131H213.067Z" fill="black"/>
<path d="M215.043 98.7773C215.301 97.8581 215.54 96.9388 215.779 96.0195H209.344C209.105 96.9388 208.875 97.8581 208.627 98.7773H215.043Z" fill="black"/>
<path d="M214.033 102.453C214.29 101.534 214.529 100.615 214.768 99.6953H208.407C208.177 100.615 207.938 101.534 207.699 102.453H214.033Z" fill="black"/>
<path d="M212.103 109.809C212.342 108.889 212.59 107.97 212.829 107.051H206.514C206.284 107.97 206.045 108.889 205.806 109.809H212.103Z" fill="black"/>
<path d="M211.146 113.484L211.863 110.727H205.575C205.336 111.646 205.097 112.565 204.867 113.484H211.146Z" fill="black"/>
<path d="M209.234 120.84L209.951 118.082H203.682C203.452 119.001 203.213 119.921 202.983 120.84H209.234Z" fill="black"/>
<path d="M210.19 117.162L210.907 114.404H204.629C204.39 115.324 204.16 116.243 203.921 117.162H210.19Z" fill="black"/>
<path d="M197.734 158.529H193.349C193.22 159.035 193.092 159.513 192.981 159.973C194.677 159.999 196.339 159.495 197.734 158.529Z" fill="black"/>
<path d="M200.547 6.93329L197.982 3.61475C197.584 3.10825 197.021 2.757 196.392 2.62194L184.285 0.0479983C183.873 -0.0432501 183.442 -0.00375346 183.053 0.160999C182.664 0.325751 182.337 0.60757 182.115 0.967263L178.576 6.93329H200.547Z" fill="black"/>
<path d="M361.207 6.76772L359.543 4.9292C359.274 4.63554 358.945 4.40192 358.58 4.24354C358.214 4.08516 357.819 4.00557 357.42 4.00994H352.162C351.679 4.00981 351.206 4.14164 350.792 4.39115C350.379 4.64066 350.042 4.99837 349.818 5.4256L349.055 6.86884L361.207 6.76772Z" fill="black"/>
<path d="M198.709 157.609C199.411 156.786 199.976 155.855 200.382 154.852H194.287L193.579 157.609H198.709Z" fill="black"/>
<path d="M217.011 91.4219C217.287 90.4107 217.544 89.4914 217.783 88.6641H211.266L210.549 91.4219H217.011Z" fill="black"/>
<path d="M215.964 95.0996C216.23 94.1803 216.478 93.2059 216.717 92.3418H210.282C210.056 93.2427 209.817 94.1619 209.565 95.0996H215.964Z" fill="black"/>
<path d="M208.287 124.516C208.526 123.596 208.765 122.677 208.995 121.758H202.744C202.505 122.677 202.275 123.596 202.036 124.516H208.287Z" fill="black"/>
<path d="M195.224 151.176C194.976 152.095 194.746 153.014 194.517 153.934H200.74C201.062 153.031 201.332 152.11 201.549 151.176H195.224Z" fill="black"/>
<path d="M201.779 150.256L202.459 147.498H196.162C195.923 148.417 195.684 149.337 195.454 150.256H201.779Z" fill="black"/>
<path d="M199.149 44.5398C195.274 43.4667 191.132 43.9552 187.612 45.9006C184.093 47.846 181.476 51.0933 180.323 54.9459L156.348 133.745C156.253 134.048 156.22 134.367 156.252 134.683C156.283 134.999 156.378 135.305 156.531 135.584C156.684 135.862 156.891 136.106 157.141 136.302C157.391 136.498 157.678 136.642 157.985 136.724L186.05 144.445C186.353 144.529 186.671 144.55 186.983 144.509C187.295 144.469 187.596 144.366 187.868 144.208C188.14 144.049 188.378 143.839 188.568 143.587C188.757 143.336 188.895 143.05 188.973 142.745L210.024 63.3848C211.057 59.4446 210.495 55.2558 208.459 51.7277C206.423 48.1996 203.078 45.6168 199.149 44.5398ZM174.697 134.692C173.735 134.694 172.794 134.41 171.994 133.876C171.194 133.342 170.57 132.582 170.203 131.694C169.835 130.805 169.74 129.827 169.929 128.884C170.118 127.94 170.583 127.075 171.266 126.397C171.948 125.718 172.816 125.258 173.76 125.074C174.704 124.89 175.682 124.991 176.569 125.364C177.455 125.737 178.211 126.364 178.741 127.168C179.27 127.971 179.549 128.913 179.541 129.875C179.529 131.154 179.014 132.376 178.108 133.278C177.201 134.179 175.976 134.687 174.697 134.692ZM195.5 60.2317C194.538 60.2353 193.596 59.9528 192.794 59.42C191.993 58.8873 191.368 58.1283 190.999 57.2396C190.63 56.3509 190.533 55.3725 190.722 54.4288C190.91 53.485 191.374 52.6185 192.056 51.9394C192.738 51.2602 193.606 50.799 194.551 50.6144C195.495 50.4298 196.473 50.5301 197.36 50.9026C198.248 51.2751 199.004 51.9029 199.534 52.7063C200.064 53.5097 200.342 54.4525 200.335 55.4147C200.335 56.698 199.826 57.9288 198.92 58.8371C198.013 59.7454 196.783 60.2568 195.5 60.2593V60.2317Z" fill="black"/>
<path d="M207.34 128.193C207.579 127.274 207.818 126.355 208.048 125.436H201.797C201.567 126.355 201.328 127.274 201.099 128.193H207.34Z" fill="black"/>
<path d="M195.501 51.4805C194.722 51.4769 193.959 51.7045 193.31 52.1346C192.66 52.5647 192.153 53.1779 191.853 53.8965C191.552 54.6151 191.471 55.4068 191.621 56.1712C191.771 56.9356 192.144 57.6384 192.694 58.1905C193.243 58.7425 193.944 59.1191 194.708 59.2724C195.472 59.4257 196.264 59.3489 196.984 59.0516C197.704 58.7544 198.319 58.2501 198.752 57.6027C199.186 56.9553 199.417 56.1939 199.417 55.415C199.417 54.3747 199.005 53.3767 198.271 52.6394C197.537 51.902 196.541 51.4854 195.501 51.4805Z" fill="black"/>
<path d="M174.697 125.914C173.92 125.912 173.16 126.141 172.512 126.571C171.864 127.001 171.359 127.613 171.059 128.33C170.759 129.047 170.678 129.837 170.826 130.6C170.975 131.363 171.346 132.065 171.893 132.618C172.44 133.17 173.139 133.548 173.901 133.703C174.662 133.859 175.453 133.785 176.173 133.492C176.893 133.199 177.51 132.699 177.946 132.055C178.382 131.412 178.617 130.653 178.623 129.876C178.626 129.358 178.528 128.844 178.332 128.364C178.137 127.884 177.848 127.448 177.483 127.079C177.119 126.711 176.685 126.419 176.207 126.219C175.729 126.019 175.216 125.915 174.697 125.914Z" fill="black"/>
<path d="M367.522 31.293H330.623V42.6091H367.522V31.293Z" fill="black"/>
<path d="M247.025 33.729L238.356 33.6738C237.457 33.7199 236.61 34.1094 235.99 34.7621C235.37 35.4147 235.024 36.2806 235.024 37.1808C235.024 38.0811 235.37 38.9469 235.99 39.5996C236.61 40.2522 237.457 40.6418 238.356 40.6878H247.034C247.632 40.6878 249.02 38.8493 249.011 37.1303C249.001 35.4112 247.632 33.7106 247.025 33.729Z" fill="black"/>
<path d="M204.537 139.225C204.757 138.305 204.996 137.386 205.235 136.467H198.975C198.745 137.386 198.506 138.305 198.276 139.225H204.537Z" fill="black"/>
<path d="M206.402 131.871L207.11 129.113H200.859C200.62 130.033 200.39 130.952 200.151 131.871H206.402Z" fill="black"/>
<path d="M203.608 142.902L204.298 140.145H198.038L197.339 142.902H203.608Z" fill="black"/>
<path d="M205.465 135.547L206.173 132.789H199.922C199.683 133.708 199.444 134.628 199.214 135.547H205.465Z" fill="black"/>
<path d="M202.689 146.578L203.378 143.82H197.099L196.392 146.578H202.689Z" fill="black"/>
<path d="M371.658 14.0938H367.981V35.8895H371.658V14.0938Z" fill="black"/>
<path d="M344.66 14.9669L338.482 29.4453H367.071V7.66797L178.034 7.8794H167.003C166.768 7.87951 166.54 7.95704 166.354 8.09997C166.168 8.24291 166.034 8.44326 165.973 8.66997L160.458 28.9765C160.412 29.1328 160.393 29.2983 160.356 29.4545H182.869L189.047 14.9669L189.249 14.5073L189.442 14.0477H192.2L192.411 14.1396L192.255 14.5073L192.062 14.9669L185.875 29.4545H188.385L194.562 14.9669L194.765 14.5073L194.958 14.0477H197.715L197.927 14.1396L197.77 14.5073L197.577 14.9669L191.391 29.4545H193.9L200.078 14.9669L200.28 14.5073L200.473 14.0477H203.231L203.442 14.1396L203.286 14.5073L203.093 14.9669L196.906 29.4545H199.416L205.593 14.9669L205.796 14.5073L205.989 14.0477H208.747L208.958 14.1396L208.802 14.5073L208.609 14.9669L202.422 29.4545H204.932L211.109 14.9669L211.311 14.5073L211.504 14.0477H214.262L214.474 14.1396L214.317 14.5073L214.124 14.9669L207.938 29.4545H210.447L216.625 14.9669L216.827 14.5073L217.02 14.0477H219.778L219.989 14.1396L219.833 14.5073L219.64 14.9669L213.453 29.4545H215.963L222.14 14.9669L222.342 14.5073L222.535 14.0477H225.293L225.505 14.1396L225.348 14.5073L225.155 14.9669L218.969 29.4545H302.374L308.551 14.9669L308.753 14.5073L308.946 14.0477H311.704L311.916 14.1396L311.759 14.5073L311.566 14.9669L305.389 29.4453H307.889L314.067 14.9669L314.269 14.5073L314.462 14.0477H317.22L317.431 14.1396L317.275 14.5073L317.082 14.9669L310.904 29.4453H313.405L319.582 14.9669L319.784 14.5073L319.977 14.0477H322.735L322.947 14.1396L322.79 14.5073L322.597 14.9669L316.42 29.4453H318.92L325.098 14.9669L325.3 14.5073L325.493 14.0477H328.251L328.462 14.1396L328.306 14.5073L328.113 14.9669L321.936 29.4453H324.436L330.613 14.9669L330.816 14.5073L331.009 14.0477H333.766L333.978 14.1396L333.822 14.5073L333.629 14.9669L327.451 29.4453H329.952L336.129 14.9669L336.331 14.5073L336.524 14.0477H339.282L339.493 14.1396L339.337 14.5073L339.144 14.9669L332.967 29.4453H335.467L341.645 14.9669L341.847 14.5073L342.04 14.0477H344.798L345.009 14.1396L344.853 14.5073L344.66 14.9669Z" fill="black"/>
<path d="M160.219 31.293V36.018L154.942 41.7358L158.242 48.1063C158.242 48.1063 167.251 50.0919 166.81 61.739C166.369 73.3861 142.422 138.902 142.422 138.902C142.422 138.902 139.784 145.934 145.281 147.47C150.778 149.005 185.067 159.999 190.123 159.999H192.062C196.53 142.478 209.078 93.2973 212.828 79.1866C217.278 62.4928 221.368 58.0436 229.053 53.1623C238.154 47.3433 256.539 49.8989 256.834 49.9908C259.04 50.5883 265.052 51.9305 265.64 55.9844C266.284 60.4061 266.274 64.8001 265.64 67.0156C265.153 68.6978 263.425 72.8437 258.792 73.5424C251.851 74.5811 242.585 75.3809 237.069 73.5424C232.326 72.0256 226.204 69.4424 226.121 63.4304C226.057 59.1651 228.814 54.486 233.411 52.0775C232.07 52.5422 230.787 53.1591 229.587 53.9161C222.122 58.687 218.132 62.9524 213.757 79.3981C213.205 81.4756 212.461 84.3253 211.578 87.6714H218.114C218.409 86.5284 218.774 85.4047 219.208 84.3069C220.302 82.5511 221.846 80.3265 225.146 80.3541C227.472 80.3541 250.215 80.3541 257.9 80.3541C259.847 80.3692 261.778 79.9892 263.574 79.2372C265.371 78.4851 266.996 77.3766 268.352 75.9785C269.708 74.5805 270.766 72.9221 271.463 71.1035C272.16 69.2848 272.48 67.3438 272.406 65.3977C272.406 61.0863 272.516 56.1499 272.479 52.4728C272.479 51.01 273.061 49.6071 274.095 48.5727C275.129 47.5383 276.532 46.9572 277.995 46.9572H329.796V31.293H160.219ZM210.916 63.6878L189.856 143.002C189.747 143.422 189.555 143.815 189.291 144.159C189.028 144.504 188.698 144.791 188.321 145.006C187.823 145.293 187.259 145.445 186.684 145.447C186.374 145.452 186.064 145.411 185.765 145.328L157.7 137.615C157.277 137.497 156.881 137.295 156.537 137.022C156.192 136.749 155.906 136.41 155.695 136.024C155.483 135.639 155.351 135.215 155.305 134.778C155.26 134.341 155.302 133.899 155.429 133.478L179.441 54.679C180.635 50.5051 183.439 46.9767 187.235 44.87C191.031 42.7634 195.509 42.251 199.683 43.4456C203.857 44.6403 207.385 47.4441 209.492 51.2402C211.599 55.0364 212.111 59.5139 210.916 63.6878ZM255.694 41.6255H238.228C237.088 41.5811 236.009 41.099 235.216 40.2795C234.423 39.46 233.976 38.3661 233.969 37.2256C233.962 36.0851 234.395 34.9858 235.178 34.1564C235.961 33.327 237.033 32.8315 238.172 32.773H255.491C256.925 32.7178 260.915 33.5452 260.906 37.0108C260.887 40.7062 257.054 41.6255 255.694 41.6255Z" fill="black"/>
<path d="M251.906 67.2928C256.972 67.3756 259.343 67.1274 260.437 66.8424C260.542 66.8161 260.636 66.7575 260.706 66.6748C260.776 66.5921 260.817 66.4896 260.826 66.3817C260.834 66.2739 260.808 66.1662 260.751 66.0739C260.695 65.9817 260.611 65.9097 260.511 65.868C257.698 64.6637 248.294 62.6322 247.172 50.2405C242.798 50.158 238.436 50.7092 234.22 51.8768C234.22 51.8768 241.234 67.1365 251.906 67.2928Z" fill="black"/>
</svg>
