<svg width="512" height="512" viewBox="0 0 512 512" fill="none" xmlns="http://www.w3.org/2000/svg">
<path d="M132.205 267.956C132.233 267.872 132.278 267.795 132.338 267.73C132.399 267.666 132.472 267.615 132.554 267.582C132.636 267.549 132.725 267.534 132.813 267.538C132.901 267.543 132.987 267.567 133.066 267.608C135.287 268.862 137.836 271.605 145.081 271.211C146.953 271.107 149.504 267.087 149.504 267.087L148.161 273.604L153.858 277.183C153.858 277.183 149.184 281.718 144.815 281.12C140.447 280.521 135.991 279.368 133.078 273.513C132.127 271.826 131.817 269.853 132.205 267.956Z" fill="black"/>
<path d="M231.478 299.879C231.233 298.959 230.981 298.043 230.728 297.128L225.243 300.295C225.503 301.206 225.756 302.121 226.009 303.037L231.478 299.879Z" fill="black"/>
<path d="M229.513 292.522C229.276 291.597 229.024 290.681 228.771 289.766L223.198 292.983C223.451 293.899 223.711 294.81 223.956 295.73L229.513 292.522Z" fill="black"/>
<path d="M230.475 296.212C230.239 295.287 229.986 294.371 229.733 293.456L224.224 296.636C224.485 297.547 224.738 298.463 224.99 299.379L230.475 296.212Z" fill="black"/>
<path d="M232.481 303.545C232.228 302.629 231.983 301.709 231.731 300.793L226.261 303.951C226.522 304.862 226.775 305.777 227.027 306.693L232.481 303.545Z" fill="black"/>
<path d="M233.491 307.208L232.733 304.461L227.288 307.605C227.54 308.521 227.793 309.436 228.054 310.347L233.491 307.208Z" fill="black"/>
<path d="M235.512 314.532L234.754 311.786L229.325 314.92C229.585 315.831 229.838 316.747 230.099 317.658L235.512 314.532Z" fill="black"/>
<path d="M234.502 310.871L233.744 308.124L228.306 311.263C228.559 312.179 228.82 313.09 229.072 314.006L234.502 310.871Z" fill="black"/>
<path d="M244.398 352.923L240.601 355.115C240.742 355.617 240.87 356.096 241.004 356.549C242.486 355.724 243.673 354.456 244.398 352.923Z" fill="black"/>
<path d="M171.036 220.23L167.155 218.639C166.557 218.399 165.894 218.376 165.282 218.574L153.51 222.398C153.107 222.525 152.754 222.775 152.5 223.112C152.245 223.449 152.102 223.857 152.091 224.279L152.009 231.215L171.036 220.23Z" fill="black"/>
<path d="M310.089 139.757L307.729 138.997C307.349 138.878 306.947 138.84 306.551 138.885C306.155 138.931 305.773 139.06 305.43 139.263L300.876 141.892C300.458 142.133 300.114 142.484 299.881 142.907C299.648 143.329 299.535 143.808 299.554 144.29L299.615 145.921L310.089 139.757Z" fill="black"/>
<path d="M244.782 351.64C244.979 350.576 245.003 349.487 244.852 348.415L239.574 351.462L240.34 354.205L244.782 351.64Z" fill="black"/>
<path d="M227.539 285.169C227.272 284.155 227.036 283.23 226.829 282.394L221.184 285.653L221.942 288.4L227.539 285.169Z" fill="black"/>
<path d="M228.47 288.877C228.241 287.947 227.969 286.979 227.744 286.112L222.171 289.329C222.425 290.223 222.677 291.138 222.929 292.076L228.47 288.877Z" fill="black"/>
<path d="M236.531 318.191C236.278 317.275 236.025 316.359 235.765 315.448L230.351 318.574C230.604 319.489 230.865 320.4 231.117 321.316L236.531 318.191Z" fill="black"/>
<path d="M238.548 347.81C238.792 348.73 239.053 349.641 239.313 350.552L244.703 347.441C244.531 346.498 244.304 345.565 244.025 344.648L238.548 347.81Z" fill="black"/>
<path d="M243.764 343.736L242.975 341.007L237.521 344.156C237.774 345.071 238.026 345.987 238.287 346.898L243.764 343.736Z" fill="black"/>
<path d="M188.63 253.499C184.737 254.507 181.394 257.001 179.319 260.446C177.243 263.89 176.6 268.011 177.528 271.924L196.166 352.154C196.235 352.463 196.366 352.756 196.551 353.014C196.736 353.272 196.971 353.49 197.243 353.654C197.514 353.819 197.816 353.927 198.131 353.971C198.445 354.016 198.765 353.997 199.072 353.915L227.238 346.569C227.542 346.49 227.828 346.35 228.078 346.158C228.328 345.967 228.537 345.728 228.693 345.455C228.85 345.181 228.95 344.88 228.989 344.568C229.028 344.255 229.004 343.938 228.919 343.635L207.47 264.382C206.395 260.453 203.813 257.106 200.286 255.069C196.759 253.031 192.57 252.467 188.63 253.499ZM212.529 343.799C211.697 344.282 210.74 344.506 209.78 344.444C208.82 344.382 207.901 344.036 207.138 343.45C206.375 342.864 205.803 342.064 205.496 341.153C205.188 340.241 205.158 339.259 205.41 338.331C205.661 337.402 206.183 336.57 206.909 335.938C207.635 335.307 208.532 334.905 209.486 334.785C210.44 334.664 211.409 334.83 212.269 335.261C213.129 335.692 213.842 336.369 214.316 337.205C214.945 338.319 215.11 339.635 214.776 340.869C214.441 342.103 213.634 343.156 212.529 343.799ZM193.315 268.913C192.483 269.397 191.527 269.624 190.566 269.563C189.606 269.502 188.685 269.157 187.921 268.572C187.157 267.987 186.584 267.188 186.275 266.277C185.966 265.365 185.935 264.383 186.186 263.454C186.437 262.525 186.959 261.691 187.684 261.059C188.41 260.427 189.307 260.025 190.262 259.904C191.216 259.783 192.185 259.948 193.046 260.379C193.906 260.81 194.619 261.487 195.094 262.324C195.736 263.435 195.91 264.756 195.579 265.996C195.248 267.235 194.439 268.293 193.329 268.937L193.315 268.913Z" fill="black"/>
<path d="M237.549 321.849C237.296 320.934 237.044 320.018 236.783 319.107L231.37 322.233C231.63 323.144 231.883 324.059 232.144 324.97L237.549 321.849Z" fill="black"/>
<path d="M188.939 261.334C188.263 261.72 187.716 262.299 187.369 262.996C187.021 263.693 186.889 264.478 186.988 265.251C187.087 266.023 187.413 266.749 187.925 267.336C188.436 267.923 189.111 268.345 189.863 268.549C190.615 268.752 191.41 268.728 192.148 268.479C192.886 268.229 193.534 267.767 194.009 267.149C194.484 266.532 194.765 265.788 194.816 265.01C194.867 264.233 194.687 263.458 194.298 262.783C193.777 261.883 192.922 261.224 191.917 260.953C190.913 260.681 189.842 260.818 188.939 261.334Z" fill="black"/>
<path d="M208.14 336.196C207.466 336.583 206.921 337.161 206.576 337.858C206.23 338.554 206.098 339.337 206.197 340.108C206.295 340.879 206.62 341.604 207.131 342.19C207.641 342.777 208.313 343.199 209.063 343.404C209.813 343.608 210.607 343.586 211.344 343.34C212.082 343.094 212.73 342.635 213.207 342.021C213.683 341.407 213.968 340.666 214.023 339.891C214.079 339.115 213.904 338.341 213.52 337.665C213.264 337.214 212.922 336.819 212.512 336.501C212.103 336.183 211.635 335.949 211.135 335.812C210.635 335.676 210.113 335.64 209.599 335.706C209.085 335.771 208.589 335.938 208.14 336.196Z" fill="black"/>
<path d="M327.821 157.839L295.865 176.289L301.523 186.089L333.479 167.639L327.821 157.839Z" fill="black"/>
<path d="M224.685 220.198L217.15 224.484C216.395 224.974 215.856 225.735 215.645 226.61C215.435 227.485 215.568 228.408 216.018 229.188C216.468 229.967 217.201 230.544 218.064 230.799C218.927 231.054 219.856 230.968 220.657 230.559L228.172 226.22C228.69 225.921 228.973 223.635 228.105 222.151C227.238 220.667 225.201 219.879 224.685 220.198Z" fill="black"/>
<path d="M240.636 332.803C240.368 331.897 240.115 330.981 239.862 330.066L234.441 333.196C234.702 334.107 234.954 335.022 235.215 335.933L240.636 332.803Z" fill="black"/>
<path d="M238.576 325.501L237.81 322.759L232.396 325.884C232.649 326.8 232.909 327.711 233.162 328.627L238.576 325.501Z" fill="black"/>
<path d="M241.671 336.453L240.889 333.72L235.467 336.85L236.241 339.588L241.671 336.453Z" fill="black"/>
<path d="M239.602 329.155L238.836 326.413L233.423 329.539C233.675 330.454 233.928 331.37 234.188 332.281L239.602 329.155Z" fill="black"/>
<path d="M242.713 340.097L241.931 337.364L236.494 340.504L237.26 343.246L242.713 340.097Z" fill="black"/>
<path d="M322.804 140.876L319.619 142.715L330.517 161.591L333.701 159.752L322.804 140.876Z" fill="black"/>
<path d="M299.858 155.132L301.748 170.76L326.507 156.465L315.618 137.605L152.012 232.307L142.459 237.823C142.256 237.94 142.097 238.121 142.008 238.338C141.918 238.555 141.902 238.796 141.963 239.022L147.34 259.366C147.378 259.524 147.445 259.677 147.491 259.831L166.988 248.574L165.094 232.939L165.039 232.44L164.976 231.945L167.365 230.566L167.594 230.54L167.642 230.937L167.705 231.431L169.591 247.071L171.764 245.816L169.87 230.181L169.816 229.682L169.753 229.187L172.141 227.808L172.37 227.782L172.419 228.179L172.481 228.673L174.367 244.313L176.541 243.059L174.647 227.423L174.592 226.924L174.53 226.43L176.918 225.051L177.147 225.025L177.195 225.421L177.258 225.916L179.144 241.556L181.317 240.301L179.424 224.665L179.369 224.166L179.306 223.672L181.695 222.293L181.924 222.267L181.972 222.663L182.035 223.158L183.921 238.798L186.094 237.543L184.2 221.908L184.145 221.409L184.083 220.914L186.471 219.535L186.7 219.509L186.749 219.906L186.811 220.4L188.697 236.04L190.871 234.785L188.977 219.15L188.922 218.651L188.859 218.156L191.248 216.777L191.477 216.751L191.525 217.148L191.588 217.642L193.474 233.282L195.647 232.027L193.753 216.392L193.699 215.893L193.636 215.398L196.024 214.019L196.254 213.993L196.302 214.39L196.365 214.885L198.251 230.524L270.481 188.822L268.587 173.187L268.533 172.688L268.47 172.193L270.858 170.814L271.088 170.788L271.136 171.185L271.199 171.679L273.088 187.306L275.253 186.056L273.364 170.429L273.309 169.93L273.247 169.435L275.635 168.056L275.864 168.03L275.913 168.427L275.975 168.921L277.865 184.549L280.03 183.298L278.141 167.671L278.086 167.172L278.023 166.677L280.412 165.298L280.641 165.272L280.689 165.669L280.752 166.164L282.641 181.791L284.807 180.541L282.917 164.913L282.863 164.414L282.8 163.92L285.188 162.541L285.417 162.515L285.466 162.911L285.529 163.406L287.418 179.033L289.583 177.783L287.694 162.156L287.639 161.656L287.577 161.162L289.965 159.783L290.194 159.757L290.243 160.153L290.305 160.648L292.195 176.275L294.36 175.025L292.471 159.398L292.416 158.899L292.353 158.404L294.742 157.025L294.971 156.999L295.019 157.396L295.082 157.89L296.971 173.518L299.137 172.267L297.247 156.64L297.193 156.141L297.13 155.646L299.518 154.267L299.747 154.241L299.796 154.638L299.858 155.132Z" fill="black"/>
<path d="M148.291 261.492L150.653 265.584L148.943 273.174L154.986 277.041C154.986 277.041 163.78 274.256 169.222 284.564C174.663 294.871 186.683 363.583 186.683 363.583C186.683 363.583 187.914 370.992 193.442 369.573C198.971 368.154 234.163 360.531 238.541 358.003L240.221 357.033C235.329 339.626 221.606 290.76 217.799 276.665C213.305 259.983 214.623 254.084 218.838 246.014C223.81 236.425 241.01 229.445 241.31 229.378C243.52 228.792 249.397 226.948 251.934 230.165C254.702 233.672 256.891 237.482 257.449 239.718C257.869 241.419 258.445 245.873 254.782 248.795C249.291 253.165 241.666 258.49 235.97 259.656C231.104 260.714 224.51 261.538 221.432 256.373C219.244 252.711 219.293 247.28 222.069 242.896C221.14 243.969 220.337 245.145 219.676 246.4C215.598 254.264 214.275 259.953 218.709 276.383C219.27 278.458 220.05 281.299 220.958 284.638L226.619 281.37C226.302 280.232 226.057 279.077 225.884 277.909C225.953 275.841 226.178 273.143 229.05 271.517C231.064 270.354 250.76 258.982 257.416 255.14C259.11 254.179 260.591 252.885 261.771 251.335C262.951 249.786 263.804 248.013 264.279 246.124C264.755 244.236 264.842 242.27 264.536 240.347C264.23 238.424 263.538 236.582 262.5 234.934C260.344 231.2 257.972 226.87 256.101 223.704C255.37 222.437 255.172 220.932 255.55 219.519C255.929 218.106 256.853 216.901 258.12 216.17L302.981 190.269L295.148 176.704L148.291 261.492ZM208.393 264.198L229.812 343.416C229.927 343.834 229.958 344.271 229.901 344.701C229.845 345.131 229.703 345.545 229.484 345.92C229.197 346.417 228.785 346.831 228.288 347.12C228.021 347.279 227.733 347.399 227.432 347.476L199.27 354.829C198.845 354.938 198.401 354.962 197.967 354.897C197.532 354.833 197.114 354.682 196.738 354.454C196.362 354.226 196.036 353.926 195.778 353.57C195.52 353.214 195.336 352.81 195.236 352.382L176.63 272.134C175.578 267.922 176.242 263.465 178.476 259.742C180.71 256.02 184.332 253.337 188.544 252.285C192.756 251.232 197.214 251.896 200.936 254.13C204.659 256.365 207.341 259.986 208.393 264.198ZM236.141 222.703L221.015 231.436C220.005 231.967 218.83 232.089 217.734 231.776C216.637 231.463 215.703 230.739 215.127 229.755C214.55 228.771 214.376 227.602 214.639 226.492C214.902 225.383 215.583 224.417 216.541 223.797L231.539 215.138C232.754 214.373 236.622 213.094 238.347 216.1C240.179 219.31 237.319 222.023 236.141 222.703Z" fill="black"/>
<path d="M245.694 246.824C250.122 244.363 252.052 242.962 252.857 242.169C252.934 242.093 252.986 241.996 253.005 241.889C253.025 241.783 253.01 241.673 252.963 241.575C252.916 241.478 252.839 241.398 252.744 241.346C252.649 241.294 252.54 241.274 252.433 241.288C249.395 241.651 240.235 244.594 233.068 234.423C229.239 236.539 225.736 239.198 222.669 242.317C222.669 242.317 236.373 252.025 245.694 246.824Z" fill="black"/>
</svg>
