<svg width="512" height="512" viewBox="0 0 512 512" fill="none" xmlns="http://www.w3.org/2000/svg">
<path d="M142.056 204.849C142.122 204.79 142.2 204.746 142.285 204.72C142.369 204.694 142.458 204.687 142.546 204.699C142.633 204.711 142.717 204.743 142.791 204.791C142.866 204.839 142.929 204.903 142.976 204.977C144.272 207.174 145.108 210.824 151.58 214.106C153.253 214.951 157.472 212.745 157.472 212.745L153.051 217.718L156.195 223.666C156.195 223.666 149.879 225.256 146.395 222.554C142.911 219.851 139.629 216.625 140.034 210.098C140.053 208.162 140.772 206.298 142.056 204.849Z" fill="black"/>
<path d="M212.067 282.131C212.315 281.212 212.555 280.292 212.794 279.373H206.46C206.23 280.292 205.991 281.212 205.752 282.131H212.067Z" fill="black"/>
<path d="M214.043 274.777C214.301 273.858 214.54 272.939 214.779 272.02H208.344C208.105 272.939 207.875 273.858 207.627 274.777H214.043Z" fill="black"/>
<path d="M213.033 278.453C213.29 277.534 213.529 276.615 213.768 275.695H207.407C207.177 276.615 206.938 277.534 206.699 278.453H213.033Z" fill="black"/>
<path d="M211.103 285.809C211.342 284.889 211.59 283.97 211.829 283.051H205.514C205.284 283.97 205.045 284.889 204.806 285.809H211.103Z" fill="black"/>
<path d="M210.146 289.484L210.863 286.727H204.575C204.336 287.646 204.097 288.565 203.867 289.484H210.146Z" fill="black"/>
<path d="M208.234 296.84L208.951 294.082H202.682C202.452 295.001 202.213 295.921 201.983 296.84H208.234Z" fill="black"/>
<path d="M209.19 293.162L209.907 290.404H203.629C203.39 291.324 203.16 292.243 202.921 293.162H209.19Z" fill="black"/>
<path d="M196.734 334.529H192.349C192.22 335.035 192.092 335.513 191.981 335.973C193.677 335.999 195.339 335.495 196.734 334.529Z" fill="black"/>
<path d="M199.547 182.933L196.982 179.615C196.584 179.108 196.021 178.757 195.392 178.622L183.285 176.048C182.873 175.957 182.442 175.996 182.053 176.161C181.664 176.326 181.337 176.608 181.115 176.967L177.576 182.933H199.547Z" fill="black"/>
<path d="M360.207 182.768L358.543 180.929C358.274 180.636 357.945 180.402 357.58 180.244C357.214 180.085 356.819 180.006 356.42 180.01H351.162C350.679 180.01 350.206 180.142 349.792 180.391C349.379 180.641 349.042 180.998 348.818 181.426L348.055 182.869L360.207 182.768Z" fill="black"/>
<path d="M197.709 333.609C198.411 332.786 198.976 331.855 199.382 330.852H193.287L192.579 333.609H197.709Z" fill="black"/>
<path d="M216.011 267.422C216.287 266.411 216.544 265.491 216.783 264.664H210.266L209.549 267.422H216.011Z" fill="black"/>
<path d="M214.964 271.1C215.23 270.18 215.478 269.206 215.717 268.342H209.282C209.056 269.243 208.817 270.162 208.565 271.1H214.964Z" fill="black"/>
<path d="M207.287 300.516C207.526 299.596 207.765 298.677 207.995 297.758H201.744C201.505 298.677 201.275 299.596 201.036 300.516H207.287Z" fill="black"/>
<path d="M194.224 327.176C193.976 328.095 193.746 329.014 193.517 329.934H199.74C200.062 329.031 200.332 328.11 200.549 327.176H194.224Z" fill="black"/>
<path d="M200.779 326.256L201.459 323.498H195.162C194.923 324.417 194.684 325.337 194.454 326.256H200.779Z" fill="black"/>
<path d="M198.149 220.54C194.274 219.467 190.132 219.955 186.612 221.901C183.093 223.846 180.476 227.093 179.323 230.946L155.348 309.745C155.253 310.048 155.22 310.367 155.252 310.683C155.283 310.999 155.378 311.305 155.531 311.584C155.684 311.862 155.891 312.106 156.141 312.302C156.391 312.498 156.678 312.642 156.985 312.724L185.05 320.445C185.353 320.529 185.671 320.55 185.983 320.509C186.295 320.469 186.596 320.366 186.868 320.208C187.14 320.049 187.378 319.839 187.568 319.587C187.757 319.336 187.895 319.05 187.973 318.745L209.024 239.385C210.057 235.445 209.495 231.256 207.459 227.728C205.423 224.2 202.078 221.617 198.149 220.54ZM173.697 310.692C172.735 310.694 171.794 310.41 170.994 309.876C170.194 309.342 169.57 308.582 169.203 307.694C168.835 306.805 168.74 305.827 168.929 304.884C169.118 303.94 169.583 303.075 170.266 302.397C170.948 301.718 171.816 301.258 172.76 301.074C173.704 300.89 174.682 300.991 175.569 301.364C176.455 301.737 177.211 302.364 177.741 303.168C178.27 303.971 178.549 304.913 178.541 305.875C178.529 307.154 178.014 308.376 177.108 309.278C176.201 310.179 174.976 310.687 173.697 310.692ZM194.5 236.232C193.538 236.235 192.596 235.953 191.794 235.42C190.993 234.887 190.368 234.128 189.999 233.24C189.63 232.351 189.533 231.373 189.722 230.429C189.91 229.485 190.374 228.619 191.056 227.939C191.738 227.26 192.606 226.799 193.551 226.614C194.495 226.43 195.473 226.53 196.36 226.903C197.248 227.275 198.004 227.903 198.534 228.706C199.064 229.51 199.342 230.452 199.335 231.415C199.335 232.698 198.826 233.929 197.92 234.837C197.013 235.745 195.783 236.257 194.5 236.259V236.232Z" fill="black"/>
<path d="M206.34 304.193C206.579 303.274 206.818 302.355 207.048 301.436H200.797C200.567 302.355 200.328 303.274 200.099 304.193H206.34Z" fill="black"/>
<path d="M194.501 227.481C193.722 227.477 192.959 227.705 192.31 228.135C191.66 228.565 191.153 229.178 190.853 229.897C190.552 230.615 190.471 231.407 190.621 232.171C190.771 232.936 191.144 233.638 191.694 234.19C192.243 234.743 192.944 235.119 193.708 235.272C194.472 235.426 195.264 235.349 195.984 235.052C196.704 234.754 197.319 234.25 197.752 233.603C198.186 232.955 198.417 232.194 198.417 231.415C198.417 230.375 198.005 229.377 197.271 228.639C196.537 227.902 195.541 227.485 194.501 227.481Z" fill="black"/>
<path d="M173.697 301.914C172.92 301.912 172.16 302.141 171.512 302.571C170.864 303.001 170.359 303.613 170.059 304.33C169.759 305.047 169.678 305.837 169.826 306.6C169.975 307.363 170.346 308.065 170.893 308.618C171.44 309.17 172.139 309.548 172.901 309.703C173.662 309.859 174.453 309.785 175.173 309.492C175.893 309.199 176.51 308.699 176.946 308.055C177.382 307.412 177.617 306.653 177.623 305.876C177.626 305.358 177.528 304.844 177.332 304.364C177.137 303.884 176.848 303.448 176.483 303.079C176.119 302.711 175.685 302.419 175.207 302.219C174.729 302.019 174.216 301.915 173.697 301.914Z" fill="black"/>
<path d="M366.522 207.293H329.623V218.609H366.522V207.293Z" fill="black"/>
<path d="M246.025 209.729L237.356 209.674C236.457 209.72 235.61 210.109 234.99 210.762C234.37 211.415 234.024 212.281 234.024 213.181C234.024 214.081 234.37 214.947 234.99 215.6C235.61 216.252 236.457 216.642 237.356 216.688H246.034C246.632 216.688 248.02 214.849 248.011 213.13C248.001 211.411 246.632 209.711 246.025 209.729Z" fill="black"/>
<path d="M203.537 315.225C203.757 314.305 203.996 313.386 204.235 312.467H197.975C197.745 313.386 197.506 314.305 197.276 315.225H203.537Z" fill="black"/>
<path d="M205.402 307.871L206.11 305.113H199.859C199.62 306.033 199.39 306.952 199.151 307.871H205.402Z" fill="black"/>
<path d="M202.608 318.902L203.298 316.145H197.038L196.339 318.902H202.608Z" fill="black"/>
<path d="M204.465 311.547L205.173 308.789H198.922C198.683 309.708 198.444 310.628 198.214 311.547H204.465Z" fill="black"/>
<path d="M201.689 322.578L202.378 319.82H196.099L195.392 322.578H201.689Z" fill="black"/>
<path d="M370.658 190.094H366.981V211.89H370.658V190.094Z" fill="black"/>
<path d="M343.66 190.967L337.482 205.445H366.071V183.668L177.034 183.879H166.003C165.768 183.88 165.54 183.957 165.354 184.1C165.168 184.243 165.034 184.443 164.973 184.67L159.458 204.977C159.412 205.133 159.393 205.298 159.356 205.455H181.869L188.047 190.967L188.249 190.507L188.442 190.048H191.2L191.411 190.14L191.255 190.507L191.062 190.967L184.875 205.455H187.385L193.562 190.967L193.765 190.507L193.958 190.048H196.715L196.927 190.14L196.77 190.507L196.577 190.967L190.391 205.455H192.9L199.078 190.967L199.28 190.507L199.473 190.048H202.231L202.442 190.14L202.286 190.507L202.093 190.967L195.906 205.455H198.416L204.593 190.967L204.796 190.507L204.989 190.048H207.747L207.958 190.14L207.802 190.507L207.609 190.967L201.422 205.455H203.932L210.109 190.967L210.311 190.507L210.504 190.048H213.262L213.474 190.14L213.317 190.507L213.124 190.967L206.938 205.455H209.447L215.625 190.967L215.827 190.507L216.02 190.048H218.778L218.989 190.14L218.833 190.507L218.64 190.967L212.453 205.455H214.963L221.14 190.967L221.342 190.507L221.535 190.048H224.293L224.505 190.14L224.348 190.507L224.155 190.967L217.969 205.455H301.374L307.551 190.967L307.753 190.507L307.946 190.048H310.704L310.916 190.14L310.759 190.507L310.566 190.967L304.389 205.445H306.889L313.067 190.967L313.269 190.507L313.462 190.048H316.22L316.431 190.14L316.275 190.507L316.082 190.967L309.904 205.445H312.405L318.582 190.967L318.784 190.507L318.977 190.048H321.735L321.947 190.14L321.79 190.507L321.597 190.967L315.42 205.445H317.92L324.098 190.967L324.3 190.507L324.493 190.048H327.251L327.462 190.14L327.306 190.507L327.113 190.967L320.936 205.445H323.436L329.613 190.967L329.816 190.507L330.009 190.048H332.766L332.978 190.14L332.822 190.507L332.629 190.967L326.451 205.445H328.952L335.129 190.967L335.331 190.507L335.524 190.048H338.282L338.493 190.14L338.337 190.507L338.144 190.967L331.967 205.445H334.467L340.645 190.967L340.847 190.507L341.04 190.048H343.798L344.009 190.14L343.853 190.507L343.66 190.967Z" fill="black"/>
<path d="M159.219 207.293V212.018L153.942 217.736L157.242 224.106C157.242 224.106 166.251 226.092 165.81 237.739C165.369 249.386 141.422 314.902 141.422 314.902C141.422 314.902 138.784 321.934 144.281 323.47C149.778 325.005 184.067 335.999 189.123 335.999H191.062C195.53 318.478 208.078 269.297 211.828 255.187C216.278 238.493 220.368 234.044 228.053 229.162C237.154 223.343 255.539 225.899 255.834 225.991C258.04 226.588 264.052 227.93 264.64 231.984C265.284 236.406 265.274 240.8 264.64 243.016C264.153 244.698 262.425 248.844 257.792 249.542C250.851 250.581 241.585 251.381 236.069 249.542C231.326 248.026 225.204 245.442 225.121 239.43C225.057 235.165 227.814 230.486 232.411 228.078C231.07 228.542 229.787 229.159 228.587 229.916C221.122 234.687 217.132 238.952 212.757 255.398C212.205 257.476 211.461 260.325 210.578 263.671H217.114C217.409 262.528 217.774 261.405 218.208 260.307C219.302 258.551 220.846 256.327 224.146 256.354C226.472 256.354 249.215 256.354 256.9 256.354C258.847 256.369 260.778 255.989 262.574 255.237C264.371 254.485 265.996 253.377 267.352 251.979C268.708 250.581 269.766 248.922 270.463 247.103C271.16 245.285 271.48 243.344 271.406 241.398C271.406 237.086 271.516 232.15 271.479 228.473C271.479 227.01 272.061 225.607 273.095 224.573C274.129 223.538 275.532 222.957 276.995 222.957H328.796V207.293H159.219ZM209.916 239.688L188.856 319.002C188.747 319.422 188.555 319.815 188.291 320.159C188.028 320.504 187.698 320.791 187.321 321.006C186.823 321.293 186.259 321.445 185.684 321.447C185.374 321.452 185.064 321.411 184.765 321.328L156.7 313.615C156.277 313.497 155.881 313.295 155.537 313.022C155.192 312.749 154.906 312.41 154.695 312.024C154.483 311.639 154.351 311.215 154.305 310.778C154.26 310.341 154.302 309.899 154.429 309.478L178.441 230.679C179.635 226.505 182.439 222.977 186.235 220.87C190.031 218.763 194.509 218.251 198.683 219.446C202.857 220.64 206.385 223.444 208.492 227.24C210.599 231.036 211.111 235.514 209.916 239.688ZM254.694 217.625H237.228C236.088 217.581 235.009 217.099 234.216 216.279C233.423 215.46 232.976 214.366 232.969 213.226C232.962 212.085 233.395 210.986 234.178 210.156C234.961 209.327 236.033 208.832 237.172 208.773H254.491C255.925 208.718 259.915 209.545 259.906 213.011C259.887 216.706 256.054 217.625 254.694 217.625Z" fill="black"/>
<path d="M250.906 243.293C255.972 243.376 258.343 243.127 259.437 242.842C259.542 242.816 259.636 242.758 259.706 242.675C259.776 242.592 259.817 242.49 259.826 242.382C259.834 242.274 259.808 242.166 259.751 242.074C259.695 241.982 259.611 241.91 259.511 241.868C256.698 240.664 247.294 238.632 246.172 226.24C241.798 226.158 237.436 226.709 233.22 227.877C233.22 227.877 240.234 243.137 250.906 243.293Z" fill="black"/>
</svg>
