<svg width="512" height="512" viewBox="0 0 512 512" fill="none" xmlns="http://www.w3.org/2000/svg">
<path d="M136.197 330.449C137.818 329.513 138.358 327.494 137.423 325.874C136.487 324.253 134.469 323.712 132.848 324.648C131.227 325.583 130.686 327.602 131.622 329.223C132.558 330.844 134.576 331.384 136.197 330.449Z" fill="black"/>
<path d="M138.189 325.43C138.682 326.283 138.869 327.199 138.702 328.092L149.801 318.158C150.385 317.593 150.161 316.812 149.78 316.35C149.4 315.887 148.848 315.523 148.116 315.832L135.064 323.367C136.397 323.508 137.549 324.321 138.189 325.43Z" fill="black"/>
<path d="M325.97 207.801L323.752 209.082L326.756 214.286L328.974 213.005L325.97 207.801Z" fill="black"/>
<path d="M192.415 289.914C191.608 289.698 190.823 289.127 190.38 288.36C189.789 287.336 189.503 286.25 189.437 285.15L180.736 290.174L177.337 284.288C176.943 283.606 176.001 283.353 175.319 283.747C174.636 284.141 174.384 285.083 174.778 285.766L178.176 291.652L166.319 298.498L162.92 292.612C162.526 291.929 161.585 291.677 160.902 292.071C160.22 292.465 159.967 293.407 160.361 294.089L163.76 299.975L148.319 308.89L144.921 303.004C144.527 302.321 143.585 302.069 142.902 302.463C142.22 302.857 141.967 303.799 142.361 304.481L145.76 310.367L130.831 318.987L131.225 319.669C131.718 320.522 131.478 321.684 130.54 322.226L130.284 322.373C129.431 322.866 128.269 322.627 127.728 321.688L127.383 321.091L119.705 325.524C119.86 327.368 120.599 328.648 121.262 329.402L121.495 329.609C121.593 329.78 121.777 329.901 121.827 329.986L132.319 323.928L147.76 315.014L192.415 289.914Z" fill="black"/>
<path d="M191.945 302.698C191.348 303.042 191.131 303.85 191.476 304.447C191.821 305.044 192.628 305.26 193.225 304.916C193.823 304.571 194.039 303.763 193.694 303.166C193.349 302.569 192.542 302.353 191.945 302.698Z" fill="black"/>
<path d="M346.676 193.231L348.126 192.394L349.801 195.294L348.862 195.836L351.325 200.102L359.259 195.521L356.648 191L355.283 191.788L347.423 188.023L344.607 189.648L346.676 193.231Z" fill="black"/>
<path d="M200.813 263.682L190.576 269.592L193.384 274.454L203.62 268.544L200.813 263.682Z" fill="black"/>
<path d="M210.429 236.405L191.32 247.438L198.807 260.404L217.915 249.372L210.429 236.405Z" fill="black"/>
<path d="M467.528 128.12L466.504 128.711L468.967 132.976L469.99 132.385L467.528 128.12Z" fill="black"/>
<path d="M232.033 266.928C231.984 266.843 231.984 266.843 231.849 266.807L216.222 266.73C215.428 266.733 214.512 266.92 213.744 267.364L193.441 279.086C190.37 280.859 189.325 284.761 191.098 287.832C191.738 288.941 193.218 289.338 194.327 288.697L231.862 267.026C231.948 266.977 232.033 266.928 232.033 266.928Z" fill="black"/>
<path d="M198.361 261.799L190.172 266.527L191.108 268.148L199.297 263.42L198.361 261.799Z" fill="black"/>
<path d="M178.436 284.223L181.144 288.915L189.504 284.088C189.763 281.777 190.999 279.585 193.132 278.354L213.435 266.632C214.288 266.139 215.374 265.853 216.388 265.837L232.554 266.058L226.89 256.248L178.436 284.223Z" fill="black"/>
<path d="M187.408 274.151L179.73 278.584L181.307 281.314L188.984 276.881L187.408 274.151Z" fill="black"/>
<path d="M174.085 286.735L163.934 292.596L166.642 297.288L176.794 291.427L174.085 286.735Z" fill="black"/>
<path d="M183.822 270.306L178.277 273.508L180.346 277.091L185.891 273.889L183.822 270.306Z" fill="black"/>
<path d="M356.509 198.245L353.182 200.166L355.349 203.92L358.676 201.999L356.509 198.245Z" fill="black"/>
<path d="M357.672 190.408L360.282 194.929L430.149 154.592L427.538 150.071L426.771 150.514L357.672 190.408Z" fill="black"/>
<path d="M439.225 143.324L428.477 149.529L431.087 154.051L442.859 147.254L440.249 142.733L439.225 143.324Z" fill="black"/>
<path d="M352.243 200.708L329.893 213.612L329.466 213.858L327.248 215.139L328.972 218.124L353.967 203.694L352.243 200.708Z" fill="black"/>
<path d="M343.105 189.607L327.238 198.768L330.144 203.801L346.011 194.64L343.105 189.607Z" fill="black"/>
<path d="M326.622 200.261L320.65 203.709L322.719 207.292L328.69 203.844L326.622 200.261Z" fill="black"/>
<path d="M430.641 155.445L357.447 197.703L359.27 200.859L432.463 158.601L430.641 155.445Z" fill="black"/>
<path d="M432.347 154.461L431.494 154.953L433.661 158.707L434.514 158.214L432.347 154.461Z" fill="black"/>
<path d="M347.924 196.378L327.365 208.248L329.828 212.513L350.387 200.644L347.924 196.378Z" fill="black"/>
<path d="M462.471 128.424L460.082 129.803L464.761 137.907L467.15 136.528L462.471 128.424Z" fill="black"/>
<path d="M465.306 128.607L464.111 129.297L467.263 134.757L468.458 134.067L465.306 128.607Z" fill="black"/>
<path d="M443.353 148.106L433.201 153.967L435.023 157.123L445.175 151.262L443.353 148.106Z" fill="black"/>
<path d="M443.705 139.259L440.463 141.131L446.028 150.771L449.27 148.899L443.705 139.259Z" fill="black"/>
<path d="M459.982 131.795L445.395 140.217L448.399 145.421L462.986 136.998L459.982 131.795Z" fill="black"/>
<path d="M319.295 203.922L316.906 205.301L325.87 220.827L328.259 219.448L319.295 203.922Z" fill="black"/>
<path d="M106.4 311.937L106.646 312.363C106.893 312.79 107.48 313.019 107.992 312.724C108.504 312.428 108.599 311.805 108.353 311.378L108.106 310.952L101.408 299.35L101.359 299.265C101.113 298.838 100.44 298.658 100.013 298.904C99.5867 299.15 99.3572 299.738 99.6527 300.25L99.9974 300.847L106.4 311.937Z" fill="black"/>
<path d="M104.086 313.842C104.332 314.268 105.005 314.448 105.432 314.202C105.943 313.907 106.038 313.283 105.792 312.857L105.546 312.43L98.8475 300.828L98.7983 300.743C98.552 300.316 97.8792 300.136 97.4527 300.382C97.0261 300.629 96.7966 301.216 97.0921 301.728L97.4369 302.325L104.086 313.842Z" fill="black"/>
<path d="M104.062 319.314C105.014 318.992 105.437 317.952 104.944 317.099L103.467 314.539L96.6701 302.767L94.6508 299.269C94.1582 298.416 92.9112 298.226 92.2551 299.06C91.2217 300.225 90.2148 301.831 90.6581 302.598C91.2983 303.707 99.2904 317.747 100.262 319.233C100.804 320.172 102.635 319.797 104.062 319.314Z" fill="black"/>
<path d="M194.954 289.586L188.129 293.527L149.652 314.945C150.105 315.139 150.387 315.431 150.584 315.772C151.162 316.576 151.327 317.846 150.415 318.827L137.807 330.087C137.443 330.639 136.98 331.019 136.468 331.315C134.421 332.497 131.73 331.776 130.548 329.728C129.858 328.534 129.779 327.215 130.238 326.04L122.646 330.423L122.561 330.473C123.995 331.578 127.107 333.421 132.118 333.827C135.577 334.105 140.896 332.285 146.769 328.667C147.963 327.977 149.367 327.849 150.628 328.258C151.937 328.754 152.883 329.8 153.267 331.057C154.036 333.57 155.632 338.108 155.632 338.108C159.438 344.897 165.436 341.889 166.167 341.58C166.899 341.271 174.016 337.049 174.698 336.655C176.745 335.473 177.667 333.917 178.05 332.217C178.601 329.624 173.993 318.294 173.993 318.294L191.993 307.902C191.553 307.929 187.691 307.543 187.691 307.543C186.847 307.461 185.932 307.648 185.164 308.091L162.046 321.439C159.231 323.064 158.328 323.471 158.385 325.145C158.375 325.719 158.464 326.464 158.651 327.38L166.841 322.651L172.471 319.401C172.471 319.401 177.039 330.071 176.377 332.273C175.859 333.937 174.691 335.067 173.326 335.855C172.729 336.199 166.551 339.88 165.904 340.14C165.258 340.399 159.148 343.017 157.096 337.491C155.723 333.734 154.862 329.681 154.862 329.681L157.591 328.105C157.355 327.104 157.571 326.297 157.443 324.893C157.373 322.999 158.006 322.52 161.504 320.5C169.437 315.92 184.671 307.238 184.671 307.238C185.61 306.697 186.745 306.496 187.808 306.565L190.877 306.954C192.967 307.226 194.893 306.228 195.887 304.403C196.045 304.084 196.117 303.815 196.189 303.546L196.542 300.612C196.719 299.145 197.519 297.773 198.799 297.035L237.479 274.589L233.243 267.252L194.954 289.586ZM193.571 305.513C192.632 306.054 191.421 305.73 190.879 304.792C190.338 303.853 190.662 302.642 191.601 302.1C192.539 301.559 193.75 301.883 194.292 302.822C194.833 303.76 194.509 304.971 193.571 305.513Z" fill="black"/>
<path d="M118.811 330.478L116.742 326.895C115.954 325.53 114.254 325.147 112.974 325.885L73.0507 348.935C71.6858 349.723 71.3024 351.423 72.0412 352.703L73.7157 355.603L118.811 330.478Z" fill="black"/>
<path d="M200.686 298.334C199.662 298.925 199.104 299.929 199 301.127L198.732 304.012C198.686 304.72 198.335 305.492 197.886 306.092C197.886 306.092 197.8 306.142 197.849 306.227L212.921 332.331C214.103 334.378 216.866 334.83 218.582 333.271L239.247 315.084C239.831 314.519 239.998 313.627 239.604 312.944L229.458 295.371C228.227 293.238 227.507 290.81 227.178 288.27C227.024 286.426 226.308 284.792 225.766 283.854L200.686 298.334ZM237.127 313.578L216.192 331.693L216.107 331.743C215.936 331.841 215.667 331.769 215.483 331.648C215.25 331.441 215.322 331.172 215.529 330.939L236.463 312.824C236.719 312.676 236.939 312.663 237.172 312.87C237.32 313.126 237.248 313.395 237.127 313.578ZM236.092 311.787L215.158 329.902L215.073 329.951C214.902 330.05 214.633 329.977 214.449 329.856C214.216 329.649 214.288 329.38 214.495 329.147L235.429 311.032C235.685 310.885 235.905 310.871 236.138 311.078C236.286 311.334 236.263 311.689 236.092 311.787ZM235.107 310.081L214.173 328.196L214.088 328.245C213.917 328.343 213.648 328.271 213.464 328.15C213.231 327.943 213.303 327.674 213.51 327.441L234.444 309.326C234.7 309.179 234.92 309.165 235.153 309.372C235.301 309.628 235.278 309.982 235.107 310.081Z" fill="black"/>
<path d="M164.276 325.497L160.949 327.418C161.117 329.482 162.378 332.849 164.561 334.66C166.977 336.677 168.979 336.204 169.76 335.98C169.93 335.882 169.917 335.662 169.783 335.626C167.603 334.609 166.267 333.675 164.508 330.823C163.424 328.947 163.781 326.807 164.276 325.497Z" fill="black"/>
<path d="M233.154 252.518C233.154 252.518 231.092 250.524 229.13 251.656C227.083 252.838 227.779 255.621 227.779 255.621L238.467 274.133C240.41 274.148 242.969 272.671 243.927 270.98L233.154 252.518Z" fill="black"/>
<path d="M315.352 205.174L234.055 252.111L244.792 270.708C246.803 269.661 251.557 267.257 251.935 266.926C254.392 264.483 258.434 261.24 262.112 258.547C265.789 255.855 317.426 226.498 325.153 222.15L315.352 205.174ZM275.657 243.789L269.259 247.483C268.491 247.926 267.549 247.674 267.106 246.906C266.662 246.138 266.915 245.196 267.683 244.753L273.995 241.108C274.763 240.665 275.705 240.917 276.148 241.685C276.592 242.453 276.339 243.395 275.657 243.789ZM274.834 237.439C274.066 237.882 273.125 237.63 272.681 236.862C272.238 236.095 272.49 235.153 273.258 234.709L279.571 231.065C280.339 230.621 281.281 230.874 281.724 231.642C282.167 232.409 281.915 233.351 281.147 233.795L274.834 237.439ZM291.865 234.431L285.467 238.125C284.699 238.568 283.757 238.316 283.314 237.548C282.871 236.78 283.123 235.838 283.891 235.395L290.204 231.75C290.971 231.307 291.913 231.56 292.357 232.327C292.8 233.095 292.547 234.037 291.865 234.431ZM291.043 228.081C290.275 228.525 289.333 228.272 288.89 227.504C288.446 226.737 288.699 225.795 289.467 225.351L295.779 221.707C296.547 221.264 297.489 221.516 297.932 222.284C298.375 223.051 298.123 223.993 297.355 224.437L291.043 228.081ZM308.073 225.073L301.675 228.767C300.908 229.21 299.966 228.958 299.522 228.19C299.079 227.422 299.331 226.48 300.099 226.037L306.412 222.393C307.18 221.949 308.122 222.202 308.565 222.969C309.008 223.737 308.756 224.679 308.073 225.073ZM313.649 215.03L307.251 218.723C306.483 219.167 305.541 218.914 305.098 218.147C304.655 217.379 304.907 216.437 305.675 215.994L311.988 212.349C312.755 211.906 313.697 212.158 314.14 212.926C314.584 213.694 314.331 214.635 313.649 215.03Z" fill="black"/>
<path d="M169.492 278.582L162.326 282.719L166.513 289.97L173.678 285.833L169.492 278.582Z" fill="black"/>
<path d="M468.035 127.031L471.187 132.491L472.638 131.654L469.485 126.194L468.035 127.031Z" fill="black"/>
<path d="M215.122 233.696L211.283 235.912L218.77 248.879L222.608 246.662L215.122 233.696Z" fill="black"/>
<path d="M127.82 318.109C127.394 318.356 127.25 318.894 127.496 319.32L128.58 321.197C128.826 321.624 129.364 321.768 129.791 321.522L130.046 321.374C130.473 321.128 130.617 320.59 130.371 320.163L129.287 318.286C129.041 317.86 128.503 317.715 128.076 317.962L127.82 318.109Z" fill="black"/>
<path d="M159.668 295.059L145.934 302.988L148.642 307.68L162.377 299.751L159.668 295.059Z" fill="black"/>
<path d="M119.719 323.583C119.647 323.852 119.661 324.072 119.674 324.291L126.839 320.154L126.593 319.728C126.101 318.875 126.34 317.713 127.278 317.171L127.534 317.023C128.387 316.531 129.549 316.77 130.091 317.708L130.337 318.135L144.413 310.008L141.704 305.317L122.766 316.25C121.657 316.891 120.794 317.958 120.433 319.303C120.109 320.514 119.883 321.896 119.719 323.583Z" fill="black"/>
<path d="M164.3 259.74L171.807 255.405L173.428 254.47L170.424 249.266L159.078 255.816L162.082 261.02L164.3 259.74Z" fill="black"/>
<path d="M102.556 299.37L109.353 311.143L109.698 311.74C109.698 311.74 124.114 303.416 126.332 302.136L118.354 288.316L101.719 297.92L102.556 299.37Z" fill="black"/>
<path d="M134.667 296.867L135.605 296.325C136.287 295.931 136.871 295.367 137.222 294.595C138.14 292.246 141.49 289.97 143.839 287.932C146.018 285.991 153.636 282.048 156.159 280.705L151.678 272.942C149.168 274.505 141.49 278.937 138.455 280.576C135.846 281.968 131.925 282.071 130.117 282.091C129.408 282.046 128.762 282.305 128.164 282.65L126.885 283.389L134.667 296.867Z" fill="black"/>
<path d="M174.943 254.731L150.375 268.916L158.846 283.589L198.088 260.933L191.242 249.075L189.877 249.863C188.597 250.602 187.107 250.78 185.762 250.419L183.474 249.806L174.943 254.731Z" fill="black"/>
<path d="M127.319 301.678C128.93 301.316 132.776 300.688 133.714 300.147C134.823 299.506 133.727 297.41 133.727 297.41L133.812 297.36L125.981 283.797L125.895 283.846C124.503 281.237 122.489 284.448 122.489 284.448L119.242 287.688L127.319 301.678Z" fill="black"/>
<path d="M423.127 131.007C423.127 131.007 429.474 140.423 428.133 143.814C426.778 146.984 428.069 148.628 428.069 148.628L437.964 142.915L429.099 127.56L423.127 131.007ZM435.04 141.987C435.336 142.499 435.106 143.086 434.679 143.333L432.717 144.465C432.206 144.761 431.618 144.531 431.372 144.105L430.584 142.74C430.288 142.228 430.518 141.641 430.944 141.394L432.906 140.262C433.418 139.966 434.006 140.196 434.252 140.622L435.04 141.987Z" fill="black"/>
<path d="M150.173 330.228C149.451 329.963 148.657 329.966 148.024 330.446C143.552 333.141 137.213 336.346 132.152 335.856C125.809 335.31 122.169 332.748 120.905 331.544L119.881 332.135L74.7863 357.261L74.8356 357.346C74.8356 357.346 40.988 375.75 38.9767 376.798C37.3198 377.868 38.2855 380.723 42.9371 385.431C47.5527 390.273 50.1173 395.503 54.645 402.557C59.2219 409.696 58.973 411.432 61.0284 414.795C62.3943 416.964 65.1865 415.693 66.0757 415.066C68.2805 413.566 131.513 367.845 131.513 367.845C131.513 367.845 131.921 371.704 134.271 372.623C136.706 373.491 151.318 367.672 153.778 366.024C156.239 364.375 152.214 360.557 151.252 358.496C150.29 356.436 147.104 345.991 150.138 341.396C150.83 340.428 152.451 339.492 153.829 338.924C153.234 337.106 152.403 334.287 151.585 331.688C151.46 331.078 150.895 330.494 150.173 330.228ZM73.3376 383.12C74.6674 385.424 73.8741 388.384 71.5709 389.714L65.3435 393.309C63.0402 394.639 60.0799 393.846 58.7501 391.542L53.9234 383.182C52.5936 380.879 53.3868 377.919 55.6901 376.589L61.9175 372.994C64.2208 371.664 67.181 372.457 68.5109 374.76L73.3376 383.12ZM124.446 364.077L100.816 377.72C98.2571 379.197 94.9784 378.247 93.5009 375.688L87.5414 365.365C86.0638 362.806 87.0144 359.528 89.4883 358.099L118.834 341.157C122.673 338.94 127.651 340.274 129.868 344.113C131.887 347.611 132.259 351.604 131.286 355.237C130.263 358.785 127.944 362.058 124.446 364.077ZM144.956 341.089L148.795 360.939C149.094 362.245 148.465 363.518 147.356 364.158C147.185 364.257 147.014 364.355 146.709 364.418L139.438 366.796C138.572 367.069 137.594 366.951 136.809 366.38C136.025 365.809 135.532 364.956 135.479 364.077L134.383 342.871C134.34 341.417 135.275 340.081 136.8 339.769L141.329 338.747C142.11 338.524 143.002 338.691 143.738 339.176C144.338 339.626 144.818 340.259 144.956 341.089Z" fill="black"/>
<path d="M141.514 339.662L136.986 340.684C136.766 340.697 136.595 340.796 136.425 340.894C135.742 341.288 135.342 341.974 135.346 342.768L136.393 363.889C136.432 364.548 136.777 365.146 137.329 365.51C137.88 365.874 138.504 365.969 139.114 365.844L146.385 363.466C147.337 363.144 147.98 362.09 147.743 361.089L143.904 341.24C143.828 340.715 143.447 340.252 143.03 339.924C142.614 339.596 142.039 339.586 141.514 339.662Z" fill="black"/>
</svg>
