<svg width="512" height="160" viewBox="0 0 512 160" fill="none" xmlns="http://www.w3.org/2000/svg">
<path d="M115.234 85.1924C117.105 85.1924 118.583 83.7149 118.583 81.8433C118.583 79.9717 117.105 78.4941 115.234 78.4941C113.362 78.4941 111.885 79.9717 111.885 81.8433C111.885 83.7149 113.362 85.1924 115.234 85.1924Z" fill="black"/>
<path d="M119.469 81.8433C119.469 82.8283 119.174 83.7149 118.583 84.4044L133.162 81.3508C133.95 81.1537 134.147 80.3657 134.048 79.7747C133.95 79.1837 133.654 78.5926 132.866 78.4941H117.795C118.878 79.2822 119.469 80.5627 119.469 81.8433Z" fill="black"/>
<path d="M340.907 73.8633H338.346V79.872H340.907V73.8633Z" fill="black"/>
<path d="M184.187 78.1977C183.596 77.6066 183.202 76.7201 183.202 75.8336C183.202 74.6515 183.497 73.568 183.99 72.5829H173.942V65.7862C173.942 64.9981 173.253 64.3086 172.465 64.3086C171.677 64.3086 170.987 64.9981 170.987 65.7862V72.5829H157.295V65.7862C157.295 64.9981 156.606 64.3086 155.817 64.3086C155.029 64.3086 154.34 64.9981 154.34 65.7862V72.5829H136.511V65.7862C136.511 64.9981 135.821 64.3086 135.033 64.3086C134.245 64.3086 133.556 64.9981 133.556 65.7862V72.5829H116.317V73.371C116.317 74.356 115.529 75.2425 114.446 75.2425H114.15C113.165 75.2425 112.279 74.4545 112.279 73.371V72.6814H103.413C102.625 74.356 102.625 75.8336 102.822 76.8186L102.921 77.1141C102.921 77.3111 103.019 77.5081 103.019 77.6066H115.135H132.965L184.187 78.1977Z" fill="black"/>
<path d="M177.39 89.0352C176.7 89.0352 176.109 89.6262 176.109 90.3157C176.109 91.0052 176.7 91.5963 177.39 91.5963C178.079 91.5963 178.67 91.0052 178.67 90.3157C178.67 89.6262 178.079 89.0352 177.39 89.0352Z" fill="black"/>
<path d="M366.125 71.5981H367.8V74.9472H366.716V79.8724H375.877V74.6517H374.301L369.376 67.4609H366.125V71.5981Z" fill="black"/>
<path d="M204.578 59.6797H192.758V65.2944H204.578V59.6797Z" fill="black"/>
<path d="M226.543 40.8652H204.479V55.8378H226.543V40.8652Z" fill="black"/>
<path d="M503.34 75.6367H502.158V80.5619H503.34V75.6367Z" fill="black"/>
<path d="M229.991 78.1008C229.991 78.0023 229.991 78.0023 229.892 77.9038L216.397 70.0235C215.708 69.6295 214.821 69.334 213.935 69.334H190.491C186.945 69.334 184.088 72.1906 184.088 75.7367C184.088 77.0173 185.171 78.1008 186.452 78.1008H229.794C229.892 78.1008 229.991 78.1008 229.991 78.1008Z" fill="black"/>
<path d="M203.396 56.8223H193.939V58.6938H203.396V56.8223Z" fill="black"/>
<path d="M174.928 66.2793V71.697H184.581C185.96 69.8254 188.127 68.5449 190.59 68.5449H214.034C215.019 68.5449 216.102 68.8404 216.989 69.3329L230.878 77.6073V66.2793H174.928Z" fill="black"/>
<path d="M187.734 62.043H178.869V65.1951H187.734V62.043Z" fill="black"/>
<path d="M169.904 66.2793H158.182V71.697H169.904V66.2793Z" fill="black"/>
<path d="M186.551 56.9219H180.148V61.059H186.551V56.9219Z" fill="black"/>
<path d="M372.133 80.8574H368.291V85.1916H372.133V80.8574Z" fill="black"/>
<path d="M377.059 74.6523V79.8731H457.733V74.6523H456.847H377.059Z" fill="black"/>
<path d="M471.228 74.6523H458.816V79.8731H472.41V74.6523H471.228Z" fill="black"/>
<path d="M367.207 80.8574H341.399H340.907H338.346V84.3051H367.207V80.8574Z" fill="black"/>
<path d="M364.843 66.6738H346.521V72.4856H364.843V66.6738Z" fill="black"/>
<path d="M345.241 67.6582H338.346V71.7954H345.241V67.6582Z" fill="black"/>
<path d="M457.733 80.8574H373.217V84.5021H457.733V80.8574Z" fill="black"/>
<path d="M459.704 80.8574H458.719V85.1916H459.704V80.8574Z" fill="black"/>
<path d="M365.632 74.9473H341.893V79.8725H365.632V74.9473Z" fill="black"/>
<path d="M498.809 73.3711H496.051V82.729H498.809V73.3711Z" fill="black"/>
<path d="M501.174 74.9473H499.795V81.2515H501.174V74.9473Z" fill="black"/>
<path d="M472.409 80.8574H460.688V84.5021H472.409V80.8574Z" fill="black"/>
<path d="M477.138 73.3711H473.395V84.502H477.138V73.3711Z" fill="black"/>
<path d="M494.967 75.0469H478.123V81.0556H494.967V75.0469Z" fill="black"/>
<path d="M337.065 67.166H334.307V85.0937H337.065V67.166Z" fill="black"/>
<path d="M98.6855 54.2613V54.7539C98.6855 55.2464 99.0796 55.7389 99.6706 55.7389C100.262 55.7389 100.656 55.2464 100.656 54.7539V54.2613V40.8648V40.7663C100.656 40.2738 100.163 39.7812 99.6706 39.7812C99.1781 39.7812 98.6855 40.1753 98.6855 40.7663V41.4558V54.2613Z" fill="black"/>
<path d="M95.7305 54.7539C95.7305 55.2464 96.223 55.7389 96.7155 55.7389C97.3065 55.7389 97.7005 55.2464 97.7005 54.7539V54.2613V40.8648V40.7663C97.7005 40.2738 97.208 39.7812 96.7155 39.7812C96.223 39.7812 95.7305 40.1753 95.7305 40.7663V41.4558V54.7539Z" fill="black"/>
<path d="M92.9721 59.4812C93.9572 59.6782 94.8437 58.9886 94.8437 58.0036V55.0485V41.4549V37.4163C94.8437 36.4312 93.8587 35.6432 92.8736 36.0372C91.3961 36.5297 89.7215 37.4163 89.7215 38.3028C89.7215 39.5834 89.623 55.738 89.7215 57.5111C89.7215 58.5946 91.4946 59.1857 92.9721 59.4812Z" fill="black"/>
<path d="M186.551 79.1826H178.671L134.64 78.493C134.935 78.8871 135.034 79.2811 135.034 79.6751C135.132 80.6601 134.64 81.8422 133.359 82.2362L116.811 85.6838C116.22 85.9793 115.629 86.0778 115.038 86.0778C112.673 86.0778 110.703 84.1078 110.703 81.7437C110.703 80.3646 111.294 79.1826 112.279 78.3945H103.513H103.414C104.104 80.0691 105.877 83.2212 110.014 86.0778C112.87 88.0479 118.387 89.1315 125.282 88.9345C126.661 88.9345 127.942 89.5255 128.828 90.5105C129.715 91.5941 130.01 92.9731 129.715 94.2537C129.124 96.8148 128.237 101.543 128.237 101.543C128.139 109.325 134.837 109.719 135.625 109.817C136.413 109.916 144.687 109.817 145.475 109.817C147.839 109.817 149.415 108.931 150.597 107.65C152.371 105.68 154.045 93.5641 154.045 93.5641H174.829C174.435 93.3671 171.283 91.1015 171.283 91.1015C170.594 90.609 169.707 90.3135 168.821 90.3135H142.126C138.875 90.3135 137.89 90.215 137.102 91.6926C136.807 92.1851 136.511 92.8746 136.216 93.7612H145.672H152.174C152.174 93.7612 150.794 105.286 149.12 106.862C147.839 108.044 146.263 108.438 144.687 108.438C143.998 108.438 136.807 108.537 136.117 108.438C135.428 108.34 128.828 107.552 129.813 101.74C130.503 97.7998 131.783 93.8597 131.783 93.8597H134.935C135.231 92.8746 135.822 92.2836 136.413 91.003C137.299 89.3285 138.087 89.23 142.126 89.23C151.287 89.23 168.821 89.3285 168.821 89.3285C169.904 89.3285 170.988 89.7225 171.874 90.3135L174.337 92.1851C176.012 93.4656 178.179 93.5641 179.952 92.4806C180.247 92.2836 180.444 92.0866 180.641 91.8896L182.414 89.5255C183.301 88.3434 184.68 87.5554 186.157 87.5554L230.878 87.4569V78.9856L186.551 79.1826ZM177.391 92.2836C176.307 92.2836 175.42 91.3971 175.42 90.3135C175.42 89.23 176.307 88.3434 177.391 88.3434C178.474 88.3434 179.361 89.23 179.361 90.3135C179.361 91.3971 178.474 92.2836 177.391 92.2836Z" fill="black"/>
<path d="M100.163 76.5242V72.387C100.163 70.811 98.8824 69.6289 97.4049 69.6289H51.305C49.7289 69.6289 48.5469 70.9095 48.5469 72.387V75.7362L100.163 76.5242Z" fill="black"/>
<path d="M187.143 89.625C185.961 89.625 184.976 90.216 184.286 91.2011L182.612 93.5652C182.218 94.1562 181.528 94.6487 180.839 94.9442C180.839 94.9442 180.74 94.9442 180.74 95.0427V125.185C180.74 127.549 182.907 129.322 185.173 128.83L212.163 123.412C212.951 123.215 213.542 122.525 213.542 121.737V101.445C213.542 98.9829 214.133 96.5203 215.118 94.1562C215.906 92.4816 216.103 90.7085 216.103 89.625H187.143ZM211.079 121.048L183.892 126.268H183.794C183.597 126.268 183.4 126.071 183.301 125.874C183.203 125.579 183.4 125.382 183.695 125.283L210.882 120.063C211.178 120.063 211.375 120.161 211.473 120.457C211.473 120.752 211.276 120.949 211.079 121.048ZM211.079 118.979L183.892 124.2H183.794C183.597 124.2 183.4 124.003 183.301 123.806C183.203 123.51 183.4 123.313 183.695 123.215L210.882 117.994C211.178 117.994 211.375 118.093 211.473 118.388C211.473 118.684 211.276 118.979 211.079 118.979ZM211.079 117.009L183.892 122.23H183.794C183.597 122.23 183.4 122.033 183.301 121.836C183.203 121.54 183.4 121.343 183.695 121.245L210.882 116.024C211.178 116.024 211.375 116.123 211.473 116.418C211.473 116.714 211.276 117.009 211.079 117.009Z" fill="black"/>
<path d="M142.027 94.9453H138.185C137.299 96.8169 136.708 100.363 137.693 103.023C138.776 105.978 140.746 106.569 141.534 106.766C141.731 106.766 141.83 106.569 141.731 106.47C140.352 104.5 139.663 103.023 139.564 99.6735C139.564 97.5064 140.943 95.8318 142.027 94.9453Z" fill="black"/>
<path d="M238.167 66.1819C238.167 66.1819 237.379 63.4238 235.113 63.4238C232.749 63.4238 231.961 66.1819 231.961 66.1819V87.5573C233.636 88.5423 236.591 88.5423 238.265 87.5573L238.167 66.1819Z" fill="black"/>
<path d="M333.027 66.2793H239.152V87.7532C241.418 87.8517 246.737 88.1472 247.23 88.0487C250.579 87.1622 255.701 86.3741 260.232 85.8816C264.763 85.3891 324.161 85.7831 333.027 85.8816V66.2793ZM279.342 79.8729H271.954C271.068 79.8729 270.378 79.1833 270.378 78.2968C270.378 77.4103 271.068 76.7207 271.954 76.7207H279.243C280.13 76.7207 280.82 77.4103 280.82 78.2968C280.82 79.1833 280.13 79.8729 279.342 79.8729ZM281.805 73.9626C280.918 73.9626 280.229 73.2731 280.229 72.3865C280.229 71.5 280.918 70.8105 281.805 70.8105H289.094C289.98 70.8105 290.67 71.5 290.67 72.3865C290.67 73.2731 289.98 73.9626 289.094 73.9626H281.805ZM298.058 79.8729H290.67C289.783 79.8729 289.094 79.1833 289.094 78.2968C289.094 77.4103 289.783 76.7207 290.67 76.7207H297.959C298.846 76.7207 299.535 77.4103 299.535 78.2968C299.535 79.1833 298.846 79.8729 298.058 79.8729ZM300.52 73.9626C299.634 73.9626 298.944 73.2731 298.944 72.3865C298.944 71.5 299.634 70.8105 300.52 70.8105H307.81C308.696 70.8105 309.386 71.5 309.386 72.3865C309.386 73.2731 308.696 73.9626 307.81 73.9626H300.52ZM316.773 79.8729H309.386C308.499 79.8729 307.81 79.1833 307.81 78.2968C307.81 77.4103 308.499 76.7207 309.386 76.7207H316.675C317.562 76.7207 318.251 77.4103 318.251 78.2968C318.251 79.1833 317.562 79.8729 316.773 79.8729ZM326.624 73.9626H319.236C318.35 73.9626 317.66 73.2731 317.66 72.3865C317.66 71.5 318.35 70.8105 319.236 70.8105H326.525C327.412 70.8105 328.101 71.5 328.101 72.3865C328.101 73.2731 327.412 73.9626 326.624 73.9626Z" fill="black"/>
<path d="M170.003 56.9219H161.729V65.2947H170.003V56.9219Z" fill="black"/>
<path d="M504.326 74.9473V81.2515H506.001V74.9473H504.326Z" fill="black"/>
<path d="M231.962 40.8652H227.529V55.8378H231.962V40.8652Z" fill="black"/>
<path d="M114.15 70.3184C113.658 70.3184 113.264 70.7124 113.264 71.2049V73.372C113.264 73.8645 113.658 74.2585 114.15 74.2585H114.446C114.938 74.2585 115.332 73.8645 115.332 73.372V71.2049C115.332 70.7124 114.938 70.3184 114.446 70.3184H114.15Z" fill="black"/>
<path d="M153.258 66.2793H137.398V71.697H153.258V66.2793Z" fill="black"/>
<path d="M104.4 71.0083C104.203 71.2053 104.104 71.4024 104.006 71.5994H112.28V71.1068C112.28 70.1218 113.068 69.2353 114.152 69.2353H114.447C115.432 69.2353 116.319 70.0233 116.319 71.1068V71.5994H132.572V66.1816H110.704C109.424 66.1816 108.143 66.6742 107.158 67.6592C106.271 68.5457 105.385 69.6293 104.4 71.0083Z" fill="black"/>
<path d="M174.928 38.0087H183.597H185.468V32H172.367V38.0087H174.928Z" fill="black"/>
<path d="M101.641 41.4558V55.0494V55.7389C101.641 55.7389 118.288 55.7389 120.849 55.7389V39.7812H101.641V41.4558Z" fill="black"/>
<path d="M130.699 55.3449H131.783C132.571 55.3449 133.359 55.1479 134.048 54.6554C136.018 53.0793 140.057 52.7838 143.111 52.1928C145.967 51.6017 154.537 51.9958 157.394 52.0943V43.1304C154.439 43.2289 145.573 43.2289 142.126 43.1304C139.171 43.0319 135.723 41.1603 134.147 40.2738C133.556 39.8798 132.866 39.7812 132.177 39.7812H130.699V55.3449Z" fill="black"/>
<path d="M186.65 38.9941H158.281V55.9368H203.593V42.2448H202.017C200.539 42.2448 199.16 41.6537 198.175 40.6687L196.501 38.9941H186.65Z" fill="black"/>
<path d="M121.934 55.8388C123.51 56.3314 127.154 57.7104 128.238 57.7104C129.518 57.7104 129.617 55.3463 129.617 55.3463H129.715V39.6842H129.617C129.715 36.7291 126.366 38.5021 126.366 38.5021L121.934 39.6842V55.8388Z" fill="black"/>
<path d="M463.447 55.9355C463.447 55.9355 464.235 67.2635 461.378 69.5291C458.62 71.5977 458.915 73.6663 458.915 73.6663H470.342V55.9355H463.447ZM468.273 71.4007C468.273 71.9917 467.781 72.3857 467.288 72.3857H465.023C464.432 72.3857 464.038 71.8932 464.038 71.4007V69.8246C464.038 69.2336 464.53 68.8396 465.023 68.8396H467.288C467.879 68.8396 468.273 69.3321 468.273 69.8246V71.4007Z" fill="black"/>
<path d="M127.449 91.9888C126.957 91.3978 126.267 91.0038 125.479 91.1023C120.258 91.2008 113.166 90.8068 109.029 87.8517C103.808 84.207 101.937 80.1683 101.444 78.4938H100.262L48.6459 77.7057V77.8042C48.6459 77.8042 10.1309 76.8192 7.86528 76.7207C5.8952 76.8192 5.30417 79.7743 6.97874 86.1771C8.55481 92.6784 8.16079 98.4901 8.55481 106.863C8.94882 115.334 7.86528 116.713 7.96378 120.654C8.06229 123.215 11.1159 123.51 12.1995 123.412C14.8591 123.215 92.4802 115.236 92.4802 115.236C92.4802 115.236 90.9042 118.782 92.4802 120.752C94.1548 122.722 109.718 124.988 112.674 124.791C115.629 124.594 114.053 119.274 114.25 117.009C114.447 114.743 116.909 104.105 121.834 101.642C122.918 101.15 124.79 101.15 126.267 101.347C126.661 99.4751 127.351 96.6185 127.942 93.9589C128.139 93.3679 127.942 92.5799 127.449 91.9888ZM34.4614 99.3766C34.4614 102.036 32.2943 104.203 29.6347 104.203H22.4439C19.7843 104.203 17.6172 102.036 17.6172 99.3766V89.7232C17.6172 87.0636 19.7843 84.8965 22.4439 84.8965H29.6347C32.2943 84.8965 34.4614 87.0636 34.4614 89.7232V99.3766ZM88.2445 108.439H60.9589C58.0038 108.439 55.6397 105.976 55.6397 103.021V91.1023C55.6397 88.1472 58.1023 85.7831 60.9589 85.7831H94.8443C99.277 85.7831 102.922 89.4277 102.922 93.8604C102.922 97.8991 101.247 101.544 98.5875 104.203C95.9279 106.764 92.2832 108.439 88.2445 108.439ZM117.5 98.7856L110.9 117.895C110.506 119.176 109.324 119.964 108.044 119.964C107.847 119.964 107.65 119.964 107.354 119.865L99.868 118.289C98.9815 118.092 98.1934 117.501 97.7994 116.615C97.4054 115.728 97.4054 114.743 97.7994 113.955L107.453 95.0425C108.142 93.7619 109.62 93.0724 111.097 93.5649L115.53 94.944C116.318 95.141 117.008 95.732 117.402 96.52C117.697 97.2095 117.796 97.9976 117.5 98.7856Z" fill="black"/>
<path d="M115.235 95.8311L110.802 94.452C110.605 94.3535 110.408 94.3535 110.211 94.3535C109.423 94.3535 108.734 94.7475 108.34 95.4371L98.6865 114.251C98.391 114.842 98.391 115.532 98.6865 116.123C98.982 116.714 99.4745 117.108 100.066 117.305L107.552 118.881C108.537 119.078 109.62 118.487 109.916 117.502L116.516 98.3922C116.713 97.8997 116.614 97.3086 116.417 96.8161C116.22 96.3236 115.728 96.0281 115.235 95.8311Z" fill="black"/>
</svg>
