<svg width="512" height="512" viewBox="0 0 512 512" fill="none" xmlns="http://www.w3.org/2000/svg">
<path d="M115.234 261.192C117.105 261.192 118.583 259.715 118.583 257.843C118.583 255.972 117.105 254.494 115.234 254.494C113.362 254.494 111.885 255.972 111.885 257.843C111.885 259.715 113.362 261.192 115.234 261.192Z" fill="black"/>
<path d="M119.469 257.843C119.469 258.828 119.174 259.715 118.583 260.404L133.162 257.351C133.95 257.154 134.147 256.366 134.048 255.775C133.95 255.184 133.654 254.593 132.866 254.494H117.795C118.878 255.282 119.469 256.563 119.469 257.843Z" fill="black"/>
<path d="M340.907 249.863H338.346V255.872H340.907V249.863Z" fill="black"/>
<path d="M184.187 254.198C183.596 253.607 183.202 252.72 183.202 251.834C183.202 250.652 183.497 249.568 183.99 248.583H173.942V241.786C173.942 240.998 173.253 240.309 172.465 240.309C171.677 240.309 170.987 240.998 170.987 241.786V248.583H157.295V241.786C157.295 240.998 156.606 240.309 155.817 240.309C155.029 240.309 154.34 240.998 154.34 241.786V248.583H136.511V241.786C136.511 240.998 135.821 240.309 135.033 240.309C134.245 240.309 133.556 240.998 133.556 241.786V248.583H116.317V249.371C116.317 250.356 115.529 251.243 114.446 251.243H114.15C113.165 251.243 112.279 250.455 112.279 249.371V248.681H103.413C102.625 250.356 102.625 251.834 102.822 252.819L102.921 253.114C102.921 253.311 103.019 253.508 103.019 253.607H115.135H132.965L184.187 254.198Z" fill="black"/>
<path d="M177.39 265.035C176.7 265.035 176.109 265.626 176.109 266.316C176.109 267.005 176.7 267.596 177.39 267.596C178.079 267.596 178.67 267.005 178.67 266.316C178.67 265.626 178.079 265.035 177.39 265.035Z" fill="black"/>
<path d="M366.125 247.598H367.8V250.947H366.716V255.872H375.877V250.652H374.301L369.376 243.461H366.125V247.598Z" fill="black"/>
<path d="M204.578 235.68H192.758V241.294H204.578V235.68Z" fill="black"/>
<path d="M226.543 216.865H204.479V231.838H226.543V216.865Z" fill="black"/>
<path d="M503.34 251.637H502.158V256.562H503.34V251.637Z" fill="black"/>
<path d="M229.991 254.101C229.991 254.002 229.991 254.002 229.892 253.904L216.397 246.024C215.708 245.629 214.821 245.334 213.935 245.334H190.491C186.945 245.334 184.088 248.191 184.088 251.737C184.088 253.017 185.171 254.101 186.452 254.101H229.794C229.892 254.101 229.991 254.101 229.991 254.101Z" fill="black"/>
<path d="M203.396 232.822H193.939V234.694H203.396V232.822Z" fill="black"/>
<path d="M174.928 242.279V247.697H184.581C185.96 245.825 188.127 244.545 190.59 244.545H214.034C215.019 244.545 216.102 244.84 216.989 245.333L230.878 253.607V242.279H174.928Z" fill="black"/>
<path d="M187.734 238.043H178.869V241.195H187.734V238.043Z" fill="black"/>
<path d="M169.904 242.279H158.182V247.697H169.904V242.279Z" fill="black"/>
<path d="M186.551 232.922H180.148V237.059H186.551V232.922Z" fill="black"/>
<path d="M372.133 256.857H368.291V261.192H372.133V256.857Z" fill="black"/>
<path d="M377.059 250.652V255.873H457.733V250.652H456.847H377.059Z" fill="black"/>
<path d="M471.228 250.652H458.816V255.873H472.41V250.652H471.228Z" fill="black"/>
<path d="M367.207 256.857H341.399H340.907H338.346V260.305H367.207V256.857Z" fill="black"/>
<path d="M364.843 242.674H346.521V248.486H364.843V242.674Z" fill="black"/>
<path d="M345.241 243.658H338.346V247.795H345.241V243.658Z" fill="black"/>
<path d="M457.733 256.857H373.217V260.502H457.733V256.857Z" fill="black"/>
<path d="M459.704 256.857H458.719V261.192H459.704V256.857Z" fill="black"/>
<path d="M365.632 250.947H341.893V255.872H365.632V250.947Z" fill="black"/>
<path d="M498.809 249.371H496.051V258.729H498.809V249.371Z" fill="black"/>
<path d="M501.174 250.947H499.795V257.252H501.174V250.947Z" fill="black"/>
<path d="M472.409 256.857H460.688V260.502H472.409V256.857Z" fill="black"/>
<path d="M477.138 249.371H473.395V260.502H477.138V249.371Z" fill="black"/>
<path d="M494.967 251.047H478.123V257.056H494.967V251.047Z" fill="black"/>
<path d="M337.065 243.166H334.307V261.094H337.065V243.166Z" fill="black"/>
<path d="M98.6855 230.261V230.754C98.6855 231.246 99.0796 231.739 99.6706 231.739C100.262 231.739 100.656 231.246 100.656 230.754V230.261V216.865V216.766C100.656 216.274 100.163 215.781 99.6706 215.781C99.1781 215.781 98.6855 216.175 98.6855 216.766V217.456V230.261Z" fill="black"/>
<path d="M95.7305 230.754C95.7305 231.246 96.223 231.739 96.7155 231.739C97.3065 231.739 97.7005 231.246 97.7005 230.754V230.261V216.865V216.766C97.7005 216.274 97.208 215.781 96.7155 215.781C96.223 215.781 95.7305 216.175 95.7305 216.766V217.456V230.754Z" fill="black"/>
<path d="M92.9721 235.481C93.9572 235.678 94.8437 234.989 94.8437 234.004V231.048V217.455V213.416C94.8437 212.431 93.8587 211.643 92.8736 212.037C91.3961 212.53 89.7215 213.416 89.7215 214.303C89.7215 215.583 89.623 231.738 89.7215 233.511C89.7215 234.595 91.4946 235.186 92.9721 235.481Z" fill="black"/>
<path d="M186.551 255.183H178.671L134.64 254.493C134.935 254.887 135.034 255.281 135.034 255.675C135.132 256.66 134.64 257.842 133.359 258.236L116.811 261.684C116.22 261.979 115.629 262.078 115.038 262.078C112.673 262.078 110.703 260.108 110.703 257.744C110.703 256.365 111.294 255.183 112.279 254.395H103.513H103.414C104.104 256.069 105.877 259.221 110.014 262.078C112.87 264.048 118.387 265.131 125.282 264.934C126.661 264.934 127.942 265.525 128.828 266.511C129.715 267.594 130.01 268.973 129.715 270.254C129.124 272.815 128.237 277.543 128.237 277.543C128.139 285.325 134.837 285.719 135.625 285.817C136.413 285.916 144.687 285.817 145.475 285.817C147.839 285.817 149.415 284.931 150.597 283.65C152.371 281.68 154.045 269.564 154.045 269.564H174.829C174.435 269.367 171.283 267.102 171.283 267.102C170.594 266.609 169.707 266.314 168.821 266.314H142.126C138.875 266.314 137.89 266.215 137.102 267.693C136.807 268.185 136.511 268.875 136.216 269.761H145.672H152.174C152.174 269.761 150.794 281.286 149.12 282.862C147.839 284.044 146.263 284.438 144.687 284.438C143.998 284.438 136.807 284.537 136.117 284.438C135.428 284.34 128.828 283.552 129.813 277.74C130.503 273.8 131.783 269.86 131.783 269.86H134.935C135.231 268.875 135.822 268.284 136.413 267.003C137.299 265.328 138.087 265.23 142.126 265.23C151.287 265.23 168.821 265.328 168.821 265.328C169.904 265.328 170.988 265.722 171.874 266.314L174.337 268.185C176.012 269.466 178.179 269.564 179.952 268.481C180.247 268.284 180.444 268.087 180.641 267.89L182.414 265.525C183.301 264.343 184.68 263.555 186.157 263.555L230.878 263.457V254.986L186.551 255.183ZM177.391 268.284C176.307 268.284 175.42 267.397 175.42 266.314C175.42 265.23 176.307 264.343 177.391 264.343C178.474 264.343 179.361 265.23 179.361 266.314C179.361 267.397 178.474 268.284 177.391 268.284Z" fill="black"/>
<path d="M100.163 252.524V248.387C100.163 246.811 98.8824 245.629 97.4049 245.629H51.305C49.7289 245.629 48.5469 246.909 48.5469 248.387V251.736L100.163 252.524Z" fill="black"/>
<path d="M187.143 265.625C185.961 265.625 184.976 266.216 184.286 267.201L182.612 269.565C182.218 270.156 181.528 270.649 180.839 270.944C180.839 270.944 180.74 270.944 180.74 271.043V301.185C180.74 303.549 182.907 305.322 185.173 304.83L212.163 299.412C212.951 299.215 213.542 298.525 213.542 297.737V277.445C213.542 274.983 214.133 272.52 215.118 270.156C215.906 268.482 216.103 266.709 216.103 265.625H187.143ZM211.079 297.048L183.892 302.268H183.794C183.597 302.268 183.4 302.071 183.301 301.874C183.203 301.579 183.4 301.382 183.695 301.283L210.882 296.063C211.178 296.063 211.375 296.161 211.473 296.457C211.473 296.752 211.276 296.949 211.079 297.048ZM211.079 294.979L183.892 300.2H183.794C183.597 300.2 183.4 300.003 183.301 299.806C183.203 299.51 183.4 299.313 183.695 299.215L210.882 293.994C211.178 293.994 211.375 294.093 211.473 294.388C211.473 294.684 211.276 294.979 211.079 294.979ZM211.079 293.009L183.892 298.23H183.794C183.597 298.23 183.4 298.033 183.301 297.836C183.203 297.54 183.4 297.343 183.695 297.245L210.882 292.024C211.178 292.024 211.375 292.123 211.473 292.418C211.473 292.714 211.276 293.009 211.079 293.009Z" fill="black"/>
<path d="M142.027 270.945H138.185C137.299 272.817 136.708 276.363 137.693 279.023C138.776 281.978 140.746 282.569 141.534 282.766C141.731 282.766 141.83 282.569 141.731 282.47C140.352 280.5 139.663 279.023 139.564 275.674C139.564 273.506 140.943 271.832 142.027 270.945Z" fill="black"/>
<path d="M238.167 242.182C238.167 242.182 237.379 239.424 235.113 239.424C232.749 239.424 231.961 242.182 231.961 242.182V263.557C233.636 264.542 236.591 264.542 238.265 263.557L238.167 242.182Z" fill="black"/>
<path d="M333.027 242.279H239.152V263.753C241.418 263.852 246.737 264.147 247.23 264.049C250.579 263.162 255.701 262.374 260.232 261.882C264.763 261.389 324.161 261.783 333.027 261.882V242.279ZM279.342 255.873H271.954C271.068 255.873 270.378 255.183 270.378 254.297C270.378 253.41 271.068 252.721 271.954 252.721H279.243C280.13 252.721 280.82 253.41 280.82 254.297C280.82 255.183 280.13 255.873 279.342 255.873ZM281.805 249.963C280.918 249.963 280.229 249.273 280.229 248.387C280.229 247.5 280.918 246.81 281.805 246.81H289.094C289.98 246.81 290.67 247.5 290.67 248.387C290.67 249.273 289.98 249.963 289.094 249.963H281.805ZM298.058 255.873H290.67C289.783 255.873 289.094 255.183 289.094 254.297C289.094 253.41 289.783 252.721 290.67 252.721H297.959C298.846 252.721 299.535 253.41 299.535 254.297C299.535 255.183 298.846 255.873 298.058 255.873ZM300.52 249.963C299.634 249.963 298.944 249.273 298.944 248.387C298.944 247.5 299.634 246.81 300.52 246.81H307.81C308.696 246.81 309.386 247.5 309.386 248.387C309.386 249.273 308.696 249.963 307.81 249.963H300.52ZM316.773 255.873H309.386C308.499 255.873 307.81 255.183 307.81 254.297C307.81 253.41 308.499 252.721 309.386 252.721H316.675C317.562 252.721 318.251 253.41 318.251 254.297C318.251 255.183 317.562 255.873 316.773 255.873ZM326.624 249.963H319.236C318.35 249.963 317.66 249.273 317.66 248.387C317.66 247.5 318.35 246.81 319.236 246.81H326.525C327.412 246.81 328.101 247.5 328.101 248.387C328.101 249.273 327.412 249.963 326.624 249.963Z" fill="black"/>
<path d="M170.003 232.922H161.729V241.295H170.003V232.922Z" fill="black"/>
<path d="M504.326 250.947V257.252H506.001V250.947H504.326Z" fill="black"/>
<path d="M231.962 216.865H227.529V231.838H231.962V216.865Z" fill="black"/>
<path d="M114.15 246.318C113.658 246.318 113.264 246.712 113.264 247.205V249.372C113.264 249.865 113.658 250.259 114.15 250.259H114.446C114.938 250.259 115.332 249.865 115.332 249.372V247.205C115.332 246.712 114.938 246.318 114.446 246.318H114.15Z" fill="black"/>
<path d="M153.258 242.279H137.398V247.697H153.258V242.279Z" fill="black"/>
<path d="M104.4 247.008C104.203 247.205 104.104 247.402 104.006 247.599H112.28V247.107C112.28 246.122 113.068 245.235 114.152 245.235H114.447C115.432 245.235 116.319 246.023 116.319 247.107V247.599H132.572V242.182H110.704C109.424 242.182 108.143 242.674 107.158 243.659C106.271 244.546 105.385 245.629 104.4 247.008Z" fill="black"/>
<path d="M174.928 214.009H183.597H185.468V208H172.367V214.009H174.928Z" fill="black"/>
<path d="M101.641 217.456V231.049V231.739C101.641 231.739 118.288 231.739 120.849 231.739V215.781H101.641V217.456Z" fill="black"/>
<path d="M130.699 231.345H131.783C132.571 231.345 133.359 231.148 134.048 230.655C136.018 229.079 140.057 228.784 143.111 228.193C145.967 227.602 154.537 227.996 157.394 228.094V219.13C154.439 219.229 145.573 219.229 142.126 219.13C139.171 219.032 135.723 217.16 134.147 216.274C133.556 215.88 132.866 215.781 132.177 215.781H130.699V231.345Z" fill="black"/>
<path d="M186.65 214.994H158.281V231.937H203.593V218.245H202.017C200.539 218.245 199.16 217.654 198.175 216.669L196.501 214.994H186.65Z" fill="black"/>
<path d="M121.934 231.839C123.51 232.331 127.154 233.71 128.238 233.71C129.518 233.71 129.617 231.346 129.617 231.346H129.715V215.684H129.617C129.715 212.729 126.366 214.502 126.366 214.502L121.934 215.684V231.839Z" fill="black"/>
<path d="M463.447 231.936C463.447 231.936 464.235 243.264 461.378 245.529C458.62 247.598 458.915 249.666 458.915 249.666H470.342V231.936H463.447ZM468.273 247.401C468.273 247.992 467.781 248.386 467.288 248.386H465.023C464.432 248.386 464.038 247.893 464.038 247.401V245.825C464.038 245.234 464.53 244.84 465.023 244.84H467.288C467.879 244.84 468.273 245.332 468.273 245.825V247.401Z" fill="black"/>
<path d="M127.449 267.989C126.957 267.398 126.267 267.004 125.479 267.102C120.258 267.201 113.166 266.807 109.029 263.852C103.808 260.207 101.937 256.168 101.444 254.494H100.262L48.6459 253.706V253.804C48.6459 253.804 10.1309 252.819 7.86528 252.721C5.8952 252.819 5.30417 255.774 6.97874 262.177C8.55481 268.678 8.16079 274.49 8.55481 282.863C8.94882 291.334 7.86528 292.713 7.96378 296.654C8.06229 299.215 11.1159 299.51 12.1995 299.412C14.8591 299.215 92.4802 291.236 92.4802 291.236C92.4802 291.236 90.9042 294.782 92.4802 296.752C94.1548 298.722 109.718 300.988 112.674 300.791C115.629 300.594 114.053 295.274 114.25 293.009C114.447 290.743 116.909 280.105 121.834 277.642C122.918 277.15 124.79 277.15 126.267 277.347C126.661 275.475 127.351 272.619 127.942 269.959C128.139 269.368 127.942 268.58 127.449 267.989ZM34.4614 275.377C34.4614 278.036 32.2943 280.203 29.6347 280.203H22.4439C19.7843 280.203 17.6172 278.036 17.6172 275.377V265.723C17.6172 263.064 19.7843 260.897 22.4439 260.897H29.6347C32.2943 260.897 34.4614 263.064 34.4614 265.723V275.377ZM88.2445 284.439H60.9589C58.0038 284.439 55.6397 281.976 55.6397 279.021V267.102C55.6397 264.147 58.1023 261.783 60.9589 261.783H94.8443C99.277 261.783 102.922 265.428 102.922 269.86C102.922 273.899 101.247 277.544 98.5875 280.203C95.9279 282.764 92.2832 284.439 88.2445 284.439ZM117.5 274.786L110.9 293.895C110.506 295.176 109.324 295.964 108.044 295.964C107.847 295.964 107.65 295.964 107.354 295.865L99.868 294.289C98.9815 294.092 98.1934 293.501 97.7994 292.615C97.4054 291.728 97.4054 290.743 97.7994 289.955L107.453 271.042C108.142 269.762 109.62 269.072 111.097 269.565L115.53 270.944C116.318 271.141 117.008 271.732 117.402 272.52C117.697 273.21 117.796 273.998 117.5 274.786Z" fill="black"/>
<path d="M115.235 271.831L110.802 270.452C110.605 270.354 110.408 270.354 110.211 270.354C109.423 270.354 108.734 270.748 108.34 271.437L98.6865 290.251C98.391 290.842 98.391 291.532 98.6865 292.123C98.982 292.714 99.4745 293.108 100.066 293.305L107.552 294.881C108.537 295.078 109.62 294.487 109.916 293.502L116.516 274.392C116.713 273.9 116.614 273.309 116.417 272.816C116.22 272.324 115.728 272.028 115.235 271.831Z" fill="black"/>
</svg>
