<svg width="512" height="512" viewBox="0 0 512 512" fill="none" xmlns="http://www.w3.org/2000/svg">
<path d="M381.361 189.601C385.401 188.041 389.321 186.201 393.081 184.001C394.141 183.381 394.781 182.241 394.781 181.021V141.221C394.781 140.461 394.381 139.761 393.721 139.361C389.761 136.981 385.621 135.021 381.361 133.381V189.601Z" fill="black"/>
<path d="M379.359 190.38V132.6C370.819 129.58 361.819 128 352.679 128H340.359V195H352.659C361.799 195 370.819 193.4 379.359 190.38Z" fill="black"/>
<path d="M132.759 132.96V188.84C135.879 189.04 138.359 191.62 138.359 194.8C138.359 194.86 138.339 194.94 138.339 195H336.359V128H138.259C137.799 130.7 135.539 132.78 132.759 132.96Z" fill="black"/>
<path d="M130.762 189.04V132.76C128.542 132.14 126.842 130.3 126.462 128H118.362L118.002 195H126.382C126.382 194.94 126.362 194.86 126.362 194.8C126.362 192.04 128.222 189.74 130.762 189.04Z" fill="black"/>
<path d="M381.361 284.601C385.401 283.041 389.321 281.201 393.081 279.001C394.141 278.381 394.781 277.241 394.781 276.021V236.221C394.781 235.461 394.381 234.761 393.721 234.361C389.761 231.981 385.621 230.021 381.361 228.381V284.601Z" fill="black"/>
<path d="M379.359 285.38V227.6C370.819 224.58 361.819 223 352.679 223H340.359V290H352.659C361.799 290 370.819 288.4 379.359 285.38Z" fill="black"/>
<path d="M132.759 227.96V283.84C135.879 284.04 138.359 286.62 138.359 289.8C138.359 289.86 138.339 289.94 138.339 290H336.359V223H138.259C137.799 225.7 135.539 227.78 132.759 227.96Z" fill="black"/>
<path d="M130.762 284.04V227.76C128.542 227.14 126.842 225.3 126.462 223H118.362L118.002 290H126.382C126.382 289.94 126.362 289.86 126.362 289.8C126.362 287.04 128.222 284.74 130.762 284.04Z" fill="black"/>
<path d="M381.361 379.601C385.401 378.041 389.321 376.201 393.081 374.001C394.141 373.381 394.781 372.241 394.781 371.021V331.221C394.781 330.461 394.381 329.761 393.721 329.361C389.761 326.981 385.621 325.021 381.361 323.381V379.601Z" fill="black"/>
<path d="M379.359 380.38V322.6C370.819 319.58 361.819 318 352.679 318H340.359V385H352.659C361.799 385 370.819 383.4 379.359 380.38Z" fill="black"/>
<path d="M132.759 322.96V378.84C135.879 379.04 138.359 381.62 138.359 384.8C138.359 384.86 138.339 384.94 138.339 385H336.359V318H138.259C137.799 320.7 135.539 322.78 132.759 322.96Z" fill="black"/>
<path d="M130.762 379.04V322.76C128.542 322.14 126.842 320.3 126.462 318H118.362L118.002 385H126.382C126.382 384.94 126.362 384.86 126.362 384.8C126.362 382.04 128.222 379.74 130.762 379.04Z" fill="black"/>
</svg>
