<svg width="512" height="512" viewBox="0 0 512 512" fill="none" xmlns="http://www.w3.org/2000/svg">
<path d="M189.971 174.321C188.807 171.668 187.434 169.093 185.792 166.624C185.329 165.928 184.478 165.508 183.568 165.508H153.866C153.299 165.508 152.777 165.77 152.478 166.204C150.702 168.805 149.24 171.523 148.016 174.321H189.971Z" fill="black"/>
<path d="M190.552 175.635H147.433C145.179 181.243 144 187.154 144 193.156V201.247H194V193.169C194 187.167 192.806 181.243 190.552 175.635Z" fill="black"/>
<path d="M147.701 337.581H189.403C189.552 335.532 191.478 333.903 193.851 333.903C193.896 333.903 193.955 333.916 194 333.916V203.873H144V333.969C146.015 334.271 147.567 335.755 147.701 337.581Z" fill="black"/>
<path d="M189.552 338.895H147.552C147.09 340.352 145.716 341.469 144 341.718V347.038L194 347.274V341.771C193.955 341.771 193.896 341.784 193.851 341.784C191.791 341.784 190.075 340.563 189.552 338.895Z" fill="black"/>
<path d="M283.599 131.42C282.039 127.38 280.199 123.46 277.999 119.7C277.379 118.64 276.239 118 275.019 118H235.219C234.459 118 233.759 118.4 233.359 119.06C230.979 123.02 229.019 127.16 227.379 131.42H283.599Z" fill="black"/>
<path d="M284.38 133.42H226.6C223.58 141.96 222 150.96 222 160.1V172.42H289V160.12C289 150.98 287.4 141.96 284.38 133.42Z" fill="black"/>
<path d="M226.96 380.02H282.84C283.04 376.9 285.62 374.42 288.8 374.42C288.86 374.42 288.94 374.44 289 374.44V176.42H222V374.52C224.7 374.98 226.78 377.24 226.96 380.02Z" fill="black"/>
<path d="M283.04 382.02H226.76C226.14 384.24 224.3 385.94 222 386.32V394.42L289 394.78V386.4C288.94 386.4 288.86 386.42 288.8 386.42C286.04 386.42 283.74 384.56 283.04 382.02Z" fill="black"/>
<path d="M362.971 174.321C361.807 171.668 360.434 169.093 358.792 166.624C358.329 165.928 357.478 165.508 356.568 165.508H326.866C326.299 165.508 325.777 165.77 325.478 166.204C323.702 168.805 322.24 171.523 321.016 174.321H362.971Z" fill="black"/>
<path d="M363.552 175.635H320.433C318.179 181.243 317 187.154 317 193.156V201.247H367V193.169C367 187.167 365.806 181.243 363.552 175.635Z" fill="black"/>
<path d="M320.701 337.581H362.403C362.552 335.532 364.478 333.903 366.851 333.903C366.896 333.903 366.955 333.916 367 333.916V203.873H317V333.969C319.015 334.271 320.567 335.755 320.701 337.581Z" fill="black"/>
<path d="M362.552 338.895H320.552C320.09 340.352 318.716 341.469 317 341.718V347.038L367 347.274V341.771C366.955 341.771 366.896 341.784 366.851 341.784C364.791 341.784 363.075 340.563 362.552 338.895Z" fill="black"/>
</svg>
