<svg width="512" height="512" viewBox="0 0 512 512" fill="none" xmlns="http://www.w3.org/2000/svg">
<path d="M359.899 185.781C360.419 182.421 360.719 179.041 360.679 175.621C360.679 174.661 360.159 173.781 359.319 173.301L338.679 161.381C337.579 164.741 336.239 168.041 334.699 171.241L359.899 185.781Z" fill="black"/>
<path d="M318.82 199.201L347.48 215.741L352.3 207.381C355.88 201.161 358.34 194.421 359.64 187.421L334.02 172.621L318.82 199.201Z" fill="black"/>
<path d="M261.84 354.421C263.2 352.381 265.92 351.701 268.08 352.961C268.12 352.981 268.16 353.021 268.2 353.061L345.9 218.481L317.24 201.941L237.34 340.321L261.84 354.421Z" fill="black"/>
<path d="M260.22 366.882L263.5 361.182C263.46 361.162 263.4 361.142 263.36 361.122C261.48 360.042 260.66 357.862 261.18 355.882L236.58 341.682L231.66 350.202L260.22 366.882Z" fill="black"/>
<path d="M334.68 131.88C334.68 130.66 334.02 129.52 332.96 128.92L298.5 109.02C297.84 108.64 297.02 108.64 296.36 109C292.34 111.24 288.54 113.84 285 116.72L333.7 144.84C334.36 140.56 334.72 136.22 334.68 131.88Z" fill="black"/>
<path d="M330.68 157.361C331.8 153.941 332.7 150.461 333.34 146.941L283.3 118.061C276.42 123.941 270.54 130.961 265.98 138.861L259.82 149.541L301.12 173.381L317.84 183.041L323.98 172.401C324.68 171.181 325.36 169.921 326 168.661C326.24 168.201 326.46 167.721 326.7 167.241C328.26 164.021 329.58 160.741 330.68 157.361Z" fill="black"/>
<path d="M299.001 176.76L257.841 153L158.781 324.56C160.901 326.3 161.561 329.3 160.321 331.8L208.721 359.74C210.461 357.14 213.941 356.28 216.681 357.88C216.741 357.92 216.781 357.96 216.841 358L223.661 346.2L228.581 337.68L229.361 336.32L309.261 197.94L310.821 195.22L315.861 186.5L299.001 176.76Z" fill="black"/>
<path d="M207.9 361.56L159.16 333.42C157.52 335.02 155.08 335.58 152.88 334.76L148.82 341.78L206.66 375.6L210.86 368.34C210.8 368.3 210.74 368.3 210.68 368.26C208.3 366.88 207.24 364.1 207.9 361.56Z" fill="black"/>
</svg>
