<svg width="512" height="512" viewBox="0 0 512 512" fill="none" xmlns="http://www.w3.org/2000/svg">
<path d="M193.439 153.999C189.479 152.239 185.399 150.779 181.199 149.679C180.019 149.379 178.759 149.719 177.879 150.579L149.739 178.719C149.199 179.259 148.979 180.039 149.159 180.779C150.279 185.259 151.819 189.579 153.659 193.759L193.439 153.999Z" fill="black"/>
<path d="M195.379 154.879L154.539 195.719C158.439 203.899 163.699 211.379 170.139 217.839L178.859 226.559L226.239 179.179L217.539 170.479C211.079 164.019 203.579 158.759 195.379 154.879Z" fill="black"/>
<path d="M329.159 369.84L368.679 330.32C366.619 327.96 366.679 324.4 368.939 322.14C368.979 322.1 369.039 322.06 369.099 322.02L229.079 182L181.699 229.38L321.779 369.46C323.999 367.88 327.059 368 329.159 369.84Z" fill="black"/>
<path d="M370.241 331.6L330.441 371.4C331.561 373.4 331.461 375.9 330.121 377.8L335.841 383.52L383.481 336.4L377.561 330.48C377.521 330.52 377.481 330.58 377.441 330.64C375.461 332.6 372.521 332.9 370.241 331.6Z" fill="black"/>
<path d="M378.842 193.699C380.602 189.739 382.062 185.659 383.162 181.459C383.462 180.279 383.122 179.019 382.262 178.139L354.122 149.999C353.582 149.459 352.802 149.239 352.062 149.419C347.582 150.539 343.262 152.079 339.082 153.919L378.842 193.699Z" fill="black"/>
<path d="M377.961 195.659L337.121 154.799C328.941 158.699 321.461 163.959 315.001 170.399L306.281 179.119L353.661 226.499L362.361 217.799C368.821 211.359 374.081 203.839 377.961 195.659Z" fill="black"/>
<path d="M201.24 370.499L161.44 330.699C159.44 331.819 156.94 331.719 155.04 330.379L149.32 336.099L196.44 383.739L202.36 377.819C202.32 377.779 202.26 377.739 202.2 377.699C200.24 375.739 199.94 372.799 201.24 370.499Z" fill="black"/>
<path d="M303.459 181.965L270.734 214.689L318.11 262.065L350.835 229.341L303.459 181.965Z" fill="black"/>
<path d="M214.64 270.76L163.36 322.04C164.94 324.28 164.82 327.34 162.98 329.44L202.5 368.96C204.86 366.9 208.42 366.96 210.68 369.22C210.72 369.26 210.76 369.32 210.8 369.38L262.02 318.16L214.64 270.76Z" fill="black"/>
</svg>
