<svg width="512" height="512" viewBox="0 0 512 512" fill="none" xmlns="http://www.w3.org/2000/svg">
<path d="M283.599 131.42C282.039 127.38 280.199 123.46 277.999 119.7C277.379 118.64 276.239 118 275.019 118H235.219C234.459 118 233.759 118.4 233.359 119.06C230.979 123.02 229.019 127.16 227.379 131.42H283.599Z" fill="black"/>
<path d="M284.38 133.42H226.6C223.58 141.96 222 150.96 222 160.1V172.42H289V160.12C289 150.98 287.4 141.96 284.38 133.42Z" fill="black"/>
<path d="M226.96 380.02H282.84C283.04 376.9 285.62 374.42 288.8 374.42C288.86 374.42 288.94 374.44 289 374.44V176.42H222V374.52C224.7 374.98 226.78 377.24 226.96 380.02Z" fill="black"/>
<path d="M283.04 382.02H226.76C226.14 384.24 224.3 385.94 222 386.32V394.42L289 394.78V386.4C288.94 386.4 288.86 386.42 288.8 386.42C286.04 386.42 283.74 384.56 283.04 382.02Z" fill="black"/>
</svg>
