<svg width="512" height="160" viewBox="0 0 512 160" fill="none" xmlns="http://www.w3.org/2000/svg">
<path d="M250.744 65.7983C250.437 61.9759 250.148 54.4013 250.051 51.6484H242.573V64.0186C242.573 65.3568 242.908 66.6739 243.546 67.8498C245.177 70.8568 249.21 75.9504 258.003 76.7395C258.141 76.7523 258.279 76.7203 258.396 76.6483C258.514 76.5763 258.606 76.4681 258.657 76.3399C258.708 76.2117 258.717 76.0704 258.681 75.937C258.645 75.8036 258.567 75.6853 258.459 75.5998C255.697 73.5483 251.016 69.2437 250.744 65.7983Z" fill="black"/>
<path d="M278.465 5.04492H241.109V15.1006H278.465V5.04492Z" fill="black"/>
<path d="M279.07 38.2881C281.192 40.3571 284.532 41.1461 290.616 41.0146H364.592C364.715 40.3613 364.776 39.698 364.776 39.0333V27.0488H275.932C276.011 32.7737 276.992 36.2629 279.07 38.2881Z" fill="black"/>
<path d="M264.587 36.2375C265.078 36.2375 265.558 36.092 265.966 35.8194C266.374 35.5467 266.692 35.1592 266.88 34.7059C267.067 34.2525 267.117 33.7537 267.021 33.2724C266.925 32.7911 266.689 32.3491 266.342 32.0021C265.995 31.6551 265.553 31.4188 265.072 31.3231C264.59 31.2273 264.091 31.2765 263.638 31.4642C263.185 31.652 262.797 31.97 262.525 32.378C262.252 32.786 262.106 33.2657 262.106 33.7564C262.106 34.4145 262.368 35.0455 262.833 35.5108C263.298 35.9761 263.929 36.2375 264.587 36.2375Z" fill="black"/>
<path d="M193.348 16.2211L184.949 10.8469C184.6 10.5424 184.191 10.3145 183.749 10.1781C183.307 10.0416 182.84 9.99963 182.381 10.0548C181.921 10.11 181.478 10.2612 181.081 10.4985C180.683 10.7358 180.34 11.054 180.073 11.4324C179.807 11.8109 179.622 12.2411 179.532 12.6953C179.443 13.1495 179.449 13.6175 179.552 14.0689C179.655 14.5204 179.851 14.9452 180.128 15.316C180.405 15.6867 180.758 15.9951 181.162 16.2211L189.56 21.6215C189.914 21.8718 190.314 22.0495 190.737 22.1443C191.16 22.2391 191.597 22.2491 192.024 22.1738C192.668 22.0626 193.264 21.7625 193.737 21.3115C194.211 20.8605 194.539 20.2791 194.681 19.6411C194.823 19.0031 194.772 18.3373 194.534 17.7284C194.297 17.1194 193.884 16.5947 193.348 16.2211Z" fill="black"/>
<path d="M354.738 2.42271C354.613 2.03845 354.382 1.69724 354.072 1.43826C353.762 1.17928 353.385 1.01304 352.985 0.958631L344.937 0.0205683C344.397 -0.0487124 343.85 0.0580769 343.376 0.325042C342.902 0.592007 342.527 1.00487 342.307 1.50218L341.123 4.13226H355.15L354.738 2.42271Z" fill="black"/>
<path d="M362.155 5.04492H355.351H340.719H279.351V15.9773H240.233V5.04492H192.83H174.796H168.659L155.237 17.7745C154.687 18.3457 154.374 19.1036 154.36 19.8961C154.36 21.2024 154.273 23.3328 154.299 25.2966H206.48L208.733 9.51607H210.6L208.365 25.2966H212.617L214.87 9.51607H216.737L214.502 25.2966H218.754L221.007 9.51607H222.874L220.638 25.2966H224.89L227.144 9.51607H229.011L226.775 25.2966H230.992L233.245 9.51607H235.148L232.912 25.2966H305.196L306.949 9.51607H308.703L306.949 25.2966H311.333L313.086 9.51607H314.839L313.086 25.2966H317.469L319.223 9.51607H320.976L319.223 25.2966H323.606L325.36 9.51607H327.113L325.36 25.2966H329.743L331.497 9.51607H333.25L331.497 25.2966H364.741V9.51607L362.155 5.04492ZM194.881 21.3164C194.571 21.7742 194.172 22.1653 193.709 22.4665C193.245 22.7676 192.725 22.9728 192.181 23.0698C191.938 23.1148 191.692 23.1383 191.444 23.1399C190.588 23.1323 189.755 22.8597 189.06 22.3597L180.652 16.9943C179.784 16.3431 179.202 15.3795 179.031 14.3073C178.86 13.2351 179.112 12.1384 179.735 11.2491C180.358 10.3598 181.302 9.7476 182.369 9.54197C183.435 9.33635 184.539 9.55342 185.448 10.1473L193.855 15.5214C194.755 16.1573 195.368 17.1228 195.56 18.2079C195.752 19.2931 195.508 20.4102 194.881 21.3164Z" fill="black"/>
<path d="M191.436 2.52769C191.066 1.86192 190.524 1.30745 189.868 0.921983C189.211 0.536518 188.463 0.334153 187.701 0.335949H178.312C178.029 0.335859 177.752 0.406401 177.503 0.541151C177.255 0.675901 177.045 0.870574 176.891 1.10744L175.261 4.12328H192.321L191.436 2.52769Z" fill="black"/>
<path d="M178.786 150.926C176.585 150.874 173.245 150.786 172.351 153.065C171.629 155.325 171.115 157.647 170.816 160H213.064C213.946 159.998 214.792 159.646 215.414 159.021C216.037 158.397 216.387 157.551 216.387 156.669V151.181C206.077 151.119 181.319 150.961 179.653 150.961L178.786 150.926Z" fill="black"/>
<path d="M290.625 41.8912H289.345C283.805 41.8912 280.578 41.0145 278.457 38.9017C276.335 36.7889 275.143 33.0103 275.055 27.0312H154.282C154.282 27.4959 154.325 27.9079 154.361 28.32C154.624 31.4586 151.73 37.4815 148.864 40.357C148.046 41.1007 147.463 42.0659 147.184 43.1353C146.905 44.2047 146.944 45.3319 147.294 46.3799C155.93 46.6429 172.42 61.8185 164.828 75.6879C157.236 89.5572 148.601 142.702 148.075 151.338C147.549 159.973 153.615 160 153.615 160H169.931C170.238 157.541 170.775 155.117 171.535 152.758C172.648 149.918 176.506 150.014 178.812 150.067H216.387C214.975 140.09 215.51 123.59 216.019 119.9C216.087 119.424 216.214 118.959 216.396 118.514C219.29 111.014 220.856 103.066 221.024 95.0278C221.065 93.8709 221.36 92.7372 221.888 91.7071C222.416 90.6769 223.164 89.7756 224.079 89.0669C224.995 88.3583 226.055 87.8597 227.184 87.6065C228.314 87.3534 229.485 87.3519 230.616 87.6021C233.685 88.2511 236.801 88.6557 239.935 88.812H271.794C273.203 88.812 274.554 88.2523 275.551 87.2559C276.547 86.2596 277.107 84.9082 277.107 83.4992V57.8471C277.109 55.7831 277.93 53.8043 279.389 52.3448C280.849 50.8853 282.828 50.0644 284.892 50.062H353.756C355.54 50.0625 357.297 49.6292 358.876 48.7996C360.456 47.9647 361.812 46.7619 362.83 45.2928C363.544 44.2585 364.072 43.1073 364.391 41.8912H290.625ZM183.668 64.6853L200.738 55.9184C201.655 56.3434 202.501 56.9083 203.245 57.5929L181.284 68.8672C182.038 67.4002 182.839 66.0004 183.686 64.6678L183.668 64.6853ZM178.347 75.3109L205.937 61.1084C206.359 61.8973 206.72 62.718 207.015 63.5632L176.944 78.993C177.383 77.7656 177.847 76.5382 178.347 75.3109ZM174.954 84.9545L208.269 67.8765C208.622 68.6896 208.915 69.5276 209.145 70.3838L173.779 88.4788C174.209 87.1726 174.603 85.989 174.954 84.937V84.9545ZM171.202 97.4913L171.675 95.7379L210.039 74.6972C210.171 75.5739 210.294 76.5119 210.39 77.5026L170.755 99.2359C170.904 98.631 171.053 98.0611 171.202 97.4913ZM204.998 132.393C204.797 133.024 204.595 133.637 204.394 134.225L187.736 143.404L185.264 143.272L182.853 143.088L205.56 130.587C205.34 131.209 205.183 131.805 204.998 132.393ZM207.558 122.214C207.444 122.784 207.322 123.354 207.199 123.915L174.314 142.027C173.75 141.875 173.199 141.678 172.666 141.44C172.189 141.231 171.734 140.975 171.307 140.677L207.883 120.548C207.786 121.101 207.672 121.662 207.558 122.214ZM209.207 112.57C209.136 113.114 209.058 113.658 208.97 114.192L168.519 136.46C168.452 136.114 168.422 135.761 168.431 135.408C168.274 134.865 168.133 134.304 168.011 133.734L209.443 110.94C209.361 111.466 209.283 112.001 209.207 112.544V112.57ZM210.232 103.234C210.232 103.76 210.145 104.286 210.092 104.812L167.239 128.386C167.16 127.43 167.125 126.449 167.108 125.458L210.355 101.647C210.32 102.138 210.276 102.681 210.232 103.207V103.234ZM210.688 95.7116L167.292 119.593C167.292 119.076 167.371 118.549 167.415 118.023C167.458 117.497 167.52 116.963 167.581 116.428L210.793 92.6344C210.77 93.6221 210.735 94.6391 210.688 95.6853V95.7116ZM168.449 110.186C168.633 109.064 168.844 107.95 169.054 106.846L210.793 83.8587L210.846 86.8394L168.449 110.186ZM262.133 31.2832C265.71 28.5392 269.786 32.6158 267.033 36.1839C263.465 38.9543 259.389 34.8777 262.133 31.3095V31.2832ZM271.093 80.9393C271.093 81.7856 270.756 82.5973 270.158 83.1958C269.559 83.7942 268.748 84.1304 267.901 84.1304H239.584C239.584 84.1304 229.94 84.0691 223.69 79.6944C222.426 78.8043 221.396 77.622 220.688 76.2482C219.98 74.8744 219.614 73.3497 219.622 71.8041V62.4761C219.59 60.1813 220.197 57.9229 221.375 55.9534C222.918 53.4461 225.566 50.6933 229.739 50.553C234.999 50.4215 252.866 50.4741 263.29 50.553C265.352 50.5483 267.331 51.3617 268.794 52.8146C270.257 54.2675 271.083 56.2413 271.093 58.303V80.9393Z" fill="black"/>
</svg>
