<svg width="512" height="512" viewBox="0 0 512 512" fill="none" xmlns="http://www.w3.org/2000/svg">
<path d="M244.745 246.112C242.568 242.955 238.53 236.54 237.07 234.204L230.594 237.943L236.779 248.656C237.448 249.815 238.396 250.789 239.537 251.488C242.453 253.276 248.492 255.671 256.502 251.958C256.627 251.9 256.731 251.804 256.797 251.682C256.863 251.561 256.888 251.422 256.868 251.285C256.849 251.148 256.785 251.022 256.688 250.924C256.59 250.826 256.463 250.763 256.327 250.743C252.909 250.347 246.703 248.96 244.745 246.112Z" fill="black"/>
<path d="M238.375 179.634L206.023 198.312L211.051 207.021L243.403 188.343L238.375 179.634Z" fill="black"/>
<path d="M255.52 208.123C258.392 208.854 261.679 207.867 266.883 204.711L330.947 167.724C330.727 167.096 330.449 166.491 330.116 165.916L324.124 155.537L247.183 199.959C250.113 204.877 252.708 207.408 255.52 208.123Z" fill="black"/>
<path d="M241.952 213.588C242.377 213.343 242.72 212.977 242.937 212.537C243.154 212.097 243.235 211.602 243.171 211.116C243.107 210.629 242.9 210.172 242.577 209.804C242.253 209.435 241.828 209.17 241.354 209.043C240.88 208.916 240.379 208.932 239.914 209.09C239.449 209.248 239.042 209.54 238.743 209.929C238.444 210.318 238.268 210.787 238.236 211.277C238.204 211.767 238.317 212.255 238.563 212.68C238.892 213.25 239.434 213.666 240.069 213.836C240.705 214.006 241.382 213.917 241.952 213.588Z" fill="black"/>
<path d="M170.249 231.875L160.289 231.42C159.834 231.331 159.366 231.338 158.915 231.441C158.464 231.544 158.039 231.74 157.669 232.018C157.298 232.296 156.99 232.648 156.764 233.052C156.539 233.457 156.401 233.904 156.359 234.365C156.317 234.826 156.373 235.291 156.522 235.729C156.671 236.167 156.911 236.569 157.226 236.909C157.54 237.248 157.923 237.518 158.348 237.701C158.774 237.883 159.233 237.974 159.696 237.968L169.67 238.445C170.101 238.485 170.536 238.439 170.95 238.31C171.363 238.18 171.747 237.97 172.079 237.692C172.581 237.273 172.948 236.715 173.132 236.088C173.316 235.461 173.31 234.793 173.114 234.17C172.918 233.547 172.541 232.995 172.031 232.587C171.521 232.178 170.901 231.93 170.249 231.875Z" fill="black"/>
<path d="M303.118 139.23C302.817 138.96 302.447 138.78 302.049 138.71C301.651 138.641 301.241 138.686 300.867 138.839L293.428 142.05C292.926 142.26 292.506 142.626 292.229 143.095C291.952 143.563 291.833 144.108 291.891 144.649L292.181 147.518L304.329 140.505L303.118 139.23Z" fill="black"/>
<path d="M310.852 137.79L304.96 141.192L292.288 148.508L239.141 179.192L244.607 188.66L210.73 208.219L205.264 198.751L164.212 222.453L148.594 231.47L143.279 234.538L138.02 252.273C137.83 253.043 137.938 253.856 138.322 254.549C138.975 255.68 139.964 257.569 140.969 259.257L186.159 233.166L180.22 218.373L181.837 217.44L187.791 232.224L191.474 230.098L185.535 215.305L187.152 214.371L193.106 229.155L196.788 227.029L190.849 212.236L192.467 211.303L198.421 226.087L202.103 223.961L196.164 209.168L197.781 208.234L203.735 223.018L207.387 220.91L201.448 206.117L203.096 205.166L209.05 219.95L271.649 183.808L265.278 169.265L266.796 168.389L273.168 182.932L276.964 180.74L270.592 166.197L272.111 165.32L278.483 179.863L282.279 177.671L275.907 163.128L277.426 162.252L283.797 176.795L287.594 174.603L281.222 160.06L282.74 159.183L289.112 173.726L292.908 171.535L286.536 156.992L288.055 156.115L294.427 170.658L323.217 154.036L315.327 140.369L310.852 137.79ZM174.124 235.519C174.085 236.07 173.935 236.608 173.684 237.101C173.433 237.594 173.085 238.031 172.662 238.387C172.474 238.548 172.273 238.691 172.06 238.816C171.314 239.238 170.457 239.418 169.604 239.333L159.641 238.89C158.563 238.76 157.577 238.217 156.893 237.374C156.209 236.531 155.879 235.455 155.974 234.373C156.069 233.291 156.58 232.289 157.401 231.578C158.221 230.867 159.286 230.503 160.37 230.563L170.338 231.013C171.436 231.114 172.449 231.643 173.158 232.487C173.867 233.331 174.214 234.42 174.124 235.519Z" fill="black"/>
<path d="M161.746 220.971C161.093 220.579 160.347 220.37 159.586 220.364C158.824 220.359 158.075 220.558 157.416 220.94L149.285 225.635C149.04 225.776 148.835 225.976 148.687 226.217C148.54 226.457 148.455 226.731 148.441 227.013L148.536 230.44L163.311 221.91L161.746 220.971Z" fill="black"/>
<path d="M224.99 355.812C223.058 356.867 220.121 358.461 220.486 360.882C220.991 363.2 221.707 365.467 222.625 367.655L259.213 346.531C259.976 346.088 260.531 345.361 260.759 344.508C260.986 343.656 260.866 342.749 260.425 341.985L257.681 337.232C248.721 342.334 227.201 354.576 225.759 355.409L224.99 355.812Z" fill="black"/>
<path d="M267.329 205.467L266.22 206.107C261.422 208.877 258.19 209.731 255.296 208.962C252.402 208.193 249.48 205.517 246.415 200.383L141.822 260.769C142.054 261.172 142.298 261.507 142.534 261.846C144.331 264.433 144.837 271.095 143.792 275.019C143.456 276.072 143.434 277.199 143.727 278.265C144.02 279.33 144.617 280.287 145.445 281.019C153.055 276.929 174.924 281.827 175.284 297.634C175.643 313.441 194.737 363.784 198.6 371.526C202.462 379.267 207.729 376.257 207.729 376.257L221.858 368.099C220.895 365.816 220.148 363.448 219.627 361.025C219.171 358.009 222.56 356.163 224.583 355.056L257.124 336.269C250.913 328.334 243.127 313.778 241.722 310.327C241.544 309.881 241.421 309.415 241.355 308.939C240.112 300.996 237.495 293.33 233.621 286.285C233.078 285.262 232.766 284.133 232.709 282.977C232.651 281.821 232.848 280.666 233.286 279.595C233.725 278.524 234.393 277.562 235.245 276.778C236.097 275.994 237.11 275.407 238.214 275.058C241.197 274.086 244.098 272.878 246.89 271.446L274.481 255.517C275.701 254.812 276.591 253.652 276.956 252.291C277.321 250.93 277.13 249.48 276.425 248.26L263.599 226.044C262.569 224.255 262.291 222.131 262.825 220.138C263.359 218.144 264.662 216.444 266.449 215.41L326.087 180.977C327.632 180.086 328.937 178.832 329.89 177.324C330.841 175.811 331.414 174.091 331.561 172.31C331.662 171.057 331.544 169.796 331.211 168.584L267.329 205.467ZM186.098 278.685L196.497 262.558C197.504 262.468 198.519 262.534 199.506 262.755L186.124 283.499C186.044 281.852 186.037 280.239 186.105 278.661L186.098 278.685ZM186.803 290.548L203.595 264.454C204.355 264.925 205.078 265.456 205.756 266.04L187.429 294.438C187.195 293.156 186.984 291.861 186.803 290.548ZM188.686 300.596L208.998 269.149C209.711 269.676 210.384 270.256 211.011 270.882L189.431 304.236C189.15 302.89 188.9 301.667 188.677 300.581L188.686 300.596ZM191.705 313.329L191.238 311.574L213.942 274.17C214.495 274.864 215.07 275.615 215.649 276.425L192.19 315.064C192.017 314.465 191.861 313.897 191.705 313.329ZM238.424 326.656C238.565 327.304 238.698 327.936 238.817 328.546L228.981 344.824L226.774 345.946L224.594 346.992L238.007 324.812C238.129 325.461 238.29 326.056 238.424 326.656ZM235.552 316.562C235.738 317.112 235.917 317.667 236.091 318.214L216.668 350.343C216.104 350.492 215.528 350.598 214.947 350.658C214.43 350.715 213.908 350.722 213.389 350.677L235 314.957C235.193 315.483 235.375 316.026 235.552 316.562ZM232.158 307.386C232.369 307.892 232.572 308.402 232.764 308.909L208.866 348.419C208.635 348.153 208.433 347.862 208.264 347.552C207.856 347.16 207.454 346.744 207.063 346.312L231.547 305.855C231.74 306.352 231.939 306.854 232.145 307.363L232.158 307.386ZM228.378 298.787C228.641 299.243 228.828 299.742 229.045 300.224L203.721 342.066C203.175 341.278 202.653 340.445 202.143 339.596L227.691 297.352C227.906 297.794 228.139 298.287 228.364 298.764L228.378 298.787ZM225.011 292.045L199.37 334.425C199.111 333.977 198.916 333.482 198.691 333.004C198.466 332.527 198.252 332.033 198.038 331.539L223.564 289.327C224.038 290.195 224.516 291.093 224.998 292.022L225.011 292.045ZM195.668 325.7C195.267 324.636 194.892 323.566 194.522 322.504L219.176 281.727L220.712 284.283L195.668 325.7ZM237.349 210.526C239.075 206.361 244.644 207.853 244.044 212.32C242.339 216.503 236.77 215.011 237.363 210.549L237.349 210.526ZM269.937 249.05C270.36 249.783 270.475 250.654 270.256 251.471C270.037 252.289 269.502 252.986 268.769 253.409L244.245 267.567C244.245 267.567 235.863 272.336 228.262 271.673C226.723 271.534 225.24 271.025 223.94 270.189C222.639 269.354 221.56 268.216 220.794 266.874L216.13 258.795C214.955 256.824 214.352 254.565 214.387 252.27C214.47 249.327 215.387 245.619 218.93 243.411C223.42 240.667 238.92 231.779 247.987 226.636C249.77 225.601 251.891 225.315 253.884 225.842C255.877 226.369 257.58 227.665 258.619 229.446L269.937 249.05Z" fill="black"/>
</svg>
