<svg width="512" height="512" viewBox="0 0 512 512" fill="none" xmlns="http://www.w3.org/2000/svg">
<path d="M251.744 241.798C251.437 237.976 251.148 230.401 251.051 227.648H243.573V240.019C243.573 241.357 243.908 242.674 244.546 243.85C246.177 246.857 250.21 251.95 259.003 252.739C259.141 252.752 259.279 252.72 259.396 252.648C259.514 252.576 259.606 252.468 259.657 252.34C259.708 252.212 259.717 252.07 259.681 251.937C259.645 251.804 259.567 251.685 259.459 251.6C256.697 249.548 252.016 245.244 251.744 241.798Z" fill="black"/>
<path d="M279.465 181.045H242.109V191.101H279.465V181.045Z" fill="black"/>
<path d="M280.07 214.288C282.192 216.357 285.532 217.146 291.616 217.015H365.592C365.715 216.361 365.776 215.698 365.776 215.033V203.049H276.932C277.011 208.774 277.992 212.263 280.07 214.288Z" fill="black"/>
<path d="M265.587 212.237C266.078 212.237 266.558 212.092 266.966 211.819C267.374 211.547 267.692 211.159 267.88 210.706C268.067 210.253 268.117 209.754 268.021 209.272C267.925 208.791 267.689 208.349 267.342 208.002C266.995 207.655 266.553 207.419 266.072 207.323C265.59 207.227 265.091 207.276 264.638 207.464C264.185 207.652 263.797 207.97 263.525 208.378C263.252 208.786 263.106 209.266 263.106 209.756C263.106 210.414 263.368 211.046 263.833 211.511C264.298 211.976 264.929 212.237 265.587 212.237Z" fill="black"/>
<path d="M194.348 192.221L185.949 186.847C185.6 186.542 185.191 186.315 184.749 186.178C184.307 186.042 183.84 186 183.381 186.055C182.921 186.11 182.478 186.261 182.081 186.499C181.683 186.736 181.34 187.054 181.073 187.432C180.807 187.811 180.622 188.241 180.532 188.695C180.443 189.149 180.449 189.617 180.552 190.069C180.655 190.52 180.851 190.945 181.128 191.316C181.405 191.687 181.758 191.995 182.162 192.221L190.56 197.621C190.914 197.872 191.314 198.049 191.737 198.144C192.16 198.239 192.597 198.249 193.024 198.174C193.668 198.063 194.264 197.762 194.737 197.311C195.211 196.861 195.539 196.279 195.681 195.641C195.823 195.003 195.772 194.337 195.534 193.728C195.297 193.119 194.884 192.595 194.348 192.221Z" fill="black"/>
<path d="M355.738 178.423C355.613 178.038 355.382 177.697 355.072 177.438C354.762 177.179 354.385 177.013 353.985 176.959L345.937 176.021C345.397 175.951 344.85 176.058 344.376 176.325C343.902 176.592 343.527 177.005 343.307 177.502L342.123 180.132H356.15L355.738 178.423Z" fill="black"/>
<path d="M363.155 181.045H356.351H341.719H280.351V191.977H241.233V181.045H193.83H175.796H169.659L156.237 193.775C155.687 194.346 155.374 195.104 155.36 195.896C155.36 197.202 155.273 199.333 155.299 201.297H207.48L209.733 185.516H211.6L209.365 201.297H213.617L215.87 185.516H217.737L215.502 201.297H219.754L222.007 185.516H223.874L221.638 201.297H225.89L228.144 185.516H230.011L227.775 201.297H231.992L234.245 185.516H236.148L233.912 201.297H306.196L307.949 185.516H309.703L307.949 201.297H312.333L314.086 185.516H315.839L314.086 201.297H318.469L320.223 185.516H321.976L320.223 201.297H324.606L326.36 185.516H328.113L326.36 201.297H330.743L332.497 185.516H334.25L332.497 201.297H365.741V185.516L363.155 181.045ZM195.881 197.316C195.571 197.774 195.172 198.165 194.709 198.466C194.245 198.768 193.725 198.973 193.181 199.07C192.938 199.115 192.692 199.138 192.444 199.14C191.588 199.132 190.755 198.86 190.06 198.36L181.652 192.994C180.784 192.343 180.202 191.379 180.031 190.307C179.86 189.235 180.112 188.138 180.735 187.249C181.358 186.36 182.302 185.748 183.369 185.542C184.435 185.336 185.539 185.553 186.448 186.147L194.855 191.521C195.755 192.157 196.368 193.123 196.56 194.208C196.752 195.293 196.508 196.41 195.881 197.316Z" fill="black"/>
<path d="M192.436 178.528C192.066 177.862 191.524 177.307 190.868 176.922C190.211 176.537 189.463 176.334 188.701 176.336H179.312C179.029 176.336 178.752 176.406 178.503 176.541C178.255 176.676 178.045 176.871 177.891 177.107L176.261 180.123H193.321L192.436 178.528Z" fill="black"/>
<path d="M179.786 326.926C177.585 326.874 174.245 326.786 173.351 329.065C172.629 331.325 172.115 333.647 171.816 336H214.064C214.946 335.998 215.792 335.646 216.414 335.021C217.037 334.397 217.387 333.551 217.387 332.669V327.181C207.077 327.119 182.319 326.961 180.653 326.961L179.786 326.926Z" fill="black"/>
<path d="M291.625 217.891H290.345C284.805 217.891 281.578 217.015 279.457 214.902C277.335 212.789 276.143 209.01 276.055 203.031H155.282C155.282 203.496 155.325 203.908 155.361 204.32C155.624 207.459 152.73 213.481 149.864 216.357C149.046 217.101 148.463 218.066 148.184 219.135C147.905 220.205 147.944 221.332 148.294 222.38C156.93 222.643 173.42 237.819 165.828 251.688C158.236 265.557 149.601 318.702 149.075 327.338C148.549 335.973 154.615 336 154.615 336H170.931C171.238 333.541 171.775 331.117 172.535 328.758C173.648 325.918 177.506 326.014 179.812 326.067H217.387C215.975 316.09 216.51 299.59 217.019 295.9C217.087 295.424 217.214 294.959 217.396 294.514C220.29 287.014 221.856 279.066 222.024 271.028C222.065 269.871 222.36 268.737 222.888 267.707C223.416 266.677 224.164 265.776 225.079 265.067C225.995 264.358 227.055 263.86 228.184 263.607C229.314 263.353 230.485 263.352 231.616 263.602C234.685 264.251 237.801 264.656 240.935 264.812H272.794C274.203 264.812 275.554 264.252 276.551 263.256C277.547 262.26 278.107 260.908 278.107 259.499V233.847C278.109 231.783 278.93 229.804 280.389 228.345C281.849 226.885 283.828 226.064 285.892 226.062H354.756C356.54 226.062 358.297 225.629 359.876 224.8C361.456 223.965 362.812 222.762 363.83 221.293C364.544 220.258 365.072 219.107 365.391 217.891H291.625ZM184.668 240.685L201.738 231.918C202.655 232.343 203.501 232.908 204.245 233.593L182.284 244.867C183.038 243.4 183.839 242 184.686 240.668L184.668 240.685ZM179.347 251.311L206.937 237.108C207.359 237.897 207.72 238.718 208.015 239.563L177.944 254.993C178.383 253.766 178.847 252.538 179.347 251.311ZM175.954 260.955L209.269 243.876C209.622 244.69 209.915 245.528 210.145 246.384L174.779 264.479C175.209 263.173 175.603 261.989 175.954 260.937V260.955ZM172.202 273.491L172.675 271.738L211.039 250.697C211.171 251.574 211.294 252.512 211.39 253.503L171.755 275.236C171.904 274.631 172.053 274.061 172.202 273.491ZM205.998 308.393C205.797 309.024 205.595 309.637 205.394 310.225L188.736 319.404L186.264 319.272L183.853 319.088L206.56 306.587C206.34 307.209 206.183 307.805 205.998 308.393ZM208.558 298.214C208.444 298.784 208.322 299.354 208.199 299.915L175.314 318.027C174.75 317.875 174.199 317.678 173.666 317.44C173.189 317.231 172.734 316.975 172.307 316.677L208.883 296.548C208.786 297.101 208.672 297.662 208.558 298.214ZM210.207 288.57C210.136 289.114 210.058 289.658 209.97 290.192L169.519 312.46C169.452 312.114 169.422 311.761 169.431 311.408C169.274 310.865 169.133 310.304 169.011 309.734L210.443 286.94C210.361 287.466 210.283 288.001 210.207 288.544V288.57ZM211.232 279.234C211.232 279.76 211.145 280.286 211.092 280.812L168.239 304.386C168.16 303.43 168.125 302.449 168.108 301.458L211.355 277.647C211.32 278.138 211.276 278.681 211.232 279.207V279.234ZM211.688 271.712L168.292 295.593C168.292 295.076 168.371 294.549 168.415 294.023C168.458 293.497 168.52 292.963 168.581 292.428L211.793 268.634C211.77 269.622 211.735 270.639 211.688 271.685V271.712ZM169.449 286.186C169.633 285.064 169.844 283.95 170.054 282.846L211.793 259.859L211.846 262.839L169.449 286.186ZM263.133 207.283C266.71 204.539 270.786 208.616 268.033 212.184C264.465 214.954 260.389 210.878 263.133 207.31V207.283ZM272.093 256.939C272.093 257.786 271.756 258.597 271.158 259.196C270.559 259.794 269.748 260.13 268.901 260.13H240.584C240.584 260.13 230.94 260.069 224.69 255.694C223.426 254.804 222.396 253.622 221.688 252.248C220.98 250.874 220.614 249.35 220.622 247.804V238.476C220.59 236.181 221.197 233.923 222.375 231.953C223.918 229.446 226.566 226.693 230.739 226.553C235.999 226.421 253.866 226.474 264.29 226.553C266.352 226.548 268.331 227.362 269.794 228.815C271.257 230.267 272.083 232.241 272.093 234.303V256.939Z" fill="black"/>
</svg>
