<svg width="512" height="160" viewBox="0 0 512 160" fill="none" xmlns="http://www.w3.org/2000/svg">
<path d="M236.448 36.8869C238.036 36.8869 240.021 34.3065 241.808 34.3065C243.793 34.3065 249.747 36.8869 255.305 36.8869C260.863 36.8869 265.031 34.3065 267.016 34.3065C269.001 34.3065 270.192 37.0853 271.581 38.2763C272.177 38.6733 273.169 38.6733 273.368 38.6733H275.353V22H273.368C272.772 22 271.978 22.1985 271.581 22.5955C270.391 23.5879 268.604 25.9698 267.016 25.9698C265.031 25.9698 260.664 23.7864 255.305 23.7864C250.144 23.7864 243.396 25.9698 242.006 25.9698C240.021 25.9698 238.632 23.7864 236.647 23.7864C234.662 23.7864 235.059 36.8869 236.448 36.8869Z" fill="black"/>
<path d="M152.288 54.5527H115.567C115.567 56.1407 115.368 60.1105 115.567 63.6833H152.288V54.5527Z" fill="black"/>
<path d="M152.288 52.5666V48.5968H125.889V44.627C125.095 44.627 124.301 44.627 123.507 44.8254C122.118 45.2224 121.125 46.4134 121.125 47.8028C121.125 49.7877 120.927 50.9787 121.125 52.3681H152.288V52.5666Z" fill="black"/>
<path d="M401.593 72.4175V62.6914H387.104V72.4175H401.593Z" fill="black"/>
<path d="M277.934 27.5579V33.1156H280.315C280.712 33.1156 281.308 33.5126 281.308 34.1081V54.9497C281.308 55.7437 281.705 56.7361 282.102 57.3316L284.484 60.1105L284.682 72.8139H296.393V61.1029C296.393 60.1105 295.599 58.721 294.21 58.1256C293.019 57.7286 289.446 56.1406 287.263 55.1482C286.072 54.5527 285.278 53.3618 285.278 51.9723V28.5503C285.278 27.9548 284.682 27.3594 284.087 27.3594H277.934V27.5579Z" fill="black"/>
<path d="M376.783 56.1406V58.5225H372.813V56.1406H367.255V58.5225H363.285V56.1406H357.728V58.5225H353.758V56.1406H348.2V58.5225H344.23V56.1406H338.672V58.5225H334.703V56.1406H329.145V58.5225H325.175V56.1406H319.617V58.5225H315.647V56.1406H310.09V58.5225H306.12V56.1406H299.371V72.4169H385.119V56.1406H376.783ZM305.326 67.8516C304.532 67.8516 303.738 67.0576 303.738 66.2637C303.738 65.4697 304.532 64.6758 305.326 64.6758C306.12 64.6758 306.914 65.4697 306.914 66.2637C306.914 67.0576 306.12 67.8516 305.326 67.8516ZM313.265 67.8516C312.472 67.8516 311.678 67.0576 311.678 66.2637C311.678 65.4697 312.472 64.6758 313.265 64.6758C314.059 64.6758 314.853 65.4697 314.853 66.2637C314.853 67.0576 314.059 67.8516 313.265 67.8516ZM321.205 67.8516C320.411 67.8516 319.617 67.0576 319.617 66.2637C319.617 65.4697 320.411 64.6758 321.205 64.6758C321.999 64.6758 322.793 65.4697 322.793 66.2637C322.793 67.0576 321.999 67.8516 321.205 67.8516ZM329.145 67.8516C328.351 67.8516 327.557 67.0576 327.557 66.2637C327.557 65.4697 328.351 64.6758 329.145 64.6758C329.939 64.6758 330.733 65.4697 330.733 66.2637C330.733 67.0576 329.939 67.8516 329.145 67.8516ZM337.084 67.8516C336.291 67.8516 335.497 67.0576 335.497 66.2637C335.497 65.4697 336.291 64.6758 337.084 64.6758C337.878 64.6758 338.672 65.4697 338.672 66.2637C338.672 67.0576 337.878 67.8516 337.084 67.8516ZM345.024 67.8516C344.23 67.8516 343.436 67.0576 343.436 66.2637C343.436 65.4697 344.23 64.6758 345.024 64.6758C345.818 64.6758 346.612 65.4697 346.612 66.2637C346.612 67.0576 345.818 67.8516 345.024 67.8516ZM352.964 67.8516C352.17 67.8516 351.376 67.0576 351.376 66.2637C351.376 65.4697 352.17 64.6758 352.964 64.6758C353.758 64.6758 354.552 65.4697 354.552 66.2637C354.552 67.0576 353.758 67.8516 352.964 67.8516ZM360.903 67.8516C360.109 67.8516 359.315 67.0576 359.315 66.2637C359.315 65.4697 360.109 64.6758 360.903 64.6758C361.697 64.6758 362.491 65.4697 362.491 66.2637C362.491 67.0576 361.697 67.8516 360.903 67.8516ZM368.843 67.8516C368.049 67.8516 367.255 67.0576 367.255 66.2637C367.255 65.4697 368.049 64.6758 368.843 64.6758C369.637 64.6758 370.431 65.4697 370.431 66.2637C370.431 67.0576 369.637 67.8516 368.843 67.8516ZM376.783 67.8516C375.989 67.8516 375.195 67.0576 375.195 66.2637C375.195 65.4697 375.989 64.6758 376.783 64.6758C377.577 64.6758 378.371 65.4697 378.371 66.2637C378.371 67.0576 377.577 67.8516 376.783 67.8516Z" fill="black"/>
<path d="M484.761 61.8965H478.807V73.409H484.761V61.8965Z" fill="black"/>
<path d="M463.523 63.2852H423.428V72.2173H463.523V63.2852Z" fill="black"/>
<path d="M492.305 61.8965V73.409H506.001V61.8965H492.305ZM502.229 71.6226H496.275C495.679 71.6226 495.282 71.2256 495.282 70.6301C495.282 70.0346 495.679 69.6377 496.275 69.6377H502.229C502.825 69.6377 503.222 70.0346 503.222 70.6301C503.222 71.2256 502.825 71.6226 502.229 71.6226ZM502.229 66.4618H496.275C495.679 66.4618 495.282 66.0648 495.282 65.4693C495.282 64.8739 495.679 64.4769 496.275 64.4769H502.229C502.825 64.4769 503.222 64.8739 503.222 65.4693C503.222 66.0648 502.825 66.4618 502.229 66.4618Z" fill="black"/>
<path d="M490.319 63.4844H486.746V72.0195H490.319V63.4844Z" fill="black"/>
<path d="M282.498 88.8926C280.91 88.8926 279.719 90.0835 279.719 91.6714C279.719 93.2594 280.91 94.4503 282.498 94.4503C284.086 94.4503 285.277 93.2594 285.277 91.6714C285.277 90.0835 284.086 88.8926 282.498 88.8926Z" fill="black"/>
<path d="M419.457 79.7604H414.098V87.5016C415.686 87.5016 419.457 87.5016 419.457 87.5016C419.457 87.5016 423.03 89.8835 423.625 88.8911C425.213 86.7077 425.015 79.7604 423.625 78.1725C423.03 77.1801 419.457 79.7604 419.457 79.7604Z" fill="black"/>
<path d="M401.791 76.1875H395.439V90.6774H401.791V76.1875Z" fill="black"/>
<path d="M393.455 74.4023H387.104V92.6636L393.455 92.4651V74.4023Z" fill="black"/>
<path d="M202.904 82.7383C201.713 82.7383 200.721 83.7307 200.721 84.9217C200.721 86.1126 201.713 87.1051 202.904 87.1051C204.095 87.1051 205.088 86.1126 205.088 84.9217C205.088 83.7307 204.095 82.7383 202.904 82.7383Z" fill="black"/>
<path d="M419.656 61.8973H412.113V59.1184L403.578 58.9199V76.1887H412.113V73.6083H420.053L421.442 72.2188V63.2867L419.656 61.8973Z" fill="black"/>
<path d="M412.113 78.1719H403.578V88.8904H412.113V78.1719Z" fill="black"/>
<path d="M476.822 62.4922H465.508V73.0122H476.822V62.4922Z" fill="black"/>
<path d="M20.8869 63.4845C19.2989 60.3086 18.3065 56.9342 13.9397 55.7433C7.98491 54.1554 6 57.7282 6 61.301C6 65.0724 13.7412 70.2332 16.3216 74.203C18.3065 77.5773 21.8793 100.205 22.8718 108.145C23.0703 109.733 24.4597 110.725 26.0476 110.527C26.8416 110.527 27.8341 110.328 28.8265 110.328L20.8869 63.4845Z" fill="black"/>
<path d="M111.399 56.7363C111.399 56.7363 98.4971 66.8594 94.5272 68.8443C90.5574 70.6307 72.2962 75.3945 62.7686 73.4096C53.4395 71.2262 23.0703 64.676 23.0703 64.676L30.8115 110.528C44.5074 109.138 72.0977 106.161 73.0902 105.962C74.4796 105.565 76.663 94.8467 83.0147 92.0678C89.3665 89.2889 103.658 93.0603 107.231 93.2588C109.613 93.4573 112.59 92.4648 114.575 91.8693C111.399 73.2111 111.399 56.7363 111.399 56.7363ZM39.9421 104.97C39.9421 105.168 39.9421 105.168 39.9421 104.97C39.3466 104.97 38.9496 104.573 38.7511 104.176L34.7813 81.5478C34.7813 80.9523 34.9798 80.5553 35.5753 80.3568C36.1707 80.3568 36.5677 80.5553 36.7662 81.1508L40.7361 103.779C40.9345 104.374 40.5376 104.97 39.9421 104.97ZM43.9119 104.771C43.3164 104.771 42.9195 104.374 42.721 103.977L38.9496 82.9372C38.9496 82.3417 39.1481 81.9447 39.7436 81.7463C40.3391 81.7463 40.7361 81.9447 40.9345 82.5402L44.7059 103.58C44.9044 103.977 44.5074 104.573 43.9119 104.771ZM47.8817 104.374C47.2863 104.374 46.8893 103.977 46.6908 103.58L43.3164 84.5251C43.3164 83.9297 43.5149 83.5327 44.1104 83.3342C44.7059 83.3342 45.1029 83.5327 45.3014 84.1281L48.6757 103.183C48.8742 103.779 48.4772 104.176 47.8817 104.374ZM51.8516 103.977C51.2561 103.977 50.8591 103.58 50.6606 103.183L47.6833 86.1131C47.6833 85.5176 47.8817 85.1206 48.4772 84.9221C49.0727 84.9221 49.4697 85.1206 49.6682 85.7161L52.6455 102.588C52.844 103.382 52.4471 103.779 51.8516 103.977Z" fill="black"/>
<path d="M160.426 102.388C160.426 102.388 160.625 102.388 160.625 102.189C156.854 102.189 154.869 102.983 153.678 103.777C153.678 108.144 159.632 110.923 161.816 110.923C161.816 110.923 162.014 110.725 161.816 110.725C156.854 107.152 157.846 104.373 160.426 102.388Z" fill="black"/>
<path d="M126.484 96.2363C126.484 97.0303 126.682 98.6182 126.881 99.4122C127.278 100.603 132.637 101.993 132.637 105.764C132.637 108.94 125.293 120.254 123.11 123.231C122.713 123.827 122.514 124.422 122.713 125.018V137.523C122.713 138.317 123.904 138.912 124.499 138.912H139.187C141.569 138.912 138.393 130.972 139.187 128.987C139.981 127.201 149.112 113.108 149.112 113.108C149.112 113.108 151.891 115.093 154.074 115.688C157.647 116.482 163.205 116.482 165.388 115.887C169.358 114.696 173.526 112.314 173.526 108.146V96.2363H126.484ZM165.388 113.704C159.235 114.895 153.479 113.307 151.295 108.741C149.112 104.374 152.685 102.39 152.685 102.39C155.464 100.405 160.823 99.2137 167.175 101.397C173.923 103.977 173.129 112.314 165.388 113.704Z" fill="black"/>
<path d="M322.594 77.1797H317.434V89.8831H322.594V77.1797Z" fill="black"/>
<path d="M315.449 74.6001H282.698V61.1026C282.698 60.3087 282.102 59.9117 281.507 59.9117H275.155V57.1328C275.155 56.1403 274.758 55.3464 273.964 54.7509L269.2 51.3765C268.803 50.9796 268.208 50.7811 267.612 50.7811H236.052C236.052 50.7811 235.06 48.5977 232.082 48.5977H224.143V54.5524H254.115V63.683H264.039V88.693H275.155C275.155 88.693 274.758 95.6402 279.323 97.6251C283.69 99.4115 288.057 97.8236 292.622 92.6628H315.647V74.6001H315.449ZM282.499 96.0371C279.919 96.0371 277.934 94.0522 277.934 91.4718C277.934 88.8914 279.919 86.9065 282.499 86.9065C285.079 86.9065 287.064 88.8914 287.064 91.4718C287.064 94.0522 285.079 96.0371 282.499 96.0371Z" fill="black"/>
<path d="M366.659 74.5996H362.689V83.1347H366.659V74.5996Z" fill="black"/>
<path d="M360.505 74.5996H356.535V83.1347H360.505V74.5996Z" fill="black"/>
<path d="M348.597 74.5996H344.627V83.1347H348.597V74.5996Z" fill="black"/>
<path d="M342.442 74.5996H338.473V83.1347H342.442V74.5996Z" fill="black"/>
<path d="M354.552 74.5996H350.582V83.1347H354.552V74.5996Z" fill="black"/>
<path d="M385.119 74.5996H380.752V83.1347H385.119V74.5996Z" fill="black"/>
<path d="M372.614 74.5996H368.645V83.1347H372.614V74.5996Z" fill="black"/>
<path d="M336.488 74.5996H332.717V83.1347H336.488V74.5996Z" fill="black"/>
<path d="M378.767 74.5996H374.797V83.1347H378.767V74.5996Z" fill="black"/>
<path d="M330.731 84.9212V74.5996H324.578V92.6623H385.118V84.9212H330.731Z" fill="black"/>
<path d="M221.959 56.538V48.7969H217.394V50.3848H216.004V48.7969H213.424V50.3848H212.034V48.7969H209.454V50.3848H208.065V48.7969H205.484V50.3848H204.095V48.7969H201.514V50.3848H200.125V48.7969H197.545V50.3848H196.155V48.7969H193.575V50.3848H192.185V48.7969H189.605V50.3848H188.215V48.7969H185.635V50.3848H184.246V48.7969H181.665V50.3848H180.276V48.7969H177.695V50.3848H176.306V48.7969H173.726V50.3848H172.336V48.7969H169.756V50.3848H168.366V48.7969H165.786V50.3848H164.397V48.7969H154.273V63.6837H251.931V56.538H221.959Z" fill="black"/>
<path d="M115.566 65.668C115.765 71.8212 116.559 80.5548 118.544 92.0673C120.529 92.2658 256.694 91.6704 256.694 91.6704L259.274 88.693H261.656V65.668H115.566ZM125.689 88.8915C124.697 88.8915 124.102 88.0975 124.102 87.3035C124.102 86.5096 124.896 85.7156 125.689 85.7156C126.682 85.7156 127.277 86.5096 127.277 87.3035C127.277 88.0975 126.682 88.8915 125.689 88.8915ZM131.644 78.9669C130.652 78.9669 130.056 78.1729 130.056 77.379C130.056 76.585 130.85 75.791 131.644 75.791C132.637 75.791 133.232 76.585 133.232 77.379C133.232 78.1729 132.637 78.9669 131.644 78.9669ZM139.584 88.8915C138.591 88.8915 137.996 88.0975 137.996 87.3035C137.996 86.5096 138.79 85.7156 139.584 85.7156C140.378 85.7156 141.172 86.5096 141.172 87.3035C141.172 88.0975 140.378 88.8915 139.584 88.8915ZM145.539 78.9669C144.546 78.9669 143.951 78.1729 143.951 77.379C143.951 76.585 144.745 75.791 145.539 75.791C146.333 75.791 147.127 76.585 147.127 77.379C147.127 78.1729 146.333 78.9669 145.539 78.9669ZM153.28 88.8915C152.287 88.8915 151.692 88.0975 151.692 87.3035C151.692 86.5096 152.486 85.7156 153.28 85.7156C154.074 85.7156 154.868 86.5096 154.868 87.3035C154.868 88.0975 154.272 88.8915 153.28 88.8915ZM159.235 78.9669C158.242 78.9669 157.647 78.1729 157.647 77.379C157.647 76.585 158.441 75.791 159.235 75.791C160.028 75.791 160.822 76.585 160.822 77.379C160.822 78.1729 160.227 78.9669 159.235 78.9669ZM167.174 88.8915C166.182 88.8915 165.586 88.0975 165.586 87.3035C165.586 86.5096 166.38 85.7156 167.174 85.7156C168.167 85.7156 168.762 86.5096 168.762 87.3035C168.762 88.0975 167.968 88.8915 167.174 88.8915ZM173.129 78.9669C172.136 78.9669 171.541 78.1729 171.541 77.379C171.541 76.585 172.335 75.791 173.129 75.791C174.121 75.791 174.717 76.585 174.717 77.379C174.717 78.1729 173.923 78.9669 173.129 78.9669ZM180.87 88.8915C179.878 88.8915 179.282 88.0975 179.282 87.3035C179.282 86.5096 180.076 85.7156 180.87 85.7156C181.664 85.7156 182.458 86.5096 182.458 87.3035C182.458 88.0975 181.863 88.8915 180.87 88.8915ZM186.825 78.9669C185.832 78.9669 185.237 78.1729 185.237 77.379C185.237 76.585 186.031 75.791 186.825 75.791C187.619 75.791 188.413 76.585 188.413 77.379C188.413 78.1729 187.817 78.9669 186.825 78.9669ZM202.903 89.09C200.521 89.09 198.734 87.3035 198.734 84.9216C198.734 82.5398 200.521 80.7533 202.903 80.7533C205.285 80.7533 207.071 82.5398 207.071 84.9216C207.071 87.3035 205.285 89.09 202.903 89.09ZM218.782 78.9669C217.988 78.9669 217.194 78.3714 217.194 77.379C217.194 76.585 217.789 75.791 218.782 75.791C219.576 75.791 220.37 76.3865 220.37 77.379C220.37 78.1729 219.576 78.9669 218.782 78.9669ZM224.737 88.8915C223.744 88.8915 223.149 88.0975 223.149 87.3035C223.149 86.5096 223.943 85.7156 224.737 85.7156C225.729 85.7156 226.325 86.5096 226.325 87.3035C226.325 88.0975 225.729 88.8915 224.737 88.8915ZM232.676 78.9669C231.882 78.9669 231.088 78.3714 231.088 77.379C231.088 76.585 231.684 75.791 232.676 75.791C233.47 75.791 234.264 76.3865 234.264 77.379C234.264 78.1729 233.47 78.9669 232.676 78.9669ZM238.631 88.8915C237.639 88.8915 237.043 88.0975 237.043 87.3035C237.043 86.5096 237.837 85.7156 238.631 85.7156C239.425 85.7156 240.219 86.5096 240.219 87.3035C240.219 88.0975 239.425 88.8915 238.631 88.8915ZM246.571 78.9669C245.777 78.9669 244.983 78.3714 244.983 77.379C244.983 76.585 245.578 75.791 246.571 75.791C247.365 75.791 248.159 76.3865 248.159 77.379C248.159 78.1729 247.365 78.9669 246.571 78.9669ZM252.327 88.8915C251.335 88.8915 250.739 88.0975 250.739 87.3035C250.739 86.5096 251.533 85.7156 252.327 85.7156C253.121 85.7156 253.915 86.5096 253.915 87.3035C253.915 88.0975 253.319 88.8915 252.327 88.8915Z" fill="black"/>
</svg>
