<svg width="512" height="512" viewBox="0 0 512 512" fill="none" xmlns="http://www.w3.org/2000/svg">
<path d="M217.284 228.5C218.66 227.706 219.088 224.479 220.635 223.586C222.354 222.593 228.802 221.851 233.615 219.072C238.428 216.293 240.748 211.974 242.467 210.982C244.186 209.989 246.606 211.8 248.405 212.137C249.119 212.183 249.979 211.687 250.151 211.588L251.87 210.595L243.533 196.156L241.814 197.148C241.298 197.446 240.71 198.015 240.565 198.557C240.03 200.012 239.673 202.968 238.298 203.762C236.579 204.754 231.706 205.047 227.065 207.727C222.595 210.307 217.842 215.572 216.639 216.267C214.92 217.259 212.625 216.063 210.906 217.056C209.187 218.048 216.081 229.195 217.284 228.5Z" fill="black"/>
<path d="M153.231 285.879L121.43 304.239C122.224 305.614 124.037 309.152 125.995 312.146L157.796 293.786L153.231 285.879Z" fill="black"/>
<path d="M152.239 284.16L150.254 280.722L127.392 293.922L125.407 290.484C124.719 290.881 124.032 291.278 123.444 291.847C122.439 292.886 122.175 294.413 122.869 295.616C123.862 297.335 124.285 298.466 125.152 299.57L152.14 283.989L152.239 284.16Z" fill="black"/>
<path d="M378.068 176.698L373.205 168.275L360.656 175.52L365.519 183.943L378.068 176.698Z" fill="black"/>
<path d="M248.547 199.68L251.325 204.493L253.388 203.302C253.732 203.103 254.446 203.149 254.744 203.665L265.165 221.715C265.562 222.402 266.402 223.063 267.043 223.38L270.495 224.596L277.019 235.498L287.161 229.643L281.306 219.501C280.809 218.641 279.427 217.835 277.926 218.014C276.696 218.266 272.808 218.677 270.421 218.909C269.092 218.989 267.809 218.354 267.114 217.151L255.403 196.867C255.105 196.351 254.292 196.133 253.776 196.431L248.447 199.508L248.547 199.68Z" fill="black"/>
<path d="M348.443 175.007L349.634 177.07L346.196 179.055L345.005 176.992L340.192 179.771L341.383 181.834L337.945 183.819L336.754 181.756L331.941 184.535L333.131 186.597L329.694 188.582L328.503 186.52L323.689 189.298L324.88 191.361L321.442 193.346L320.251 191.283L315.438 194.062L316.629 196.125L313.191 198.11L312 196.047L307.187 198.826L308.378 200.889L304.94 202.874L303.749 200.811L298.936 203.59L300.127 205.653L296.689 207.638L295.498 205.575L290.685 208.354L291.876 210.416L288.438 212.401L287.247 210.339L281.402 213.713L289.54 227.809L363.801 184.934L355.663 170.839L348.443 175.007ZM292.415 220.878C291.727 221.275 290.643 220.984 290.246 220.296C289.849 219.609 290.139 218.524 290.827 218.127C291.514 217.73 292.599 218.021 292.996 218.708C293.393 219.396 293.102 220.481 292.415 220.878ZM299.291 216.908C298.603 217.305 297.519 217.014 297.122 216.326C296.725 215.639 297.015 214.554 297.703 214.157C298.39 213.76 299.475 214.051 299.872 214.739C300.269 215.426 299.978 216.511 299.291 216.908ZM306.167 212.938C305.479 213.335 304.395 213.044 303.998 212.357C303.601 211.669 303.891 210.584 304.579 210.187C305.266 209.791 306.351 210.081 306.748 210.769C307.145 211.456 306.854 212.541 306.167 212.938ZM313.043 208.968C312.355 209.365 311.27 209.074 310.873 208.387C310.476 207.699 310.767 206.615 311.455 206.218C312.142 205.821 313.227 206.111 313.624 206.799C314.021 207.486 313.73 208.571 313.043 208.968ZM319.919 204.998C319.231 205.395 318.146 205.105 317.749 204.417C317.352 203.729 317.643 202.645 318.331 202.248C319.018 201.851 320.103 202.141 320.5 202.829C320.897 203.517 320.606 204.601 319.919 204.998ZM326.795 201.028C326.107 201.425 325.022 201.135 324.625 200.447C324.228 199.76 324.519 198.675 325.207 198.278C325.894 197.881 326.979 198.172 327.376 198.859C327.773 199.547 327.482 200.631 326.795 201.028ZM333.67 197.059C332.983 197.456 331.898 197.165 331.501 196.477C331.104 195.79 331.395 194.705 332.083 194.308C332.77 193.911 333.855 194.202 334.252 194.889C334.649 195.577 334.358 196.662 333.67 197.059ZM340.546 193.089C339.859 193.486 338.774 193.195 338.377 192.508C337.98 191.82 338.271 190.735 338.958 190.338C339.646 189.941 340.731 190.232 341.128 190.92C341.525 191.607 341.234 192.692 340.546 193.089ZM347.422 189.119C346.735 189.516 345.65 189.225 345.253 188.538C344.856 187.85 345.147 186.766 345.834 186.369C346.522 185.972 347.607 186.262 348.004 186.95C348.401 187.637 348.11 188.722 347.422 189.119ZM354.298 185.149C353.611 185.546 352.526 185.255 352.129 184.568C351.732 183.88 352.023 182.796 352.71 182.399C353.398 182.002 354.483 182.292 354.88 182.98C355.277 183.668 354.986 184.752 354.298 185.149Z" fill="black"/>
<path d="M444.833 126.003L439.676 128.98L445.432 138.951L450.589 135.973L444.833 126.003Z" fill="black"/>
<path d="M427.136 137.825L392.412 157.873L396.878 165.608L431.602 145.561L427.136 137.825Z" fill="black"/>
<path d="M451.365 122.232L457.121 132.203L468.982 125.355L463.226 115.384L451.365 122.232ZM464.823 125.693L459.666 128.671C459.151 128.968 458.608 128.823 458.311 128.307C458.013 127.792 458.158 127.249 458.674 126.952L463.831 123.974C464.346 123.676 464.889 123.822 465.186 124.337C465.484 124.853 465.339 125.395 464.823 125.693ZM462.243 121.224L457.086 124.201C456.57 124.499 456.028 124.354 455.73 123.838C455.432 123.322 455.578 122.78 456.093 122.482L461.25 119.505C461.766 119.207 462.308 119.352 462.606 119.868C462.904 120.384 462.759 120.926 462.243 121.224Z" fill="black"/>
<path d="M450.44 124.598L447.346 126.385L451.613 133.776L454.707 131.99L450.44 124.598Z" fill="black"/>
<path d="M283.166 250.513C281.791 251.307 281.355 252.934 282.149 254.309C282.943 255.684 284.57 256.12 285.945 255.326C287.32 254.532 287.756 252.905 286.962 251.53C286.168 250.155 284.542 249.719 283.166 250.513Z" fill="black"/>
<path d="M397.211 174.125L392.57 176.804L396.44 183.508C397.815 182.714 401.082 180.829 401.082 180.829C401.082 180.829 405.367 181.105 405.386 179.948C405.67 177.263 402.024 171.346 400.027 170.665C399.015 170.104 397.211 174.125 397.211 174.125Z" fill="black"/>
<path d="M380.126 179.863L374.625 183.039L381.87 195.588L387.371 192.412L380.126 179.863Z" fill="black"/>
<path d="M372.012 182.486L366.512 185.662L375.642 201.477L381.044 198.129L372.012 182.486Z" fill="black"/>
<path d="M211.158 284.981C210.127 285.576 209.764 286.932 210.359 287.963C210.955 288.995 212.31 289.358 213.342 288.762C214.373 288.167 214.737 286.811 214.141 285.78C213.546 284.748 212.19 284.385 211.158 284.981Z" fill="black"/>
<path d="M388.452 158.555L381.919 162.327L380.53 159.92L373.039 164.016L381.673 178.971L389.065 174.703L387.775 172.469L394.651 168.499L395.159 166.601L390.693 158.865L388.452 158.555Z" fill="black"/>
<path d="M390.056 176.422L382.664 180.689L388.023 189.972L395.415 185.704L390.056 176.422Z" fill="black"/>
<path d="M438.255 130.488L428.457 136.145L433.717 145.255L443.515 139.598L438.255 130.488Z" fill="black"/>
<path d="M43.9002 359.315C40.9371 357.359 38.3905 354.933 34.0132 356.085C28.0623 357.687 28.1297 361.774 29.9161 364.868C31.8018 368.134 41.0863 368.733 45.3058 370.88C48.712 372.81 63.1202 390.62 67.9495 397C68.9154 398.276 70.6149 398.441 71.8909 397.475C72.5784 397.078 73.3387 396.41 74.1982 395.913L43.9002 359.315Z" fill="black"/>
<path d="M118.911 308.215C118.911 308.215 112.799 323.432 110.354 327.136C107.809 330.668 94.376 343.924 85.1324 346.969C75.9614 349.743 46.3858 359.255 46.3858 359.255L76.0157 395.093C87.1819 387.042 109.587 370.668 110.347 370C111.352 368.961 107.884 358.587 111.995 353.005C116.106 347.422 130.369 343.543 133.562 341.928C135.724 340.909 137.807 338.561 139.228 337.053C127.148 322.482 118.911 308.215 118.911 308.215ZM81.1441 385.714C81.2434 385.886 81.2434 385.886 81.1441 385.714C80.6284 386.012 80.0861 385.867 79.7157 385.622L64.9638 368.011C64.666 367.495 64.6394 367.052 65.0559 366.582C65.5716 366.285 66.0146 366.258 66.4842 366.674L81.2362 384.286C81.7059 384.702 81.6598 385.417 81.1441 385.714ZM84.4828 383.558C83.9671 383.855 83.4249 383.71 83.0545 383.465L69.2683 367.13C68.9706 366.614 68.944 366.171 69.3605 365.701C69.8762 365.404 70.3192 365.377 70.7888 365.794L84.575 382.129C84.9453 382.374 84.8993 383.088 84.4828 383.558ZM87.7223 381.229C87.2066 381.527 86.6643 381.381 86.2939 381.137L73.8441 366.322C73.5463 365.806 73.5198 365.363 73.9362 364.893C74.4519 364.596 74.8949 364.569 75.3646 364.985L87.8144 379.8C88.2841 380.217 88.1388 380.759 87.7223 381.229ZM90.9618 378.9C90.4461 379.198 89.9038 379.053 89.5334 378.808L78.4198 365.513C78.1221 364.998 78.0955 364.555 78.5119 364.085C79.0276 363.787 79.4707 363.761 79.9403 364.177L90.9547 377.3C91.5236 377.888 91.3783 378.431 90.9618 378.9Z" fill="black"/>
<path d="M184.198 323.237C184.198 323.237 184.37 323.138 184.27 322.966C181.004 324.852 179.682 326.532 179.048 327.815C181.231 331.596 187.778 331.026 189.669 329.934C189.669 329.934 189.741 329.663 189.569 329.762C183.485 329.149 182.955 326.246 184.198 323.237Z" fill="black"/>
<path d="M151.726 334.88C152.123 335.568 153.089 336.844 153.658 337.432C154.597 338.265 159.933 336.789 161.819 340.055C163.407 342.805 162.703 356.275 162.301 359.945C162.255 360.66 162.381 361.275 162.851 361.691L169.103 372.521C169.5 373.208 170.829 373.128 171.345 372.831L184.065 365.487C186.128 364.296 179.408 359.008 179.103 356.892C178.898 354.948 179.758 338.177 179.758 338.177C179.758 338.177 183.157 338.507 185.346 337.931C188.837 336.832 193.65 334.053 195.244 332.446C198.086 329.43 200.505 325.283 198.421 321.673L192.466 311.359L151.726 334.88ZM194.152 330.555C189.418 334.663 183.639 336.166 179.466 333.304C175.392 330.614 177.493 327.109 177.493 327.109C178.907 324 182.953 320.289 189.546 319.004C196.68 317.864 200.161 325.481 194.152 330.555Z" fill="black"/>
<path d="M312.034 220.322L307.564 222.902L313.916 233.904L318.386 231.323L312.034 220.322Z" fill="black"/>
<path d="M304.555 221.661L276.192 238.036L269.443 226.347C269.046 225.659 268.332 225.613 267.816 225.911L262.315 229.087L260.926 226.68C260.43 225.821 259.689 225.332 258.704 225.213L252.891 224.673C252.349 224.527 251.734 224.653 251.218 224.951L223.886 240.731C223.886 240.731 221.935 239.336 219.356 240.825L212.48 244.795L215.458 249.952L241.415 234.966L245.98 242.873L254.575 237.911L267.08 259.57L276.706 254.012C276.706 254.012 279.836 260.227 284.782 259.664C289.457 259.027 292.445 255.469 293.818 248.717L313.758 237.204L304.727 221.561L304.555 221.661ZM286.738 256.7C284.504 257.991 281.792 257.264 280.502 255.029C279.212 252.795 279.938 250.083 282.173 248.793C284.408 247.503 287.119 248.229 288.409 250.464C289.7 252.699 288.973 255.41 286.738 256.7Z" fill="black"/>
<path d="M348.905 196.056L345.467 198.041L349.734 205.433L353.172 203.448L348.905 196.056Z" fill="black"/>
<path d="M343.577 199.132L340.139 201.117L344.406 208.509L347.844 206.524L343.577 199.132Z" fill="black"/>
<path d="M333.262 205.087L329.824 207.072L334.092 214.464L337.53 212.479L333.262 205.087Z" fill="black"/>
<path d="M327.934 208.164L324.496 210.148L328.764 217.54L332.202 215.555L327.934 208.164Z" fill="black"/>
<path d="M338.42 202.109L334.982 204.094L339.25 211.485L342.688 209.5L338.42 202.109Z" fill="black"/>
<path d="M364.893 186.826L361.111 189.01L365.379 196.401L369.161 194.218L364.893 186.826Z" fill="black"/>
<path d="M354.063 193.078L350.625 195.062L354.893 202.454L358.331 200.469L354.063 193.078Z" fill="black"/>
<path d="M322.778 211.142L319.512 213.027L323.779 220.419L327.045 218.533L322.778 211.142Z" fill="black"/>
<path d="M359.391 190.001L355.953 191.986L360.221 199.378L363.659 197.393L359.391 190.001Z" fill="black"/>
<path d="M322.953 222.958L317.792 214.019L312.463 217.096L321.494 232.738L373.923 202.469L370.053 195.764L322.953 222.958Z" fill="black"/>
<path d="M214.56 252.764L210.69 246.06L206.736 248.342L207.53 249.717L206.327 250.412L205.533 249.037L203.298 250.327L204.092 251.702L202.889 252.397L202.095 251.022L199.86 252.312L200.654 253.687L199.451 254.382L198.657 253.007L196.422 254.297L197.216 255.672L196.013 256.367L195.219 254.992L192.984 256.282L193.778 257.657L192.575 258.352L191.781 256.977L189.546 258.267L190.34 259.642L189.137 260.337L188.343 258.961L186.108 260.252L186.902 261.627L185.699 262.322L184.905 260.946L182.67 262.237L183.464 263.612L182.261 264.307L181.467 262.931L179.232 264.222L180.026 265.597L178.823 266.291L178.029 264.916L175.794 266.206L176.588 267.582L175.385 268.276L174.591 266.901L172.356 268.191L173.15 269.567L171.947 270.261L171.153 268.886L168.918 270.176L169.712 271.551L168.509 272.246L167.715 270.871L165.48 272.161L166.274 273.536L165.071 274.231L164.277 272.856L162.042 274.146L162.836 275.521L161.633 276.216L160.839 274.841L152.072 279.902L159.516 292.795L244.09 243.966L240.517 237.777L214.56 252.764Z" fill="black"/>
<path d="M126.988 313.865C130.237 319.095 135.291 326.261 142.766 335.239C144.585 334.419 262.209 265.82 262.209 265.82L262.955 261.952L265.018 260.761L253.506 240.82L126.988 313.865ZM147.367 328.916C146.507 329.412 145.595 329.022 145.198 328.335C144.801 327.647 145.091 326.562 145.779 326.165C146.638 325.669 147.551 326.059 147.948 326.747C148.345 327.434 148.226 328.42 147.367 328.916ZM147.562 317.344C146.702 317.84 145.789 317.45 145.392 316.762C144.995 316.075 145.286 314.99 145.974 314.593C146.833 314.097 147.746 314.487 148.143 315.174C148.54 315.862 148.421 316.847 147.562 317.344ZM159.4 321.969C158.54 322.465 157.628 322.075 157.231 321.387C156.834 320.7 157.124 319.615 157.812 319.218C158.499 318.821 159.584 319.112 159.981 319.799C160.378 320.487 160.087 321.572 159.4 321.969ZM159.594 310.396C158.735 310.893 157.822 310.503 157.425 309.815C157.028 309.128 157.319 308.043 158.007 307.646C158.694 307.249 159.779 307.54 160.176 308.227C160.573 308.915 160.282 309.999 159.594 310.396ZM171.261 315.121C170.401 315.617 169.489 315.227 169.092 314.539C168.695 313.852 168.985 312.767 169.673 312.37C170.36 311.973 171.445 312.264 171.842 312.952C172.239 313.639 172.12 314.624 171.261 315.121ZM171.455 303.548C170.596 304.045 169.683 303.655 169.286 302.967C168.889 302.28 169.18 301.195 169.868 300.798C170.555 300.401 171.64 300.692 172.037 301.379C172.434 302.067 172.315 303.052 171.455 303.548ZM183.294 308.173C182.434 308.67 181.522 308.28 181.125 307.592C180.728 306.905 181.018 305.82 181.706 305.423C182.565 304.927 183.478 305.317 183.875 306.004C184.272 306.692 183.981 307.777 183.294 308.173ZM183.488 296.601C182.629 297.097 181.716 296.708 181.319 296.02C180.922 295.332 181.213 294.248 181.9 293.851C182.76 293.355 183.673 293.744 184.07 294.432C184.467 295.12 184.176 296.204 183.488 296.601ZM195.155 301.326C194.295 301.822 193.383 301.432 192.986 300.744C192.589 300.057 192.879 298.972 193.567 298.575C194.254 298.178 195.339 298.469 195.736 299.156C196.133 299.844 196.014 300.829 195.155 301.326ZM195.349 289.753C194.49 290.249 193.577 289.86 193.18 289.172C192.783 288.484 193.074 287.4 193.761 287.003C194.449 286.606 195.534 286.896 195.931 287.584C196.328 288.272 196.209 289.257 195.349 289.753ZM214.335 290.481C212.272 291.672 209.832 291.018 208.641 288.955C207.45 286.893 208.104 284.452 210.166 283.261C212.229 282.07 214.669 282.724 215.86 284.787C217.051 286.85 216.397 289.29 214.335 290.481ZM223.025 273.775C222.337 274.172 221.352 274.053 220.856 273.193C220.459 272.506 220.578 271.521 221.437 271.024C222.125 270.627 223.11 270.746 223.606 271.606C224.003 272.293 223.713 273.378 223.025 273.775ZM233.144 279.392C232.285 279.888 231.372 279.499 230.975 278.811C230.578 278.123 230.869 277.039 231.556 276.642C232.416 276.146 233.329 276.535 233.726 277.223C234.122 277.911 234.004 278.896 233.144 279.392ZM235.058 266.827C234.37 267.224 233.385 267.106 232.889 266.246C232.492 265.559 232.611 264.573 233.47 264.077C234.158 263.68 235.143 263.799 235.639 264.658C236.036 265.346 235.746 266.43 235.058 266.827ZM245.177 272.445C244.318 272.941 243.405 272.551 243.008 271.864C242.611 271.176 242.902 270.092 243.589 269.695C244.277 269.298 245.361 269.588 245.758 270.276C246.155 270.963 245.865 272.048 245.177 272.445ZM247.091 259.88C246.403 260.277 245.418 260.159 244.922 259.299C244.525 258.611 244.643 257.626 245.503 257.13C246.191 256.733 247.176 256.852 247.672 257.711C248.069 258.399 247.778 259.483 247.091 259.88ZM257.038 265.597C256.179 266.093 255.266 265.703 254.869 265.016C254.472 264.328 254.763 263.244 255.45 262.847C256.138 262.45 257.222 262.74 257.619 263.428C258.016 264.116 257.898 265.101 257.038 265.597Z" fill="black"/>
</svg>
