<svg width="512" height="512" viewBox="0 0 512 512" fill="none" xmlns="http://www.w3.org/2000/svg">
<path d="M236.448 212.887C238.036 212.887 240.021 210.306 241.808 210.306C243.793 210.306 249.747 212.887 255.305 212.887C260.863 212.887 265.031 210.306 267.016 210.306C269.001 210.306 270.192 213.085 271.581 214.276C272.177 214.673 273.169 214.673 273.368 214.673H275.353V198H273.368C272.772 198 271.978 198.198 271.581 198.595C270.391 199.588 268.604 201.97 267.016 201.97C265.031 201.97 260.664 199.786 255.305 199.786C250.144 199.786 243.396 201.97 242.006 201.97C240.021 201.97 238.632 199.786 236.647 199.786C234.662 199.786 235.059 212.887 236.448 212.887Z" fill="black"/>
<path d="M152.288 230.553H115.567C115.567 232.141 115.368 236.111 115.567 239.683H152.288V230.553Z" fill="black"/>
<path d="M152.288 228.567V224.597H125.889V220.627C125.095 220.627 124.301 220.627 123.507 220.825C122.118 221.222 121.125 222.413 121.125 223.803C121.125 225.788 120.927 226.979 121.125 228.368H152.288V228.567Z" fill="black"/>
<path d="M401.593 248.417V238.691H387.104V248.417H401.593Z" fill="black"/>
<path d="M277.934 203.558V209.116H280.315C280.712 209.116 281.308 209.513 281.308 210.108V230.95C281.308 231.744 281.705 232.736 282.102 233.332L284.484 236.11L284.682 248.814H296.393V237.103C296.393 236.11 295.599 234.721 294.21 234.126C293.019 233.729 289.446 232.141 287.263 231.148C286.072 230.553 285.278 229.362 285.278 227.972V204.55C285.278 203.955 284.682 203.359 284.087 203.359H277.934V203.558Z" fill="black"/>
<path d="M376.783 232.141V234.523H372.813V232.141H367.255V234.523H363.285V232.141H357.728V234.523H353.758V232.141H348.2V234.523H344.23V232.141H338.672V234.523H334.703V232.141H329.145V234.523H325.175V232.141H319.617V234.523H315.647V232.141H310.09V234.523H306.12V232.141H299.371V248.417H385.119V232.141H376.783ZM305.326 243.852C304.532 243.852 303.738 243.058 303.738 242.264C303.738 241.47 304.532 240.676 305.326 240.676C306.12 240.676 306.914 241.47 306.914 242.264C306.914 243.058 306.12 243.852 305.326 243.852ZM313.265 243.852C312.472 243.852 311.678 243.058 311.678 242.264C311.678 241.47 312.472 240.676 313.265 240.676C314.059 240.676 314.853 241.47 314.853 242.264C314.853 243.058 314.059 243.852 313.265 243.852ZM321.205 243.852C320.411 243.852 319.617 243.058 319.617 242.264C319.617 241.47 320.411 240.676 321.205 240.676C321.999 240.676 322.793 241.47 322.793 242.264C322.793 243.058 321.999 243.852 321.205 243.852ZM329.145 243.852C328.351 243.852 327.557 243.058 327.557 242.264C327.557 241.47 328.351 240.676 329.145 240.676C329.939 240.676 330.733 241.47 330.733 242.264C330.733 243.058 329.939 243.852 329.145 243.852ZM337.084 243.852C336.291 243.852 335.497 243.058 335.497 242.264C335.497 241.47 336.291 240.676 337.084 240.676C337.878 240.676 338.672 241.47 338.672 242.264C338.672 243.058 337.878 243.852 337.084 243.852ZM345.024 243.852C344.23 243.852 343.436 243.058 343.436 242.264C343.436 241.47 344.23 240.676 345.024 240.676C345.818 240.676 346.612 241.47 346.612 242.264C346.612 243.058 345.818 243.852 345.024 243.852ZM352.964 243.852C352.17 243.852 351.376 243.058 351.376 242.264C351.376 241.47 352.17 240.676 352.964 240.676C353.758 240.676 354.552 241.47 354.552 242.264C354.552 243.058 353.758 243.852 352.964 243.852ZM360.903 243.852C360.109 243.852 359.315 243.058 359.315 242.264C359.315 241.47 360.109 240.676 360.903 240.676C361.697 240.676 362.491 241.47 362.491 242.264C362.491 243.058 361.697 243.852 360.903 243.852ZM368.843 243.852C368.049 243.852 367.255 243.058 367.255 242.264C367.255 241.47 368.049 240.676 368.843 240.676C369.637 240.676 370.431 241.47 370.431 242.264C370.431 243.058 369.637 243.852 368.843 243.852ZM376.783 243.852C375.989 243.852 375.195 243.058 375.195 242.264C375.195 241.47 375.989 240.676 376.783 240.676C377.577 240.676 378.371 241.47 378.371 242.264C378.371 243.058 377.577 243.852 376.783 243.852Z" fill="black"/>
<path d="M484.761 237.896H478.807V249.409H484.761V237.896Z" fill="black"/>
<path d="M463.523 239.285H423.428V248.217H463.523V239.285Z" fill="black"/>
<path d="M492.305 237.896V249.409H506.001V237.896H492.305ZM502.229 247.623H496.275C495.679 247.623 495.282 247.226 495.282 246.63C495.282 246.035 495.679 245.638 496.275 245.638H502.229C502.825 245.638 503.222 246.035 503.222 246.63C503.222 247.226 502.825 247.623 502.229 247.623ZM502.229 242.462H496.275C495.679 242.462 495.282 242.065 495.282 241.469C495.282 240.874 495.679 240.477 496.275 240.477H502.229C502.825 240.477 503.222 240.874 503.222 241.469C503.222 242.065 502.825 242.462 502.229 242.462Z" fill="black"/>
<path d="M490.319 239.484H486.746V248.02H490.319V239.484Z" fill="black"/>
<path d="M282.498 264.893C280.91 264.893 279.719 266.084 279.719 267.671C279.719 269.259 280.91 270.45 282.498 270.45C284.086 270.45 285.277 269.259 285.277 267.671C285.277 266.084 284.086 264.893 282.498 264.893Z" fill="black"/>
<path d="M419.457 255.76H414.098V263.502C415.686 263.502 419.457 263.502 419.457 263.502C419.457 263.502 423.03 265.884 423.625 264.891C425.213 262.708 425.015 255.76 423.625 254.173C423.03 253.18 419.457 255.76 419.457 255.76Z" fill="black"/>
<path d="M401.791 252.188H395.439V266.677H401.791V252.188Z" fill="black"/>
<path d="M393.455 250.402H387.104V268.664L393.455 268.465V250.402Z" fill="black"/>
<path d="M202.904 258.738C201.713 258.738 200.721 259.731 200.721 260.922C200.721 262.113 201.713 263.105 202.904 263.105C204.095 263.105 205.088 262.113 205.088 260.922C205.088 259.731 204.095 258.738 202.904 258.738Z" fill="black"/>
<path d="M419.656 237.897H412.113V235.118L403.578 234.92V252.189H412.113V249.608H420.053L421.442 248.219V239.287L419.656 237.897Z" fill="black"/>
<path d="M412.113 254.172H403.578V264.89H412.113V254.172Z" fill="black"/>
<path d="M476.822 238.492H465.508V249.012H476.822V238.492Z" fill="black"/>
<path d="M20.8869 239.484C19.2989 236.309 18.3065 232.934 13.9397 231.743C7.98491 230.155 6 233.728 6 237.301C6 241.072 13.7412 246.233 16.3216 250.203C18.3065 253.577 21.8793 276.205 22.8718 284.145C23.0703 285.733 24.4597 286.725 26.0476 286.527C26.8416 286.527 27.8341 286.328 28.8265 286.328L20.8869 239.484Z" fill="black"/>
<path d="M111.399 232.736C111.399 232.736 98.4971 242.859 94.5272 244.844C90.5574 246.631 72.2962 251.395 62.7686 249.41C53.4395 247.226 23.0703 240.676 23.0703 240.676L30.8115 286.528C44.5074 285.138 72.0977 282.161 73.0902 281.962C74.4796 281.565 76.663 270.847 83.0147 268.068C89.3665 265.289 103.658 269.06 107.231 269.259C109.613 269.457 112.59 268.465 114.575 267.869C111.399 249.211 111.399 232.736 111.399 232.736ZM39.9421 280.97C39.9421 281.168 39.9421 281.168 39.9421 280.97C39.3466 280.97 38.9496 280.573 38.7511 280.176L34.7813 257.548C34.7813 256.952 34.9798 256.555 35.5753 256.357C36.1707 256.357 36.5677 256.555 36.7662 257.151L40.7361 279.779C40.9345 280.374 40.5376 280.97 39.9421 280.97ZM43.9119 280.771C43.3164 280.771 42.9195 280.374 42.721 279.977L38.9496 258.937C38.9496 258.342 39.1481 257.945 39.7436 257.746C40.3391 257.746 40.7361 257.945 40.9345 258.54L44.7059 279.58C44.9044 279.977 44.5074 280.573 43.9119 280.771ZM47.8817 280.374C47.2863 280.374 46.8893 279.977 46.6908 279.58L43.3164 260.525C43.3164 259.93 43.5149 259.533 44.1104 259.334C44.7059 259.334 45.1029 259.533 45.3014 260.128L48.6757 279.183C48.8742 279.779 48.4772 280.176 47.8817 280.374ZM51.8516 279.977C51.2561 279.977 50.8591 279.58 50.6606 279.183L47.6833 262.113C47.6833 261.518 47.8817 261.121 48.4772 260.922C49.0727 260.922 49.4697 261.121 49.6682 261.716L52.6455 278.588C52.844 279.382 52.4471 279.779 51.8516 279.977Z" fill="black"/>
<path d="M160.426 278.388C160.426 278.388 160.625 278.388 160.625 278.189C156.854 278.189 154.869 278.983 153.678 279.777C153.678 284.144 159.632 286.923 161.816 286.923C161.816 286.923 162.014 286.725 161.816 286.725C156.854 283.152 157.846 280.373 160.426 278.388Z" fill="black"/>
<path d="M126.484 272.236C126.484 273.03 126.682 274.618 126.881 275.412C127.278 276.603 132.637 277.993 132.637 281.764C132.637 284.94 125.293 296.254 123.11 299.231C122.713 299.827 122.514 300.422 122.713 301.018V313.523C122.713 314.317 123.904 314.912 124.499 314.912H139.187C141.569 314.912 138.393 306.972 139.187 304.987C139.981 303.201 149.112 289.108 149.112 289.108C149.112 289.108 151.891 291.093 154.074 291.688C157.647 292.482 163.205 292.482 165.388 291.887C169.358 290.696 173.526 288.314 173.526 284.146V272.236H126.484ZM165.388 289.704C159.235 290.895 153.479 289.307 151.295 284.741C149.112 280.374 152.685 278.39 152.685 278.39C155.464 276.405 160.823 275.214 167.175 277.397C173.923 279.977 173.129 288.314 165.388 289.704Z" fill="black"/>
<path d="M322.594 253.18H317.434V265.883H322.594V253.18Z" fill="black"/>
<path d="M315.449 250.6H282.698V237.103C282.698 236.309 282.102 235.912 281.507 235.912H275.155V233.133C275.155 232.14 274.758 231.346 273.964 230.751L269.2 227.377C268.803 226.98 268.208 226.781 267.612 226.781H236.052C236.052 226.781 235.06 224.598 232.082 224.598H224.143V230.552H254.115V239.683H264.039V264.693H275.155C275.155 264.693 274.758 271.64 279.323 273.625C283.69 275.411 288.057 273.824 292.622 268.663H315.647V250.6H315.449ZM282.499 272.037C279.919 272.037 277.934 270.052 277.934 267.472C277.934 264.891 279.919 262.907 282.499 262.907C285.079 262.907 287.064 264.891 287.064 267.472C287.064 270.052 285.079 272.037 282.499 272.037Z" fill="black"/>
<path d="M366.659 250.6H362.689V259.135H366.659V250.6Z" fill="black"/>
<path d="M360.505 250.6H356.535V259.135H360.505V250.6Z" fill="black"/>
<path d="M348.597 250.6H344.627V259.135H348.597V250.6Z" fill="black"/>
<path d="M342.442 250.6H338.473V259.135H342.442V250.6Z" fill="black"/>
<path d="M354.552 250.6H350.582V259.135H354.552V250.6Z" fill="black"/>
<path d="M385.119 250.6H380.752V259.135H385.119V250.6Z" fill="black"/>
<path d="M372.614 250.6H368.645V259.135H372.614V250.6Z" fill="black"/>
<path d="M336.488 250.6H332.717V259.135H336.488V250.6Z" fill="black"/>
<path d="M378.767 250.6H374.797V259.135H378.767V250.6Z" fill="black"/>
<path d="M330.731 260.921V250.6H324.578V268.662H385.118V260.921H330.731Z" fill="black"/>
<path d="M221.959 232.538V224.797H217.394V226.385H216.004V224.797H213.424V226.385H212.034V224.797H209.454V226.385H208.065V224.797H205.484V226.385H204.095V224.797H201.514V226.385H200.125V224.797H197.545V226.385H196.155V224.797H193.575V226.385H192.185V224.797H189.605V226.385H188.215V224.797H185.635V226.385H184.246V224.797H181.665V226.385H180.276V224.797H177.695V226.385H176.306V224.797H173.726V226.385H172.336V224.797H169.756V226.385H168.366V224.797H165.786V226.385H164.397V224.797H154.273V239.684H251.931V232.538H221.959Z" fill="black"/>
<path d="M115.566 241.668C115.765 247.821 116.559 256.555 118.544 268.067C120.529 268.266 256.694 267.67 256.694 267.67L259.274 264.693H261.656V241.668H115.566ZM125.689 264.891C124.697 264.891 124.102 264.098 124.102 263.304C124.102 262.51 124.896 261.716 125.689 261.716C126.682 261.716 127.277 262.51 127.277 263.304C127.277 264.098 126.682 264.891 125.689 264.891ZM131.644 254.967C130.652 254.967 130.056 254.173 130.056 253.379C130.056 252.585 130.85 251.791 131.644 251.791C132.637 251.791 133.232 252.585 133.232 253.379C133.232 254.173 132.637 254.967 131.644 254.967ZM139.584 264.891C138.591 264.891 137.996 264.098 137.996 263.304C137.996 262.51 138.79 261.716 139.584 261.716C140.378 261.716 141.172 262.51 141.172 263.304C141.172 264.098 140.378 264.891 139.584 264.891ZM145.539 254.967C144.546 254.967 143.951 254.173 143.951 253.379C143.951 252.585 144.745 251.791 145.539 251.791C146.333 251.791 147.127 252.585 147.127 253.379C147.127 254.173 146.333 254.967 145.539 254.967ZM153.28 264.891C152.287 264.891 151.692 264.098 151.692 263.304C151.692 262.51 152.486 261.716 153.28 261.716C154.074 261.716 154.868 262.51 154.868 263.304C154.868 264.098 154.272 264.891 153.28 264.891ZM159.235 254.967C158.242 254.967 157.647 254.173 157.647 253.379C157.647 252.585 158.441 251.791 159.235 251.791C160.028 251.791 160.822 252.585 160.822 253.379C160.822 254.173 160.227 254.967 159.235 254.967ZM167.174 264.891C166.182 264.891 165.586 264.098 165.586 263.304C165.586 262.51 166.38 261.716 167.174 261.716C168.167 261.716 168.762 262.51 168.762 263.304C168.762 264.098 167.968 264.891 167.174 264.891ZM173.129 254.967C172.136 254.967 171.541 254.173 171.541 253.379C171.541 252.585 172.335 251.791 173.129 251.791C174.121 251.791 174.717 252.585 174.717 253.379C174.717 254.173 173.923 254.967 173.129 254.967ZM180.87 264.891C179.878 264.891 179.282 264.098 179.282 263.304C179.282 262.51 180.076 261.716 180.87 261.716C181.664 261.716 182.458 262.51 182.458 263.304C182.458 264.098 181.863 264.891 180.87 264.891ZM186.825 254.967C185.832 254.967 185.237 254.173 185.237 253.379C185.237 252.585 186.031 251.791 186.825 251.791C187.619 251.791 188.413 252.585 188.413 253.379C188.413 254.173 187.817 254.967 186.825 254.967ZM202.903 265.09C200.521 265.09 198.734 263.304 198.734 260.922C198.734 258.54 200.521 256.753 202.903 256.753C205.285 256.753 207.071 258.54 207.071 260.922C207.071 263.304 205.285 265.09 202.903 265.09ZM218.782 254.967C217.988 254.967 217.194 254.371 217.194 253.379C217.194 252.585 217.789 251.791 218.782 251.791C219.576 251.791 220.37 252.387 220.37 253.379C220.37 254.173 219.576 254.967 218.782 254.967ZM224.737 264.891C223.744 264.891 223.149 264.098 223.149 263.304C223.149 262.51 223.943 261.716 224.737 261.716C225.729 261.716 226.325 262.51 226.325 263.304C226.325 264.098 225.729 264.891 224.737 264.891ZM232.676 254.967C231.882 254.967 231.088 254.371 231.088 253.379C231.088 252.585 231.684 251.791 232.676 251.791C233.47 251.791 234.264 252.387 234.264 253.379C234.264 254.173 233.47 254.967 232.676 254.967ZM238.631 264.891C237.639 264.891 237.043 264.098 237.043 263.304C237.043 262.51 237.837 261.716 238.631 261.716C239.425 261.716 240.219 262.51 240.219 263.304C240.219 264.098 239.425 264.891 238.631 264.891ZM246.571 254.967C245.777 254.967 244.983 254.371 244.983 253.379C244.983 252.585 245.578 251.791 246.571 251.791C247.365 251.791 248.159 252.387 248.159 253.379C248.159 254.173 247.365 254.967 246.571 254.967ZM252.327 264.891C251.335 264.891 250.739 264.098 250.739 263.304C250.739 262.51 251.533 261.716 252.327 261.716C253.121 261.716 253.915 262.51 253.915 263.304C253.915 264.098 253.319 264.891 252.327 264.891Z" fill="black"/>
</svg>
