<svg width="512" height="512" viewBox="0 0 512 512" fill="none" xmlns="http://www.w3.org/2000/svg">
<path d="M127.209 319.133C125.298 320.446 124.089 322.551 124.074 324.879V326.073C124.074 328.611 125.298 330.73 127.209 332.043C128.85 333.178 129.955 335.043 130.059 337.178H179.656C179.776 334.984 180.94 333.058 182.671 331.939C184.686 330.626 185.985 328.476 185.985 326.073V325.118C185.985 322.715 184.671 320.566 182.671 319.252C181.149 318.252 180.059 316.655 179.746 314.805H129.97C129.671 316.596 128.656 318.148 127.209 319.133Z" fill="black"/>
<path d="M183.97 343.791C181.791 342.97 180.149 341.03 179.746 338.672H129.985C129.597 340.955 128.06 342.821 125.97 343.687C124.836 344.164 124.06 345.224 124.045 346.463L124 390.523C124 392.179 125.328 393.508 126.985 393.508H183.015C184.657 393.508 186 392.164 186 390.523V346.612C186 345.329 185.164 344.239 183.97 343.791Z" fill="black"/>
<path d="M182.673 308.059C184.688 306.745 185.986 304.596 185.986 302.193V301.238C185.986 298.835 184.688 296.686 182.673 295.372C181.046 294.313 179.911 292.551 179.688 290.521H130.046C129.822 292.477 128.762 294.178 127.225 295.253C125.329 296.581 124.12 298.671 124.105 300.984V302.208C124.105 304.745 125.314 306.85 127.225 308.178C128.867 309.327 129.956 311.178 130.061 313.298H179.658C179.777 311.104 180.941 309.193 182.673 308.059Z" fill="black"/>
<path d="M127.237 284.312C128.775 285.387 129.819 287.073 130.043 289.029H179.685C179.909 286.999 181.043 285.253 182.67 284.178C184.685 282.864 185.984 280.715 185.984 278.312V277.357C185.984 274.954 184.685 272.805 182.67 271.491C181.043 270.432 179.909 268.67 179.685 266.641H130.043C129.819 268.596 128.775 270.297 127.237 271.357C125.342 272.685 124.148 274.775 124.133 277.073V278.327C124.133 280.879 125.342 282.984 127.237 284.312Z" fill="black"/>
<path d="M124.193 213.835C127.417 159.298 147.432 96.4922 147.432 96.4922H163.641C170.402 114.358 183.328 170.209 185.91 213.835L185.984 229.328H185.91L185.984 255.835C185.984 257.522 185.059 259.119 183.522 259.82C181.447 260.776 179.954 262.776 179.686 265.149H130.029C129.775 262.88 128.387 260.955 126.447 259.955C124.999 259.209 124.148 257.671 124.148 256.044L124.178 229.328V213.835H124.193Z" fill="black"/>
<path d="M218.302 344.339C215.742 346.099 214.122 348.919 214.102 352.039V353.639C214.102 357.039 215.742 359.879 218.302 361.639C220.502 363.159 221.982 365.659 222.122 368.519H288.582C288.742 365.579 290.302 362.999 292.622 361.499C295.322 359.739 297.062 356.859 297.062 353.639V352.359C297.062 349.139 295.302 346.259 292.622 344.499C290.582 343.159 289.122 341.019 288.702 338.539H222.002C221.602 340.939 220.242 343.019 218.302 344.339Z" fill="black"/>
<path d="M294.36 377.38C291.44 376.28 289.24 373.68 288.7 370.52H222.02C221.5 373.58 219.44 376.08 216.64 377.24C215.12 377.88 214.08 379.3 214.06 380.96L214 440C214 442.22 215.78 444 218 444H293.08C295.28 444 297.08 442.2 297.08 440V381.16C297.08 379.44 295.96 377.98 294.36 377.38Z" fill="black"/>
<path d="M292.621 329.5C295.321 327.74 297.061 324.86 297.061 321.64V320.36C297.061 317.14 295.321 314.26 292.621 312.5C290.441 311.08 288.921 308.72 288.621 306H222.101C221.801 308.62 220.381 310.9 218.321 312.34C215.781 314.12 214.161 316.92 214.141 320.02V321.66C214.141 325.06 215.761 327.88 218.321 329.66C220.521 331.2 221.981 333.68 222.121 336.52H288.581C288.741 333.58 290.301 331.02 292.621 329.5Z" fill="black"/>
<path d="M218.34 297.68C220.4 299.12 221.8 301.38 222.1 304H288.62C288.92 301.28 290.44 298.94 292.62 297.5C295.32 295.74 297.06 292.86 297.06 289.64V288.36C297.06 285.14 295.32 282.26 292.62 280.5C290.44 279.08 288.92 276.72 288.62 274H222.1C221.8 276.62 220.4 278.9 218.34 280.32C215.8 282.1 214.2 284.9 214.18 287.98V289.66C214.18 293.08 215.8 295.9 218.34 297.68Z" fill="black"/>
<path d="M214.259 203.24C218.579 130.16 245.399 46 245.399 46H267.119C276.179 69.94 293.499 144.78 296.959 203.24L297.059 224H296.959L297.059 259.52C297.059 261.78 295.819 263.92 293.759 264.86C290.979 266.14 288.979 268.82 288.619 272H222.079C221.739 268.96 219.879 266.38 217.279 265.04C215.339 264.04 214.199 261.98 214.199 259.8L214.239 224V203.24H214.259Z" fill="black"/>
<path d="M328.287 319.133C326.376 320.446 325.167 322.551 325.152 324.879V326.073C325.152 328.611 326.376 330.73 328.287 332.043C329.928 333.178 331.033 335.043 331.137 337.178H380.734C380.854 334.984 382.018 333.058 383.749 331.939C385.764 330.626 387.063 328.476 387.063 326.073V325.118C387.063 322.715 385.749 320.566 383.749 319.252C382.227 318.252 381.137 316.655 380.824 314.805H331.048C330.749 316.596 329.734 318.148 328.287 319.133Z" fill="black"/>
<path d="M385.048 343.791C382.869 342.97 381.227 341.03 380.824 338.672H331.063C330.675 340.955 329.138 342.821 327.048 343.687C325.914 344.164 325.138 345.224 325.123 346.463L325.078 390.523C325.078 392.179 326.406 393.508 328.063 393.508H384.093C385.735 393.508 387.078 392.164 387.078 390.523V346.612C387.078 345.329 386.242 344.239 385.048 343.791Z" fill="black"/>
<path d="M383.751 308.059C385.766 306.745 387.064 304.596 387.064 302.193V301.238C387.064 298.835 385.766 296.686 383.751 295.372C382.124 294.313 380.99 292.551 380.766 290.521H331.124C330.9 292.477 329.84 294.178 328.303 295.253C326.407 296.581 325.199 298.671 325.184 300.984V302.208C325.184 304.745 326.393 306.85 328.303 308.178C329.945 309.327 331.034 311.178 331.139 313.298H380.736C380.855 311.104 382.019 309.193 383.751 308.059Z" fill="black"/>
<path d="M328.315 284.312C329.853 285.387 330.898 287.073 331.121 289.029H380.763C380.987 286.999 382.121 285.253 383.748 284.178C385.763 282.864 387.062 280.715 387.062 278.312V277.357C387.062 274.954 385.763 272.805 383.748 271.491C382.121 270.432 380.987 268.67 380.763 266.641H331.121C330.898 268.596 329.853 270.297 328.315 271.357C326.42 272.685 325.226 274.775 325.211 277.073V278.327C325.211 280.879 326.42 282.984 328.315 284.312Z" fill="black"/>
<path d="M325.271 213.835C328.495 159.298 348.51 96.4922 348.51 96.4922H364.719C371.48 114.358 384.406 170.209 386.988 213.835L387.062 229.328H386.988L387.062 255.835C387.062 257.522 386.137 259.119 384.6 259.82C382.525 260.776 381.032 262.776 380.764 265.149H331.107C330.853 262.88 329.465 260.955 327.525 259.955C326.077 259.209 325.227 257.671 325.227 256.044L325.256 229.328V213.835H325.271Z" fill="black"/>
</svg>
