<svg width="512" height="512" viewBox="0 0 512 512" fill="none" xmlns="http://www.w3.org/2000/svg">
<path d="M245.137 349.221C246.737 346.741 249.377 345.301 252.137 345.161C255.357 344.981 258.317 343.361 259.917 340.581L260.557 339.481C262.157 336.701 262.097 333.321 260.637 330.441C260.617 330.401 260.597 330.341 260.577 330.301L286.757 345.421C286.037 347.381 286.177 349.521 287.097 351.321C288.297 353.701 288.357 356.481 287.037 358.801L286.517 359.721C285.177 362.021 282.737 363.381 280.077 363.521C277.777 363.641 275.597 364.841 274.277 366.881L245.137 349.361V349.221Z" fill="black"/>
<path d="M228.238 378.719C227.138 381.719 227.738 385.059 229.718 387.479C230.798 388.799 231.038 390.619 230.178 392.119L220.918 408.159L246.278 422.799C247.858 423.719 249.878 423.179 250.798 421.579L275.138 379.419C275.838 378.199 275.658 376.679 274.758 375.579C273.118 373.579 272.618 370.819 273.538 368.319L244.158 351.359C243.418 353.639 243.618 356.059 244.658 358.119C246.118 360.999 246.178 364.359 244.578 367.159L243.938 368.259C242.318 371.059 239.378 372.679 236.158 372.839C233.378 372.999 230.758 374.439 229.138 376.899" fill="black"/>
<path d="M260.438 322.779C259.718 324.439 259.538 326.219 259.838 327.919L287.538 343.899C288.858 341.859 291.038 340.659 293.338 340.539C295.998 340.399 298.438 339.059 299.778 336.739L300.298 335.819C301.638 333.519 301.578 330.719 300.358 328.339C299.378 326.419 299.278 324.099 300.178 322.019L277.578 308.959C277.398 309.899 277.078 310.819 276.578 311.699L275.938 312.799C274.338 315.579 271.378 317.219 268.158 317.379C265.558 317.519 263.078 318.799 261.438 320.999" fill="black"/>
<path d="M276.438 295.081C275.338 297.581 275.478 300.381 276.658 302.701C277.378 304.121 277.758 305.661 277.758 307.201L301.018 320.621C302.358 318.801 304.418 317.741 306.578 317.621C309.238 317.481 311.678 316.141 313.018 313.821L313.538 312.901C314.878 310.601 314.818 307.801 313.598 305.421C312.618 303.501 312.518 301.181 313.418 299.101L291.238 286.301L290.978 286.741C289.838 288.701 287.698 289.921 285.458 289.721C282.398 289.441 279.338 290.761 277.438 293.321" fill="black"/>
<path d="M376.779 117.84C376.779 117.84 369.839 124.18 359.399 134.6C349.519 166.48 334.979 206.12 319.019 237.98L308.719 256.02L308.639 255.96L292.039 284.9L314.239 297.72C315.799 295.58 318.339 294.5 320.879 294.74C322.739 294.92 324.519 293.9 325.439 292.28L340.059 266.78L340.139 266.82L348.659 251.9C370.379 208.58 388.919 147.78 392.339 126.86L376.779 117.84Z" fill="black"/>
<path d="M227.876 368.86C231.096 368.68 234.056 367.06 235.656 364.28L236.296 363.18C237.916 360.4 237.836 357.02 236.376 354.14C235.336 352.08 235.136 349.64 235.876 347.38C235.916 347.26 235.916 347.14 235.976 347.02L178.216 313.68C176.656 315.56 174.436 316.68 172.096 316.86C168.996 317.12 166.176 318.74 164.616 321.42L163.816 322.8C162.116 325.76 162.116 329.02 163.456 331.84C164.596 334.26 164.636 337.16 163.336 339.7L196.956 359.12L220.876 372.94C222.476 370.44 225.096 369 227.876 368.86Z" fill="black"/>
<path d="M221.437 383.481C219.457 381.061 218.857 377.721 219.957 374.721L195.937 360.861L162.217 341.381C160.237 343.761 157.197 344.901 154.197 344.521C152.557 344.301 150.937 345.021 150.117 346.461L120.537 397.521C119.437 399.441 120.077 401.881 121.997 402.981L187.017 440.521C188.937 441.621 191.377 440.961 192.477 439.061L212.637 404.141L221.897 388.101C222.757 386.621 222.517 384.801 221.437 383.481Z" fill="black"/>
<path d="M252.155 318.78L232.175 307.24L194.535 285.52C192.975 287.64 190.595 288.9 188.095 289.12C185.015 289.38 182.195 291 180.635 293.68L179.815 295.1C178.115 298.04 178.115 301.3 179.435 304.12C180.575 306.54 180.595 309.42 179.295 311.96L218.615 334.66L236.855 345.18C238.455 342.7 241.095 341.26 243.855 341.12C247.075 340.94 250.035 339.32 251.635 336.54L252.275 335.44C253.875 332.66 253.815 329.28 252.355 326.4C252.335 326.36 252.315 326.3 252.295 326.26C251.935 325.52 251.675 324.72 251.535 323.92C251.255 322.24 251.435 320.46 252.155 318.78Z" fill="black"/>
<path d="M268.157 291.08L244.497 277.42L210.537 257.82C208.977 259.94 206.617 261.2 204.117 261.42C201.037 261.68 198.237 263.3 196.697 265.98L195.857 267.44C194.157 270.38 194.157 273.64 195.457 276.44C196.517 278.7 196.617 281.38 195.557 283.8L231.197 304.38L253.157 317.06C254.777 314.86 257.257 313.58 259.877 313.44C263.097 313.26 266.057 311.64 267.657 308.86L268.297 307.76C268.797 306.9 269.117 305.98 269.297 305.02C269.417 304.42 269.477 303.82 269.477 303.22C269.477 301.68 269.097 300.14 268.377 298.72C267.197 296.38 267.057 293.58 268.157 291.08Z" fill="black"/>
<path d="M300.456 252L310.756 233.96C326.716 202.12 341.256 162.46 351.136 130.58C357.496 110.06 361.916 92.76 363.536 82.86L344.736 72C344.736 72 279.416 131.48 239.136 192.6L228.756 210.58L210.816 241.58C209.736 243.46 209.676 245.82 210.856 247.64C212.456 250.1 212.756 253.26 211.536 256.06L245.296 275.56L269.156 289.34C271.056 286.76 274.116 285.46 277.176 285.74C279.436 285.94 281.576 284.72 282.696 282.76L282.956 282.32L283.776 280.88L300.376 251.94L300.456 252Z" fill="black"/>
</svg>
