<svg width="512" height="512" viewBox="0 0 512 512" fill="none" xmlns="http://www.w3.org/2000/svg">
<path d="M157.661 108.3C155.901 105.74 153.081 104.12 149.961 104.1H148.361C144.961 104.1 142.121 105.74 140.361 108.3C138.841 110.5 136.341 111.98 133.481 112.12V178.58C136.421 178.74 139.001 180.3 140.501 182.62C142.261 185.32 145.141 187.06 148.361 187.06H149.641C152.861 187.06 155.741 185.3 157.501 182.62C158.841 180.58 160.981 179.12 163.461 178.7V112C161.061 111.6 158.981 110.24 157.661 108.3Z" fill="black"/>
<path d="M124.62 184.36C125.72 181.44 128.32 179.24 131.48 178.7V112.02C128.42 111.5 125.92 109.44 124.76 106.64C124.12 105.12 122.7 104.08 121.04 104.06L62.0005 104C59.7805 104 58.0005 105.78 58.0005 108V183.08C58.0005 185.28 59.8005 187.08 62.0005 187.08H120.84C122.56 187.08 124.02 185.96 124.62 184.36Z" fill="black"/>
<path d="M172.5 182.621C174.26 185.321 177.14 187.061 180.36 187.061H181.64C184.86 187.061 187.74 185.321 189.5 182.621C190.92 180.441 193.28 178.921 196 178.621V112.101C193.38 111.801 191.1 110.381 189.66 108.321C187.88 105.781 185.08 104.161 181.98 104.141H180.34C176.94 104.141 174.12 105.761 172.34 108.321C170.8 110.521 168.32 111.981 165.48 112.121V178.581C168.42 178.741 170.98 180.301 172.5 182.621Z" fill="black"/>
<path d="M204.32 108.34C202.88 110.4 200.62 111.8 198 112.1V178.62C200.72 178.92 203.06 180.44 204.5 182.62C206.26 185.32 209.14 187.06 212.36 187.06H213.64C216.86 187.06 219.74 185.32 221.5 182.62C222.92 180.44 225.28 178.92 228 178.62V112.1C225.38 111.8 223.1 110.4 221.68 108.34C219.9 105.8 217.1 104.2 214.02 104.18H212.34C208.92 104.18 206.1 105.8 204.32 108.34Z" fill="black"/>
<path d="M298.76 104.259C371.84 108.579 456 135.399 456 135.399V157.119C432.06 166.179 357.22 183.499 298.76 186.959L278 187.059V186.959L242.48 187.059C240.22 187.059 238.08 185.819 237.14 183.759C235.86 180.979 233.18 178.979 230 178.619V112.079C233.04 111.739 235.62 109.879 236.96 107.279C237.96 105.339 240.02 104.199 242.2 104.199L278 104.239H298.76V104.259Z" fill="black"/>
<path d="M157.661 219.38C155.901 216.82 153.081 215.2 149.961 215.18H148.361C144.961 215.18 142.121 216.82 140.361 219.38C138.841 221.58 136.341 223.06 133.481 223.2V289.66C136.421 289.82 139.001 291.38 140.501 293.7C142.261 296.4 145.141 298.14 148.361 298.14H149.641C152.861 298.14 155.741 296.38 157.501 293.7C158.841 291.66 160.981 290.2 163.461 289.78V223.08C161.061 222.68 158.981 221.32 157.661 219.38Z" fill="black"/>
<path d="M124.62 295.44C125.72 292.52 128.32 290.32 131.48 289.78V223.1C128.42 222.58 125.92 220.52 124.76 217.72C124.12 216.2 122.7 215.16 121.04 215.14L62.0005 215.08C59.7805 215.08 58.0005 216.86 58.0005 219.08V294.16C58.0005 296.36 59.8005 298.16 62.0005 298.16H120.84C122.56 298.16 124.02 297.04 124.62 295.44Z" fill="black"/>
<path d="M172.5 293.701C174.26 296.401 177.14 298.141 180.36 298.141H181.64C184.86 298.141 187.74 296.401 189.5 293.701C190.92 291.521 193.28 290.001 196 289.701V223.181C193.38 222.881 191.1 221.461 189.66 219.401C187.88 216.861 185.08 215.241 181.98 215.221H180.34C176.94 215.221 174.12 216.841 172.34 219.401C170.8 221.601 168.32 223.061 165.48 223.201V289.661C168.42 289.821 170.98 291.381 172.5 293.701Z" fill="black"/>
<path d="M204.32 219.42C202.88 221.48 200.62 222.88 198 223.18V289.7C200.72 290 203.06 291.52 204.5 293.7C206.26 296.4 209.14 298.14 212.36 298.14H213.64C216.86 298.14 219.74 296.4 221.5 293.7C222.92 291.52 225.28 290 228 289.7V223.18C225.38 222.88 223.1 221.48 221.68 219.42C219.9 216.88 217.1 215.28 214.02 215.26H212.34C208.92 215.26 206.1 216.88 204.32 219.42Z" fill="black"/>
<path d="M298.76 215.339C371.84 219.659 456 246.479 456 246.479V268.199C432.06 277.259 357.22 294.579 298.76 298.039L278 298.139V298.039L242.48 298.139C240.22 298.139 238.08 296.899 237.14 294.839C235.86 292.059 233.18 290.059 230 289.699V223.159C233.04 222.819 235.62 220.959 236.96 218.359C237.96 216.419 240.02 215.279 242.2 215.279L278 215.319H298.76V215.339Z" fill="black"/>
<path d="M157.661 330.46C155.901 327.9 153.081 326.28 149.961 326.26H148.361C144.961 326.26 142.121 327.9 140.361 330.46C138.841 332.66 136.341 334.14 133.481 334.28V400.74C136.421 400.9 139.001 402.46 140.501 404.78C142.261 407.48 145.141 409.22 148.361 409.22H149.641C152.861 409.22 155.741 407.46 157.501 404.78C158.841 402.74 160.981 401.28 163.461 400.86V334.16C161.061 333.76 158.981 332.4 157.661 330.46Z" fill="black"/>
<path d="M124.62 406.52C125.72 403.6 128.32 401.4 131.48 400.86V334.18C128.42 333.66 125.92 331.6 124.76 328.8C124.12 327.28 122.7 326.24 121.04 326.22L62.0005 326.16C59.7805 326.16 58.0005 327.94 58.0005 330.16V405.24C58.0005 407.44 59.8005 409.24 62.0005 409.24H120.84C122.56 409.24 124.02 408.12 124.62 406.52Z" fill="black"/>
<path d="M172.5 404.781C174.26 407.481 177.14 409.221 180.36 409.221H181.64C184.86 409.221 187.74 407.481 189.5 404.781C190.92 402.601 193.28 401.081 196 400.781V334.261C193.38 333.961 191.1 332.541 189.66 330.481C187.88 327.941 185.08 326.321 181.98 326.301H180.34C176.94 326.301 174.12 327.921 172.34 330.481C170.8 332.681 168.32 334.141 165.48 334.281V400.741C168.42 400.901 170.98 402.461 172.5 404.781Z" fill="black"/>
<path d="M204.32 330.5C202.88 332.56 200.62 333.96 198 334.26V400.78C200.72 401.08 203.06 402.6 204.5 404.78C206.26 407.48 209.14 409.22 212.36 409.22H213.64C216.86 409.22 219.74 407.48 221.5 404.78C222.92 402.6 225.28 401.08 228 400.78V334.26C225.38 333.96 223.1 332.56 221.68 330.5C219.9 327.96 217.1 326.36 214.02 326.34H212.34C208.92 326.34 206.1 327.96 204.32 330.5Z" fill="black"/>
<path d="M298.76 326.419C371.84 330.739 456 357.559 456 357.559V379.279C432.06 388.339 357.22 405.659 298.76 409.119L278 409.219V409.119L242.48 409.219C240.22 409.219 238.08 407.979 237.14 405.919C235.86 403.139 233.18 401.139 230 400.779V334.239C233.04 333.899 235.62 332.039 236.96 329.439C237.96 327.499 240.02 326.359 242.2 326.359L278 326.399H298.76V326.419Z" fill="black"/>
</svg>
