<svg width="512" height="512" viewBox="0 0 512 512" fill="none" xmlns="http://www.w3.org/2000/svg">
<path d="M170.57 292.32C168.57 293.72 166.15 294.24 163.83 293.8C160.77 293.24 157.63 294.08 155.43 296.28L154.29 297.42C151.87 299.82 151.05 302.98 151.59 306.06C152.07 308.7 151.35 311.5 149.43 313.62L196.43 360.62C198.63 358.64 201.53 357.94 204.25 358.5C207.41 359.16 210.69 358.36 212.95 356.08L213.85 355.18C216.13 352.9 216.93 349.62 216.27 346.48C215.77 344.1 216.25 341.56 217.71 339.48L170.57 292.32Z" fill="black"/>
<path d="M147.95 314.939C145.43 316.719 142.19 317.039 139.39 315.899C137.85 315.279 136.11 315.539 134.95 316.719L93.17 358.399C91.61 359.959 91.61 362.499 93.17 364.059L146.25 417.139C147.81 418.699 150.35 418.699 151.91 417.139L193.51 375.519C194.73 374.299 194.97 372.479 194.27 370.919C192.99 368.059 193.27 364.679 195.11 362.059L147.95 314.939Z" fill="black"/>
<path d="M193.63 269.381C191.57 271.041 188.95 271.641 186.47 271.181C183.41 270.641 180.29 271.481 178.09 273.661L176.93 274.821C174.51 277.221 173.67 280.361 174.23 283.441C174.71 286.081 173.97 288.861 172.07 290.981L219.07 337.981C221.27 336.001 224.17 335.301 226.89 335.861C230.05 336.521 233.31 335.721 235.59 333.441L236.49 332.541C238.77 330.261 239.57 326.981 238.91 323.841C238.37 321.281 238.97 318.561 240.67 316.421L193.63 269.381Z" fill="black"/>
<path d="M235.811 293.14C233.411 291.22 230.291 290.72 227.491 291.62C225.431 292.28 223.151 291.64 221.611 290.1L196.551 265C196.231 266.06 195.751 267.08 195.031 267.98L242.071 315.02C243.151 314.16 244.351 313.58 245.631 313.3C244.591 312.82 243.591 312.16 242.711 311.26L241.511 310.06C239.331 307.88 238.491 304.74 239.031 301.7C239.471 299.24 238.871 296.62 237.211 294.56" fill="black"/>
<path d="M296.269 237.52C298.409 239.24 301.149 239.82 303.689 239.28C306.849 238.62 310.109 239.42 312.389 241.7L313.289 242.6C315.569 244.88 316.369 248.16 315.709 251.3C315.449 252.56 315.469 253.86 315.749 255.12L316.549 254.32L316.629 254.4L331.229 239.64C370.129 195.86 410.789 130.7 421.309 107.36L405.949 92C405.949 92 327.469 132.54 272.749 181.16L262.289 191.62L266.889 196.18L266.809 196.26L292.009 221.3C293.609 222.9 294.249 225.28 293.469 227.4C292.409 230.28 292.889 233.58 294.869 236.08" fill="black"/>
<path d="M354.969 301.56C355.629 298.4 354.829 295.12 352.549 292.86L351.649 291.96C349.369 289.68 346.089 288.88 342.949 289.54C340.569 290.04 338.029 289.56 335.949 288.1L288.789 335.26C290.189 337.26 290.709 339.68 290.269 342C289.709 345.06 290.549 348.2 292.749 350.4L293.889 351.54C296.289 353.96 299.449 354.78 302.529 354.24C305.169 353.76 307.969 354.48 310.089 356.4L357.089 309.4C355.109 307.18 354.409 304.26 354.969 301.56Z" fill="black"/>
<path d="M372.03 312.299C370.81 311.079 368.99 310.839 367.43 311.539C364.57 312.819 361.19 312.539 358.57 310.699L311.43 357.839C313.21 360.359 313.53 363.599 312.39 366.399C311.77 367.939 312.03 369.679 313.21 370.839L354.89 412.619C356.45 414.179 358.99 414.179 360.55 412.619L413.63 359.539C415.19 357.979 415.19 355.439 413.63 353.879L372.03 312.299Z" fill="black"/>
<path d="M332.347 278.921C333.007 275.761 332.207 272.501 329.927 270.221L329.027 269.321C326.747 267.041 323.467 266.241 320.327 266.901C317.767 267.441 315.047 266.841 312.907 265.141L265.867 312.181C267.527 314.241 268.127 316.861 267.667 319.341C267.127 322.401 267.967 325.521 270.147 327.721L271.307 328.881C273.707 331.301 276.847 332.141 279.927 331.581C282.567 331.101 285.347 331.841 287.467 333.741L334.467 286.741C332.487 284.561 331.767 281.641 332.347 278.921Z" fill="black"/>
<path d="M309.747 260.12C309.467 258.86 309.447 257.56 309.707 256.3C310.367 253.14 309.567 249.88 307.287 247.6L306.387 246.7C304.107 244.42 300.827 243.62 297.687 244.28C295.127 244.82 292.407 244.22 290.267 242.52L258.047 274.74L256.627 276.16L243.207 289.58C244.847 291.64 245.447 294.24 245.027 296.72C244.487 299.76 245.327 302.88 247.507 305.08L248.707 306.28C249.587 307.16 250.587 307.84 251.627 308.32C253.407 309.12 255.367 309.34 257.307 309C259.767 308.56 262.387 309.16 264.427 310.82L311.467 263.78C310.627 262.64 310.047 261.4 309.747 260.12Z" fill="black"/>
<path d="M233.488 286.62C236.288 285.72 239.408 286.24 241.808 288.14L255.228 274.72L256.648 273.3L288.868 241.08C286.868 238.58 286.408 235.28 287.468 232.4C288.248 230.28 287.608 227.9 286.008 226.3L260.808 201.26L260.888 201.18L256.288 196.62L246.128 186.56C202.348 147.68 137.188 107.02 113.848 96.5L98.4883 111.86C98.4883 111.86 139.028 190.34 187.648 245.06L202.328 259.74L202.568 259.98L227.628 285.08C229.148 286.64 231.428 287.28 233.488 286.62Z" fill="black"/>
</svg>
