<svg width="512" height="512" viewBox="0 0 512 512" fill="none" xmlns="http://www.w3.org/2000/svg">
<path d="M218.302 356.339C215.742 358.099 214.122 360.919 214.102 364.039V365.639C214.102 369.039 215.742 371.879 218.302 373.639C220.502 375.159 221.982 377.659 222.122 380.519H288.582C288.742 377.579 290.302 374.999 292.622 373.499C295.322 371.739 297.062 368.859 297.062 365.639V364.359C297.062 361.139 295.302 358.259 292.622 356.499C290.582 355.159 289.122 353.019 288.702 350.539H222.002C221.602 352.939 220.242 355.019 218.302 356.339Z" fill="black"/>
<path d="M294.36 389.38C291.44 388.28 289.24 385.68 288.7 382.52H222.02C221.5 385.58 219.44 388.08 216.64 389.24C215.12 389.88 214.08 391.3 214.06 392.96L214 452C214 454.22 215.78 456 218 456H293.08C295.28 456 297.08 454.2 297.08 452V393.16C297.08 391.44 295.96 389.98 294.36 389.38Z" fill="black"/>
<path d="M292.621 341.5C295.321 339.74 297.061 336.86 297.061 333.64V332.36C297.061 329.14 295.321 326.26 292.621 324.5C290.441 323.08 288.921 320.72 288.621 318H222.101C221.801 320.62 220.381 322.9 218.321 324.34C215.781 326.12 214.161 328.92 214.141 332.02V333.66C214.141 337.06 215.761 339.88 218.321 341.66C220.521 343.2 221.981 345.68 222.121 348.52H288.581C288.741 345.58 290.301 343.02 292.621 341.5Z" fill="black"/>
<path d="M218.34 309.68C220.4 311.12 221.8 313.38 222.1 316H288.62C288.92 313.28 290.44 310.94 292.62 309.5C295.32 307.74 297.06 304.86 297.06 301.64V300.36C297.06 297.14 295.32 294.26 292.62 292.5C290.44 291.08 288.92 288.72 288.62 286H222.1C221.8 288.62 220.4 290.9 218.34 292.32C215.8 294.1 214.2 296.9 214.18 299.98V301.66C214.18 305.08 215.8 307.9 218.34 309.68Z" fill="black"/>
<path d="M214.259 215.24C218.579 142.16 245.399 58 245.399 58H267.119C276.179 81.94 293.499 156.78 296.959 215.24L297.059 236H296.959L297.059 271.52C297.059 273.78 295.819 275.92 293.759 276.86C290.979 278.14 288.979 280.82 288.619 284H222.079C221.739 280.96 219.879 278.38 217.279 277.04C215.339 276.04 214.199 273.98 214.199 271.8L214.239 236V215.24H214.259Z" fill="black"/>
</svg>
