<svg width="512" height="160" viewBox="0 0 512 160" fill="none" xmlns="http://www.w3.org/2000/svg">
<path d="M169.094 51.793H158.182V58.3406H169.094V51.793Z" fill="black"/>
<path d="M138.539 60.1275L137.15 62.5085L349.055 62.7069V62.5085C348.063 59.7307 345.484 59.9291 342.508 60.1275H338.341L337.349 58.3418L336.357 60.1275H334.571L333.579 58.3418L332.587 60.1275H330.801L329.809 58.3418L328.817 60.1275H327.031L326.039 58.3418L325.047 60.1275H323.262L322.269 58.3418L321.277 60.1275H319.492L318.5 58.3418L317.508 60.1275H315.722L314.73 58.3418L313.738 60.1275H311.952L310.96 58.3418L309.968 60.1275H308.182L307.19 58.3418L306.198 60.1275H304.412L303.42 58.3418L302.428 60.1275H300.642L299.65 58.3418L298.658 60.1275H296.873L295.881 58.3418L294.889 60.1275H293.103L292.111 58.3418L291.119 60.1275H289.333L288.341 58.3418L287.349 60.1275H285.563L284.571 58.3418L283.579 60.1275H281.793L280.801 58.3418L279.809 60.1275H278.023L277.031 58.3418L276.039 60.1275H274.254L273.262 58.3418L272.269 60.1275H270.484L269.492 58.3418L268.5 60.1275H266.714L265.722 58.3418L264.73 60.1275H262.944L261.952 58.3418L260.96 60.1275H259.174L258.182 58.3418L257.19 60.1275H255.404L254.412 58.3418L253.42 60.1275H251.635L250.642 58.3418L249.65 60.1275H247.865L246.873 58.3418L245.881 60.1275H244.095L243.103 58.3418L242.111 60.1275H240.325L239.333 58.3418L238.341 60.1275H236.555L235.563 58.3418L234.571 60.1275H232.785L231.793 58.3418L230.801 60.1275H229.015L228.023 58.3418L227.031 60.1275H225.246L224.254 58.3418L223.262 60.1275H221.476L220.484 58.3418L219.492 60.1275H217.706L216.714 58.3418L215.722 60.1275H213.936L212.944 58.3418L211.952 60.1275H210.166L209.174 58.3418L208.182 60.1275H138.539Z" fill="black"/>
<path d="M185.564 58.3406H196.279V51.793H185.564V58.3406Z" fill="black"/>
<path d="M168.898 81.5565C168.501 81.5565 164.93 81.3581 163.144 85.5247V105.564H167.509L218.303 94.0565L226.834 90.0882L231.398 81.3581L168.898 81.5565ZM349.652 64.8898L22.0724 64.6914C19.2946 64.6914 18.6994 67.6676 18.6994 67.6676C17.3105 72.2311 16.5168 76.1993 17.1121 76.7946C17.9057 78.1835 19.8898 77.9851 20.6835 77.9851C21.874 77.9851 133.183 76.5962 133.183 76.5962L139.334 69.6517H223.461L216.715 79.5724L348.461 78.9771C350.445 78.9771 352.033 77.1914 352.033 75.2073C352.231 75.2073 349.652 64.8898 349.652 64.8898ZM268.104 77.3898H264.136C263.342 77.3898 262.549 76.7946 262.549 75.8025C262.549 75.0089 263.144 74.2152 264.136 74.2152H268.104C268.898 74.2152 269.691 74.8105 269.691 75.8025C269.493 76.5962 268.898 77.3898 268.104 77.3898ZM268.104 70.4454H264.136C263.342 70.4454 262.549 69.8501 262.549 68.8581C262.549 68.0644 263.144 67.2708 264.136 67.2708H268.104C268.898 67.2708 269.691 67.866 269.691 68.8581C269.493 69.8501 268.898 70.4454 268.104 70.4454ZM278.025 77.3898H274.057C273.263 77.3898 272.469 76.7946 272.469 75.8025C272.469 75.0089 273.064 74.2152 274.057 74.2152H278.025C278.818 74.2152 279.612 74.8105 279.612 75.8025C279.414 76.5962 278.818 77.3898 278.025 77.3898ZM278.025 70.4454H274.057C273.263 70.4454 272.469 69.8501 272.469 68.8581C272.469 68.0644 273.064 67.2708 274.057 67.2708H278.025C278.818 67.2708 279.612 67.866 279.612 68.8581C279.414 69.8501 278.818 70.4454 278.025 70.4454ZM287.945 77.3898H283.977C283.184 77.3898 282.39 76.7946 282.39 75.8025C282.39 75.0089 282.985 74.2152 283.977 74.2152H287.945C288.739 74.2152 289.533 74.8105 289.533 75.8025C289.334 76.5962 288.739 77.3898 287.945 77.3898ZM287.945 70.4454H283.977C283.184 70.4454 282.39 69.8501 282.39 68.8581C282.39 68.0644 282.985 67.2708 283.977 67.2708H287.945C288.739 67.2708 289.533 67.866 289.533 68.8581C289.334 69.8501 288.739 70.4454 287.945 70.4454ZM297.866 77.3898H293.898C293.104 77.3898 292.31 76.7946 292.31 75.8025C292.31 75.0089 292.906 74.2152 293.898 74.2152H297.866C298.66 74.2152 299.453 74.8105 299.453 75.8025C299.255 76.5962 298.66 77.3898 297.866 77.3898ZM297.866 70.4454H293.898C293.104 70.4454 292.31 69.8501 292.31 68.8581C292.31 68.0644 292.906 67.2708 293.898 67.2708H297.866C298.66 67.2708 299.453 67.866 299.453 68.8581C299.255 69.8501 298.66 70.4454 297.866 70.4454ZM307.787 77.3898H303.818C303.025 77.3898 302.231 76.7946 302.231 75.8025C302.231 75.0089 302.826 74.2152 303.818 74.2152H307.787C308.58 74.2152 309.374 74.8105 309.374 75.8025C309.176 76.5962 308.58 77.3898 307.787 77.3898ZM307.787 70.4454H303.818C303.025 70.4454 302.231 69.8501 302.231 68.8581C302.231 68.0644 302.826 67.2708 303.818 67.2708H307.787C308.58 67.2708 309.374 67.866 309.374 68.8581C309.176 69.8501 308.58 70.4454 307.787 70.4454ZM317.707 77.3898H313.739C312.945 77.3898 312.152 76.7946 312.152 75.8025C312.152 75.0089 312.747 74.2152 313.739 74.2152H317.707C318.501 74.2152 319.295 74.8105 319.295 75.8025C319.096 76.5962 318.501 77.3898 317.707 77.3898ZM317.707 70.4454H313.739C312.945 70.4454 312.152 69.8501 312.152 68.8581C312.152 68.0644 312.747 67.2708 313.739 67.2708H317.707C318.501 67.2708 319.295 67.866 319.295 68.8581C319.096 69.8501 318.501 70.4454 317.707 70.4454ZM327.628 77.3898H323.66C322.866 77.3898 322.072 76.7946 322.072 75.8025C322.072 75.0089 322.668 74.2152 323.66 74.2152H327.628C328.422 74.2152 329.215 74.8105 329.215 75.8025C329.017 76.5962 328.422 77.3898 327.628 77.3898ZM327.628 70.4454H323.66C322.866 70.4454 322.072 69.8501 322.072 68.8581C322.072 68.0644 322.668 67.2708 323.66 67.2708H327.628C328.422 67.2708 329.215 67.866 329.215 68.8581C329.017 69.8501 328.422 70.4454 327.628 70.4454ZM337.549 77.3898H333.58C332.787 77.3898 331.993 76.7946 331.993 75.8025C331.993 75.0089 332.588 74.2152 333.58 74.2152H337.549C338.342 74.2152 339.136 74.8105 339.136 75.8025C338.937 76.5962 338.342 77.3898 337.549 77.3898ZM337.549 70.4454H333.58C332.787 70.4454 331.993 69.8501 331.993 68.8581C331.993 68.0644 332.588 67.2708 333.58 67.2708H337.549C338.342 67.2708 339.136 67.866 339.136 68.8581C338.937 69.8501 338.342 70.4454 337.549 70.4454Z" fill="black"/>
<path d="M355.801 72.8252C376.436 72.8252 472.071 72.8252 472.071 72.8252V64.8887H354.016L355.801 72.8252Z" fill="black"/>
<path d="M478.817 64.8887H474.055V72.8252H478.817V64.8887Z" fill="black"/>
<path d="M502.428 62.3086H473.857C473.857 62.507 473.659 62.7054 473.46 62.9038H480.801V74.6102H473.262C473.46 75.007 473.46 75.4038 473.46 75.4038H502.23C502.23 75.4038 505.801 73.8165 505.801 69.0546C506 64.2927 502.428 62.3086 502.428 62.3086ZM489.532 72.4276C489.532 73.2213 488.936 74.0149 487.944 74.0149H485.166C484.373 74.0149 483.579 73.4197 483.579 72.4276V65.88C483.579 65.0864 484.373 64.2927 485.166 64.2927H487.944C488.738 64.2927 489.532 64.888 489.532 65.88V72.4276ZM499.055 72.4276C499.055 73.2213 498.46 74.0149 497.468 74.0149H494.69C493.897 74.0149 493.103 73.4197 493.103 72.4276V65.88C493.103 65.0864 493.698 64.2927 494.69 64.2927H497.468C498.262 64.2927 499.055 64.888 499.055 65.88V72.4276Z" fill="black"/>
<path d="M15.5238 78.1827C14.3333 76.7938 15.3254 72.0319 16.7143 67.8652C12.5476 67.8652 6 68.4605 6 72.6271C6 77.7859 9.96825 85.3255 11.1587 90.6827C12.5476 96.0398 9.96825 104.77 8.97619 109.333C7.98413 113.897 19.8889 113.897 19.8889 113.897V79.77C18.5 79.77 16.7143 79.5716 15.5238 78.1827Z" fill="black"/>
<path d="M143.301 93.4609V104.77C150.047 109.136 155.999 106.953 159.174 105.167V93.6594H143.301V93.4609ZM157.388 104.175C157.388 104.175 149.65 108.143 144.888 103.183V95.4451H157.388V104.175Z" fill="black"/>
<path d="M129.81 93.2618C130.604 93.857 131.001 94.8491 131.001 95.8411V96.8332C131.001 97.6269 130.802 98.2221 130.406 98.8173L113.144 124.016C112.747 124.611 112.945 125.603 113.739 125.603L129.414 129.77C130.207 129.968 130.009 129.174 130.009 128.778C129.81 127.984 129.414 127.389 129.81 126.397C131.001 123.817 134.374 116.674 137.35 114.492C138.342 113.897 138.342 113.897 138.342 112.905C138.342 112.111 138.342 111.119 138.739 109.73C139.136 107.944 140.326 105.563 141.318 104.77V91.4761H159.175V87.5078H123.263L129.81 93.2618ZM135.763 108.54C136.358 109.333 136.556 110.325 135.961 111.119L128.223 124.413C127.826 125.008 127.033 125.603 126.239 125.603H126.041L119.295 125.008C118.501 125.008 117.906 124.413 117.509 123.817C117.112 123.024 117.112 122.23 117.707 121.635L128.62 104.968C129.017 104.373 129.612 103.976 130.207 103.976C130.802 103.976 131.596 104.174 131.993 104.571L135.763 108.54Z" fill="black"/>
<path d="M119.492 122.825C119.492 123.024 119.492 123.024 119.691 123.222L126.437 123.817C126.437 123.817 126.635 123.817 126.635 123.619L134.373 110.127V109.928L131 106.159C130.802 105.96 130.603 105.96 130.405 106.159L119.492 122.825Z" fill="black"/>
<path d="M149.253 96.4355H151.833C151.833 96.4355 150.047 100.404 153.618 103.578C153.618 103.578 150.841 103.777 149.65 101.396C148.46 98.8165 149.253 96.4355 149.253 96.4355Z" fill="black"/>
<path d="M138.34 49.8091L119.888 51.5948C119.094 51.5948 118.301 50.9996 118.301 50.2059V39.8885C118.301 39.0948 119.094 38.3012 119.888 38.4996L138.34 40.2853V49.8091Z" fill="black"/>
<path d="M147.469 40.0879H140.326V49.4133H147.469V40.0879Z" fill="black"/>
<path d="M169.096 40.0879H149.453V49.4133H169.096V40.0879Z" fill="black"/>
<path d="M183.778 40.0879H171.08V49.4133H183.778V40.0879Z" fill="black"/>
<path d="M196.476 40.0879H185.762V49.4133H196.476V40.0879Z" fill="black"/>
<path d="M233.778 55.1662L198.461 49.6106V40.0868L233.778 34.5313C234.969 34.3329 235.961 35.3249 235.961 36.5154V53.1821C235.961 54.5709 234.969 55.3646 233.778 55.1662Z" fill="black"/>
<path d="M140.921 71.4355L134.77 78.38L21.873 79.7689V85.5228L160.96 83.5387C164.135 79.1736 167.905 79.5705 168.698 79.5705H214.73L220.087 71.634H140.921V71.4355Z" fill="black"/>
<path d="M71.2778 105.961C70.6826 103.382 70.881 100.604 71.6746 98.2231L76.2381 86.3184H69.6905L67.1111 92.6676C66.1191 95.0485 63.9365 99.612 61.3572 100.009L21.873 104.771V113.699L53.8175 109.929C56.1984 109.533 58.5794 109.533 60.7619 110.326L68.1032 112.906C68.5 113.104 68.6984 113.104 69.0953 113.104C69.8889 113.104 70.881 112.707 71.4762 112.112C72.0715 111.318 72.2699 110.525 72.0715 109.533L71.2778 105.961ZM32.9842 110.326C31.7937 110.326 30.8016 109.334 30.8016 108.144C30.8016 106.953 31.7937 105.961 32.9842 105.961C34.1746 105.961 35.1667 106.953 35.1667 108.144C35.1667 109.334 34.1746 110.326 32.9842 110.326ZM42.3096 108.937C41.1191 108.937 40.127 107.945 40.127 106.755C40.127 105.564 41.1191 104.572 42.3096 104.572C43.5 104.572 44.4921 105.564 44.4921 106.755C44.4921 107.945 43.5 108.937 42.3096 108.937ZM51.2381 107.747C50.0476 107.747 49.0556 106.755 49.0556 105.564C49.0556 104.374 50.0476 103.382 51.2381 103.382C52.4286 103.382 53.4207 104.374 53.4207 105.564C53.4207 106.755 52.4286 107.747 51.2381 107.747Z" fill="black"/>
<path d="M182.587 26C179.016 26 175.643 26 172.071 26C172.27 26.7937 172.667 27.5873 172.865 28.5794C172.865 28.7778 172.865 29.1746 172.667 29.373L171.079 31.754C170.881 31.9524 170.881 32.1508 170.881 32.3492V38.3016H183.381V32.3492C183.381 32.1508 183.381 31.9524 183.182 31.754L181.595 29.373C181.397 29.1746 181.397 28.7778 181.397 28.5794L182.587 26Z" fill="black"/>
<path d="M167.508 109.929V133.342C167.508 134.135 168.301 134.731 169.095 134.731L217.111 124.81C217.706 124.612 218.301 124.215 218.301 123.421V98.2227L167.508 109.929ZM184.968 125.604C184.968 126.794 184.174 127.588 182.984 127.588C181.794 127.588 181 126.794 181 125.604V112.905C181 111.715 181.794 110.921 182.984 110.921C184.174 110.921 184.968 111.715 184.968 112.905V125.604ZM194.889 123.619C194.889 124.81 194.095 125.604 192.905 125.604C191.714 125.604 190.921 124.81 190.921 123.619V110.921C190.921 109.731 191.714 108.937 192.905 108.937C194.095 108.937 194.889 109.731 194.889 110.921V123.619ZM204.809 121.635C204.809 122.826 204.016 123.619 202.825 123.619C201.635 123.619 200.841 122.826 200.841 121.635V108.937C200.841 107.746 201.635 106.953 202.825 106.953C204.016 106.953 204.809 107.746 204.809 108.937V121.635Z" fill="black"/>
</svg>
