<svg width="512" height="512" viewBox="0 0 512 512" fill="none" xmlns="http://www.w3.org/2000/svg">
<path d="M169.094 227.793H158.182V234.341H169.094V227.793Z" fill="black"/>
<path d="M138.539 236.128L137.15 238.508L349.055 238.707V238.508C348.063 235.731 345.484 235.929 342.508 236.128H338.341L337.349 234.342L336.357 236.128H334.571L333.579 234.342L332.587 236.128H330.801L329.809 234.342L328.817 236.128H327.031L326.039 234.342L325.047 236.128H323.262L322.269 234.342L321.277 236.128H319.492L318.5 234.342L317.508 236.128H315.722L314.73 234.342L313.738 236.128H311.952L310.96 234.342L309.968 236.128H308.182L307.19 234.342L306.198 236.128H304.412L303.42 234.342L302.428 236.128H300.642L299.65 234.342L298.658 236.128H296.873L295.881 234.342L294.889 236.128H293.103L292.111 234.342L291.119 236.128H289.333L288.341 234.342L287.349 236.128H285.563L284.571 234.342L283.579 236.128H281.793L280.801 234.342L279.809 236.128H278.023L277.031 234.342L276.039 236.128H274.254L273.262 234.342L272.269 236.128H270.484L269.492 234.342L268.5 236.128H266.714L265.722 234.342L264.73 236.128H262.944L261.952 234.342L260.96 236.128H259.174L258.182 234.342L257.19 236.128H255.404L254.412 234.342L253.42 236.128H251.635L250.642 234.342L249.65 236.128H247.865L246.873 234.342L245.881 236.128H244.095L243.103 234.342L242.111 236.128H240.325L239.333 234.342L238.341 236.128H236.555L235.563 234.342L234.571 236.128H232.785L231.793 234.342L230.801 236.128H229.015L228.023 234.342L227.031 236.128H225.246L224.254 234.342L223.262 236.128H221.476L220.484 234.342L219.492 236.128H217.706L216.714 234.342L215.722 236.128H213.936L212.944 234.342L211.952 236.128H210.166L209.174 234.342L208.182 236.128H138.539Z" fill="black"/>
<path d="M185.564 234.341H196.279V227.793H185.564V234.341Z" fill="black"/>
<path d="M168.898 257.556C168.501 257.556 164.93 257.358 163.144 261.525V281.564H167.509L218.303 270.056L226.834 266.088L231.398 257.358L168.898 257.556ZM349.652 240.89L22.0724 240.691C19.2946 240.691 18.6994 243.668 18.6994 243.668C17.3105 248.231 16.5168 252.199 17.1121 252.795C17.9057 254.183 19.8898 253.985 20.6835 253.985C21.874 253.985 133.183 252.596 133.183 252.596L139.334 245.652H223.461L216.715 255.572L348.461 254.977C350.445 254.977 352.033 253.191 352.033 251.207C352.231 251.207 349.652 240.89 349.652 240.89ZM268.104 253.39H264.136C263.342 253.39 262.549 252.795 262.549 251.803C262.549 251.009 263.144 250.215 264.136 250.215H268.104C268.898 250.215 269.691 250.81 269.691 251.803C269.493 252.596 268.898 253.39 268.104 253.39ZM268.104 246.445H264.136C263.342 246.445 262.549 245.85 262.549 244.858C262.549 244.064 263.144 243.271 264.136 243.271H268.104C268.898 243.271 269.691 243.866 269.691 244.858C269.493 245.85 268.898 246.445 268.104 246.445ZM278.025 253.39H274.057C273.263 253.39 272.469 252.795 272.469 251.803C272.469 251.009 273.064 250.215 274.057 250.215H278.025C278.818 250.215 279.612 250.81 279.612 251.803C279.414 252.596 278.818 253.39 278.025 253.39ZM278.025 246.445H274.057C273.263 246.445 272.469 245.85 272.469 244.858C272.469 244.064 273.064 243.271 274.057 243.271H278.025C278.818 243.271 279.612 243.866 279.612 244.858C279.414 245.85 278.818 246.445 278.025 246.445ZM287.945 253.39H283.977C283.184 253.39 282.39 252.795 282.39 251.803C282.39 251.009 282.985 250.215 283.977 250.215H287.945C288.739 250.215 289.533 250.81 289.533 251.803C289.334 252.596 288.739 253.39 287.945 253.39ZM287.945 246.445H283.977C283.184 246.445 282.39 245.85 282.39 244.858C282.39 244.064 282.985 243.271 283.977 243.271H287.945C288.739 243.271 289.533 243.866 289.533 244.858C289.334 245.85 288.739 246.445 287.945 246.445ZM297.866 253.39H293.898C293.104 253.39 292.31 252.795 292.31 251.803C292.31 251.009 292.906 250.215 293.898 250.215H297.866C298.66 250.215 299.453 250.81 299.453 251.803C299.255 252.596 298.66 253.39 297.866 253.39ZM297.866 246.445H293.898C293.104 246.445 292.31 245.85 292.31 244.858C292.31 244.064 292.906 243.271 293.898 243.271H297.866C298.66 243.271 299.453 243.866 299.453 244.858C299.255 245.85 298.66 246.445 297.866 246.445ZM307.787 253.39H303.818C303.025 253.39 302.231 252.795 302.231 251.803C302.231 251.009 302.826 250.215 303.818 250.215H307.787C308.58 250.215 309.374 250.81 309.374 251.803C309.176 252.596 308.58 253.39 307.787 253.39ZM307.787 246.445H303.818C303.025 246.445 302.231 245.85 302.231 244.858C302.231 244.064 302.826 243.271 303.818 243.271H307.787C308.58 243.271 309.374 243.866 309.374 244.858C309.176 245.85 308.58 246.445 307.787 246.445ZM317.707 253.39H313.739C312.945 253.39 312.152 252.795 312.152 251.803C312.152 251.009 312.747 250.215 313.739 250.215H317.707C318.501 250.215 319.295 250.81 319.295 251.803C319.096 252.596 318.501 253.39 317.707 253.39ZM317.707 246.445H313.739C312.945 246.445 312.152 245.85 312.152 244.858C312.152 244.064 312.747 243.271 313.739 243.271H317.707C318.501 243.271 319.295 243.866 319.295 244.858C319.096 245.85 318.501 246.445 317.707 246.445ZM327.628 253.39H323.66C322.866 253.39 322.072 252.795 322.072 251.803C322.072 251.009 322.668 250.215 323.66 250.215H327.628C328.422 250.215 329.215 250.81 329.215 251.803C329.017 252.596 328.422 253.39 327.628 253.39ZM327.628 246.445H323.66C322.866 246.445 322.072 245.85 322.072 244.858C322.072 244.064 322.668 243.271 323.66 243.271H327.628C328.422 243.271 329.215 243.866 329.215 244.858C329.017 245.85 328.422 246.445 327.628 246.445ZM337.549 253.39H333.58C332.787 253.39 331.993 252.795 331.993 251.803C331.993 251.009 332.588 250.215 333.58 250.215H337.549C338.342 250.215 339.136 250.81 339.136 251.803C338.937 252.596 338.342 253.39 337.549 253.39ZM337.549 246.445H333.58C332.787 246.445 331.993 245.85 331.993 244.858C331.993 244.064 332.588 243.271 333.58 243.271H337.549C338.342 243.271 339.136 243.866 339.136 244.858C338.937 245.85 338.342 246.445 337.549 246.445Z" fill="black"/>
<path d="M355.801 248.825C376.436 248.825 472.071 248.825 472.071 248.825V240.889H354.016L355.801 248.825Z" fill="black"/>
<path d="M478.817 240.889H474.055V248.825H478.817V240.889Z" fill="black"/>
<path d="M502.428 238.309H473.857C473.857 238.507 473.659 238.705 473.46 238.904H480.801V250.61H473.262C473.46 251.007 473.46 251.404 473.46 251.404H502.23C502.23 251.404 505.801 249.817 505.801 245.055C506 240.293 502.428 238.309 502.428 238.309ZM489.532 248.428C489.532 249.221 488.936 250.015 487.944 250.015H485.166C484.373 250.015 483.579 249.42 483.579 248.428V241.88C483.579 241.086 484.373 240.293 485.166 240.293H487.944C488.738 240.293 489.532 240.888 489.532 241.88V248.428ZM499.055 248.428C499.055 249.221 498.46 250.015 497.468 250.015H494.69C493.897 250.015 493.103 249.42 493.103 248.428V241.88C493.103 241.086 493.698 240.293 494.69 240.293H497.468C498.262 240.293 499.055 240.888 499.055 241.88V248.428Z" fill="black"/>
<path d="M15.5238 254.183C14.3333 252.794 15.3254 248.032 16.7143 243.865C12.5476 243.865 6 244.46 6 248.627C6 253.786 9.96825 261.326 11.1587 266.683C12.5476 272.04 9.96825 280.77 8.97619 285.333C7.98413 289.897 19.8889 289.897 19.8889 289.897V255.77C18.5 255.77 16.7143 255.572 15.5238 254.183Z" fill="black"/>
<path d="M143.301 269.461V280.77C150.047 285.136 155.999 282.953 159.174 281.167V269.659H143.301V269.461ZM157.388 280.175C157.388 280.175 149.65 284.143 144.888 279.183V271.445H157.388V280.175Z" fill="black"/>
<path d="M129.81 269.262C130.604 269.857 131.001 270.849 131.001 271.841V272.833C131.001 273.627 130.802 274.222 130.406 274.817L113.144 300.016C112.747 300.611 112.945 301.603 113.739 301.603L129.414 305.77C130.207 305.968 130.009 305.174 130.009 304.778C129.81 303.984 129.414 303.389 129.81 302.397C131.001 299.817 134.374 292.674 137.35 290.492C138.342 289.897 138.342 289.897 138.342 288.905C138.342 288.111 138.342 287.119 138.739 285.73C139.136 283.944 140.326 281.563 141.318 280.77V267.476H159.175V263.508H123.263L129.81 269.262ZM135.763 284.54C136.358 285.333 136.556 286.325 135.961 287.119L128.223 300.413C127.826 301.008 127.033 301.603 126.239 301.603H126.041L119.295 301.008C118.501 301.008 117.906 300.413 117.509 299.817C117.112 299.024 117.112 298.23 117.707 297.635L128.62 280.968C129.017 280.373 129.612 279.976 130.207 279.976C130.802 279.976 131.596 280.174 131.993 280.571L135.763 284.54Z" fill="black"/>
<path d="M119.492 298.825C119.492 299.024 119.492 299.024 119.691 299.222L126.437 299.817C126.437 299.817 126.635 299.817 126.635 299.619L134.373 286.127V285.928L131 282.159C130.802 281.96 130.603 281.96 130.405 282.159L119.492 298.825Z" fill="black"/>
<path d="M149.253 272.436H151.833C151.833 272.436 150.047 276.404 153.618 279.578C153.618 279.578 150.841 279.777 149.65 277.396C148.46 274.816 149.253 272.436 149.253 272.436Z" fill="black"/>
<path d="M138.34 225.809L119.888 227.595C119.094 227.595 118.301 227 118.301 226.206V215.888C118.301 215.095 119.094 214.301 119.888 214.5L138.34 216.285V225.809Z" fill="black"/>
<path d="M147.469 216.088H140.326V225.413H147.469V216.088Z" fill="black"/>
<path d="M169.096 216.088H149.453V225.413H169.096V216.088Z" fill="black"/>
<path d="M183.778 216.088H171.08V225.413H183.778V216.088Z" fill="black"/>
<path d="M196.476 216.088H185.762V225.413H196.476V216.088Z" fill="black"/>
<path d="M233.778 231.166L198.461 225.611V216.087L233.778 210.531C234.969 210.333 235.961 211.325 235.961 212.515V229.182C235.961 230.571 234.969 231.365 233.778 231.166Z" fill="black"/>
<path d="M140.921 247.436L134.77 254.38L21.873 255.769V261.523L160.96 259.539C164.135 255.174 167.905 255.57 168.698 255.57H214.73L220.087 247.634H140.921V247.436Z" fill="black"/>
<path d="M71.2778 281.961C70.6826 279.382 70.881 276.604 71.6746 274.223L76.2381 262.318H69.6905L67.1111 268.668C66.1191 271.049 63.9365 275.612 61.3572 276.009L21.873 280.771V289.699L53.8175 285.929C56.1984 285.533 58.5794 285.533 60.7619 286.326L68.1032 288.906C68.5 289.104 68.6984 289.104 69.0953 289.104C69.8889 289.104 70.881 288.707 71.4762 288.112C72.0715 287.318 72.2699 286.525 72.0715 285.533L71.2778 281.961ZM32.9842 286.326C31.7937 286.326 30.8016 285.334 30.8016 284.144C30.8016 282.953 31.7937 281.961 32.9842 281.961C34.1746 281.961 35.1667 282.953 35.1667 284.144C35.1667 285.334 34.1746 286.326 32.9842 286.326ZM42.3096 284.937C41.1191 284.937 40.127 283.945 40.127 282.755C40.127 281.564 41.1191 280.572 42.3096 280.572C43.5 280.572 44.4921 281.564 44.4921 282.755C44.4921 283.945 43.5 284.937 42.3096 284.937ZM51.2381 283.747C50.0476 283.747 49.0556 282.755 49.0556 281.564C49.0556 280.374 50.0476 279.382 51.2381 279.382C52.4286 279.382 53.4207 280.374 53.4207 281.564C53.4207 282.755 52.4286 283.747 51.2381 283.747Z" fill="black"/>
<path d="M182.587 202C179.016 202 175.643 202 172.071 202C172.27 202.794 172.667 203.587 172.865 204.579C172.865 204.778 172.865 205.175 172.667 205.373L171.079 207.754C170.881 207.952 170.881 208.151 170.881 208.349V214.302H183.381V208.349C183.381 208.151 183.381 207.952 183.182 207.754L181.595 205.373C181.397 205.175 181.397 204.778 181.397 204.579L182.587 202Z" fill="black"/>
<path d="M167.508 285.929V309.342C167.508 310.135 168.301 310.731 169.095 310.731L217.111 300.81C217.706 300.612 218.301 300.215 218.301 299.421V274.223L167.508 285.929ZM184.968 301.604C184.968 302.794 184.174 303.588 182.984 303.588C181.794 303.588 181 302.794 181 301.604V288.905C181 287.715 181.794 286.921 182.984 286.921C184.174 286.921 184.968 287.715 184.968 288.905V301.604ZM194.889 299.619C194.889 300.81 194.095 301.604 192.905 301.604C191.714 301.604 190.921 300.81 190.921 299.619V286.921C190.921 285.731 191.714 284.937 192.905 284.937C194.095 284.937 194.889 285.731 194.889 286.921V299.619ZM204.809 297.635C204.809 298.826 204.016 299.619 202.825 299.619C201.635 299.619 200.841 298.826 200.841 297.635V284.937C200.841 283.746 201.635 282.953 202.825 282.953C204.016 282.953 204.809 283.746 204.809 284.937V297.635Z" fill="black"/>
</svg>
