<svg width="512" height="512" viewBox="0 0 512 512" fill="none" xmlns="http://www.w3.org/2000/svg">
<path d="M166.503 275.059L157.053 280.516L160.327 286.186L169.777 280.73L166.503 275.059Z" fill="black"/>
<path d="M144.207 297.555L144.195 300.312L327.809 194.531L327.71 194.359C325.462 192.45 323.327 193.911 320.849 195.571L317.24 197.654L315.488 196.604L315.522 198.646L313.975 199.539L312.223 198.489L312.257 200.531L310.711 201.424L308.959 200.374L308.992 202.416L307.446 203.309L305.694 202.259L305.728 204.301L304.181 205.194L302.429 204.144L302.463 206.186L300.916 207.079L299.164 206.029L299.198 208.071L297.652 208.964L295.9 207.913L295.933 209.956L294.387 210.849L292.635 209.798L292.668 211.841L291.122 212.734L289.37 211.683L289.404 213.726L287.857 214.619L286.105 213.568L286.139 215.611L284.592 216.504L282.84 215.453L282.874 217.496L281.328 218.388L279.576 217.338L279.609 219.381L278.063 220.273L276.311 219.223L276.345 221.265L274.798 222.158L273.046 221.108L273.08 223.15L271.533 224.043L269.781 222.993L269.815 225.035L268.269 225.928L266.517 224.878L266.55 226.92L265.004 227.813L263.252 226.763L263.286 228.805L261.739 229.698L259.987 228.648L260.021 230.69L258.474 231.583L256.722 230.532L256.756 232.575L255.209 233.468L253.457 232.417L253.491 234.46L251.945 235.353L250.193 234.302L250.226 236.345L248.68 237.238L246.928 236.187L246.962 238.23L245.415 239.123L243.663 238.072L243.697 240.115L242.15 241.008L240.398 239.957L240.432 242L238.886 242.892L237.134 241.842L237.167 243.885L235.621 244.777L233.869 243.727L233.902 245.769L232.356 246.662L230.604 245.612L230.638 247.654L229.091 248.547L227.339 247.497L227.373 249.539L225.826 250.432L224.074 249.382L224.108 251.424L222.562 252.317L220.81 251.267L220.843 253.309L219.297 254.202L217.545 253.152L217.579 255.194L216.032 256.087L214.28 255.036L214.314 257.079L212.767 257.972L211.015 256.921L211.049 258.964L209.503 259.857L207.751 258.806L207.784 260.849L206.238 261.742L204.486 260.691L204.519 262.734L144.207 297.555Z" fill="black"/>
<path d="M184.039 272.497L193.318 267.139L190.044 261.469L180.766 266.826L184.039 272.497Z" fill="black"/>
<path d="M181.212 300.933C180.869 301.131 177.676 302.745 178.213 307.247L188.233 324.602L192.013 322.419L230.248 287.056L235.653 279.354L235.24 269.511L181.212 300.933ZM329.416 196.122L45.6252 359.74C43.2196 361.129 44.1922 364.004 44.1922 364.004C45.2711 368.651 46.5679 372.484 47.381 372.702C48.7628 373.508 50.3819 372.344 51.0692 371.947C52.1002 371.352 147.803 314.494 147.803 314.494L149.657 305.405L222.513 263.341L221.631 275.306L335.429 208.918C337.147 207.925 337.629 205.585 336.637 203.867C336.809 203.768 329.416 196.122 329.416 196.122ZM265.044 247.721L261.608 249.706C260.92 250.102 259.935 249.984 259.439 249.125C259.042 248.437 259.161 247.452 260.02 246.956L263.457 244.972C264.144 244.575 265.129 244.694 265.625 245.553C265.85 246.34 265.731 247.325 265.044 247.721ZM261.572 241.707L258.135 243.692C257.448 244.088 256.463 243.97 255.967 243.111C255.57 242.423 255.689 241.438 256.548 240.942L259.985 238.958C260.672 238.561 261.657 238.68 262.153 239.539C262.477 240.497 262.259 241.311 261.572 241.707ZM273.636 242.761L270.199 244.745C269.512 245.142 268.527 245.023 268.031 244.164C267.634 243.477 267.753 242.492 268.612 241.996L272.048 240.012C272.736 239.615 273.721 239.734 274.217 240.593C274.442 241.379 274.323 242.364 273.636 242.761ZM270.163 236.747L266.727 238.731C266.04 239.128 265.055 239.009 264.559 238.15C264.162 237.463 264.28 236.478 265.14 235.982L268.576 233.998C269.263 233.601 270.248 233.72 270.744 234.579C271.069 235.537 270.851 236.35 270.163 236.747ZM282.227 237.801L278.791 239.785C278.103 240.182 277.118 240.063 276.622 239.204C276.225 238.517 276.344 237.532 277.203 237.036L280.64 235.052C281.327 234.655 282.312 234.773 282.808 235.633C283.033 236.419 282.914 237.404 282.227 237.801ZM278.755 231.787L275.318 233.771C274.631 234.168 273.646 234.049 273.15 233.19C272.753 232.503 272.872 231.518 273.731 231.022L277.168 229.037C277.855 228.641 278.84 228.759 279.336 229.618C279.66 230.577 279.442 231.39 278.755 231.787ZM290.819 232.841L287.382 234.825C286.695 235.221 285.71 235.103 285.214 234.244C284.817 233.556 284.936 232.571 285.795 232.075L289.231 230.091C289.919 229.694 290.904 229.813 291.4 230.672C291.625 231.459 291.506 232.444 290.819 232.841ZM287.346 226.826L283.91 228.811C283.223 229.207 282.238 229.089 281.742 228.23C281.345 227.542 281.463 226.557 282.323 226.061L285.759 224.077C286.446 223.68 287.431 223.799 287.927 224.658C288.252 225.617 288.034 226.43 287.346 226.826ZM299.41 227.88L295.974 229.864C295.286 230.261 294.301 230.142 293.805 229.283C293.408 228.596 293.527 227.611 294.386 227.115L297.823 225.131C298.51 224.734 299.495 224.853 299.991 225.712C300.216 226.498 300.098 227.483 299.41 227.88ZM295.938 221.866L292.501 223.85C291.814 224.247 290.829 224.128 290.333 223.269C289.936 222.582 290.055 221.597 290.914 221.101L294.351 219.117C295.038 218.72 296.023 218.839 296.519 219.698C296.843 220.656 296.625 221.469 295.938 221.866ZM308.002 222.92L304.565 224.904C303.878 225.301 302.893 225.182 302.397 224.323C302 223.636 302.119 222.651 302.978 222.155L306.414 220.171C307.102 219.774 308.087 219.892 308.583 220.752C308.808 221.538 308.689 222.523 308.002 222.92ZM304.53 216.906L301.093 218.89C300.406 219.287 299.421 219.168 298.925 218.309C298.528 217.622 298.646 216.637 299.506 216.141L302.942 214.157C303.63 213.76 304.614 213.878 305.11 214.738C305.435 215.696 305.217 216.509 304.53 216.906ZM316.593 217.96L313.157 219.944C312.469 220.341 311.484 220.222 310.988 219.363C310.592 218.675 310.71 217.69 311.569 217.194L315.006 215.21C315.693 214.813 316.678 214.932 317.174 215.791C317.399 216.578 317.281 217.563 316.593 217.96ZM313.121 211.945L309.684 213.93C308.997 214.326 308.012 214.208 307.516 213.349C307.119 212.661 307.238 211.676 308.097 211.18L311.534 209.196C312.221 208.799 313.206 208.918 313.702 209.777C314.026 210.736 313.808 211.549 313.121 211.945ZM325.185 212.999L321.748 214.983C321.061 215.38 320.076 215.262 319.58 214.402C319.183 213.715 319.302 212.73 320.161 212.234L323.597 210.25C324.285 209.853 325.27 209.972 325.766 210.831C325.991 211.617 325.872 212.602 325.185 212.999ZM321.713 206.985L318.276 208.969C317.589 209.366 316.604 209.247 316.108 208.388C315.711 207.701 315.829 206.716 316.689 206.22L320.125 204.236C320.813 203.839 321.798 203.958 322.294 204.817C322.618 205.775 322.4 206.588 321.713 206.985Z" fill="black"/>
<path d="M338.712 199.92C356.582 189.602 439.405 141.785 439.405 141.785L435.436 134.912L333.197 193.939L338.712 199.92Z" fill="black"/>
<path d="M441.278 131.539L437.154 133.92L441.123 140.793L445.246 138.412L441.278 131.539Z" fill="black"/>
<path d="M460.437 117.501L435.693 131.786C435.792 131.958 435.72 132.229 435.647 132.5L442.005 128.83L447.858 138.968L441.329 142.737C441.699 142.982 441.897 143.326 441.897 143.326L466.813 128.941C466.813 128.941 469.112 125.78 466.731 121.656C464.522 117.433 460.437 117.501 460.437 117.501ZM454.327 132.712C454.724 133.4 454.606 134.385 453.746 134.881L451.341 136.27C450.653 136.666 449.668 136.548 449.172 135.689L445.899 130.018C445.502 129.331 445.792 128.247 446.48 127.85L448.885 126.461C449.573 126.064 450.558 126.183 451.054 127.042L454.327 132.712ZM462.575 127.951C462.972 128.638 462.853 129.623 461.994 130.119L459.589 131.508C458.901 131.905 457.916 131.786 457.42 130.927L454.146 125.256C453.75 124.569 453.868 123.584 454.727 123.088L457.133 121.699C457.82 121.302 458.805 121.421 459.301 122.28L462.575 127.951Z" fill="black"/>
<path d="M46.6996 374.699C44.9741 374.091 43.4523 369.471 42.5718 365.168C38.9634 367.252 33.5906 371.041 35.6739 374.649C38.2533 379.117 45.4597 383.662 49.1693 387.707C53.0507 391.651 55.182 400.502 56.6046 404.95C58.0271 409.398 68.337 403.446 68.337 403.446L51.2735 373.891C50.0707 374.585 48.425 375.306 46.6996 374.699Z" fill="black"/>
<path d="M164.998 324.041L170.653 333.835C178.678 334.243 182.741 329.376 184.598 326.243L178.844 316.276L165.097 324.213L164.998 324.041ZM182.555 326.276C182.555 326.276 177.838 333.582 171.234 331.667L167.365 324.966L178.19 318.716L182.555 326.276Z" fill="black"/>
<path d="M153.215 330.615C154.2 330.734 155.04 331.394 155.536 332.254L156.032 333.113C156.429 333.8 156.554 334.415 156.508 335.129L154.158 365.582C154.112 366.296 154.78 367.056 155.467 366.659L171.125 362.43C171.912 362.205 171.343 361.617 171.145 361.273C170.576 360.685 169.935 360.368 169.782 359.311C169.524 356.482 168.873 348.609 170.36 345.231C170.921 344.219 170.921 344.219 170.425 343.36C170.028 342.673 169.532 341.814 169.181 340.413C168.632 338.668 168.473 336.011 168.935 334.827L162.288 323.315L177.753 314.386L175.769 310.949L144.668 328.906L153.215 330.615ZM166.009 340.87C166.921 341.259 167.589 342.019 167.47 343.004L167.416 358.386C167.37 359.1 166.98 360.012 166.293 360.409L166.121 360.508L159.981 363.366C159.294 363.763 158.481 363.545 157.839 363.228C157.099 362.739 156.702 362.051 156.92 361.238L158.037 341.348C158.083 340.634 158.4 339.993 158.916 339.695C159.431 339.398 160.218 339.173 160.76 339.318L166.009 340.87Z" fill="black"/>
<path d="M159.06 361.377C159.159 361.549 159.159 361.549 159.43 361.622L165.57 358.764C165.57 358.764 165.742 358.665 165.643 358.493L165.598 342.939L165.499 342.768L160.693 341.189C160.422 341.117 160.25 341.216 160.177 341.487L159.06 361.377Z" fill="black"/>
<path d="M171.64 323.642L173.874 322.352C173.874 322.352 174.312 326.682 178.992 327.645C178.992 327.645 176.686 329.206 174.464 327.739C172.144 326.101 171.64 323.642 171.64 323.642Z" fill="black"/>
<path d="M138.877 288.719L123.789 299.492C123.102 299.889 122.117 299.77 121.72 299.083L116.561 290.147C116.165 289.46 116.455 288.376 117.242 288.151L134.115 280.471L138.877 288.719Z" fill="black"/>
<path d="M141.92 275.735L135.734 279.307L140.397 287.383L146.583 283.811L141.92 275.735Z" fill="black"/>
<path d="M160.65 264.923L143.639 274.744L148.301 282.82L165.313 272.999L160.65 264.923Z" fill="black"/>
<path d="M173.364 257.58L162.367 263.93L167.03 272.006L178.027 265.657L173.364 257.58Z" fill="black"/>
<path d="M184.363 251.231L175.084 256.588L179.747 264.664L189.026 259.307L184.363 251.231Z" fill="black"/>
<path d="M224.205 245.64L190.841 258.487L186.08 250.24L213.888 227.77C214.819 227.002 216.175 227.366 216.77 228.397L225.103 242.83C225.798 244.033 225.335 245.216 224.205 245.64Z" fill="black"/>
<path d="M151.924 306.158L150.07 315.247L52.9928 372.899L55.8698 377.882L175.331 306.62C175.898 301.252 179.361 299.711 180.048 299.314L219.913 276.298L220.584 266.746L152.024 306.33L151.924 306.158Z" fill="black"/>
<path d="M108.873 370.879C107.068 368.943 105.851 366.438 105.347 363.979L103.347 351.388L97.6768 354.662L98.6176 361.45C98.9489 364.008 99.3405 369.051 97.3051 370.685L65.4918 394.551L69.9561 402.283L95.7359 383.046C97.5994 381.512 99.6614 380.321 101.948 379.917L109.596 378.481C110.039 378.454 110.21 378.355 110.554 378.156C111.241 377.759 111.902 376.92 112.12 376.107C112.239 375.122 112.014 374.335 111.346 373.575L108.873 370.879ZM77.8921 393.806C76.8611 394.401 75.5059 394.038 74.9107 393.007C74.3155 391.976 74.6786 390.621 75.7096 390.026C76.7405 389.431 78.0957 389.794 78.691 390.825C79.2862 391.856 78.9231 393.211 77.8921 393.806ZM85.2737 387.941C84.2427 388.536 82.8875 388.173 82.2923 387.142C81.697 386.111 82.0602 384.756 83.0911 384.16C84.1221 383.565 85.4773 383.928 86.0725 384.959C86.6678 385.99 86.3047 387.345 85.2737 387.941ZM92.4108 382.445C91.3798 383.041 90.0246 382.678 89.4294 381.647C88.8342 380.616 89.1973 379.26 90.2283 378.665C91.2593 378.07 92.6144 378.433 93.2097 379.464C93.8049 380.495 93.4418 381.85 92.4108 382.445Z" fill="black"/>
<path d="M165.29 245.975C162.197 247.761 159.276 249.447 156.183 251.233C156.752 251.821 157.492 252.31 158.16 253.07C158.26 253.242 158.458 253.585 158.385 253.856L158.201 256.712C158.129 256.983 158.228 257.155 158.327 257.327L161.303 262.482L172.128 256.232L169.152 251.077C169.053 250.905 168.954 250.733 168.683 250.66L166.118 249.392C165.847 249.319 165.648 248.976 165.549 248.804L165.29 245.975Z" fill="black"/>
<path d="M194.195 326.2L205.901 346.476C206.298 347.164 207.283 347.282 207.97 346.886L244.593 314.286C245.009 313.817 245.326 313.175 244.93 312.488L232.33 290.666L194.195 326.2ZM217.153 331.045C217.749 332.076 217.458 333.16 216.427 333.755C215.396 334.351 214.312 334.06 213.717 333.029L207.368 322.032C206.772 321.001 207.063 319.917 208.094 319.322C209.125 318.726 210.209 319.017 210.804 320.048L217.153 331.045ZM224.753 324.366C225.348 325.397 225.058 326.481 224.027 327.077C222.996 327.672 221.911 327.381 221.316 326.35L214.967 315.353C214.372 314.322 214.662 313.238 215.693 312.643C216.724 312.048 217.808 312.338 218.404 313.369L224.753 324.366ZM232.352 317.688C232.947 318.719 232.657 319.803 231.626 320.398C230.595 320.993 229.511 320.703 228.916 319.672L222.566 308.675C221.971 307.644 222.262 306.56 223.293 305.964C224.324 305.369 225.408 305.66 226.003 306.691L232.352 317.688Z" fill="black"/>
</svg>
