<svg width="512" height="512" viewBox="0 0 512 512" fill="none" xmlns="http://www.w3.org/2000/svg">
<path d="M281.453 324.556C289.86 324.089 298.577 323.31 307.607 322.065L309.942 316.305V284.391L308.229 276.919C297.799 277.542 289.237 276.608 281.453 276.919V324.556Z" fill="black"/>
<path d="M288.302 121.708V151.13C274.291 151.13 262.771 139.766 262.771 125.599C262.771 122.019 263.55 118.594 264.795 115.48C268.22 115.48 271.645 115.636 275.07 115.792L285.5 117.971C287.213 118.594 288.302 120.151 288.302 121.708Z" fill="black"/>
<path d="M288.303 160.471V168.877C265.263 168.722 241.601 168.877 223.854 168.877V121.708C223.854 120.151 224.943 118.594 226.5 118.127L236.93 115.792C242.535 115.636 248.606 115.48 254.989 115.48C254.055 118.75 253.432 122.175 253.432 125.599C253.432 144.748 269 160.471 288.303 160.471Z" fill="black"/>
<path d="M258.569 330.004C250.473 330.004 242.845 329.692 235.84 329.381V375.772C248.138 376.551 261.993 376.706 276.471 375.461V329.537C270.244 329.848 264.329 330.004 258.569 330.004Z" fill="black"/>
<path d="M230.704 272.404V225.857H202.838L200.814 233.486V267.267L202.527 272.56C206.886 272.716 230.704 272.404 230.704 272.404Z" fill="black"/>
<path d="M230.703 276.763C222.608 276.296 207.663 276.919 202.681 276.763L200.969 284.235V316.149L202.993 321.131C210.776 322.22 220.117 323.31 230.703 324.088V276.763Z" fill="black"/>
<path d="M235.684 276.766V324.558C247.982 325.336 261.681 325.492 276.315 324.869V276.766C270.399 276.921 244.246 277.077 235.684 276.766Z" fill="black"/>
<path d="M327.377 312.1V282.989C327.377 282.211 327.065 281.432 326.443 280.81L320.838 276.295C318.347 276.451 315.857 276.606 313.521 276.762L315.234 284.079V317.082L313.521 321.285C315.078 321.13 316.479 320.818 318.036 320.507L326.443 314.28C326.91 313.657 327.377 312.879 327.377 312.1Z" fill="black"/>
<path d="M197.232 375.46C197.232 377.795 197.544 381.376 197.544 381.687C212.177 384.645 267.287 393.986 314.923 379.041C314.923 377.328 314.923 374.993 314.923 373.125C294.997 379.196 273.981 381.064 254.988 381.064C228.679 381.064 206.573 377.328 197.232 375.46Z" fill="black"/>
<path d="M281.453 374.994C290.327 374.06 299.356 372.503 308.229 370.012L309.942 365.031V333.428L308.541 326.734C299.2 327.98 290.171 328.914 281.453 329.381V374.994Z" fill="black"/>
<path d="M276.315 225.857H235.684V272.404H276.315V225.857Z" fill="black"/>
<path d="M230.703 375.307V329.071C219.961 328.293 210.465 327.203 202.526 326.113L200.969 333.43V365.032L202.526 371.726C209.064 372.816 218.871 374.373 230.703 375.307Z" fill="black"/>
<path d="M195.832 317.085V283.614L197.545 276.453C195.677 276.298 193.653 276.142 191.629 275.986L185.713 280.657C185.091 281.279 184.779 282.058 184.779 282.836V311.947C184.779 312.726 185.091 313.504 185.713 314.127L193.03 319.576C194.276 319.731 195.677 320.043 197.078 320.198L195.832 317.085Z" fill="black"/>
<path d="M254.987 391.963C230.39 391.963 209.374 388.694 199.1 386.671C201.435 393.676 205.327 402.394 207.817 407.998C209.53 411.734 212.643 414.692 216.535 416.56L217.002 416.716C220.272 418.273 224.008 419.051 227.744 419.051H285.033C288.302 419.051 291.571 418.428 294.685 417.183L295.619 416.716C300.445 414.848 304.181 411.112 305.738 406.441C307.917 400.214 311.031 391.341 313.521 384.18C293.906 390.095 273.357 391.963 254.987 391.963Z" fill="black"/>
<path d="M264.017 100.537C260.592 103.806 257.79 107.854 256.078 112.212C249.228 112.212 242.845 112.368 236.93 112.524V105.207C236.93 103.806 238.019 102.716 239.42 102.094C240.51 101.471 242.845 101.004 244.402 100.848C246.893 100.692 254.988 99.9141 264.017 100.537Z" fill="black"/>
<path d="M275.226 105.208V112.681C272.268 112.525 269.31 112.525 266.508 112.369C268.532 108.945 271.489 105.987 274.914 103.963C275.07 104.43 275.226 104.741 275.226 105.208Z" fill="black"/>
<path d="M191.473 271.315C193.497 271.47 195.365 271.626 197.233 271.626L195.832 267.89V232.863L199.569 225.857H197.233L186.025 233.019C185.246 233.641 184.779 234.575 184.779 235.509V265.243C184.779 266.177 185.246 266.956 185.869 267.579L191.473 271.315Z" fill="black"/>
<path d="M310.564 214.494H201.591C200.657 214.494 199.879 215.117 199.879 216.051V221.188H312.121V216.051C312.121 215.273 311.498 214.494 310.564 214.494Z" fill="black"/>
<path d="M195.831 365.811V332.808L197.388 325.335C194.742 324.868 192.251 324.401 190.071 324.09L184.934 327.982C184.311 328.604 184 329.383 184 330.161V359.584C184 360.518 184.467 361.452 185.245 362.075L196.921 369.391L195.831 365.811Z" fill="black"/>
<path d="M322.551 324.398C319.593 325.021 316.479 325.488 313.521 325.955L315.078 333.116V365.653L314.144 368.299C315.701 367.832 317.258 367.365 318.659 366.742L326.754 361.761C327.532 361.138 327.999 360.204 327.999 359.27V329.847C327.999 329.069 327.688 328.29 327.065 327.668L322.551 324.398Z" fill="black"/>
<path d="M327.378 265.243V235.354C327.378 234.42 326.911 233.486 326.133 232.863L314.768 225.857H312.9L314.924 232.863V267.89L313.367 271.937C315.547 271.782 317.726 271.626 319.906 271.47L325.977 267.423C326.911 266.956 327.378 266.177 327.378 265.243Z" fill="black"/>
<path d="M297.02 185.849L294.685 181.49C294.374 181.023 293.907 180.556 293.284 180.556C266.196 180.401 238.019 180.401 218.871 180.556C218.248 180.556 217.626 180.868 217.47 181.49L215.135 185.849C235.217 185.694 267.442 185.694 297.02 185.849Z" fill="black"/>
<path d="M292.506 177.288L290.171 172.929C289.86 172.462 289.393 171.995 288.77 171.995C265.107 171.839 241.133 171.995 223.23 171.995C222.608 171.995 221.985 172.306 221.829 172.929L219.494 177.288C238.798 177.288 266.353 177.132 292.506 177.288Z" fill="black"/>
<path d="M281.453 225.857V272.405H302.002C304.026 272.249 306.05 272.56 308.074 272.405L309.942 267.112V233.486L308.074 225.857H281.453Z" fill="black"/>
<path d="M301.536 194.255L299.201 189.897C298.889 189.429 298.422 188.962 297.8 188.962C267.131 188.807 234.439 188.807 214.357 188.962C213.735 188.962 213.112 189.274 212.956 189.897L210.621 194.255C231.17 194.1 268.377 194.1 301.536 194.255Z" fill="black"/>
<path d="M310.409 211.225L308.074 206.866C307.763 206.399 307.296 206.087 306.673 205.932C268.532 205.62 224.787 205.776 205.328 205.932C204.705 205.932 204.083 206.243 203.927 206.866L201.592 211.225C219.806 211.069 269.778 210.913 310.409 211.225Z" fill="black"/>
<path d="M306.05 202.816L303.715 198.457C303.403 197.99 302.936 197.523 302.314 197.523C268.065 197.367 230.236 197.367 209.998 197.523C209.375 197.523 208.753 197.834 208.597 198.457L206.262 202.816C226.188 202.66 269.31 202.505 306.05 202.816Z" fill="black"/>
<path d="M288.303 157.204C270.868 157.204 256.701 143.038 256.701 125.602C256.701 108.166 270.868 94 288.303 94C305.739 94 319.906 108.166 319.906 125.602C319.906 143.038 305.739 157.204 288.303 157.204ZM288.303 97.1135C272.58 97.1135 259.815 109.879 259.815 125.602C259.815 141.325 272.58 154.091 288.303 154.091C304.027 154.091 316.792 141.325 316.792 125.602C316.792 109.879 304.027 97.1135 288.303 97.1135Z" fill="black"/>
</svg>
