<svg width="512" height="512" viewBox="0 0 512 512" fill="none" xmlns="http://www.w3.org/2000/svg">
<path d="M244.028 328.167C251.541 331.966 259.481 335.651 267.923 339.087L272.825 335.266L288.782 307.628L291.035 300.3C281.691 295.624 274.743 290.534 267.846 286.912L244.028 328.167Z" fill="black"/>
<path d="M351.384 155.92L336.672 181.401C324.538 174.395 320.244 158.794 327.327 146.525C329.118 143.424 331.504 140.847 334.139 138.774C337.105 140.486 339.994 142.333 342.882 144.181L350.825 151.283C351.997 152.679 352.162 154.572 351.384 155.92Z" fill="black"/>
<path d="M332.002 189.49L327.798 196.771C307.923 185.116 287.353 173.419 271.983 164.546L295.568 123.696C296.347 122.347 298.069 121.544 299.65 121.918L309.851 125.111C314.782 127.778 320.118 130.679 325.645 133.87C323.202 136.234 320.95 138.889 319.238 141.855C309.664 158.438 315.284 179.838 332.002 189.49Z" fill="black"/>
<path d="M221.486 321.443C214.475 317.395 208.024 313.311 202.113 309.539L178.918 349.715C189.179 356.539 201.1 363.601 214.261 369.761L237.223 329.99C231.675 327.146 226.474 324.323 221.486 321.443Z" fill="black"/>
<path d="M226.153 257.627L249.426 217.316L225.294 203.383L219.727 208.977L202.836 238.233L201.673 243.673C205.37 245.987 226.153 257.627 226.153 257.627Z" fill="black"/>
<path d="M223.973 261.401C217.195 256.949 203.941 250.016 199.705 247.39L194.486 253.005L178.529 280.643L177.791 285.969C183.987 290.805 191.531 296.419 200.31 302.386L223.973 261.401Z" fill="black"/>
<path d="M228.285 263.895L204.389 305.284C214.65 312.107 226.437 319.092 239.421 325.869L263.473 284.21C258.272 281.387 235.545 268.445 228.285 263.895Z" fill="black"/>
<path d="M290.026 340.344L304.582 315.133C304.971 314.459 305.09 313.629 304.862 312.779L302.266 306.067C300.031 304.956 297.796 303.845 295.696 302.813L293.521 310.005L277.019 338.587L273.435 341.371C274.861 342.015 276.23 342.445 277.733 342.954L288.127 341.765C288.843 341.459 289.637 341.018 290.026 340.344Z" fill="black"/>
<path d="M145.637 330.141C144.47 332.164 142.949 335.42 142.793 335.69C153.987 345.568 197.043 381.212 245.77 392.088C246.626 390.605 247.794 388.582 248.728 386.965C228.435 382.259 209.301 373.369 192.853 363.873C170.068 350.718 152.792 336.43 145.637 330.141Z" fill="black"/>
<path d="M218.808 371.849C226.959 375.477 235.557 378.643 244.487 380.923L248.461 377.465L264.262 350.096L266.396 343.598C257.684 340.007 249.398 336.301 241.614 332.347L218.808 371.849Z" fill="black"/>
<path d="M288.928 240.122L253.74 219.807L230.467 260.118L265.655 280.433L288.928 240.122Z" fill="black"/>
<path d="M174.701 346.743L197.818 306.702C188.905 300.657 181.226 294.965 174.895 290.052L169.888 295.61L154.087 322.978L152.089 329.554C157.206 333.767 164.921 340.019 174.701 346.743Z" fill="black"/>
<path d="M173.613 278.886L190.348 249.9L195.412 244.555C193.872 243.486 192.197 242.339 190.522 241.192L183.064 242.279C182.213 242.507 181.554 243.026 181.165 243.7L166.609 268.911C166.22 269.585 166.101 270.415 166.328 271.265L169.941 279.642C170.941 280.4 171.999 281.37 173.135 282.205L173.613 278.886Z" fill="black"/>
<path d="M187.403 373.312C166.101 361.013 149.535 347.674 141.649 340.784C140.169 348.019 139.18 357.514 138.535 363.613C138.15 367.705 139.368 371.823 141.804 375.387L142.131 375.756C144.183 378.738 147.03 381.281 150.266 383.149L199.879 411.793C202.71 413.428 205.853 414.523 209.172 415.001L210.214 415.064C215.328 415.859 220.432 414.491 224.115 411.225C229.116 406.922 236.249 400.794 241.987 395.838C222.042 391.153 203.311 382.497 187.403 373.312Z" fill="black"/>
<path d="M340.937 125.443C336.337 126.562 331.886 128.666 328.224 131.585C322.292 128.16 316.686 125.104 311.485 122.281L315.144 115.944C315.844 114.731 317.333 114.332 318.857 114.493C320.112 114.499 322.368 115.262 323.794 115.905C326.029 117.016 333.429 120.389 340.937 125.443Z" fill="black"/>
<path d="M348.308 135.094L344.572 141.565C342.088 139.951 339.527 138.472 337.178 136.936C340.643 134.982 344.683 133.9 348.661 133.859C348.562 134.342 348.542 134.689 348.308 135.094Z" fill="black"/>
<path d="M192.723 237.068C194.398 238.214 195.938 239.283 197.555 240.217L198.21 236.281L215.724 205.947L222.462 201.748L220.44 200.581L207.152 201.178C206.167 201.328 205.295 201.903 204.828 202.712L189.961 228.463C189.494 229.272 189.51 230.179 189.737 231.03L192.723 237.068Z" fill="black"/>
<path d="M324.269 247.407L229.895 192.921C229.086 192.454 228.101 192.604 227.634 193.413L225.065 197.862L322.27 253.983L324.838 249.534C325.228 248.86 325.077 247.874 324.269 247.407Z" fill="black"/>
<path d="M149.249 321.084L165.751 292.503L170.835 286.81C168.777 285.082 166.853 283.432 165.121 282.073L158.726 282.875C157.876 283.103 157.217 283.621 156.828 284.295L142.116 309.776C141.649 310.585 141.587 311.627 141.949 312.556L148.402 324.73L149.249 321.084Z" fill="black"/>
<path d="M279.698 348.579C276.826 347.639 273.896 346.487 271.101 345.413L268.868 352.393L252.6 380.57L250.468 382.395C252.05 382.769 253.631 383.143 255.156 383.304L264.657 383.037C265.643 382.887 266.514 382.312 266.981 381.503L281.693 356.022C282.082 355.348 282.201 354.518 281.974 353.668L279.698 348.579Z" fill="black"/>
<path d="M313.457 299.764L328.401 273.879C328.868 273.07 328.931 272.028 328.568 271.099L322.229 259.35L320.611 258.416L318.861 265.495L301.348 295.829L297.976 298.556C299.941 299.511 301.906 300.466 303.872 301.421L311.153 300.951C312.196 301.014 312.989 300.573 313.457 299.764Z" fill="black"/>
<path d="M326.862 215.827L327.02 210.884C326.983 210.324 326.813 209.686 326.273 209.375C302.893 195.696 278.49 181.608 261.83 172.168C261.29 171.857 260.595 171.815 260.149 172.277L255.947 174.884C273.417 184.79 301.325 200.903 326.862 215.827Z" fill="black"/>
<path d="M327.233 206.156L327.39 201.213C327.354 200.653 327.183 200.015 326.644 199.704C306.229 187.737 285.389 175.885 269.885 166.934C269.345 166.623 268.65 166.581 268.204 167.042L264.003 169.65C280.72 179.302 304.661 192.944 327.233 206.156Z" fill="black"/>
<path d="M293.377 242.691L270.103 283.002L287.9 293.277C289.73 294.154 291.327 295.436 293.157 296.313L297.422 292.663L314.235 263.542L316.431 256.002L293.377 242.691Z" fill="black"/>
<path d="M326.569 225.365L326.726 220.422C326.69 219.862 326.519 219.224 325.979 218.913C299.498 203.444 271.186 187.098 253.716 177.192C253.177 176.881 252.482 176.839 252.036 177.3L247.834 179.908C265.708 190.047 297.93 208.651 326.569 225.365Z" fill="black"/>
<path d="M325.77 244.496L325.927 239.553C325.891 238.993 325.642 238.49 325.181 238.044C292.306 218.704 254.344 196.966 237.413 187.371C236.874 187.06 236.179 187.018 235.733 187.48L231.531 190.087C247.383 199.059 290.738 223.911 325.77 244.496Z" fill="black"/>
<path d="M326.199 235.036L326.356 230.094C326.32 229.533 326.149 228.895 325.609 228.584C296.027 211.325 263.266 192.41 245.662 182.426C245.122 182.115 244.427 182.073 243.981 182.535L239.78 185.142C257.114 194.97 294.537 216.397 326.199 235.036Z" fill="black"/>
<path d="M333.635 186.661C318.536 177.943 313.35 158.591 322.068 143.491C330.786 128.392 350.138 123.206 365.237 131.924C380.337 140.642 385.523 159.994 376.805 175.094C368.087 190.193 348.735 195.379 333.635 186.661ZM363.681 134.621C350.064 126.759 332.626 131.431 324.764 145.048C316.903 158.665 321.575 176.103 335.192 183.964C348.809 191.826 366.247 187.154 374.108 173.537C381.97 159.92 377.297 142.482 363.681 134.621Z" fill="black"/>
</svg>
