<svg width="512" height="512" viewBox="0 0 512 512" fill="none" xmlns="http://www.w3.org/2000/svg">
<path d="M274.384 323.723L169.635 263.246L148.228 300.324L252.977 360.801L274.384 323.723Z" fill="black"/>
<path d="M355.2 158.349L362.852 126.863C362.933 126.722 362.792 126.641 362.57 126.7C360.443 128.104 348.775 136.594 341.219 142.194C347.46 146.361 352.301 151.975 355.2 158.349Z" fill="black"/>
<path d="M298.753 210.535C285.36 202.803 278.114 188.656 278.764 174.182L235.482 149.193L171.099 260.709L275.848 321.186L340.231 209.67C328.102 217.329 312.146 218.268 298.753 210.535Z" fill="black"/>
<path d="M312.939 112.709L300.741 99.6512C300.54 99.3475 300.036 99.2443 299.591 99.3634L283.775 105.27L290.106 116.444L272.199 147.46L284.605 154.623C295.772 136.257 319.485 130.023 338.257 140.485C345.065 135.205 352.763 129.686 357.786 126.195L335.161 124.035C326.603 123.229 318.605 119.176 312.939 112.709Z" fill="black"/>
<path d="M115.019 357.846C112.414 362.357 114.045 367.998 118.415 370.521L206.951 421.637C211.463 424.242 217.103 422.611 219.627 418.241L251.29 363.399L146.682 303.004L115.019 357.846Z" fill="black"/>
<path d="M279.71 97.6603C281.374 100.313 284.438 101.518 287.492 100.461L300.818 95.937C301.263 95.8178 301.626 95.8396 301.827 96.1434L315.332 110.52C320.596 116.379 327.667 120.085 335.498 120.847L361.03 123.182C361.394 123.203 361.416 122.84 361.275 122.759L296 85.0725C295.718 84.9097 295.496 84.9693 295.274 85.0289L282.517 88.5662C279.138 90.1867 277.867 94.3406 279.71 97.6603Z" fill="black"/>
<path d="M282.979 157.441L270.714 150.36L238.57 131.802C238.147 131.557 237.702 131.676 237.458 132.099L232.412 140.84C232.168 141.263 232.287 141.708 232.71 141.952L279.233 168.813C279.978 164.919 281.226 161.128 282.979 157.441Z" fill="black"/>
<path d="M347.451 170.793C345.974 162.608 341.1 155.095 333.346 150.619C332.782 150.293 332.36 150.049 331.937 149.805C330.396 151.171 329.159 152.337 328.448 153.242C328.063 153.584 327.96 154.088 328.139 154.755C328.766 158.877 338.57 165.665 347.451 170.793Z" fill="black"/>
<path d="M345.823 173.612C337.788 168.973 325.929 161.187 324.825 155.286C324.63 153.669 324.94 152.156 325.954 151.05C326.583 150.286 327.517 149.321 328.591 148.437C316.091 144.04 301.734 148.721 294.474 160.32L344.522 189.215C346.986 184.622 347.937 179.72 347.797 174.752C347.233 174.426 346.528 174.019 345.823 173.612Z" fill="black"/>
<path d="M355.648 198.27L353.111 196.805C350.772 200.53 347.951 203.789 344.647 206.58L349.3 209.267C349.723 209.511 350.167 209.392 350.411 208.969L355.865 199.523C356.25 199.181 356.071 198.514 355.648 198.27Z" fill="black"/>
<path d="M304.451 200.667C312.064 205.062 320.784 205.585 328.53 202.914L290.465 180.938C292.024 188.981 296.838 196.271 304.451 200.667Z" fill="black"/>
<path d="M290.087 175.08L333.933 200.394C337.415 198.269 340.496 195.537 342.976 191.893L292.928 162.998C291.012 166.967 290.045 170.921 290.087 175.08Z" fill="black"/>
<path d="M364.625 213.979L359.314 200.387L352.966 211.383C353.518 214.334 357.676 219.178 356.129 221.857L275.385 361.71L282.716 365.942L363.949 225.243C365.902 221.86 366.224 217.722 364.625 213.979Z" fill="black"/>
<path d="M353.842 163.956C351.252 156.07 345.913 149.04 338.463 144.362C338.04 144.118 336.066 142.979 335.361 142.572C318.296 134.035 297.453 139.859 287.425 156.25C287.262 156.532 286.123 158.506 285.797 159.07C283.903 162.676 282.714 166.689 282.111 170.664C281.861 172.399 281.752 174.216 281.784 176.114C281.97 188.816 288.539 200.879 300.24 207.635C311.942 214.391 325.755 213.907 336.766 207.858C338.426 206.937 339.945 205.934 341.323 204.85C344.464 202.34 347.263 199.445 349.521 195.861C349.683 195.579 350.986 193.323 351.148 193.041C356.439 183.877 357.072 173.34 353.842 163.956ZM345.573 193.581C343.175 197.084 340.375 199.979 336.953 202.327C335.352 203.47 333.692 204.392 331.973 205.091C322.828 209.21 312.046 209 302.742 203.628C293.437 198.256 287.865 189.024 286.859 179.044C286.605 177.206 286.573 175.308 286.763 173.35C287.003 169.353 288.051 165.259 290.027 161.512C290.352 160.948 291.492 158.974 291.654 158.692C300.054 145.12 317.058 140.087 331.428 146.128C332.496 146.557 334.974 147.8 335.115 147.881C344.561 153.334 350.193 162.789 351.117 172.909C351.214 173.718 351.203 176.342 351.181 176.706C351.038 181.511 349.806 186.25 347.564 190.784C347.423 190.702 346.121 192.958 345.573 193.581Z" fill="black"/>
</svg>
