<svg width="512" height="512" viewBox="0 0 512 512" fill="none" xmlns="http://www.w3.org/2000/svg">
<path d="M305.792 305.488H184.838V348.302H305.792V305.488Z" fill="black"/>
<path d="M293.092 121.86L283.976 90.7666C283.976 90.6038 283.813 90.6038 283.65 90.7666C282.511 93.0457 276.65 106.232 272.906 114.86C280.395 115.348 287.395 117.79 293.092 121.86Z" fill="black"/>
<path d="M270.303 195.279C254.838 195.279 241.489 186.651 234.815 173.791H184.838V302.559H305.792V173.791C299.117 186.489 285.768 195.279 270.303 195.279Z" fill="black"/>
<path d="M233.674 103.465L216.581 98.2556C216.255 98.0928 215.767 98.2556 215.441 98.5812L204.697 111.604L215.767 118.116V153.93H230.093C230.581 132.442 248 115.186 269.488 114.86C272.744 106.884 276.651 98.2556 279.255 92.7207L258.581 102.163C250.767 105.744 241.814 106.232 233.674 103.465Z" fill="black"/>
<path d="M184.838 414.72C184.838 419.929 189.07 423.999 194.117 423.999H296.35C301.559 423.999 305.629 419.767 305.629 414.72V351.395H184.838V414.72Z" fill="black"/>
<path d="M197.372 107.047C200.139 108.512 203.395 108.023 205.512 105.581L214.791 95C215.116 94.6744 215.442 94.5116 215.767 94.6744L234.651 100.372C242.14 102.814 250.116 102.488 257.279 99.2326L280.558 88.4884C280.884 88.3256 280.721 88 280.558 88H205.186C204.86 88 204.698 88.1628 204.535 88.3256L195.256 97.7675C193.139 100.86 194.116 105.093 197.372 107.047Z" fill="black"/>
<path d="M230.093 157.186H215.93H178.814C178.326 157.186 178 157.511 178 158V168.093C178 168.581 178.326 168.906 178.814 168.906H232.535C231.233 165.162 230.419 161.255 230.093 157.186Z" fill="black"/>
<path d="M292.604 136.512C287.232 130.164 279.255 126.094 270.302 126.094C269.651 126.094 269.162 126.094 268.674 126.094C268.023 128.047 267.534 129.675 267.372 130.815C267.209 131.303 267.372 131.791 267.86 132.28C270.465 135.536 282.348 136.512 292.604 136.512Z" fill="black"/>
<path d="M292.605 139.768C283.326 139.768 269.163 138.954 265.256 134.396C264.279 133.094 263.791 131.629 264.116 130.163C264.279 129.187 264.605 127.884 265.093 126.582C252.07 129.024 241.977 140.256 241.488 153.931H299.279C299.116 148.722 297.488 144.001 294.884 139.768C294.233 139.768 293.419 139.768 292.605 139.768Z" fill="black"/>
<path d="M313.442 156.209H310.512C310.349 160.604 309.535 164.837 308.07 168.907H313.442C313.931 168.907 314.256 168.581 314.256 168.093V157.186C314.419 156.697 313.931 156.209 313.442 156.209Z" fill="black"/>
<path d="M270.303 183.884C279.094 183.884 286.908 179.977 292.28 173.791H248.326C253.698 179.977 261.512 183.884 270.303 183.884Z" fill="black"/>
<path d="M245.07 168.907H295.698C297.651 165.326 298.953 161.419 299.279 157.023H241.488C241.814 161.419 242.953 165.326 245.07 168.907Z" fill="black"/>
<path d="M329.069 165.325L317.674 156.209V168.907C319.627 171.186 325.651 173.302 325.651 176.395V337.884H334.116V175.418C334.116 171.511 332.325 167.767 329.069 165.325Z" fill="black"/>
<path d="M294.722 127.394C288.536 121.859 280.396 118.441 271.605 118.115C271.117 118.115 268.838 118.115 268.024 118.115C248.978 119.255 233.838 134.72 233.35 153.929C233.35 154.255 233.35 156.534 233.35 157.185C233.512 161.255 234.489 165.325 235.954 169.069C236.605 170.697 237.419 172.325 238.396 173.953C244.908 184.859 256.629 192.022 270.14 192.022C283.652 192.022 295.373 184.697 301.885 173.953C302.861 172.325 303.675 170.697 304.326 169.069C305.792 165.325 306.768 161.418 306.931 157.185C306.931 156.859 306.931 154.255 306.931 153.929C306.931 143.348 302.21 133.906 294.722 127.394ZM302.373 157.185C302.047 161.418 301.071 165.325 299.28 169.069C298.466 170.859 297.489 172.487 296.35 173.953C290.489 182.092 281.047 187.301 270.303 187.301C259.559 187.301 250.117 182.092 244.257 173.953C243.117 172.487 242.14 170.859 241.326 169.069C239.536 165.487 238.396 161.418 238.233 157.185C238.233 156.534 238.233 154.255 238.233 153.929C238.722 137.976 250.931 125.115 266.396 123.162C267.536 122.999 270.303 122.836 270.466 122.836C281.373 122.836 290.978 128.208 296.838 136.511C297.326 137.162 298.629 139.441 298.792 139.766C301.071 143.999 302.373 148.72 302.699 153.766C302.536 153.766 302.536 156.371 302.373 157.185Z" fill="black"/>
</svg>
