<svg width="512" height="160" viewBox="0 0 512 160" fill="none" xmlns="http://www.w3.org/2000/svg">
<path d="M160.421 55.7915C160.219 55.3878 160.017 55.1859 159.614 55.3878C151.943 58.6175 126.307 70.3252 122.068 89.5016C121.866 89.9054 122.27 90.3091 122.27 90.5109C122.674 90.7128 122.876 90.9146 123.279 90.9146H132.565C133.17 90.9146 134.785 90.9146 134.987 90.1072C137.006 83.8496 144.273 63.6639 162.036 62.8565C162.44 62.8565 162.642 62.4528 162.44 61.8472L160.421 55.7915Z" fill="black"/>
<path d="M113.994 64.2702L18.112 79.0058L17.9102 107.064C17.9102 109.082 18.5157 110.697 20.1306 111.707C21.7454 112.716 23.9659 112.716 25.7826 111.908L74.632 89.0986C78.6691 87.08 83.11 85.667 87.5508 84.6578L108.342 79.2076C109.351 79.0058 110.764 78.1983 111.37 77.189L115.609 69.1148C116.215 68.1055 117.224 66.4906 116.82 65.2795C116.215 64.472 115.003 64.0683 113.994 64.2702Z" fill="black"/>
<path d="M175.157 70.325L178.589 72.5454C179.194 73.3529 179.598 74.564 179.598 75.3714C179.598 78.803 182.424 81.629 185.856 81.629H200.793C202.408 81.629 204.023 80.8216 204.83 79.4086C208.464 73.5547 208.665 72.1417 215.327 69.5176H174.955C174.35 69.5176 174.753 70.1231 175.157 70.325ZM182.222 74.9677C182.222 72.5454 184.241 70.5269 186.663 70.5269H199.582C202.004 70.5269 204.023 72.5454 204.023 74.9677V75.7751C204.023 78.1974 202.004 80.216 199.582 80.216H186.663C184.241 80.216 182.222 78.1974 182.222 75.7751V74.9677Z" fill="black"/>
<path d="M216.134 51.1478H253.275V49.5329H259.735V51.1478H263.368V47.3125H237.329C236.925 47.3125 236.319 47.5144 235.916 47.7162L234.099 48.7255C233.695 48.9274 233.09 49.1292 232.686 49.1292H215.73C215.124 49.1292 214.721 49.5329 214.721 50.1385C214.721 50.7441 215.73 51.1478 216.134 51.1478Z" fill="black"/>
<path d="M261.147 58.0117C260.138 58.0117 259.33 58.8192 259.33 59.8284C259.33 60.8377 260.138 61.6452 261.147 61.6452C262.156 61.6452 262.964 60.8377 262.964 59.8284C262.964 58.8192 262.156 58.0117 261.147 58.0117Z" fill="black"/>
<path d="M175.156 45.0938L167.284 50.9476C166.678 51.3513 166.476 52.1588 166.88 52.7643L170.11 60.4349C170.11 60.6368 170.312 60.8386 170.715 60.8386H215.326L217.95 63.6646H267.808V45.0938H175.56C175.358 45.0938 175.156 45.0938 175.156 45.0938ZM261.147 62.6553C259.532 62.6553 258.321 61.4442 258.321 59.8293C258.321 58.2145 259.532 57.0033 261.147 57.0033C262.762 57.0033 263.973 58.2145 263.973 59.8293C263.973 61.4442 262.762 62.6553 261.147 62.6553ZM216.133 47.9198H233.089C233.493 47.9198 233.695 47.9198 234.098 47.7179L235.915 46.7086C236.521 46.3049 237.126 46.103 237.732 46.103H264.781V51.9569H216.335C215.124 51.9569 214.316 50.9476 214.316 49.9383C214.115 48.929 215.124 47.9198 216.133 47.9198Z" fill="black"/>
<path d="M410.521 48.3223H275.883C274.268 48.3223 273.057 49.5334 273.057 51.1483V68.508C273.057 69.7191 273.864 70.9303 274.873 71.334H278.507V56.8003C278.507 54.378 280.525 52.1576 283.149 52.1576H403.254C405.677 52.1576 407.897 54.1761 407.897 56.8003V71.334H411.732C412.742 70.9303 413.549 69.7191 413.549 68.508V51.1483C413.347 49.5334 411.934 48.3223 410.521 48.3223Z" fill="black"/>
<path d="M477.539 54.5801H415.367V66.2878H477.539V54.5801Z" fill="black"/>
<path d="M481.98 54.5801H479.355V66.2878H481.98C483.594 66.2878 485.007 64.6729 485.007 63.0581V57.6079C485.007 55.7912 483.594 54.5801 481.98 54.5801Z" fill="black"/>
<path d="M500.146 38.2297C500.146 38.2297 499.945 38.0279 499.743 38.0279H497.724V35H489.246V37.6241H483.594C482.989 37.6241 482.383 37.826 481.777 38.0279L477.74 40.0464H501.761L500.146 38.2297Z" fill="black"/>
<path d="M402.245 54.1758H283.957C282.14 54.1758 280.525 55.5888 280.525 57.6074V71.3336H405.677V57.6074C405.677 55.5888 404.062 54.1758 402.245 54.1758ZM399.015 66.6909H286.379V64.6723H399.015V66.6909ZM399.015 60.4334H286.379V58.4148H399.015V60.4334Z" fill="black"/>
<path d="M286.379 38.432H283.956V36.0098H279.919V38.6339H272.047V39.845H286.379V38.432Z" fill="black"/>
<path d="M269.625 41.8633V67.0954H270.836V51.1487C270.836 48.5246 273.057 46.3041 275.681 46.3041H410.319C412.742 46.3041 414.76 48.1208 415.164 50.5431H506V41.8633H269.625Z" fill="black"/>
<path d="M214.317 62.6536H169.909C169.303 62.6536 168.697 62.4517 168.496 61.8462L164.862 52.7626C164.458 51.7533 164.66 50.3403 165.67 49.7347L174.148 43.2753C174.551 43.2753 174.955 43.0735 175.157 43.0735H267.607V39.8438L175.359 40.2475C173.946 40.2475 172.533 40.6512 171.322 41.4586C165.67 45.2939 147.704 56.5979 135.391 59.6257C128.124 65.4796 119.848 74.5632 113.994 90.1061L114.196 91.9229C114.398 94.3451 116.013 95.96 118.233 95.96L136.804 95.7581C138.621 95.7581 140.236 94.3451 140.639 92.5284C142.254 84.656 149.117 64.6722 174.349 67.0944L217.749 66.6907V68.7093V71.5353H252.468V66.6907L267.607 66.8926V65.2777H216.941L214.317 62.6536ZM162.642 64.4703C146.089 65.2777 138.823 84.656 137.006 90.5099C136.804 90.9136 136.602 91.3173 136.198 91.721C135.997 91.9229 135.997 91.9229 135.795 92.1247C135.189 92.5284 134.18 92.9321 132.565 92.9321H123.28C122.27 92.9321 121.261 92.5284 120.655 91.721C120.05 91.1154 119.848 90.1061 119.848 89.2987C121.867 80.8207 127.519 73.7557 134.18 68.1037C134.785 67.7 135.189 67.0944 135.795 66.6907C144.475 59.8276 154.567 55.1849 159.008 53.3682C160.825 52.5607 161.431 53.1663 162.036 54.5793L164.66 61.4425C165.67 63.6629 163.853 64.4703 162.642 64.4703Z" fill="black"/>
<path d="M131.353 60.2314C129.335 60.4332 127.72 60.2314 126.307 59.6258C125.096 59.0202 123.077 58.8184 121.866 58.8184L101.478 60.0295L8.62414 68.3056C7.21114 68.5075 6 69.7186 6 71.3335V119.779C6 124.22 10.6427 127.046 14.6799 125.229L64.9423 102.218C64.9423 102.218 89.7707 86.2709 111.975 89.7025C117.425 75.3706 124.49 66.2871 131.353 60.2314ZM118.233 67.9019L112.379 78.8022C111.773 80.0134 110.562 80.8208 109.351 81.2245L87.5503 86.6746C83.1094 87.6839 78.8704 89.0969 74.8333 90.9136L25.1764 114.329C24.369 114.733 23.3597 114.935 22.3504 114.935C21.1393 114.935 19.9281 114.531 18.717 113.925C16.9003 112.714 15.6891 110.696 15.6891 108.273L15.891 77.9948C15.891 77.5911 16.2947 76.9855 16.6984 76.9855L113.994 62.2499C115.407 62.0481 116.82 62.6536 117.829 63.8648C118.838 65.0759 118.838 66.6908 118.233 67.9019Z" fill="black"/>
<path d="M191.305 78.804C191.709 78.804 187.672 75.978 191.305 71.5371H186.865C186.865 73.3538 186.663 78.804 191.305 78.804Z" fill="black"/>
</svg>
