<svg width="512" height="512" viewBox="0 0 512 512" fill="none" xmlns="http://www.w3.org/2000/svg">
<path d="M160.421 231.791C160.219 231.388 160.017 231.186 159.614 231.388C151.943 234.617 126.307 246.325 122.068 265.502C121.866 265.905 122.27 266.309 122.27 266.511C122.674 266.713 122.876 266.915 123.279 266.915H132.565C133.17 266.915 134.785 266.915 134.987 266.107C137.006 259.85 144.273 239.664 162.036 238.856C162.44 238.856 162.642 238.453 162.44 237.847L160.421 231.791Z" fill="black"/>
<path d="M113.994 240.27L18.112 255.006L17.9102 283.064C17.9102 285.082 18.5157 286.697 20.1306 287.707C21.7454 288.716 23.9659 288.716 25.7826 287.908L74.632 265.099C78.6691 263.08 83.11 261.667 87.5508 260.658L108.342 255.208C109.351 255.006 110.764 254.198 111.37 253.189L115.609 245.115C116.215 244.105 117.224 242.491 116.82 241.279C116.215 240.472 115.003 240.068 113.994 240.27Z" fill="black"/>
<path d="M175.157 246.325L178.589 248.545C179.194 249.353 179.598 250.564 179.598 251.371C179.598 254.803 182.424 257.629 185.856 257.629H200.793C202.408 257.629 204.023 256.822 204.83 255.409C208.464 249.555 208.665 248.142 215.327 245.518H174.955C174.35 245.518 174.753 246.123 175.157 246.325ZM182.222 250.968C182.222 248.545 184.241 246.527 186.663 246.527H199.582C202.004 246.527 204.023 248.545 204.023 250.968V251.775C204.023 254.197 202.004 256.216 199.582 256.216H186.663C184.241 256.216 182.222 254.197 182.222 251.775V250.968Z" fill="black"/>
<path d="M216.134 227.148H253.275V225.533H259.735V227.148H263.368V223.312H237.329C236.925 223.312 236.319 223.514 235.916 223.716L234.099 224.725C233.695 224.927 233.09 225.129 232.686 225.129H215.73C215.124 225.129 214.721 225.533 214.721 226.138C214.721 226.744 215.73 227.148 216.134 227.148Z" fill="black"/>
<path d="M261.147 234.012C260.138 234.012 259.33 234.819 259.33 235.828C259.33 236.838 260.138 237.645 261.147 237.645C262.156 237.645 262.964 236.838 262.964 235.828C262.964 234.819 262.156 234.012 261.147 234.012Z" fill="black"/>
<path d="M175.156 221.094L167.284 226.948C166.678 227.351 166.476 228.159 166.88 228.764L170.11 236.435C170.11 236.637 170.312 236.839 170.715 236.839H215.326L217.95 239.665H267.808V221.094H175.56C175.358 221.094 175.156 221.094 175.156 221.094ZM261.147 238.655C259.532 238.655 258.321 237.444 258.321 235.829C258.321 234.214 259.532 233.003 261.147 233.003C262.762 233.003 263.973 234.214 263.973 235.829C263.973 237.444 262.762 238.655 261.147 238.655ZM216.133 223.92H233.089C233.493 223.92 233.695 223.92 234.098 223.718L235.915 222.709C236.521 222.305 237.126 222.103 237.732 222.103H264.781V227.957H216.335C215.124 227.957 214.316 226.948 214.316 225.938C214.115 224.929 215.124 223.92 216.133 223.92Z" fill="black"/>
<path d="M410.521 224.322H275.883C274.268 224.322 273.057 225.533 273.057 227.148V244.508C273.057 245.719 273.864 246.93 274.873 247.334H278.507V232.8C278.507 230.378 280.525 228.158 283.149 228.158H403.254C405.677 228.158 407.897 230.176 407.897 232.8V247.334H411.732C412.742 246.93 413.549 245.719 413.549 244.508V227.148C413.347 225.533 411.934 224.322 410.521 224.322Z" fill="black"/>
<path d="M477.539 230.58H415.367V242.288H477.539V230.58Z" fill="black"/>
<path d="M481.98 230.58H479.355V242.288H481.98C483.594 242.288 485.007 240.673 485.007 239.058V233.608C485.007 231.791 483.594 230.58 481.98 230.58Z" fill="black"/>
<path d="M500.146 214.23C500.146 214.23 499.945 214.028 499.743 214.028H497.724V211H489.246V213.624H483.594C482.989 213.624 482.383 213.826 481.777 214.028L477.74 216.046H501.761L500.146 214.23Z" fill="black"/>
<path d="M402.245 230.176H283.957C282.14 230.176 280.525 231.589 280.525 233.607V247.334H405.677V233.607C405.677 231.589 404.062 230.176 402.245 230.176ZM399.015 242.691H286.379V240.672H399.015V242.691ZM399.015 236.433H286.379V234.415H399.015V236.433Z" fill="black"/>
<path d="M286.379 214.432H283.956V212.01H279.919V214.634H272.047V215.845H286.379V214.432Z" fill="black"/>
<path d="M269.625 217.863V243.095H270.836V227.149C270.836 224.525 273.057 222.304 275.681 222.304H410.319C412.742 222.304 414.76 224.121 415.164 226.543H506V217.863H269.625Z" fill="black"/>
<path d="M214.317 238.654H169.909C169.303 238.654 168.697 238.452 168.496 237.846L164.862 228.763C164.458 227.753 164.66 226.34 165.67 225.735L174.148 219.275C174.551 219.275 174.955 219.073 175.157 219.073H267.607V215.844L175.359 216.247C173.946 216.247 172.533 216.651 171.322 217.459C165.67 221.294 147.704 232.598 135.391 235.626C128.124 241.48 119.848 250.563 113.994 266.106L114.196 267.923C114.398 270.345 116.013 271.96 118.233 271.96L136.804 271.758C138.621 271.758 140.236 270.345 140.639 268.528C142.254 260.656 149.117 240.672 174.349 243.094L217.749 242.691V244.709V247.535H252.468V242.691L267.607 242.893V241.278H216.941L214.317 238.654ZM162.642 240.47C146.089 241.278 138.823 260.656 137.006 266.51C136.804 266.914 136.602 267.317 136.198 267.721C135.997 267.923 135.997 267.923 135.795 268.125C135.189 268.528 134.18 268.932 132.565 268.932H123.28C122.27 268.932 121.261 268.528 120.655 267.721C120.05 267.115 119.848 266.106 119.848 265.299C121.867 256.821 127.519 249.756 134.18 244.104C134.785 243.7 135.189 243.094 135.795 242.691C144.475 235.828 154.567 231.185 159.008 229.368C160.825 228.561 161.431 229.166 162.036 230.579L164.66 237.442C165.67 239.663 163.853 240.47 162.642 240.47Z" fill="black"/>
<path d="M131.353 236.231C129.335 236.433 127.72 236.231 126.307 235.626C125.096 235.02 123.077 234.818 121.866 234.818L101.478 236.03L8.62414 244.306C7.21114 244.507 6 245.719 6 247.333V295.779C6 300.22 10.6427 303.046 14.6799 301.229L64.9423 278.218C64.9423 278.218 89.7707 262.271 111.975 265.702C117.425 251.371 124.49 242.287 131.353 236.231ZM118.233 243.902L112.379 254.802C111.773 256.013 110.562 256.821 109.351 257.224L87.5503 262.675C83.1094 263.684 78.8704 265.097 74.8333 266.914L25.1764 290.329C24.369 290.733 23.3597 290.935 22.3504 290.935C21.1393 290.935 19.9281 290.531 18.717 289.925C16.9003 288.714 15.6891 286.696 15.6891 284.273L15.891 253.995C15.891 253.591 16.2947 252.985 16.6984 252.985L113.994 238.25C115.407 238.048 116.82 238.654 117.829 239.865C118.838 241.076 118.838 242.691 118.233 243.902Z" fill="black"/>
<path d="M191.305 254.804C191.709 254.804 187.672 251.978 191.305 247.537H186.865C186.865 249.354 186.663 254.804 191.305 254.804Z" fill="black"/>
</svg>
