<svg width="512" height="512" viewBox="0 0 512 512" fill="none" xmlns="http://www.w3.org/2000/svg">
<path d="M166.925 281.878C166.548 281.629 166.272 281.555 166.024 281.932C160.996 288.564 144.648 311.521 150.565 330.248C150.592 330.698 151.144 330.846 151.245 331.021C151.695 330.994 151.971 331.068 152.321 330.866L160.362 326.223C160.887 325.92 162.285 325.113 162.056 324.313C160.676 317.884 156.876 296.77 171.856 287.189C172.205 286.987 172.178 286.536 171.701 286.113L166.925 281.878Z" fill="black"/>
<path d="M130.956 312.434L55.2871 373.137L69.1413 397.537C70.1506 399.285 71.4825 400.38 73.3856 400.447C75.2888 400.514 77.2117 399.404 78.3813 397.796L109.281 353.617C111.768 349.851 114.908 346.406 118.249 343.312L133.53 328.196C134.303 327.517 135.123 326.111 135.142 324.934L134.776 315.822C134.796 314.645 134.863 312.742 133.908 311.895C132.98 311.499 131.729 311.755 130.956 312.434Z" fill="black"/>
<path d="M186.953 287.096L191.035 287.303C191.964 287.7 192.919 288.547 193.322 289.246C195.038 292.218 198.899 293.252 201.87 291.537L214.807 284.068C216.205 283.26 217.2 281.754 217.193 280.126C217.412 273.24 216.881 271.915 221.338 266.312L186.375 286.498C185.85 286.801 186.503 287.123 186.953 287.096ZM195.393 287.584C194.182 285.487 194.921 282.729 197.019 281.518L208.207 275.059C210.304 273.848 213.062 274.586 214.273 276.684L214.677 277.383C215.888 279.481 215.149 282.239 213.051 283.45L201.863 289.909C199.765 291.12 197.008 290.381 195.797 288.284L195.393 287.584Z" fill="black"/>
<path d="M212.852 250.002L245.018 231.431L244.21 230.032L249.805 226.803L250.612 228.201L253.759 226.384L251.841 223.063L229.29 236.083C228.94 236.285 228.517 236.762 228.268 237.139L227.2 238.921C226.951 239.298 226.527 239.776 226.178 239.977L211.493 248.455C210.969 248.758 210.821 249.31 211.124 249.834C211.427 250.359 212.503 250.204 212.852 250.002Z" fill="black"/>
<path d="M255.267 233.437C254.393 233.942 254.097 235.045 254.602 235.919C255.106 236.793 256.209 237.089 257.083 236.584C257.957 236.079 258.253 234.976 257.748 234.102C257.244 233.228 256.141 232.933 255.267 233.437Z" fill="black"/>
<path d="M174.338 265.245L170.447 274.251C170.124 274.903 170.353 275.704 171.005 276.026L177.638 281.054C177.739 281.229 178.014 281.303 178.364 281.101L216.998 258.796L220.683 259.931L263.862 235.002L254.577 218.919L174.687 265.043C174.512 265.144 174.338 265.245 174.338 265.245ZM257.589 237.458C256.19 238.266 254.536 237.823 253.728 236.424C252.921 235.026 253.364 233.371 254.763 232.564C256.161 231.756 257.816 232.2 258.623 233.598C259.431 234.997 258.987 236.651 257.589 237.458ZM211.238 247.204L225.922 238.726C226.272 238.524 226.446 238.423 226.695 238.047L227.764 236.264C228.086 235.612 228.51 235.134 229.034 234.831L252.459 221.307L255.386 226.377L213.431 250.599C212.382 251.205 211.178 250.735 210.674 249.861C209.994 249.087 210.364 247.709 211.238 247.204Z" fill="black"/>
<path d="M379.784 150.359L263.184 217.679C261.785 218.486 261.342 220.141 262.149 221.539L270.829 236.573C271.435 237.622 272.74 238.267 273.815 238.112L276.962 236.295L269.695 223.709C268.484 221.611 269.122 218.679 271.395 217.367L375.409 157.314C377.506 156.103 380.439 156.741 381.751 159.014L389.018 171.6L392.339 169.683C393.011 168.828 393.105 167.376 392.499 166.327L383.819 151.293C382.837 149.995 381.008 149.653 379.784 150.359Z" fill="black"/>
<path d="M440.952 122.269L387.109 153.355L392.963 163.495L446.806 132.409L440.952 122.269Z" fill="black"/>
<path d="M444.798 120.049L442.525 121.361L448.379 131.5L450.652 130.188C452.05 129.381 452.467 127.276 451.659 125.877L448.934 121.158C448.026 119.584 446.196 119.242 444.798 120.049Z" fill="black"/>
<path d="M452.355 96.8068C452.355 96.8068 452.079 96.733 451.905 96.8339L450.156 97.8432L448.642 95.221L441.3 99.46L442.612 101.733L437.718 104.559C437.193 104.861 436.77 105.339 436.346 105.817L433.859 109.583L454.662 97.5727L452.355 96.8068Z" fill="black"/>
<path d="M375.543 159.566L273.103 218.71C271.529 219.618 270.837 221.649 271.847 223.398L278.71 235.285L387.094 172.709L380.231 160.822C379.222 159.074 377.117 158.658 375.543 159.566ZM379.004 172.019L281.458 228.337L280.449 226.589L377.995 170.271L379.004 172.019ZM375.875 166.6L278.329 222.918L277.32 221.17L374.866 164.852L375.875 166.6Z" fill="black"/>
<path d="M267.328 203.863L265.23 205.075L264.019 202.977L260.523 204.995L261.835 207.268L255.017 211.204L255.623 212.253L268.034 205.087L267.328 203.863Z" fill="black"/>
<path d="M254.535 215.213L267.151 237.065L268.2 236.459L260.227 222.649C258.915 220.376 259.727 217.343 262 216.031L378.6 148.712C380.698 147.5 383.355 148.064 384.916 149.96L463.582 104.543L459.242 97.0256L254.535 215.213Z" fill="black"/>
<path d="M217.031 260.874L178.572 283.078C178.048 283.381 177.423 283.509 176.945 283.085L169.257 277.035C168.402 276.363 167.871 275.038 168.442 274.009L172.554 264.176C172.904 263.975 173.153 263.598 173.327 263.497L253.392 217.272L251.777 214.475L172.089 260.949C170.866 261.655 169.844 262.711 169.199 264.016C166.221 270.163 156.315 288.936 147.165 297.715C143.799 306.418 141.173 318.422 143.875 334.81L144.959 336.282C146.344 338.279 148.55 338.87 150.473 337.76L166.455 328.3C168.029 327.391 168.721 325.36 168.162 323.585C165.624 315.96 161.576 295.222 184.639 284.703L222.022 262.654L223.031 264.402L224.444 266.85L254.512 249.49L252.09 245.294L265.302 237.9L264.494 236.501L220.616 261.834L217.031 260.874ZM173.187 288.285C159.256 297.26 162.652 317.676 164.006 323.654C164.033 324.104 164.06 324.555 163.912 325.106C163.838 325.382 163.838 325.382 163.764 325.658C163.442 326.31 162.77 327.164 161.371 327.972L153.33 332.614C152.456 333.119 151.38 333.274 150.452 332.878C149.624 332.656 148.945 331.883 148.541 331.184C146.05 322.832 147.413 313.888 150.355 305.662C150.678 305.01 150.725 304.284 151.047 303.631C155.133 293.348 161.552 284.28 164.49 280.487C165.659 278.879 166.487 279.101 167.718 280.022L173.422 284.653C175.406 286.072 174.236 287.679 173.187 288.285Z" fill="black"/>
<path d="M143.973 300.256C142.325 301.44 140.826 302.073 139.299 302.255C137.948 302.336 136.099 303.17 135.05 303.776L117.999 315.019L41.7232 368.613C40.6005 369.494 40.1572 371.149 40.9646 372.547L65.1874 414.503C67.4079 418.349 72.8416 418.475 75.4295 414.883L107.452 369.823C107.452 369.823 120.981 343.598 141.926 335.468C139.48 320.331 141.057 308.932 143.973 300.256ZM136.445 313.459L136.826 325.826C136.907 327.178 136.262 328.483 135.415 329.438L119.26 345.058C115.919 348.153 112.954 351.496 110.366 355.088L79.0696 400.194C78.5722 400.948 77.7991 401.627 76.925 402.132C75.8762 402.737 74.6254 402.993 73.2738 403.075C71.0949 402.934 69.0367 401.791 67.8256 399.694L52.8611 373.371C52.6592 373.021 52.7061 372.295 53.0557 372.093L129.948 310.684C131.071 309.803 132.597 309.621 134.077 310.165C135.556 310.709 136.364 312.108 136.445 313.459Z" fill="black"/>
<path d="M205.178 286.365C205.527 286.163 200.618 285.735 201.544 280.072L197.698 282.292C198.607 283.866 201.157 288.687 205.178 286.365Z" fill="black"/>
</svg>
