<svg width="512" height="512" viewBox="0 0 512 512" fill="none" xmlns="http://www.w3.org/2000/svg">
<path d="M140.797 261.585L142.949 258.432C143.443 257.685 144.103 257.062 144.878 256.612L183.601 234.37L180.632 229.228L142.159 251.44C141.389 251.891 140.755 252.541 140.323 253.322L139.674 254.48L138.163 256.956L140.797 261.585Z" fill="black"/>
<path d="M303.853 149.511L280.205 163.164L284.464 170.541L308.112 156.887L303.853 149.511Z" fill="black"/>
<path d="M178.341 222.051L184.957 233.51L193.737 228.44L191.653 224.831L183.352 223.684C182.579 223.66 181.825 223.44 181.16 223.046C180.495 222.652 179.941 222.096 179.549 221.43L178.341 222.051Z" fill="black"/>
<path d="M179.48 216.085L179.58 216.027C180.04 215.226 180.703 214.56 181.502 214.096L193.963 206.902L195.637 201.696C195.493 201.645 195.363 201.586 195.205 201.544C194.341 201.308 193.419 201.422 192.638 201.861L178.487 210.031C177.735 210.5 177.194 211.241 176.978 212.1C176.761 212.958 176.886 213.867 177.325 214.636C177.53 215.042 177.835 215.389 178.213 215.643C178.59 215.897 179.026 216.049 179.48 216.085Z" fill="black"/>
<path d="M181.646 216.132C181.185 216.585 180.853 217.152 180.685 217.776C180.438 218.658 180.526 219.6 180.933 220.421C181.215 220.881 181.606 221.265 182.07 221.539C182.535 221.813 183.06 221.97 183.599 221.995L193.695 223.538L206.786 215.979L202.403 208.388L200.025 214.192C199.561 215.419 198.704 216.458 197.587 217.146C197.136 217.427 196.629 217.603 196.102 217.663C195.575 217.723 195.041 217.665 194.54 217.492C193.804 217.2 193.191 216.664 192.804 215.974C192.457 215.277 192.257 214.516 192.215 213.739C192.174 212.961 192.292 212.184 192.562 211.453L193.25 209.337L182.393 215.606C182.12 215.744 181.868 215.921 181.646 216.132Z" fill="black"/>
<path d="M267.878 166.557L264.083 168.748L270.243 179.419L274.039 177.228L267.878 166.557Z" fill="black"/>
<path d="M278.773 163.992L270.938 168.516L275.197 175.892L283.031 171.369L278.773 163.992Z" fill="black"/>
<path d="M286.248 176.939L278.413 181.463L286.418 195.328L294.253 190.804L286.248 176.939Z" fill="black"/>
<path d="M204.178 203.888L203.121 206.523C203.377 206.795 203.601 207.094 203.79 207.416L208.28 215.194L216.158 210.646L209.212 198.614L204.643 201.252C204.679 202.138 204.541 203.023 204.236 203.855L204.178 203.888Z" fill="black"/>
<path d="M194.1 211.903C193.916 212.409 193.835 212.948 193.864 213.486C193.892 214.024 194.029 214.551 194.266 215.035C194.456 215.397 194.774 215.677 195.158 215.819C196.311 216.261 197.826 215.214 198.522 213.475L202.645 203.284C203.079 202.241 203.088 201.071 202.672 200.022C202.574 199.794 202.432 199.587 202.254 199.415C202.075 199.242 201.865 199.107 201.634 199.017L200.877 198.766C200.609 198.695 200.329 198.681 200.055 198.724C199.78 198.767 199.518 198.867 199.285 199.017C198.619 199.462 198.092 200.084 197.762 200.813C197.664 201.006 197.582 201.206 197.517 201.413L194.1 211.903ZM199.492 200.502C199.776 200.338 200.101 200.262 200.427 200.284C200.754 200.305 201.067 200.423 201.326 200.622C201.586 200.821 201.78 201.093 201.885 201.402C201.991 201.712 202.001 202.046 201.917 202.362C201.832 202.678 201.656 202.962 201.41 203.177C201.164 203.393 200.859 203.531 200.535 203.574C200.211 203.616 199.881 203.562 199.588 203.417C199.294 203.273 199.05 203.044 198.887 202.761C198.668 202.381 198.608 201.93 198.722 201.506C198.835 201.082 199.112 200.721 199.492 200.502Z" fill="black"/>
<path d="M133.402 252.084L55.2752 297.439L51.7269 313.258L83.5249 294.899L94.9598 288.011L94.8882 288.052L96.9264 281.394C97.5003 279.501 98.7741 277.899 100.488 276.912L135.939 256.445L133.402 252.084Z" fill="black"/>
<path d="M176.909 222.878L138.436 245.09C137.688 245.525 137.066 246.147 136.633 246.895L134.512 250.698L137.208 255.367L138.844 252.513C139.411 251.493 140.236 250.64 141.238 250.042L179.753 227.805L176.909 222.878Z" fill="black"/>
<path d="M139.538 262.712L136.71 257.813L101.274 278.272C99.9231 279.051 98.9183 280.314 98.4628 281.805L96.9342 286.832L131.841 265.819C132.298 265.542 132.843 265.449 133.367 265.558C133.89 265.667 134.353 265.969 134.662 266.405C134.737 266.501 134.798 266.607 134.844 266.72L139.538 262.712Z" fill="black"/>
<path d="M86.0569 295.481C85.7162 295.585 85.3891 295.729 85.0823 295.91C84.893 296 84.711 296.105 84.538 296.224C83.4942 296.994 82.7707 298.122 82.5056 299.392C82.2406 300.662 82.4526 301.984 83.1012 303.108C83.7497 304.231 84.7894 305.076 86.0216 305.482C87.2538 305.887 88.5921 305.824 89.781 305.305L90.2966 305.008C90.8601 304.681 91.3571 304.252 91.7619 303.741C92.4768 302.854 92.8851 301.758 92.9255 300.619C92.966 299.48 92.6365 298.359 91.9863 297.422C91.3362 296.486 90.4003 295.786 89.3188 295.426C88.2373 295.066 87.1384 295.121 86.0569 295.481Z" fill="black"/>
<path d="M217.591 209.818L220.455 208.164C220.397 207.705 220.476 207.239 220.682 206.824C220.888 206.41 221.211 206.066 221.612 205.834L234.847 198.193C235.249 197.96 235.711 197.85 236.175 197.877C236.64 197.905 237.086 198.068 237.457 198.348L247.67 192.452C247.612 191.993 247.691 191.527 247.896 191.112C248.102 190.698 248.426 190.353 248.827 190.122L262.062 182.481C262.464 182.247 262.926 182.137 263.39 182.165C263.854 182.192 264.3 182.356 264.672 182.636L268.825 180.237L262.532 169.337C262.446 169.189 262.332 169.058 262.196 168.954C262.06 168.85 261.905 168.773 261.739 168.729C261.573 168.684 261.4 168.673 261.23 168.695C261.06 168.718 260.896 168.773 260.747 168.859L210.615 197.803L217.591 209.818Z" fill="black"/>
<path d="M129.205 271.542L133.27 268.03C133.355 267.946 133.407 267.834 133.415 267.715C133.424 267.595 133.39 267.477 133.318 267.381C133.247 267.285 133.143 267.219 133.026 267.193C132.909 267.168 132.787 267.186 132.682 267.243L88.7425 293.681C89.7656 293.833 90.7415 294.213 91.5984 294.793C92.4552 295.372 93.1711 296.137 93.6932 297.03C94.4161 298.269 94.7304 299.704 94.5915 301.133L129.205 271.542Z" fill="black"/>
<path d="M86.8414 339.907L95.0713 379.864C95.1275 380.131 95.2858 380.364 95.5123 380.516C95.7389 380.667 96.0156 380.723 96.2832 380.673L108.749 377.754C104.342 365.192 98.8562 338.853 97.8297 333.602L87.0341 339.414C86.9536 339.465 86.8914 339.541 86.8568 339.629C86.8221 339.718 86.8167 339.815 86.8414 339.907Z" fill="black"/>
<path d="M209.378 248.917C210.261 249.332 211.23 249.527 212.205 249.487C213.179 249.446 214.129 249.171 214.974 248.685L215.418 248.428C218.439 246.676 220.849 244.038 222.322 240.871L224.899 235.411C225.738 233.591 227.112 232.071 228.839 231.054L256.694 214.533C259.648 212.789 262.831 211.466 266.15 210.601L268.492 209.994C269.926 209.623 271.303 209.059 272.586 208.318L280.048 204.01C280.565 203.711 280.942 203.22 281.096 202.644C281.251 202.067 281.17 201.453 280.872 200.937L270.551 183.061L266.412 185.451C266.5 185.925 266.439 186.415 266.237 186.854C266.035 187.292 265.702 187.656 265.284 187.897L252.021 195.555C251.602 195.794 251.12 195.899 250.641 195.855C250.161 195.81 249.706 195.62 249.338 195.309L239.169 201.18C239.257 201.654 239.196 202.144 238.994 202.582C238.792 203.021 238.459 203.385 238.041 203.626L224.806 211.267C224.388 211.506 223.906 211.611 223.426 211.567C222.946 211.523 222.491 211.332 222.124 211.021L196.155 226.014L209.378 248.917Z" fill="black"/>
<path d="M118.05 316.293C116.797 315.575 115.742 314.558 114.978 313.332C114.214 312.107 113.765 310.712 113.671 309.272C113.871 307.331 114.462 305.45 115.407 303.743L104.979 309.764C106.99 312.929 109.571 315.693 112.59 317.917C113.993 319.031 115.725 319.651 117.517 319.68C119.309 319.709 121.06 319.146 122.499 318.078C122.529 318.059 122.553 318.031 122.567 317.998C122.581 317.966 122.586 317.93 122.58 317.894C122.574 317.859 122.557 317.827 122.533 317.801C122.509 317.775 122.477 317.756 122.442 317.748C120.891 317.582 119.393 317.086 118.05 316.293Z" fill="black"/>
<path d="M318.522 160.331L288.557 177.631L295.686 189.978L325.65 172.678L318.522 160.331Z" fill="black"/>
<path d="M275.693 180.092L271.898 182.283L282.441 200.546L286.237 198.354L275.693 180.092Z" fill="black"/>
<path d="M394.718 136.143L385.216 119.685L368.616 129.27L377.902 145.355C378.065 145.415 378.24 145.439 378.413 145.425C378.586 145.41 378.754 145.358 378.905 145.272L394.718 136.143Z" fill="black"/>
<path d="M395.22 116.105L400.876 125.903L415.457 117.484C406.96 119.736 401.072 112.746 401.072 112.746L395.22 116.105Z" fill="black"/>
<path d="M348.295 159.604L375.238 144.049L368.539 132.447L341.884 147.837C341.797 147.906 341.701 147.962 341.597 148.002L348.295 159.604Z" fill="black"/>
<path d="M392.877 115.225L387.75 118.185L387.766 118.214L386.649 118.859L396.151 135.316L402.396 131.711L392.877 115.225Z" fill="black"/>
<path d="M318.878 153.803L320.251 156.181L331.567 149.648C330.023 149.574 328.544 149 327.356 148.011L322.336 143.881C321.006 143.117 319.498 142.715 317.964 142.716C316.429 142.717 314.922 143.121 313.593 143.887L305.285 148.684L309.544 156.06L315.188 152.802C315.495 152.624 315.835 152.509 316.188 152.463C316.54 152.417 316.898 152.442 317.241 152.535C317.584 152.628 317.906 152.788 318.187 153.005C318.467 153.223 318.703 153.494 318.878 153.803Z" fill="black"/>
<path d="M339.197 147.152L319.417 158.572L328.166 173.726L347.947 162.306L339.197 147.152Z" fill="black"/>
<path d="M370.217 118.549L370.377 125.771C370.385 126.151 370.341 126.53 370.244 126.898L376.117 123.507C375.784 123.372 375.504 123.131 375.32 122.822L373.434 119.556C373.215 119.176 373.156 118.725 373.269 118.301C373.383 117.877 373.66 117.516 374.04 117.297L377.305 115.411C377.685 115.192 378.137 115.132 378.56 115.246C378.984 115.359 379.345 115.637 379.565 116.016L381.45 119.282C381.626 119.596 381.695 119.959 381.646 120.315L385.269 118.223L372.584 96.2509L363.245 101.643L367.479 108.976C369.18 111.887 370.121 115.179 370.217 118.549Z" fill="black"/>
<path d="M131.199 295.009C130.844 294.377 130.746 293.631 130.928 292.928C131.109 292.225 131.556 291.62 132.173 291.239L204.231 246.618L194.581 229.903L145.7 257.971C144.909 258.428 144.236 259.065 143.737 259.83L141.741 262.988L119.255 282.426L92.5697 305.471C92.3809 305.656 92.181 305.829 91.9709 305.989L91.7274 306.13L91.1975 306.436C89.602 307.357 87.7059 307.606 85.9263 307.13C84.1468 306.653 82.6296 305.489 81.7084 303.893C81.2072 303.034 80.9006 302.075 80.8104 301.084C80.7202 300.094 80.8486 299.095 81.1864 298.159L52.8866 314.307C52.3996 314.589 52.7794 315.114 53.1102 315.687L64.1749 334.852L68.472 332.371L69.6545 334.419C70.132 335.3 70.7864 336.073 71.5766 336.69L71.929 332.438C72.0753 330.752 72.6254 329.126 73.5328 327.698C74.4402 326.27 75.6782 325.082 77.1421 324.233L96.9514 312.796C97.3313 312.577 97.7828 312.517 98.2065 312.631C98.6302 312.745 98.9914 313.022 99.2107 313.402L108.084 328.771C108.152 328.873 108.252 328.949 108.368 328.989C108.485 329.029 108.611 329.03 108.727 328.991C109.181 328.893 109.649 328.875 110.11 328.938C111.093 329.02 112.613 329.173 113.933 329.309C115.634 329.487 117.347 329.114 118.819 328.245L134.217 319.355C135.835 318.421 137.919 317.332 138.722 315.646C139.355 314.195 139.513 312.579 139.171 311.033C138.904 309.475 138.367 307.975 137.586 306.6L131.199 295.009ZM147.118 268.631L156.271 263.346C157.221 262.798 158.349 262.649 159.408 262.933C160.468 263.217 161.371 263.91 161.919 264.86C162.467 265.809 162.616 266.938 162.332 267.997C162.048 269.057 161.355 269.96 160.406 270.508L151.282 275.776C150.332 276.324 149.203 276.473 148.144 276.189C147.085 275.905 146.182 275.212 145.633 274.262C145.085 273.313 144.936 272.184 145.22 271.125C145.504 270.065 146.197 269.162 147.147 268.614L147.118 268.631ZM102.862 299.911C103.282 299.669 103.764 299.557 104.248 299.589C104.732 299.621 105.195 299.796 105.579 300.092C105.963 300.388 106.251 300.791 106.406 301.25C106.56 301.71 106.575 302.205 106.448 302.673C106.321 303.141 106.058 303.56 105.692 303.878C105.326 304.197 104.874 304.399 104.393 304.46C103.912 304.521 103.424 304.437 102.99 304.22C102.556 304.003 102.197 303.662 101.958 303.241C101.8 302.963 101.698 302.657 101.659 302.34C101.619 302.024 101.642 301.702 101.727 301.394C101.812 301.086 101.956 300.798 102.153 300.546C102.349 300.294 102.592 300.083 102.87 299.926L102.862 299.911ZM134.89 316.121L117.895 326.181C116.352 326.93 114.609 327.16 112.925 326.835L110.056 326.066C109.669 325.965 109.306 325.787 108.989 325.544C108.672 325.301 108.406 324.998 108.207 324.651L101.158 312.144C100.939 311.764 100.879 311.312 100.993 310.889C101.106 310.465 101.384 310.104 101.763 309.884L126.815 295.421C127.179 295.222 127.604 295.168 128.006 295.268C128.206 295.319 128.392 295.411 128.554 295.537C128.716 295.664 128.85 295.823 128.947 296.004L135.992 308.571C137.284 311.072 137.118 314.853 134.898 316.135L134.89 316.121Z" fill="black"/>
<path d="M98.4872 315.422L78.7441 326.974C77.748 327.568 76.9109 328.395 76.3043 329.384C75.6978 330.373 75.3399 331.494 75.2613 332.651L74.7953 338.096C77.3346 338.922 80.4752 340.26 81.5006 342.036C82.8403 344.356 87.5139 368.395 89.8375 380.689C90.2001 382.598 91.2979 384.288 92.8945 385.395C94.4911 386.502 96.4586 386.938 98.3734 386.609L112.571 384.141C113.592 383.962 114.558 383.549 115.392 382.934C116.226 382.319 116.906 381.519 117.379 380.596C117.852 379.674 118.104 378.654 118.115 377.618C118.127 376.581 117.898 375.556 117.446 374.623C116.346 372.355 113.466 368.69 112.441 366.913C109.546 361.9 111.491 356.9 109.705 353.806C107.712 350.355 105.01 340.15 105.139 336.734C105.335 334.83 105.869 332.977 106.714 331.26C106.843 330.964 106.901 330.643 106.884 330.321C106.867 330 106.776 329.686 106.618 329.406L98.4872 315.422ZM99.2707 332.425C99.4148 333.469 105.61 363.848 110.248 377.174C110.325 377.395 110.354 377.629 110.333 377.861C110.312 378.094 110.243 378.319 110.129 378.523C110.019 378.717 109.87 378.887 109.693 379.023C109.515 379.158 109.311 379.256 109.095 379.311L96.6143 382.239C95.937 382.356 95.2403 382.211 94.6666 381.832C94.093 381.454 93.6856 380.87 93.528 380.201L85.2325 340.263C85.1418 339.828 85.19 339.376 85.3705 338.97C85.5509 338.564 85.8544 338.226 86.2379 338.002L97.8869 331.716C98.0306 331.64 98.1905 331.6 98.3531 331.599C98.5156 331.598 98.6758 331.637 98.8203 331.711L99.217 331.903L99.2707 332.425Z" fill="black"/>
<path d="M150.463 274.357L159.616 269.073C160.185 268.744 160.601 268.202 160.772 267.567C160.942 266.931 160.853 266.254 160.524 265.684C160.195 265.114 159.653 264.698 159.017 264.528C158.382 264.358 157.705 264.447 157.135 264.776L147.982 270.06C147.412 270.389 146.996 270.931 146.826 271.567C146.656 272.202 146.745 272.879 147.074 273.449C147.403 274.019 147.945 274.435 148.58 274.605C149.216 274.776 149.893 274.686 150.463 274.357Z" fill="black"/>
<path d="M55.7803 295.238L132.59 250.644L135.191 246.086C135.765 245.075 136.601 244.237 137.609 243.659L178.746 219.908C178.506 219.293 178.507 218.61 178.75 217.996L127.4 247.643C127.109 247.807 126.787 247.911 126.455 247.949C126.122 247.987 125.786 247.958 125.465 247.863L124.575 247.612C124.249 247.516 123.906 247.488 123.569 247.528C123.231 247.569 122.905 247.677 122.61 247.847C122.316 248.017 122.059 248.245 121.855 248.518C121.651 248.79 121.504 249.101 121.424 249.432L121.202 250.304C121.122 250.635 120.975 250.945 120.771 251.218C120.567 251.49 120.31 251.717 120.015 251.887L103.042 261.687C102.748 261.857 102.422 261.966 102.084 262.006C101.747 262.047 101.404 262.019 101.078 261.923L100.189 261.673C99.8622 261.577 99.5197 261.548 99.182 261.589C98.8442 261.629 98.5181 261.738 98.2235 261.908C97.9289 262.078 97.6719 262.306 97.468 262.578C97.2642 262.851 97.1177 263.162 97.0375 263.492L96.8096 264.388C96.7309 264.719 96.585 265.03 96.3808 265.302C96.1766 265.575 95.9186 265.802 95.6227 265.97L78.6924 275.745C78.398 275.915 78.0722 276.024 77.7346 276.065C77.3969 276.105 77.0546 276.077 76.7282 275.982L75.8079 275.711C75.4845 275.624 75.1471 275.601 74.8151 275.645C74.483 275.689 74.1628 275.797 73.8728 275.965C73.5828 276.132 73.3286 276.355 73.1249 276.621C72.9211 276.887 72.7718 277.19 72.6854 277.514L72.407 278.553C72.3257 278.873 72.1811 279.173 71.9818 279.435C71.7824 279.698 71.5324 279.918 71.2465 280.082L62.366 285.209C60.1602 286.483 57.6772 287.706 57.0339 290.198L55.7803 295.238Z" fill="black"/>
<path d="M177.617 284.806C177.518 284.703 177.387 284.638 177.245 284.623C177.103 284.607 176.961 284.641 176.842 284.719C176.746 284.765 176.661 284.832 176.593 284.914C176.525 284.996 176.475 285.092 176.448 285.195C176.419 285.276 176.413 285.363 176.432 285.447C176.45 285.531 176.491 285.608 176.55 285.67C192.316 303.782 216.447 315.079 246.923 318.644C247.09 318.675 247.262 318.646 247.41 318.561C247.557 318.476 247.669 318.341 247.725 318.181C247.749 318.109 247.757 318.034 247.75 317.959C247.742 317.885 247.719 317.812 247.682 317.747C247.644 317.682 247.593 317.626 247.532 317.582C247.471 317.538 247.402 317.508 247.328 317.493C212.104 311.494 193.563 302.699 177.617 284.806Z" fill="black"/>
<path d="M169.952 289.689C169.852 289.59 169.72 289.527 169.579 289.511C169.439 289.495 169.297 289.527 169.176 289.603C169.076 289.647 168.988 289.714 168.917 289.798C168.846 289.882 168.795 289.98 168.768 290.087C168.748 290.168 168.748 290.253 168.768 290.335C168.789 290.416 168.829 290.491 168.885 290.554C194.695 320.208 243.715 326.187 245.743 326.391C245.907 326.419 246.075 326.389 246.219 326.306C246.363 326.223 246.473 326.092 246.531 325.936C246.555 325.867 246.564 325.792 246.557 325.719C246.55 325.646 246.528 325.574 246.491 325.51C246.454 325.447 246.404 325.391 246.343 325.349C246.283 325.306 246.214 325.277 246.142 325.263C211.136 319.31 185.9 307.62 169.952 289.689Z" fill="black"/>
<path d="M161.341 294.984C161.241 294.884 161.109 294.822 160.968 294.806C160.828 294.79 160.686 294.822 160.565 294.897C160.468 294.946 160.381 295.014 160.311 295.097C160.241 295.18 160.188 295.277 160.157 295.381C160.137 295.463 160.137 295.548 160.157 295.63C160.178 295.711 160.218 295.786 160.274 295.849C183.457 322.474 232.981 333.262 244.55 334.545C244.714 334.574 244.883 334.544 245.026 334.461C245.17 334.377 245.281 334.247 245.338 334.091C245.362 334.019 245.371 333.944 245.363 333.869C245.356 333.795 245.332 333.722 245.295 333.657C245.257 333.592 245.206 333.536 245.145 333.492C245.084 333.448 245.015 333.418 244.941 333.403C209.26 327.305 177.178 312.788 161.341 294.984Z" fill="black"/>
<path d="M175.523 267.813L141.172 289.689C182.839 341.68 247.275 347.468 257.085 347.457C257.468 347.453 257.835 347.306 258.116 347.045C258.396 346.784 258.569 346.428 258.601 346.047L261.791 309.695C261.819 309.286 261.684 308.882 261.415 308.572C261.147 308.262 260.767 308.071 260.358 308.04C207.558 304.014 182.098 276.488 175.523 267.813ZM246.879 334.213C246.701 334.849 246.278 335.389 245.702 335.714C245.245 335.973 244.72 336.09 244.196 336.049C232.466 334.685 182.514 323.916 158.98 296.882C158.785 296.652 158.648 296.379 158.581 296.085C158.515 295.791 158.52 295.485 158.597 295.193C158.682 294.873 158.83 294.573 159.034 294.311C159.237 294.049 159.491 293.831 159.78 293.67C160.214 293.384 160.733 293.254 161.251 293.302C161.768 293.351 162.254 293.574 162.627 293.936C178.249 311.501 209.991 325.794 245.308 331.855C245.574 331.89 245.829 331.982 246.056 332.124C246.284 332.266 246.479 332.455 246.628 332.678C246.776 332.901 246.876 333.153 246.919 333.418C246.963 333.683 246.949 333.954 246.879 334.213ZM248.082 326.108C247.997 326.425 247.849 326.721 247.647 326.979C247.445 327.237 247.193 327.451 246.905 327.609C246.451 327.876 245.924 327.993 245.399 327.944C243.338 327.682 193.766 321.64 167.583 291.571C167.391 291.34 167.257 291.066 167.19 290.773C167.124 290.479 167.127 290.175 167.2 289.883C167.38 289.239 167.804 288.692 168.383 288.359C168.818 288.076 169.336 287.948 169.853 287.996C170.37 288.045 170.855 288.266 171.23 288.626C186.947 306.289 211.909 317.869 246.511 323.75C246.777 323.785 247.032 323.877 247.259 324.019C247.487 324.161 247.682 324.35 247.831 324.573C247.979 324.797 248.079 325.049 248.122 325.314C248.166 325.578 248.152 325.849 248.082 326.108ZM249.295 318.285C249.218 318.603 249.075 318.901 248.877 319.16C248.678 319.42 248.427 319.635 248.14 319.792C247.685 320.064 247.152 320.177 246.626 320.112C215.616 316.55 191.268 305.073 175.262 286.679C175.068 286.45 174.931 286.179 174.862 285.887C174.793 285.595 174.794 285.291 174.865 284.999C175.045 284.356 175.469 283.809 176.048 283.476C176.481 283.186 177 283.055 177.519 283.103C178.037 283.152 178.523 283.377 178.895 283.742C194.612 301.405 212.865 309.964 247.672 315.937C247.941 315.968 248.201 316.058 248.432 316.2C248.663 316.341 248.861 316.532 249.011 316.758C249.162 316.983 249.261 317.239 249.303 317.507C249.344 317.775 249.327 318.049 249.252 318.31L249.295 318.285Z" fill="black"/>
</svg>
