<svg width="512" height="512" viewBox="0 0 512 512" fill="none" xmlns="http://www.w3.org/2000/svg">
<path d="M153.099 203.29L156.539 201.636C157.34 201.236 158.223 201.026 159.119 201.024L203.775 201.123V195.186H159.35C158.458 195.191 157.584 195.436 156.82 195.897L155.679 196.575L153.132 197.964L153.099 203.29Z" fill="black"/>
<path d="M350.346 187.76H323.039V196.277H350.346V187.76Z" fill="black"/>
<path d="M205.379 187.826V201.058H215.518V196.89L208.902 191.746C208.245 191.339 207.702 190.772 207.323 190.098C206.944 189.424 206.742 188.665 206.735 187.892L205.379 187.826Z" fill="black"/>
<path d="M209.349 183.227H209.464C210.263 182.763 211.17 182.518 212.094 182.516H226.483L230.535 178.844C230.436 178.729 230.353 178.613 230.238 178.497C229.607 177.861 228.752 177.498 227.856 177.488H211.515C210.63 177.518 209.791 177.89 209.175 178.525C208.558 179.16 208.211 180.01 208.207 180.895C208.181 181.349 208.272 181.802 208.472 182.211C208.672 182.619 208.974 182.97 209.349 183.227Z" fill="black"/>
<path d="M211.201 184.353C210.576 184.514 210.004 184.84 209.547 185.296C208.892 185.936 208.497 186.796 208.439 187.711C208.453 188.25 208.6 188.778 208.865 189.248C209.13 189.717 209.506 190.115 209.961 190.406L217.932 196.791H233.049V188.025L228.088 191.862C227.072 192.693 225.81 193.164 224.499 193.202C223.968 193.219 223.441 193.118 222.955 192.907C222.468 192.695 222.035 192.378 221.687 191.978C221.196 191.357 220.933 190.586 220.943 189.795C220.991 189.018 221.198 188.259 221.551 187.565C221.903 186.871 222.394 186.256 222.994 185.759L224.647 184.27H212.111C211.805 184.254 211.499 184.281 211.201 184.353Z" fill="black"/>
<path d="M310.668 184.533H306.285V196.855H310.668V184.533Z" fill="black"/>
<path d="M321.386 187.76H312.339V196.277H321.386V187.76Z" fill="black"/>
<path d="M321.386 202.711H312.339V218.721H321.386V202.711Z" fill="black"/>
<path d="M236.837 185.014L234.604 186.767C234.69 187.13 234.734 187.502 234.736 187.875V196.856H243.833V182.963H238.557C238.146 183.749 237.584 184.445 236.903 185.014H236.837Z" fill="black"/>
<path d="M224.102 186.915C223.689 187.261 223.35 187.687 223.105 188.168C222.861 188.648 222.716 189.173 222.679 189.71C222.663 190.119 222.798 190.52 223.06 190.835C223.837 191.794 225.673 191.646 227.145 190.488L235.811 183.723C236.708 183.037 237.301 182.028 237.465 180.912C237.495 180.665 237.475 180.416 237.407 180.177C237.338 179.938 237.224 179.716 237.068 179.522L236.539 178.927C236.342 178.731 236.107 178.579 235.848 178.479C235.588 178.379 235.311 178.335 235.034 178.348C234.236 178.4 233.468 178.675 232.818 179.142C232.636 179.26 232.465 179.392 232.305 179.539L224.102 186.915ZM234.472 179.737C234.799 179.737 235.119 179.834 235.391 180.016C235.663 180.198 235.875 180.456 236 180.758C236.125 181.06 236.158 181.393 236.094 181.714C236.03 182.035 235.873 182.329 235.641 182.561C235.41 182.792 235.115 182.95 234.794 183.013C234.474 183.077 234.141 183.044 233.839 182.919C233.537 182.794 233.278 182.582 233.097 182.31C232.915 182.038 232.818 181.718 232.818 181.391C232.818 180.953 232.992 180.532 233.302 180.222C233.612 179.912 234.033 179.737 234.472 179.737Z" fill="black"/>
<path d="M151.445 191.365L61.1073 191.58L50.1252 203.505H86.8424L100.19 203.257H100.107L105.201 198.51C106.644 197.158 108.549 196.407 110.527 196.41H151.461L151.445 191.365Z" fill="black"/>
<path d="M203.725 187.826H159.301C158.436 187.828 157.586 188.056 156.836 188.488L153.099 190.721V196.112L155.943 194.458C156.944 193.858 158.085 193.533 159.251 193.516H203.725V187.826Z" fill="black"/>
<path d="M151.445 203.637V197.98H110.527C108.967 197.98 107.466 198.571 106.326 199.634L102.488 203.223L143.225 202.479C143.759 202.468 144.278 202.66 144.677 203.016C145.075 203.372 145.325 203.866 145.375 204.398C145.392 204.518 145.392 204.641 145.375 204.762L151.445 203.637Z" fill="black"/>
<path d="M88.7444 205.275C88.3973 205.194 88.042 205.155 87.6859 205.159C87.4767 205.142 87.2665 205.142 87.0574 205.159C85.7683 205.304 84.5779 205.919 83.7135 206.886C82.8491 207.853 82.3712 209.105 82.3712 210.402C82.3712 211.699 82.8491 212.951 83.7135 213.918C84.5779 214.885 85.7683 215.5 87.0574 215.645H87.6528C88.304 215.644 88.9492 215.52 89.5548 215.281C90.6178 214.87 91.519 214.125 92.1236 213.159C92.7282 212.193 93.0036 211.057 92.9087 209.921C92.8137 208.785 92.3535 207.71 91.5968 206.858C90.8402 206.005 89.8609 205.504 88.7444 205.275Z" fill="black"/>
<path d="M245.487 196.856H248.795C248.974 196.429 249.275 196.065 249.661 195.809C250.046 195.553 250.499 195.417 250.961 195.417H266.244C266.709 195.416 267.164 195.551 267.552 195.807C267.941 196.063 268.245 196.428 268.427 196.856H280.219C280.399 196.429 280.7 196.065 281.085 195.809C281.471 195.553 281.923 195.417 282.386 195.417H297.668C298.133 195.416 298.588 195.551 298.977 195.807C299.365 196.063 299.669 196.428 299.851 196.856H304.648V184.269C304.648 184.098 304.614 183.928 304.548 183.769C304.483 183.611 304.386 183.467 304.265 183.346C304.144 183.224 304 183.128 303.841 183.062C303.683 182.997 303.513 182.963 303.341 182.963H245.454L245.487 196.856Z" fill="black"/>
<path d="M138.081 206.118L143.357 205.109C143.473 205.078 143.573 205.007 143.641 204.908C143.708 204.809 143.737 204.689 143.723 204.57C143.709 204.452 143.653 204.342 143.564 204.262C143.475 204.181 143.361 204.135 143.241 204.133L91.9695 205.059C92.7795 205.702 93.4348 206.519 93.887 207.45C94.3393 208.38 94.577 209.4 94.5827 210.434C94.5891 211.869 94.1436 213.269 93.3092 214.437L138.081 206.118Z" fill="black"/>
<path d="M67.2102 244.141L54.3592 282.86C54.2747 283.119 54.2948 283.4 54.4154 283.645C54.536 283.889 54.7473 284.076 55.0043 284.166L67.2599 287.871C69.7242 274.789 78.1427 249.235 79.8793 244.174L67.6237 243.811C67.5285 243.814 67.4371 243.849 67.3627 243.908C67.2883 243.968 67.2349 244.049 67.2102 244.141Z" fill="black"/>
<path d="M218.826 226.61C219.382 227.411 220.124 228.065 220.988 228.517C221.852 228.969 222.812 229.206 223.787 229.207H224.3C227.793 229.2 231.199 228.12 234.058 226.114L239.02 222.674C240.656 221.517 242.607 220.888 244.61 220.871L276.994 220.491C280.424 220.458 283.842 220.903 287.149 221.814L289.481 222.459C290.909 222.855 292.383 223.055 293.864 223.054H302.481C303.078 223.054 303.65 222.817 304.072 222.396C304.494 221.974 304.731 221.402 304.731 220.805V200.164H299.951C299.79 200.619 299.492 201.013 299.098 201.291C298.704 201.57 298.233 201.719 297.751 201.719H282.436C281.954 201.717 281.484 201.566 281.091 201.288C280.697 201.01 280.399 200.618 280.236 200.164H268.493C268.332 200.619 268.034 201.013 267.64 201.291C267.246 201.57 266.776 201.719 266.293 201.719H251.011C250.529 201.717 250.06 201.566 249.666 201.288C249.273 201.01 248.974 200.618 248.811 200.164H218.826V226.61Z" fill="black"/>
<path d="M106.044 239.295C105.319 238.047 104.914 236.638 104.864 235.195C104.815 233.753 105.124 232.32 105.763 231.025C106.907 229.444 108.358 228.111 110.03 227.105H97.9898C98.1486 230.852 99.001 234.536 100.504 237.972C101.162 239.638 102.352 241.041 103.889 241.962C105.427 242.883 107.225 243.271 109.005 243.066C109.041 243.064 109.075 243.052 109.104 243.031C109.133 243.01 109.154 242.981 109.167 242.947C109.179 242.914 109.181 242.877 109.173 242.842C109.165 242.808 109.147 242.776 109.121 242.752C107.86 241.832 106.811 240.654 106.044 239.295Z" fill="black"/>
<path d="M357.64 204.465H323.039V218.722H357.64V204.465Z" fill="black"/>
<path d="M310.668 200.164H306.285V221.252H310.668V200.164Z" fill="black"/>
<path d="M435.721 221.615V202.611H416.552V221.185C416.663 221.319 416.802 221.426 416.96 221.501C417.117 221.575 417.288 221.614 417.462 221.615H435.721Z" fill="black"/>
<path d="M446.174 204.514V215.827H463.011C454.527 213.528 452.922 204.53 452.922 204.53L446.174 204.514Z" fill="black"/>
<path d="M383.788 218.721H414.899V205.324H384.119C384.009 205.341 383.898 205.341 383.788 205.324V218.721Z" fill="black"/>
<path d="M444.586 202.578H438.665V202.611H437.375V221.615H444.586V202.578Z" fill="black"/>
<path d="M361.212 198.99V201.735H374.278C372.978 200.9 371.985 199.663 371.45 198.213L369.167 192.126C368.397 190.799 367.293 189.697 365.963 188.931C364.634 188.165 363.127 187.761 361.592 187.76H352V196.277H358.516C358.872 196.277 359.224 196.348 359.552 196.484C359.88 196.621 360.178 196.821 360.428 197.073C360.679 197.325 360.877 197.624 361.012 197.953C361.146 198.282 361.214 198.635 361.212 198.99Z" fill="black"/>
<path d="M382.134 203.389H359.294V220.887H382.134V203.389Z" fill="black"/>
<path d="M423.3 194.127L419.827 200.462C419.645 200.795 419.417 201.101 419.149 201.371H425.93C425.71 201.087 425.588 200.739 425.583 200.379V196.608C425.583 196.169 425.757 195.749 426.067 195.438C426.377 195.128 426.798 194.954 427.237 194.954H431.008C431.446 194.954 431.867 195.128 432.177 195.438C432.487 195.749 432.662 196.169 432.662 196.608V200.379C432.657 200.739 432.535 201.087 432.314 201.371H436.499V176H425.715V184.468C425.733 187.839 424.902 191.161 423.3 194.127Z" fill="black"/>
<path d="M128.075 227.437C128.083 226.711 128.372 226.016 128.88 225.498C129.389 224.981 130.078 224.679 130.804 224.658L215.518 222.045V202.744L159.152 202.611C158.238 202.611 157.337 202.826 156.522 203.24L153.214 204.976L124.023 210.567L89.3894 217.182C89.1336 217.248 88.874 217.298 88.6121 217.331H88.3309H87.7189C85.8766 217.331 84.1097 216.599 82.807 215.297C81.5043 213.994 80.7724 212.227 80.7724 210.385C80.768 209.39 80.9819 208.406 81.3992 207.503C81.8164 206.6 82.4268 205.8 83.1872 205.158L50.6048 204.993C50.0425 204.993 50.1087 205.638 50.1087 206.3V228.429H55.0704V230.794C55.0434 231.796 55.2236 232.793 55.5997 233.722L58.031 230.215C59.0005 228.829 60.2897 227.696 61.7896 226.913C63.2895 226.13 64.9559 225.719 66.6479 225.717H89.5217C89.9604 225.717 90.381 225.891 90.6912 226.201C91.0014 226.511 91.1756 226.932 91.1756 227.371V245.117C91.1839 245.24 91.232 245.356 91.3127 245.449C91.3933 245.541 91.502 245.605 91.6222 245.63C92.0648 245.772 92.479 245.99 92.8461 246.275C93.6565 246.837 94.897 247.73 95.972 248.508C97.3555 249.513 99.0255 250.046 100.735 250.029H118.515C120.384 250.029 122.733 250.129 124.271 249.07C125.545 248.13 126.489 246.81 126.967 245.299C127.514 243.816 127.8 242.249 127.81 240.668L128.075 227.437ZM155.05 212.551H165.619C166.715 212.551 167.767 212.987 168.543 213.762C169.318 214.538 169.754 215.59 169.754 216.686C169.754 217.783 169.318 218.835 168.543 219.61C167.767 220.385 166.715 220.821 165.619 220.821H155.083C153.987 220.821 152.935 220.385 152.16 219.61C151.384 218.835 150.949 217.783 150.949 216.686C150.949 215.59 151.384 214.538 152.16 213.762C152.935 212.987 153.987 212.551 155.083 212.551H155.05ZM101.083 217.513C101.567 217.513 102.041 217.657 102.444 217.927C102.847 218.197 103.161 218.58 103.346 219.028C103.53 219.476 103.578 219.969 103.482 220.445C103.386 220.92 103.152 221.356 102.808 221.698C102.464 222.039 102.026 222.271 101.55 222.364C101.074 222.456 100.581 222.406 100.134 222.218C99.6874 222.03 99.3063 221.714 99.0393 221.309C98.7723 220.904 98.6316 220.429 98.6348 219.944C98.637 219.625 98.702 219.309 98.8262 219.015C98.9504 218.721 99.1313 218.454 99.3586 218.23C99.5859 218.006 99.8552 217.829 100.151 217.708C100.447 217.588 100.763 217.528 101.083 217.53V217.513ZM120.715 247.565L100.967 247.78C99.2565 247.657 97.6318 246.984 96.3359 245.861L94.2354 243.761C93.9512 243.48 93.7259 243.145 93.5725 242.776C93.4192 242.407 93.3409 242.011 93.3423 241.611L93.4911 227.255C93.4911 226.816 93.6654 226.395 93.9756 226.085C94.2857 225.775 94.7064 225.601 95.1451 225.601H124.072C124.487 225.611 124.882 225.776 125.18 226.064C125.327 226.208 125.443 226.381 125.52 226.571C125.597 226.762 125.633 226.967 125.627 227.172L125.445 241.578C125.313 244.389 123.278 247.582 120.715 247.582V247.565Z" fill="black"/>
<path d="M89.5383 228.76L66.6645 228.892C65.5046 228.909 64.3661 229.207 63.3464 229.76C62.3267 230.313 61.4563 231.105 60.8096 232.068L57.6836 236.55C59.4699 238.534 61.5208 241.263 61.5208 243.314C61.5208 245.994 53.5488 269.149 49.414 280.958C48.7737 282.792 48.8794 284.804 49.7085 286.562C50.5375 288.319 52.0236 289.68 53.8465 290.352L67.3757 295.314C68.3492 295.67 69.3921 295.795 70.4222 295.679C71.4523 295.564 72.4415 295.211 73.3121 294.648C74.1826 294.085 74.9106 293.328 75.4389 292.436C75.9672 291.545 76.2813 290.542 76.3565 289.508C76.5384 286.994 75.8768 282.38 75.8768 280.329C75.8768 274.54 80.0613 271.183 80.0613 267.61C80.0613 263.625 82.8233 253.436 84.6426 250.542C85.7647 248.992 87.1536 247.653 88.7444 246.589C89.0032 246.397 89.2141 246.148 89.3605 245.861C89.5068 245.574 89.5847 245.257 89.5879 244.935L89.5383 228.76ZM81.7152 243.877C81.3182 244.852 71.4939 274.259 68.8476 288.119C68.8036 288.348 68.7115 288.565 68.5775 288.756C68.4436 288.947 68.2707 289.108 68.0703 289.227C67.8776 289.341 67.6639 289.414 67.4422 289.442C67.2205 289.471 66.9953 289.454 66.7802 289.393L54.5081 285.688C53.8627 285.451 53.332 284.977 53.0245 284.362C52.7171 283.747 52.6562 283.038 52.8542 282.38L65.639 243.645C65.7778 243.223 66.0457 242.856 66.4049 242.595C66.764 242.333 67.1962 242.192 67.6403 242.19L80.8717 242.57C81.0341 242.576 81.1926 242.622 81.3337 242.702C81.4748 242.783 81.5943 242.896 81.6821 243.033L81.9302 243.397L81.7152 243.877Z" fill="black"/>
<path d="M155.083 219.184H165.652C166.31 219.184 166.941 218.923 167.406 218.458C167.871 217.993 168.133 217.362 168.133 216.704C168.133 216.046 167.871 215.415 167.406 214.949C166.941 214.484 166.31 214.223 165.652 214.223H155.083C154.425 214.223 153.794 214.484 153.329 214.949C152.864 215.415 152.602 216.046 152.602 216.704C152.602 217.362 152.864 217.993 153.329 218.458C153.794 218.923 154.425 219.184 155.083 219.184Z" fill="black"/>
<path d="M62.6454 189.926L151.461 189.711L155.993 187.065C156.996 186.476 158.138 186.168 159.301 186.171H206.802C206.901 185.519 207.244 184.928 207.761 184.518H148.468C148.133 184.514 147.802 184.444 147.496 184.31C147.189 184.177 146.912 183.983 146.681 183.74L146.036 183.079C145.802 182.832 145.519 182.636 145.207 182.503C144.894 182.369 144.557 182.3 144.217 182.3C143.877 182.3 143.54 182.369 143.228 182.503C142.915 182.636 142.633 182.832 142.398 183.079L141.769 183.724C141.534 183.97 141.252 184.165 140.939 184.299C140.627 184.432 140.29 184.501 139.95 184.501H120.351C120.011 184.501 119.674 184.432 119.362 184.299C119.049 184.165 118.767 183.97 118.532 183.724L117.887 183.062C117.652 182.816 117.37 182.62 117.057 182.486C116.744 182.352 116.407 182.283 116.067 182.283C115.727 182.283 115.39 182.352 115.078 182.486C114.765 182.62 114.483 182.816 114.248 183.062L113.603 183.724C113.369 183.971 113.087 184.168 112.774 184.302C112.461 184.435 112.124 184.503 111.784 184.501H92.2342C91.8941 184.501 91.5575 184.432 91.2448 184.299C90.9321 184.165 90.6498 183.97 90.4149 183.724L89.7533 183.029C89.5167 182.792 89.2357 182.604 88.9264 182.476C88.617 182.347 88.2854 182.281 87.9505 182.281C87.6156 182.281 87.284 182.347 86.9747 182.476C86.6653 182.604 86.3843 182.792 86.1477 183.029L85.3869 183.79C85.1567 184.026 84.8815 184.214 84.5775 184.341C84.2735 184.469 83.947 184.535 83.6172 184.534H73.3629C70.8158 184.534 68.0538 184.352 66.251 186.188L62.6454 189.926Z" fill="black"/>
<path d="M173.376 241.809C173.341 241.67 173.26 241.549 173.145 241.464C173.03 241.379 172.89 241.338 172.747 241.346C172.641 241.338 172.534 241.353 172.434 241.39C172.335 241.427 172.244 241.486 172.168 241.561C172.103 241.616 172.055 241.689 172.028 241.771C172.002 241.853 171.999 241.94 172.02 242.024C176.617 265.592 191.867 287.441 216.477 305.766C216.606 305.877 216.77 305.938 216.94 305.938C217.11 305.938 217.274 305.877 217.403 305.766C217.46 305.716 217.505 305.655 217.536 305.587C217.566 305.518 217.582 305.444 217.582 305.369C217.582 305.294 217.566 305.22 217.536 305.151C217.505 305.083 217.46 305.022 217.403 304.972C189.898 282.165 178.238 265.278 173.376 241.809Z" fill="black"/>
<path d="M164.296 242.207C164.258 242.07 164.176 241.95 164.062 241.866C163.948 241.782 163.809 241.739 163.667 241.744C163.558 241.733 163.448 241.746 163.345 241.783C163.242 241.821 163.148 241.881 163.072 241.959C163.013 242.02 162.971 242.093 162.948 242.174C162.925 242.255 162.922 242.34 162.939 242.422C170.465 281.008 209.928 310.696 211.581 311.887C211.709 311.993 211.87 312.052 212.036 312.052C212.202 312.052 212.363 311.993 212.491 311.887C212.547 311.839 212.592 311.779 212.623 311.712C212.653 311.645 212.669 311.572 212.669 311.498C212.669 311.425 212.653 311.352 212.623 311.285C212.592 311.218 212.547 311.158 212.491 311.11C185.152 288.451 169.142 265.71 164.296 242.207Z" fill="black"/>
<path d="M154.19 242.488C154.153 242.351 154.071 242.231 153.957 242.147C153.843 242.063 153.703 242.02 153.562 242.025C153.453 242.018 153.344 242.034 153.242 242.071C153.139 242.108 153.046 242.165 152.966 242.24C152.908 242.301 152.865 242.374 152.842 242.455C152.819 242.536 152.816 242.621 152.834 242.703C159.599 277.353 197.093 311.457 206.471 318.354C206.599 318.46 206.759 318.518 206.926 318.518C207.092 318.518 207.253 318.46 207.38 318.354C207.437 318.304 207.482 318.243 207.513 318.175C207.544 318.106 207.56 318.032 207.56 317.957C207.56 317.882 207.544 317.807 207.513 317.739C207.482 317.671 207.437 317.609 207.38 317.56C179.528 294.438 159.003 265.825 154.19 242.488Z" fill="black"/>
<path d="M180.058 226.047L139.371 227.817C149.46 293.676 202.369 330.906 210.87 335.801C211.204 335.989 211.596 336.046 211.969 335.96C212.342 335.874 212.67 335.653 212.888 335.338L233.827 305.452C234.055 305.111 234.14 304.694 234.063 304.292C233.985 303.889 233.752 303.533 233.413 303.302C189.7 273.415 181.414 236.847 180.058 226.047ZM208.654 319.229C208.181 319.691 207.545 319.947 206.884 319.94C206.358 319.937 205.846 319.775 205.412 319.477C195.935 312.431 158.06 278.129 151.197 242.95C151.142 242.653 151.161 242.348 151.25 242.06C151.339 241.772 151.497 241.51 151.709 241.296C151.943 241.061 152.221 240.875 152.528 240.75C152.835 240.625 153.164 240.563 153.496 240.568C154.015 240.537 154.529 240.684 154.953 240.985C155.377 241.286 155.685 241.722 155.828 242.222C160.574 265.245 180.918 293.494 208.472 316.401C208.685 316.564 208.86 316.772 208.986 317.008C209.112 317.245 209.186 317.506 209.203 317.774C209.221 318.041 209.18 318.31 209.086 318.561C208.991 318.812 208.844 319.039 208.654 319.229ZM213.748 312.812C213.516 313.044 213.24 313.226 212.936 313.348C212.632 313.47 212.306 313.53 211.978 313.523C211.451 313.527 210.936 313.365 210.506 313.06C208.852 311.803 168.943 281.784 161.302 242.652C161.252 242.356 161.272 242.051 161.361 241.764C161.45 241.477 161.606 241.215 161.815 240.998C162.292 240.531 162.933 240.27 163.601 240.271C164.119 240.243 164.632 240.391 165.055 240.691C165.479 240.991 165.788 241.426 165.933 241.925C170.713 265.08 186.541 287.589 213.566 309.984C213.779 310.147 213.954 310.354 214.08 310.591C214.206 310.828 214.28 311.089 214.297 311.357C214.315 311.624 214.275 311.892 214.18 312.143C214.085 312.394 213.938 312.622 213.748 312.812ZM218.71 306.643C218.484 306.879 218.212 307.066 217.91 307.192C217.608 307.317 217.283 307.378 216.957 307.37C216.426 307.379 215.908 307.21 215.485 306.891C190.411 288.301 175.063 266.188 170.399 242.255C170.345 241.96 170.362 241.656 170.448 241.369C170.534 241.081 170.688 240.818 170.895 240.601C171.372 240.134 172.013 239.873 172.681 239.874C173.201 239.839 173.716 239.985 174.141 240.286C174.566 240.588 174.874 241.026 175.013 241.528C179.793 264.683 191.321 281.222 218.478 303.798C218.696 303.96 218.876 304.167 219.005 304.405C219.135 304.644 219.211 304.907 219.228 305.178C219.245 305.449 219.203 305.72 219.105 305.973C219.007 306.226 218.855 306.454 218.66 306.643H218.71Z" fill="black"/>
</svg>
