<svg width="512" height="160" viewBox="0 0 512 160" fill="none" xmlns="http://www.w3.org/2000/svg">
<path d="M153.099 27.2898L156.539 25.6359C157.34 25.2356 158.223 25.0261 159.119 25.0239L203.775 25.1231V19.1855H159.35C158.458 19.1908 157.584 19.4365 156.82 19.8967L155.679 20.5749L153.132 21.9641L153.099 27.2898Z" fill="black"/>
<path d="M350.346 11.7598H323.039V20.2775H350.346V11.7598Z" fill="black"/>
<path d="M205.379 11.8262V25.0576H215.518V20.8897L208.902 15.746C208.245 15.3386 207.702 14.7716 207.323 14.0978C206.944 13.424 206.742 12.6653 206.735 11.8923L205.379 11.8262Z" fill="black"/>
<path d="M209.349 7.2274H209.464C210.263 6.7635 211.17 6.5182 212.094 6.51621H226.483L230.535 2.8445C230.436 2.72872 230.353 2.61295 230.238 2.49718C229.607 1.86089 228.752 1.49845 227.856 1.48828H211.515C210.63 1.51822 209.791 1.88983 209.175 2.52511C208.558 3.1604 208.211 4.00993 208.207 4.89536C208.181 5.34937 208.272 5.80248 208.472 6.21096C208.672 6.61944 208.974 6.96951 209.349 7.2274Z" fill="black"/>
<path d="M211.201 8.35311C210.576 8.51426 210.004 8.83975 209.547 9.29585C208.892 9.93607 208.497 10.7963 208.439 11.7106C208.453 12.25 208.6 12.7776 208.865 13.2475C209.13 13.7174 209.506 14.1153 209.961 14.4065L217.932 20.7906H233.049V12.0248L228.088 15.8619C227.072 16.6928 225.81 17.1638 224.499 17.2016C223.968 17.2191 223.441 17.1184 222.955 16.9067C222.468 16.695 222.035 16.3776 221.687 15.9777C221.196 15.3567 220.933 14.586 220.943 13.7945C220.991 13.0175 221.198 12.2587 221.551 11.5647C221.903 10.8706 222.394 10.2561 222.994 9.75894L224.647 8.27041H212.111C211.805 8.25352 211.499 8.28139 211.201 8.35311Z" fill="black"/>
<path d="M310.668 8.5332H306.285V20.8549H310.668V8.5332Z" fill="black"/>
<path d="M321.386 11.7598H312.339V20.2775H321.386V11.7598Z" fill="black"/>
<path d="M321.386 26.7109H312.339V42.7209H321.386V26.7109Z" fill="black"/>
<path d="M236.837 9.01377L234.604 10.7669C234.69 11.1301 234.734 11.5019 234.736 11.8751V20.8559H243.833V6.96289H238.557C238.146 7.74854 237.584 8.44546 236.903 9.01377H236.837Z" fill="black"/>
<path d="M224.102 10.9153C223.689 11.2614 223.35 11.6875 223.105 12.1678C222.861 12.6481 222.716 13.1728 222.679 13.7104C222.663 14.1195 222.798 14.5202 223.06 14.8351C223.837 15.7944 225.673 15.6455 227.145 14.4878L235.811 7.72322C236.708 7.03721 237.301 6.02843 237.465 4.91155C237.495 4.66522 237.475 4.41552 237.407 4.17699C237.338 3.93847 237.224 3.7159 237.068 3.52226L236.539 2.92684C236.342 2.73124 236.107 2.57876 235.848 2.4791C235.588 2.37945 235.311 2.33478 235.034 2.34796C234.236 2.40041 233.468 2.67543 232.818 3.14185C232.636 3.25959 232.465 3.39237 232.305 3.53879L224.102 10.9153ZM234.472 3.73726C234.799 3.73726 235.119 3.83427 235.391 4.01601C235.663 4.19774 235.875 4.45605 236 4.75826C236.125 5.06048 236.158 5.39303 236.094 5.71386C236.03 6.03469 235.873 6.32939 235.641 6.5607C235.41 6.792 235.115 6.94952 234.794 7.01333C234.474 7.07715 234.141 7.04441 233.839 6.91922C233.537 6.79404 233.278 6.58205 233.097 6.31007C232.915 6.03808 232.818 5.71831 232.818 5.39119C232.818 4.95254 232.992 4.53186 233.302 4.22169C233.612 3.91152 234.033 3.73726 234.472 3.73726Z" fill="black"/>
<path d="M151.445 15.3652L61.1073 15.5802L50.1252 27.5051H86.8424L100.19 27.257H100.107L105.201 22.5102C106.644 21.158 108.549 20.4069 110.527 20.4097H151.461L151.445 15.3652Z" fill="black"/>
<path d="M203.725 11.8262H159.301C158.436 11.8281 157.586 12.0562 156.836 12.4877L153.099 14.7205V20.1123L155.943 18.4584C156.944 17.858 158.085 17.5328 159.251 17.5157H203.725V11.8262Z" fill="black"/>
<path d="M151.445 27.6369V21.9805H110.527C108.967 21.9795 107.466 22.5707 106.326 23.6344L102.488 27.2234L143.225 26.4791C143.759 26.4684 144.278 26.6603 144.677 27.0161C145.075 27.372 145.325 27.8655 145.375 28.3977C145.392 28.5184 145.392 28.6409 145.375 28.7616L151.445 27.6369Z" fill="black"/>
<path d="M88.7444 29.2746C88.3973 29.1944 88.042 29.1555 87.6859 29.1588C87.4767 29.1424 87.2665 29.1424 87.0574 29.1588C85.7683 29.3038 84.5779 29.9186 83.7135 30.8857C82.8491 31.8529 82.3712 33.1046 82.3712 34.4017C82.3712 35.6989 82.8491 36.9506 83.7135 37.9177C84.5779 38.8848 85.7683 39.4996 87.0574 39.6447H87.6528C88.304 39.6437 88.9492 39.5203 89.5548 39.2808C90.6178 38.8695 91.519 38.125 92.1236 37.1588C92.7282 36.1926 93.0036 35.0565 92.9087 33.9207C92.8137 32.7848 92.3535 31.7103 91.5968 30.8579C90.8402 30.0054 89.8609 29.5036 88.7444 29.2746Z" fill="black"/>
<path d="M245.487 20.8559H248.795C248.974 20.4293 249.275 20.0651 249.661 19.8091C250.046 19.5531 250.499 19.4167 250.961 19.4169H266.244C266.709 19.4156 267.164 19.5514 267.552 19.8073C267.941 20.0632 268.245 20.4279 268.427 20.8559H280.219C280.399 20.4293 280.7 20.0651 281.085 19.8091C281.471 19.5531 281.923 19.4167 282.386 19.4169H297.668C298.133 19.4156 298.588 19.5514 298.977 19.8073C299.365 20.0632 299.669 20.4279 299.851 20.8559H304.648V8.26949C304.648 8.09791 304.614 7.92801 304.548 7.76949C304.483 7.61096 304.386 7.46691 304.265 7.34558C304.144 7.22425 304 7.12801 303.841 7.06235C303.683 6.99669 303.513 6.96289 303.341 6.96289H245.454L245.487 20.8559Z" fill="black"/>
<path d="M138.081 30.1175L143.357 29.1086C143.473 29.0781 143.573 29.0068 143.641 28.908C143.708 28.8091 143.737 28.6892 143.723 28.5704C143.709 28.4516 143.653 28.342 143.564 28.2615C143.475 28.1811 143.361 28.1354 143.241 28.1328L91.9695 29.059C92.7795 29.7024 93.4348 30.5193 93.887 31.4496C94.3393 32.3799 94.577 33.3999 94.5827 34.4343C94.5891 35.8691 94.1436 37.2695 93.3092 38.4368L138.081 30.1175Z" fill="black"/>
<path d="M67.2102 68.1413L54.3592 106.86C54.2747 107.119 54.2948 107.4 54.4154 107.645C54.536 107.889 54.7473 108.076 55.0043 108.166L67.2599 111.871C69.7242 98.7886 78.1427 73.2354 79.8793 68.1744L67.6237 67.8105C67.5285 67.8144 67.4371 67.8485 67.3627 67.908C67.2883 67.9676 67.2349 68.0493 67.2102 68.1413Z" fill="black"/>
<path d="M218.826 50.6103C219.382 51.4108 220.124 52.0649 220.988 52.517C221.852 52.9691 222.812 53.2058 223.787 53.207H224.3C227.793 53.1998 231.199 52.1202 234.058 50.1142L239.02 46.674C240.656 45.517 242.607 44.888 244.61 44.8712L276.994 44.4908C280.424 44.4577 283.842 44.903 287.149 45.814L289.481 46.459C290.909 46.8548 292.383 47.0551 293.864 47.0544H302.481C303.078 47.0544 303.65 46.8174 304.072 46.3956C304.494 45.9738 304.731 45.4016 304.731 44.8051V24.1641H299.951C299.79 24.6189 299.492 25.0127 299.098 25.2911C298.704 25.5696 298.233 25.719 297.751 25.7188H282.436C281.954 25.7166 281.484 25.5662 281.091 25.2881C280.697 25.01 280.399 24.6176 280.236 24.1641H268.493C268.332 24.6189 268.034 25.0127 267.64 25.2911C267.246 25.5696 266.776 25.719 266.293 25.7188H251.011C250.529 25.7166 250.06 25.5662 249.666 25.2881C249.273 25.01 248.974 24.6176 248.811 24.1641H218.826V50.6103Z" fill="black"/>
<path d="M106.044 63.2949C105.319 62.0467 104.914 60.6383 104.864 59.1954C104.815 57.7525 105.124 56.3199 105.763 55.0253C106.907 53.4444 108.358 52.1111 110.03 51.1055H97.9898C98.1486 54.8519 99.001 58.5363 100.504 61.9718C101.162 63.6384 102.352 65.0412 103.889 65.9623C105.427 66.8834 107.225 67.2713 109.005 67.0659C109.041 67.0641 109.075 67.0519 109.104 67.0308C109.133 67.0097 109.154 66.9805 109.167 66.947C109.179 66.9135 109.181 66.8771 109.173 66.8424C109.165 66.8076 109.147 66.7761 109.121 66.7516C107.86 65.8325 106.811 64.6537 106.044 63.2949Z" fill="black"/>
<path d="M357.64 28.4648H323.039V42.7217H357.64V28.4648Z" fill="black"/>
<path d="M310.668 24.1641H306.285V45.2516H310.668V24.1641Z" fill="black"/>
<path d="M435.721 45.6149V26.6113H416.552V45.1849C416.663 45.3186 416.802 45.4264 416.96 45.5007C417.117 45.575 417.288 45.614 417.462 45.6149H435.721Z" fill="black"/>
<path d="M446.174 28.5137V39.8265H463.011C454.527 37.5276 452.922 28.5302 452.922 28.5302L446.174 28.5137Z" fill="black"/>
<path d="M383.788 42.721H414.899V29.3242H384.119C384.009 29.3413 383.898 29.3413 383.788 29.3242V42.721Z" fill="black"/>
<path d="M444.586 26.5781H438.665V26.6112H437.375V45.6148H444.586V26.5781Z" fill="black"/>
<path d="M361.212 22.9899V25.7355H374.278C372.978 24.8998 371.985 23.663 371.45 22.2126L369.167 16.1261C368.397 14.799 367.293 13.6973 365.963 12.9311C364.634 12.1649 363.127 11.761 361.592 11.7598H352V20.2775H358.516C358.872 20.2775 359.224 20.3478 359.552 20.4843C359.88 20.6208 360.178 20.8208 360.428 21.0729C360.679 21.325 360.877 21.6242 361.012 21.9532C361.146 22.2822 361.214 22.6345 361.212 22.9899Z" fill="black"/>
<path d="M382.134 27.3887H359.294V44.8872H382.134V27.3887Z" fill="black"/>
<path d="M423.3 18.127L419.827 24.4616C419.645 24.795 419.417 25.1012 419.149 25.3712H425.93C425.71 25.087 425.588 24.7386 425.583 24.3789V20.6079C425.583 20.1693 425.757 19.7486 426.067 19.4384C426.377 19.1282 426.798 18.954 427.237 18.954H431.008C431.446 18.954 431.867 19.1282 432.177 19.4384C432.487 19.7486 432.662 20.1693 432.662 20.6079V24.3789C432.657 24.7386 432.535 25.087 432.314 25.3712H436.499V0H425.715V8.46811C425.733 11.8392 424.902 15.1607 423.3 18.127Z" fill="black"/>
<path d="M128.075 51.4367C128.083 50.7109 128.372 50.0163 128.88 49.4984C129.389 48.9806 130.078 48.6794 130.804 48.6581L215.518 46.045V26.7436L159.152 26.6113C158.238 26.6109 157.337 26.8263 156.522 27.2398L153.214 28.9764L124.023 34.5667L89.3894 41.1824C89.1336 41.2479 88.874 41.2976 88.6121 41.3313H88.3309H87.7189C85.8766 41.3313 84.1097 40.5994 82.807 39.2967C81.5043 37.994 80.7724 36.2271 80.7724 34.3848C80.768 33.39 80.9819 32.4064 81.3992 31.5033C81.8164 30.6002 82.4268 29.7998 83.1872 29.1584L50.6048 28.993C50.0425 28.993 50.1087 29.638 50.1087 30.2996V52.4291H55.0704V54.7942C55.0434 55.7961 55.2236 56.7927 55.5997 57.7217L58.031 54.2153C59.0005 52.8286 60.2897 51.6959 61.7896 50.9128C63.2895 50.1298 64.9559 49.7195 66.6479 49.7167H89.5217C89.9604 49.7167 90.381 49.8909 90.6912 50.2011C91.0014 50.5113 91.1756 50.9319 91.1756 51.3706V69.1172C91.1839 69.2397 91.232 69.3561 91.3127 69.4487C91.3933 69.5413 91.502 69.6049 91.6222 69.6299C92.0648 69.7716 92.479 69.99 92.8461 70.275C93.6565 70.8373 94.897 71.7304 95.972 72.5078C97.3555 73.5127 99.0255 74.0462 100.735 74.0294H118.515C120.384 74.0294 122.733 74.1286 124.271 73.0701C125.545 72.1297 126.489 70.8095 126.967 69.2991C127.514 67.8161 127.8 66.2491 127.81 64.6681L128.075 51.4367ZM155.05 36.5514H165.619C166.715 36.5514 167.767 36.9871 168.543 37.7625C169.318 38.5379 169.754 39.5896 169.754 40.6862C169.754 41.7828 169.318 42.8346 168.543 43.61C167.767 44.3854 166.715 44.821 165.619 44.821H155.083C153.987 44.821 152.935 44.3854 152.16 43.61C151.384 42.8346 150.949 41.7828 150.949 40.6862C150.949 39.5896 151.384 38.5379 152.16 37.7625C152.935 36.9871 153.987 36.5514 155.083 36.5514H155.05ZM101.083 41.5132C101.567 41.5132 102.041 41.6572 102.444 41.9269C102.847 42.1966 103.161 42.5799 103.346 43.0281C103.53 43.4764 103.578 43.9694 103.482 44.4447C103.386 44.9199 103.152 45.3561 102.808 45.6977C102.464 46.0394 102.026 46.2712 101.55 46.3638C101.074 46.4564 100.581 46.4055 100.134 46.2177C99.6874 46.0299 99.3063 45.7136 99.0393 45.3089C98.7723 44.9042 98.6316 44.4293 98.6348 43.9445C98.637 43.6252 98.702 43.3094 98.8262 43.0153C98.9504 42.7212 99.1313 42.4543 99.3586 42.2301C99.5859 42.0059 99.8552 41.8286 100.151 41.7085C100.447 41.5883 100.763 41.5276 101.083 41.5297V41.5132ZM120.715 71.565L100.967 71.78C99.2565 71.6574 97.6318 70.9843 96.3359 69.8615L94.2354 67.761C93.9512 67.4799 93.7259 67.1449 93.5725 66.7758C93.4192 66.4066 93.3409 66.0106 93.3423 65.6109L93.4911 51.2548C93.4911 50.8162 93.6654 50.3955 93.9756 50.0853C94.2857 49.7751 94.7064 49.6009 95.1451 49.6009H124.072C124.487 49.6109 124.882 49.7762 125.18 50.064C125.327 50.2078 125.443 50.3806 125.52 50.5713C125.597 50.762 125.633 50.9666 125.627 51.1721L125.445 65.5778C125.313 68.3895 123.278 71.5816 120.715 71.5816V71.565Z" fill="black"/>
<path d="M89.5383 52.7598L66.6645 52.8921C65.5046 52.9089 64.3661 53.2066 63.3464 53.7596C62.3267 54.3127 61.4563 55.1046 60.8096 56.0676L57.6836 60.5498C59.4699 62.5345 61.5208 65.2635 61.5208 67.3143C61.5208 69.9937 53.5488 93.1486 49.414 104.958C48.7737 106.792 48.8794 108.804 49.7085 110.562C50.5375 112.319 52.0236 113.68 53.8465 114.352L67.3757 119.314C68.3492 119.67 69.3921 119.795 70.4222 119.679C71.4523 119.564 72.4415 119.211 73.3121 118.648C74.1826 118.085 74.9106 117.328 75.4389 116.436C75.9672 115.545 76.2813 114.542 76.3565 113.508C76.5384 110.994 75.8768 106.38 75.8768 104.329C75.8768 98.5404 80.0613 95.183 80.0613 91.6105C80.0613 87.6245 82.8233 77.4363 84.6426 74.542C85.7647 72.9916 87.1536 71.6531 88.7444 70.5891C89.0032 70.3974 89.2141 70.1482 89.3605 69.8613C89.5068 69.5743 89.5847 69.2573 89.5879 68.9352L89.5383 52.7598ZM81.7152 67.8766C81.3182 68.8525 71.4939 98.2593 68.8476 112.119C68.8036 112.348 68.7115 112.565 68.5775 112.756C68.4436 112.947 68.2707 113.108 68.0703 113.227C67.8776 113.341 67.6639 113.414 67.4422 113.442C67.2205 113.471 66.9953 113.454 66.7802 113.393L54.5081 109.688C53.8627 109.451 53.332 108.977 53.0245 108.362C52.7171 107.747 52.6562 107.038 52.8542 106.38L65.639 67.6451C65.7778 67.2233 66.0457 66.8557 66.4049 66.5945C66.764 66.3333 67.1962 66.1917 67.6403 66.1896L80.8717 66.57C81.0341 66.5763 81.1926 66.6216 81.3337 66.7022C81.4748 66.7829 81.5943 66.8964 81.6821 67.0331L81.9302 67.397L81.7152 67.8766Z" fill="black"/>
<path d="M155.083 43.1844H165.652C166.31 43.1844 166.941 42.9231 167.406 42.4578C167.871 41.9925 168.133 41.3615 168.133 40.7035C168.133 40.0456 167.871 39.4145 167.406 38.9493C166.941 38.484 166.31 38.2227 165.652 38.2227H155.083C154.425 38.2227 153.794 38.484 153.329 38.9493C152.864 39.4145 152.602 40.0456 152.602 40.7035C152.602 41.3615 152.864 41.9925 153.329 42.4578C153.794 42.9231 154.425 43.1844 155.083 43.1844Z" fill="black"/>
<path d="M62.6454 13.9259L151.461 13.7109L155.993 11.0646C156.996 10.4764 158.138 10.168 159.301 10.1715H206.802C206.901 9.51878 207.244 8.92788 207.761 8.51754H148.468C148.133 8.51426 147.802 8.44374 147.496 8.31021C147.189 8.17667 146.912 7.98283 146.681 7.7402L146.036 7.07862C145.802 6.83244 145.519 6.63647 145.207 6.50256C144.894 6.36866 144.557 6.29962 144.217 6.29962C143.877 6.29962 143.54 6.36866 143.228 6.50256C142.915 6.63647 142.633 6.83244 142.398 7.07862L141.769 7.72365C141.534 7.96954 141.252 8.16521 140.939 8.29883C140.627 8.43244 140.29 8.50121 139.95 8.501H120.351C120.011 8.50121 119.674 8.43244 119.362 8.29883C119.049 8.16521 118.767 7.96954 118.532 7.72365L117.887 7.06209C117.652 6.81591 117.37 6.61994 117.057 6.48603C116.744 6.35213 116.407 6.28309 116.067 6.28309C115.727 6.28309 115.39 6.35213 115.078 6.48603C114.765 6.61994 114.483 6.81591 114.248 7.06209L113.603 7.72365C113.369 7.97109 113.087 8.1678 112.774 8.30153C112.461 8.43526 112.124 8.50316 111.784 8.501H92.2342C91.8941 8.50121 91.5575 8.43244 91.2448 8.29883C90.9321 8.16521 90.6498 7.96954 90.4149 7.72365L89.7533 7.02901C89.5167 6.79197 89.2357 6.60391 88.9264 6.4756C88.617 6.34729 88.2854 6.28125 87.9505 6.28125C87.6156 6.28125 87.284 6.34729 86.9747 6.4756C86.6653 6.60391 86.3843 6.79197 86.1477 7.02901L85.3869 7.78981C85.1567 8.02597 84.8815 8.21352 84.5775 8.34136C84.2735 8.46921 83.947 8.53475 83.6172 8.53408H73.3629C70.8158 8.53408 68.0538 8.35215 66.251 10.188L62.6454 13.9259Z" fill="black"/>
<path d="M173.376 65.8088C173.341 65.6705 173.26 65.5485 173.145 65.464C173.03 65.3795 172.89 65.3376 172.747 65.3457C172.641 65.338 172.534 65.3532 172.434 65.3903C172.335 65.4274 172.244 65.4855 172.168 65.5607C172.103 65.6165 172.055 65.6893 172.028 65.7711C172.002 65.8529 171.999 65.9404 172.02 66.0238C176.617 89.5922 191.867 111.441 216.477 129.766C216.606 129.877 216.77 129.938 216.94 129.938C217.11 129.938 217.274 129.877 217.403 129.766C217.46 129.716 217.505 129.655 217.536 129.587C217.566 129.518 217.582 129.444 217.582 129.369C217.582 129.294 217.566 129.22 217.536 129.151C217.505 129.083 217.46 129.022 217.403 128.972C189.898 106.165 178.238 89.278 173.376 65.8088Z" fill="black"/>
<path d="M164.296 66.2072C164.258 66.0705 164.176 65.9503 164.062 65.8663C163.948 65.7822 163.809 65.7392 163.667 65.7441C163.558 65.7328 163.448 65.7463 163.345 65.7835C163.242 65.8207 163.148 65.8808 163.072 65.9591C163.013 66.0196 162.971 66.0934 162.948 66.1742C162.925 66.2549 162.922 66.3401 162.939 66.4222C170.465 105.008 209.928 134.696 211.581 135.887C211.709 135.993 211.87 136.052 212.036 136.052C212.202 136.052 212.363 135.993 212.491 135.887C212.547 135.839 212.592 135.779 212.623 135.712C212.653 135.645 212.669 135.572 212.669 135.498C212.669 135.425 212.653 135.352 212.623 135.285C212.592 135.218 212.547 135.158 212.491 135.11C185.152 112.451 169.142 89.7095 164.296 66.2072Z" fill="black"/>
<path d="M154.19 66.4882C154.153 66.3514 154.071 66.2312 153.957 66.1472C153.843 66.0631 153.703 66.0201 153.562 66.025C153.453 66.0181 153.344 66.0336 153.242 66.0706C153.139 66.1076 153.046 66.1653 152.966 66.2401C152.908 66.3005 152.865 66.3744 152.842 66.4551C152.819 66.5359 152.816 66.621 152.834 66.7032C159.599 101.353 197.093 135.457 206.471 142.354C206.599 142.46 206.759 142.518 206.926 142.518C207.092 142.518 207.253 142.46 207.38 142.354C207.437 142.304 207.482 142.243 207.513 142.175C207.544 142.106 207.56 142.032 207.56 141.957C207.56 141.882 207.544 141.807 207.513 141.739C207.482 141.671 207.437 141.609 207.38 141.56C179.528 118.438 159.003 89.825 154.19 66.4882Z" fill="black"/>
<path d="M180.058 50.0469L139.371 51.8166C149.46 117.676 202.369 154.906 210.87 159.801C211.204 159.989 211.596 160.046 211.969 159.96C212.342 159.874 212.67 159.653 212.888 159.338L233.827 129.452C234.055 129.111 234.14 128.694 234.063 128.292C233.985 127.889 233.752 127.533 233.413 127.302C189.7 97.4153 181.414 60.847 180.058 50.0469ZM208.654 143.229C208.181 143.691 207.545 143.947 206.884 143.94C206.358 143.937 205.846 143.775 205.412 143.477C195.935 136.431 158.06 102.129 151.197 66.95C151.142 66.6534 151.161 66.3481 151.25 66.0601C151.339 65.7721 151.497 65.5099 151.709 65.2961C151.943 65.0609 152.221 64.8752 152.528 64.7502C152.835 64.6251 153.164 64.5633 153.496 64.5683C154.015 64.5372 154.529 64.6842 154.953 64.9849C155.377 65.2857 155.685 65.7222 155.828 66.2223C160.574 89.2449 180.918 117.494 208.472 140.401C208.685 140.564 208.86 140.772 208.986 141.008C209.112 141.245 209.186 141.506 209.203 141.774C209.221 142.041 209.18 142.31 209.086 142.561C208.991 142.812 208.844 143.039 208.654 143.229ZM213.748 136.812C213.516 137.044 213.24 137.226 212.936 137.348C212.632 137.47 212.306 137.53 211.978 137.523C211.451 137.527 210.936 137.365 210.506 137.06C208.852 135.803 168.943 105.784 161.302 66.6523C161.252 66.3557 161.272 66.0515 161.361 65.7642C161.45 65.4769 161.606 65.2146 161.815 64.9984C162.292 64.531 162.933 64.2697 163.601 64.2706C164.119 64.2425 164.632 64.3907 165.055 64.691C165.479 64.9913 165.788 65.4261 165.933 65.9246C170.713 89.0795 186.541 111.589 213.566 133.984C213.779 134.147 213.954 134.354 214.08 134.591C214.206 134.828 214.28 135.089 214.297 135.357C214.315 135.624 214.275 135.892 214.18 136.143C214.085 136.394 213.938 136.622 213.748 136.812ZM218.71 130.643C218.484 130.879 218.212 131.066 217.91 131.192C217.608 131.317 217.283 131.378 216.957 131.37C216.426 131.379 215.908 131.21 215.485 130.891C190.411 112.301 175.063 90.1877 170.399 66.2554C170.345 65.9601 170.362 65.6563 170.448 65.3688C170.534 65.0814 170.688 64.8184 170.895 64.6014C171.372 64.1341 172.013 63.8727 172.681 63.8737C173.201 63.8395 173.716 63.9852 174.141 64.2864C174.566 64.5877 174.874 65.026 175.013 65.5276C179.793 88.6826 191.321 105.222 218.478 127.798C218.696 127.96 218.876 128.167 219.005 128.405C219.135 128.644 219.211 128.907 219.228 129.178C219.245 129.449 219.203 129.72 219.105 129.973C219.007 130.226 218.855 130.454 218.66 130.643H218.71Z" fill="black"/>
</svg>
