<svg width="512" height="512" viewBox="0 0 512 512" fill="none" xmlns="http://www.w3.org/2000/svg">
<path d="M310.263 337.779C286.163 327.499 262.403 327.499 254.623 337.239C254.023 337.999 253.483 338.819 253.083 339.699C247.503 351.859 264.043 370.699 290.043 381.779C316.043 392.859 341.643 391.999 347.223 379.859C347.623 378.979 347.903 378.059 348.083 377.099C350.343 364.999 334.383 348.059 310.263 337.779Z" fill="black"/>
<path d="M402.62 128.5C413.36 132.62 421.36 138.8 427.16 144.94C436.32 154.64 441.52 169.96 436 182L356.523 365.34C358.983 353.34 338.103 336.4 315.823 326.9C314.997 326.551 314.63 326.382 314.393 326.273C313.965 326.076 313.963 326.075 312.443 325.56C326.023 319 333.483 299.62 336.543 279.62C340.523 253.54 332.103 223.22 314.003 217.88L310 217L346.76 143.78C352.32 131.72 364.72 123.94 378.38 124C385.62 124.02 393.92 125.16 402.62 128.5Z" fill="black"/>
<path d="M320.68 277.599C324 251.519 314.72 228.079 299.64 222.739C298.9 222.479 298.16 222.259 297.4 222.099C297.16 222.039 296.88 221.999 296.62 221.939C296.48 221.919 296.38 221.879 296.24 221.859C295.48 221.739 294.74 221.679 294 221.639C277.74 220.899 262.32 240.719 258.92 267.479C257.14 281.559 259.04 294.839 263.52 304.939C265.36 309.079 267.6 312.699 270.22 315.599C273.22 318.899 276.68 321.299 280.52 322.519C281.46 322.819 282.4 323.059 283.38 323.219C284.1 323.339 284.82 323.399 285.54 323.439C286.08 323.459 286.6 323.479 287.16 323.459C290.74 323.339 294.26 322.199 297.6 320.259C308.86 313.679 318.14 297.599 320.68 277.599Z" fill="black"/>
<path d="M113 197.999C101.78 196.179 90.541 205.92 84.521 217.1C80.701 224.18 77.341 233.3 76.321 244.42C75.481 253.4 76.381 261.44 77.961 268.18C80.941 280.88 90.181 290.26 101.441 292.1C152.646 300.497 202.171 309.365 253.508 318.639L255.568 319.019L264.988 320.699C262.928 319.979 260.948 318.779 259.088 317.239C257.828 316.199 256.628 315.019 255.488 313.639C247.348 303.819 244.188 285.959 246.648 266.379C250.028 239.619 265.248 218.219 279.448 218.619C223.589 211.912 168.56 205.31 113 197.999Z" fill="black"/>
</svg>
