<svg width="512" height="512" viewBox="0 0 512 512" fill="none" xmlns="http://www.w3.org/2000/svg">
<path d="M128 275.93L124.216 275.93L124 336H148V272L128 272V275.93Z" fill="black"/>
<path d="M112.38 271.74C112.3 271.52 112.02 271.58 112.02 271.8V334.6C112.02 337.7 114.34 340.22 117.2 340.22H122.38V276H118.02C115.42 276 113.22 274.22 112.38 271.74Z" fill="black"/>
<path d="M364 272H152V336H364V272Z" fill="black"/>
<path d="M148 251.38V174H126V251.38V266H144.458H145.503H148V251.38Z" fill="black"/>
<path d="M112 176.52V253.56V263.48C112 267.08 114.68 270 118 270H122.36H124V170H118C114.68 170 112 172.92 112 176.52Z" fill="black"/>
<path d="M400 174H152V251.38V266H348.702H400V174Z" fill="black"/>
</svg>
