<svg width="512" height="512" viewBox="0 0 512 512" fill="none" xmlns="http://www.w3.org/2000/svg">
<path d="M324.66 319.641C331.288 319.641 336.66 314.268 336.66 307.641C336.66 301.013 331.288 295.641 324.66 295.641C318.033 295.641 312.66 301.013 312.66 307.641C312.66 314.268 318.033 319.641 324.66 319.641Z" fill="black"/>
<path d="M348.102 360.779C354.729 360.779 360.102 355.407 360.102 348.779C360.102 342.152 354.729 336.779 348.102 336.779C341.474 336.779 336.102 342.152 336.102 348.779C336.102 355.407 341.474 360.779 348.102 360.779Z" fill="black"/>
<path d="M353.02 280.68C359.647 280.68 365.02 275.307 365.02 268.68C365.02 262.052 359.647 256.68 353.02 256.68C346.392 256.68 341.02 262.052 341.02 268.68C341.02 275.307 346.392 280.68 353.02 280.68Z" fill="black"/>
<path d="M295.102 366.779C301.729 366.779 307.102 361.407 307.102 354.779C307.102 348.152 301.729 342.779 295.102 342.779C288.474 342.779 283.102 348.152 283.102 354.779C283.102 361.407 288.474 366.779 295.102 366.779Z" fill="black"/>
<path d="M183.121 252C189.749 252 195.121 246.627 195.121 240C195.121 233.373 189.749 228 183.121 228C176.494 228 171.121 233.373 171.121 240C171.121 246.627 176.494 252 183.121 252Z" fill="black"/>
<path d="M156 213.18C162.627 213.18 168 207.807 168 201.18C168 194.552 162.627 189.18 156 189.18C149.373 189.18 144 194.552 144 201.18C144 207.807 149.373 213.18 156 213.18Z" fill="black"/>
<path d="M158.461 293.4C165.088 293.4 170.461 288.028 170.461 281.4C170.461 274.773 165.088 269.4 158.461 269.4C151.834 269.4 146.461 274.773 146.461 281.4C146.461 288.028 151.834 293.4 158.461 293.4Z" fill="black"/>
<path d="M208.219 202.34C214.846 202.34 220.219 196.967 220.219 190.34C220.219 183.712 214.846 178.34 208.219 178.34C201.591 178.34 196.219 183.712 196.219 190.34C196.219 196.967 201.591 202.34 208.219 202.34Z" fill="black"/>
<path d="M167.379 322.77L156.379 341.822L236.051 387.822L247.051 368.77L167.379 322.77Z" fill="black"/>
<path d="M240.24 392.561L237.24 397.761C235.58 400.621 231.62 401.441 228.36 399.561L150.06 354.341C146.82 352.461 145.52 348.621 147.18 345.761L150.18 340.561C240.24 392.561 240.24 392.561 240.24 392.561Z" fill="black"/>
<path d="M327.459 131.5C312.479 123.44 300.539 116.14 290.219 110L169.379 319.3L249.059 365.3L369.899 156C356.159 147.76 344.179 140.5 327.459 131.5Z" fill="black"/>
</svg>
