<svg width="512" height="512" viewBox="0 0 512 512" fill="none" xmlns="http://www.w3.org/2000/svg">
<path d="M175.201 330.164H110.801V348.364H175.201V330.164Z" fill="black"/>
<path d="M178 349.596V353.796C178 356.12 175.956 357.996 173.436 357.996H112.564C110.044 357.996 108 356.12 108 353.796V349.596H178Z" fill="black"/>
<path d="M175.205 153.764H110.805V327.364H175.205V153.764Z" fill="black"/>
<path d="M302 362H210V388H302V362Z" fill="black"/>
<path d="M306 389.76V395.76C306 399.08 303.08 401.76 299.48 401.76H212.52C208.92 401.76 206 399.08 206 395.76V389.76H306Z" fill="black"/>
<path d="M302 110H210V358H302V110Z" fill="black"/>
<path d="M401.201 330.164H336.801V348.364H401.201V330.164Z" fill="black"/>
<path d="M404 349.596V353.796C404 356.12 401.956 357.996 399.436 357.996H338.564C336.044 357.996 334 356.12 334 353.796V349.596H404Z" fill="black"/>
<path d="M401.205 153.764H336.805V327.364H401.205V153.764Z" fill="black"/>
</svg>
