<svg width="512" height="512" viewBox="0 0 512 512" fill="none" xmlns="http://www.w3.org/2000/svg">
<path d="M295.201 199.177L280.37 207.739L283.599 213.332L281.256 222.075L228.179 252.719L226.58 257.501L184.786 281.631C185.729 282.459 186.584 283.383 187.337 284.388L235.228 257.828L243.874 259.813C244.341 258.584 248.293 255.081 251.384 255.979C252.328 256.196 253.218 256.602 254.001 257.173C254.784 257.744 255.444 258.468 255.939 259.3L257.678 247.395L242.863 255.949L232.273 252.71L302.715 212.04L295.201 199.177Z" fill="black"/>
<path d="M305.985 201.695L300.916 204.621L303.748 209.527L308.817 206.6L305.985 201.695Z" fill="black"/>
<path d="M176.031 276.702C176.675 273.781 176.621 270.75 175.872 267.855L169.511 271.527C170.051 272.721 170.396 273.994 170.533 275.298C172.401 275.613 174.24 276.083 176.031 276.702Z" fill="black"/>
<path d="M309.761 208.236L304.692 211.162L307.525 216.068L312.593 213.141L309.761 208.236Z" fill="black"/>
<path d="M302.209 195.154L297.14 198.08L299.972 202.985L305.041 200.059L302.209 195.154Z" fill="black"/>
<path d="M179.077 215.969C178.904 215.818 178.688 215.723 178.46 215.699C178.231 215.675 178 215.722 177.8 215.834L171.406 219.526C171.274 219.602 171.158 219.704 171.066 219.826C170.973 219.947 170.906 220.086 170.867 220.234C170.829 220.382 170.82 220.536 170.842 220.687C170.864 220.839 170.916 220.984 170.994 221.115L172.807 224.255L182.192 218.836L179.077 215.969Z" fill="black"/>
<path d="M202.16 204.255C201.86 203.735 201.365 203.355 200.784 203.199C200.204 203.044 199.586 203.125 199.065 203.426L192.884 206.994C192.364 207.295 191.984 207.789 191.829 208.37C191.673 208.95 191.755 209.569 192.055 210.089L193.377 212.378L203.482 206.544L202.16 204.255Z" fill="black"/>
<path d="M258.061 244.624L258.519 244.36L295.032 223.28L293.21 220.124L237.779 252.127L242.56 253.574L258.061 244.624Z" fill="black"/>
<path d="M224.66 255.951L226.249 251.152L279.244 220.555L281.103 213.617L278.328 208.81L177.773 266.691C178.735 270.208 178.812 273.909 177.997 277.463C179.656 278.184 182.921 280.026 182.921 280.026L224.66 255.951Z" fill="black"/>
<path d="M303.773 214.025L295.14 219.01L296.952 222.149L305.586 217.165L303.773 214.025Z" fill="black"/>
<path d="M237.414 182.767C237.26 182.501 237.008 182.306 236.712 182.224C236.416 182.142 236.1 182.18 235.831 182.329L229.421 186.03C229.225 186.145 229.07 186.32 228.979 186.529C228.888 186.739 228.866 186.971 228.916 187.194L229.824 191.335L239.226 185.907L237.414 182.767Z" fill="black"/>
<path d="M183.275 308.47C185.216 307.325 187.233 306.314 189.311 305.443C191.347 304.606 193.459 303.964 195.616 303.525C193.747 299.721 186.607 287.317 186.232 286.705C184.212 283.206 176.818 279.386 175.408 278.87C173.794 278.333 172.149 277.892 170.482 277.55C170.366 278.258 170.145 278.944 169.826 279.586C168.894 281.355 167.447 282.799 165.676 283.726C164.891 284.176 164.071 284.562 163.224 284.88C164.777 285.453 166.274 286.164 167.7 287.005C170.276 288.795 172.586 290.94 174.562 293.378C175.449 294.915 176.289 296.37 177.092 297.76L180.226 303.188C181.441 305.103 182.378 306.917 183.275 308.47Z" fill="black"/>
<path d="M439.765 113.336L438.821 111.701C438.524 111.183 438.126 110.729 437.651 110.367C437.176 110.004 436.633 109.741 436.055 109.592L433.201 108.841C432.059 108.558 430.852 108.724 429.829 109.306L402.571 125.043L401.285 129.84L408.064 131.726L439.765 113.336Z" fill="black"/>
<path d="M402.095 132.339L398.334 134.51L396.616 131.534L392.071 134.158L393.789 137.134L390.584 138.985L388.866 136.009L384.32 138.633L386.038 141.609L382.833 143.46L381.115 140.484L376.569 143.108L378.288 146.084L375.099 147.925L373.381 144.949L368.835 147.573L370.553 150.549L367.349 152.4L365.63 149.424L361.085 152.048L362.803 155.024L359.598 156.875L357.88 153.899L353.334 156.523L355.052 159.499L351.864 161.34L350.146 158.364L345.6 160.988L347.318 163.964L344.113 165.815L342.395 162.839L337.849 165.463L339.567 168.439L336.363 170.289L334.644 167.314L330.099 169.938L331.817 172.914L328.628 174.755L326.91 171.779L322.365 174.403L324.083 177.379L320.878 179.23L319.16 176.254L314.614 178.878L316.332 181.854L313.127 183.704L311.409 180.728L306.863 183.353L308.582 186.329L305.393 188.17L303.675 185.194L266.917 206.416L268.333 208.869L269.721 211.272L405.312 133.228L402.095 132.339Z" fill="black"/>
<path d="M195.711 231.829C194.28 231.644 192.831 232.012 191.662 232.859L191.188 233.133L183.277 219.43L173.335 225.17L182.502 241.047C182.785 241.537 183.251 241.895 183.797 242.041C184.344 242.188 184.926 242.111 185.416 241.828L199.102 233.926C198.264 232.839 197.058 232.094 195.711 231.829Z" fill="black"/>
<path d="M245.532 196.83L250.313 198.125C251.132 197.596 252.013 197.168 252.935 196.851L245.468 183.917L242.459 185.654L241.369 189.619L245.532 196.83Z" fill="black"/>
<path d="M207.223 239.833L222.217 231.176L216.666 221.561L201.653 230.186L207.223 239.833Z" fill="black"/>
<path d="M219.766 223.457L223.721 230.308L253.579 213.07L242.772 210.174L219.766 223.457Z" fill="black"/>
<path d="M416.802 142.706L413.221 144.773L415.695 149.058L419.276 146.99L416.802 142.706Z" fill="black"/>
<path d="M421.576 139.95L417.995 142.018L420.469 146.302L424.05 144.234L421.576 139.95Z" fill="black"/>
<path d="M426.351 137.194L422.77 139.262L425.243 143.546L428.824 141.478L426.351 137.194Z" fill="black"/>
<path d="M412.043 145.454L408.462 147.521L410.936 151.806L414.517 149.738L412.043 145.454Z" fill="black"/>
<path d="M431.126 134.436L427.545 136.504L430.018 140.788L433.599 138.721L431.126 134.436Z" fill="black"/>
<path d="M407.269 148.21L403.688 150.277L406.161 154.561L409.742 152.494L407.269 148.21Z" fill="black"/>
<path d="M446.126 123.487L450.563 131.172L456.711 127.623L452.237 119.872L446.126 123.487Z" fill="black"/>
<path d="M435.9 131.681L432.319 133.748L434.793 138.032L438.374 135.965L435.9 131.681Z" fill="black"/>
<path d="M440.675 128.923L437.094 130.99L439.568 135.274L443.148 133.207L440.675 128.923Z" fill="black"/>
<path d="M445.45 126.167L441.869 128.234L444.342 132.518L447.923 130.451L445.45 126.167Z" fill="black"/>
<path d="M167.821 278.607C168.263 277.462 168.425 276.227 168.293 275.006C168.161 273.785 167.738 272.614 167.062 271.589L166.524 270.657L167.456 270.119L169.972 268.776L166.611 262.954L161.64 265.824C161.64 265.824 157.931 276.316 158.544 277.794C159.42 279.617 160.433 281.372 161.574 283.042C164.14 282.402 166.371 280.819 167.821 278.607Z" fill="black"/>
<path d="M54.3426 355.112L49.1919 358.085C48.7233 358.36 48.3332 358.75 48.0588 359.219L45.3086 364.84C45.1685 365.107 45.077 365.396 45.0384 365.694C44.7248 368.36 47.5363 371.795 48.7853 373.015L52.5662 376.391L77.7628 420.033C78.1334 420.675 78.7437 421.143 79.4596 421.335C80.1755 421.527 80.9382 421.426 81.58 421.056L90.5079 415.901L93.1797 413.203L84.3696 406.931L54.3426 355.112Z" fill="black"/>
<path d="M266.209 208.024L205.902 242.646L205.422 244.231L180.904 257.841L167.445 262.473L170.806 268.294L268.456 211.915L266.209 208.024Z" fill="black"/>
<path d="M257.402 264.78L259.625 263.496C260.924 255.399 265.603 252.589 265.848 252.447L301.821 231.678L298.706 226.282L313.209 217.909L312.105 215.996L260.107 246.016L257.402 264.78Z" fill="black"/>
<path d="M235.588 300.897C237.669 303.708 252.945 295.237 255.099 291.377C257.253 287.517 253.637 279.14 249.175 275.982L252.789 273.896L251.109 270.985L226.582 285.146C226.582 285.146 235.296 300.39 235.588 300.897ZM233.529 288.155C234.857 290.881 237.153 293.015 239.971 294.138C243.987 295.656 247.138 291.787 245.763 292.276C244.388 292.764 242.273 293.179 239.521 289.47C238.796 288.583 238.311 287.525 238.11 286.397C237.909 285.269 237.999 284.108 238.373 283.025C238.592 282.043 239.101 281.149 239.835 280.459C241.95 278.497 246.918 275.018 250.957 280.578C254.569 285.513 254.195 289.283 253.07 290.695C251.307 292.891 243.457 296.703 240.153 298.306C239.77 298.546 239.339 298.7 238.89 298.759C238.442 298.818 237.986 298.78 237.553 298.647C237.121 298.514 236.722 298.29 236.384 297.989C236.046 297.688 235.776 297.318 235.594 296.904L231.172 289.472L233.529 288.155Z" fill="black"/>
<path d="M318.818 193.675L316.643 194.93L307.666 200.113L314.539 212.017L325.691 205.579L324.312 203.191L338.002 195.484L332.422 185.82L318.818 193.675Z" fill="black"/>
<path d="M341.156 196.454L344.73 199.208C345.124 199.29 345.535 199.217 345.877 199.004L349.441 196.946C349.625 196.839 349.781 196.692 349.898 196.514C350.015 196.337 350.09 196.135 350.116 195.925C350.019 194.497 349.792 193.08 349.439 191.693L342.642 179.92L334.368 184.697L341.156 196.454Z" fill="black"/>
<path d="M273.082 281.518L280.795 294.877C280.995 295.193 281.311 295.419 281.674 295.506C282.038 295.593 282.422 295.535 282.743 295.343L318.717 274.574C319.246 274.269 319.632 273.766 319.79 273.176C319.948 272.586 319.865 271.957 319.56 271.428L315.869 265.034L280.484 285.464C280.209 285.621 279.895 285.696 279.578 285.683C279.261 285.669 278.955 285.565 278.694 285.385L273.082 281.518Z" fill="black"/>
<path d="M375.983 160.67L344.572 178.805L350.104 188.387L398.46 160.141L393.07 150.804L381.526 157.469L375.983 160.67Z" fill="black"/>
<path d="M159.232 317.577C158.877 317.782 158.592 318.088 158.412 318.455C158.232 318.823 158.167 319.236 158.223 319.642C158.279 320.048 158.455 320.427 158.728 320.732C159.002 321.037 159.36 321.253 159.756 321.354C160.153 321.454 160.571 321.434 160.957 321.296C161.342 321.157 161.677 320.907 161.92 320.577C162.162 320.248 162.301 319.853 162.318 319.444C162.335 319.035 162.229 318.63 162.015 318.281C161.734 317.824 161.286 317.495 160.766 317.364C160.246 317.232 159.696 317.309 159.232 317.577Z" fill="black"/>
<path d="M195.351 350.683C195.641 350.52 195.877 350.274 196.027 349.977C196.177 349.679 196.236 349.344 196.195 349.013C196.154 348.683 196.016 348.372 195.798 348.119C195.58 347.867 195.293 347.686 194.971 347.598C194.65 347.51 194.31 347.519 193.994 347.625C193.678 347.731 193.401 347.928 193.197 348.192C192.993 348.455 192.873 348.774 192.851 349.106C192.828 349.439 192.905 349.77 193.072 350.059C193.18 350.25 193.324 350.419 193.497 350.554C193.671 350.689 193.869 350.789 194.081 350.847C194.293 350.905 194.514 350.92 194.732 350.892C194.95 350.864 195.161 350.793 195.351 350.683Z" fill="black"/>
<path d="M186.807 348.007C186.649 348.58 186.642 349.185 186.788 349.762C186.934 350.339 187.227 350.868 187.639 351.298L193.05 356.895C193.646 357.469 194.442 357.791 195.27 357.793L225.403 357.837C226.013 357.839 226.616 357.702 227.165 357.438C227.715 357.173 228.198 356.788 228.577 356.31L229.914 354.623L235.112 355.393C235.553 355.457 236.003 355.347 236.364 355.085C236.726 354.823 236.972 354.431 237.049 353.991L238.258 347.363C238.283 347.283 238.291 347.2 238.282 347.117C238.273 347.034 238.246 346.954 238.205 346.882C238.163 346.81 238.107 346.747 238.04 346.697C237.973 346.648 237.896 346.613 237.815 346.595L189.014 341.936C188.875 341.915 188.733 341.942 188.612 342.013C188.49 342.083 188.395 342.192 188.344 342.323L186.807 348.007ZM196.767 347.925C197.024 348.371 197.144 348.884 197.11 349.398C197.077 349.912 196.891 350.405 196.577 350.814C196.264 351.223 195.836 351.529 195.348 351.695C194.86 351.861 194.334 351.878 193.836 351.744C193.338 351.611 192.891 351.333 192.551 350.946C192.212 350.558 191.994 350.079 191.927 349.568C191.86 349.057 191.946 348.537 192.173 348.075C192.401 347.613 192.761 347.229 193.208 346.971C193.806 346.626 194.517 346.532 195.185 346.711C195.852 346.89 196.421 347.326 196.767 347.925Z" fill="black"/>
<path d="M107.299 343.33C107.017 343.54 106.821 343.846 106.749 344.191C106.678 344.536 106.736 344.895 106.912 345.2C107.088 345.505 107.37 345.734 107.704 345.845C108.039 345.955 108.402 345.939 108.725 345.799C108.911 345.719 109.077 345.6 109.214 345.45C109.35 345.301 109.454 345.125 109.517 344.933C109.58 344.74 109.603 344.537 109.582 344.336C109.561 344.135 109.498 343.94 109.397 343.765C109.296 343.59 109.159 343.438 108.995 343.319C108.831 343.201 108.644 343.118 108.446 343.077C108.248 343.036 108.043 343.037 107.846 343.081C107.648 343.124 107.462 343.209 107.299 343.33Z" fill="black"/>
<path d="M113.141 327.205L108.019 326.717L76.3793 344.984L70.6938 345.673L56.3209 353.971L68.1593 374.475L115.366 347.221L113.141 327.205ZM109.386 346.945C108.897 347.227 108.336 347.358 107.774 347.321C107.211 347.284 106.672 347.081 106.225 346.738C105.777 346.395 105.442 345.927 105.26 345.393C105.079 344.859 105.06 344.283 105.206 343.738C105.352 343.194 105.656 342.704 106.08 342.333C106.504 341.961 107.029 341.723 107.588 341.65C108.147 341.576 108.715 341.67 109.221 341.919C109.727 342.169 110.147 342.562 110.429 343.051C110.807 343.705 110.91 344.484 110.714 345.214C110.518 345.944 110.041 346.567 109.386 346.945Z" fill="black"/>
<path d="M258.812 203.858C258.553 203.414 258.175 203.052 257.721 202.812C257.268 202.572 256.756 202.463 256.243 202.498C255.731 202.533 255.238 202.711 254.822 203.011C254.405 203.311 254.08 203.721 253.884 204.196L259.124 205.531C259.202 204.954 259.093 204.368 258.812 203.858Z" fill="black"/>
<path d="M257.803 207.622C258.261 207.355 258.632 206.959 258.868 206.484L253.71 205.102C253.67 205.627 253.784 206.152 254.037 206.613C254.406 207.243 255.008 207.701 255.713 207.89C256.418 208.079 257.168 207.983 257.803 207.622Z" fill="black"/>
<path d="M199.831 233.528L201.466 232.584L199.795 229.689L217.593 219.545L219.208 222.341L243.073 208.431L256.958 212.165L265.723 207.105L261.56 199.894C260.968 198.878 260 198.137 258.864 197.831C258.055 197.602 257.209 197.535 256.374 197.634C254.775 197.854 253.255 198.462 251.946 199.406L251.488 199.67L244.808 197.88L239.767 189.148L240.506 186.389L184.127 218.939L191.556 231.808C192.844 230.974 194.394 230.646 195.908 230.887C197.507 231.231 198.911 232.176 199.831 233.528ZM252.756 204.585C252.855 204.052 253.068 203.546 253.38 203.103C253.692 202.659 254.096 202.288 254.564 202.015C255.211 201.641 255.954 201.468 256.699 201.517C257.445 201.566 258.159 201.834 258.751 202.289C259.344 202.744 259.788 203.364 260.028 204.071C260.268 204.778 260.293 205.541 260.1 206.262C259.907 206.984 259.504 207.631 258.942 208.124C258.381 208.616 257.686 208.931 256.945 209.029C256.205 209.126 255.452 209.002 254.782 208.672C254.112 208.341 253.556 207.82 253.182 207.173C252.735 206.389 252.584 205.471 252.756 204.585Z" fill="black"/>
<path d="M305.152 269.128L289.414 241.87L267.16 254.719C265.444 256.066 264.229 257.95 263.708 260.069C263.372 261.126 263.26 262.241 263.379 263.344C263.497 264.446 263.844 265.512 264.397 266.473L271.874 279.424L278.2 283.62C278.461 283.792 278.766 283.887 279.079 283.895C279.391 283.904 279.7 283.824 279.97 283.666L305.152 269.128Z" fill="black"/>
<path d="M305.97 268.656L314.963 263.464L299.226 236.206L290.249 241.389L305.97 268.656Z" fill="black"/>
<path d="M247.59 258.169C246.791 258.541 246.103 259.115 245.593 259.833C245.083 260.552 244.769 261.391 244.681 262.268L235.522 260.187L188.565 286.251C192.965 293.457 196.118 299.332 198.17 303.227C199.995 303.037 201.837 303.335 203.509 304.091C206.862 306.123 213.371 309.843 202.457 331.951L201.378 341.033L229.695 343.782C229.148 343.401 230.214 322.968 230.214 322.968L232.67 320.198C233.013 319.81 233.233 319.329 233.302 318.815C233.37 318.302 233.284 317.78 233.055 317.315L230.938 313.196C230.938 313.196 232.004 305.299 233.799 301.952L223.603 284.292L252.922 267.365C253.53 267.086 254.072 266.68 254.51 266.174C254.949 265.668 255.273 265.073 255.463 264.431C255.652 263.789 255.701 263.113 255.607 262.45C255.513 261.788 255.277 261.152 254.917 260.588C254.597 259.947 254.153 259.375 253.61 258.905C253.068 258.436 252.438 258.079 251.757 257.854C251.076 257.629 250.357 257.541 249.642 257.595C248.927 257.649 248.23 257.844 247.59 258.169Z" fill="black"/>
<path d="M388.789 145.167L388.511 145.327L388.772 148.535C388.781 148.703 388.745 148.871 388.666 149.021C388.587 149.17 388.468 149.295 388.323 149.382C388.17 149.466 387.997 149.505 387.823 149.497C387.544 149.456 387.288 149.317 387.102 149.105C386.915 148.893 386.811 148.622 386.806 148.34L386.68 146.385L383.606 148.159L383.866 151.367C383.876 151.535 383.839 151.704 383.76 151.853C383.681 152.002 383.563 152.127 383.418 152.214C383.265 152.298 383.092 152.338 382.917 152.329C382.638 152.288 382.383 152.149 382.196 151.937C382.01 151.725 381.905 151.454 381.901 151.172L381.775 149.217L378.701 150.992L378.961 154.199C378.971 154.368 378.934 154.536 378.855 154.685C378.776 154.835 378.658 154.959 378.513 155.046C378.36 155.13 378.186 155.17 378.012 155.161C377.733 155.12 377.477 154.981 377.291 154.769C377.105 154.557 377 154.286 376.995 154.004L376.886 152.039L373.795 153.824L374.055 157.031C374.065 157.2 374.029 157.368 373.95 157.517C373.871 157.667 373.752 157.792 373.607 157.878C373.454 157.962 373.281 158.002 373.107 157.993C372.827 157.952 372.572 157.813 372.386 157.601C372.199 157.389 372.094 157.118 372.09 156.836L371.98 154.872L368.89 156.656L369.15 159.863C369.16 160.032 369.123 160.2 369.044 160.349C368.965 160.499 368.847 160.624 368.702 160.711C368.549 160.794 368.375 160.834 368.201 160.825C367.922 160.784 367.666 160.645 367.48 160.433C367.294 160.222 367.189 159.95 367.184 159.668L367.075 157.704L363.984 159.488L364.245 162.695C364.254 162.864 364.218 163.032 364.139 163.182C364.06 163.331 363.941 163.456 363.796 163.543C363.643 163.626 363.47 163.666 363.296 163.657C363.016 163.616 362.761 163.478 362.575 163.266C362.388 163.054 362.284 162.782 362.279 162.5L362.169 160.536L359.079 162.32L359.339 165.527C359.349 165.696 359.312 165.864 359.233 166.014C359.154 166.163 359.036 166.288 358.891 166.375C358.738 166.459 358.565 166.498 358.39 166.489C358.111 166.449 357.856 166.31 357.669 166.098C357.483 165.886 357.378 165.615 357.373 165.332L357.264 163.368L354.174 165.152L354.434 168.36C354.444 168.528 354.407 168.696 354.328 168.846C354.249 168.995 354.13 169.12 353.985 169.207C353.832 169.291 353.659 169.33 353.485 169.322C353.206 169.281 352.95 169.142 352.764 168.93C352.578 168.718 352.473 168.447 352.468 168.165L352.359 166.2L349.268 167.984L349.528 171.192C349.538 171.36 349.502 171.529 349.422 171.678C349.343 171.827 349.225 171.952 349.08 172.039C348.927 172.123 348.754 172.163 348.579 172.154C348.3 172.113 348.045 171.974 347.858 171.762C347.672 171.55 347.567 171.279 347.563 170.997L347.453 169.032L344.363 170.817L344.623 174.024C344.633 174.193 344.596 174.361 344.517 174.51C344.438 174.66 344.32 174.784 344.175 174.871C344.022 174.955 343.848 174.995 343.674 174.986C343.395 174.945 343.139 174.806 342.953 174.594C342.767 174.382 342.662 174.111 342.657 173.829L342.564 171.855L339.457 173.649L339.717 176.856C339.727 177.025 339.691 177.193 339.612 177.342C339.533 177.492 339.414 177.617 339.269 177.703C339.116 177.787 338.943 177.827 338.769 177.818C338.489 177.777 338.234 177.638 338.048 177.426C337.861 177.214 337.756 176.943 337.752 176.661L337.659 174.687L334.552 176.481L334.812 179.688C334.822 179.857 334.785 180.025 334.706 180.174C334.627 180.324 334.509 180.449 334.364 180.536C334.211 180.619 334.037 180.659 333.863 180.65C333.584 180.609 333.328 180.47 333.142 180.259C332.956 180.047 332.851 179.775 332.846 179.493L332.753 177.519L329.646 179.313L329.907 182.52C329.916 182.689 329.88 182.857 329.801 183.007C329.722 183.156 329.603 183.281 329.458 183.368C329.305 183.451 329.132 183.491 328.958 183.482C328.679 183.441 328.423 183.303 328.237 183.091C328.05 182.879 327.946 182.607 327.941 182.325L327.848 180.351L324.741 182.145L325.001 185.352C325.011 185.521 324.974 185.689 324.895 185.839C324.816 185.988 324.698 186.113 324.553 186.2C324.4 186.284 324.227 186.323 324.052 186.315C323.773 186.274 323.518 186.135 323.331 185.923C323.145 185.711 323.04 185.44 323.035 185.157L322.942 183.184L319.836 184.977L320.096 188.185C320.106 188.353 320.069 188.522 319.99 188.671C319.911 188.82 319.793 188.945 319.648 189.032C319.494 189.116 319.321 189.155 319.147 189.147C318.868 189.106 318.612 188.967 318.426 188.755C318.24 188.543 318.135 188.272 318.13 187.99L318.053 186.006L314.93 187.809L315.19 191.017C315.2 191.185 315.164 191.354 315.085 191.503C315.006 191.652 314.887 191.777 314.742 191.864C314.589 191.948 314.416 191.988 314.241 191.979C313.962 191.938 313.707 191.799 313.52 191.587C313.334 191.375 313.229 191.104 313.225 190.822L313.148 188.838L304.155 194.031L306.543 198.168L393.892 147.737L404.663 166.656L417.744 159.103L416.697 157.026L442.238 142.28L443.285 144.357L449.564 140.732C450.646 140.201 451.482 139.275 451.901 138.145C452.319 137.014 452.288 135.767 451.813 134.659L450.123 131.732L405.206 157.665L400.486 149.489L445.599 123.443L440.784 115.104L388.771 145.134L388.789 145.167Z" fill="black"/>
<path d="M163.689 299.393C164.674 298.825 165.011 297.566 164.443 296.582C163.874 295.597 162.616 295.26 161.631 295.828C160.647 296.397 160.31 297.655 160.878 298.64C161.446 299.624 162.705 299.961 163.689 299.393Z" fill="black"/>
<path d="M172.66 294.541C169.697 289.712 164.141 287.338 160.377 286.219C157.028 294.541 145.932 315.162 115.379 327.003L117.739 348.423L69.273 376.405L85.7844 405.003L94.3995 411.127L124.869 380.258C124.869 380.258 117.679 360.252 154.52 328.866L160.651 328.836L181.291 309.529C179.235 305.702 176.38 300.569 172.66 294.541ZM161.997 322.369C161.404 322.711 160.723 322.87 160.04 322.827C159.357 322.784 158.702 322.539 158.157 322.125C157.612 321.71 157.202 321.143 156.978 320.496C156.754 319.849 156.726 319.151 156.898 318.488C157.07 317.825 157.433 317.228 157.944 316.771C158.454 316.315 159.087 316.019 159.765 315.921C160.443 315.824 161.134 315.928 161.753 316.223C162.371 316.517 162.889 316.987 163.241 317.574C163.475 317.97 163.629 318.409 163.693 318.865C163.758 319.32 163.731 319.784 163.616 320.23C163.5 320.676 163.298 321.094 163.02 321.461C162.742 321.828 162.395 322.137 161.997 322.369ZM164.404 300.595C163.809 300.938 163.125 301.098 162.44 301.053C161.754 301.008 161.097 300.76 160.552 300.342C160.007 299.924 159.598 299.353 159.377 298.703C159.156 298.052 159.133 297.351 159.311 296.687C159.489 296.023 159.86 295.427 160.376 294.974C160.893 294.521 161.532 294.231 162.213 294.142C162.895 294.052 163.587 294.166 164.203 294.47C164.82 294.774 165.332 295.254 165.675 295.849C166.136 296.647 166.261 297.595 166.022 298.485C165.784 299.375 165.202 300.134 164.404 300.595Z" fill="black"/>
</svg>
