<svg width="512" height="160" viewBox="0 0 512 160" fill="none" xmlns="http://www.w3.org/2000/svg">
<path d="M318.896 49.3887H301.771V55.846L295.371 62.2466H234.083L230.307 65.5886H182.047C182.45 66.7774 182.728 68.005 182.878 69.2515L237.633 70.1955L244.128 76.2374C245.147 75.4067 250.321 74.3493 252.549 76.6717C253.258 77.332 253.826 78.1292 254.218 79.0151C254.611 79.901 254.82 80.8573 254.833 81.8262L262.291 72.3857H245.185L237.633 64.2858H318.972L318.896 49.3887Z" fill="black"/>
<path d="M326.977 56.9609H321.124V62.6252H326.977V56.9609Z" fill="black"/>
<path d="M176.93 56.9424C178.948 54.7354 180.417 52.083 181.216 49.2012H173.871C173.741 50.5053 173.404 51.7801 172.871 52.9774C174.331 54.1849 175.688 55.511 176.93 56.9424Z" fill="black"/>
<path d="M326.977 64.5137H321.124V70.178H326.977V64.5137Z" fill="black"/>
<path d="M326.977 49.4082H321.124V55.0725H326.977V49.4082Z" fill="black"/>
<path d="M209.934 5.86851C209.86 5.65086 209.72 5.46143 209.534 5.32622C209.349 5.191 209.125 5.11663 208.895 5.11328H201.513C201.36 5.11326 201.209 5.14366 201.068 5.20272C200.927 5.26178 200.799 5.3483 200.692 5.45726C200.585 5.56622 200.5 5.69543 200.443 5.83735C200.387 5.97927 200.359 6.13106 200.361 6.28389V9.90906H211.199L209.934 5.86851Z" fill="black"/>
<path d="M235.782 7.26573C235.782 6.66482 235.543 6.08852 235.118 5.66361C234.694 5.23871 234.117 5 233.516 5H226.379C225.778 5 225.202 5.23871 224.777 5.66361C224.352 6.08852 224.114 6.66482 224.114 7.26573V9.90907H235.782V7.26573Z" fill="black"/>
<path d="M264.009 70.1772H264.538H306.699V66.5332H242.692L246.11 70.1772H264.009Z" fill="black"/>
<path d="M229.419 63.2844L233.195 59.9236H294.389L299.467 54.8446V49.2936L183.444 49.1426C182.519 52.6697 180.735 55.913 178.252 58.5831C179.328 60.0369 181.235 63.2655 181.235 63.2655L229.419 63.2844Z" fill="black"/>
<path d="M318.896 66.5332H308.927V70.1584H318.896V66.5332Z" fill="black"/>
<path d="M277.056 6.28389C277.056 5.97667 276.935 5.68175 276.72 5.46275C276.504 5.24375 276.211 5.11824 275.904 5.11328H268.503C268.275 5.11491 268.053 5.18892 267.87 5.32466C267.687 5.4604 267.551 5.65084 267.483 5.86851L266.199 9.90906H277.056V6.28389Z" fill="black"/>
<path d="M167.32 88.0763C169.573 88.0556 171.825 88.1881 174.06 88.4727C176.242 88.7659 178.392 89.2654 180.48 89.9644C180.763 85.735 180.782 71.4232 180.763 70.7057C180.763 66.6652 176.269 59.6604 175.306 58.5086C174.177 57.236 172.973 56.0317 171.7 54.9023C171.246 55.457 170.711 55.9407 170.114 56.3373C168.423 57.4037 166.447 57.9305 164.45 57.8478C163.545 57.8452 162.642 57.7695 161.75 57.6212C162.808 58.8935 163.749 60.2584 164.563 61.6995C165.9 64.5376 166.828 67.5507 167.32 70.6491C167.32 72.4239 167.32 74.1043 167.32 75.7092V81.9777C167.414 84.2434 167.32 86.2826 167.32 88.0763Z" fill="black"/>
<path d="M487.012 47.3317V45.4436C487.014 44.8462 486.897 44.2544 486.667 43.7032C486.436 43.1519 486.098 42.6523 485.672 42.2339L483.576 40.157C482.728 39.3404 481.6 38.8808 480.423 38.873H448.948L445.436 42.3849L450.364 47.4072L487.012 47.3317Z" fill="black"/>
<path d="M444.889 44.952H440.546V41.5156H435.297V44.952H431.597V41.5156H426.348V44.952H422.647V41.5156H417.398V44.952H413.716V41.5156H408.467V44.952H404.767V41.5156H399.518V44.952H395.817V41.5156H390.568V44.952H386.886V41.5156H381.638V44.952H377.937V41.5156H372.688V44.952H368.987V41.5156H363.738V44.952H360.057V41.5156H354.808V44.952H351.107V41.5156H345.858V44.952H342.157V41.5156H336.909V44.952H333.227V41.5156H290.782V44.3478V47.1233L447.23 47.331L444.889 44.952Z" fill="black"/>
<path d="M216.41 27.9219C215.263 27.0456 213.824 26.6404 212.388 26.7891H211.841V10.9668H200.361V29.3002C200.361 29.8661 200.586 30.4088 200.986 30.8089C201.386 31.209 201.929 31.4338 202.495 31.4338H218.298C218.115 30.073 217.444 28.825 216.41 27.9219Z" fill="black"/>
<path d="M277.056 22.5219L280.549 26.0338C281.523 25.9852 282.499 26.055 283.456 26.2415V11.3066H279.982L277.056 14.1954V22.5219Z" fill="black"/>
<path d="M222.377 40.6085H239.691V29.5065L222.377 29.4688V40.6085Z" fill="black"/>
<path d="M241.428 32.6992V40.6104H275.904L267.993 32.6992H241.428Z" fill="black"/>
<path d="M452.441 61.2852H448.307V66.232H452.441V61.2852Z" fill="black"/>
<path d="M457.954 61.2852H453.819V66.232H457.954V61.2852Z" fill="black"/>
<path d="M463.468 61.2852H459.333V66.232H463.468V61.2852Z" fill="black"/>
<path d="M446.946 61.2852H442.812V66.232H446.946V61.2852Z" fill="black"/>
<path d="M468.981 61.2852H464.846V66.232H468.981V61.2852Z" fill="black"/>
<path d="M441.433 61.2852H437.298V66.232H441.433V61.2852Z" fill="black"/>
<path d="M487.447 59.3021V68.1761H494.546V59.2266L487.447 59.3021Z" fill="black"/>
<path d="M474.494 61.2852H470.359V66.232H474.494V61.2852Z" fill="black"/>
<path d="M480.008 61.2852H475.873V66.232H480.008V61.2852Z" fill="black"/>
<path d="M485.521 61.2852H481.386V66.232H485.521V61.2852Z" fill="black"/>
<path d="M168.868 54.4869C169.823 53.7157 170.581 52.7273 171.076 51.604C171.572 50.4808 171.793 49.2553 171.719 48.0296V46.9534H172.795L175.646 47.0478V40.3262H169.906C169.906 40.3262 161.448 47.5576 161.24 49.1436C161.087 51.161 161.087 53.187 161.24 55.2044C163.782 55.9329 166.506 55.6767 168.868 54.4869Z" fill="black"/>
<path d="M32.3394 64.0039H26.3919C25.8488 64.0075 25.3156 64.1506 24.8436 64.4193L19.6514 67.9123C19.3969 68.0728 19.1731 68.2774 18.9905 68.5165C17.3857 70.6689 18.1031 75.0493 18.5752 76.7297L20.1612 81.5443V131.938C20.1612 132.679 20.4556 133.39 20.9796 133.914C21.5037 134.438 22.2144 134.732 22.9555 134.732H33.2646L36.9275 133.731L32.4338 123.894L32.3394 64.0039Z" fill="black"/>
<path d="M289.366 42.5541L219.827 42.3842L218.619 43.5171L190.581 43.045L176.609 40.3262V47.0478H289.366V42.5541Z" fill="black"/>
<path d="M253.36 87.3014H255.928C261.101 80.9385 266.558 80.8441 266.841 80.8441H308.379V74.6134H325.127V72.4043H265.085L253.36 87.3014Z" fill="black"/>
<path d="M216.41 107.674C216.807 111.148 234.272 111.45 238.067 109.184C241.862 106.919 242.919 97.8558 240.635 92.8901H244.807V89.5293H216.486C216.486 89.5293 216.41 107.089 216.41 107.674ZM220.998 95.609C220.784 98.634 221.707 101.63 223.585 104.011C226.304 107.334 230.968 105.559 229.533 105.295C228.098 105.031 226.059 104.332 225.53 99.7439C225.346 98.6131 225.454 97.4541 225.844 96.3768C226.234 95.2995 226.893 94.3398 227.758 93.5887C228.439 92.8473 229.327 92.3276 230.307 92.0971C233.12 91.4552 239.162 90.9265 239.879 97.7614C240.54 103.841 238.331 106.919 236.651 107.58C234.026 108.599 225.322 107.976 221.659 107.712C221.207 107.728 220.757 107.647 220.339 107.473C219.921 107.3 219.545 107.039 219.237 106.708C218.929 106.376 218.696 105.982 218.553 105.553C218.411 105.124 218.363 104.668 218.412 104.219L218.298 95.5712L220.998 95.609Z" fill="black"/>
<path d="M342.101 56.4316H339.59H329.224V70.177H342.101V67.4204L357.81 67.5903V56.4316H342.101Z" fill="black"/>
<path d="M360.057 70.0071L361.775 74.1797C362.075 74.4477 362.467 74.5897 362.87 74.5763H366.986C367.198 74.5755 367.408 74.5257 367.598 74.4308C367.788 74.3358 367.953 74.1982 368.081 74.0287C368.711 72.7435 369.223 71.4038 369.61 70.0259V56.4316H360.057V70.0071Z" fill="black"/>
<path d="M258.571 109.639V125.064C258.586 125.438 258.746 125.792 259.018 126.049C259.289 126.307 259.651 126.448 260.025 126.443H301.563C302.174 126.443 302.76 126.2 303.192 125.768C303.624 125.336 303.867 124.75 303.867 124.139V116.757H263.008C262.691 116.755 262.381 116.664 262.114 116.493C261.847 116.323 261.633 116.08 261.498 115.794L258.571 109.639Z" fill="black"/>
<path d="M408.109 56.4316H371.839V67.4959L427.84 67.2127V56.4316H414.51H408.109Z" fill="black"/>
<path d="M141.944 83.9414C141.534 83.9416 141.134 84.0638 140.795 84.2926C140.455 84.5213 140.192 84.8461 140.038 85.2255C139.884 85.6049 139.846 86.0215 139.93 86.4222C140.014 86.8229 140.216 87.1894 140.51 87.4749C140.803 87.7603 141.175 87.9517 141.578 88.0246C141.981 88.0975 142.396 88.0486 142.771 87.8841C143.146 87.7196 143.464 87.447 143.683 87.1012C143.902 86.7554 144.013 86.3521 144.002 85.9428C143.987 85.4068 143.764 84.8978 143.379 84.524C142.995 84.1502 142.48 83.9412 141.944 83.9414Z" fill="black"/>
<path d="M156.671 130.671C157.004 130.675 157.331 130.58 157.609 130.397C157.888 130.215 158.107 129.954 158.237 129.647C158.367 129.34 158.403 129.002 158.34 128.675C158.277 128.348 158.119 128.046 157.885 127.809C157.65 127.573 157.351 127.411 157.024 127.344C156.698 127.278 156.359 127.31 156.051 127.437C155.743 127.563 155.479 127.779 155.294 128.055C155.108 128.332 155.009 128.658 155.009 128.991C155.007 129.211 155.048 129.429 155.13 129.632C155.213 129.836 155.335 130.022 155.489 130.178C155.644 130.334 155.828 130.458 156.031 130.543C156.233 130.628 156.451 130.671 156.671 130.671Z" fill="black"/>
<path d="M150.61 124.082C150.186 124.499 149.878 125.02 149.716 125.593C149.553 126.165 149.543 126.77 149.685 127.348L151.573 134.9C151.802 135.696 152.329 136.373 153.045 136.788L179.12 151.893C179.647 152.2 180.237 152.382 180.846 152.428C181.454 152.474 182.065 152.381 182.632 152.158L184.633 151.365L188.749 154.631C189.1 154.907 189.545 155.036 189.989 154.99C190.433 154.944 190.841 154.728 191.128 154.386L195.49 149.25C195.551 149.193 195.6 149.125 195.633 149.048C195.667 148.972 195.684 148.89 195.684 148.806C195.684 148.723 195.667 148.64 195.633 148.564C195.6 148.488 195.551 148.419 195.49 148.363L155.557 119.928C155.446 119.84 155.31 119.793 155.17 119.793C155.029 119.793 154.893 119.84 154.782 119.928L150.61 124.082ZM159.276 128.991C159.276 129.506 159.123 130.01 158.837 130.438C158.551 130.867 158.144 131.201 157.668 131.398C157.192 131.595 156.668 131.647 156.162 131.546C155.657 131.446 155.193 131.197 154.828 130.833C154.464 130.469 154.216 130.004 154.115 129.499C154.014 128.994 154.066 128.47 154.263 127.994C154.461 127.517 154.794 127.11 155.223 126.824C155.651 126.538 156.155 126.385 156.671 126.385C157.362 126.385 158.024 126.66 158.513 127.148C159.002 127.637 159.276 128.3 159.276 128.991Z" fill="black"/>
<path d="M84.0923 80.279C83.7425 80.3193 83.4197 80.4868 83.1854 80.7497C82.9511 81.0125 82.8217 81.3524 82.8217 81.7045C82.8217 82.0566 82.9511 82.3964 83.1854 82.6593C83.4197 82.9221 83.7425 83.0897 84.0923 83.13C84.2933 83.1532 84.4969 83.1336 84.6897 83.0725C84.8826 83.0115 85.0604 82.9103 85.2114 82.7757C85.3624 82.6411 85.4833 82.476 85.566 82.2914C85.6488 82.1068 85.6916 81.9068 85.6916 81.7045C85.6916 81.5022 85.6488 81.3022 85.566 81.1175C85.4833 80.9329 85.3624 80.7679 85.2114 80.6333C85.0604 80.4987 84.8826 80.3975 84.6897 80.3365C84.4969 80.2754 84.2933 80.2558 84.0923 80.279Z" fill="black"/>
<path d="M97.2141 69.2339L93.0225 66.2507H56.4878L51.22 64.0039H34.6237V87.6807H89.1331L97.2141 69.2339ZM84.0918 84.452C83.5279 84.452 82.9767 84.2848 82.5079 83.9715C82.039 83.6583 81.6736 83.213 81.4578 82.692C81.242 82.1711 81.1856 81.5978 81.2956 81.0448C81.4056 80.4917 81.6771 79.9837 82.0758 79.585C82.4746 79.1863 82.9826 78.9147 83.5356 78.8047C84.0887 78.6947 84.6619 78.7512 85.1829 78.967C85.7038 79.1828 86.1491 79.5482 86.4624 80.017C86.7756 80.4859 86.9429 81.0371 86.9429 81.601C86.9429 82.3571 86.6425 83.0823 86.1078 83.617C85.5731 84.1516 84.848 84.452 84.0918 84.452Z" fill="black"/>
<path d="M285.043 35.2467C285.04 34.7331 284.894 34.2304 284.621 33.7954C284.348 33.3604 283.959 33.0102 283.498 32.7845C283.037 32.5587 282.521 32.4664 282.01 32.5177C281.499 32.5691 281.013 32.7623 280.606 33.0753L284.476 36.8515C284.832 36.391 285.031 35.8284 285.043 35.2467Z" fill="black"/>
<path d="M282.286 38.0047C282.816 38.0025 283.335 37.845 283.777 37.5516L280.001 33.7754C279.704 34.2103 279.541 34.7219 279.529 35.2481C279.534 35.9777 279.826 36.676 280.342 37.1919C280.858 37.7078 281.556 37.9998 282.286 38.0047Z" fill="black"/>
<path d="M219.129 31.4527H221.017V28.1107L241.503 28.224V31.4527L269.125 31.3394L279.283 41.5162H289.404V33.1897C289.4 32.014 288.932 30.8874 288.101 30.0555C287.515 29.4521 286.816 28.9708 286.043 28.6394C284.549 28.0306 282.928 27.7972 281.323 27.9597H280.794L275.904 23.0695V12.9871L277.924 10.9668H212.822V25.8261C214.354 25.7478 215.86 26.2387 217.052 27.2044C218.264 28.3011 219.008 29.8224 219.129 31.4527ZM279.435 32.8499C279.787 32.4378 280.224 32.1064 280.716 31.8784C281.208 31.6503 281.743 31.5309 282.286 31.5282C283.032 31.5282 283.763 31.7497 284.383 32.1646C285.004 32.5795 285.488 33.1693 285.774 33.8593C286.06 34.5493 286.135 35.3086 285.989 36.0411C285.843 36.7736 285.484 37.4465 284.956 37.9746C284.428 38.5027 283.755 38.8623 283.022 39.008C282.29 39.1537 281.53 39.0789 280.84 38.7931C280.15 38.5073 279.561 38.0233 279.146 37.4023C278.731 36.7813 278.509 36.0512 278.509 35.3044C278.515 34.4019 278.843 33.5312 279.435 32.8499Z" fill="black"/>
<path d="M292.538 114.943V83.4688H266.841C264.681 83.7777 262.687 84.8014 261.177 86.3764C260.357 87.1236 259.702 88.0333 259.254 89.0475C258.805 90.0618 258.573 91.1583 258.571 92.2673V107.221L261.951 114.018C262.092 114.298 262.308 114.532 262.574 114.696C262.841 114.859 263.149 114.945 263.461 114.943H292.538Z" fill="black"/>
<path d="M293.483 114.943H303.867V83.4688H293.502L293.483 114.943Z" fill="black"/>
<path d="M248.168 76.6727C247.29 76.5956 246.407 76.7483 245.606 77.1157C244.805 77.4832 244.113 78.0528 243.599 78.7685L236.707 72.3868L183.01 71.4805C183.217 79.9203 183.01 86.5853 182.84 90.9845C184.515 91.7319 185.962 92.9114 187.031 94.402C188.92 97.8383 192.696 104.314 172.191 118.003L166.716 125.329L189.864 141.869C189.58 141.265 200.72 124.102 200.72 124.102L204.232 122.931C204.723 122.767 205.155 122.46 205.471 122.05C205.787 121.64 205.973 121.145 206.007 120.628L206.233 116.002C206.233 116.002 211.105 109.696 214.333 107.694V87.3027H248.187C248.854 87.3655 249.526 87.2846 250.159 87.0654C250.791 86.8462 251.37 86.4939 251.855 86.0322C252.34 85.5706 252.72 85.0102 252.97 84.3891C253.22 83.7679 253.334 83.1004 253.304 82.4314C253.347 81.7156 253.248 80.9982 253.013 80.3206C252.778 79.643 252.412 79.0187 251.934 78.4834C251.457 77.9481 250.878 77.5126 250.232 77.2018C249.586 76.8911 248.884 76.7113 248.168 76.6727Z" fill="black"/>
<path d="M426.952 49.4089H426.631L425.253 52.3165C425.177 52.4676 425.061 52.5949 424.918 52.6848C424.775 52.7747 424.61 52.8236 424.441 52.8263C424.266 52.8223 424.096 52.77 423.95 52.6753C423.728 52.5002 423.577 52.2522 423.521 51.9755C423.466 51.6988 423.511 51.4115 423.648 51.1648L424.516 49.4089H420.967L419.588 52.3165C419.512 52.4676 419.397 52.5949 419.253 52.6848C419.11 52.7747 418.945 52.8236 418.776 52.8263C418.602 52.8223 418.432 52.77 418.285 52.6753C418.064 52.5002 417.912 52.2522 417.857 51.9755C417.802 51.6988 417.846 51.4115 417.983 51.1648L418.852 49.4089H415.302L413.924 52.3165C413.848 52.4676 413.732 52.5949 413.589 52.6848C413.446 52.7747 413.281 52.8236 413.112 52.8263C412.938 52.8223 412.768 52.77 412.621 52.6753C412.4 52.5002 412.248 52.2522 412.193 51.9755C412.137 51.6988 412.182 51.4115 412.319 51.1648L413.206 49.4089H409.638L408.26 52.3165C408.184 52.4676 408.068 52.5949 407.925 52.6848C407.782 52.7747 407.617 52.8236 407.448 52.8263C407.273 52.8223 407.103 52.77 406.957 52.6753C406.736 52.5002 406.584 52.2522 406.528 51.9755C406.473 51.6988 406.518 51.4115 406.655 51.1648L407.542 49.4089H403.974L402.595 52.3165C402.52 52.4676 402.404 52.5949 402.261 52.6848C402.117 52.7747 401.952 52.8236 401.783 52.8263C401.609 52.8223 401.439 52.77 401.293 52.6753C401.071 52.5002 400.919 52.2522 400.864 51.9755C400.809 51.6988 400.854 51.4115 400.99 51.1648L401.878 49.4089H398.309L396.931 52.3165C396.855 52.4676 396.739 52.5949 396.596 52.6848C396.453 52.7747 396.288 52.8236 396.119 52.8263C395.945 52.8223 395.775 52.77 395.628 52.6753C395.407 52.5002 395.255 52.2522 395.2 51.9755C395.144 51.6988 395.189 51.4115 395.326 51.1648L396.214 49.4089H392.645L391.267 52.3165C391.191 52.4676 391.075 52.5949 390.932 52.6848C390.789 52.7747 390.624 52.8236 390.455 52.8263C390.28 52.8223 390.111 52.77 389.964 52.6753C389.743 52.5002 389.591 52.2522 389.535 51.9755C389.48 51.6988 389.525 51.4115 389.662 51.1648L390.549 49.4089H386.981L385.602 52.3165C385.527 52.4676 385.411 52.5949 385.268 52.6848C385.125 52.7747 384.96 52.8236 384.791 52.8263C384.616 52.8223 384.446 52.77 384.3 52.6753C384.078 52.5002 383.926 52.2522 383.871 51.9755C383.816 51.6988 383.861 51.4115 383.998 51.1648L384.885 49.4089H381.317L379.938 52.3165C379.862 52.4676 379.747 52.5949 379.603 52.6848C379.46 52.7747 379.295 52.8236 379.126 52.8263C378.952 52.8223 378.782 52.77 378.635 52.6753C378.414 52.5002 378.262 52.2522 378.207 51.9755C378.151 51.6988 378.196 51.4115 378.333 51.1648L379.221 49.4089H375.652L374.274 52.3165C374.198 52.4676 374.082 52.5949 373.939 52.6848C373.796 52.7747 373.631 52.8236 373.462 52.8263C373.288 52.8223 373.118 52.77 372.971 52.6753C372.75 52.5002 372.598 52.2522 372.543 51.9755C372.487 51.6988 372.532 51.4115 372.669 51.1648L373.575 49.4089H369.988L368.61 52.3165C368.534 52.4676 368.418 52.5949 368.275 52.6848C368.132 52.7747 367.967 52.8236 367.798 52.8263C367.623 52.8223 367.453 52.77 367.307 52.6753C367.085 52.5002 366.934 52.2522 366.878 51.9755C366.823 51.6988 366.868 51.4115 367.005 51.1648L367.911 49.4089H364.324L362.945 52.3165C362.869 52.4676 362.754 52.5949 362.611 52.6848C362.467 52.7747 362.302 52.8236 362.133 52.8263C361.959 52.8223 361.789 52.77 361.643 52.6753C361.421 52.5002 361.269 52.2522 361.214 51.9755C361.159 51.6988 361.203 51.4115 361.34 51.1648L362.247 49.4089H358.659L357.281 52.3165C357.205 52.4676 357.089 52.5949 356.946 52.6848C356.803 52.7747 356.638 52.8236 356.469 52.8263C356.295 52.8223 356.125 52.77 355.978 52.6753C355.757 52.5002 355.605 52.2522 355.55 51.9755C355.494 51.6988 355.539 51.4115 355.676 51.1648L356.582 49.4089H352.995L351.617 52.3165C351.541 52.4676 351.425 52.5949 351.282 52.6848C351.139 52.7747 350.974 52.8236 350.805 52.8263C350.63 52.8223 350.46 52.77 350.314 52.6753C350.093 52.5002 349.941 52.2522 349.885 51.9755C349.83 51.6988 349.875 51.4115 350.012 51.1648L350.918 49.4089H347.331L345.952 52.3165C345.877 52.4676 345.761 52.5949 345.618 52.6848C345.475 52.7747 345.31 52.8236 345.141 52.8263C344.966 52.8223 344.796 52.77 344.65 52.6753C344.428 52.5002 344.276 52.2522 344.221 51.9755C344.166 51.6988 344.211 51.4115 344.348 51.1648L345.273 49.4089H341.666L340.288 52.3165C340.212 52.4676 340.096 52.5949 339.953 52.6848C339.81 52.7747 339.645 52.8236 339.476 52.8263C339.302 52.8223 339.132 52.77 338.985 52.6753C338.764 52.5002 338.612 52.2522 338.557 51.9755C338.501 51.6988 338.546 51.4115 338.683 51.1648L339.608 49.4089H329.224V54.1857H430.086L429.954 75.9555H445.059L445.191 73.6332H474.683L474.551 75.9555H481.801C483.004 76.0366 484.191 75.6527 485.119 74.8832C486.047 74.1137 486.643 73.0174 486.786 71.8206V68.4409H434.92V59.0004H487.012V49.3711H426.952V49.4089Z" fill="black"/>
<path d="M154.896 70.4227C156.033 70.4227 156.954 69.5013 156.954 68.3647C156.954 67.2281 156.033 66.3066 154.896 66.3066C153.759 66.3066 152.838 67.2281 152.838 68.3647C152.838 69.5013 153.759 70.4227 154.896 70.4227Z" fill="black"/>
<path d="M165.091 70.7063C164.94 65.042 161.315 60.2085 158.615 57.3574C151.554 62.8895 131.634 75.2 99.2533 70.1776L90.5869 89.9082H34.6237V122.931L39.0229 132.541L80.8443 121.043C80.8443 121.043 84.6205 100.123 132.219 91.3621L137.544 94.4019L165.072 88.0012C165.205 83.6586 165.299 77.7866 165.091 70.7063ZM141.943 89.474C141.258 89.4739 140.589 89.2715 140.019 88.8922C139.449 88.5129 139.004 87.9736 138.739 87.3421C138.475 86.7106 138.403 86.015 138.532 85.3427C138.662 84.6704 138.987 84.0513 139.467 83.5633C139.947 83.0752 140.561 82.74 141.231 82.5996C141.901 82.4592 142.598 82.5199 143.234 82.7742C143.87 83.0285 144.416 83.465 144.804 84.0288C145.193 84.5926 145.406 85.2586 145.417 85.9432C145.422 86.4035 145.336 86.8602 145.164 87.2872C144.992 87.7141 144.737 88.1028 144.414 88.4309C144.091 88.759 143.707 89.0201 143.283 89.1991C142.859 89.3781 142.403 89.4715 141.943 89.474ZM154.914 71.8202C154.227 71.8202 153.556 71.6165 152.984 71.2348C152.413 70.853 151.968 70.3104 151.705 69.6756C151.442 69.0408 151.373 68.3423 151.507 67.6684C151.641 66.9945 151.972 66.3754 152.458 65.8896C152.944 65.4037 153.563 65.0729 154.237 64.9388C154.911 64.8048 155.609 64.8736 156.244 65.1365C156.879 65.3995 157.421 65.8447 157.803 66.416C158.185 66.9874 158.389 67.659 158.389 68.3462C158.389 69.2675 158.022 70.1512 157.371 70.8027C156.719 71.4542 155.836 71.8202 154.914 71.8202Z" fill="black"/>
</svg>
