<svg width="512" height="512" viewBox="0 0 512 512" fill="none" xmlns="http://www.w3.org/2000/svg">
<path d="M318.896 225.389H301.771V231.846L295.371 238.247H234.083L230.307 241.589H182.047C182.45 242.777 182.728 244.005 182.878 245.251L237.633 246.196L244.128 252.237C245.147 251.407 250.321 250.349 252.549 252.672C253.258 253.332 253.826 254.129 254.218 255.015C254.611 255.901 254.82 256.857 254.833 257.826L262.291 248.386H245.185L237.633 240.286H318.972L318.896 225.389Z" fill="black"/>
<path d="M326.977 232.961H321.124V238.625H326.977V232.961Z" fill="black"/>
<path d="M176.93 232.942C178.948 230.735 180.417 228.083 181.216 225.201H173.871C173.741 226.505 173.404 227.78 172.871 228.977C174.331 230.185 175.688 231.511 176.93 232.942Z" fill="black"/>
<path d="M326.977 240.514H321.124V246.178H326.977V240.514Z" fill="black"/>
<path d="M326.977 225.408H321.124V231.072H326.977V225.408Z" fill="black"/>
<path d="M209.934 181.869C209.86 181.651 209.72 181.461 209.534 181.326C209.349 181.191 209.125 181.117 208.895 181.113H201.513C201.36 181.113 201.209 181.144 201.068 181.203C200.927 181.262 200.799 181.348 200.692 181.457C200.585 181.566 200.5 181.695 200.443 181.837C200.387 181.979 200.359 182.131 200.361 182.284V185.909H211.199L209.934 181.869Z" fill="black"/>
<path d="M235.782 183.266C235.782 182.665 235.543 182.089 235.118 181.664C234.694 181.239 234.117 181 233.516 181H226.379C225.778 181 225.202 181.239 224.777 181.664C224.352 182.089 224.114 182.665 224.114 183.266V185.909H235.782V183.266Z" fill="black"/>
<path d="M264.009 246.177H264.538H306.699V242.533H242.692L246.11 246.177H264.009Z" fill="black"/>
<path d="M229.419 239.284L233.195 235.924H294.389L299.467 230.845V225.294L183.444 225.143C182.519 228.67 180.735 231.913 178.252 234.583C179.328 236.037 181.235 239.266 181.235 239.266L229.419 239.284Z" fill="black"/>
<path d="M318.896 242.533H308.927V246.158H318.896V242.533Z" fill="black"/>
<path d="M277.056 182.284C277.056 181.977 276.935 181.682 276.72 181.463C276.504 181.244 276.211 181.118 275.904 181.113H268.503C268.275 181.115 268.053 181.189 267.87 181.325C267.687 181.46 267.551 181.651 267.483 181.869L266.199 185.909H277.056V182.284Z" fill="black"/>
<path d="M167.32 264.076C169.573 264.056 171.825 264.188 174.06 264.473C176.242 264.766 178.392 265.265 180.48 265.964C180.763 261.735 180.782 247.423 180.763 246.706C180.763 242.665 176.269 235.66 175.306 234.509C174.177 233.236 172.973 232.032 171.7 230.902C171.246 231.457 170.711 231.941 170.114 232.337C168.423 233.404 166.447 233.93 164.45 233.848C163.545 233.845 162.642 233.769 161.75 233.621C162.808 234.894 163.749 236.258 164.563 237.7C165.9 240.538 166.828 243.551 167.32 246.649C167.32 248.424 167.32 250.104 167.32 251.709V257.978C167.414 260.243 167.32 262.283 167.32 264.076Z" fill="black"/>
<path d="M487.012 223.332V221.444C487.014 220.846 486.897 220.254 486.667 219.703C486.436 219.152 486.098 218.652 485.672 218.234L483.576 216.157C482.728 215.34 481.6 214.881 480.423 214.873H448.948L445.436 218.385L450.364 223.407L487.012 223.332Z" fill="black"/>
<path d="M444.889 220.952H440.546V217.516H435.297V220.952H431.597V217.516H426.348V220.952H422.647V217.516H417.398V220.952H413.716V217.516H408.467V220.952H404.767V217.516H399.518V220.952H395.817V217.516H390.568V220.952H386.886V217.516H381.638V220.952H377.937V217.516H372.688V220.952H368.987V217.516H363.738V220.952H360.057V217.516H354.808V220.952H351.107V217.516H345.858V220.952H342.157V217.516H336.909V220.952H333.227V217.516H290.782V220.348V223.123L447.23 223.331L444.889 220.952Z" fill="black"/>
<path d="M216.41 203.922C215.263 203.046 213.824 202.64 212.388 202.789H211.841V186.967H200.361V205.3C200.361 205.866 200.586 206.409 200.986 206.809C201.386 207.209 201.929 207.434 202.495 207.434H218.298C218.115 206.073 217.444 204.825 216.41 203.922Z" fill="black"/>
<path d="M277.056 198.522L280.549 202.034C281.523 201.985 282.499 202.055 283.456 202.241V187.307H279.982L277.056 190.195V198.522Z" fill="black"/>
<path d="M222.377 216.609H239.691V205.507L222.377 205.469V216.609Z" fill="black"/>
<path d="M241.428 208.699V216.61H275.904L267.993 208.699H241.428Z" fill="black"/>
<path d="M452.441 237.285H448.307V242.232H452.441V237.285Z" fill="black"/>
<path d="M457.954 237.285H453.819V242.232H457.954V237.285Z" fill="black"/>
<path d="M463.468 237.285H459.333V242.232H463.468V237.285Z" fill="black"/>
<path d="M446.946 237.285H442.812V242.232H446.946V237.285Z" fill="black"/>
<path d="M468.981 237.285H464.846V242.232H468.981V237.285Z" fill="black"/>
<path d="M441.433 237.285H437.298V242.232H441.433V237.285Z" fill="black"/>
<path d="M487.447 235.302V244.176H494.546V235.227L487.447 235.302Z" fill="black"/>
<path d="M474.494 237.285H470.359V242.232H474.494V237.285Z" fill="black"/>
<path d="M480.008 237.285H475.873V242.232H480.008V237.285Z" fill="black"/>
<path d="M485.521 237.285H481.386V242.232H485.521V237.285Z" fill="black"/>
<path d="M168.868 230.487C169.823 229.716 170.581 228.727 171.076 227.604C171.572 226.481 171.793 225.255 171.719 224.03V222.953H172.795L175.646 223.048V216.326H169.906C169.906 216.326 161.448 223.558 161.24 225.144C161.087 227.161 161.087 229.187 161.24 231.204C163.782 231.933 166.506 231.677 168.868 230.487Z" fill="black"/>
<path d="M32.3394 240.004H26.3919C25.8488 240.008 25.3156 240.151 24.8436 240.419L19.6514 243.912C19.3969 244.073 19.1731 244.277 18.9905 244.516C17.3857 246.669 18.1031 251.049 18.5752 252.73L20.1612 257.544V307.938C20.1612 308.679 20.4556 309.39 20.9796 309.914C21.5037 310.438 22.2144 310.732 22.9555 310.732H33.2646L36.9275 309.731L32.4338 299.894L32.3394 240.004Z" fill="black"/>
<path d="M289.366 218.554L219.827 218.384L218.619 219.517L190.581 219.045L176.609 216.326V223.048H289.366V218.554Z" fill="black"/>
<path d="M253.36 263.301H255.928C261.101 256.939 266.558 256.844 266.841 256.844H308.379V250.613H325.127V248.404H265.085L253.36 263.301Z" fill="black"/>
<path d="M216.41 283.674C216.807 287.148 234.272 287.45 238.067 285.184C241.862 282.919 242.919 273.856 240.635 268.89H244.807V265.529H216.486C216.486 265.529 216.41 283.089 216.41 283.674ZM220.998 271.609C220.784 274.634 221.707 277.63 223.585 280.011C226.304 283.334 230.968 281.559 229.533 281.295C228.098 281.031 226.059 280.332 225.53 275.744C225.346 274.613 225.454 273.454 225.844 272.377C226.234 271.3 226.893 270.34 227.758 269.589C228.439 268.847 229.327 268.328 230.307 268.097C233.12 267.455 239.162 266.926 239.879 273.761C240.54 279.841 238.331 282.919 236.651 283.58C234.026 284.599 225.322 283.976 221.659 283.712C221.207 283.728 220.757 283.647 220.339 283.473C219.921 283.3 219.545 283.039 219.237 282.708C218.929 282.376 218.696 281.982 218.553 281.553C218.411 281.124 218.363 280.668 218.412 280.219L218.298 271.571L220.998 271.609Z" fill="black"/>
<path d="M342.101 232.432H339.59H329.224V246.177H342.101V243.42L357.81 243.59V232.432H342.101Z" fill="black"/>
<path d="M360.057 246.007L361.775 250.18C362.075 250.448 362.467 250.59 362.87 250.576H366.986C367.198 250.576 367.408 250.526 367.598 250.431C367.788 250.336 367.953 250.198 368.081 250.029C368.711 248.744 369.223 247.404 369.61 246.026V232.432H360.057V246.007Z" fill="black"/>
<path d="M258.571 285.639V301.064C258.586 301.438 258.746 301.792 259.018 302.049C259.289 302.307 259.651 302.448 260.025 302.443H301.563C302.174 302.443 302.76 302.2 303.192 301.768C303.624 301.336 303.867 300.75 303.867 300.139V292.757H263.008C262.691 292.755 262.381 292.664 262.114 292.493C261.847 292.323 261.633 292.08 261.498 291.794L258.571 285.639Z" fill="black"/>
<path d="M408.109 232.432H371.839V243.496L427.84 243.213V232.432H414.51H408.109Z" fill="black"/>
<path d="M141.944 259.941C141.534 259.942 141.134 260.064 140.795 260.293C140.455 260.521 140.192 260.846 140.038 261.226C139.884 261.605 139.846 262.022 139.93 262.422C140.014 262.823 140.216 263.189 140.51 263.475C140.803 263.76 141.175 263.952 141.578 264.025C141.981 264.097 142.396 264.049 142.771 263.884C143.146 263.72 143.464 263.447 143.683 263.101C143.902 262.755 144.013 262.352 144.002 261.943C143.987 261.407 143.764 260.898 143.379 260.524C142.995 260.15 142.48 259.941 141.944 259.941Z" fill="black"/>
<path d="M156.671 306.671C157.004 306.675 157.331 306.58 157.609 306.397C157.888 306.215 158.107 305.954 158.237 305.647C158.367 305.34 158.403 305.002 158.34 304.675C158.277 304.348 158.119 304.046 157.885 303.809C157.65 303.573 157.351 303.411 157.024 303.344C156.698 303.278 156.359 303.31 156.051 303.437C155.743 303.563 155.479 303.779 155.294 304.055C155.108 304.332 155.009 304.658 155.009 304.991C155.007 305.211 155.048 305.429 155.13 305.632C155.213 305.836 155.335 306.022 155.489 306.178C155.644 306.334 155.828 306.458 156.031 306.543C156.233 306.628 156.451 306.671 156.671 306.671Z" fill="black"/>
<path d="M150.61 300.082C150.186 300.499 149.878 301.02 149.716 301.593C149.553 302.165 149.543 302.77 149.685 303.348L151.573 310.9C151.802 311.696 152.329 312.373 153.045 312.788L179.12 327.893C179.647 328.2 180.237 328.382 180.846 328.428C181.454 328.474 182.065 328.381 182.632 328.158L184.633 327.365L188.749 330.631C189.1 330.907 189.545 331.036 189.989 330.99C190.433 330.944 190.841 330.728 191.128 330.386L195.49 325.25C195.551 325.193 195.6 325.125 195.633 325.048C195.667 324.972 195.684 324.89 195.684 324.806C195.684 324.723 195.667 324.64 195.633 324.564C195.6 324.488 195.551 324.419 195.49 324.363L155.557 295.928C155.446 295.84 155.31 295.793 155.17 295.793C155.029 295.793 154.893 295.84 154.782 295.928L150.61 300.082ZM159.276 304.991C159.276 305.506 159.123 306.01 158.837 306.438C158.551 306.867 158.144 307.201 157.668 307.398C157.192 307.595 156.668 307.647 156.162 307.546C155.657 307.446 155.193 307.197 154.828 306.833C154.464 306.469 154.216 306.004 154.115 305.499C154.014 304.994 154.066 304.47 154.263 303.994C154.461 303.517 154.794 303.11 155.223 302.824C155.651 302.538 156.155 302.385 156.671 302.385C157.362 302.385 158.024 302.66 158.513 303.148C159.002 303.637 159.276 304.3 159.276 304.991Z" fill="black"/>
<path d="M84.0923 256.279C83.7425 256.319 83.4197 256.487 83.1854 256.75C82.9511 257.013 82.8217 257.352 82.8217 257.704C82.8217 258.057 82.9511 258.396 83.1854 258.659C83.4197 258.922 83.7425 259.09 84.0923 259.13C84.2933 259.153 84.4969 259.134 84.6897 259.073C84.8826 259.011 85.0604 258.91 85.2114 258.776C85.3624 258.641 85.4833 258.476 85.566 258.291C85.6488 258.107 85.6916 257.907 85.6916 257.704C85.6916 257.502 85.6488 257.302 85.566 257.118C85.4833 256.933 85.3624 256.768 85.2114 256.633C85.0604 256.499 84.8826 256.398 84.6897 256.336C84.4969 256.275 84.2933 256.256 84.0923 256.279Z" fill="black"/>
<path d="M97.2141 245.234L93.0225 242.251H56.4878L51.22 240.004H34.6237V263.681H89.1331L97.2141 245.234ZM84.0918 260.452C83.5279 260.452 82.9767 260.285 82.5079 259.972C82.039 259.658 81.6736 259.213 81.4578 258.692C81.242 258.171 81.1856 257.598 81.2956 257.045C81.4056 256.492 81.6771 255.984 82.0758 255.585C82.4746 255.186 82.9826 254.915 83.5356 254.805C84.0887 254.695 84.6619 254.751 85.1829 254.967C85.7038 255.183 86.1491 255.548 86.4624 256.017C86.7756 256.486 86.9429 257.037 86.9429 257.601C86.9429 258.357 86.6425 259.082 86.1078 259.617C85.5731 260.152 84.848 260.452 84.0918 260.452Z" fill="black"/>
<path d="M285.043 211.247C285.04 210.733 284.894 210.23 284.621 209.795C284.348 209.36 283.959 209.01 283.498 208.784C283.037 208.559 282.521 208.466 282.01 208.518C281.499 208.569 281.013 208.762 280.606 209.075L284.476 212.852C284.832 212.391 285.031 211.828 285.043 211.247Z" fill="black"/>
<path d="M282.286 214.005C282.816 214.003 283.335 213.845 283.777 213.552L280.001 209.775C279.704 210.21 279.541 210.722 279.529 211.248C279.534 211.978 279.826 212.676 280.342 213.192C280.858 213.708 281.556 214 282.286 214.005Z" fill="black"/>
<path d="M219.129 207.453H221.017V204.111L241.503 204.224V207.453L269.125 207.339L279.283 217.516H289.404V209.19C289.4 208.014 288.932 206.887 288.101 206.055C287.515 205.452 286.816 204.971 286.043 204.639C284.549 204.031 282.928 203.797 281.323 203.96H280.794L275.904 199.07V188.987L277.924 186.967H212.822V201.826C214.354 201.748 215.86 202.239 217.052 203.204C218.264 204.301 219.008 205.822 219.129 207.453ZM279.435 208.85C279.787 208.438 280.224 208.106 280.716 207.878C281.208 207.65 281.743 207.531 282.286 207.528C283.032 207.528 283.763 207.75 284.383 208.165C285.004 208.58 285.488 209.169 285.774 209.859C286.06 210.549 286.135 211.309 285.989 212.041C285.843 212.774 285.484 213.446 284.956 213.975C284.428 214.503 283.755 214.862 283.022 215.008C282.29 215.154 281.53 215.079 280.84 214.793C280.15 214.507 279.561 214.023 279.146 213.402C278.731 212.781 278.509 212.051 278.509 211.304C278.515 210.402 278.843 209.531 279.435 208.85Z" fill="black"/>
<path d="M292.538 290.943V259.469H266.841C264.681 259.778 262.687 260.801 261.177 262.376C260.357 263.124 259.702 264.033 259.254 265.048C258.805 266.062 258.573 267.158 258.571 268.267V283.221L261.951 290.018C262.092 290.298 262.308 290.532 262.574 290.696C262.841 290.859 263.149 290.945 263.461 290.943H292.538Z" fill="black"/>
<path d="M293.483 290.943H303.867V259.469H293.502L293.483 290.943Z" fill="black"/>
<path d="M248.168 252.673C247.29 252.596 246.407 252.748 245.606 253.116C244.805 253.483 244.113 254.053 243.599 254.769L236.707 248.387L183.01 247.48C183.217 255.92 183.01 262.585 182.84 266.985C184.515 267.732 185.962 268.911 187.031 270.402C188.92 273.838 192.696 280.314 172.191 294.003L166.716 301.329L189.864 317.869C189.58 317.265 200.72 300.102 200.72 300.102L204.232 298.931C204.723 298.767 205.155 298.46 205.471 298.05C205.787 297.64 205.973 297.145 206.007 296.628L206.233 292.002C206.233 292.002 211.105 285.696 214.333 283.694V263.303H248.187C248.854 263.366 249.526 263.285 250.159 263.065C250.791 262.846 251.37 262.494 251.855 262.032C252.34 261.571 252.72 261.01 252.97 260.389C253.22 259.768 253.334 259.1 253.304 258.431C253.347 257.716 253.248 256.998 253.013 256.321C252.778 255.643 252.412 255.019 251.934 254.483C251.457 253.948 250.878 253.513 250.232 253.202C249.586 252.891 248.884 252.711 248.168 252.673Z" fill="black"/>
<path d="M426.952 225.409H426.631L425.253 228.317C425.177 228.468 425.061 228.595 424.918 228.685C424.775 228.775 424.61 228.824 424.441 228.826C424.266 228.822 424.096 228.77 423.95 228.675C423.728 228.5 423.577 228.252 423.521 227.976C423.466 227.699 423.511 227.411 423.648 227.165L424.516 225.409H420.967L419.588 228.317C419.512 228.468 419.397 228.595 419.253 228.685C419.11 228.775 418.945 228.824 418.776 228.826C418.602 228.822 418.432 228.77 418.285 228.675C418.064 228.5 417.912 228.252 417.857 227.976C417.802 227.699 417.846 227.411 417.983 227.165L418.852 225.409H415.302L413.924 228.317C413.848 228.468 413.732 228.595 413.589 228.685C413.446 228.775 413.281 228.824 413.112 228.826C412.938 228.822 412.768 228.77 412.621 228.675C412.4 228.5 412.248 228.252 412.193 227.976C412.137 227.699 412.182 227.411 412.319 227.165L413.206 225.409H409.638L408.26 228.317C408.184 228.468 408.068 228.595 407.925 228.685C407.782 228.775 407.617 228.824 407.448 228.826C407.273 228.822 407.103 228.77 406.957 228.675C406.736 228.5 406.584 228.252 406.528 227.976C406.473 227.699 406.518 227.411 406.655 227.165L407.542 225.409H403.974L402.595 228.317C402.52 228.468 402.404 228.595 402.261 228.685C402.117 228.775 401.952 228.824 401.783 228.826C401.609 228.822 401.439 228.77 401.293 228.675C401.071 228.5 400.919 228.252 400.864 227.976C400.809 227.699 400.854 227.411 400.99 227.165L401.878 225.409H398.309L396.931 228.317C396.855 228.468 396.739 228.595 396.596 228.685C396.453 228.775 396.288 228.824 396.119 228.826C395.945 228.822 395.775 228.77 395.628 228.675C395.407 228.5 395.255 228.252 395.2 227.976C395.144 227.699 395.189 227.411 395.326 227.165L396.214 225.409H392.645L391.267 228.317C391.191 228.468 391.075 228.595 390.932 228.685C390.789 228.775 390.624 228.824 390.455 228.826C390.28 228.822 390.111 228.77 389.964 228.675C389.743 228.5 389.591 228.252 389.535 227.976C389.48 227.699 389.525 227.411 389.662 227.165L390.549 225.409H386.981L385.602 228.317C385.527 228.468 385.411 228.595 385.268 228.685C385.125 228.775 384.96 228.824 384.791 228.826C384.616 228.822 384.446 228.77 384.3 228.675C384.078 228.5 383.926 228.252 383.871 227.976C383.816 227.699 383.861 227.411 383.998 227.165L384.885 225.409H381.317L379.938 228.317C379.862 228.468 379.747 228.595 379.603 228.685C379.46 228.775 379.295 228.824 379.126 228.826C378.952 228.822 378.782 228.77 378.635 228.675C378.414 228.5 378.262 228.252 378.207 227.976C378.151 227.699 378.196 227.411 378.333 227.165L379.221 225.409H375.652L374.274 228.317C374.198 228.468 374.082 228.595 373.939 228.685C373.796 228.775 373.631 228.824 373.462 228.826C373.288 228.822 373.118 228.77 372.971 228.675C372.75 228.5 372.598 228.252 372.543 227.976C372.487 227.699 372.532 227.411 372.669 227.165L373.575 225.409H369.988L368.61 228.317C368.534 228.468 368.418 228.595 368.275 228.685C368.132 228.775 367.967 228.824 367.798 228.826C367.623 228.822 367.453 228.77 367.307 228.675C367.085 228.5 366.934 228.252 366.878 227.976C366.823 227.699 366.868 227.411 367.005 227.165L367.911 225.409H364.324L362.945 228.317C362.869 228.468 362.754 228.595 362.611 228.685C362.467 228.775 362.302 228.824 362.133 228.826C361.959 228.822 361.789 228.77 361.643 228.675C361.421 228.5 361.269 228.252 361.214 227.976C361.159 227.699 361.203 227.411 361.34 227.165L362.247 225.409H358.659L357.281 228.317C357.205 228.468 357.089 228.595 356.946 228.685C356.803 228.775 356.638 228.824 356.469 228.826C356.295 228.822 356.125 228.77 355.978 228.675C355.757 228.5 355.605 228.252 355.55 227.976C355.494 227.699 355.539 227.411 355.676 227.165L356.582 225.409H352.995L351.617 228.317C351.541 228.468 351.425 228.595 351.282 228.685C351.139 228.775 350.974 228.824 350.805 228.826C350.63 228.822 350.46 228.77 350.314 228.675C350.093 228.5 349.941 228.252 349.885 227.976C349.83 227.699 349.875 227.411 350.012 227.165L350.918 225.409H347.331L345.952 228.317C345.877 228.468 345.761 228.595 345.618 228.685C345.475 228.775 345.31 228.824 345.141 228.826C344.966 228.822 344.796 228.77 344.65 228.675C344.428 228.5 344.276 228.252 344.221 227.976C344.166 227.699 344.211 227.411 344.348 227.165L345.273 225.409H341.666L340.288 228.317C340.212 228.468 340.096 228.595 339.953 228.685C339.81 228.775 339.645 228.824 339.476 228.826C339.302 228.822 339.132 228.77 338.985 228.675C338.764 228.5 338.612 228.252 338.557 227.976C338.501 227.699 338.546 227.411 338.683 227.165L339.608 225.409H329.224V230.186H430.086L429.954 251.956H445.059L445.191 249.633H474.683L474.551 251.956H481.801C483.004 252.037 484.191 251.653 485.119 250.883C486.047 250.114 486.643 249.017 486.786 247.821V244.441H434.92V235H487.012V225.371H426.952V225.409Z" fill="black"/>
<path d="M154.896 246.423C156.033 246.423 156.954 245.501 156.954 244.365C156.954 243.228 156.033 242.307 154.896 242.307C153.759 242.307 152.838 243.228 152.838 244.365C152.838 245.501 153.759 246.423 154.896 246.423Z" fill="black"/>
<path d="M165.091 246.706C164.94 241.042 161.315 236.208 158.615 233.357C151.554 238.89 131.634 251.2 99.2533 246.178L90.5869 265.908H34.6237V298.931L39.0229 308.541L80.8443 297.043C80.8443 297.043 84.6205 276.123 132.219 267.362L137.544 270.402L165.072 264.001C165.205 259.659 165.299 253.787 165.091 246.706ZM141.943 265.474C141.258 265.474 140.589 265.271 140.019 264.892C139.449 264.513 139.004 263.974 138.739 263.342C138.475 262.711 138.403 262.015 138.532 261.343C138.662 260.67 138.987 260.051 139.467 259.563C139.947 259.075 140.561 258.74 141.231 258.6C141.901 258.459 142.598 258.52 143.234 258.774C143.87 259.029 144.416 259.465 144.804 260.029C145.193 260.593 145.406 261.259 145.417 261.943C145.422 262.404 145.336 262.86 145.164 263.287C144.992 263.714 144.737 264.103 144.414 264.431C144.091 264.759 143.707 265.02 143.283 265.199C142.859 265.378 142.403 265.472 141.943 265.474ZM154.914 247.82C154.227 247.82 153.556 247.617 152.984 247.235C152.413 246.853 151.968 246.31 151.705 245.676C151.442 245.041 151.373 244.342 151.507 243.668C151.641 242.994 151.972 242.375 152.458 241.89C152.944 241.404 153.563 241.073 154.237 240.939C154.911 240.805 155.609 240.874 156.244 241.137C156.879 241.399 157.421 241.845 157.803 242.416C158.185 242.987 158.389 243.659 158.389 244.346C158.389 245.268 158.022 246.151 157.371 246.803C156.719 247.454 155.836 247.82 154.914 247.82Z" fill="black"/>
</svg>
