<svg width="512" height="512" viewBox="0 0 512 512" fill="none" xmlns="http://www.w3.org/2000/svg">
<path d="M332.796 151.85L337.547 152.696L357.904 140.943L348.068 123.516C348.068 123.516 338.257 106.524 335.822 122.511L332.796 151.85ZM351.891 137.909L340.282 144.611L336.858 144.121L338.459 130.186C339.431 115.94 344.8 125.627 344.8 125.627L351.891 137.909Z" fill="black"/>
<path d="M150.197 266.47L110.66 289.297L117.168 300.569L156.705 277.742L150.197 266.47Z" fill="black"/>
<path d="M243.129 205.189C244.307 204.509 244.734 202.917 244.054 201.739L236.38 188.448C235.992 187.775 235.098 187.393 234.257 187.879L162.57 220.295C162.57 220.295 151.53 224.874 158.955 231.13C159.68 231.609 159.661 232.742 159.085 233.298C158.917 233.395 158.749 233.493 158.581 233.59L156.898 234.561C156.225 234.95 155.844 235.843 156.232 236.516L159.355 245.032C159.575 245.802 159.361 246.598 158.689 246.987L154.651 249.318C153.978 249.707 153.596 250.6 154.082 251.441L154.956 252.955C155.636 254.133 157.228 254.56 158.406 253.88L243.129 205.189ZM179.597 218.315C179.81 217.519 180.289 216.794 181.059 216.574L234.712 192.552C235.313 192.429 235.579 192.5 235.87 193.004L238.791 199.618C239.083 200.123 238.675 200.582 238.339 200.777C220.692 209.843 202.975 219.175 185.16 228.339C184.319 228.825 183.425 228.443 182.771 227.699C181.755 226.715 180.907 225.635 180.13 224.289C180.033 224.121 179.838 223.784 179.741 223.616C179.203 221.907 179.002 220.005 179.597 218.315ZM159.989 225.15C160.998 224.567 162.06 224.851 162.643 225.861C163.225 226.87 162.941 227.932 161.932 228.515C160.922 229.097 159.861 228.813 159.278 227.803C158.792 226.962 158.979 225.732 159.821 225.247L159.989 225.15Z" fill="black"/>
<path d="M195.815 272.436L206.111 290.27L206.073 292.535L206.229 295.137C203.828 297.195 203.435 300.788 204.989 303.479C205.475 304.321 205.934 304.728 206.659 305.207C207.022 305.446 206.951 305.712 206.782 305.809C202.804 310.574 203.51 312.185 204.798 314.806C205.576 316.152 206.76 317.038 207.653 317.419C207.751 317.588 207.919 317.491 208.016 317.659C208.113 317.827 208.042 318.092 207.732 318.72C205.629 322.85 205.139 326.274 205.747 327.717C206.33 328.727 207.347 329.71 208.337 330.26C208.603 330.331 208.027 330.888 207.354 331.276C178.862 345.259 181.092 337.466 181.092 337.466C188.232 301.265 186.117 286.335 181.514 280.692L195.815 272.436Z" fill="black"/>
<path d="M197.665 271.369L207.184 287.857C207.67 288.698 208.634 288.814 209.307 288.426L230.48 275.753C231.153 275.365 231.437 274.303 231.049 273.63L223.472 260.507C222.501 258.825 220.378 258.256 218.696 259.227L197.665 271.369ZM226.265 270.784C227.502 272.538 227.224 275.165 225.471 276.402L212.011 284.173C210.329 285.144 208.18 284.142 206.917 281.955L203.2 275.128C201.963 273.374 202.241 270.746 203.994 269.51L217.454 261.739C219.136 260.767 221.285 261.77 222.548 263.957L226.265 270.784Z" fill="black"/>
<path d="M208.764 269.221L205.567 271.066C207.801 274.936 211.666 276.967 217.561 275.134C217.995 275.107 217.943 274.24 217.509 274.266C213.626 273.368 210.927 273.356 208.764 269.221Z" fill="black"/>
<path d="M253.89 197.407L248.596 199.117C248.26 199.312 248.021 199.674 248.215 200.011L262.008 223.901C262.202 224.238 262.733 224.38 262.972 224.017L266.738 220.049L253.722 197.504L253.89 197.407Z" fill="black"/>
<path d="M155.832 260.3L164.866 275.947L174.624 270.313C176.811 269.05 177.69 266.299 176.498 263.847L174.918 260.721L211.861 239.617C212.365 239.325 213.162 239.539 213.453 240.044L215.881 244.25C216.367 245.091 217.331 245.207 218.004 244.818L258.383 221.506L249.058 205.355L155.832 260.3ZM173.949 264.87C174.532 265.88 174.273 267.375 173.264 267.958L168.721 270.58C167.712 271.163 166.217 270.905 165.634 269.895L164.08 267.203C163.4 266.026 163.923 264.602 164.933 264.019L169.307 261.493C170.317 260.91 171.812 261.169 172.395 262.178L173.949 264.87Z" fill="black"/>
<path d="M421.886 106.47L420.205 107.443L427.509 120.051L429.19 119.077L421.886 106.47Z" fill="black"/>
<path d="M418.521 108.411L416.84 109.385L424.144 121.992L425.825 121.019L418.521 108.411Z" fill="black"/>
<path d="M434.178 99.3746L423.578 105.494L430.864 118.112L441.463 111.993C442.304 111.507 442.686 110.614 442.2 109.773L436.566 100.015C436.081 99.1734 435.019 98.889 434.178 99.3746Z" fill="black"/>
<path d="M338.881 154.619L346.166 167.238L422.452 122.97L415.166 110.352C415.166 110.352 339.218 154.425 338.881 154.619Z" fill="black"/>
<path d="M336.129 153.737L327.424 152.258L342.868 179.008C342.868 179.008 345.008 172.613 345.648 170.225L336.129 153.737Z" fill="black"/>
<path d="M325.353 152.557L254.018 193.742L270.143 221.671L341.478 180.485L325.353 152.557ZM321.807 173.223L326.372 181.131L324.858 182.005L320.293 174.098L312.722 178.469L317.287 186.376L315.773 187.25L311.208 179.343L303.637 183.714L308.202 191.621L306.688 192.496L302.122 184.588L294.552 188.959L299.117 196.867L297.603 197.741L293.037 189.833L285.466 194.205L290.032 202.112L288.518 202.986L283.952 195.079L276.381 199.45L280.947 207.357L279.432 208.232L274.867 200.324L273.896 198.642L269.525 191.071L271.039 190.197L275.41 197.767L282.981 193.396L278.61 185.825L280.124 184.951L284.495 192.522L292.066 188.151L287.695 180.58L289.209 179.706L293.58 187.277L301.151 182.906L296.78 175.335L298.294 174.461L302.665 182.032L310.236 177.66L305.865 170.09L307.379 169.215L311.75 176.786L319.321 172.415L314.95 164.844L316.464 163.97L320.836 171.541L321.807 173.223Z" fill="black"/>
<path d="M309.145 305.932C303.532 300.873 279.189 278.138 268.149 260.958C267.178 259.275 265.818 256.92 265.818 256.92L251.117 267.202L250.036 268.051L244.944 271.664L239.515 275.471C240 276.312 240.486 277.153 241.166 278.331L242.526 280.686C250.05 292.942 265.791 315.932 286.72 329.647C287.277 330.222 288.144 330.17 288.623 329.445C288.623 329.445 288.623 329.445 288.791 329.348L308.938 308.294C309.851 307.543 309.87 306.411 309.145 305.932ZM287.332 320.993C271.782 308.436 258.536 293.651 247.955 276.879L249.877 275.545C260.36 292.149 273.439 307.031 288.794 319.252L287.332 320.993ZM292.32 315.646C278.37 305.081 264.249 288.783 254.128 272.418L255.881 271.181C265.905 287.378 278.524 301.852 293.517 313.833L292.32 315.646ZM297.911 310.175C283.183 298.265 270.396 283.888 260.372 267.691L262.294 266.357C272.123 282.217 284.645 296.523 299.107 308.362L297.911 310.175Z" fill="black"/>
<path d="M115.972 302.383L107.618 287.914L32.4133 331.333C30.7258 336.57 34.9737 343.539 39.7575 346.385L115.972 302.383ZM90.7073 310.688L107.532 300.975L108.309 302.321L91.4843 312.034L90.7073 310.688ZM43.3338 337.815L60.1581 328.101L60.9352 329.447L44.1109 339.161L43.3338 337.815Z" fill="black"/>
<path d="M41.0651 347.873C47.436 355.411 66.0701 378.75 67.0764 388.263C67.1284 389.131 67.8795 390.043 68.915 389.894C72.7655 388.792 73.9623 386.98 78.7163 377.73L116.943 304.065L41.0651 347.873ZM79.0211 359.608C73.5388 378.476 66.5451 366.362 66.5451 366.362C63.8964 361.386 61.5912 357.782 59.1628 353.576C57.4144 350.547 58.3128 346.664 61.5094 344.818L86.2411 330.539C87.7553 329.665 89.4968 331.127 88.9019 332.817C86.0176 339.866 80.9671 352.876 79.0211 359.608Z" fill="black"/>
<path d="M215.073 246.735L212.645 242.529C212.353 242.024 211.557 241.811 211.053 242.102L177.307 261.361L178.181 262.875C179.858 266.169 178.695 269.981 175.498 271.827L165.74 277.461L167.1 279.816C169.695 278.094 175.777 275.03 180.206 279.204L218.397 257.154C220.416 255.988 223.238 256.602 224.403 258.621L224.5 258.789L232.757 273.09C233.146 273.763 233.942 273.976 234.517 273.42L263.273 253.677C263.778 253.386 263.991 252.589 263.7 252.085C261.44 247.781 262.048 249.225 261.342 247.613L253.183 233.481C252.795 232.808 253.008 232.012 253.416 231.552L257.278 227.752C257.854 227.195 258.164 226.567 257.873 226.062L256.902 224.38L217.462 247.375C216.62 247.861 215.559 247.576 215.073 246.735ZM257.091 250.741L234.748 265.659L253.57 250.082L251.444 237.85L257.091 250.741Z" fill="black"/>
<path d="M163.183 276.918L154.15 261.272L150.28 263.506L159.314 279.152L163.183 276.918Z" fill="black"/>
<path d="M332.796 151.85L337.547 152.696L357.904 140.943L348.068 123.516C348.068 123.516 338.257 106.524 335.822 122.511L332.796 151.85ZM351.891 137.909L340.282 144.611L336.858 144.121L338.459 130.186C339.431 115.94 344.8 125.627 344.8 125.627L351.891 137.909Z" fill="black"/>
<path d="M150.197 266.47L110.66 289.297L117.168 300.569L156.705 277.742L150.197 266.47Z" fill="black"/>
<path d="M243.129 205.189C244.307 204.509 244.734 202.917 244.054 201.739L236.38 188.448C235.992 187.775 235.098 187.393 234.257 187.879L162.57 220.295C162.57 220.295 151.53 224.874 158.955 231.13C159.68 231.609 159.661 232.742 159.085 233.298C158.917 233.395 158.749 233.493 158.581 233.59L156.898 234.561C156.225 234.95 155.844 235.843 156.232 236.516L159.355 245.032C159.575 245.802 159.361 246.598 158.689 246.987L154.651 249.318C153.978 249.707 153.596 250.6 154.082 251.441L154.956 252.955C155.636 254.133 157.228 254.56 158.406 253.88L243.129 205.189ZM179.597 218.315C179.81 217.519 180.289 216.794 181.059 216.574L234.712 192.552C235.313 192.429 235.579 192.5 235.87 193.004L238.791 199.618C239.083 200.123 238.675 200.582 238.339 200.777C220.692 209.843 202.975 219.175 185.16 228.339C184.319 228.825 183.425 228.443 182.771 227.699C181.755 226.715 180.907 225.635 180.13 224.289C180.033 224.121 179.838 223.784 179.741 223.616C179.203 221.907 179.002 220.005 179.597 218.315ZM159.989 225.15C160.998 224.567 162.06 224.851 162.643 225.861C163.225 226.87 162.941 227.932 161.932 228.515C160.922 229.097 159.861 228.813 159.278 227.803C158.792 226.962 158.979 225.732 159.821 225.247L159.989 225.15Z" fill="black"/>
<path d="M195.815 272.436L206.111 290.27L206.073 292.535L206.229 295.137C203.828 297.195 203.435 300.788 204.989 303.479C205.475 304.321 205.934 304.728 206.659 305.207C207.022 305.446 206.951 305.712 206.782 305.809C202.804 310.574 203.51 312.185 204.798 314.806C205.576 316.152 206.76 317.038 207.653 317.419C207.751 317.588 207.919 317.491 208.016 317.659C208.113 317.827 208.042 318.092 207.732 318.72C205.629 322.85 205.139 326.274 205.747 327.717C206.33 328.727 207.347 329.71 208.337 330.26C208.603 330.331 208.027 330.888 207.354 331.276C178.862 345.259 181.092 337.466 181.092 337.466C188.232 301.265 186.117 286.335 181.514 280.692L195.815 272.436Z" fill="black"/>
<path d="M197.665 271.369L207.184 287.857C207.67 288.698 208.634 288.814 209.307 288.426L230.48 275.753C231.153 275.365 231.437 274.303 231.049 273.63L223.472 260.507C222.501 258.825 220.378 258.256 218.696 259.227L197.665 271.369ZM226.265 270.784C227.502 272.538 227.224 275.165 225.471 276.402L212.011 284.173C210.329 285.144 208.18 284.142 206.917 281.955L203.2 275.128C201.963 273.374 202.241 270.746 203.994 269.51L217.454 261.739C219.136 260.767 221.285 261.77 222.548 263.957L226.265 270.784Z" fill="black"/>
<path d="M208.764 269.221L205.567 271.066C207.801 274.936 211.666 276.967 217.561 275.134C217.995 275.107 217.943 274.24 217.509 274.266C213.626 273.368 210.927 273.356 208.764 269.221Z" fill="black"/>
<path d="M253.89 197.407L248.596 199.117C248.26 199.312 248.021 199.674 248.215 200.011L262.008 223.901C262.202 224.238 262.733 224.38 262.972 224.017L266.738 220.049L253.722 197.504L253.89 197.407Z" fill="black"/>
<path d="M155.832 260.3L164.866 275.947L174.624 270.313C176.811 269.05 177.69 266.299 176.498 263.847L174.918 260.721L211.861 239.617C212.365 239.325 213.162 239.539 213.453 240.044L215.881 244.25C216.367 245.091 217.331 245.207 218.004 244.818L258.383 221.506L249.058 205.355L155.832 260.3ZM173.949 264.87C174.532 265.88 174.273 267.375 173.264 267.958L168.721 270.58C167.712 271.163 166.217 270.905 165.634 269.895L164.08 267.203C163.4 266.026 163.923 264.602 164.933 264.019L169.307 261.493C170.317 260.91 171.812 261.169 172.395 262.178L173.949 264.87Z" fill="black"/>
<path d="M421.886 106.47L420.205 107.443L427.509 120.051L429.19 119.077L421.886 106.47Z" fill="black"/>
<path d="M418.521 108.411L416.84 109.385L424.144 121.992L425.825 121.019L418.521 108.411Z" fill="black"/>
<path d="M434.178 99.3746L423.578 105.494L430.864 118.112L441.463 111.993C442.304 111.507 442.686 110.614 442.2 109.773L436.566 100.015C436.081 99.1734 435.019 98.889 434.178 99.3746Z" fill="black"/>
<path d="M338.881 154.619L346.166 167.238L422.452 122.97L415.166 110.352C415.166 110.352 339.218 154.425 338.881 154.619Z" fill="black"/>
<path d="M336.129 153.737L327.424 152.258L342.868 179.008C342.868 179.008 345.008 172.613 345.648 170.225L336.129 153.737Z" fill="black"/>
<path d="M325.353 152.557L254.018 193.742L270.143 221.671L341.478 180.485L325.353 152.557ZM321.807 173.223L326.372 181.131L324.858 182.005L320.293 174.098L312.722 178.469L317.287 186.376L315.773 187.25L311.208 179.343L303.637 183.714L308.202 191.621L306.688 192.496L302.122 184.588L294.552 188.959L299.117 196.867L297.603 197.741L293.037 189.833L285.466 194.205L290.032 202.112L288.518 202.986L283.952 195.079L276.381 199.45L280.947 207.357L279.432 208.232L274.867 200.324L273.896 198.642L269.525 191.071L271.039 190.197L275.41 197.767L282.981 193.396L278.61 185.825L280.124 184.951L284.495 192.522L292.066 188.151L287.695 180.58L289.209 179.706L293.58 187.277L301.151 182.906L296.78 175.335L298.294 174.461L302.665 182.032L310.236 177.66L305.865 170.09L307.379 169.215L311.75 176.786L319.321 172.415L314.95 164.844L316.464 163.97L320.836 171.541L321.807 173.223Z" fill="black"/>
<path d="M309.145 305.932C303.532 300.873 279.189 278.138 268.149 260.958C267.178 259.275 265.818 256.92 265.818 256.92L251.117 267.202L250.036 268.051L244.944 271.664L239.515 275.471C240 276.312 240.486 277.153 241.166 278.331L242.526 280.686C250.05 292.942 265.791 315.932 286.72 329.647C287.277 330.222 288.144 330.17 288.623 329.445C288.623 329.445 288.623 329.445 288.791 329.348L308.938 308.294C309.851 307.543 309.87 306.411 309.145 305.932ZM287.332 320.993C271.782 308.436 258.536 293.651 247.955 276.879L249.877 275.545C260.36 292.149 273.439 307.031 288.794 319.252L287.332 320.993ZM292.32 315.646C278.37 305.081 264.249 288.783 254.128 272.418L255.881 271.181C265.905 287.378 278.524 301.852 293.517 313.833L292.32 315.646ZM297.911 310.175C283.183 298.265 270.396 283.888 260.372 267.691L262.294 266.357C272.123 282.217 284.645 296.523 299.107 308.362L297.911 310.175Z" fill="black"/>
<path d="M115.972 302.383L107.618 287.914L32.4133 331.333C30.7258 336.57 34.9737 343.539 39.7575 346.385L115.972 302.383ZM90.7073 310.688L107.532 300.975L108.309 302.321L91.4843 312.034L90.7073 310.688ZM43.3338 337.815L60.1581 328.101L60.9352 329.447L44.1109 339.161L43.3338 337.815Z" fill="black"/>
<path d="M41.0651 347.873C47.436 355.411 66.0701 378.75 67.0764 388.263C67.1284 389.131 67.8795 390.043 68.915 389.894C72.7655 388.792 73.9623 386.98 78.7163 377.73L116.943 304.065L41.0651 347.873ZM79.0211 359.608C73.5388 378.476 66.5451 366.362 66.5451 366.362C63.8964 361.386 61.5912 357.782 59.1628 353.576C57.4144 350.547 58.3128 346.664 61.5094 344.818L86.2411 330.539C87.7553 329.665 89.4968 331.127 88.9019 332.817C86.0176 339.866 80.9671 352.876 79.0211 359.608Z" fill="black"/>
<path d="M215.073 246.735L212.645 242.529C212.353 242.024 211.557 241.811 211.053 242.102L177.307 261.361L178.181 262.875C179.858 266.169 178.695 269.981 175.498 271.827L165.74 277.461L167.1 279.816C169.695 278.094 175.777 275.03 180.206 279.204L218.397 257.154C220.416 255.988 223.238 256.602 224.403 258.621L224.5 258.789L232.757 273.09C233.146 273.763 233.942 273.976 234.517 273.42L263.273 253.677C263.778 253.386 263.991 252.589 263.7 252.085C261.44 247.781 262.048 249.225 261.342 247.613L253.183 233.481C252.795 232.808 253.008 232.012 253.416 231.552L257.278 227.752C257.854 227.195 258.164 226.567 257.873 226.062L256.902 224.38L217.462 247.375C216.62 247.861 215.559 247.576 215.073 246.735ZM257.091 250.741L234.748 265.659L253.57 250.082L251.444 237.85L257.091 250.741Z" fill="black"/>
<path d="M163.183 276.918L154.15 261.272L150.28 263.506L159.314 279.152L163.183 276.918Z" fill="black"/>
</svg>
