<svg width="512" height="512" viewBox="0 0 512 512" fill="none" xmlns="http://www.w3.org/2000/svg">
<path d="M375.027 204.132L378.718 207.241H402.224L402.419 187.231C402.419 187.231 402.419 167.609 392.317 180.237L375.027 204.132ZM398.533 201.607H385.129L382.409 199.47L390.763 188.202C398.728 176.352 398.533 187.425 398.533 187.425V201.607Z" fill="black"/>
<path d="M159.581 212.098H113.927V225.114H159.581V212.098Z" fill="black"/>
<path d="M270.703 205.491C272.063 205.491 273.229 204.326 273.229 202.966V187.619C273.229 186.842 272.646 186.064 271.675 186.064L193.384 178.294C193.384 178.294 181.533 176.739 184.836 185.87C185.225 186.647 184.642 187.619 183.865 187.813C183.67 187.813 183.476 187.813 183.282 187.813H181.339C180.562 187.813 179.785 188.396 179.785 189.173L178.231 198.109C178.037 198.886 177.454 199.469 176.677 199.469H172.014C171.237 199.469 170.46 200.052 170.46 201.023V202.772C170.46 204.132 171.626 205.297 172.985 205.297L270.703 205.491ZM209.12 185.093C209.703 184.51 210.48 184.122 211.257 184.316L269.732 190.338C270.315 190.533 270.509 190.727 270.509 191.31L269.732 198.498C269.732 199.081 269.149 199.275 268.761 199.275C248.945 198.303 228.935 197.526 208.925 196.555C207.954 196.555 207.371 195.778 207.177 194.807C206.789 193.447 206.594 192.087 206.594 190.533C206.594 190.338 206.594 189.95 206.594 189.756C206.983 188.007 207.76 186.259 209.12 185.093ZM188.721 181.208C189.887 181.208 190.664 181.985 190.664 183.15C190.664 184.316 189.887 185.093 188.721 185.093C187.556 185.093 186.779 184.316 186.779 183.15C186.779 182.179 187.556 181.208 188.527 181.208H188.721Z" fill="black"/>
<path d="M196.104 240.072V260.665L194.938 262.608L193.772 264.939C190.664 265.522 188.527 268.436 188.527 271.544C188.527 272.515 188.721 273.098 189.11 273.875C189.304 274.264 189.11 274.458 188.916 274.458C183.088 276.595 182.893 278.344 182.699 281.258C182.699 282.812 183.282 284.172 183.865 284.949C183.865 285.143 184.059 285.143 184.059 285.337C184.059 285.532 183.865 285.726 183.282 286.114C179.396 288.64 177.259 291.36 177.065 292.914C177.065 294.079 177.454 295.439 178.037 296.411C178.231 296.605 177.454 296.799 176.677 296.799C145.011 294.662 150.839 289.028 150.839 289.028C175.122 261.248 180.756 247.26 179.591 240.072H196.104Z" fill="black"/>
<path d="M198.24 240.072V259.111C198.24 260.082 199.018 260.665 199.795 260.665L224.467 260.276C225.244 260.276 226.021 259.499 226.021 258.722V243.569C226.021 241.626 224.467 240.072 222.524 240.072H198.24ZM223.301 253.865C223.496 256.002 221.941 258.139 219.804 258.334H204.263C202.32 258.334 200.96 256.391 200.96 253.865L201.155 246.095C200.96 243.958 202.514 241.821 204.651 241.626H220.193C222.136 241.626 223.496 243.569 223.496 246.095L223.301 253.865Z" fill="black"/>
<path d="M208.926 243.764H205.234C205.234 248.232 207.566 251.923 213.588 253.283C213.977 253.477 214.365 252.7 213.977 252.506C211.062 249.786 208.731 248.426 208.926 243.764Z" fill="black"/>
<path d="M283.914 204.132L278.474 202.967C278.086 202.967 277.697 203.161 277.697 203.55V231.136C277.697 231.525 278.086 231.913 278.474 231.719L283.72 230.165V204.132H283.914Z" fill="black"/>
<path d="M167.546 209.571V227.638H178.814C181.339 227.638 183.476 225.695 183.67 222.976L183.865 219.479L226.41 219.673C226.993 219.673 227.575 220.256 227.575 220.839V225.695C227.575 226.667 228.353 227.25 229.13 227.25H275.754V208.6L167.546 209.571ZM180.951 222.587C180.951 223.753 179.979 224.918 178.814 224.918H173.568C172.403 224.918 171.237 223.947 171.237 222.781V219.673C171.237 218.313 172.403 217.342 173.568 217.342H178.619C179.785 217.342 180.951 218.313 180.951 219.479V222.587Z" fill="black"/>
<path d="M474.871 209.376L472.929 209.379L472.95 223.949L474.893 223.946L474.871 209.376Z" fill="black"/>
<path d="M470.986 209.376L469.043 209.379L469.065 223.949L471.007 223.946L470.986 209.376Z" fill="black"/>
<path d="M489.063 209.379H476.824V223.949H489.063C490.035 223.949 490.812 223.366 490.812 222.395V211.127C490.812 210.156 490.035 209.379 489.063 209.379Z" fill="black"/>
<path d="M378.912 209.573V224.143L467.111 223.949V209.379C467.111 209.379 379.301 209.573 378.912 209.573Z" fill="black"/>
<path d="M376.969 207.433L370.17 201.799V232.688C370.17 232.688 375.221 228.22 376.969 226.471V207.433Z" fill="black"/>
<path d="M368.227 201.023H285.857V233.272H368.227V201.023ZM354.823 217.148V226.279H353.074V217.148H344.332V226.279H342.583V217.148H333.841V226.279H332.093V217.148H323.351V226.279H321.602V217.148H312.86V226.279H311.112V217.148H302.37V226.279H300.621V217.148V215.205V206.463H302.37V215.205H311.112V206.463H312.86V215.205H321.602V206.463H323.351V215.205H332.093V206.463H333.841V215.205H342.583V206.463H344.332V215.205H353.074V206.463H354.823V215.205V217.148Z" fill="black"/>
<path d="M277.503 325.746C275.172 318.558 265.458 286.698 264.487 266.299C264.487 264.357 264.487 261.637 264.487 261.637L246.614 263.191L245.254 263.385L239.037 263.968L232.432 264.551C232.432 265.522 232.432 266.493 232.432 267.853V270.573C232.821 284.949 234.958 312.73 246.225 335.071C246.42 335.848 247.197 336.237 247.974 335.848C247.974 335.848 247.974 335.848 248.168 335.848L276.143 327.689C277.309 327.494 277.891 326.523 277.503 325.746ZM251.082 327.883C243.894 309.233 239.814 289.806 239.037 269.99L241.369 269.796C242.146 289.417 246.031 308.844 253.219 327.106L251.082 327.883ZM258.076 325.746C251.276 309.621 247.197 288.446 246.614 269.213L248.751 269.019C249.334 288.057 253.025 306.902 260.019 324.775L258.076 325.746ZM265.652 323.803C258.853 306.125 254.967 287.28 254.385 268.242L256.716 268.048C257.299 286.698 260.99 305.348 267.595 322.832L265.652 323.803Z" fill="black"/>
<path d="M111.985 226.086V209.379H25.1457C21.066 213.07 21.2603 221.229 23.9801 226.086H111.985ZM85.9523 220.647H105.379V222.201H85.9523V220.647ZM31.3624 220.452H50.7894V222.006H31.3624V220.452Z" fill="black"/>
<path d="M24.3687 228.027C26.1171 237.741 30.5853 267.27 26.6999 276.012C26.3114 276.789 26.5056 277.955 27.477 278.343C31.3624 279.315 33.3051 278.343 42.0473 272.71L111.985 228.027H24.3687ZM51.3722 257.168C37.1905 270.767 37.1905 256.779 37.1905 256.779C37.3848 251.146 37.1905 246.872 37.1905 242.015C37.1905 238.518 39.9103 235.604 43.6014 235.604H72.1592C73.9076 235.604 74.6847 237.741 73.3248 238.906C67.3024 243.569 56.4233 252.311 51.3722 257.168Z" fill="black"/>
<path d="M225.633 227.445V222.588C225.633 222.006 225.05 221.423 224.467 221.423L185.613 221.229V222.977C185.419 226.668 182.505 229.388 178.814 229.388H167.546V232.108C170.654 231.913 177.454 232.302 179.202 238.13H223.301C225.633 238.13 227.77 240.073 227.77 242.404V242.598V259.111C227.77 259.888 228.353 260.471 229.13 260.277L263.904 257.557C264.487 257.557 265.07 256.974 265.07 256.391C265.264 251.535 265.07 253.089 265.264 251.34V235.022C265.264 234.245 265.847 233.662 266.43 233.468L271.675 232.108C272.452 231.913 273.035 231.525 273.035 230.942V228.999L227.381 229.194C226.41 229.194 225.633 228.417 225.633 227.445ZM260.019 251.923L233.209 253.672L257.299 249.592L261.573 237.936L260.019 251.923Z" fill="black"/>
<path d="M165.603 227.637V209.57H161.135V227.637H165.603Z" fill="black"/>
<path d="M375.027 204.132L378.718 207.241H402.224L402.419 187.231C402.419 187.231 402.419 167.609 392.317 180.237L375.027 204.132ZM398.533 201.607H385.129L382.409 199.47L390.763 188.202C398.728 176.352 398.533 187.425 398.533 187.425V201.607Z" fill="black"/>
<path d="M159.581 212.098H113.927V225.114H159.581V212.098Z" fill="black"/>
<path d="M270.703 205.491C272.063 205.491 273.229 204.326 273.229 202.966V187.619C273.229 186.842 272.646 186.064 271.675 186.064L193.384 178.294C193.384 178.294 181.533 176.739 184.836 185.87C185.225 186.647 184.642 187.619 183.865 187.813C183.67 187.813 183.476 187.813 183.282 187.813H181.339C180.562 187.813 179.785 188.396 179.785 189.173L178.231 198.109C178.037 198.886 177.454 199.469 176.677 199.469H172.014C171.237 199.469 170.46 200.052 170.46 201.023V202.772C170.46 204.132 171.626 205.297 172.985 205.297L270.703 205.491ZM209.12 185.093C209.703 184.51 210.48 184.122 211.257 184.316L269.732 190.338C270.315 190.533 270.509 190.727 270.509 191.31L269.732 198.498C269.732 199.081 269.149 199.275 268.761 199.275C248.945 198.303 228.935 197.526 208.925 196.555C207.954 196.555 207.371 195.778 207.177 194.807C206.789 193.447 206.594 192.087 206.594 190.533C206.594 190.338 206.594 189.95 206.594 189.756C206.983 188.007 207.76 186.259 209.12 185.093ZM188.721 181.208C189.887 181.208 190.664 181.985 190.664 183.15C190.664 184.316 189.887 185.093 188.721 185.093C187.556 185.093 186.779 184.316 186.779 183.15C186.779 182.179 187.556 181.208 188.527 181.208H188.721Z" fill="black"/>
<path d="M196.104 240.072V260.665L194.938 262.608L193.772 264.939C190.664 265.522 188.527 268.436 188.527 271.544C188.527 272.515 188.721 273.098 189.11 273.875C189.304 274.264 189.11 274.458 188.916 274.458C183.088 276.595 182.893 278.344 182.699 281.258C182.699 282.812 183.282 284.172 183.865 284.949C183.865 285.143 184.059 285.143 184.059 285.337C184.059 285.532 183.865 285.726 183.282 286.114C179.396 288.64 177.259 291.36 177.065 292.914C177.065 294.079 177.454 295.439 178.037 296.411C178.231 296.605 177.454 296.799 176.677 296.799C145.011 294.662 150.839 289.028 150.839 289.028C175.122 261.248 180.756 247.26 179.591 240.072H196.104Z" fill="black"/>
<path d="M198.24 240.072V259.111C198.24 260.082 199.018 260.665 199.795 260.665L224.467 260.276C225.244 260.276 226.021 259.499 226.021 258.722V243.569C226.021 241.626 224.467 240.072 222.524 240.072H198.24ZM223.301 253.865C223.496 256.002 221.941 258.139 219.804 258.334H204.263C202.32 258.334 200.96 256.391 200.96 253.865L201.155 246.095C200.96 243.958 202.514 241.821 204.651 241.626H220.193C222.136 241.626 223.496 243.569 223.496 246.095L223.301 253.865Z" fill="black"/>
<path d="M208.926 243.764H205.234C205.234 248.232 207.566 251.923 213.588 253.283C213.977 253.477 214.365 252.7 213.977 252.506C211.062 249.786 208.731 248.426 208.926 243.764Z" fill="black"/>
<path d="M283.914 204.132L278.474 202.967C278.086 202.967 277.697 203.161 277.697 203.55V231.136C277.697 231.525 278.086 231.913 278.474 231.719L283.72 230.165V204.132H283.914Z" fill="black"/>
<path d="M167.546 209.571V227.638H178.814C181.339 227.638 183.476 225.695 183.67 222.976L183.865 219.479L226.41 219.673C226.993 219.673 227.575 220.256 227.575 220.839V225.695C227.575 226.667 228.353 227.25 229.13 227.25H275.754V208.6L167.546 209.571ZM180.951 222.587C180.951 223.753 179.979 224.918 178.814 224.918H173.568C172.403 224.918 171.237 223.947 171.237 222.781V219.673C171.237 218.313 172.403 217.342 173.568 217.342H178.619C179.785 217.342 180.951 218.313 180.951 219.479V222.587Z" fill="black"/>
<path d="M474.871 209.376L472.929 209.379L472.95 223.949L474.893 223.946L474.871 209.376Z" fill="black"/>
<path d="M470.986 209.376L469.043 209.379L469.065 223.949L471.007 223.946L470.986 209.376Z" fill="black"/>
<path d="M489.063 209.379H476.824V223.949H489.063C490.035 223.949 490.812 223.366 490.812 222.395V211.127C490.812 210.156 490.035 209.379 489.063 209.379Z" fill="black"/>
<path d="M378.912 209.573V224.143L467.111 223.949V209.379C467.111 209.379 379.301 209.573 378.912 209.573Z" fill="black"/>
<path d="M376.969 207.433L370.17 201.799V232.688C370.17 232.688 375.221 228.22 376.969 226.471V207.433Z" fill="black"/>
<path d="M368.227 201.023H285.857V233.272H368.227V201.023ZM354.823 217.148V226.279H353.074V217.148H344.332V226.279H342.583V217.148H333.841V226.279H332.093V217.148H323.351V226.279H321.602V217.148H312.86V226.279H311.112V217.148H302.37V226.279H300.621V217.148V215.205V206.463H302.37V215.205H311.112V206.463H312.86V215.205H321.602V206.463H323.351V215.205H332.093V206.463H333.841V215.205H342.583V206.463H344.332V215.205H353.074V206.463H354.823V215.205V217.148Z" fill="black"/>
<path d="M277.503 325.746C275.172 318.558 265.458 286.698 264.487 266.299C264.487 264.357 264.487 261.637 264.487 261.637L246.614 263.191L245.254 263.385L239.037 263.968L232.432 264.551C232.432 265.522 232.432 266.493 232.432 267.853V270.573C232.821 284.949 234.958 312.73 246.225 335.071C246.42 335.848 247.197 336.237 247.974 335.848C247.974 335.848 247.974 335.848 248.168 335.848L276.143 327.689C277.309 327.494 277.891 326.523 277.503 325.746ZM251.082 327.883C243.894 309.233 239.814 289.806 239.037 269.99L241.369 269.796C242.146 289.417 246.031 308.844 253.219 327.106L251.082 327.883ZM258.076 325.746C251.276 309.621 247.197 288.446 246.614 269.213L248.751 269.019C249.334 288.057 253.025 306.902 260.019 324.775L258.076 325.746ZM265.652 323.803C258.853 306.125 254.967 287.28 254.385 268.242L256.716 268.048C257.299 286.698 260.99 305.348 267.595 322.832L265.652 323.803Z" fill="black"/>
<path d="M111.985 226.086V209.379H25.1457C21.066 213.07 21.2603 221.229 23.9801 226.086H111.985ZM85.9523 220.647H105.379V222.201H85.9523V220.647ZM31.3624 220.452H50.7894V222.006H31.3624V220.452Z" fill="black"/>
<path d="M24.3687 228.027C26.1171 237.741 30.5853 267.27 26.6999 276.012C26.3114 276.789 26.5056 277.955 27.477 278.343C31.3624 279.315 33.3051 278.343 42.0473 272.71L111.985 228.027H24.3687ZM51.3722 257.168C37.1905 270.767 37.1905 256.779 37.1905 256.779C37.3848 251.146 37.1905 246.872 37.1905 242.015C37.1905 238.518 39.9103 235.604 43.6014 235.604H72.1592C73.9076 235.604 74.6847 237.741 73.3248 238.906C67.3024 243.569 56.4233 252.311 51.3722 257.168Z" fill="black"/>
<path d="M225.633 227.445V222.588C225.633 222.006 225.05 221.423 224.467 221.423L185.613 221.229V222.977C185.419 226.668 182.505 229.388 178.814 229.388H167.546V232.108C170.654 231.913 177.454 232.302 179.202 238.13H223.301C225.633 238.13 227.77 240.073 227.77 242.404V242.598V259.111C227.77 259.888 228.353 260.471 229.13 260.277L263.904 257.557C264.487 257.557 265.07 256.974 265.07 256.391C265.264 251.535 265.07 253.089 265.264 251.34V235.022C265.264 234.245 265.847 233.662 266.43 233.468L271.675 232.108C272.452 231.913 273.035 231.525 273.035 230.942V228.999L227.381 229.194C226.41 229.194 225.633 228.417 225.633 227.445ZM260.019 251.923L233.209 253.672L257.299 249.592L261.573 237.936L260.019 251.923Z" fill="black"/>
<path d="M165.603 227.637V209.57H161.135V227.637H165.603Z" fill="black"/>
</svg>
