<svg width="512" height="165" viewBox="0 0 512 165" fill="none" xmlns="http://www.w3.org/2000/svg">
<path d="M361.027 28.1323L364.718 31.2406H388.224L388.419 11.2307C388.419 11.2307 388.419 -8.39057 378.317 4.237L361.027 28.1323ZM384.533 25.6067H371.129L368.409 23.4698L376.763 12.2021C384.728 0.351594 384.533 11.425 384.533 11.425V25.6067Z" fill="black"/>
<path d="M145.581 36.0977H99.9272V49.1138H145.581V36.0977Z" fill="black"/>
<path d="M256.703 29.4915C258.063 29.4915 259.229 28.3258 259.229 26.9659V11.6186C259.229 10.8415 258.646 10.0644 257.675 10.0644L179.384 2.2936C179.384 2.2936 167.533 0.73944 170.836 9.87015C171.225 10.6472 170.642 11.6186 169.865 11.8129C169.67 11.8129 169.476 11.8129 169.282 11.8129H167.339C166.562 11.8129 165.785 12.3957 165.785 13.1727L164.231 22.1092C164.037 22.8863 163.454 23.4691 162.677 23.4691H158.014C157.237 23.4691 156.46 24.0519 156.46 25.0232V26.7717C156.46 28.1316 157.626 29.2972 158.985 29.2972L256.703 29.4915ZM195.12 9.09307C195.703 8.51025 196.48 8.12171 197.257 8.31598L255.732 14.3384C256.315 14.5326 256.509 14.7269 256.509 15.3097L255.732 22.4977C255.732 23.0805 255.149 23.2748 254.761 23.2748C234.945 22.3035 214.935 21.5264 194.925 20.555C193.954 20.555 193.371 19.7779 193.177 18.8066C192.789 17.4467 192.594 16.0868 192.594 14.5326C192.594 14.3384 192.594 13.9498 192.594 13.7556C192.983 12.0071 193.76 10.2587 195.12 9.09307ZM174.721 5.20766C175.887 5.20766 176.664 5.98474 176.664 7.15036C176.664 8.31598 175.887 9.09307 174.721 9.09307C173.556 9.09307 172.779 8.31598 172.779 7.15036C172.779 6.17901 173.556 5.20766 174.527 5.20766H174.721Z" fill="black"/>
<path d="M182.104 64.0723V84.6649L180.938 86.6076L179.772 88.9389C176.664 89.5217 174.527 92.4357 174.527 95.5441C174.527 96.5154 174.721 97.0982 175.11 97.8753C175.304 98.2638 175.11 98.4581 174.916 98.4581C169.088 100.595 168.893 102.344 168.699 105.258C168.699 106.812 169.282 108.172 169.865 108.949C169.865 109.143 170.059 109.143 170.059 109.337C170.059 109.532 169.865 109.726 169.282 110.114C165.396 112.64 163.259 115.36 163.065 116.914C163.065 118.079 163.454 119.439 164.037 120.411C164.231 120.605 163.454 120.799 162.677 120.799C131.011 118.662 136.839 113.028 136.839 113.028C161.122 85.2477 166.756 71.2603 165.591 64.0723H182.104Z" fill="black"/>
<path d="M184.24 64.0723V83.1108C184.24 84.0821 185.018 84.6649 185.795 84.6649L210.467 84.2764C211.244 84.2764 212.021 83.4993 212.021 82.7222V67.5691C212.021 65.6264 210.467 64.0723 208.524 64.0723H184.24ZM209.301 77.8655C209.496 80.0024 207.941 82.1394 205.804 82.3337H190.263C188.32 82.3337 186.96 80.391 186.96 77.8655L187.155 70.0946C186.96 67.9577 188.514 65.8207 190.651 65.6264H206.193C208.136 65.6264 209.496 67.5691 209.496 70.0946L209.301 77.8655Z" fill="black"/>
<path d="M194.926 67.7637H191.234C191.234 72.2319 193.566 75.923 199.588 77.2829C199.977 77.4772 200.365 76.7001 199.977 76.5058C197.062 73.7861 194.731 72.4262 194.926 67.7637Z" fill="black"/>
<path d="M269.914 28.1324L264.474 26.9668C264.086 26.9668 263.697 27.1611 263.697 27.5496V55.136C263.697 55.5245 264.086 55.9131 264.474 55.7188L269.72 54.1646V28.1324H269.914Z" fill="black"/>
<path d="M153.546 33.571V51.6381H164.814C167.339 51.6381 169.476 49.6954 169.67 46.9756L169.865 43.4787L212.41 43.673C212.993 43.673 213.575 44.2558 213.575 44.8386V49.6954C213.575 50.6667 214.353 51.2496 215.13 51.2496H261.754V32.5996L153.546 33.571ZM166.951 46.5871C166.951 47.7527 165.979 48.9183 164.814 48.9183H159.568C158.403 48.9183 157.237 47.947 157.237 46.7813V43.673C157.237 42.3131 158.403 41.3418 159.568 41.3418H164.619C165.785 41.3418 166.951 42.3131 166.951 43.4787V46.5871Z" fill="black"/>
<path d="M460.871 33.3761L458.929 33.3789L458.95 47.9492L460.893 47.9463L460.871 33.3761Z" fill="black"/>
<path d="M456.986 33.3761L455.043 33.3789L455.065 47.9492L457.007 47.9463L456.986 33.3761Z" fill="black"/>
<path d="M475.063 33.3789H462.824V47.9492H475.063C476.035 47.9492 476.812 47.3664 476.812 46.395V35.1273C476.812 34.156 476.035 33.3789 475.063 33.3789Z" fill="black"/>
<path d="M364.912 33.5732V48.1435L453.111 47.9492V33.3789C453.111 33.3789 365.301 33.5732 364.912 33.5732Z" fill="black"/>
<path d="M362.969 31.4327L356.17 25.7988V56.6878C356.17 56.6878 361.221 52.2196 362.969 50.4712V31.4327Z" fill="black"/>
<path d="M354.227 25.0234H271.857V57.2723H354.227V25.0234ZM340.823 41.1479V50.2786H339.074V41.1479H330.332V50.2786H328.583V41.1479H319.841V50.2786H318.093V41.1479H309.351V50.2786H307.602V41.1479H298.86V50.2786H297.112V41.1479H288.37V50.2786H286.621V41.1479V39.2052V30.463H288.37V39.2052H297.112V30.463H298.86V39.2052H307.602V30.463H309.351V39.2052H318.093V30.463H319.841V39.2052H328.583V30.463H330.332V39.2052H339.074V30.463H340.823V39.2052V41.1479Z" fill="black"/>
<path d="M263.503 149.746C261.172 142.558 251.458 110.698 250.487 90.2992C250.487 88.3565 250.487 85.6367 250.487 85.6367L232.614 87.1909L231.254 87.3852L225.037 87.968L218.432 88.5508C218.432 89.5221 218.432 90.4935 218.432 91.8534V94.5732C218.821 108.949 220.958 136.73 232.225 159.071C232.42 159.848 233.197 160.237 233.974 159.848C233.974 159.848 233.974 159.848 234.168 159.848L262.143 151.689C263.309 151.494 263.891 150.523 263.503 149.746ZM237.082 151.883C229.894 133.233 225.814 113.806 225.037 93.9903L227.369 93.7961C228.146 113.417 232.031 132.844 239.219 151.106L237.082 151.883ZM244.076 149.746C237.276 133.621 233.197 112.446 232.614 93.2133L234.751 93.019C235.334 112.057 239.025 130.902 246.019 148.775L244.076 149.746ZM251.652 147.803C244.853 130.125 240.967 111.28 240.385 92.2419L242.716 92.0476C243.299 110.698 246.99 129.348 253.595 146.832L251.652 147.803Z" fill="black"/>
<path d="M97.9846 50.0862V33.3789H11.1457C7.06602 37.07 7.26029 45.2294 9.98008 50.0862H97.9846ZM71.9523 44.6466H91.3794V46.2008H71.9523V44.6466ZM17.3624 44.4523H36.7894V46.0065H17.3624V44.4523Z" fill="black"/>
<path d="M10.3687 52.0273C12.1171 61.7409 16.5853 91.27 12.6999 100.012C12.3114 100.789 12.5056 101.955 13.477 102.343C17.3624 103.315 19.3051 102.343 28.0473 96.7095L97.9846 52.0273H10.3687ZM37.3722 81.1679C23.1905 94.7668 23.1905 80.7794 23.1905 80.7794C23.3848 75.1455 23.1905 70.8716 23.1905 66.0148C23.1905 62.5179 25.9103 59.6039 29.6014 59.6039H58.1592C59.9076 59.6039 60.6847 61.7409 59.3248 62.9065C53.3024 67.569 42.4233 76.3111 37.3722 81.1679Z" fill="black"/>
<path d="M211.633 51.4452V46.5884C211.633 46.0056 211.05 45.4228 210.467 45.4228L171.613 45.2285V46.9769C171.419 50.6681 168.505 53.3879 164.814 53.3879H153.546V56.1077C156.654 55.9134 163.454 56.3019 165.202 62.13H209.301C211.633 62.13 213.77 64.0727 213.77 66.404V66.5983V83.1112C213.77 83.8883 214.353 84.4711 215.13 84.2769L249.904 81.5571C250.487 81.5571 251.07 80.9743 251.07 80.3914C251.264 75.5347 251.07 77.0889 251.264 75.3404V59.0217C251.264 58.2446 251.847 57.6618 252.43 57.4675L257.675 56.1077C258.452 55.9134 259.035 55.5248 259.035 54.942V52.9993L213.381 53.1936C212.41 53.1936 211.633 52.4165 211.633 51.4452ZM246.019 75.9232L219.209 77.6717L243.299 73.592L247.573 61.9358L246.019 75.9232Z" fill="black"/>
<path d="M151.603 51.6375V33.5703H147.135V51.6375H151.603Z" fill="black"/>
<path d="M361.027 28.1323L364.718 31.2406H388.224L388.419 11.2307C388.419 11.2307 388.419 -8.39057 378.317 4.237L361.027 28.1323ZM384.533 25.6067H371.129L368.409 23.4698L376.763 12.2021C384.728 0.351594 384.533 11.425 384.533 11.425V25.6067Z" fill="black"/>
<path d="M145.581 36.0977H99.9272V49.1138H145.581V36.0977Z" fill="black"/>
<path d="M256.703 29.4915C258.063 29.4915 259.229 28.3258 259.229 26.9659V11.6186C259.229 10.8415 258.646 10.0644 257.675 10.0644L179.384 2.2936C179.384 2.2936 167.533 0.73944 170.836 9.87015C171.225 10.6472 170.642 11.6186 169.865 11.8129C169.67 11.8129 169.476 11.8129 169.282 11.8129H167.339C166.562 11.8129 165.785 12.3957 165.785 13.1727L164.231 22.1092C164.037 22.8863 163.454 23.4691 162.677 23.4691H158.014C157.237 23.4691 156.46 24.0519 156.46 25.0232V26.7717C156.46 28.1316 157.626 29.2972 158.985 29.2972L256.703 29.4915ZM195.12 9.09307C195.703 8.51025 196.48 8.12171 197.257 8.31598L255.732 14.3384C256.315 14.5326 256.509 14.7269 256.509 15.3097L255.732 22.4977C255.732 23.0805 255.149 23.2748 254.761 23.2748C234.945 22.3035 214.935 21.5264 194.925 20.555C193.954 20.555 193.371 19.7779 193.177 18.8066C192.789 17.4467 192.594 16.0868 192.594 14.5326C192.594 14.3384 192.594 13.9498 192.594 13.7556C192.983 12.0071 193.76 10.2587 195.12 9.09307ZM174.721 5.20766C175.887 5.20766 176.664 5.98474 176.664 7.15036C176.664 8.31598 175.887 9.09307 174.721 9.09307C173.556 9.09307 172.779 8.31598 172.779 7.15036C172.779 6.17901 173.556 5.20766 174.527 5.20766H174.721Z" fill="black"/>
<path d="M182.104 64.0723V84.6649L180.938 86.6076L179.772 88.9389C176.664 89.5217 174.527 92.4357 174.527 95.5441C174.527 96.5154 174.721 97.0982 175.11 97.8753C175.304 98.2638 175.11 98.4581 174.916 98.4581C169.088 100.595 168.893 102.344 168.699 105.258C168.699 106.812 169.282 108.172 169.865 108.949C169.865 109.143 170.059 109.143 170.059 109.337C170.059 109.532 169.865 109.726 169.282 110.114C165.396 112.64 163.259 115.36 163.065 116.914C163.065 118.079 163.454 119.439 164.037 120.411C164.231 120.605 163.454 120.799 162.677 120.799C131.011 118.662 136.839 113.028 136.839 113.028C161.122 85.2477 166.756 71.2603 165.591 64.0723H182.104Z" fill="black"/>
<path d="M184.24 64.0723V83.1108C184.24 84.0821 185.018 84.6649 185.795 84.6649L210.467 84.2764C211.244 84.2764 212.021 83.4993 212.021 82.7222V67.5691C212.021 65.6264 210.467 64.0723 208.524 64.0723H184.24ZM209.301 77.8655C209.496 80.0024 207.941 82.1394 205.804 82.3337H190.263C188.32 82.3337 186.96 80.391 186.96 77.8655L187.155 70.0946C186.96 67.9577 188.514 65.8207 190.651 65.6264H206.193C208.136 65.6264 209.496 67.5691 209.496 70.0946L209.301 77.8655Z" fill="black"/>
<path d="M194.926 67.7637H191.234C191.234 72.2319 193.566 75.923 199.588 77.2829C199.977 77.4772 200.365 76.7001 199.977 76.5058C197.062 73.7861 194.731 72.4262 194.926 67.7637Z" fill="black"/>
<path d="M269.914 28.1324L264.474 26.9668C264.086 26.9668 263.697 27.1611 263.697 27.5496V55.136C263.697 55.5245 264.086 55.9131 264.474 55.7188L269.72 54.1646V28.1324H269.914Z" fill="black"/>
<path d="M153.546 33.571V51.6381H164.814C167.339 51.6381 169.476 49.6954 169.67 46.9756L169.865 43.4787L212.41 43.673C212.993 43.673 213.575 44.2558 213.575 44.8386V49.6954C213.575 50.6667 214.353 51.2496 215.13 51.2496H261.754V32.5996L153.546 33.571ZM166.951 46.5871C166.951 47.7527 165.979 48.9183 164.814 48.9183H159.568C158.403 48.9183 157.237 47.947 157.237 46.7813V43.673C157.237 42.3131 158.403 41.3418 159.568 41.3418H164.619C165.785 41.3418 166.951 42.3131 166.951 43.4787V46.5871Z" fill="black"/>
<path d="M460.871 33.3761L458.929 33.3789L458.95 47.9492L460.893 47.9463L460.871 33.3761Z" fill="black"/>
<path d="M456.986 33.3761L455.043 33.3789L455.065 47.9492L457.007 47.9463L456.986 33.3761Z" fill="black"/>
<path d="M475.063 33.3789H462.824V47.9492H475.063C476.035 47.9492 476.812 47.3664 476.812 46.395V35.1273C476.812 34.156 476.035 33.3789 475.063 33.3789Z" fill="black"/>
<path d="M364.912 33.5732V48.1435L453.111 47.9492V33.3789C453.111 33.3789 365.301 33.5732 364.912 33.5732Z" fill="black"/>
<path d="M362.969 31.4327L356.17 25.7988V56.6878C356.17 56.6878 361.221 52.2196 362.969 50.4712V31.4327Z" fill="black"/>
<path d="M354.227 25.0234H271.857V57.2723H354.227V25.0234ZM340.823 41.1479V50.2786H339.074V41.1479H330.332V50.2786H328.583V41.1479H319.841V50.2786H318.093V41.1479H309.351V50.2786H307.602V41.1479H298.86V50.2786H297.112V41.1479H288.37V50.2786H286.621V41.1479V39.2052V30.463H288.37V39.2052H297.112V30.463H298.86V39.2052H307.602V30.463H309.351V39.2052H318.093V30.463H319.841V39.2052H328.583V30.463H330.332V39.2052H339.074V30.463H340.823V39.2052V41.1479Z" fill="black"/>
<path d="M263.503 149.746C261.172 142.558 251.458 110.698 250.487 90.2992C250.487 88.3565 250.487 85.6367 250.487 85.6367L232.614 87.1909L231.254 87.3852L225.037 87.968L218.432 88.5508C218.432 89.5221 218.432 90.4935 218.432 91.8534V94.5732C218.821 108.949 220.958 136.73 232.225 159.071C232.42 159.848 233.197 160.237 233.974 159.848C233.974 159.848 233.974 159.848 234.168 159.848L262.143 151.689C263.309 151.494 263.891 150.523 263.503 149.746ZM237.082 151.883C229.894 133.233 225.814 113.806 225.037 93.9903L227.369 93.7961C228.146 113.417 232.031 132.844 239.219 151.106L237.082 151.883ZM244.076 149.746C237.276 133.621 233.197 112.446 232.614 93.2133L234.751 93.019C235.334 112.057 239.025 130.902 246.019 148.775L244.076 149.746ZM251.652 147.803C244.853 130.125 240.967 111.28 240.385 92.2419L242.716 92.0476C243.299 110.698 246.99 129.348 253.595 146.832L251.652 147.803Z" fill="black"/>
<path d="M97.9846 50.0862V33.3789H11.1457C7.06602 37.07 7.26029 45.2294 9.98008 50.0862H97.9846ZM71.9523 44.6466H91.3794V46.2008H71.9523V44.6466ZM17.3624 44.4523H36.7894V46.0065H17.3624V44.4523Z" fill="black"/>
<path d="M10.3687 52.0273C12.1171 61.7409 16.5853 91.27 12.6999 100.012C12.3114 100.789 12.5056 101.955 13.477 102.343C17.3624 103.315 19.3051 102.343 28.0473 96.7095L97.9846 52.0273H10.3687ZM37.3722 81.1679C23.1905 94.7668 23.1905 80.7794 23.1905 80.7794C23.3848 75.1455 23.1905 70.8716 23.1905 66.0148C23.1905 62.5179 25.9103 59.6039 29.6014 59.6039H58.1592C59.9076 59.6039 60.6847 61.7409 59.3248 62.9065C53.3024 67.569 42.4233 76.3111 37.3722 81.1679Z" fill="black"/>
<path d="M211.633 51.4452V46.5884C211.633 46.0056 211.05 45.4228 210.467 45.4228L171.613 45.2285V46.9769C171.419 50.6681 168.505 53.3879 164.814 53.3879H153.546V56.1077C156.654 55.9134 163.454 56.3019 165.202 62.13H209.301C211.633 62.13 213.77 64.0727 213.77 66.404V66.5983V83.1112C213.77 83.8883 214.353 84.4711 215.13 84.2769L249.904 81.5571C250.487 81.5571 251.07 80.9743 251.07 80.3914C251.264 75.5347 251.07 77.0889 251.264 75.3404V59.0217C251.264 58.2446 251.847 57.6618 252.43 57.4675L257.675 56.1077C258.452 55.9134 259.035 55.5248 259.035 54.942V52.9993L213.381 53.1936C212.41 53.1936 211.633 52.4165 211.633 51.4452ZM246.019 75.9232L219.209 77.6717L243.299 73.592L247.573 61.9358L246.019 75.9232Z" fill="black"/>
<path d="M151.603 51.6375V33.5703H147.135V51.6375H151.603Z" fill="black"/>
</svg>
