<svg width="512" height="512" viewBox="0 0 512 512" fill="none" xmlns="http://www.w3.org/2000/svg">
<path d="M93.7325 379.146C91.0541 377.667 90.2621 374.175 92.077 371.718L100.504 360.433C100.504 360.433 114.711 359.159 104.901 375.769C104.901 375.769 102.167 379.034 104.116 382.689C104.116 382.689 109.2 389.615 106.06 398.057C106.06 398.057 105.733 398.892 105.52 400.123C104.676 405.021 110.634 407.979 114.121 404.419C117.608 400.858 121.753 394.077 126.201 380.1C126.201 380.1 133.768 359.126 175.335 323.118C175.446 323.031 175.53 322.936 175.631 322.831C177.925 320.445 208.326 288.897 218.343 280.527C218.472 280.43 218.566 280.353 218.712 280.245C220.811 278.802 240.393 265.117 249.678 253.198C249.678 253.198 268.619 233.163 288.022 223.808L317.368 206.635C318.234 206.135 318.898 205.405 319.328 204.51C320.852 201.39 324.484 193.519 325.731 187.279C326.248 184.695 326.59 178.885 324.097 177.969C322.989 177.569 320.474 179.414 320.343 176.787L318.289 173.308L322.473 170.315L323.883 172.758C323.883 172.758 332.002 165.46 332.355 178.351C332.355 178.351 331.047 196.566 326.104 206.926C325.898 207.368 325.634 207.751 325.323 208.093C322.489 211.345 307.019 228.591 281.251 248.041L234.855 284.966C234.751 285.026 234.668 285.121 234.546 285.191C232.239 286.754 203.207 306.472 193.81 318.756C193.319 319.386 192.723 319.915 191.99 320.246C187.267 322.465 168.363 331.924 159.265 344.567C159.058 344.848 158.848 345.085 158.601 345.297C155.732 347.807 136.917 364.86 131.916 387.239C131.879 387.376 131.86 387.502 131.796 387.632C130.765 390.606 118.093 425.82 100.929 414.252C100.061 413.668 99.4517 412.772 99.0975 411.799C97.9318 408.5 95.3571 400.24 95.0655 390.455C95.0406 389.892 95.1251 389.358 95.2988 388.819C95.607 387.833 96.1321 385.982 96.4494 384.251C96.7999 382.178 95.7092 380.129 93.8665 379.138C93.8465 379.103 93.8018 379.106 93.7645 379.081L93.7325 379.146Z" fill="black"/>
<path d="M240.359 214.698C242.037 215.323 243.752 216.574 244.999 219.294L245.139 219.537L245.165 219.822C245.216 220.07 245.496 221.756 245.187 224.059L335.1 159.746C335.1 159.746 336.258 156.952 338.304 153.855L240.342 214.708L240.359 214.698Z" fill="black"/>
<path d="M234.135 227.439C235.216 226.815 235.586 225.432 234.962 224.352C234.338 223.271 232.956 222.9 231.875 223.524C230.794 224.148 230.424 225.531 231.048 226.612C231.672 227.692 233.054 228.063 234.135 227.439Z" fill="black"/>
<path d="M220.698 235.888C221.176 235.612 221.34 235.001 221.064 234.522C220.788 234.044 220.176 233.88 219.698 234.156C219.22 234.432 219.056 235.044 219.332 235.522C219.608 236.001 220.22 236.164 220.698 235.888Z" fill="black"/>
<path d="M208.661 244.478C209.139 244.202 209.303 243.59 209.027 243.112C208.751 242.634 208.139 242.47 207.661 242.746C207.183 243.022 207.019 243.634 207.295 244.112C207.571 244.59 208.183 244.754 208.661 244.478Z" fill="black"/>
<path d="M187.176 223.904C186.036 224.77 184.916 225.67 183.878 226.593C181.158 229.041 180.985 233.182 183.185 236.993C183.185 236.993 185.856 242.979 195.933 239.032L187.193 223.894L187.176 223.904Z" fill="black"/>
<path d="M340.156 137.543L197.245 217.304C197.245 217.304 193.29 219.495 189.037 222.528L198.027 238.1C200.012 237.138 202.212 235.868 204.715 234.123L345.429 146.715C351.143 143.693 428.226 98.9584 444.211 89.6834C445.804 88.7634 446.353 86.7143 445.433 85.1208L443.833 82.3494C442.913 80.7559 440.882 80.1968 439.288 81.1168L340.158 137.587L340.156 137.543Z" fill="black"/>
<path d="M45.6065 338.271C45.4581 336.694 45.8781 335.181 46.6412 333.863L40.4769 337.307C37.9107 338.742 36.4024 341.53 36.6685 344.471C37.8088 357.646 42.3262 394.392 57.4351 411.281C59.1055 413.134 62.0765 412.92 63.4865 410.881C64.4675 409.461 65.705 407.684 67.1495 405.626C66.8883 405.453 66.5951 405.345 66.3731 405.081C51.2469 388.202 46.7468 351.447 45.5792 338.264L45.6065 338.271Z" fill="black"/>
<path d="M173.326 278.759C172.761 278.739 172.237 278.672 171.706 278.632C167.457 278.314 164.1 277.019 161.467 275.259C160.823 274.823 160.213 274.367 159.655 273.881C159.635 273.846 159.608 273.839 159.571 273.814C159.023 273.345 158.537 272.863 158.068 272.372C158.038 272.32 158.001 272.295 157.954 272.253C157.502 271.752 157.078 271.257 156.689 270.743C156.669 270.708 156.639 270.657 156.619 270.622C156.22 270.09 155.838 269.549 155.511 269.022C155.471 268.952 155.441 268.9 155.401 268.831C155.171 268.433 154.941 268.034 154.721 267.653C154.671 267.567 154.621 267.48 154.581 267.411C153.962 266.22 153.474 265.094 153.107 264.058C153.057 263.972 153.042 263.865 153.009 263.769C152.901 263.461 152.813 263.189 152.715 262.899C152.682 262.803 152.649 262.706 152.617 262.609C152.536 262.31 152.448 262.037 152.377 261.755C152.112 260.776 151.978 260.022 151.911 259.668C149.56 260.795 143.013 265.336 135.239 282.712C135.239 282.712 131.3 287.85 125.636 292.76C124.964 293.356 124.237 293.937 123.51 294.518C123.441 294.558 123.382 294.615 123.305 294.683C122.637 295.207 121.933 295.706 121.228 296.205C121.089 296.285 120.971 296.4 120.832 296.48C120.187 296.922 119.521 297.329 118.873 297.727C118.752 297.797 118.63 297.867 118.509 297.937C118.423 297.987 118.336 298.037 118.249 298.087C117.643 298.437 117.017 298.752 116.408 299.057C116.321 299.107 116.235 299.157 116.131 299.217C115.958 299.317 115.784 299.417 115.601 299.5C115.017 299.768 114.43 299.991 113.833 300.198C113.684 300.26 113.509 300.316 113.36 300.378C113.201 300.424 113.063 300.504 112.904 300.549C112.325 300.745 111.74 300.852 111.157 301.003C110.83 301.077 110.506 301.195 110.186 301.241C109.574 301.34 108.966 301.368 108.358 301.395C108.063 301.404 107.753 301.467 107.458 301.476C106.553 301.468 105.652 301.388 104.78 301.198L50.2928 331.548L48.5352 334.063C47.9738 335.011 47.8612 337.016 47.9575 338.023C48.9325 349.192 53.293 386.906 68.1599 403.496L68.3839 403.643C68.4751 403.521 68.5563 403.382 68.6649 403.25C68.6649 403.25 68.6822 403.24 68.6996 403.23C69.0719 402.715 69.4515 402.173 69.8211 401.613C69.9197 401.463 70.0356 401.304 70.1341 401.155C70.2081 401.043 70.282 400.931 70.3559 400.819C70.6689 400.361 70.992 399.921 71.3223 399.453C71.66 398.958 72.0076 398.48 72.3626 397.974C72.693 397.507 73.0306 397.011 73.3856 396.506C73.6247 396.16 73.8811 395.804 74.1202 395.459C74.4925 394.943 74.8549 394.411 75.2345 393.868C75.4489 393.56 75.6807 393.241 75.9125 392.923C76.408 392.221 76.9035 391.519 77.4064 390.79C77.4976 390.668 77.5962 390.519 77.7047 390.387C78.2495 389.61 78.7943 388.834 79.3565 388.047C79.4724 387.888 79.5709 387.739 79.6868 387.58C79.8273 387.383 79.9505 387.196 80.0911 387C80.52 386.383 80.9416 385.793 81.3705 385.176C83.5743 382.033 85.8794 378.785 88.1992 375.482C88.3817 375.239 88.5541 374.977 88.7193 374.743C89.0177 374.34 89.2888 373.93 89.5871 373.526C89.9002 373.069 90.2405 372.618 90.5535 372.16C90.8173 371.777 91.091 371.411 91.3374 371.038C91.801 370.401 92.2545 369.746 92.7181 369.109C93.0484 368.641 93.3961 368.163 93.7264 367.695C93.9409 367.387 94.1654 367.096 94.3798 366.787C94.6609 366.394 94.9419 366.001 95.2057 365.617C95.4448 365.271 95.6765 364.953 95.9156 364.607C96.3692 363.953 96.8501 363.305 97.3036 362.651C97.3529 362.576 97.3949 362.529 97.4442 362.454C97.7252 362.061 98.0063 361.668 98.3047 361.265C98.8668 360.478 99.4289 359.692 99.991 358.905C100.156 358.671 100.321 358.437 100.479 358.231C101.024 357.454 101.579 356.695 102.134 355.936C102.365 355.618 102.604 355.272 102.836 354.953C102.977 354.757 103.1 354.57 103.251 354.391C103.697 353.763 104.143 353.136 104.599 352.527C104.732 352.357 104.856 352.171 104.972 352.011C105.295 351.571 105.6 351.14 105.906 350.71C106.236 350.242 106.584 349.764 106.907 349.323C106.956 349.249 107.016 349.191 107.048 349.127C107.065 349.117 107.089 349.08 107.097 349.052C108.47 347.151 109.812 345.314 111.079 343.589C111.269 343.318 111.451 343.074 111.651 342.82C112.09 342.22 112.522 341.648 112.936 341.085C113.143 340.804 113.326 340.56 113.533 340.279C113.698 340.045 113.856 339.838 114.031 339.622C114.245 339.313 114.487 339.012 114.712 338.72C114.877 338.487 115.052 338.27 115.234 338.026C115.599 337.538 115.964 337.05 116.322 336.59C116.512 336.318 116.712 336.065 116.911 335.811C117.027 335.651 117.143 335.492 117.276 335.323C117.452 335.106 117.599 334.882 117.757 334.676C117.957 334.422 118.157 334.168 118.339 333.924C118.381 333.876 118.413 333.812 118.455 333.765C118.68 333.473 118.904 333.182 119.121 332.918C119.297 332.701 119.454 332.495 119.612 332.288C119.854 331.987 120.071 331.723 120.278 331.442C120.429 331.263 120.587 331.056 120.737 330.877C120.937 330.623 121.13 330.396 121.305 330.179C121.431 330.038 121.564 329.868 121.672 329.736C121.756 329.642 121.816 329.584 121.882 329.5C121.983 329.395 122.075 329.273 122.159 329.178C122.243 329.084 122.334 328.962 122.428 328.884C122.638 328.648 122.833 328.466 123.003 328.321C123.003 328.321 132.981 318.403 141.853 305.729C141.853 305.729 156.781 286.903 166.035 283.13C166.332 283.005 166.654 282.842 166.954 282.762L174.652 278.455C173.956 278.649 173.495 278.731 173.45 278.734L173.326 278.759Z" fill="black"/>
<path d="M188.87 271.239L187.71 271.909C186.345 272.905 184.777 273.949 183.149 274.889L182.698 275.149C179.716 276.824 177.346 278.239 175.781 278.727L170.056 281.732C170.05 282.521 170.626 283.92 171.098 284.456C173.903 287.594 176.552 289.944 181.148 289.023C184.035 288.465 186.614 288.131 190.209 284.877C197.858 277.967 194.166 267.812 194.166 267.812L188.888 271.229L188.87 271.239ZM189.673 283.27C182.963 288.968 178.345 288.009 176.102 286.925C173.86 285.841 172.049 282.544 172.049 282.544L176.312 280.568C176.312 280.568 177.681 286.059 183.555 284.354L185.045 283.494C185.045 283.494 177.742 283.645 178.824 279.118L184.124 276.658L187.866 274.66L192.178 271.408C192.178 271.408 196.39 277.544 189.68 283.242L189.673 283.27Z" fill="black"/>
<path d="M186.728 265.454C185.473 267.241 183.865 268.816 181.856 269.976C174.356 274.306 164.622 271.566 160.172 263.858C155.722 256.15 158.216 246.35 165.716 242.02C167.742 240.85 169.945 240.225 172.157 240.057L170.631 237.774L156.082 246.174C156.082 246.174 152.585 252.396 153.14 258.958C153.14 258.958 155.28 277.144 173.534 277.482C173.534 277.482 177.161 276.843 182.137 274.063C187.114 271.282 191.655 267.228 191.655 267.228L189.875 264.145L186.998 265.922L186.738 265.471L186.728 265.454Z" fill="black"/>
<path d="M237.465 216.485L231.936 219.909L205.924 236.058C204.498 237.066 203.065 237.986 201.732 238.756C195.479 242.366 190.234 243.523 186.13 242.174C182.456 240.97 181.153 238.235 181.018 237.92C179.308 234.958 178.907 231.703 179.743 228.911L161.617 239.237C161.617 239.237 153.655 236.928 151.58 240.413C151.58 240.413 150.033 243.615 154.731 245.152L155.117 245.299L155.663 245.446L170.905 236.484L173.307 240.085C178.963 239.961 184.575 242.841 187.655 248.176C190.735 253.511 190.427 259.578 187.65 264.368L190.174 262.819L192.814 267.392L192.253 267.9C192.253 267.9 191.581 268.496 190.632 269.252L194.265 267.224C194.265 267.224 193.029 259.484 229.701 234.478C233.213 232.081 237.074 229.528 241.319 226.801L242.333 226.077C243.388 222.904 242.87 220.247 242.87 220.247C241.43 217.152 239.367 216.38 237.455 216.468L237.465 216.485ZM209.131 245.292C208.213 245.822 207.021 245.517 206.481 244.582C205.941 243.646 206.256 242.472 207.191 241.932C208.126 241.392 209.301 241.706 209.841 242.642C210.381 243.577 210.066 244.752 209.131 245.292ZM221.159 236.685C220.241 237.215 219.049 236.91 218.509 235.974C217.969 235.039 218.284 233.864 219.219 233.324C220.155 232.784 221.329 233.099 221.87 234.034C222.41 234.97 222.095 236.145 221.159 236.685ZM234.605 228.252C233.081 229.132 231.114 228.605 230.234 227.081C229.354 225.556 229.881 223.589 231.405 222.709C232.929 221.829 234.896 222.356 235.776 223.881C236.656 225.405 236.129 227.372 234.605 228.252Z" fill="black"/>
<path d="M438.491 79.1752L434.804 78.6707L430.751 81.0107L429.363 84.4452L429.893 85.3632L439.021 80.0932L438.491 79.1752Z" fill="black"/>
<path d="M166.45 242.889C159.383 246.969 157.05 256.168 161.25 263.443C165.45 270.718 174.584 273.296 181.65 269.216C188.717 265.136 191.05 255.938 186.85 248.663C182.65 241.388 173.517 238.809 166.45 242.889ZM164.877 252.365L165.696 251.823L165.769 251.389L166.369 250.788C166.525 250.698 166.701 250.643 166.896 250.622C166.396 248.995 167.568 247.025 167.715 246.801L168.771 245.868C168.578 246.534 169.978 249.12 170.817 249.813C171.046 249.289 171.439 248.97 171.498 248.912L172.398 248.231C172.502 247.732 172.756 247.331 173.103 247.131L173.917 246.661L174.625 247.569C174.855 247.967 176.578 249.351 177.735 250.115C178.695 250.738 179.347 252.348 179.652 253.235L182.959 254.004L184.719 257.052C185.329 258.109 186.03 260.083 186.03 260.083C186.005 261.16 185.67 261.699 185.133 262.009C184.839 262.179 184.522 262.27 184.175 262.309L185.337 263.162L181.111 263.962C181.455 264.318 181.769 264.783 181.653 265.381C181.593 265.716 181.406 266.194 180.8 266.544C180.246 266.864 179.579 266.948 179.445 266.956L178.964 267.003L178.664 266.645C178.647 266.655 178.232 266.456 177.14 266.324L174.504 265.999C172.566 265.801 172.36 263.126 172.341 262.813L171.532 261.571L170.085 260.905L168.698 259.582L168.628 259.622C167.745 260.132 167.053 260.093 166.606 259.958C165.776 259.722 165.379 259.073 165.309 258.952C163.474 255.854 163.489 255.8 163.606 255.363L163.708 254.98L164.055 254.78C164.436 254.56 164.744 254.613 165.005 254.786L165.287 254.115L165.237 253.428L163.798 252.896L164.912 252.345L164.877 252.365Z" fill="black"/>
<path d="M168.75 258.351L170.447 260.05L172.125 260.836L173.235 262.759C173.235 262.759 173.366 264.946 174.565 265.063C175.764 265.179 175.458 265.17 177.218 265.378C178.978 265.586 179.335 266.004 179.335 266.004C179.335 266.004 180.609 265.892 180.72 265.204C180.831 264.516 179.007 263.837 179.56 263.195C180.113 262.552 181.187 262.972 181.187 262.972L183.038 262.619L181.615 261.593L182.108 261.008C182.108 261.008 184.919 262.156 185.144 260.387C185.144 260.387 184.476 258.509 183.896 257.505L182.336 254.803L178.902 254.014C178.902 254.014 178.189 251.539 177.191 250.891C176.193 250.243 174.145 248.655 173.785 248.031C173.425 247.407 172.688 249.172 174.002 250.168C175.317 251.165 172.556 250.703 172.063 249.649C172.063 249.649 170.992 250.475 172.101 251.474C173.209 252.474 167.804 249.752 168.525 247.28C168.525 247.28 166.335 250.808 169.171 251.48C172.188 252.186 170.169 253.329 169.373 252.91C169.373 252.91 166.86 250.597 166.61 251.965C166.361 253.333 165.249 253.167 165.249 253.167L168.058 253.393C168.058 253.393 170.833 253.799 170.086 254.785C169.339 255.771 165.171 254.551 165.171 254.551L168.647 256.493C168.647 256.493 166.096 257.874 164.837 256.014C163.579 254.154 166.096 258.474 166.096 258.474C166.096 258.474 166.882 259.915 168.74 258.334L168.75 258.351Z" fill="black"/>
</svg>
