<svg width="512" height="160" viewBox="0 0 512 160" fill="none" xmlns="http://www.w3.org/2000/svg">
<path d="M54.4061 105.625C52.8261 103.005 53.8861 99.5846 56.6862 98.3646L69.6266 92.8044C69.6266 92.8044 82.5671 98.8046 65.7665 108.285C65.7665 108.285 61.7664 109.745 61.6264 113.885C61.6264 113.885 62.5664 122.425 55.6262 128.166C55.6262 128.166 54.9261 128.726 54.1261 129.686C50.946 133.506 54.6261 139.046 59.4263 137.706C64.2264 136.366 71.2067 132.566 82.0471 122.685C82.0471 122.685 99.0876 108.305 153.089 97.9046C153.229 97.8846 153.349 97.8446 153.489 97.8046C156.67 96.8845 198.771 84.7641 211.631 82.524C211.791 82.504 211.911 82.484 212.091 82.464C214.632 82.264 238.432 80.204 252.433 74.5238C252.433 74.5238 278.854 66.6435 300.334 68.2436L334.336 68.0436C335.336 68.0436 336.276 67.7435 337.096 67.1835C339.976 65.2435 347.056 60.2433 351.256 55.4631C352.996 53.4831 356.196 48.6229 354.496 46.5828C353.736 45.6828 350.636 46.0228 351.836 43.6827L351.796 39.6426L356.916 39.1426V41.9627C356.916 41.9627 367.597 39.7026 361.456 51.043C361.456 51.043 351.216 66.1635 341.756 72.6637C341.356 72.9437 340.936 73.1437 340.496 73.2837C336.416 74.6838 314.395 81.884 282.354 85.8442L223.712 94.6244C223.592 94.6244 223.472 94.6644 223.332 94.6644C220.552 94.8645 185.551 97.4245 171.27 103.365C170.53 103.665 169.75 103.825 168.95 103.745C163.75 103.305 142.649 102.045 128.449 108.445C128.129 108.585 127.829 108.685 127.509 108.745C123.768 109.485 98.9476 114.845 83.4271 131.726C83.3271 131.826 83.2471 131.926 83.1271 132.006C80.747 134.066 52.166 158.227 43.0857 139.626C42.6257 138.686 42.5457 137.606 42.7257 136.586C43.3657 133.146 45.2658 124.705 49.906 116.085C50.166 115.585 50.506 115.165 50.926 114.785C51.686 114.085 53.0661 112.745 54.2061 111.405C55.5462 109.785 55.6262 107.465 54.5261 105.685C54.5261 105.645 54.4861 105.625 54.4661 105.585L54.4061 105.625Z" fill="black"/>
<path d="M263.611 36.5229C264.751 37.9029 265.611 39.843 265.331 42.8231V43.1031L265.211 43.3631C265.131 43.6031 264.531 45.2032 263.111 47.0432L373.135 36.3029C373.135 36.3029 375.535 34.4628 378.855 32.8027L263.591 36.5229H263.611Z" fill="black"/>
<path d="M251.852 44.4419C253.1 44.4419 254.112 43.43 254.112 42.1819C254.112 40.9337 253.1 39.9219 251.852 39.9219C250.604 39.9219 249.592 40.9337 249.592 42.1819C249.592 43.43 250.604 44.4419 251.852 44.4419Z" fill="black"/>
<path d="M235.99 45.043C236.543 45.043 236.99 44.5953 236.99 44.043C236.99 43.4907 236.543 43.043 235.99 43.043C235.438 43.043 234.99 43.4907 234.99 44.043C234.99 44.5953 235.438 45.043 235.99 45.043Z" fill="black"/>
<path d="M221.271 46.4629C221.824 46.4629 222.271 46.0152 222.271 45.4629C222.271 44.9106 221.824 44.4629 221.271 44.4629C220.719 44.4629 220.271 44.9106 220.271 45.4629C220.271 46.0152 220.719 46.4629 221.271 46.4629Z" fill="black"/>
<path d="M212.95 17.9023C211.53 18.0823 210.11 18.3023 208.75 18.5823C205.17 19.3423 202.95 22.8423 202.95 27.2424C202.95 27.2424 202.27 33.7624 212.97 35.3824V17.9023H212.95Z" fill="black"/>
<path d="M388.616 19.6016L224.97 17.2215C224.97 17.2215 220.45 17.1415 215.25 17.6415V35.6221C217.45 35.7821 219.99 35.7821 223.03 35.5221L388.596 30.1819C395.056 30.4219 484.179 30.2219 502.66 30.1819C504.5 30.1819 506 28.6819 506 26.8418V23.6417C506 21.8017 504.52 20.3016 502.68 20.3016L388.596 19.6416L388.616 19.6016Z" fill="black"/>
<path d="M33.1646 46.1625C33.8246 44.7225 34.9447 43.6225 36.2647 42.8624L29.2045 42.7624C26.2644 42.7224 23.5643 44.3825 22.3243 47.0626C16.7241 59.043 2.26358 93.1241 6.90373 115.305C7.42375 117.745 10.1038 119.045 12.3439 117.985C13.904 117.245 15.864 116.325 18.1441 115.265C18.0041 114.985 17.8041 114.745 17.7441 114.405C13.0839 92.2241 27.5644 58.1429 33.1446 46.1425L33.1646 46.1625Z" fill="black"/>
<path d="M173.529 58.4823C173.049 58.1823 172.629 57.8623 172.189 57.5623C168.669 55.1622 166.409 52.3621 165.009 49.522C164.669 48.822 164.369 48.122 164.129 47.4219C164.129 47.3819 164.109 47.3619 164.089 47.3219C163.849 46.6419 163.669 45.9819 163.509 45.3219C163.509 45.2619 163.489 45.2219 163.469 45.1619C163.329 44.5018 163.209 43.8618 163.129 43.2218C163.129 43.1818 163.129 43.1218 163.129 43.0818C163.049 42.4218 162.989 41.7618 162.969 41.1417C162.969 41.0617 162.969 41.0017 162.969 40.9217C162.969 40.4617 162.969 40.0017 162.969 39.5617C162.969 39.4617 162.969 39.3617 162.969 39.2817C163.029 37.9416 163.169 36.7216 163.369 35.6415C163.369 35.5415 163.409 35.4415 163.429 35.3415C163.489 35.0215 163.549 34.7415 163.609 34.4415C163.629 34.3415 163.649 34.2415 163.669 34.1415C163.749 33.8415 163.809 33.5615 163.889 33.2815C164.149 32.3014 164.409 31.5814 164.529 31.2414C161.929 31.0414 153.988 31.7014 138.568 42.8618C138.568 42.8618 132.588 45.3419 125.227 46.7619C124.347 46.9419 123.427 47.0819 122.507 47.2219C122.427 47.2219 122.347 47.2419 122.247 47.2619C121.407 47.3819 120.547 47.4619 119.687 47.5419C119.527 47.5419 119.367 47.5819 119.207 47.5819C118.427 47.642 117.647 47.6619 116.887 47.6819C116.747 47.6819 116.607 47.6819 116.467 47.6819C116.367 47.6819 116.267 47.6819 116.167 47.6819C115.467 47.6819 114.767 47.642 114.087 47.6019C113.987 47.6019 113.887 47.6019 113.767 47.6019C113.567 47.6019 113.367 47.6019 113.167 47.5819C112.527 47.5219 111.907 47.4219 111.287 47.3019C111.127 47.2819 110.947 47.2419 110.787 47.2219C110.627 47.1819 110.467 47.1819 110.307 47.1419C109.707 47.0219 109.147 46.8219 108.567 46.6619C108.247 46.5619 107.907 46.5019 107.607 46.3819C107.027 46.1619 106.487 45.8819 105.947 45.6019C105.687 45.4619 105.387 45.3619 105.127 45.2219C104.347 44.7619 103.607 44.2418 102.947 43.6418L40.5846 42.6818L37.8045 43.9818C36.8445 44.5218 35.7444 46.2019 35.3244 47.1219C30.5843 57.2823 15.5038 92.1235 20.0839 113.924L20.2039 114.164C20.3439 114.104 20.4839 114.024 20.6439 113.964C20.6439 113.964 20.6639 113.964 20.6839 113.964C21.264 113.704 21.864 113.424 22.464 113.124C22.624 113.044 22.804 112.964 22.964 112.884C23.084 112.824 23.204 112.764 23.324 112.704C23.824 112.464 24.3241 112.244 24.8441 112.004C25.3841 111.744 25.9241 111.504 26.4841 111.244C27.0042 111.004 27.5442 110.744 28.1042 110.484C28.4842 110.304 28.8842 110.124 29.2642 109.944C29.8443 109.684 30.4243 109.404 31.0243 109.124C31.3643 108.964 31.7243 108.804 32.0843 108.644C32.8644 108.284 33.6444 107.924 34.4444 107.544C34.5844 107.484 34.7444 107.404 34.9044 107.344C35.7645 106.944 36.6245 106.544 37.5045 106.144C37.6845 106.064 37.8445 105.984 38.0245 105.904C38.2445 105.804 38.4445 105.704 38.6645 105.604C39.3446 105.284 40.0046 104.984 40.6846 104.664C44.1647 103.044 47.7849 101.384 51.445 99.6837C51.725 99.5637 52.005 99.4237 52.265 99.3037C52.725 99.1037 53.165 98.8837 53.625 98.6837C54.1251 98.4437 54.6451 98.2237 55.1451 97.9836C55.5651 97.7836 55.9851 97.6036 56.3851 97.4036C57.1052 97.0836 57.8252 96.7436 58.5452 96.4236C59.0652 96.1836 59.6053 95.9436 60.1253 95.7036C60.4653 95.5436 60.8053 95.4036 61.1453 95.2436C61.5853 95.0435 62.0253 94.8435 62.4453 94.6435C62.8254 94.4635 63.1854 94.3035 63.5654 94.1235C64.2854 93.7835 65.0254 93.4635 65.7455 93.1235C65.8255 93.0835 65.8855 93.0635 65.9655 93.0235C66.4055 92.8235 66.8455 92.6235 67.3055 92.4235C68.1855 92.0234 69.0656 91.6234 69.9456 91.2234C70.2056 91.1034 70.4656 90.9834 70.7056 90.8834C71.5657 90.4834 72.4257 90.1034 73.2857 89.7234C73.6457 89.5634 74.0257 89.3834 74.3857 89.2233C74.6058 89.1233 74.8058 89.0233 75.0258 88.9433C75.7258 88.6233 76.4258 88.3033 77.1258 88.0033C77.3259 87.9233 77.5259 87.8233 77.7059 87.7433C78.2059 87.5233 78.6859 87.3033 79.1659 87.0833C79.6859 86.8433 80.2259 86.6033 80.726 86.3833C80.806 86.3433 80.886 86.3232 80.946 86.2832C80.966 86.2832 81.006 86.2632 81.026 86.2432C83.166 85.2832 85.2461 84.3632 87.2062 83.5032C87.5062 83.3632 87.7862 83.2431 88.0862 83.1231C88.7662 82.8231 89.4263 82.5431 90.0663 82.2631C90.3863 82.1231 90.6663 82.0031 90.9863 81.8631C91.2463 81.7431 91.4863 81.6431 91.7463 81.5431C92.0863 81.3831 92.4464 81.2431 92.7864 81.1031C93.0464 80.9831 93.3064 80.8831 93.5864 80.7631C94.1464 80.5231 94.7064 80.283 95.2465 80.063C95.5465 79.923 95.8465 79.803 96.1465 79.683C96.3265 79.603 96.5065 79.523 96.7065 79.443C96.9665 79.343 97.2065 79.223 97.4465 79.123C97.7465 79.003 98.0465 78.883 98.3266 78.763C98.3866 78.743 98.4466 78.703 98.5066 78.683C98.8466 78.543 99.1866 78.403 99.5066 78.283C99.7666 78.183 100.007 78.083 100.247 77.983C100.607 77.843 100.927 77.723 101.247 77.583C101.467 77.503 101.707 77.403 101.927 77.3229C102.227 77.2029 102.507 77.1029 102.767 77.0029C102.947 76.9429 103.147 76.8629 103.307 76.8029C103.427 76.7629 103.507 76.7429 103.607 76.7029C103.747 76.6629 103.887 76.6029 104.007 76.5629C104.127 76.5229 104.267 76.4629 104.387 76.4429C104.687 76.3429 104.947 76.2829 105.167 76.2429C105.167 76.2429 118.767 72.6428 132.788 66.1026C132.788 66.1026 155.128 57.2623 165.029 58.6223C165.349 58.6623 165.709 58.6823 166.009 58.7623L174.829 58.8823C174.129 58.7023 173.689 58.5423 173.649 58.5223L173.529 58.4823Z" fill="black"/>
<path d="M190.75 59.7438H189.41C187.73 59.9238 185.85 60.0438 183.97 60.0438H183.45C180.03 60.0038 177.27 60.0438 175.67 59.6838L169.21 59.4238C168.81 60.1038 168.61 61.6038 168.75 62.3038C169.61 66.4238 170.73 69.7838 175.17 71.2838C177.95 72.2438 180.35 73.2438 185.09 72.2238C195.17 70.0638 197.05 59.4238 197.05 59.4238L190.77 59.7438H190.75ZM185.43 70.5638C176.77 72.1438 173.25 69.0038 171.85 66.9438C170.45 64.8838 170.53 61.1238 170.53 61.1238L175.21 61.5438C175.21 61.5438 173.65 66.9838 179.59 68.4438H181.31C181.31 68.4438 174.91 64.9238 178.11 61.5438L183.93 62.0638L188.17 62.2038L193.53 61.5438C193.53 61.5438 194.11 68.9638 185.45 70.5438L185.43 70.5638Z" fill="black"/>
<path d="M191.789 53.6626C189.809 54.5826 187.629 55.1426 185.309 55.1426C176.649 55.1426 169.589 47.9026 169.589 39.0026C169.589 30.1026 176.649 22.8626 185.309 22.8626C187.649 22.8626 189.869 23.4226 191.869 24.3826L191.689 21.6426H174.889C174.889 21.6426 168.749 25.2826 165.949 31.2426C165.949 31.2426 158.709 48.0626 174.349 57.4826C174.349 57.4826 177.809 58.7426 183.509 58.8226C189.209 58.9026 195.169 57.6626 195.169 57.6626V54.1026L191.789 54.2026V53.6826V53.6626Z" fill="black"/>
<path d="M260.211 36.6226L253.711 36.8226L223.11 37.8027C221.37 37.9627 219.67 38.0427 218.13 38.0427C210.91 38.0427 205.789 36.4226 202.909 33.2025C200.329 30.3224 200.569 27.3023 200.609 26.9623C200.609 23.5422 201.889 20.5221 204.009 18.522L183.149 18.402C183.149 18.402 177.408 12.4218 173.868 14.4019C173.868 14.4019 170.928 16.402 174.228 20.0821L174.488 20.4021L174.888 20.8021L192.569 20.6621L192.849 24.9822C197.809 27.7023 201.229 33.0025 201.229 39.1627C201.229 45.3229 197.929 50.4231 193.129 53.1832L196.089 53.1032V58.3834L195.349 58.5434C195.349 58.5434 194.469 58.7234 193.269 58.9034L197.429 58.9634C197.429 58.9634 200.229 51.6431 244.491 48.323C248.731 48.003 253.351 47.723 258.391 47.483L259.631 47.363C262.131 45.1429 263.011 42.5828 263.011 42.5828C263.311 39.1827 261.911 37.4827 260.211 36.6026V36.6226ZM221.27 47.403C220.21 47.403 219.33 46.543 219.33 45.4629C219.33 44.3829 220.19 43.5229 221.27 43.5229C222.35 43.5229 223.21 44.3829 223.21 45.4629C223.21 46.543 222.35 47.403 221.27 47.403ZM235.99 45.963C234.93 45.963 234.05 45.1029 234.05 44.0229C234.05 42.9429 234.91 42.0828 235.99 42.0828C237.07 42.0828 237.931 42.9429 237.931 44.0229C237.931 45.1029 237.07 45.963 235.99 45.963ZM251.851 45.3829C250.091 45.3829 248.651 43.9429 248.651 42.1828C248.651 40.4228 250.091 38.9827 251.851 38.9827C253.611 38.9827 255.051 40.4228 255.051 42.1828C255.051 43.9429 253.611 45.3829 251.851 45.3829Z" fill="black"/>
<path d="M502.96 18.2214L500.02 15.9414H495.34L492.42 18.2214V19.2814H502.96V18.2214Z" fill="black"/>
<path d="M185.509 23.9824C177.349 23.9824 170.729 30.7824 170.729 39.1824C170.729 47.5824 177.349 54.3825 185.509 54.3825C193.669 54.3825 200.289 47.5824 200.289 39.1824C200.289 30.7824 193.669 23.9824 185.509 23.9824ZM179.409 31.4024L180.389 31.3424L180.669 31.0024L181.489 30.7824C181.669 30.7824 181.849 30.8224 182.029 30.9024C182.409 29.2424 184.409 28.1224 184.649 28.0024L186.029 27.7224C185.529 28.2024 185.449 31.1424 185.829 32.1624C186.289 31.8224 186.789 31.7424 186.869 31.7224L187.989 31.5824C188.329 31.2024 188.749 30.9824 189.149 30.9824H190.089L190.249 32.1224C190.249 32.5824 191.049 34.6424 191.669 35.8824C192.189 36.9024 191.949 38.6224 191.769 39.5424L194.249 41.8624V45.3824C194.249 46.6024 193.869 48.6624 193.869 48.6624C193.309 49.5824 192.749 49.8825 192.129 49.8825C191.789 49.8825 191.469 49.8025 191.149 49.6624L191.729 50.9825L187.669 49.5625C187.789 50.0425 187.829 50.6025 187.429 51.0625C187.209 51.3225 186.809 51.6425 186.109 51.6425C185.469 51.6425 184.849 51.3825 184.729 51.3225L184.289 51.1224L184.209 50.6625C184.189 50.6625 183.929 50.2824 183.049 49.6224L180.929 48.0224C179.349 46.8824 180.509 44.4624 180.649 44.1824L180.569 42.7024L179.649 41.4024L179.109 39.5624H179.029C178.009 39.5624 177.429 39.1824 177.109 38.8424C176.509 38.2224 176.489 37.4624 176.489 37.3224C176.449 33.7224 176.489 33.6824 176.809 33.3624L177.089 33.0824H177.489C177.929 33.0824 178.169 33.2824 178.309 33.5624L178.889 33.1224L179.189 32.5024L178.209 31.3224L179.449 31.4024H179.409Z" fill="black"/>
<path d="M179.769 38.5223L180.389 40.8423L181.449 42.3623V44.5823C181.449 44.5823 180.469 46.5423 181.449 47.2423C182.429 47.9423 182.169 47.7823 183.589 48.8423C185.009 49.9023 185.109 50.4423 185.109 50.4423C185.109 50.4423 186.269 50.9823 186.709 50.4423C187.149 49.9023 185.909 48.4023 186.709 48.1223C187.509 47.8423 188.229 48.7423 188.229 48.7423L190.009 49.3623L189.289 47.7623L190.009 47.5023C190.009 47.5023 191.869 49.9023 192.949 48.4823C192.949 48.4823 193.309 46.5223 193.309 45.3623V42.2423L190.729 39.8423C190.729 39.8423 191.349 37.3423 190.809 36.2823C190.269 35.2223 189.289 32.8223 189.289 32.1023C189.289 31.3823 187.769 32.5423 188.409 34.0623C189.049 35.5823 186.889 33.8023 186.989 32.6423C186.989 32.6423 185.649 32.8223 186.109 34.2423C186.569 35.6623 183.249 30.6023 185.109 28.8223C185.109 28.8223 181.449 30.7823 183.569 32.7823C185.829 34.9023 183.509 34.8823 183.029 34.1223C183.029 34.1223 182.009 30.8623 181.109 31.9223C180.209 32.9823 179.329 32.2823 179.329 32.2823L181.649 33.8823C181.649 33.8823 183.849 35.6223 182.709 36.1023C181.569 36.5823 178.569 33.4423 178.569 33.4423L180.609 36.8623C180.609 36.8623 177.709 36.7823 177.549 34.5423C177.389 32.3023 177.409 37.3023 177.409 37.3023C177.409 37.3023 177.369 38.9423 179.769 38.5023V38.5223Z" fill="black"/>
</svg>
