<svg width="512" height="512" viewBox="0 0 512 512" fill="none" xmlns="http://www.w3.org/2000/svg">
<path d="M54.4061 281.625C52.8261 279.005 53.8861 275.585 56.6862 274.365L69.6266 268.804C69.6266 268.804 82.5671 274.805 65.7665 284.285C65.7665 284.285 61.7664 285.745 61.6264 289.885C61.6264 289.885 62.5664 298.425 55.6262 304.166C55.6262 304.166 54.9261 304.726 54.1261 305.686C50.946 309.506 54.6261 315.046 59.4263 313.706C64.2264 312.366 71.2067 308.566 82.0471 298.685C82.0471 298.685 99.0876 284.305 153.089 273.905C153.229 273.885 153.349 273.845 153.489 273.805C156.67 272.885 198.771 260.764 211.631 258.524C211.791 258.504 211.911 258.484 212.091 258.464C214.632 258.264 238.432 256.204 252.433 250.524C252.433 250.524 278.854 242.644 300.334 244.244L334.336 244.044C335.336 244.044 336.276 243.744 337.096 243.184C339.976 241.243 347.056 236.243 351.256 231.463C352.996 229.483 356.196 224.623 354.496 222.583C353.736 221.683 350.636 222.023 351.836 219.683L351.796 215.643L356.916 215.143V217.963C356.916 217.963 367.597 215.703 361.456 227.043C361.456 227.043 351.216 242.163 341.756 248.664C341.356 248.944 340.936 249.144 340.496 249.284C336.416 250.684 314.395 257.884 282.354 261.844L223.712 270.624C223.592 270.624 223.472 270.664 223.332 270.664C220.552 270.864 185.551 273.425 171.27 279.365C170.53 279.665 169.75 279.825 168.95 279.745C163.75 279.305 142.649 278.045 128.449 284.445C128.129 284.585 127.829 284.685 127.509 284.745C123.768 285.485 98.9476 290.845 83.4271 307.726C83.3271 307.826 83.2471 307.926 83.1271 308.006C80.747 310.066 52.166 334.227 43.0857 315.626C42.6257 314.686 42.5457 313.606 42.7257 312.586C43.3657 309.146 45.2658 300.705 49.906 292.085C50.166 291.585 50.506 291.165 50.926 290.785C51.686 290.085 53.0661 288.745 54.2061 287.405C55.5462 285.785 55.6262 283.465 54.5261 281.685C54.5261 281.645 54.4861 281.625 54.4661 281.585L54.4061 281.625Z" fill="black"/>
<path d="M263.611 212.523C264.751 213.903 265.611 215.843 265.331 218.823V219.103L265.211 219.363C265.131 219.603 264.531 221.203 263.111 223.043L373.135 212.303C373.135 212.303 375.535 210.463 378.855 208.803L263.591 212.523H263.611Z" fill="black"/>
<path d="M251.852 220.442C253.1 220.442 254.112 219.43 254.112 218.182C254.112 216.934 253.1 215.922 251.852 215.922C250.604 215.922 249.592 216.934 249.592 218.182C249.592 219.43 250.604 220.442 251.852 220.442Z" fill="black"/>
<path d="M235.99 221.043C236.543 221.043 236.99 220.595 236.99 220.043C236.99 219.491 236.543 219.043 235.99 219.043C235.438 219.043 234.99 219.491 234.99 220.043C234.99 220.595 235.438 221.043 235.99 221.043Z" fill="black"/>
<path d="M221.271 222.463C221.824 222.463 222.271 222.015 222.271 221.463C222.271 220.911 221.824 220.463 221.271 220.463C220.719 220.463 220.271 220.911 220.271 221.463C220.271 222.015 220.719 222.463 221.271 222.463Z" fill="black"/>
<path d="M212.95 193.902C211.53 194.082 210.11 194.302 208.75 194.582C205.17 195.342 202.95 198.842 202.95 203.242C202.95 203.242 202.27 209.762 212.97 211.382V193.902H212.95Z" fill="black"/>
<path d="M388.616 195.602L224.97 193.221C224.97 193.221 220.45 193.141 215.25 193.642V211.622C217.45 211.782 219.99 211.782 223.03 211.522L388.596 206.182C395.056 206.422 484.179 206.222 502.66 206.182C504.5 206.182 506 204.682 506 202.842V199.642C506 197.802 504.52 196.302 502.68 196.302L388.596 195.642L388.616 195.602Z" fill="black"/>
<path d="M33.1646 222.163C33.8246 220.722 34.9447 219.622 36.2647 218.862L29.2045 218.762C26.2644 218.722 23.5643 220.382 22.3243 223.063C16.7241 235.043 2.26358 269.124 6.90373 291.305C7.42375 293.745 10.1038 295.045 12.3439 293.985C13.904 293.245 15.864 292.325 18.1441 291.265C18.0041 290.985 17.8041 290.745 17.7441 290.405C13.0839 268.224 27.5644 234.143 33.1446 222.143L33.1646 222.163Z" fill="black"/>
<path d="M173.529 234.482C173.049 234.182 172.629 233.862 172.189 233.562C168.669 231.162 166.409 228.362 165.009 225.522C164.669 224.822 164.369 224.122 164.129 223.422C164.129 223.382 164.109 223.362 164.089 223.322C163.849 222.642 163.669 221.982 163.509 221.322C163.509 221.262 163.489 221.222 163.469 221.162C163.329 220.502 163.209 219.862 163.129 219.222C163.129 219.182 163.129 219.122 163.129 219.082C163.049 218.422 162.989 217.762 162.969 217.142C162.969 217.062 162.969 217.002 162.969 216.922C162.969 216.462 162.969 216.002 162.969 215.562C162.969 215.462 162.969 215.362 162.969 215.282C163.029 213.942 163.169 212.722 163.369 211.642C163.369 211.542 163.409 211.442 163.429 211.342C163.489 211.022 163.549 210.742 163.609 210.442C163.629 210.342 163.649 210.241 163.669 210.141C163.749 209.841 163.809 209.561 163.889 209.281C164.149 208.301 164.409 207.581 164.529 207.241C161.929 207.041 153.988 207.701 138.568 218.862C138.568 218.862 132.588 221.342 125.227 222.762C124.347 222.942 123.427 223.082 122.507 223.222C122.427 223.222 122.347 223.242 122.247 223.262C121.407 223.382 120.547 223.462 119.687 223.542C119.527 223.542 119.367 223.582 119.207 223.582C118.427 223.642 117.647 223.662 116.887 223.682C116.747 223.682 116.607 223.682 116.467 223.682C116.367 223.682 116.267 223.682 116.167 223.682C115.467 223.682 114.767 223.642 114.087 223.602C113.987 223.602 113.887 223.602 113.767 223.602C113.567 223.602 113.367 223.602 113.167 223.582C112.527 223.522 111.907 223.422 111.287 223.302C111.127 223.282 110.947 223.242 110.787 223.222C110.627 223.182 110.467 223.182 110.307 223.142C109.707 223.022 109.147 222.822 108.567 222.662C108.247 222.562 107.907 222.502 107.607 222.382C107.027 222.162 106.487 221.882 105.947 221.602C105.687 221.462 105.387 221.362 105.127 221.222C104.347 220.762 103.607 220.242 102.947 219.642L40.5846 218.682L37.8045 219.982C36.8445 220.522 35.7444 222.202 35.3244 223.122C30.5843 233.282 15.5038 268.123 20.0839 289.924L20.2039 290.164C20.3439 290.104 20.4839 290.024 20.6439 289.964C20.6439 289.964 20.6639 289.964 20.6839 289.964C21.264 289.704 21.864 289.424 22.464 289.124C22.624 289.044 22.804 288.964 22.964 288.884C23.084 288.824 23.204 288.764 23.324 288.704C23.824 288.464 24.3241 288.244 24.8441 288.004C25.3841 287.744 25.9241 287.504 26.4841 287.244C27.0042 287.004 27.5442 286.744 28.1042 286.484C28.4842 286.304 28.8842 286.124 29.2642 285.944C29.8443 285.684 30.4243 285.404 31.0243 285.124C31.3643 284.964 31.7243 284.804 32.0843 284.644C32.8644 284.284 33.6444 283.924 34.4444 283.544C34.5844 283.484 34.7444 283.404 34.9044 283.344C35.7645 282.944 36.6245 282.544 37.5045 282.144C37.6845 282.064 37.8445 281.984 38.0245 281.904C38.2445 281.804 38.4445 281.704 38.6645 281.604C39.3446 281.284 40.0046 280.984 40.6846 280.664C44.1647 279.044 47.7849 277.384 51.445 275.684C51.725 275.564 52.005 275.424 52.265 275.304C52.725 275.104 53.165 274.884 53.625 274.684C54.1251 274.444 54.6451 274.224 55.1451 273.984C55.5651 273.784 55.9851 273.604 56.3851 273.404C57.1052 273.084 57.8252 272.744 58.5452 272.424C59.0652 272.184 59.6053 271.944 60.1253 271.704C60.4653 271.544 60.8053 271.404 61.1453 271.244C61.5853 271.044 62.0253 270.844 62.4453 270.644C62.8254 270.464 63.1854 270.304 63.5654 270.124C64.2854 269.783 65.0254 269.463 65.7455 269.123C65.8255 269.083 65.8855 269.063 65.9655 269.023C66.4055 268.823 66.8455 268.623 67.3055 268.423C68.1855 268.023 69.0656 267.623 69.9456 267.223C70.2056 267.103 70.4656 266.983 70.7056 266.883C71.5657 266.483 72.4257 266.103 73.2857 265.723C73.6457 265.563 74.0257 265.383 74.3857 265.223C74.6058 265.123 74.8058 265.023 75.0258 264.943C75.7258 264.623 76.4258 264.303 77.1258 264.003C77.3259 263.923 77.5259 263.823 77.7059 263.743C78.2059 263.523 78.6859 263.303 79.1659 263.083C79.6859 262.843 80.2259 262.603 80.726 262.383C80.806 262.343 80.886 262.323 80.946 262.283C80.966 262.283 81.006 262.263 81.026 262.243C83.166 261.283 85.2461 260.363 87.2062 259.503C87.5062 259.363 87.7862 259.243 88.0862 259.123C88.7662 258.823 89.4263 258.543 90.0663 258.263C90.3863 258.123 90.6663 258.003 90.9863 257.863C91.2463 257.743 91.4863 257.643 91.7463 257.543C92.0863 257.383 92.4464 257.243 92.7864 257.103C93.0464 256.983 93.3064 256.883 93.5864 256.763C94.1464 256.523 94.7064 256.283 95.2465 256.063C95.5465 255.923 95.8465 255.803 96.1465 255.683C96.3265 255.603 96.5065 255.523 96.7065 255.443C96.9665 255.343 97.2065 255.223 97.4465 255.123C97.7465 255.003 98.0465 254.883 98.3266 254.763C98.3866 254.743 98.4466 254.703 98.5066 254.683C98.8466 254.543 99.1866 254.403 99.5066 254.283C99.7666 254.183 100.007 254.083 100.247 253.983C100.607 253.843 100.927 253.723 101.247 253.583C101.467 253.503 101.707 253.403 101.927 253.323C102.227 253.203 102.507 253.103 102.767 253.003C102.947 252.943 103.147 252.863 103.307 252.803C103.427 252.763 103.507 252.743 103.607 252.703C103.747 252.663 103.887 252.603 104.007 252.563C104.127 252.523 104.267 252.463 104.387 252.443C104.687 252.343 104.947 252.283 105.167 252.243C105.167 252.243 118.767 248.643 132.788 242.103C132.788 242.103 155.128 233.262 165.029 234.622C165.349 234.662 165.709 234.682 166.009 234.762L174.829 234.882C174.129 234.702 173.689 234.542 173.649 234.522L173.529 234.482Z" fill="black"/>
<path d="M190.75 235.744H189.41C187.73 235.924 185.85 236.044 183.97 236.044H183.45C180.03 236.004 177.27 236.044 175.67 235.684L169.21 235.424C168.81 236.104 168.61 237.604 168.75 238.304C169.61 242.424 170.73 245.784 175.17 247.284C177.95 248.244 180.35 249.244 185.09 248.224C195.17 246.064 197.05 235.424 197.05 235.424L190.77 235.744H190.75ZM185.43 246.564C176.77 248.144 173.25 245.004 171.85 242.944C170.45 240.884 170.53 237.124 170.53 237.124L175.21 237.544C175.21 237.544 173.65 242.984 179.59 244.444H181.31C181.31 244.444 174.91 240.924 178.11 237.544L183.93 238.064L188.17 238.204L193.53 237.544C193.53 237.544 194.11 244.964 185.45 246.544L185.43 246.564Z" fill="black"/>
<path d="M191.789 229.663C189.809 230.583 187.629 231.143 185.309 231.143C176.649 231.143 169.589 223.903 169.589 215.003C169.589 206.103 176.649 198.863 185.309 198.863C187.649 198.863 189.869 199.423 191.869 200.383L191.689 197.643H174.889C174.889 197.643 168.749 201.283 165.949 207.243C165.949 207.243 158.709 224.063 174.349 233.483C174.349 233.483 177.809 234.743 183.509 234.823C189.209 234.903 195.169 233.663 195.169 233.663V230.103L191.789 230.203V229.683V229.663Z" fill="black"/>
<path d="M260.211 212.623L253.711 212.823L223.11 213.803C221.37 213.963 219.67 214.043 218.13 214.043C210.91 214.043 205.789 212.423 202.909 209.203C200.329 206.322 200.569 203.302 200.609 202.962C200.609 199.542 201.889 196.522 204.009 194.522L183.149 194.402C183.149 194.402 177.408 188.422 173.868 190.402C173.868 190.402 170.928 192.402 174.228 196.082L174.488 196.402L174.888 196.802L192.569 196.662L192.849 200.982C197.809 203.702 201.229 209.003 201.229 215.163C201.229 221.323 197.929 226.423 193.129 229.183L196.089 229.103V234.383L195.349 234.543C195.349 234.543 194.469 234.723 193.269 234.903L197.429 234.963C197.429 234.963 200.229 227.643 244.491 224.323C248.731 224.003 253.351 223.723 258.391 223.483L259.631 223.363C262.131 221.143 263.011 218.583 263.011 218.583C263.311 215.183 261.911 213.483 260.211 212.603V212.623ZM221.27 223.403C220.21 223.403 219.33 222.543 219.33 221.463C219.33 220.383 220.19 219.523 221.27 219.523C222.35 219.523 223.21 220.383 223.21 221.463C223.21 222.543 222.35 223.403 221.27 223.403ZM235.99 221.963C234.93 221.963 234.05 221.103 234.05 220.023C234.05 218.943 234.91 218.083 235.99 218.083C237.07 218.083 237.931 218.943 237.931 220.023C237.931 221.103 237.07 221.963 235.99 221.963ZM251.851 221.383C250.091 221.383 248.651 219.943 248.651 218.183C248.651 216.423 250.091 214.983 251.851 214.983C253.611 214.983 255.051 216.423 255.051 218.183C255.051 219.943 253.611 221.383 251.851 221.383Z" fill="black"/>
<path d="M502.96 194.221L500.02 191.941H495.34L492.42 194.221V195.281H502.96V194.221Z" fill="black"/>
<path d="M185.509 199.982C177.349 199.982 170.729 206.782 170.729 215.182C170.729 223.582 177.349 230.382 185.509 230.382C193.669 230.382 200.289 223.582 200.289 215.182C200.289 206.782 193.669 199.982 185.509 199.982ZM179.409 207.402L180.389 207.342L180.669 207.002L181.489 206.782C181.669 206.782 181.849 206.822 182.029 206.902C182.409 205.242 184.409 204.122 184.649 204.002L186.029 203.722C185.529 204.202 185.449 207.142 185.829 208.162C186.289 207.822 186.789 207.742 186.869 207.722L187.989 207.582C188.329 207.202 188.749 206.982 189.149 206.982H190.089L190.249 208.122C190.249 208.582 191.049 210.642 191.669 211.882C192.189 212.902 191.949 214.622 191.769 215.542L194.249 217.862V221.382C194.249 222.602 193.869 224.662 193.869 224.662C193.309 225.582 192.749 225.882 192.129 225.882C191.789 225.882 191.469 225.802 191.149 225.662L191.729 226.982L187.669 225.562C187.789 226.042 187.829 226.602 187.429 227.062C187.209 227.322 186.809 227.642 186.109 227.642C185.469 227.642 184.849 227.382 184.729 227.322L184.289 227.122L184.209 226.662C184.189 226.662 183.929 226.282 183.049 225.622L180.929 224.022C179.349 222.882 180.509 220.462 180.649 220.182L180.569 218.702L179.649 217.402L179.109 215.562H179.029C178.009 215.562 177.429 215.182 177.109 214.842C176.509 214.222 176.489 213.462 176.489 213.322C176.449 209.722 176.489 209.682 176.809 209.362L177.089 209.082H177.489C177.929 209.082 178.169 209.282 178.309 209.562L178.889 209.122L179.189 208.502L178.209 207.322L179.449 207.402H179.409Z" fill="black"/>
<path d="M179.769 214.522L180.389 216.842L181.449 218.362V220.582C181.449 220.582 180.469 222.542 181.449 223.242C182.429 223.942 182.169 223.782 183.589 224.842C185.009 225.902 185.109 226.442 185.109 226.442C185.109 226.442 186.269 226.982 186.709 226.442C187.149 225.902 185.909 224.402 186.709 224.122C187.509 223.842 188.229 224.742 188.229 224.742L190.009 225.362L189.289 223.762L190.009 223.502C190.009 223.502 191.869 225.902 192.949 224.482C192.949 224.482 193.309 222.522 193.309 221.362V218.242L190.729 215.842C190.729 215.842 191.349 213.342 190.809 212.282C190.269 211.222 189.289 208.822 189.289 208.102C189.289 207.382 187.769 208.542 188.409 210.062C189.049 211.582 186.889 209.802 186.989 208.642C186.989 208.642 185.649 208.822 186.109 210.242C186.569 211.662 183.249 206.602 185.109 204.822C185.109 204.822 181.449 206.782 183.569 208.782C185.829 210.902 183.509 210.882 183.029 210.122C183.029 210.122 182.009 206.862 181.109 207.922C180.209 208.982 179.329 208.282 179.329 208.282L181.649 209.882C181.649 209.882 183.849 211.622 182.709 212.102C181.569 212.582 178.569 209.442 178.569 209.442L180.609 212.862C180.609 212.862 177.709 212.782 177.549 210.542C177.389 208.302 177.409 213.302 177.409 213.302C177.409 213.302 177.369 214.942 179.769 214.502V214.522Z" fill="black"/>
</svg>
