<svg width="512" height="160" viewBox="0 0 512 160" fill="none" xmlns="http://www.w3.org/2000/svg">
<path d="M191.778 57.1838V42.4844L181.7 46.8759V57.199L191.778 57.1838Z" fill="black"/>
<path d="M219.568 62.3373V58.6777L154.669 58.7387L154.684 62.3373H219.568Z" fill="black"/>
<path d="M180.941 46.8289L175.75 43.459V57.1977H180.941V46.8289Z" fill="black"/>
<path d="M388.099 32.2668C386.824 31.3519 385.458 30.5438 384.122 29.5526C383.94 29.4154 383.788 29.2324 383.546 29.2324H324.353V35.896H388.099V32.2668Z" fill="black"/>
<path d="M399.179 29.2185V24.7355L400.423 23.2107C400.693 22.773 400.841 22.2703 400.851 21.7555C400.86 21.2407 400.732 20.7327 400.479 20.2849C400.226 19.8372 399.857 19.4662 399.412 19.211C398.967 18.9557 398.462 18.8256 397.949 18.8344H392.789C392.543 18.8346 392.302 18.9012 392.091 19.0273C391.88 19.1535 391.707 19.3344 391.59 19.5511L388.858 24.766V32.3902V35.8363H399.118L399.179 29.2185Z" fill="black"/>
<path d="M317.933 52.2734H303.955V62.3374H317.933V52.2734Z" fill="black"/>
<path d="M221.086 62.3526L302.438 62.3374V52.2734L290.979 52.3192H192.537V57.1834L221.086 57.1529V62.3526Z" fill="black"/>
<path d="M402.427 29.2031H400.393H400.696L400.621 37.3915H388.858V55.4608H402.427V29.2031Z" fill="black"/>
<path d="M407.01 41.5527L404.021 41.568V51.2049H407.01V41.5527Z" fill="black"/>
<path d="M292.997 50.7789L312.894 50.7179V38.4277H300.009V45.442L292.997 50.7789Z" fill="black"/>
<path d="M298.491 44.6948V38.4277H192.537V50.7941H290.463L298.491 44.6948Z" fill="black"/>
<path d="M175.508 113.54C175.105 114.072 174.915 114.736 174.974 115.402C175.033 116.067 175.337 116.687 175.826 117.139L181.214 122.003C181.681 122.424 182.287 122.658 182.914 122.659H188.803C188.984 122.658 189.162 122.705 189.319 122.796L199.184 128.621C199.308 128.695 199.449 128.733 199.593 128.734C199.737 128.734 199.878 128.696 200.002 128.622C200.126 128.549 200.228 128.444 200.298 128.318C200.368 128.191 200.402 128.049 200.399 127.904V124.489L178.543 109.637L175.508 113.54Z" fill="black"/>
<path d="M134.164 52.8234C133.657 52.7802 133.151 52.9211 132.739 53.2205C132.327 53.5199 132.035 53.9579 131.917 54.4549L131.599 56.2542C131.599 56.2542 131.599 56.2542 131.599 56.361V64.1071L133.253 66.3486C137.928 66.3486 141.191 66.3486 141.585 66.3486C142.044 66.2844 142.508 66.2844 142.967 66.3486V53.4333C142.75 53.1986 142.487 53.0122 142.194 52.8861C141.901 52.76 141.585 52.6971 141.267 52.7014L134.164 52.8234Z" fill="black"/>
<path d="M86.9312 58.5555C86.8969 59.3929 87.0856 60.2245 87.4777 60.9642C87.8699 61.704 88.4514 62.3253 89.1623 62.764C90.6181 63.5286 91.7499 64.7957 92.3496 66.3321H96.5993V58.1133H86.9464L86.9312 58.5555Z" fill="black"/>
<path d="M97.3584 66.3018H128.305L130.036 64.289V57.9609L97.3584 58.1287V66.3018Z" fill="black"/>
<path d="M259.272 3.05078H238.251V5.33803H259.5C259.409 4.51462 259.333 3.7522 259.272 3.05078Z" fill="black"/>
<path d="M258.21 0.00197341H239.071C238.856 0.00193641 238.65 0.0866022 238.497 0.237739C238.344 0.388875 238.255 0.594416 238.251 0.810144V2.33498H259.227C259.227 1.83178 259.227 1.38957 259.227 0.993117C259.231 0.85912 259.208 0.725662 259.158 0.601322C259.108 0.476982 259.033 0.364519 258.937 0.271162C258.841 0.177805 258.727 0.105617 258.602 0.059257C258.477 0.0128972 258.343 -0.00661577 258.21 0.00197341Z" fill="black"/>
<path d="M274.389 31.3227H280.9C281.539 31.1512 282.132 30.8392 282.636 30.4094C283.14 29.9795 283.542 29.4425 283.814 28.8372C284.422 27.9361 284.755 26.8761 284.771 25.7876V20.2524C284.771 19.5447 284.491 18.866 283.993 18.3655C283.495 17.8651 282.819 17.584 282.115 17.584H267.848L273.797 25.1167C274.162 25.5813 274.36 26.1563 274.359 26.7482L274.389 31.3227Z" fill="black"/>
<path d="M319.466 36.8429V55.4307H323.549V29.2188H321.819C321.199 29.2188 320.604 29.4662 320.166 29.9065C319.728 30.3469 319.482 30.9442 319.482 31.567L319.466 36.8429Z" fill="black"/>
<path d="M153.166 57.2145L151.77 54.9883H145.957L144.439 57.1078V62.338H153.166V57.2145Z" fill="black"/>
<path d="M314.412 50.7182L317.934 50.7029V36.8727L314.412 36.8574V50.7182Z" fill="black"/>
<path d="M191.839 41.6454V33.1063C191.837 33.0165 191.813 32.9285 191.768 32.851C191.723 32.7734 191.658 32.7091 191.581 32.6641L184.842 28.6691C184.56 28.5221 184.248 28.4453 183.931 28.4453C183.614 28.4453 183.302 28.5221 183.02 28.6691L176.054 32.4964C175.977 32.5376 175.912 32.5991 175.866 32.6742C175.821 32.7494 175.797 32.8354 175.796 32.9234V42.5146L181.396 46.1589L191.839 41.6454Z" fill="black"/>
<path d="M231.604 31.3212H272.811V26.7467C272.813 26.1282 272.598 25.5288 272.204 25.0541L262.536 13.6179C262.359 13.3988 262.22 13.1514 262.126 12.886L259.667 6.05469H238.252V11.6051L232.18 16.3016C232.082 16.3766 232.002 16.4733 231.947 16.5844C231.891 16.6955 231.862 16.8178 231.862 16.942V20.2509H229.934C229.833 20.2489 229.733 20.2671 229.639 20.3045C229.545 20.3419 229.46 20.3977 229.388 20.4687C229.316 20.5397 229.258 20.6245 229.219 20.718C229.18 20.8115 229.16 20.9119 229.16 21.0133V28.1495C229.16 28.4286 229.271 28.6962 229.467 28.8935C229.663 29.0908 229.93 29.2017 230.207 29.2017H231.619L231.604 31.3212Z" fill="black"/>
<path d="M88.768 63.3592C87.9502 62.8619 87.2788 62.1549 86.8227 61.3108C86.3666 60.4667 86.1422 59.5159 86.1727 58.556V58.19V36.4001C86.1747 36.1693 86.1309 35.9403 86.0439 35.7267C85.9569 35.513 85.8284 35.3189 85.6659 35.1556C85.5035 34.9924 85.3102 34.8633 85.0976 34.7759C84.8849 34.6885 84.657 34.6445 84.4272 34.6466H67.0945C66.539 34.6466 66.0063 34.8683 65.6135 35.2629C65.2207 35.6575 65 36.1927 65 36.7508V107.945C65.004 108.501 65.2264 109.032 65.6188 109.423C66.0112 109.815 66.5416 110.034 67.0945 110.034H79.5249C79.5249 110.034 83.6987 89.2661 84.9281 83.0905C86.1575 76.915 85.9146 75.9238 89.3599 72.4167C90.1567 71.7653 90.7891 70.9342 91.2058 69.9909C91.6225 69.0476 91.8117 68.0189 91.758 66.9883C91.5421 66.2059 91.1642 65.4782 90.6489 64.8528C90.1336 64.2274 89.4927 63.7184 88.768 63.3592ZM85.945 70.9834C85.362 70.9864 84.7912 70.8155 84.305 70.4922C83.8188 70.169 83.4391 69.7081 83.2139 69.1678C82.9887 68.6276 82.9282 68.0323 83.0401 67.4575C83.152 66.8826 83.4312 66.3541 83.8424 65.9389C84.2536 65.5236 84.7782 65.2404 85.3498 65.125C85.9214 65.0096 86.5142 65.0673 87.0531 65.2908C87.592 65.5142 88.0527 65.8933 88.377 66.3801C88.7012 66.8669 88.8742 67.4395 88.8743 68.0252C88.8783 68.4149 88.8056 68.8016 88.6603 69.1631C88.5151 69.5245 88.3002 69.8535 88.028 70.1313C87.7558 70.409 87.4316 70.6299 87.0742 70.7814C86.7167 70.9329 86.3329 71.0119 85.945 71.0139V70.9834Z" fill="black"/>
<path d="M85.9453 66.6212C85.6625 66.6182 85.3852 66.6996 85.1486 66.8553C84.912 67.0109 84.7267 67.2337 84.6164 67.4954C84.5061 67.757 84.4757 68.0456 84.529 68.3247C84.5823 68.6037 84.717 68.8605 84.9159 69.0625C85.1148 69.2645 85.369 69.4025 85.6461 69.4591C85.9233 69.5157 86.2109 69.4882 86.4725 69.3802C86.7341 69.2721 86.9578 69.0884 87.1153 68.8524C87.2727 68.6164 87.3568 68.3387 87.3568 68.0545C87.3568 67.677 87.2086 67.3147 86.9443 67.0463C86.68 66.778 86.321 66.6252 85.9453 66.6212Z" fill="black"/>
<path d="M264.949 66.5615H288.975C288.989 66.5535 289.004 66.5493 289.02 66.5493C289.036 66.5493 289.052 66.5535 289.066 66.5615L291.206 70.8006C291.235 70.8125 291.268 70.8125 291.297 70.8006H302.316C302.344 70.8006 302.371 70.7893 302.391 70.7693C302.411 70.7493 302.422 70.7222 302.422 70.6938V63.8473C302.422 63.8473 302.422 63.7559 302.316 63.7559H144.47C144.441 63.7559 144.414 63.7671 144.394 63.7871C144.374 63.8071 144.363 63.8343 144.363 63.8626V66.9123C144.363 66.9123 146.913 73.8655 146.974 73.8655H183.703C184.871 73.8437 186.021 73.568 187.073 73.0573C198.972 67.4155 199.761 79.5836 199.685 83.9599C199.68 84.4172 199.578 84.8682 199.388 85.2834C199.197 85.6986 198.921 86.0686 198.577 86.3691L179.605 103.386C179.348 103.623 179.19 103.951 179.165 104.301L178.983 107.946C178.973 107.975 178.973 108.007 178.983 108.037L200.475 122.645C200.484 122.655 200.496 122.663 200.509 122.669C200.522 122.674 200.536 122.677 200.55 122.677C200.565 122.677 200.579 122.674 200.592 122.669C200.605 122.663 200.616 122.655 200.626 122.645C210.871 100.55 217.322 93.2614 223.393 92.3922L220.463 88.3209C219.94 87.5982 219.653 86.7294 219.644 85.8355V73.0878H259.97L264.827 66.5463L264.949 66.5615Z" fill="black"/>
<path d="M248.253 74.6875H221.146V85.9103C221.159 86.462 221.345 86.9956 221.677 87.4351L225.153 92.2688C227.991 92.1316 230.587 91.9639 234.502 91.9486C248.876 91.8724 245.795 78.5911 245.597 77.6457C245.59 77.6314 245.587 77.6158 245.587 77.5999C245.587 77.5841 245.59 77.5685 245.597 77.5542L248.253 74.6875ZM232.985 90.5763C225.927 90.683 226.914 91.2624 223.332 86.2C223.189 85.9823 223.11 85.7287 223.104 85.4681C223.104 84.3397 223.104 81.168 223.104 80.8021H225.047C225.441 87.5419 228.553 88.106 232.803 88.167C232.831 88.1682 232.86 88.1602 232.884 88.1442C232.907 88.1282 232.926 88.1051 232.936 88.0781C232.946 88.0511 232.947 88.0216 232.94 87.9937C232.932 87.9659 232.916 87.9412 232.894 87.9231C231.513 86.8862 226.716 82.6776 231.786 77.9202C232.529 77.2931 233.396 76.8326 234.331 76.5696C235.265 76.3067 236.245 76.2472 237.204 76.3953C239.906 76.685 243.655 77.9201 243.67 82.4032C243.7 88.1823 241.423 90.439 232.985 90.5763Z" fill="black"/>
<path d="M388.099 37.3906H324.353V55.4599H388.099V37.3906ZM353.843 48.2779L350.808 52.6085C350.776 52.6605 350.731 52.7034 350.678 52.7328C350.625 52.7622 350.565 52.7772 350.504 52.7762C350.435 52.7974 350.361 52.7974 350.292 52.7762C350.251 52.7473 350.216 52.7105 350.189 52.668C350.162 52.6255 350.144 52.578 350.135 52.5284C350.127 52.4788 350.128 52.428 350.14 52.3789C350.151 52.3298 350.171 52.2835 350.201 52.2425L353.236 47.912C353.294 47.8291 353.383 47.7729 353.483 47.7557C353.582 47.7385 353.685 47.7618 353.767 47.8205C353.85 47.8791 353.906 47.9683 353.923 48.0684C353.94 48.1685 353.917 48.2713 353.858 48.3542L353.843 48.2779ZM353.752 45.0758C353.683 45.097 353.609 45.097 353.54 45.0758C353.477 45.0752 353.416 45.0597 353.36 45.0305C353.305 45.0014 353.257 44.9594 353.221 44.9081L350.185 40.5775C350.156 40.5365 350.136 40.4902 350.124 40.4411C350.113 40.392 350.112 40.3412 350.12 40.2916C350.129 40.242 350.147 40.1946 350.174 40.152C350.201 40.1095 350.235 40.0727 350.276 40.0438C350.316 40.015 350.361 39.9944 350.409 39.9834C350.456 39.9723 350.506 39.971 350.554 39.9796C350.602 39.9881 350.648 40.0063 350.689 40.033C350.73 40.0598 350.765 40.0946 350.793 40.1353L353.828 44.4659C353.871 44.507 353.904 44.5578 353.924 44.6141C353.945 44.6704 353.951 44.7307 353.944 44.7901C353.936 44.8495 353.915 44.9063 353.882 44.956C353.849 45.0056 353.804 45.0466 353.752 45.0758ZM368.93 52.7C368.86 52.7212 368.786 52.7212 368.717 52.7C368.655 52.6994 368.593 52.6839 368.538 52.6547C368.482 52.6255 368.435 52.5836 368.398 52.5322L365.363 48.2017C365.334 48.1607 365.313 48.1144 365.302 48.0653C365.291 48.0162 365.289 47.9654 365.298 47.9158C365.306 47.8662 365.324 47.8187 365.351 47.7762C365.378 47.7337 365.413 47.6969 365.454 47.668C365.494 47.6391 365.539 47.6186 365.586 47.6075C365.634 47.5965 365.683 47.5952 365.731 47.6037C365.78 47.6123 365.825 47.6305 365.866 47.6572C365.908 47.684 365.943 47.7188 365.97 47.7595L369.006 52.09C369.049 52.1311 369.082 52.1819 369.102 52.2383C369.122 52.2946 369.129 52.3549 369.121 52.4143C369.114 52.4737 369.093 52.5305 369.059 52.5801C369.026 52.6298 368.982 52.6708 368.93 52.7ZM369.021 40.6538L365.985 44.9843C365.954 45.0364 365.909 45.0792 365.856 45.1087C365.802 45.1381 365.742 45.153 365.682 45.152C365.612 45.1732 365.538 45.1732 365.469 45.152C365.428 45.1231 365.393 45.0864 365.366 45.0438C365.34 45.0013 365.321 44.9539 365.313 44.9043C365.305 44.8546 365.306 44.8038 365.317 44.7547C365.328 44.7057 365.349 44.6593 365.378 44.6183L368.414 40.2878C368.472 40.2049 368.561 40.1487 368.66 40.1315C368.76 40.1144 368.862 40.1377 368.945 40.1963C369.027 40.255 369.083 40.3441 369.1 40.4442C369.117 40.5443 369.094 40.6471 369.036 40.73L369.021 40.6538Z" fill="black"/>
<path d="M312.895 37.2837V32.9074H231.604V36.1858H228.265V32.877H223.711V36.1248H220.676V32.877H216.123V36.1248H213.087V32.877H208.534V36.1248H205.939L204.906 33.4564C204.843 33.2944 204.732 33.1555 204.588 33.0576C204.445 32.9597 204.275 32.9074 204.102 32.9074H192.916C192.824 32.9074 192.735 32.9444 192.669 33.0102C192.604 33.0759 192.567 33.1651 192.567 33.2582V37.2837H312.895Z" fill="black"/>
<path d="M370.934 67.4305L374.758 63.5117H353.768C353.768 63.5117 353.768 66.9883 353.768 68.0862C353.767 68.707 353.602 69.3163 353.29 69.8521C352.978 70.3879 352.53 70.8309 351.992 71.1359L344.889 73.0267C344.618 73.1084 344.38 73.2756 344.211 73.5034C344.041 73.7313 343.949 74.0079 343.948 74.2923C343.948 77.037 343.948 79.2175 343.948 80.6356C343.936 80.9004 344.01 81.1619 344.157 81.3816C344.305 81.6012 344.519 81.7674 344.768 81.8555C345.922 81.9565 347.031 82.3584 347.984 83.0216C348.937 83.6848 349.701 84.5863 350.201 85.6371C352.69 89.9371 348.031 92.4836 347.378 93.8864C345.982 96.9361 357.122 110.812 357.122 110.812H371.526C371.859 110.812 372.187 110.736 372.487 110.59C372.786 110.444 373.049 110.232 373.255 109.969C373.461 109.706 373.605 109.4 373.676 109.073C373.747 108.747 373.744 108.408 373.666 108.083C372.026 101.175 368.035 82.7094 369.34 70.6632C369.49 69.435 370.052 68.2948 370.934 67.4305Z" fill="black"/>
<path d="M396.735 56.9844H324.308L326.494 65.6607H338.742L339.774 63.6174C340.026 63.1145 340.412 62.6915 340.889 62.3955C341.366 62.0994 341.915 61.9418 342.476 61.9401H376.792C377.152 61.8953 377.517 61.9425 377.854 62.0773L382.848 64.0291C383.237 64.1719 383.581 64.4146 383.848 64.7329C384.114 65.0513 384.293 65.4343 384.366 65.8437L385.428 72.187C385.465 72.405 385.578 72.6023 385.749 72.7425C385.919 72.8827 386.134 72.9561 386.354 72.9494L395.794 72.7359C396.031 72.7245 396.254 72.624 396.42 72.4544C396.586 72.2849 396.682 72.0587 396.69 71.821L396.781 64.5475V64.2883V61.7266L396.735 56.9844Z" fill="black"/>
<path d="M444.772 41.3243H441.342L440.477 43.2913C440.419 43.4253 440.323 43.5397 440.202 43.6208C440.081 43.7019 439.939 43.7463 439.794 43.7487C439.694 43.7711 439.59 43.7711 439.49 43.7487C439.399 43.7105 439.316 43.6544 439.247 43.5836C439.177 43.5128 439.123 43.4288 439.086 43.3365C439.049 43.2442 439.031 43.1454 439.033 43.046C439.034 42.9466 439.056 42.8486 439.096 42.7576L439.673 41.4005H436.774L435.924 43.3523C435.866 43.4863 435.77 43.6007 435.649 43.6818C435.528 43.7629 435.386 43.8073 435.241 43.8097C435.141 43.8321 435.037 43.8321 434.937 43.8097C434.846 43.7715 434.763 43.7154 434.693 43.6446C434.624 43.5738 434.569 43.4898 434.533 43.3975C434.496 43.3052 434.478 43.2064 434.479 43.107C434.481 43.0076 434.503 42.9096 434.543 42.8186L435.119 41.492H432.205L431.37 43.4133C431.312 43.5473 431.217 43.6617 431.096 43.7428C430.975 43.8239 430.833 43.8683 430.687 43.8707C430.587 43.8931 430.484 43.8931 430.384 43.8707C430.293 43.8325 430.21 43.7764 430.14 43.7056C430.071 43.6348 430.016 43.5508 429.979 43.4585C429.943 43.3662 429.924 43.2674 429.926 43.168C429.928 43.0686 429.949 42.9705 429.989 42.8796L430.551 41.5835L408.468 41.7055L408.574 51.3729H430.429L429.989 50.3513C429.936 50.2585 429.903 50.1554 429.892 50.0489C429.881 49.9423 429.892 49.8346 429.925 49.7328C429.959 49.631 430.013 49.5373 430.084 49.458C430.156 49.3786 430.244 49.3153 430.341 49.2722C430.439 49.2291 430.544 49.2071 430.651 49.2078C430.758 49.2084 430.863 49.2316 430.96 49.2759C431.057 49.3201 431.144 49.3845 431.215 49.4647C431.285 49.5449 431.338 49.6391 431.37 49.7413L432.084 51.3729H434.983L434.543 50.3513C434.489 50.2585 434.456 50.1554 434.445 50.0489C434.434 49.9423 434.445 49.8346 434.479 49.7328C434.512 49.631 434.566 49.5373 434.638 49.458C434.709 49.3786 434.797 49.3153 434.894 49.2722C434.992 49.2291 435.098 49.2071 435.204 49.2078C435.311 49.2084 435.416 49.2316 435.513 49.2759C435.61 49.3201 435.697 49.3845 435.768 49.4647C435.839 49.5449 435.892 49.6391 435.924 49.7413L436.637 51.3729H439.536L439.096 50.3513C439.042 50.2585 439.009 50.1554 438.998 50.0489C438.987 49.9423 438.999 49.8346 439.032 49.7328C439.065 49.631 439.119 49.5373 439.191 49.458C439.263 49.3786 439.35 49.3153 439.448 49.2722C439.545 49.2291 439.651 49.2071 439.758 49.2078C439.864 49.2084 439.969 49.2316 440.067 49.2759C440.164 49.3201 440.25 49.3845 440.321 49.4647C440.392 49.5449 440.445 49.6391 440.477 49.7413L441.19 51.3729H444.772C445.151 51.3729 445.513 51.2219 445.781 50.9531C446.049 50.6843 446.199 50.3197 446.199 49.9396V42.9253C446.223 42.7235 446.203 42.5189 446.142 42.3252C446.081 42.1314 445.98 41.9529 445.845 41.8015C445.71 41.6501 445.545 41.5292 445.36 41.447C445.175 41.3647 444.974 41.3229 444.772 41.3243Z" fill="black"/>
<path d="M300.191 72.4317H290.326L288.125 68.0859H265.662L261.109 74.1853C258.073 113.343 268.834 151.006 271.232 158.783C271.359 159.187 271.627 159.53 271.988 159.749C272.348 159.968 272.776 160.048 273.19 159.972L309.92 153.309C310.158 153.265 310.385 153.172 310.585 153.035C310.785 152.898 310.954 152.72 311.081 152.513C311.208 152.306 311.291 152.074 311.324 151.833C311.356 151.592 311.338 151.347 311.271 151.113C298.522 106.878 300.191 72.4317 300.191 72.4317ZM279.55 147.743C279.464 147.758 279.377 147.758 279.292 147.743C279.135 147.745 278.982 147.698 278.854 147.608C278.726 147.517 278.629 147.389 278.578 147.24C269.942 123.422 269.047 99.6348 269.29 87.5733C269.29 87.3711 269.37 87.1772 269.512 87.0342C269.654 86.8912 269.847 86.8109 270.048 86.8109C270.25 86.8109 270.443 86.8912 270.585 87.0342C270.727 87.1772 270.807 87.3711 270.807 87.5733C270.565 99.528 271.445 123.102 280.005 146.691C280.051 146.789 280.076 146.896 280.078 147.005C280.079 147.114 280.058 147.221 280.015 147.321C279.972 147.421 279.908 147.51 279.828 147.583C279.747 147.655 279.653 147.71 279.55 147.743ZM295.046 136.124H294.818C294.657 136.127 294.5 136.076 294.371 135.979C294.242 135.883 294.148 135.746 294.105 135.59C289.569 121.357 287.215 106.513 287.123 91.5684C287.144 91.3723 287.233 91.1899 287.375 91.0532C287.516 90.9166 287.701 90.8344 287.897 90.8212C287.997 90.8232 288.095 90.8449 288.187 90.8851C288.278 90.9252 288.36 90.983 288.429 91.0553C288.499 91.1275 288.553 91.2127 288.589 91.3059C288.625 91.3992 288.643 91.4988 288.641 91.5989C288.733 106.378 291.061 121.057 295.547 135.133C295.58 135.231 295.593 135.335 295.586 135.438C295.578 135.541 295.55 135.642 295.504 135.734C295.457 135.827 295.393 135.909 295.314 135.976C295.235 136.042 295.144 136.093 295.046 136.124Z" fill="black"/>
</svg>
