<svg width="512" height="512" viewBox="0 0 512 512" fill="none" xmlns="http://www.w3.org/2000/svg">
<path d="M189.92 268.152L182.571 255.422L176.039 264.264L181.2 273.204L189.92 268.152Z" fill="black"/>
<path d="M216.565 258.722L214.735 255.552L158.561 288.055L160.373 291.164L216.565 258.722Z" fill="black"/>
<path d="M175.359 264.604L169.179 264.281L176.048 276.179L180.543 273.584L175.359 264.604Z" fill="black"/>
<path d="M347.482 148.415C345.92 148.26 344.333 148.243 342.681 148.053C342.455 148.025 342.232 147.943 342.021 148.064L290.759 177.66L294.091 183.431L349.296 151.558L347.482 148.415Z" fill="black"/>
<path d="M355.552 140.233L353.311 136.351L353.626 134.408C353.641 133.894 353.518 133.385 353.269 132.934C353.02 132.483 352.654 132.108 352.211 131.846C351.768 131.585 351.264 131.448 350.751 131.45C350.238 131.451 349.735 131.591 349.295 131.855L344.826 134.435C344.614 134.558 344.439 134.736 344.319 134.951C344.199 135.166 344.14 135.409 344.146 135.655L344.388 141.538L348.2 148.14L349.923 151.125L358.808 145.995L355.552 140.233Z" fill="black"/>
<path d="M296.719 200.823L284.614 207.812L289.646 216.528L301.751 209.539L296.719 200.823Z" fill="black"/>
<path d="M217.887 257.976L288.332 217.287L283.3 208.571L273.399 214.34L188.146 263.561L190.578 267.774L215.287 253.473L217.887 257.976Z" fill="black"/>
<path d="M358.358 138.596L356.596 139.613L356.859 139.462L360.888 146.591L350.701 152.472L359.736 168.121L371.486 161.336L358.358 138.596Z" fill="black"/>
<path d="M368.503 147.001L365.921 148.509L370.739 156.855L373.329 155.36L368.503 147.001Z" fill="black"/>
<path d="M274.377 211.997L291.578 201.996L285.433 191.352L274.274 197.795L277.781 203.869L274.377 211.997Z" fill="black"/>
<path d="M276.093 203.982L272.96 198.554L181.2 251.531L187.384 262.241L272.19 213.278L276.093 203.982Z" fill="black"/>
<path d="M204.009 325.095C203.927 325.757 204.094 326.427 204.478 326.974C204.862 327.52 205.434 327.905 206.085 328.052L213.183 329.57C213.798 329.702 214.439 329.601 214.983 329.288L220.083 326.344C220.239 326.252 220.417 326.204 220.598 326.205L232.054 326.317C232.198 326.318 232.34 326.282 232.465 326.21C232.589 326.138 232.692 326.034 232.763 325.909C232.834 325.784 232.87 325.642 232.867 325.497C232.864 325.353 232.823 325.212 232.748 325.089L231.04 322.131L204.686 320.197L204.009 325.095Z" fill="black"/>
<path d="M137.845 293.183C137.384 293.399 137.017 293.773 136.81 294.239C136.603 294.704 136.569 295.229 136.715 295.719L137.339 297.436C137.339 297.436 137.339 297.436 137.392 297.529L141.265 304.237L143.819 305.351C147.867 303.014 150.693 301.382 151.035 301.185C151.4 300.9 151.802 300.668 152.231 300.494L145.774 289.309C145.469 289.214 145.147 289.185 144.831 289.222C144.514 289.259 144.209 289.363 143.935 289.526L137.845 293.183Z" fill="black"/>
<path d="M99.8071 321.764C100.196 322.506 100.775 323.132 101.485 323.577C102.194 324.021 103.009 324.268 103.844 324.293C105.487 324.227 107.1 324.759 108.388 325.789L112.068 323.665L107.959 316.547L99.5991 321.373L99.8071 321.764Z" fill="black"/>
<path d="M112.71 323.259L139.511 307.785L140.003 305.177L136.839 299.697L108.624 316.18L112.71 323.259Z" fill="black"/>
<path d="M221.307 187.527L203.102 198.037L204.246 200.018L222.647 189.394C222.157 188.726 221.71 188.104 221.307 187.527Z" fill="black"/>
<path d="M218.862 185.417L202.287 194.986C202.101 195.094 201.965 195.27 201.908 195.478C201.851 195.685 201.877 195.907 201.981 196.096L202.744 197.417L220.909 186.929C220.657 186.493 220.436 186.11 220.238 185.767C220.175 185.649 220.088 185.545 219.983 185.462C219.877 185.379 219.756 185.32 219.626 185.287C219.497 185.254 219.362 185.248 219.23 185.271C219.098 185.293 218.973 185.343 218.862 185.417Z" fill="black"/>
<path d="M248.534 204.452L254.172 201.196C254.64 200.728 254.997 200.162 255.219 199.537C255.44 198.913 255.52 198.247 255.453 197.586C255.529 196.502 255.287 195.418 254.756 194.467L251.989 189.674C251.635 189.061 251.053 188.613 250.372 188.429C249.69 188.244 248.965 188.339 248.354 188.691L235.999 195.824L244.918 199.373C245.466 199.593 245.925 199.992 246.22 200.505L248.534 204.452Z" fill="black"/>
<path d="M290.332 186.693L299.625 202.79L303.161 200.749L290.055 178.048L288.557 178.914C288.02 179.224 287.629 179.735 287.469 180.336C287.31 180.936 287.395 181.577 287.707 182.116L290.332 186.693Z" fill="black"/>
<path d="M156.497 287.484L154.175 286.255L149.141 289.161L148.886 291.755L151.501 296.285L159.059 291.921L156.497 287.484Z" fill="black"/>
<path d="M292.893 201.236L295.935 199.462L289.019 187.485L285.962 189.232L292.893 201.236Z" fill="black"/>
<path d="M182.204 254.666L177.935 247.271C177.889 247.194 177.823 247.13 177.746 247.085C177.668 247.041 177.58 247.017 177.49 247.017L169.656 246.927C169.339 246.94 169.031 247.03 168.756 247.188C168.481 247.347 168.249 247.569 168.079 247.837L163.96 254.635C163.913 254.71 163.888 254.795 163.886 254.883C163.884 254.971 163.906 255.057 163.95 255.134L168.745 263.44L175.418 263.796L182.204 254.666Z" fill="black"/>
<path d="M211.48 225.843L247.166 205.24L244.879 201.278C244.572 200.741 244.086 200.33 243.507 200.116L229.416 195.046C229.154 194.944 228.91 194.799 228.695 194.617L223.15 189.93L204.604 200.638L207.379 205.445L204.47 212.547C204.422 212.662 204.401 212.786 204.409 212.909C204.416 213.033 204.452 213.154 204.514 213.261L206.168 216.127L204.499 217.091C204.411 217.14 204.333 217.205 204.27 217.285C204.208 217.364 204.162 217.455 204.135 217.553C204.108 217.65 204.101 217.752 204.114 217.853C204.127 217.953 204.159 218.05 204.21 218.138L207.778 224.318C207.918 224.56 208.147 224.737 208.416 224.809C208.685 224.882 208.971 224.845 209.211 224.706L210.434 224L211.48 225.843Z" fill="black"/>
<path d="M103.799 325.005C102.842 324.984 101.907 324.707 101.09 324.204C100.273 323.701 99.6035 322.99 99.1499 322.143L98.9669 321.826L88.072 302.956C87.9583 302.755 87.806 302.578 87.6238 302.437C87.4416 302.295 87.2333 302.192 87.0109 302.131C86.7886 302.071 86.5567 302.056 86.3288 302.087C86.101 302.117 85.8816 302.193 85.6836 302.31L70.6731 310.976C70.192 311.254 69.8415 311.712 69.6986 312.251C69.5558 312.789 69.6323 313.363 69.9113 313.846L105.509 375.502C105.79 375.981 106.248 376.33 106.784 376.473C107.319 376.616 107.888 376.54 108.367 376.264L119.132 370.049C119.132 370.049 112.363 349.976 110.339 344.013C108.316 338.05 107.61 337.313 108.841 332.553C109.205 331.591 109.337 330.555 109.226 329.53C109.115 328.504 108.765 327.519 108.203 326.653C107.625 326.084 106.934 325.642 106.175 325.358C105.416 325.074 104.606 324.954 103.799 325.005ZM105.166 333.02C104.663 333.314 104.083 333.451 103.501 333.414C102.918 333.377 102.359 333.168 101.893 332.813C101.428 332.458 101.078 331.972 100.888 331.419C100.697 330.865 100.675 330.267 100.823 329.702C100.972 329.137 101.285 328.629 101.722 328.244C102.159 327.858 102.701 327.612 103.28 327.536C103.858 327.46 104.447 327.558 104.971 327.817C105.495 328.077 105.931 328.486 106.224 328.993C106.423 329.329 106.553 329.7 106.608 330.086C106.663 330.471 106.641 330.864 106.544 331.24C106.447 331.617 106.277 331.97 106.043 332.28C105.81 332.59 105.517 332.85 105.182 333.046L105.166 333.02Z" fill="black"/>
<path d="M102.986 329.244C102.74 329.383 102.54 329.592 102.413 329.845C102.286 330.098 102.237 330.384 102.273 330.665C102.308 330.947 102.426 331.212 102.612 331.427C102.797 331.642 103.042 331.797 103.315 331.873C103.589 331.948 103.878 331.941 104.146 331.851C104.414 331.762 104.65 331.594 104.822 331.37C104.995 331.145 105.097 330.874 105.115 330.591C105.133 330.308 105.067 330.026 104.925 329.78C104.737 329.453 104.427 329.213 104.064 329.113C103.701 329.012 103.314 329.06 102.986 329.244Z" fill="black"/>
<path d="M257.977 239.688L278.784 227.675C278.792 227.661 278.804 227.649 278.818 227.641C278.831 227.633 278.847 227.629 278.863 227.629L282.836 230.23C282.867 230.226 282.896 230.21 282.915 230.185L292.458 224.675C292.482 224.661 292.5 224.638 292.507 224.611C292.514 224.584 292.51 224.554 292.496 224.53L289.073 218.601C289.073 218.601 289.027 218.521 288.935 218.575L152.236 297.498C152.212 297.512 152.194 297.535 152.187 297.562C152.18 297.59 152.184 297.619 152.198 297.643L153.722 300.284C153.722 300.284 159.407 305.031 159.46 305.001L191.269 286.636C192.269 286.033 193.127 285.22 193.783 284.251C201.267 273.416 208.034 283.559 210.157 287.387C210.381 287.786 210.518 288.227 210.56 288.682C210.603 289.137 210.549 289.596 210.402 290.027L202.48 314.251C202.375 314.585 202.403 314.947 202.556 315.263L204.221 318.51C204.227 318.541 204.243 318.569 204.267 318.589L230.183 320.495C230.196 320.498 230.211 320.499 230.225 320.498C230.239 320.496 230.252 320.491 230.264 320.484C230.277 320.477 230.287 320.468 230.296 320.457C230.304 320.445 230.311 320.432 230.314 320.419C228.139 296.162 230.081 286.624 234.904 282.836L230.331 280.775C229.517 280.411 228.834 279.802 228.379 279.032L222.005 267.992L256.929 247.829L257.864 239.735L257.977 239.688Z" fill="black"/>
<path d="M247.582 255.075L224.107 268.629L229.718 278.348C230.005 278.819 230.433 279.189 230.941 279.403L236.368 281.851C238.757 280.313 240.921 278.87 244.304 276.899C256.714 269.647 247.405 259.685 246.761 258.965C246.748 258.956 246.737 258.944 246.729 258.931C246.722 258.917 246.717 258.902 246.715 258.886L247.582 255.075ZM242.304 276.47C236.245 280.091 237.389 280.099 231.756 277.506C231.523 277.389 231.328 277.209 231.193 276.986C230.629 276.009 229.043 273.262 228.86 272.945L230.542 271.974C234.254 277.613 237.231 276.546 240.941 274.474C240.967 274.461 240.987 274.44 241 274.414C241.013 274.388 241.017 274.359 241.012 274.331C241.008 274.302 240.994 274.276 240.973 274.256C240.953 274.235 240.927 274.222 240.898 274.218C239.184 274.01 232.926 272.763 234.937 266.109C235.267 265.194 235.789 264.362 236.466 263.667C237.144 262.972 237.963 262.43 238.867 262.079C241.352 260.979 245.216 260.174 247.471 264.049C250.387 269.039 249.543 272.132 242.304 276.47Z" fill="black"/>
<path d="M350.043 152.852L294.838 184.725L303.873 200.373L359.078 168.5L350.043 152.852ZM325.821 179.408L325.357 184.676C325.356 184.737 325.339 184.797 325.307 184.849C325.276 184.901 325.231 184.944 325.178 184.973C325.129 185.026 325.065 185.063 324.994 185.08C324.944 185.075 324.896 185.061 324.851 185.037C324.807 185.014 324.767 184.982 324.735 184.943C324.703 184.905 324.679 184.86 324.664 184.812C324.649 184.764 324.644 184.713 324.649 184.663L325.112 179.395C325.121 179.294 325.17 179.201 325.248 179.136C325.325 179.072 325.426 179.041 325.526 179.05C325.627 179.06 325.72 179.109 325.785 179.187C325.85 179.265 325.881 179.366 325.872 179.467L325.821 179.408ZM324.141 176.681C324.092 176.734 324.027 176.771 323.957 176.787C323.902 176.818 323.841 176.835 323.779 176.838C323.716 176.84 323.654 176.827 323.597 176.801L318.803 174.568C318.757 174.548 318.716 174.518 318.682 174.481C318.648 174.444 318.621 174.401 318.604 174.353C318.586 174.306 318.578 174.256 318.58 174.206C318.582 174.156 318.594 174.106 318.615 174.061C318.635 174.016 318.663 173.976 318.699 173.942C318.735 173.909 318.777 173.883 318.823 173.866C318.869 173.85 318.918 173.842 318.967 173.845C319.016 173.848 319.064 173.86 319.108 173.882L323.902 176.115C323.96 176.129 324.014 176.156 324.059 176.195C324.105 176.233 324.141 176.282 324.164 176.337C324.187 176.393 324.197 176.452 324.193 176.512C324.189 176.572 324.171 176.629 324.141 176.681ZM341.097 175.695C341.048 175.748 340.984 175.785 340.913 175.801C340.859 175.832 340.798 175.849 340.735 175.851C340.672 175.854 340.61 175.841 340.553 175.815L335.759 173.582C335.713 173.561 335.672 173.532 335.638 173.495C335.604 173.458 335.577 173.415 335.56 173.367C335.542 173.32 335.534 173.27 335.536 173.22C335.538 173.17 335.55 173.12 335.571 173.075C335.591 173.03 335.62 172.99 335.655 172.956C335.691 172.923 335.733 172.897 335.779 172.88C335.825 172.864 335.874 172.856 335.923 172.859C335.972 172.862 336.02 172.874 336.064 172.896L340.858 175.129C340.916 175.142 340.97 175.17 341.016 175.209C341.061 175.247 341.097 175.296 341.12 175.351C341.144 175.407 341.154 175.466 341.15 175.526C341.146 175.586 341.128 175.643 341.097 175.695ZM335.153 165.217L334.689 170.485C334.688 170.546 334.671 170.605 334.639 170.657C334.608 170.71 334.563 170.752 334.51 170.782C334.461 170.835 334.397 170.872 334.326 170.888C334.276 170.884 334.228 170.869 334.183 170.846C334.139 170.822 334.099 170.79 334.067 170.752C334.035 170.713 334.011 170.668 333.996 170.62C333.981 170.572 333.976 170.522 333.981 170.472L334.444 165.203C334.453 165.102 334.502 165.009 334.58 164.945C334.657 164.88 334.758 164.849 334.858 164.859C334.959 164.868 335.052 164.917 335.117 164.996C335.182 165.074 335.213 165.174 335.204 165.275L335.153 165.217Z" fill="black"/>
<path d="M284.861 190.362L282.673 186.572L212.273 227.217L213.912 230.056L211.021 231.726L209.366 228.86L205.423 231.137L207.047 233.95L204.418 235.467L202.794 232.655L198.851 234.931L200.475 237.744L197.846 239.262L196.222 236.449L192.279 238.726L193.903 241.538L191.655 242.836L189.427 241.041C189.291 240.933 189.125 240.868 188.952 240.855C188.779 240.842 188.606 240.881 188.456 240.968L178.769 246.561C178.689 246.607 178.63 246.684 178.606 246.773C178.583 246.863 178.595 246.959 178.642 247.039L180.655 250.525L284.861 190.362Z" fill="black"/>
<path d="M350.198 187.449L351.551 182.143L333.372 192.638C333.372 192.638 335.111 195.649 335.66 196.6C335.969 197.138 336.131 197.748 336.129 198.368C336.126 198.988 335.96 199.596 335.646 200.129L330.44 205.318C330.246 205.524 330.124 205.788 330.091 206.07C330.058 206.352 330.117 206.638 330.258 206.884C331.631 209.261 332.721 211.15 333.43 212.378C333.552 212.613 333.746 212.803 333.984 212.919C334.222 213.036 334.49 213.073 334.75 213.025C335.8 212.535 336.961 212.328 338.118 212.426C339.275 212.524 340.388 212.923 341.346 213.583C345.652 216.062 342.89 220.597 343.026 222.138C343.341 225.478 359.927 231.924 359.927 231.924L372.401 224.723C372.689 224.556 372.936 224.326 373.123 224.05C373.309 223.774 373.43 223.459 373.477 223.128C373.524 222.797 373.496 222.46 373.394 222.142C373.292 221.823 373.12 221.532 372.89 221.289C368.016 216.126 355.327 202.131 350.434 191.046C349.95 189.907 349.866 188.638 350.198 187.449Z" fill="black"/>
<path d="M367.32 165.503L304.596 201.717L310.827 208.138L321.434 202.014L321.307 199.728C321.274 199.167 321.396 198.607 321.661 198.112C321.926 197.618 322.323 197.207 322.808 196.925L352.526 179.767C352.816 179.548 353.156 179.406 353.515 179.354L358.815 178.548C359.224 178.477 359.643 178.515 360.033 178.657C360.423 178.8 360.769 179.042 361.037 179.36L365.129 184.323C365.27 184.493 365.467 184.607 365.684 184.643C365.902 184.68 366.125 184.636 366.312 184.52L374.381 179.615C374.58 179.487 374.723 179.288 374.782 179.058C374.841 178.828 374.811 178.584 374.699 178.375L371.141 172.03L371.011 171.806L369.73 169.587L367.32 165.503Z" fill="black"/>
<path d="M401.091 127.922L398.12 129.637L398.355 131.773C398.371 131.918 398.346 132.065 398.282 132.196C398.217 132.326 398.117 132.436 397.992 132.511C397.916 132.58 397.827 132.632 397.729 132.662C397.631 132.675 397.531 132.668 397.435 132.641C397.34 132.615 397.25 132.569 397.172 132.508C397.094 132.446 397.029 132.37 396.981 132.283C396.933 132.196 396.903 132.1 396.892 132.001L396.713 130.538L394.202 131.987L394.442 134.102C394.459 134.248 394.433 134.394 394.369 134.525C394.305 134.656 394.204 134.765 394.079 134.84C394.004 134.91 393.914 134.961 393.816 134.992C393.718 135.005 393.618 134.997 393.523 134.971C393.427 134.944 393.338 134.899 393.26 134.837C393.182 134.776 393.117 134.699 393.069 134.612C393.02 134.525 392.99 134.43 392.979 134.331L392.815 132.894L390.291 134.351L390.529 136.432C390.546 136.577 390.52 136.724 390.456 136.855C390.392 136.985 390.291 137.095 390.166 137.17C390.091 137.239 390.001 137.291 389.904 137.321C389.805 137.334 389.705 137.327 389.61 137.3C389.514 137.274 389.425 137.228 389.347 137.167C389.269 137.105 389.204 137.029 389.156 136.942C389.108 136.855 389.077 136.759 389.066 136.66L388.904 135.257L369.841 146.404L374.767 154.724L393.694 143.796L392.802 143.131C392.709 143.077 392.629 143.005 392.566 142.918C392.504 142.831 392.46 142.732 392.437 142.627C392.415 142.523 392.415 142.414 392.438 142.31C392.46 142.205 392.504 142.107 392.567 142.021C392.63 141.934 392.711 141.863 392.803 141.81C392.896 141.757 392.999 141.725 393.105 141.714C393.211 141.704 393.319 141.716 393.42 141.75C393.521 141.785 393.614 141.84 393.693 141.912L395.127 142.969L397.637 141.519L396.745 140.854C396.653 140.801 396.572 140.728 396.51 140.641C396.447 140.554 396.403 140.455 396.381 140.351C396.359 140.246 396.359 140.138 396.381 140.033C396.403 139.929 396.448 139.83 396.51 139.744C396.573 139.658 396.654 139.586 396.747 139.533C396.839 139.48 396.942 139.448 397.048 139.438C397.155 139.427 397.262 139.44 397.363 139.474C397.465 139.508 397.558 139.563 397.636 139.636L399.07 140.692L401.581 139.242L400.689 138.578C400.596 138.524 400.516 138.451 400.453 138.365C400.39 138.278 400.346 138.179 400.324 138.074C400.302 137.969 400.302 137.861 400.324 137.757C400.347 137.652 400.391 137.553 400.454 137.467C400.517 137.381 400.597 137.309 400.69 137.257C400.783 137.204 400.885 137.171 400.992 137.161C401.098 137.151 401.205 137.163 401.306 137.197C401.408 137.231 401.501 137.286 401.58 137.359L403.013 138.415L406.115 136.624C406.443 136.435 406.682 136.123 406.779 135.756C406.876 135.39 406.824 134.999 406.634 134.67L403.127 128.595C403.047 128.409 402.928 128.241 402.778 128.104C402.628 127.966 402.451 127.863 402.259 127.799C402.066 127.735 401.862 127.713 401.661 127.734C401.46 127.756 401.265 127.82 401.091 127.922Z" fill="black"/>
<path d="M291.433 227.152L282.89 232.085L278.811 229.422L259.358 240.653L258.464 248.212C275.414 283.641 303.565 310.878 309.53 316.414C309.841 316.7 310.246 316.864 310.667 316.873C311.089 316.882 311.499 316.737 311.82 316.465L340.297 292.329C340.482 292.173 340.631 291.978 340.736 291.76C340.841 291.541 340.898 291.302 340.905 291.059C340.912 290.816 340.868 290.575 340.775 290.349C340.683 290.124 340.545 289.921 340.369 289.753C307.211 257.818 291.433 227.152 291.433 227.152ZM311.213 302.695C311.146 302.75 311.071 302.793 310.99 302.824C310.855 302.904 310.699 302.939 310.543 302.925C310.387 302.911 310.239 302.848 310.12 302.745C290.732 286.436 278.063 266.283 272.243 255.716C272.142 255.541 272.114 255.333 272.166 255.138C272.217 254.943 272.344 254.777 272.519 254.676C272.693 254.576 272.9 254.549 273.095 254.601C273.29 254.654 273.456 254.782 273.557 254.957C279.324 265.432 291.874 285.407 311.081 301.556C311.171 301.618 311.246 301.698 311.301 301.791C311.357 301.884 311.392 301.988 311.405 302.096C311.417 302.204 311.407 302.313 311.374 302.416C311.341 302.52 311.286 302.614 311.213 302.695ZM318.824 284.884L318.627 284.998C318.489 285.08 318.327 285.115 318.167 285.096C318.007 285.077 317.857 285.005 317.742 284.892C306.697 274.834 297.236 263.156 289.685 250.259C289.605 250.079 289.591 249.876 289.645 249.687C289.699 249.498 289.818 249.334 289.981 249.225C290.069 249.177 290.165 249.146 290.264 249.135C290.363 249.125 290.463 249.133 290.559 249.161C290.655 249.189 290.745 249.236 290.823 249.299C290.901 249.361 290.966 249.439 291.014 249.526C298.483 262.28 307.84 273.828 318.762 283.775C318.84 283.844 318.903 283.927 318.948 284.02C318.993 284.113 319.02 284.214 319.025 284.317C319.031 284.421 319.016 284.524 318.982 284.621C318.947 284.719 318.893 284.808 318.824 284.884Z" fill="black"/>
</svg>
