<svg width="512" height="512" viewBox="0 0 512 512" fill="none" xmlns="http://www.w3.org/2000/svg">
<path d="M192.778 233.184V218.484L182.7 222.876V233.199L192.778 233.184Z" fill="black"/>
<path d="M220.568 238.337V234.678L155.669 234.739L155.684 238.337H220.568Z" fill="black"/>
<path d="M181.941 222.829L176.75 219.459V233.198H181.941V222.829Z" fill="black"/>
<path d="M389.099 208.267C387.824 207.352 386.458 206.544 385.122 205.553C384.94 205.415 384.788 205.232 384.546 205.232H325.353V211.896H389.099V208.267Z" fill="black"/>
<path d="M400.179 205.219V200.735L401.423 199.211C401.693 198.773 401.841 198.27 401.851 197.755C401.86 197.241 401.732 196.733 401.479 196.285C401.226 195.837 400.857 195.466 400.412 195.211C399.967 194.956 399.462 194.826 398.949 194.834H393.789C393.543 194.835 393.302 194.901 393.091 195.027C392.88 195.153 392.707 195.334 392.59 195.551L389.858 200.766V208.39V211.836H400.118L400.179 205.219Z" fill="black"/>
<path d="M318.933 228.273H304.955V238.337H318.933V228.273Z" fill="black"/>
<path d="M222.086 238.353L303.438 238.337V228.273L291.979 228.319H193.537V233.183L222.086 233.153V238.353Z" fill="black"/>
<path d="M403.427 205.203H401.393H401.696L401.621 213.391H389.858V231.461H403.427V205.203Z" fill="black"/>
<path d="M408.01 217.553L405.021 217.568V227.205H408.01V217.553Z" fill="black"/>
<path d="M293.997 226.779L313.894 226.718V214.428H301.009V221.442L293.997 226.779Z" fill="black"/>
<path d="M299.491 220.695V214.428H193.537V226.794H291.463L299.491 220.695Z" fill="black"/>
<path d="M176.508 289.54C176.105 290.072 175.915 290.736 175.974 291.402C176.033 292.067 176.337 292.687 176.826 293.139L182.214 298.003C182.681 298.424 183.287 298.658 183.914 298.659H189.803C189.984 298.658 190.162 298.705 190.319 298.796L200.184 304.621C200.308 304.695 200.449 304.733 200.593 304.734C200.737 304.734 200.878 304.696 201.002 304.622C201.126 304.549 201.228 304.444 201.298 304.318C201.368 304.191 201.402 304.049 201.399 303.904V300.489L179.543 285.637L176.508 289.54Z" fill="black"/>
<path d="M135.164 228.823C134.657 228.78 134.151 228.921 133.739 229.221C133.327 229.52 133.035 229.958 132.917 230.455L132.599 232.254C132.599 232.254 132.599 232.254 132.599 232.361V240.107L134.253 242.349C138.928 242.349 142.191 242.349 142.585 242.349C143.044 242.284 143.508 242.284 143.967 242.349V229.433C143.75 229.199 143.487 229.012 143.194 228.886C142.901 228.76 142.585 228.697 142.267 228.701L135.164 228.823Z" fill="black"/>
<path d="M87.9312 234.555C87.8969 235.393 88.0856 236.224 88.4777 236.964C88.8699 237.704 89.4514 238.325 90.1623 238.764C91.6181 239.529 92.7499 240.796 93.3496 242.332H97.5993V234.113H87.9464L87.9312 234.555Z" fill="black"/>
<path d="M98.3584 242.302H129.305L131.036 240.289V233.961L98.3584 234.129V242.302Z" fill="black"/>
<path d="M260.272 179.051H239.251V181.338H260.5C260.409 180.515 260.333 179.752 260.272 179.051Z" fill="black"/>
<path d="M259.21 176.002H240.071C239.856 176.002 239.65 176.087 239.497 176.238C239.344 176.389 239.255 176.594 239.251 176.81V178.335H260.227C260.227 177.832 260.227 177.39 260.227 176.993C260.231 176.859 260.208 176.726 260.158 176.601C260.108 176.477 260.033 176.365 259.937 176.271C259.841 176.178 259.727 176.106 259.602 176.059C259.477 176.013 259.343 175.993 259.21 176.002Z" fill="black"/>
<path d="M275.389 207.323H281.9C282.539 207.151 283.132 206.839 283.636 206.409C284.14 205.98 284.542 205.443 284.814 204.837C285.422 203.936 285.755 202.876 285.771 201.788V196.252C285.771 195.545 285.491 194.866 284.993 194.366C284.495 193.865 283.819 193.584 283.115 193.584H268.848L274.797 201.117C275.162 201.581 275.36 202.156 275.359 202.748L275.389 207.323Z" fill="black"/>
<path d="M320.466 212.843V231.431H324.549V205.219H322.819C322.199 205.219 321.604 205.466 321.166 205.907C320.728 206.347 320.482 206.944 320.482 207.567L320.466 212.843Z" fill="black"/>
<path d="M154.166 233.215L152.77 230.988H146.957L145.439 233.108V238.338H154.166V233.215Z" fill="black"/>
<path d="M315.412 226.718L318.934 226.703V212.873L315.412 212.857V226.718Z" fill="black"/>
<path d="M192.839 217.645V209.106C192.837 209.016 192.813 208.928 192.768 208.851C192.723 208.773 192.658 208.709 192.581 208.664L185.842 204.669C185.56 204.522 185.248 204.445 184.931 204.445C184.614 204.445 184.302 204.522 184.02 204.669L177.054 208.496C176.977 208.538 176.912 208.599 176.866 208.674C176.821 208.749 176.797 208.835 176.796 208.923V218.515L182.396 222.159L192.839 217.645Z" fill="black"/>
<path d="M232.604 207.321H273.811V202.747C273.813 202.128 273.598 201.529 273.204 201.054L263.536 189.618C263.359 189.399 263.22 189.151 263.126 188.886L260.667 182.055H239.252V187.605L233.18 192.302C233.082 192.377 233.002 192.473 232.947 192.584C232.891 192.695 232.862 192.818 232.862 192.942V196.251H230.934C230.833 196.249 230.733 196.267 230.639 196.305C230.545 196.342 230.46 196.398 230.388 196.469C230.316 196.54 230.258 196.624 230.219 196.718C230.18 196.812 230.16 196.912 230.16 197.013V204.15C230.16 204.429 230.271 204.696 230.467 204.894C230.663 205.091 230.93 205.202 231.207 205.202H232.619L232.604 207.321Z" fill="black"/>
<path d="M89.768 239.359C88.9502 238.862 88.2788 238.155 87.8227 237.311C87.3666 236.467 87.1422 235.516 87.1727 234.556V234.19V212.4C87.1747 212.169 87.1309 211.94 87.0439 211.727C86.9569 211.513 86.8284 211.319 86.6659 211.156C86.5035 210.992 86.3102 210.863 86.0976 210.776C85.8849 210.688 85.657 210.645 85.4272 210.647H68.0945C67.539 210.647 67.0063 210.868 66.6135 211.263C66.2207 211.658 66 212.193 66 212.751V283.945C66.004 284.501 66.2264 285.032 66.6188 285.423C67.0112 285.815 67.5416 286.034 68.0945 286.034H80.5249C80.5249 286.034 84.6987 265.266 85.9281 259.091C87.1575 252.915 86.9146 251.924 90.3599 248.417C91.1567 247.765 91.7891 246.934 92.2058 245.991C92.6225 245.048 92.8117 244.019 92.758 242.988C92.5421 242.206 92.1642 241.478 91.6489 240.853C91.1336 240.227 90.4927 239.718 89.768 239.359ZM86.945 246.983C86.362 246.986 85.7912 246.815 85.305 246.492C84.8188 246.169 84.4391 245.708 84.2139 245.168C83.9887 244.628 83.9282 244.032 84.0401 243.457C84.152 242.883 84.4312 242.354 84.8424 241.939C85.2536 241.524 85.7782 241.24 86.3498 241.125C86.9214 241.01 87.5142 241.067 88.0531 241.291C88.592 241.514 89.0527 241.893 89.377 242.38C89.7012 242.867 89.8742 243.439 89.8743 244.025C89.8783 244.415 89.8056 244.802 89.6603 245.163C89.5151 245.524 89.3002 245.854 89.028 246.131C88.7558 246.409 88.4316 246.63 88.0742 246.781C87.7167 246.933 87.3329 247.012 86.945 247.014V246.983Z" fill="black"/>
<path d="M86.9453 242.621C86.6625 242.618 86.3852 242.7 86.1486 242.855C85.912 243.011 85.7267 243.234 85.6164 243.495C85.5061 243.757 85.4757 244.046 85.529 244.325C85.5823 244.604 85.717 244.861 85.9159 245.063C86.1148 245.265 86.369 245.403 86.6461 245.459C86.9233 245.516 87.2109 245.488 87.4725 245.38C87.7341 245.272 87.9578 245.088 88.1153 244.852C88.2727 244.616 88.3568 244.339 88.3568 244.055C88.3568 243.677 88.2086 243.315 87.9443 243.046C87.68 242.778 87.321 242.625 86.9453 242.621Z" fill="black"/>
<path d="M265.949 242.562H289.975C289.989 242.554 290.004 242.549 290.02 242.549C290.036 242.549 290.052 242.554 290.066 242.562L292.206 246.801C292.235 246.812 292.268 246.812 292.297 246.801H303.316C303.344 246.801 303.371 246.789 303.391 246.769C303.411 246.749 303.422 246.722 303.422 246.694V239.847C303.422 239.847 303.422 239.756 303.316 239.756H145.47C145.441 239.756 145.414 239.767 145.394 239.787C145.374 239.807 145.363 239.834 145.363 239.863V242.912C145.363 242.912 147.913 249.866 147.974 249.866H184.703C185.871 249.844 187.021 249.568 188.073 249.057C199.972 243.415 200.761 255.584 200.685 259.96C200.68 260.417 200.578 260.868 200.388 261.283C200.197 261.699 199.921 262.069 199.577 262.369L180.605 279.386C180.348 279.623 180.19 279.951 180.165 280.301L179.983 283.946C179.973 283.975 179.973 284.007 179.983 284.037L201.475 298.645C201.484 298.655 201.496 298.663 201.509 298.669C201.522 298.674 201.536 298.677 201.55 298.677C201.565 298.677 201.579 298.674 201.592 298.669C201.605 298.663 201.616 298.655 201.626 298.645C211.871 276.55 218.322 269.261 224.393 268.392L221.463 264.321C220.94 263.598 220.653 262.729 220.644 261.835V249.088H260.97L265.827 242.546L265.949 242.562Z" fill="black"/>
<path d="M249.253 250.688H222.146V261.91C222.159 262.462 222.345 262.996 222.677 263.435L226.153 268.269C228.991 268.132 231.587 267.964 235.502 267.949C249.876 267.872 246.795 254.591 246.597 253.646C246.59 253.631 246.587 253.616 246.587 253.6C246.587 253.584 246.59 253.568 246.597 253.554L249.253 250.688ZM233.985 266.576C226.927 266.683 227.914 267.262 224.332 262.2C224.189 261.982 224.11 261.729 224.104 261.468C224.104 260.34 224.104 257.168 224.104 256.802H226.047C226.441 263.542 229.553 264.106 233.803 264.167C233.831 264.168 233.86 264.16 233.884 264.144C233.907 264.128 233.926 264.105 233.936 264.078C233.946 264.051 233.947 264.022 233.94 263.994C233.932 263.966 233.916 263.941 233.894 263.923C232.513 262.886 227.716 258.678 232.786 253.92C233.529 253.293 234.396 252.833 235.331 252.57C236.265 252.307 237.245 252.247 238.204 252.395C240.906 252.685 244.655 253.92 244.67 258.403C244.7 264.182 242.423 266.439 233.985 266.576Z" fill="black"/>
<path d="M389.099 213.391H325.353V231.46H389.099V213.391ZM354.843 224.278L351.808 228.608C351.776 228.661 351.731 228.703 351.678 228.733C351.625 228.762 351.565 228.777 351.504 228.776C351.435 228.797 351.361 228.797 351.292 228.776C351.251 228.747 351.216 228.711 351.189 228.668C351.162 228.625 351.144 228.578 351.135 228.528C351.127 228.479 351.128 228.428 351.14 228.379C351.151 228.33 351.171 228.283 351.201 228.243L354.236 223.912C354.294 223.829 354.383 223.773 354.483 223.756C354.582 223.739 354.685 223.762 354.767 223.82C354.85 223.879 354.906 223.968 354.923 224.068C354.94 224.168 354.917 224.271 354.858 224.354L354.843 224.278ZM354.752 221.076C354.683 221.097 354.609 221.097 354.54 221.076C354.477 221.075 354.416 221.06 354.36 221.031C354.305 221.001 354.257 220.959 354.221 220.908L351.185 216.578C351.156 216.537 351.136 216.49 351.124 216.441C351.113 216.392 351.112 216.341 351.12 216.292C351.129 216.242 351.147 216.195 351.174 216.152C351.201 216.109 351.235 216.073 351.276 216.044C351.316 216.015 351.361 215.994 351.409 215.983C351.456 215.972 351.506 215.971 351.554 215.98C351.602 215.988 351.648 216.006 351.689 216.033C351.73 216.06 351.765 216.095 351.793 216.135L354.828 220.466C354.871 220.507 354.904 220.558 354.924 220.614C354.945 220.67 354.951 220.731 354.944 220.79C354.936 220.85 354.915 220.906 354.882 220.956C354.849 221.006 354.804 221.047 354.752 221.076ZM369.93 228.7C369.86 228.721 369.786 228.721 369.717 228.7C369.655 228.699 369.593 228.684 369.538 228.655C369.482 228.626 369.435 228.584 369.398 228.532L366.363 224.202C366.334 224.161 366.313 224.114 366.302 224.065C366.291 224.016 366.289 223.965 366.298 223.916C366.306 223.866 366.324 223.819 366.351 223.776C366.378 223.734 366.413 223.697 366.454 223.668C366.494 223.639 366.539 223.619 366.586 223.608C366.634 223.596 366.683 223.595 366.731 223.604C366.78 223.612 366.825 223.63 366.866 223.657C366.908 223.684 366.943 223.719 366.97 223.759L370.006 228.09C370.049 228.131 370.082 228.182 370.102 228.238C370.122 228.295 370.129 228.355 370.121 228.414C370.114 228.474 370.093 228.531 370.059 228.58C370.026 228.63 369.982 228.671 369.93 228.7ZM370.021 216.654L366.985 220.984C366.954 221.036 366.909 221.079 366.856 221.109C366.802 221.138 366.742 221.153 366.682 221.152C366.612 221.173 366.538 221.173 366.469 221.152C366.428 221.123 366.393 221.086 366.366 221.044C366.34 221.001 366.321 220.954 366.313 220.904C366.305 220.855 366.306 220.804 366.317 220.755C366.328 220.706 366.349 220.659 366.378 220.618L369.414 216.288C369.472 216.205 369.561 216.149 369.66 216.132C369.76 216.114 369.862 216.138 369.945 216.196C370.027 216.255 370.083 216.344 370.1 216.444C370.117 216.544 370.094 216.647 370.036 216.73L370.021 216.654Z" fill="black"/>
<path d="M313.895 213.284V208.907H232.604V212.186H229.265V208.877H224.711V212.125H221.676V208.877H217.123V212.125H214.087V208.877H209.534V212.125H206.939L205.906 209.456C205.843 209.294 205.732 209.156 205.588 209.058C205.445 208.96 205.275 208.907 205.102 208.907H193.916C193.824 208.907 193.735 208.944 193.669 209.01C193.604 209.076 193.567 209.165 193.567 209.258V213.284H313.895Z" fill="black"/>
<path d="M371.934 243.431L375.758 239.512H354.768C354.768 239.512 354.768 242.988 354.768 244.086C354.767 244.707 354.602 245.316 354.29 245.852C353.978 246.388 353.53 246.831 352.992 247.136L345.889 249.027C345.618 249.108 345.38 249.276 345.211 249.503C345.041 249.731 344.949 250.008 344.948 250.292C344.948 253.037 344.948 255.218 344.948 256.636C344.936 256.9 345.01 257.162 345.157 257.382C345.305 257.601 345.519 257.767 345.768 257.855C346.922 257.956 348.031 258.358 348.984 259.022C349.937 259.685 350.701 260.586 351.201 261.637C353.69 265.937 349.031 268.484 348.378 269.886C346.982 272.936 358.122 286.812 358.122 286.812H372.526C372.859 286.812 373.187 286.736 373.487 286.59C373.786 286.444 374.049 286.232 374.255 285.969C374.461 285.706 374.605 285.4 374.676 285.073C374.747 284.747 374.744 284.408 374.666 284.083C373.026 277.175 369.035 258.709 370.34 246.663C370.49 245.435 371.052 244.295 371.934 243.431Z" fill="black"/>
<path d="M397.735 232.984H325.308L327.494 241.661H339.742L340.774 239.617C341.026 239.114 341.412 238.692 341.889 238.395C342.366 238.099 342.915 237.942 343.476 237.94H377.792C378.152 237.895 378.517 237.942 378.854 238.077L383.848 240.029C384.237 240.172 384.581 240.415 384.848 240.733C385.114 241.051 385.293 241.434 385.366 241.844L386.428 248.187C386.465 248.405 386.578 248.602 386.749 248.742C386.919 248.883 387.134 248.956 387.354 248.949L396.794 248.736C397.031 248.725 397.254 248.624 397.42 248.454C397.586 248.285 397.682 248.059 397.69 247.821L397.781 240.548V240.288V237.727L397.735 232.984Z" fill="black"/>
<path d="M445.772 217.324H442.342L441.477 219.291C441.419 219.425 441.323 219.54 441.202 219.621C441.081 219.702 440.939 219.746 440.794 219.749C440.694 219.771 440.59 219.771 440.49 219.749C440.399 219.711 440.316 219.654 440.247 219.584C440.177 219.513 440.123 219.429 440.086 219.336C440.049 219.244 440.031 219.145 440.033 219.046C440.034 218.947 440.056 218.849 440.096 218.758L440.673 217.4H437.774L436.924 219.352C436.866 219.486 436.77 219.601 436.649 219.682C436.528 219.763 436.386 219.807 436.241 219.81C436.141 219.832 436.037 219.832 435.937 219.81C435.846 219.772 435.763 219.715 435.693 219.645C435.624 219.574 435.569 219.49 435.533 219.397C435.496 219.305 435.478 219.206 435.479 219.107C435.481 219.008 435.503 218.91 435.543 218.819L436.119 217.492H433.205L432.37 219.413C432.312 219.547 432.217 219.662 432.096 219.743C431.975 219.824 431.833 219.868 431.687 219.871C431.587 219.893 431.484 219.893 431.384 219.871C431.293 219.833 431.21 219.776 431.14 219.706C431.071 219.635 431.016 219.551 430.979 219.458C430.943 219.366 430.924 219.267 430.926 219.168C430.928 219.069 430.949 218.971 430.989 218.88L431.551 217.583L409.468 217.705L409.574 227.373H431.429L430.989 226.351C430.936 226.258 430.903 226.155 430.892 226.049C430.881 225.942 430.892 225.835 430.925 225.733C430.959 225.631 431.013 225.537 431.084 225.458C431.156 225.379 431.244 225.315 431.341 225.272C431.439 225.229 431.544 225.207 431.651 225.208C431.758 225.208 431.863 225.232 431.96 225.276C432.057 225.32 432.144 225.384 432.215 225.465C432.285 225.545 432.338 225.639 432.37 225.741L433.084 227.373H435.983L435.543 226.351C435.489 226.258 435.456 226.155 435.445 226.049C435.434 225.942 435.445 225.835 435.479 225.733C435.512 225.631 435.566 225.537 435.638 225.458C435.709 225.379 435.797 225.315 435.894 225.272C435.992 225.229 436.098 225.207 436.204 225.208C436.311 225.208 436.416 225.232 436.513 225.276C436.61 225.32 436.697 225.384 436.768 225.465C436.839 225.545 436.892 225.639 436.924 225.741L437.637 227.373H440.536L440.096 226.351C440.042 226.258 440.009 226.155 439.998 226.049C439.987 225.942 439.999 225.835 440.032 225.733C440.065 225.631 440.119 225.537 440.191 225.458C440.263 225.379 440.35 225.315 440.448 225.272C440.545 225.229 440.651 225.207 440.758 225.208C440.864 225.208 440.969 225.232 441.067 225.276C441.164 225.32 441.25 225.384 441.321 225.465C441.392 225.545 441.445 225.639 441.477 225.741L442.19 227.373H445.772C446.151 227.373 446.513 227.222 446.781 226.953C447.049 226.684 447.199 226.32 447.199 225.94V218.925C447.223 218.724 447.203 218.519 447.142 218.325C447.081 218.131 446.98 217.953 446.845 217.802C446.71 217.65 446.545 217.529 446.36 217.447C446.175 217.365 445.974 217.323 445.772 217.324Z" fill="black"/>
<path d="M301.191 248.432H291.326L289.125 244.086H266.662L262.109 250.185C259.073 289.343 269.834 327.006 272.232 334.783C272.359 335.187 272.627 335.53 272.988 335.749C273.348 335.968 273.776 336.048 274.19 335.972L310.92 329.309C311.158 329.265 311.385 329.172 311.585 329.035C311.785 328.898 311.954 328.72 312.081 328.513C312.208 328.306 312.291 328.074 312.324 327.833C312.356 327.592 312.338 327.347 312.271 327.113C299.522 282.878 301.191 248.432 301.191 248.432ZM280.55 323.743C280.464 323.758 280.377 323.758 280.292 323.743C280.135 323.745 279.982 323.698 279.854 323.608C279.726 323.517 279.629 323.389 279.578 323.24C270.942 299.422 270.047 275.635 270.29 263.573C270.29 263.371 270.37 263.177 270.512 263.034C270.654 262.891 270.847 262.811 271.048 262.811C271.25 262.811 271.443 262.891 271.585 263.034C271.727 263.177 271.807 263.371 271.807 263.573C271.565 275.528 272.445 299.102 281.005 322.691C281.051 322.789 281.076 322.896 281.078 323.005C281.079 323.114 281.058 323.221 281.015 323.321C280.972 323.421 280.908 323.51 280.828 323.583C280.747 323.655 280.653 323.71 280.55 323.743ZM296.046 312.124H295.818C295.657 312.127 295.5 312.076 295.371 311.979C295.242 311.883 295.148 311.746 295.105 311.59C290.569 297.357 288.215 282.513 288.123 267.568C288.144 267.372 288.233 267.19 288.375 267.053C288.516 266.917 288.701 266.834 288.897 266.821C288.997 266.823 289.095 266.845 289.187 266.885C289.278 266.925 289.36 266.983 289.429 267.055C289.499 267.127 289.553 267.213 289.589 267.306C289.625 267.399 289.643 267.499 289.641 267.599C289.733 282.378 292.061 297.057 296.547 311.133C296.58 311.231 296.593 311.335 296.586 311.438C296.578 311.541 296.55 311.642 296.504 311.734C296.457 311.827 296.393 311.909 296.314 311.976C296.235 312.042 296.144 312.093 296.046 312.124Z" fill="black"/>
</svg>
