<svg width="512" height="512" viewBox="0 0 512 512" fill="none" xmlns="http://www.w3.org/2000/svg">
<path d="M251.279 238.636C252.068 239.238 261.715 245.504 267.645 238.888C267.686 238.831 267.709 238.764 267.713 238.693C267.716 238.623 267.699 238.554 267.664 238.493C267.629 238.432 267.577 238.383 267.515 238.351C267.452 238.319 267.382 238.305 267.312 238.311C265.02 238.471 261.89 239.711 256.956 236.195C254.309 234.309 252.143 227.858 252.143 227.858L243.018 236.453C243.757 238.071 244.956 239.436 246.466 240.376C247.666 240.972 249.735 237.479 251.279 238.636Z" fill="black"/>
<path d="M292.487 147.404C292.244 147.311 291.983 147.274 291.724 147.294C291.464 147.314 291.212 147.391 290.987 147.521L285.801 150.514C285.659 150.595 285.534 150.703 285.434 150.833C285.334 150.962 285.26 151.11 285.217 151.268C285.174 151.426 285.163 151.59 285.184 151.753C285.205 151.915 285.258 152.071 285.34 152.213L286.369 153.994L295.922 148.758L292.487 147.404Z" fill="black"/>
<path d="M143.656 257.235C144.926 258.27 145.569 259.466 147.368 259.784C147.368 259.784 147.77 252.503 146.286 246.668C145.205 247.423 144.412 248.521 144.037 249.784C143.953 250.004 143.82 250.202 143.648 250.363C143.476 250.524 143.269 250.644 143.044 250.713C141.093 251.33 136.167 253.308 136.642 257.361C136.649 257.431 136.674 257.498 136.715 257.556C136.756 257.613 136.811 257.659 136.874 257.689C136.938 257.719 137.009 257.732 137.079 257.727C137.149 257.721 137.217 257.698 137.275 257.659C140.502 255.469 142.114 255.98 143.656 257.235Z" fill="black"/>
<path d="M214.676 372.551C216.998 371.21 217.918 368.64 218.248 367.363L210.315 371.943C210.852 372.546 211.585 372.938 212.384 373.049C213.183 373.16 213.995 372.984 214.676 372.551Z" fill="black"/>
<path d="M158.314 221.523C157.448 221.455 155.04 221.365 154.5 223.244L153.957 226.134C153.858 226.752 153.967 227.386 154.267 227.936L154.804 228.866L166.34 222.35C165.131 222.289 162.214 221.848 158.314 221.523Z" fill="black"/>
<path d="M224.569 241.085C224.952 240.864 225.231 240.5 225.345 240.073C225.46 239.647 225.4 239.192 225.179 238.81L221.981 233.271L204.674 243.264L207.871 248.802C208.092 249.185 208.456 249.464 208.883 249.578C209.309 249.692 209.764 249.633 210.146 249.412L224.569 241.085Z" fill="black"/>
<path d="M309.558 151.028C312.649 155.485 315.337 160.208 317.591 165.141L321.853 162.68C319.134 156.788 316.743 152.63 313.394 148.862L309.558 151.028Z" fill="black"/>
<path d="M160.051 242.549L147.9 249.564C148.414 253.286 148.255 263.002 148.305 263.455L176.969 246.905C178.094 246.256 182.615 244.194 182.908 240.121C183.075 237.813 180.687 233.644 178.879 231.678L175.454 233.655C176.887 234.143 178.094 235.134 178.852 236.443L179.526 237.612C179.833 238.132 180.033 238.707 180.116 239.305C180.198 239.903 180.162 240.511 180.008 241.094C179.853 241.678 179.585 242.225 179.218 242.704C178.851 243.183 178.393 243.584 177.87 243.885L167.702 249.756C167.183 250.055 166.61 250.25 166.016 250.328C165.422 250.406 164.818 250.367 164.239 250.211C163.661 250.056 163.118 249.789 162.643 249.424C162.167 249.059 161.768 248.604 161.469 248.085L160.773 246.881C160.017 245.572 159.76 244.033 160.051 242.549Z" fill="black"/>
<path d="M304.508 145.376L145.914 235.498C145.648 235.648 145.436 235.878 145.306 236.154C145.176 236.431 145.136 236.741 145.19 237.041L145.98 241.392C146.572 242.967 147.084 244.571 147.515 246.198C147.562 246.363 147.595 246.537 147.635 246.706L309.657 153.162C308.278 150.324 306.417 148.149 304.508 145.376Z" fill="black"/>
<path d="M226.294 238.196C226.683 238.874 226.787 239.677 226.585 240.432C226.383 241.186 225.89 241.83 225.215 242.223L210.728 250.587C210.05 250.976 209.246 251.08 208.492 250.878C207.737 250.676 207.093 250.183 206.701 249.508L203.508 243.977L150.224 274.74C151.085 277.21 152.371 279.51 154.023 281.537C154.183 281.731 154.408 281.86 154.656 281.902L158.358 282.467C158.704 282.521 159.058 282.464 159.37 282.305C162.027 280.945 175.37 274.895 180.734 288.134C186.711 302.865 185.035 335.119 194.721 354.094C204.407 373.068 205.618 372.801 209.509 370.93L220.455 364.61C220.311 363.382 220.272 362.144 220.338 360.909C220.426 359.774 220.791 358.677 221.4 357.715C222.01 356.753 222.845 355.955 223.834 355.39L254.576 337.642C254.576 337.642 257.875 335.564 255.674 330.768C252.466 323.745 238.186 287.155 237.489 284.615C236.003 279.194 237.159 270.854 243.928 266.475C249.63 262.827 273.992 245.137 281.699 239.534C282.345 239.063 282.794 238.37 282.958 237.587C283.123 236.805 282.991 235.989 282.59 235.298L274.096 220.587C274.096 220.587 269.866 214.376 274.78 211.164C279.695 207.952 292.883 199.751 294.68 197.002C296.223 194.678 295.133 192.058 294.764 191.319L223.084 232.703L226.294 238.196ZM224.061 267.436C225.458 271.254 250.332 325.996 250.418 328.908C250.584 334.293 245.15 337.488 244.883 337.642C244.004 338.15 210.276 357.738 209.31 358.18C208.437 358.576 207.491 358.789 206.531 358.803C205.572 358.818 204.62 358.634 203.735 358.264C201.071 357.148 198.895 354.395 197.267 350.076C194.62 343.095 187.643 294.788 186.673 290.81C186.092 288.355 185.271 285.963 184.223 283.668C182.296 279.415 180.614 275.752 186.488 272.004C188.751 270.544 206.302 260.94 211.445 258.374C212.295 257.96 213.229 257.746 214.176 257.748C215.122 257.75 216.055 257.968 216.903 258.386C220.435 259.972 222.891 264.227 224.061 267.436ZM233.687 271.868C232.947 272.293 232.098 272.49 231.247 272.432C230.396 272.375 229.581 272.066 228.905 271.546C228.229 271.025 227.723 270.316 227.451 269.507C227.178 268.699 227.151 267.828 227.373 267.004C227.596 266.181 228.057 265.442 228.7 264.88C229.342 264.319 230.137 263.961 230.983 263.851C231.829 263.742 232.688 263.885 233.453 264.264C234.217 264.643 234.852 265.24 235.277 265.979C235.559 266.47 235.742 267.012 235.815 267.574C235.888 268.136 235.849 268.706 235.702 269.253C235.554 269.8 235.3 270.312 234.955 270.761C234.609 271.21 234.178 271.586 233.687 271.868ZM257.017 222.631C264.449 216.417 267.037 215.605 273.368 225.488C275.036 227.952 276.367 230.627 277.326 233.443C277.527 234.096 277.516 234.795 277.295 235.441C277.074 236.087 276.654 236.646 276.095 237.039L245.446 258.579C244.547 259.224 243.516 259.662 242.427 259.861C239.948 260.331 235.755 259.963 233.175 254.078C229.269 245.247 250.42 228.19 257.017 222.631Z" fill="black"/>
<path d="M221.625 360.973C221.56 361.928 221.57 362.886 221.655 363.84L255.736 344.115C255.974 343.978 256.182 343.795 256.348 343.578C256.515 343.36 256.637 343.112 256.707 342.847C256.778 342.582 256.795 342.306 256.758 342.034C256.722 341.763 256.632 341.501 256.494 341.264L255.083 338.819L224.464 356.497C223.659 356.952 222.979 357.599 222.484 358.379C221.988 359.16 221.693 360.051 221.625 360.973Z" fill="black"/>
<path d="M230.035 265.524C229.517 265.821 229.1 266.264 228.834 266.799C228.569 267.333 228.469 267.934 228.545 268.526C228.622 269.117 228.872 269.673 229.265 270.122C229.658 270.571 230.175 270.894 230.751 271.049C231.327 271.204 231.936 271.185 232.501 270.994C233.066 270.803 233.562 270.448 233.925 269.975C234.288 269.502 234.503 268.932 234.543 268.337C234.582 267.741 234.444 267.148 234.145 266.631C233.745 265.942 233.088 265.439 232.318 265.231C231.548 265.024 230.727 265.129 230.035 265.524Z" fill="black"/>
<path d="M212.027 259.548C207.615 261.749 193.054 269.685 188.402 272.371C187.84 272.695 187.422 272.937 187.169 273.083C182.255 276.228 183.454 278.805 185.391 283.109C186.56 285.447 187.42 287.928 187.949 290.487C188.209 291.953 188.715 295.228 189.395 299.787C191.692 314.806 195.903 342.701 198.504 349.554C199.995 353.501 201.941 356.041 204.268 357.005C204.99 357.304 205.765 357.451 206.547 357.438C207.328 357.425 208.099 357.252 208.811 356.93C211.577 355.727 243.915 336.663 244.247 336.471C244.304 336.438 249.261 333.499 249.107 328.935C249.015 326.045 239.554 305.345 232.656 290.233C227.668 279.296 223.63 269.753 222.782 267.752C221.274 264.19 219.146 260.803 216.363 259.564C215.691 259.224 214.95 259.046 214.197 259.043C213.444 259.041 212.701 259.213 212.027 259.548ZM219.069 324.288C217.403 325.245 215.491 325.688 213.574 325.559C211.656 325.431 209.82 324.736 208.298 323.564C206.775 322.392 205.634 320.795 205.019 318.974C204.403 317.154 204.342 315.192 204.842 313.337C205.341 311.481 206.38 309.816 207.826 308.55C209.272 307.285 211.061 306.477 212.967 306.228C214.872 305.979 216.808 306.301 218.531 307.153C220.254 308.004 221.685 309.347 222.644 311.012C223.929 313.247 224.275 315.901 223.604 318.39C222.934 320.879 221.303 323 219.069 324.288Z" fill="black"/>
<path d="M210.012 308.582C208.573 309.419 207.415 310.663 206.683 312.158C205.951 313.653 205.678 315.331 205.899 316.98C206.121 318.63 206.826 320.177 207.926 321.426C209.026 322.675 210.472 323.569 212.081 323.997C213.689 324.425 215.388 324.366 216.963 323.828C218.538 323.29 219.919 322.298 220.93 320.976C221.941 319.654 222.538 318.062 222.645 316.401C222.752 314.74 222.364 313.085 221.53 311.644C220.976 310.686 220.238 309.847 219.358 309.174C218.479 308.502 217.476 308.009 216.406 307.725C215.336 307.44 214.221 307.37 213.124 307.517C212.027 307.664 210.969 308.026 210.012 308.582Z" fill="black"/>
<path d="M171.154 246.224L172.17 245.637L177.218 242.723C177.819 242.361 178.287 241.815 178.553 241.166C178.819 240.517 178.869 239.799 178.696 239.12C178.652 238.935 178.593 238.753 178.518 238.578C178.457 238.457 178.389 238.339 178.314 238.225L177.635 237.05C177.202 236.304 176.491 235.761 175.658 235.539C174.825 235.317 173.938 235.434 173.192 235.865L168.177 238.837L167.211 239.395C166.468 239.834 165.929 240.548 165.71 241.382C165.491 242.216 165.611 243.102 166.042 243.849L166.716 245.017C167.119 245.716 167.767 246.241 168.534 246.49C169.302 246.74 170.134 246.696 170.871 246.368C170.968 246.327 171.063 246.279 171.154 246.224Z" fill="black"/>
<path d="M310.96 155.421L180.019 231.02C181.782 232.675 184.411 237.378 184.211 240.214C183.922 244.708 179.072 247.2 177.623 248.037L148.396 264.911C148.517 267.357 148.873 269.786 149.458 272.163L191.939 247.637C191.939 247.637 191.906 247.579 191.893 247.557L188.221 231.938C188.181 231.622 188.258 231.302 188.437 231.039C188.617 230.776 188.886 230.587 189.194 230.508C189.503 230.429 189.829 230.465 190.113 230.61C190.396 230.755 190.617 230.998 190.734 231.294L194.247 246.304L197.593 244.373C197.593 244.373 197.559 244.315 197.547 244.293L193.875 228.674C193.807 228.501 193.776 228.316 193.785 228.131C193.794 227.946 193.842 227.764 193.927 227.599C194.011 227.434 194.129 227.289 194.274 227.173C194.419 227.057 194.587 226.973 194.767 226.927C194.946 226.881 195.134 226.874 195.316 226.906C195.499 226.938 195.673 227.009 195.826 227.113C195.98 227.217 196.109 227.353 196.206 227.511C196.303 227.669 196.365 227.846 196.388 228.03L199.9 243.04L203.225 241.121C203.225 241.121 203.191 241.063 203.179 241.042L199.507 225.422C199.439 225.249 199.408 225.064 199.417 224.879C199.426 224.694 199.474 224.513 199.559 224.347C199.643 224.182 199.761 224.037 199.906 223.921C200.051 223.805 200.219 223.722 200.399 223.676C200.578 223.63 200.766 223.622 200.948 223.654C201.131 223.686 201.305 223.757 201.458 223.861C201.612 223.966 201.741 224.101 201.838 224.26C201.935 224.418 201.997 224.595 202.02 224.779L205.532 239.789L208.857 237.869C208.857 237.869 208.823 237.812 208.811 237.79L205.139 222.17C205.099 221.854 205.176 221.535 205.355 221.272C205.534 221.008 205.803 220.819 206.112 220.741C206.42 220.662 206.747 220.698 207.03 220.843C207.314 220.988 207.535 221.231 207.652 221.527L211.164 236.537L214.539 234.589C214.539 234.589 214.506 234.531 214.493 234.509L210.821 218.89C210.753 218.717 210.723 218.532 210.732 218.347C210.74 218.162 210.789 217.98 210.873 217.815C210.957 217.65 211.076 217.505 211.221 217.389C211.366 217.273 211.533 217.189 211.713 217.143C211.893 217.097 212.08 217.09 212.263 217.122C212.446 217.154 212.619 217.224 212.773 217.329C212.926 217.433 213.055 217.569 213.152 217.727C213.249 217.885 213.311 218.062 213.334 218.246L216.847 233.256L220.171 231.337C220.171 231.337 220.138 231.279 220.125 231.258L216.453 215.638C216.385 215.465 216.355 215.28 216.363 215.095C216.372 214.91 216.421 214.729 216.505 214.563C216.589 214.398 216.708 214.253 216.853 214.137C216.998 214.021 217.165 213.938 217.345 213.892C217.525 213.846 217.712 213.838 217.895 213.87C218.078 213.902 218.251 213.973 218.405 214.077C218.558 214.182 218.687 214.317 218.784 214.475C218.881 214.634 218.943 214.811 218.966 214.995L222.479 230.005L320.674 173.311C319.585 171.325 312.479 157.284 310.96 155.421Z" fill="black"/>
</svg>
