<svg width="512" height="160" viewBox="0 0 512 160" fill="none" xmlns="http://www.w3.org/2000/svg">
<path d="M260.677 62.3236C261.06 63.2395 266.281 73.4902 274.724 70.7256C274.788 70.6964 274.842 70.6495 274.88 70.5904C274.918 70.5314 274.938 70.4627 274.938 70.3925C274.938 70.3224 274.918 70.2537 274.88 70.1947C274.842 70.1356 274.788 70.0887 274.724 70.0595C272.659 69.0519 269.329 68.5606 266.814 63.048C265.465 60.0919 266.814 53.4219 266.814 53.4219L254.614 56.3031C254.445 58.0737 254.801 59.8551 255.639 61.4242C256.38 62.5401 259.919 60.5499 260.677 62.3236Z" fill="black"/>
<path d="M341.979 3.91908C341.815 3.71705 341.608 3.55399 341.374 3.44166C341.139 3.32933 340.882 3.27055 340.622 3.26956H334.635C334.471 3.26846 334.309 3.29974 334.157 3.3616C334.006 3.42346 333.868 3.51468 333.752 3.63001C333.636 3.74533 333.544 3.88248 333.481 4.03356C333.418 4.18464 333.386 4.34666 333.386 4.5103V6.56711L344.278 6.80859L341.979 3.91908Z" fill="black"/>
<path d="M158.173 24.619C158.756 26.1512 158.714 27.5085 160.113 28.6827C160.113 28.6827 164.102 22.5789 165.734 16.7832C164.421 16.8965 163.185 17.4512 162.228 18.357C162.046 18.5057 161.831 18.6107 161.602 18.6641C161.373 18.7175 161.134 18.7178 160.904 18.6651C158.906 18.2238 153.651 17.4744 152.036 21.2216C152.007 21.2858 151.995 21.3565 152.002 21.4267C152.008 21.4969 152.033 21.5642 152.073 21.622C152.113 21.6799 152.168 21.7264 152.231 21.7569C152.295 21.7874 152.365 21.8009 152.436 21.7961C156.324 21.513 157.465 22.7621 158.173 24.619Z" fill="black"/>
<path d="M162.02 159.997C164.702 159.997 166.783 158.232 167.708 157.291H158.548C158.711 158.081 159.15 158.787 159.786 159.283C160.423 159.779 161.214 160.032 162.02 159.997Z" fill="black"/>
<path d="M188.724 1.02107C188.008 0.529769 185.968 -0.752607 184.561 0.604713L182.646 2.83638C182.25 3.32213 182.028 3.9256 182.013 4.55177V5.62596L195.261 5.75087C194.245 5.09303 191.939 3.25274 188.724 1.02107Z" fill="black"/>
<path d="M236.321 51.09C236.762 51.09 237.186 50.9145 237.498 50.6022C237.811 50.2898 237.986 49.8662 237.986 49.4245V43.0293H218.001V49.4245C218.001 49.8662 218.176 50.2898 218.489 50.6022C218.801 50.9145 219.225 51.09 219.666 51.09H236.321Z" fill="black"/>
<path d="M354.952 15.5938C355.401 20.9986 355.367 26.4327 354.853 31.8316H359.774C360.365 25.3698 360.373 20.5734 359.358 15.6354L354.952 15.5938Z" fill="black"/>
<path d="M179.714 20.0977H165.684C164.268 23.5783 159.272 31.9134 159.089 32.3298H192.188C193.487 32.3298 198.433 32.8044 200.723 29.4237C202.022 27.5085 202.039 22.704 201.456 20.0977H197.501C198.498 21.2362 199.048 22.6977 199.049 24.2111V25.5601C199.055 26.1635 198.941 26.762 198.713 27.321C198.486 27.88 198.15 28.3883 197.725 28.8166C197.3 29.2448 196.794 29.5845 196.236 29.8159C195.679 30.0473 195.081 30.1659 194.478 30.1648H182.737C182.138 30.1648 181.544 30.0468 180.991 29.8175C180.437 29.5881 179.934 29.252 179.51 28.8283C179.087 28.4046 178.751 27.9015 178.521 27.3479C178.292 26.7943 178.174 26.2009 178.174 25.6017V24.2111C178.173 22.6988 178.72 21.2374 179.714 20.0977Z" fill="black"/>
<path d="M353.404 8.1729L170.996 6.92388C170.691 6.92133 170.392 7.0137 170.142 7.18823C169.891 7.36275 169.701 7.61081 169.597 7.89812L168.107 12.0615C167.831 13.7216 167.473 15.3669 167.033 16.991C166.991 17.1576 166.933 17.3241 166.883 17.4906H353.97C354.195 14.3431 353.67 11.5286 353.404 8.1729Z" fill="black"/>
<path d="M239.26 49.4492C239.258 50.2303 238.946 50.9788 238.394 51.5311C237.842 52.0834 237.093 52.3947 236.312 52.3969H219.584C218.802 52.3947 218.054 52.0834 217.502 51.5311C216.949 50.9788 216.638 50.2303 216.636 49.4492V43.0625H155.109C154.62 45.6316 154.584 48.2663 155.001 50.8481C155.043 51.0961 155.173 51.3207 155.367 51.4809L158.29 53.8208C158.562 54.0406 158.898 54.1688 159.247 54.1872C162.228 54.337 176.809 55.7693 174.835 69.9165C172.645 85.6626 155.067 112.758 153.968 134.033C152.869 155.308 154.051 155.683 158.356 156.008H170.997C171.486 154.872 172.071 153.78 172.745 152.744C173.389 151.804 174.253 151.037 175.262 150.509C176.271 149.981 177.394 149.707 178.532 149.713H214.03C214.03 149.713 217.927 149.563 218.418 144.308C219.151 136.623 225.079 97.7948 225.745 95.2468C227.169 89.8093 232.34 83.1645 240.392 82.7565C247.154 82.4484 277.097 79.3092 286.573 78.31C287.368 78.2255 288.103 77.8493 288.637 77.2541C289.171 76.6589 289.465 75.8869 289.462 75.0875V58.1008C289.462 58.1008 288.904 50.6066 294.767 50.2819C300.629 49.9571 316.15 49.4492 319.081 47.967C321.579 46.7263 321.945 43.9118 321.995 43.0875H239.227L239.26 49.4492ZM222.706 73.6553C222.007 77.6605 216.178 137.505 214.796 140.07C212.248 144.816 205.944 144.866 205.636 144.866C204.62 144.866 165.617 144.966 164.56 144.866C163.605 144.773 162.679 144.484 161.841 144.017C161.003 143.55 160.27 142.915 159.689 142.152C157.94 139.854 157.432 136.381 158.182 131.827C159.381 124.457 177.491 79.1343 178.641 75.2041C179.365 72.7872 179.85 70.305 180.089 67.7932C180.547 63.1468 180.922 59.1333 187.883 58.8252C190.573 58.692 210.574 59.1499 216.311 59.4997C217.255 59.566 218.171 59.8474 218.989 60.3222C219.808 60.7971 220.506 61.4528 221.032 62.2392C223.297 65.3784 223.297 70.2912 222.706 73.6553ZM228.826 82.3069C227.973 82.3052 227.14 82.0506 226.431 81.5753C225.723 81.1 225.171 80.4253 224.847 79.6365C224.522 78.8477 224.438 77.9803 224.606 77.1439C224.774 76.3075 225.186 75.5398 225.791 74.9377C226.395 74.3357 227.164 73.9264 228.001 73.7615C228.838 73.5967 229.705 73.6838 230.493 74.0118C231.281 74.3398 231.953 74.8939 232.426 75.6042C232.898 76.3144 233.15 77.1488 233.148 78.0019C233.147 78.5683 233.034 79.129 232.816 79.6519C232.599 80.1748 232.28 80.6497 231.879 81.0494C231.477 81.4492 231.001 81.766 230.478 81.9817C229.954 82.1975 229.393 82.308 228.826 82.3069ZM273.65 51.331C283.192 49.6657 285.84 50.2569 286.381 61.9811C286.594 64.9484 286.409 67.9308 285.832 70.8491C285.68 71.5148 285.32 72.1151 284.806 72.5639C284.291 73.0127 283.648 73.2869 282.967 73.3472L245.655 76.6779C244.553 76.7868 243.442 76.6503 242.399 76.2782C240.018 75.4456 236.57 73.0308 237.278 66.6441C238.311 57.0433 265.156 52.8465 273.65 51.331Z" fill="black"/>
<path d="M173.827 153.443C173.294 154.238 172.823 155.073 172.42 155.941L211.798 155.899C212.072 155.899 212.343 155.845 212.596 155.74C212.849 155.635 213.079 155.481 213.272 155.287C213.466 155.093 213.619 154.862 213.723 154.609C213.827 154.355 213.88 154.083 213.879 153.809V150.987H178.523C177.599 150.978 176.687 151.198 175.868 151.626C175.048 152.055 174.348 152.679 173.827 153.443Z" fill="black"/>
<path d="M228.834 74.9883C228.238 74.9866 227.654 75.162 227.157 75.4923C226.66 75.8225 226.273 76.2927 226.043 76.8434C225.814 77.394 225.753 78.0004 225.868 78.5857C225.984 79.1709 226.27 79.7088 226.691 80.1312C227.113 80.5537 227.65 80.8416 228.235 80.9586C228.82 81.0756 229.426 81.0164 229.978 80.7884C230.529 80.5605 231 80.1742 231.332 79.6783C231.663 79.1824 231.84 78.5992 231.84 78.0027C231.838 77.2053 231.521 76.4411 230.958 75.8765C230.395 75.3119 229.632 74.9927 228.834 74.9883Z" fill="black"/>
<path d="M216.228 60.8074C211.307 60.5076 194.728 60.0996 189.357 60.0996C188.708 60.0996 188.225 60.0996 187.933 60.0996C182.105 60.3661 181.855 63.1972 181.38 67.8935C181.223 70.5029 180.728 73.0808 179.906 75.5625C179.398 76.9615 178.199 80.0507 176.509 84.339C170.988 98.4946 160.688 124.757 159.514 131.993C158.831 136.157 159.247 139.329 160.78 141.328C161.256 141.947 161.854 142.463 162.537 142.842C163.22 143.222 163.974 143.457 164.751 143.534C167.749 143.876 205.287 143.534 205.67 143.534C205.736 143.534 211.498 143.468 213.647 139.438C215.012 136.89 217.169 114.232 218.751 97.6953C219.9 85.7296 221.174 75.446 221.441 73.2893C221.915 69.4506 221.765 65.4538 219.975 62.989C219.563 62.3589 219.01 61.8337 218.36 61.4549C217.709 61.0762 216.979 60.8545 216.228 60.8074ZM189.957 120.394C188.035 120.391 186.158 119.818 184.562 118.748C182.966 117.678 181.723 116.158 180.99 114.382C180.257 112.606 180.068 110.652 180.445 108.768C180.823 106.884 181.751 105.154 183.111 103.797C184.472 102.44 186.204 101.517 188.089 101.144C189.974 100.771 191.927 100.966 193.702 101.703C195.476 102.44 196.992 103.687 198.058 105.286C199.124 106.885 199.693 108.764 199.691 110.685C199.686 113.263 198.659 115.734 196.833 117.554C195.008 119.375 192.535 120.396 189.957 120.394Z" fill="black"/>
<path d="M189.965 102.268C188.301 102.273 186.675 102.771 185.294 103.699C183.912 104.628 182.837 105.945 182.204 107.484C181.571 109.023 181.408 110.715 181.737 112.347C182.065 113.979 182.87 115.476 184.049 116.651C185.228 117.826 186.729 118.624 188.362 118.946C189.995 119.268 191.687 119.099 193.223 118.459C194.76 117.82 196.073 116.74 196.996 115.355C197.919 113.97 198.41 112.342 198.409 110.678C198.408 109.571 198.188 108.475 197.763 107.453C197.338 106.431 196.715 105.503 195.931 104.722C195.147 103.94 194.216 103.322 193.192 102.9C192.169 102.479 191.072 102.264 189.965 102.268Z" fill="black"/>
<path d="M187.491 28.8333H188.665H194.494C195.196 28.82 195.874 28.5812 196.429 28.1522C196.984 27.7233 197.386 27.127 197.575 26.4517C197.63 26.2694 197.669 26.0828 197.692 25.8938C197.7 25.7579 197.7 25.6216 197.692 25.4858V24.1284C197.69 23.2664 197.346 22.4403 196.735 21.8315C196.125 21.2227 195.298 20.8809 194.436 20.8809L188.607 20.9475H187.491C186.629 20.9563 185.805 21.3049 185.199 21.9177C184.592 22.5305 184.252 23.3578 184.252 24.22V25.569C184.252 26.3759 184.55 27.1542 185.09 27.7539C185.63 28.3537 186.372 28.7322 187.175 28.8166C187.28 28.8293 187.385 28.8348 187.491 28.8333Z" fill="black"/>
<path d="M353.97 20.0977H202.772C203.471 22.4125 203.396 27.8 201.806 30.1565C199.308 33.9035 193.862 33.6371 192.188 33.6371H158.44C157.322 35.8158 156.416 38.0967 155.733 40.4484H204.787C204.787 40.4484 204.787 40.3818 204.787 40.3568L209.416 24.9938C209.54 24.7003 209.766 24.462 210.053 24.3236C210.34 24.1851 210.667 24.1561 210.974 24.242C211.281 24.3279 211.545 24.5227 211.719 24.7899C211.892 25.0571 211.961 25.3783 211.915 25.6933L207.451 40.4484H211.315C211.315 40.4484 211.315 40.3818 211.315 40.3568L215.945 24.9938C215.972 24.8104 216.038 24.6348 216.138 24.4789C216.239 24.3229 216.371 24.19 216.527 24.0892C216.682 23.9883 216.858 23.9217 217.041 23.8938C217.224 23.8659 217.412 23.8773 217.59 23.9273C217.769 23.9773 217.935 24.0648 218.077 24.1838C218.219 24.3029 218.334 24.4509 218.415 24.6179C218.496 24.7849 218.54 24.9672 218.545 25.1526C218.549 25.338 218.515 25.5223 218.443 25.6933L213.98 40.4484H217.818C217.818 40.4484 217.818 40.3818 217.818 40.3568L222.448 24.9938C222.475 24.8104 222.541 24.6348 222.642 24.4789C222.742 24.3229 222.874 24.19 223.03 24.0892C223.186 23.9883 223.361 23.9217 223.544 23.8938C223.728 23.8659 223.915 23.8773 224.094 23.9273C224.272 23.9773 224.438 24.0648 224.58 24.1838C224.722 24.3029 224.838 24.4509 224.918 24.6179C224.999 24.7849 225.043 24.9672 225.048 25.1526C225.053 25.338 225.018 25.5223 224.946 25.6933L220.483 40.4484H224.322C224.322 40.4484 224.322 40.3818 224.322 40.3568L228.951 24.9938C229.075 24.7003 229.301 24.462 229.588 24.3236C229.875 24.1851 230.202 24.1561 230.509 24.242C230.815 24.3279 231.08 24.5227 231.253 24.7899C231.426 25.0571 231.496 25.3783 231.449 25.6933L226.986 40.4484H230.883C230.883 40.4484 230.883 40.3818 230.883 40.3568L235.513 24.9938C235.54 24.8104 235.606 24.6348 235.706 24.4789C235.807 24.3229 235.939 24.19 236.095 24.0892C236.25 23.9883 236.426 23.9217 236.609 23.8938C236.793 23.8659 236.98 23.8773 237.158 23.9273C237.337 23.9773 237.503 24.0648 237.645 24.1838C237.787 24.3029 237.903 24.4509 237.983 24.6179C238.064 24.7849 238.108 24.9672 238.113 25.1526C238.117 25.338 238.083 25.5223 238.011 25.6933L233.548 40.4484H237.386C237.386 40.4484 237.386 40.3818 237.386 40.3568L242.016 24.9938C242.043 24.8104 242.109 24.6348 242.21 24.4789C242.31 24.3229 242.442 24.19 242.598 24.0892C242.754 23.9883 242.929 23.9217 243.112 23.8938C243.296 23.8659 243.483 23.8773 243.662 23.9273C243.84 23.9773 244.006 24.0648 244.148 24.1838C244.291 24.3029 244.406 24.4509 244.486 24.6179C244.567 24.7849 244.611 24.9672 244.616 25.1526C244.621 25.338 244.586 25.5223 244.514 25.6933L240.051 40.4484H353.437C353.487 38.1835 354.353 22.4708 353.97 20.0977Z" fill="black"/>
</svg>
