<svg width="512" height="512" viewBox="0 0 512 512" fill="none" xmlns="http://www.w3.org/2000/svg">
<path d="M260.677 238.324C261.06 239.24 266.281 249.49 274.724 246.726C274.788 246.696 274.842 246.649 274.88 246.59C274.918 246.531 274.938 246.463 274.938 246.393C274.938 246.322 274.918 246.254 274.88 246.195C274.842 246.136 274.788 246.089 274.724 246.059C272.659 245.052 269.329 244.561 266.814 239.048C265.465 236.092 266.814 229.422 266.814 229.422L254.614 232.303C254.445 234.074 254.801 235.855 255.639 237.424C256.38 238.54 259.919 236.55 260.677 238.324Z" fill="black"/>
<path d="M341.979 179.919C341.815 179.717 341.608 179.554 341.374 179.442C341.139 179.329 340.882 179.271 340.622 179.27H334.635C334.471 179.268 334.309 179.3 334.157 179.362C334.006 179.423 333.868 179.515 333.752 179.63C333.636 179.745 333.544 179.882 333.481 180.034C333.418 180.185 333.386 180.347 333.386 180.51V182.567L344.278 182.809L341.979 179.919Z" fill="black"/>
<path d="M158.173 200.619C158.756 202.151 158.714 203.509 160.113 204.683C160.113 204.683 164.102 198.579 165.734 192.783C164.421 192.896 163.185 193.451 162.228 194.357C162.046 194.506 161.831 194.611 161.602 194.664C161.373 194.717 161.134 194.718 160.904 194.665C158.906 194.224 153.651 193.474 152.036 197.222C152.007 197.286 151.995 197.357 152.002 197.427C152.008 197.497 152.033 197.564 152.073 197.622C152.113 197.68 152.168 197.726 152.231 197.757C152.295 197.787 152.365 197.801 152.436 197.796C156.324 197.513 157.465 198.762 158.173 200.619Z" fill="black"/>
<path d="M162.02 335.997C164.702 335.997 166.783 334.232 167.708 333.291H158.548C158.711 334.081 159.15 334.787 159.786 335.283C160.423 335.779 161.214 336.032 162.02 335.997Z" fill="black"/>
<path d="M188.724 177.021C188.008 176.53 185.968 175.247 184.561 176.605L182.646 178.836C182.25 179.322 182.028 179.926 182.013 180.552V181.626L195.261 181.751C194.245 181.093 191.939 179.253 188.724 177.021Z" fill="black"/>
<path d="M236.321 227.09C236.762 227.09 237.186 226.914 237.498 226.602C237.811 226.29 237.986 225.866 237.986 225.425V219.029H218.001V225.425C218.001 225.866 218.176 226.29 218.489 226.602C218.801 226.914 219.225 227.09 219.666 227.09H236.321Z" fill="black"/>
<path d="M354.952 191.594C355.401 196.999 355.367 202.433 354.853 207.832H359.774C360.365 201.37 360.373 196.573 359.358 191.635L354.952 191.594Z" fill="black"/>
<path d="M179.714 196.098H165.684C164.268 199.578 159.272 207.913 159.089 208.33H192.188C193.487 208.33 198.433 208.804 200.723 205.424C202.022 203.509 202.039 198.704 201.456 196.098H197.501C198.498 197.236 199.048 198.698 199.049 200.211V201.56C199.055 202.163 198.941 202.762 198.713 203.321C198.486 203.88 198.15 204.388 197.725 204.817C197.3 205.245 196.794 205.584 196.236 205.816C195.679 206.047 195.081 206.166 194.478 206.165H182.737C182.138 206.165 181.544 206.047 180.991 205.817C180.437 205.588 179.934 205.252 179.51 204.828C179.087 204.405 178.751 203.902 178.521 203.348C178.292 202.794 178.174 202.201 178.174 201.602V200.211C178.173 198.699 178.72 197.237 179.714 196.098Z" fill="black"/>
<path d="M353.404 184.173L170.996 182.924C170.691 182.921 170.392 183.014 170.142 183.188C169.891 183.363 169.701 183.611 169.597 183.898L168.107 188.062C167.831 189.722 167.473 191.367 167.033 192.991C166.991 193.158 166.933 193.324 166.883 193.491H353.97C354.195 190.343 353.67 187.529 353.404 184.173Z" fill="black"/>
<path d="M239.26 225.449C239.258 226.23 238.946 226.979 238.394 227.531C237.842 228.083 237.093 228.395 236.312 228.397H219.584C218.802 228.395 218.054 228.083 217.502 227.531C216.949 226.979 216.638 226.23 216.636 225.449V219.062H155.109C154.62 221.632 154.584 224.266 155.001 226.848C155.043 227.096 155.173 227.321 155.367 227.481L158.29 229.821C158.562 230.041 158.898 230.169 159.247 230.187C162.228 230.337 176.809 231.769 174.835 245.917C172.645 261.663 155.067 288.758 153.968 310.033C152.869 331.308 154.051 331.683 158.356 332.008H170.997C171.486 330.872 172.071 329.78 172.745 328.744C173.389 327.804 174.253 327.037 175.262 326.509C176.271 325.981 177.394 325.707 178.532 325.713H214.03C214.03 325.713 217.927 325.563 218.418 320.308C219.151 312.623 225.079 273.795 225.745 271.247C227.169 265.809 232.34 259.165 240.392 258.757C247.154 258.448 277.097 255.309 286.573 254.31C287.368 254.226 288.103 253.849 288.637 253.254C289.171 252.659 289.465 251.887 289.462 251.088V234.101C289.462 234.101 288.904 226.607 294.767 226.282C300.629 225.957 316.15 225.449 319.081 223.967C321.579 222.726 321.945 219.912 321.995 219.087H239.227L239.26 225.449ZM222.706 249.655C222.007 253.66 216.178 313.505 214.796 316.07C212.248 320.816 205.944 320.866 205.636 320.866C204.62 320.866 165.617 320.966 164.56 320.866C163.605 320.773 162.679 320.484 161.841 320.017C161.003 319.55 160.27 318.915 159.689 318.152C157.94 315.854 157.432 312.381 158.182 307.827C159.381 300.457 177.491 255.134 178.641 251.204C179.365 248.787 179.85 246.305 180.089 243.793C180.547 239.147 180.922 235.133 187.883 234.825C190.573 234.692 210.574 235.15 216.311 235.5C217.255 235.566 218.171 235.847 218.989 236.322C219.808 236.797 220.506 237.453 221.032 238.239C223.297 241.378 223.297 246.291 222.706 249.655ZM228.826 258.307C227.973 258.305 227.14 258.051 226.431 257.575C225.723 257.1 225.171 256.425 224.847 255.636C224.522 254.848 224.438 253.98 224.606 253.144C224.774 252.308 225.186 251.54 225.791 250.938C226.395 250.336 227.164 249.926 228.001 249.762C228.838 249.597 229.705 249.684 230.493 250.012C231.281 250.34 231.953 250.894 232.426 251.604C232.898 252.314 233.15 253.149 233.148 254.002C233.147 254.568 233.034 255.129 232.816 255.652C232.599 256.175 232.28 256.65 231.879 257.049C231.477 257.449 231.001 257.766 230.478 257.982C229.954 258.197 229.393 258.308 228.826 258.307ZM273.65 227.331C283.192 225.666 285.84 226.257 286.381 237.981C286.594 240.948 286.409 243.931 285.832 246.849C285.68 247.515 285.32 248.115 284.806 248.564C284.291 249.013 283.648 249.287 282.967 249.347L245.655 252.678C244.553 252.787 243.442 252.65 242.399 252.278C240.018 251.446 236.57 249.031 237.278 242.644C238.311 233.043 265.156 228.847 273.65 227.331Z" fill="black"/>
<path d="M173.827 329.443C173.294 330.238 172.823 331.073 172.42 331.941L211.798 331.899C212.072 331.899 212.343 331.845 212.596 331.74C212.849 331.635 213.079 331.481 213.272 331.287C213.466 331.093 213.619 330.862 213.723 330.609C213.827 330.355 213.88 330.083 213.879 329.809V326.987H178.523C177.599 326.978 176.687 327.198 175.868 327.626C175.048 328.055 174.348 328.679 173.827 329.443Z" fill="black"/>
<path d="M228.834 250.988C228.238 250.987 227.654 251.162 227.157 251.492C226.66 251.822 226.273 252.293 226.043 252.843C225.814 253.394 225.753 254 225.868 254.586C225.984 255.171 226.27 255.709 226.691 256.131C227.113 256.554 227.65 256.842 228.235 256.959C228.82 257.076 229.426 257.016 229.978 256.788C230.529 256.561 231 256.174 231.332 255.678C231.663 255.182 231.84 254.599 231.84 254.003C231.838 253.205 231.521 252.441 230.958 251.877C230.395 251.312 229.632 250.993 228.834 250.988Z" fill="black"/>
<path d="M216.228 236.807C211.307 236.508 194.728 236.1 189.357 236.1C188.708 236.1 188.225 236.1 187.933 236.1C182.105 236.366 181.855 239.197 181.38 243.894C181.223 246.503 180.728 249.081 179.906 251.563C179.398 252.961 178.199 256.051 176.509 260.339C170.988 274.495 160.688 300.757 159.514 307.993C158.831 312.157 159.247 315.329 160.78 317.328C161.256 317.947 161.854 318.463 162.537 318.842C163.22 319.222 163.974 319.457 164.751 319.534C167.749 319.876 205.287 319.534 205.67 319.534C205.736 319.534 211.498 319.468 213.647 315.438C215.012 312.89 217.169 290.232 218.751 273.695C219.9 261.73 221.174 251.446 221.441 249.289C221.915 245.451 221.765 241.454 219.975 238.989C219.563 238.359 219.01 237.834 218.36 237.455C217.709 237.076 216.979 236.854 216.228 236.807ZM189.957 296.394C188.035 296.391 186.158 295.818 184.562 294.748C182.966 293.678 181.723 292.158 180.99 290.382C180.257 288.606 180.068 286.652 180.445 284.768C180.823 282.884 181.751 281.154 183.111 279.797C184.472 278.44 186.204 277.517 188.089 277.144C189.974 276.771 191.927 276.966 193.702 277.703C195.476 278.44 196.992 279.687 198.058 281.286C199.124 282.885 199.693 284.764 199.691 286.685C199.686 289.263 198.659 291.734 196.833 293.554C195.008 295.375 192.535 296.396 189.957 296.394Z" fill="black"/>
<path d="M189.965 278.268C188.301 278.273 186.675 278.771 185.294 279.699C183.912 280.628 182.837 281.945 182.204 283.484C181.571 285.023 181.408 286.715 181.737 288.347C182.065 289.979 182.87 291.476 184.049 292.651C185.228 293.826 186.729 294.624 188.362 294.946C189.995 295.268 191.687 295.099 193.223 294.459C194.76 293.82 196.073 292.74 196.996 291.355C197.919 289.97 198.41 288.342 198.409 286.678C198.408 285.571 198.188 284.475 197.763 283.453C197.338 282.431 196.715 281.503 195.931 280.722C195.147 279.94 194.216 279.322 193.192 278.9C192.169 278.479 191.072 278.264 189.965 278.268Z" fill="black"/>
<path d="M187.491 204.833H188.665H194.494C195.196 204.82 195.874 204.581 196.429 204.152C196.984 203.723 197.386 203.127 197.575 202.452C197.63 202.269 197.669 202.083 197.692 201.894C197.7 201.758 197.7 201.622 197.692 201.486V200.128C197.69 199.266 197.346 198.44 196.735 197.832C196.125 197.223 195.298 196.881 194.436 196.881L188.607 196.947H187.491C186.629 196.956 185.805 197.305 185.199 197.918C184.592 198.53 184.252 199.358 184.252 200.22V201.569C184.252 202.376 184.55 203.154 185.09 203.754C185.63 204.354 186.372 204.732 187.175 204.817C187.28 204.829 187.385 204.835 187.491 204.833Z" fill="black"/>
<path d="M353.97 196.098H202.772C203.471 198.413 203.396 203.8 201.806 206.156C199.308 209.904 193.862 209.637 192.188 209.637H158.44C157.322 211.816 156.416 214.097 155.733 216.448H204.787C204.787 216.448 204.787 216.382 204.787 216.357L209.416 200.994C209.54 200.7 209.766 200.462 210.053 200.324C210.34 200.185 210.667 200.156 210.974 200.242C211.281 200.328 211.545 200.523 211.719 200.79C211.892 201.057 211.961 201.378 211.915 201.693L207.451 216.448H211.315C211.315 216.448 211.315 216.382 211.315 216.357L215.945 200.994C215.972 200.81 216.038 200.635 216.138 200.479C216.239 200.323 216.371 200.19 216.527 200.089C216.682 199.988 216.858 199.922 217.041 199.894C217.224 199.866 217.412 199.877 217.59 199.927C217.769 199.977 217.935 200.065 218.077 200.184C218.219 200.303 218.334 200.451 218.415 200.618C218.496 200.785 218.54 200.967 218.545 201.153C218.549 201.338 218.515 201.522 218.443 201.693L213.98 216.448H217.818C217.818 216.448 217.818 216.382 217.818 216.357L222.448 200.994C222.475 200.81 222.541 200.635 222.642 200.479C222.742 200.323 222.874 200.19 223.03 200.089C223.186 199.988 223.361 199.922 223.544 199.894C223.728 199.866 223.915 199.877 224.094 199.927C224.272 199.977 224.438 200.065 224.58 200.184C224.722 200.303 224.838 200.451 224.918 200.618C224.999 200.785 225.043 200.967 225.048 201.153C225.053 201.338 225.018 201.522 224.946 201.693L220.483 216.448H224.322C224.322 216.448 224.322 216.382 224.322 216.357L228.951 200.994C229.075 200.7 229.301 200.462 229.588 200.324C229.875 200.185 230.202 200.156 230.509 200.242C230.815 200.328 231.08 200.523 231.253 200.79C231.426 201.057 231.496 201.378 231.449 201.693L226.986 216.448H230.883C230.883 216.448 230.883 216.382 230.883 216.357L235.513 200.994C235.54 200.81 235.606 200.635 235.706 200.479C235.807 200.323 235.939 200.19 236.095 200.089C236.25 199.988 236.426 199.922 236.609 199.894C236.793 199.866 236.98 199.877 237.158 199.927C237.337 199.977 237.503 200.065 237.645 200.184C237.787 200.303 237.903 200.451 237.983 200.618C238.064 200.785 238.108 200.967 238.113 201.153C238.117 201.338 238.083 201.522 238.011 201.693L233.548 216.448H237.386C237.386 216.448 237.386 216.382 237.386 216.357L242.016 200.994C242.043 200.81 242.109 200.635 242.21 200.479C242.31 200.323 242.442 200.19 242.598 200.089C242.754 199.988 242.929 199.922 243.112 199.894C243.296 199.866 243.483 199.877 243.662 199.927C243.84 199.977 244.006 200.065 244.148 200.184C244.291 200.303 244.406 200.451 244.486 200.618C244.567 200.785 244.611 200.967 244.616 201.153C244.621 201.338 244.586 201.522 244.514 201.693L240.051 216.448H353.437C353.487 214.184 354.353 198.471 353.97 196.098Z" fill="black"/>
</svg>
