<svg width="512" height="512" viewBox="0 0 512 512" fill="none" xmlns="http://www.w3.org/2000/svg">
<path d="M281.998 251.84H232.738L235.298 231.18V181.84H279.438V231.18L281.998 251.84Z" fill="black"/>
<path d="M264.379 81.84C261.099 68.06 258.339 62 258.339 62H256.399C256.399 62 253.639 68.06 250.359 81.84H264.379Z" fill="black"/>
<path d="M249.9 83.8398C245.74 101.94 240.9 132.18 239.68 177.84H275.06C273.84 132.18 269 101.94 264.84 83.8398H249.9Z" fill="black"/>
<path d="M282.142 434.84L282.082 253.84H232.662L232.602 434.84H282.142Z" fill="black"/>
<path d="M284.96 436.84H229.04C228.42 437.34 228 438.18 228 439.14V443.3C228 446.36 230.1 448.84 232.68 448.84H281.32C283.9 448.84 286 446.36 286 443.3V439.14C286 438.18 285.58 437.34 284.96 436.84Z" fill="black"/>
</svg>
