<svg width="512" height="512" viewBox="0 0 512 512" fill="none" xmlns="http://www.w3.org/2000/svg">
<path d="M304.198 239.92L339.078 205.04L307.858 173.82L272.978 208.72L262.758 216.96L268.598 221.26L270.078 222.62L296.658 249.18L304.198 239.92Z" fill="black"/>
<path d="M408.899 105.38L407.519 104C407.519 104 401.299 106.34 389.219 113.76L399.139 123.68C406.559 111.62 408.899 105.38 408.899 105.38Z" fill="black"/>
<path d="M398.057 125.419L387.497 114.859C371.757 124.719 346.957 142.679 313.797 174.099L338.817 199.119C370.237 165.959 388.197 141.159 398.057 125.419Z" fill="black"/>
<path d="M223.139 269.559L250.719 297.159L150.099 397.839L115.059 362.819L216.719 261.219L221.779 268.079L223.139 269.559Z" fill="black"/>
<path d="M108.758 362.621L105.818 365.561C103.658 367.721 103.378 370.961 105.218 372.781L139.598 407.161C141.418 408.981 144.658 408.721 146.818 406.561L149.758 403.621C150.438 402.941 150.738 402.041 150.658 401.261L111.118 361.721C110.338 361.621 109.438 361.941 108.758 362.621Z" fill="black"/>
<path d="M231.778 266.081L218.978 249.661L184.078 214.781L215.298 183.561L250.178 218.461L266.598 231.261L231.778 266.081Z" fill="black"/>
<path d="M133.938 123.5C121.878 116.08 115.638 113.74 115.638 113.74L114.258 115.12C114.258 115.12 116.598 121.34 124.018 133.42L133.938 123.5Z" fill="black"/>
<path d="M184.357 208.86L209.377 183.84C176.217 152.4 151.417 134.46 135.677 124.6L125.117 135.16C134.977 150.9 152.917 175.7 184.357 208.86Z" fill="black"/>
<path d="M233.137 267.561L260.717 295.161L361.077 395.581L396.097 360.561L294.657 259.181L268.077 232.621L233.137 267.561Z" fill="black"/>
<path d="M401.879 360.879C401.199 360.199 400.299 359.899 399.519 359.979L359.979 399.519C359.879 400.319 360.199 401.199 360.879 401.879L363.819 404.819C365.979 406.979 369.219 407.259 371.039 405.419L405.419 371.039C407.239 369.219 406.979 365.979 404.819 363.819L401.879 360.879Z" fill="black"/>
</svg>
