<svg width="512" height="512" viewBox="0 0 512 512" fill="none" xmlns="http://www.w3.org/2000/svg">
<path d="M259 196V146.74L279.66 149.3H329V193.44H279.66L259 196Z" fill="black"/>
<path d="M429 178.379C442.78 175.099 448.84 172.339 448.84 172.339V170.399C448.84 170.399 442.78 167.639 429 164.359V178.379Z" fill="black"/>
<path d="M427 163.9C408.9 159.74 378.66 154.9 333 153.68V189.06C378.66 187.84 408.9 183 427 178.84V163.9Z" fill="black"/>
<path d="M76 196.14L257 196.08V146.66L76 146.6V196.14Z" fill="black"/>
<path d="M74 198.96V143.04C73.5 142.42 72.66 142 71.7 142H67.54C64.48 142 62 144.1 62 146.68V195.32C62 197.9 64.48 200 67.54 200H71.7C72.66 200 73.5 199.58 74 198.96Z" fill="black"/>
<path d="M259 282V232.74L279.66 235.3H329V279.44H279.66L259 282Z" fill="black"/>
<path d="M429 264.379C442.78 261.099 448.84 258.339 448.84 258.339V256.399C448.84 256.399 442.78 253.639 429 250.359V264.379Z" fill="black"/>
<path d="M427 249.9C408.9 245.74 378.66 240.9 333 239.68V275.06C378.66 273.84 408.9 269 427 264.84V249.9Z" fill="black"/>
<path d="M76 282.14L257 282.08V232.66L76 232.6V282.14Z" fill="black"/>
<path d="M74 284.96V229.04C73.5 228.42 72.66 228 71.7 228H67.54C64.48 228 62 230.1 62 232.68V281.32C62 283.9 64.48 286 67.54 286H71.7C72.66 286 73.5 285.58 74 284.96Z" fill="black"/>
<path d="M259 368V318.74L279.66 321.3H329V365.44H279.66L259 368Z" fill="black"/>
<path d="M429 350.379C442.78 347.099 448.84 344.339 448.84 344.339V342.399C448.84 342.399 442.78 339.639 429 336.359V350.379Z" fill="black"/>
<path d="M427 335.9C408.9 331.74 378.66 326.9 333 325.68V361.06C378.66 359.84 408.9 355 427 350.84V335.9Z" fill="black"/>
<path d="M76 368.14L257 368.08V318.66L76 318.6V368.14Z" fill="black"/>
<path d="M74 370.96V315.04C73.5 314.42 72.66 314 71.7 314H67.54C64.48 314 62 316.1 62 318.68V367.32C62 369.9 64.48 372 67.54 372H71.7C72.66 372 73.5 371.58 74 370.96Z" fill="black"/>
</svg>
