<svg width="512" height="512" viewBox="0 0 512 512" fill="none" xmlns="http://www.w3.org/2000/svg">
<path d="M303.695 267.839L311.055 250.419L333.455 211.619L310.195 198.199L288.975 234.959L280.855 254.459L303.695 267.839Z" fill="black"/>
<path d="M369.756 106.92C369.756 106.92 364.836 110.44 355.996 119.78L367.016 126.14C370.696 113.8 371.276 107.8 371.276 107.8L369.756 106.92Z" fill="black"/>
<path d="M315.996 187.999L312.016 195.039L331.836 206.479C351.616 169.999 361.536 144.039 366.476 127.899L354.716 121.119C348.056 128.279 339.336 138.579 328.956 152.859C324.736 161.819 318.636 173.099 317.836 174.559L311.996 185.999L315.996 187.999Z" fill="black"/>
<path d="M279.789 256.13L197.648 398.516L220.707 411.818L302.847 269.432L279.789 256.13Z" fill="black"/>
<path d="M213.697 422.479C215.737 423.659 218.497 422.659 219.897 420.239L221.777 416.979C222.217 416.219 222.277 415.379 221.997 414.699L196.717 400.119L191.277 409.559L213.697 422.479Z" fill="black"/>
<path d="M305.639 188.24L297.719 183.66L267.419 166.16L242.739 208.88L230.199 225.5L257.239 241.12L272.859 250.14L280.979 230.96L302.199 194.2L304.019 191.04L305.639 188.24Z" fill="black"/>
<path d="M347.277 73.8995L345.597 72.9395C345.597 72.9395 340.177 76.8194 330.457 87.0994L342.597 94.0994C346.637 80.5194 347.277 73.8995 347.277 73.8995Z" fill="black"/>
<path d="M320.979 148.88C331.819 125.92 338.219 108.38 341.999 96.0796L329.059 88.5996C316.399 102.2 297.099 125.96 273.199 164.9L299.819 180.28L303.839 182.6C310.539 170.26 316.179 159.04 320.979 148.88Z" fill="black"/>
<path d="M271.798 252.139L271.938 251.899L229.118 227.199L138.578 383.919L181.478 408.679L183.298 405.539L188.738 396.099L189.658 394.519L271.798 252.139Z" fill="black"/>
<path d="M134.499 383.879C133.699 383.999 132.919 384.519 132.439 385.359L130.359 388.959C128.819 391.619 129.399 394.799 131.639 396.099L173.759 420.419C175.999 421.719 179.059 420.619 180.579 417.959L182.659 414.359C183.139 413.519 183.199 412.579 182.899 411.839L134.499 383.879Z" fill="black"/>
</svg>
