<svg width="512" height="512" viewBox="0 0 512 512" fill="none" xmlns="http://www.w3.org/2000/svg">
<path d="M196.551 253.075H154.086L156.293 239.539V207.213H194.345V239.539L196.551 253.075Z" fill="black"/>
<path d="M181.364 141.696C178.536 132.668 176.157 128.697 176.157 128.697H174.484C174.484 128.697 172.105 132.668 169.277 141.696H181.364Z" fill="black"/>
<path d="M168.881 143.006C165.294 154.864 161.122 174.677 160.07 204.592H190.57C189.519 174.677 185.346 154.864 181.76 143.006H168.881Z" fill="black"/>
<path d="M196.672 372.973L196.62 254.387H154.017L153.965 372.973H196.672Z" fill="black"/>
<path d="M199.103 374.281H150.897C150.362 374.609 150 375.159 150 375.788V378.514C150 380.519 151.81 382.143 154.034 382.143H195.966C198.19 382.143 200 380.519 200 378.514V375.788C200 375.159 199.638 374.609 199.103 374.281Z" fill="black"/>
<path d="M281.998 251.84H232.738L235.298 231.18V181.84H279.438V231.18L281.998 251.84Z" fill="black"/>
<path d="M264.379 81.84C261.099 68.06 258.339 62 258.339 62H256.399C256.399 62 253.639 68.06 250.359 81.84H264.379Z" fill="black"/>
<path d="M249.9 83.8398C245.74 101.94 240.9 132.18 239.68 177.84H275.06C273.84 132.18 269 101.94 264.84 83.8398H249.9Z" fill="black"/>
<path d="M282.142 434.84L282.082 253.84H232.662L232.602 434.84H282.142Z" fill="black"/>
<path d="M284.96 436.84H229.04C228.42 437.34 228 438.18 228 439.14V443.3C228 446.36 230.1 448.84 232.68 448.84H281.32C283.9 448.84 286 446.36 286 443.3V439.14C286 438.18 285.58 437.34 284.96 436.84Z" fill="black"/>
<path d="M360.551 253.075H318.086L320.293 239.539V207.213H358.345V239.539L360.551 253.075Z" fill="black"/>
<path d="M345.364 141.696C342.536 132.668 340.157 128.697 340.157 128.697H338.484C338.484 128.697 336.105 132.668 333.277 141.696H345.364Z" fill="black"/>
<path d="M332.881 143.006C329.294 154.864 325.122 174.677 324.07 204.592H354.57C353.519 174.677 349.346 154.864 345.76 143.006H332.881Z" fill="black"/>
<path d="M360.672 372.973L360.62 254.387H318.017L317.965 372.973H360.672Z" fill="black"/>
<path d="M363.103 374.281H314.897C314.362 374.609 314 375.159 314 375.788V378.514C314 380.519 315.81 382.143 318.034 382.143H359.966C362.19 382.143 364 380.519 364 378.514V375.788C364 375.159 363.638 374.609 363.103 374.281Z" fill="black"/>
</svg>
