<svg width="512" height="512" viewBox="0 0 512 512" fill="none" xmlns="http://www.w3.org/2000/svg">
<path d="M344.001 203.18L358.941 199.98C365.941 198.48 372.481 195.24 377.921 190.58L378.541 190.04C381.761 187.28 383.621 183.24 383.621 179V178.54C383.621 174.36 381.821 170.38 378.681 167.62L378.421 167.38C372.901 162.52 366.221 159.14 359.021 157.6L344.001 154.4V203.18Z" fill="black"/>
<path d="M140 200.1V157.88C138.04 157.48 136.5 155.96 136.1 154H130V203.7H136.2C136.68 201.88 138.14 200.48 140 200.1Z" fill="black"/>
<path d="M340 154H145.9C145.5 155.96 143.96 157.48 142 157.88V200.1C143.86 200.48 145.32 201.88 145.8 203.7H340V154Z" fill="black"/>
<path d="M344.001 280.88L358.941 277.68C365.941 276.18 372.481 272.94 377.921 268.28L378.541 267.74C381.761 264.98 383.621 260.94 383.621 256.7V256.24C383.621 252.06 381.821 248.08 378.681 245.32L378.421 245.08C372.901 240.22 366.221 236.84 359.021 235.3L344.001 232.1V280.88Z" fill="black"/>
<path d="M140 277.799V235.579C138.04 235.179 136.5 233.659 136.1 231.699H130V281.399H136.2C136.68 279.579 138.14 278.179 140 277.799Z" fill="black"/>
<path d="M340 231.699H145.9C145.5 233.659 143.96 235.179 142 235.579V277.799C143.86 278.179 145.32 279.579 145.8 281.399H340V231.699Z" fill="black"/>
<path d="M344.001 358.581L358.941 355.381C365.941 353.881 372.481 350.641 377.921 345.981L378.541 345.441C381.761 342.681 383.621 338.641 383.621 334.401V333.941C383.621 329.761 381.821 325.781 378.681 323.021L378.421 322.781C372.901 317.921 366.221 314.541 359.021 313.001L344.001 309.801V358.581Z" fill="black"/>
<path d="M140 355.5V313.28C138.04 312.88 136.5 311.36 136.1 309.4H130V359.1H136.2C136.68 357.28 138.14 355.88 140 355.5Z" fill="black"/>
<path d="M340 309.4H145.9C145.5 311.36 143.96 312.88 142 313.28V355.5C143.86 355.88 145.32 357.28 145.8 359.1H340V309.4Z" fill="black"/>
</svg>
