<svg width="512" height="512" viewBox="0 0 512 512" fill="none" xmlns="http://www.w3.org/2000/svg">
<path d="M203.562 200.672L200.858 191.053C199.591 186.546 196.853 182.335 192.915 178.832L192.458 178.433C190.126 176.36 186.712 175.162 183.129 175.162H182.74C179.207 175.162 175.844 176.321 173.512 178.343L173.309 178.51C169.202 182.064 166.345 186.365 165.044 191.001L162.34 200.672H203.562Z" fill="black"/>
<path d="M200.958 332.02H165.279C164.941 333.282 163.656 334.273 162 334.531V338.458H204V334.466C202.462 334.157 201.279 333.217 200.958 332.02Z" fill="black"/>
<path d="M162 203.248V328.222C163.656 328.479 164.941 329.471 165.279 330.733H200.958C201.279 329.535 202.462 328.595 204 328.286V203.248H162Z" fill="black"/>
<path d="M281.178 169.62L277.978 154.68C276.478 147.68 273.238 141.14 268.578 135.7L268.038 135.08C265.278 131.86 261.238 130 256.998 130H256.538C252.358 130 248.378 131.8 245.618 134.94L245.378 135.2C240.518 140.72 237.138 147.4 235.598 154.6L232.398 169.62H281.178Z" fill="black"/>
<path d="M278.1 373.619H235.88C235.48 375.579 233.96 377.119 232 377.519V383.619H281.7V377.419C279.88 376.939 278.48 375.479 278.1 373.619Z" fill="black"/>
<path d="M232 173.619V367.719C233.96 368.119 235.48 369.659 235.88 371.619H278.1C278.48 369.759 279.88 368.299 281.7 367.819V173.619H232Z" fill="black"/>
<path d="M351.266 200.672L348.561 191.053C347.294 186.546 344.556 182.335 340.618 178.832L340.161 178.433C337.829 176.36 334.415 175.162 330.832 175.162H330.443C326.911 175.162 323.547 176.321 321.215 178.343L321.012 178.51C316.905 182.064 314.049 186.365 312.747 191.001L310.043 200.672H351.266Z" fill="black"/>
<path d="M348.661 332.02H312.982C312.644 333.282 311.359 334.273 309.703 334.531V338.458H351.703V334.466C350.165 334.157 348.982 333.217 348.661 332.02Z" fill="black"/>
<path d="M309.703 203.248V328.222C311.359 328.479 312.644 329.471 312.982 330.733H348.661C348.982 329.535 350.165 328.595 351.703 328.286V203.248H309.703Z" fill="black"/>
</svg>
