<svg width="512" height="512" viewBox="0 0 512 512" fill="none" xmlns="http://www.w3.org/2000/svg">
<path d="M281.178 169.62L277.978 154.68C276.478 147.68 273.238 141.14 268.578 135.7L268.038 135.08C265.278 131.86 261.238 130 256.998 130H256.538C252.358 130 248.378 131.8 245.618 134.94L245.378 135.2C240.518 140.72 237.138 147.4 235.598 154.6L232.398 169.62H281.178Z" fill="black"/>
<path d="M278.1 373.619H235.88C235.48 375.579 233.96 377.119 232 377.519V383.619H281.7V377.419C279.88 376.939 278.48 375.479 278.1 373.619Z" fill="black"/>
<path d="M232 173.619V367.719C233.96 368.119 235.48 369.659 235.88 371.619H278.1C278.48 369.759 279.88 368.299 281.7 367.819V173.619H232Z" fill="black"/>
</svg>
