<svg width="512" height="512" viewBox="0 0 512 512" fill="none" xmlns="http://www.w3.org/2000/svg">
<path d="M325.601 186.584L327.021 182.204C327.541 182.004 328.041 181.804 328.561 181.624L328.821 181.544C331.861 180.524 335.201 180.844 337.981 182.464L338.281 182.644C341.121 184.284 343.081 187.064 343.681 190.284L343.801 190.904C344.821 196.324 344.461 201.924 342.761 207.164L339.141 218.364L315.641 204.804L324.001 190.304L325.601 186.584Z" fill="black"/>
<path d="M257.121 361.203L259.501 357.083C258.481 356.063 258.121 354.543 258.581 353.163L237.141 340.783L233.301 347.443L257.121 361.203Z" fill="black"/>
<path d="M259.341 351.823C260.301 350.743 261.801 350.303 263.201 350.663L337.961 221.203L314.141 207.443L237.941 339.443L259.341 351.823Z" fill="black"/>
<path d="M317.02 182.204L320.3 172.044C322.5 165.224 322.96 157.964 321.64 150.904L321.48 150.084C320.7 145.904 318.14 142.284 314.46 140.164L314.06 139.944C310.44 137.864 306.1 137.424 302.14 138.764L301.8 138.884C294.82 141.244 288.56 145.344 283.62 150.804L273.32 162.204L312.12 184.604L315.56 186.584L317.02 182.204Z" fill="black"/>
<path d="M210.92 361.704L174.36 340.584C173.04 342.084 170.94 342.644 169.06 342.024L166 347.304L209.04 372.144L212.14 366.784C210.8 365.464 210.32 363.504 210.92 361.704Z" fill="black"/>
<path d="M308.521 187.103L271.001 165.443L173.941 333.543C175.421 334.863 175.981 336.963 175.361 338.863L211.921 359.983C213.181 358.563 215.121 358.003 216.941 358.483L223.301 347.463L227.141 340.803L227.901 339.463L304.101 207.463L305.641 204.803L314.001 190.303L308.521 187.103Z" fill="black"/>
</svg>
