<svg width="512" height="512" viewBox="0 0 512 512" fill="none" xmlns="http://www.w3.org/2000/svg">
<path d="M205.692 171.232L192.852 162.932C186.832 159.032 179.932 156.712 172.792 156.152L171.972 156.092C167.732 155.772 163.572 157.312 160.572 160.312L160.252 160.632C157.292 163.592 155.752 167.672 156.032 171.832L156.052 172.192C156.512 179.532 158.872 186.652 162.872 192.832L171.212 205.732L205.692 171.232Z" fill="black"/>
<path d="M347.751 317.672L317.891 347.532C318.991 349.192 318.991 351.372 317.911 353.032L322.231 357.352L357.371 322.212L352.991 317.832C351.351 318.752 349.331 318.692 347.751 317.672Z" fill="black"/>
<path d="M173.734 208.831L310.994 346.091C312.654 344.991 314.834 345.011 316.494 346.111L346.354 316.251C345.314 314.671 345.274 312.651 346.194 311.011L208.874 173.691L173.734 208.831Z" fill="black"/>
<path d="M342.133 205.693L350.433 192.853C354.333 186.833 356.653 179.933 357.213 172.793L357.273 171.972C357.593 167.732 356.053 163.573 353.053 160.573L352.733 160.252C349.773 157.292 345.693 155.752 341.533 156.032L341.173 156.052C333.833 156.512 326.713 158.873 320.533 162.873L307.633 171.213L342.133 205.693Z" fill="black"/>
<path d="M195.711 347.753L165.851 317.893C164.191 318.993 162.011 318.993 160.351 317.913L156.031 322.233L191.171 357.373L195.551 352.993C194.611 351.373 194.671 349.333 195.711 347.753Z" fill="black"/>
<path d="M304.517 173.747L261.059 217.205L296.201 252.348L339.66 208.89L304.517 173.747Z" fill="black"/>
<path d="M217.67 260.592L167.27 310.992C168.37 312.652 168.35 314.832 167.25 316.492L197.11 346.352C198.69 345.312 200.71 345.272 202.35 346.192L252.81 295.732L217.67 260.592Z" fill="black"/>
</svg>
