<svg width="512" height="512" viewBox="0 0 512 512" fill="none" xmlns="http://www.w3.org/2000/svg">
<path d="M296 173.68C296 159.78 291 138.2 281.68 126.8L279.96 124.7C274.48 117.98 265.5 114 255.92 114C246.44 114 237.56 117.92 232.04 124.5L230.8 125.98C221.16 137.5 216 159.28 216 173.42L296 173.68Z" fill="black"/>
<path d="M223.94 381.82H289.66C289.96 378.32 292.84 375.54 296.4 375.44L296 177.42H216.84V375.44C216.9 375.44 216.94 375.42 217 375.42C220.66 375.42 223.64 378.24 223.94 381.82Z" fill="black"/>
<path d="M289.74 383.82H223.86C223.22 387.02 220.38 389.42 217 389.42C216.94 389.42 216.9 389.4 216.84 389.4V397.62C218 397.62 296.44 397.7 296.44 397.7L296.42 389.38C293.12 389.32 290.38 386.96 289.74 383.82Z" fill="black"/>
</svg>
