<svg width="512" height="512" viewBox="0 0 512 512" fill="none" xmlns="http://www.w3.org/2000/svg">
<path d="M187.628 195.209C187.628 184.841 183.401 168.744 175.523 160.241L174.069 158.674C169.436 153.662 161.845 150.693 153.746 150.693C145.733 150.693 138.226 153.617 133.559 158.525L132.511 159.629C124.362 168.222 120 184.468 120 195.015L187.628 195.209Z" fill="black"/>
<path d="M126.713 349.161H182.269C182.523 346.55 184.958 344.477 187.967 344.402L187.629 196.699H120.711V344.402C120.762 344.402 120.795 344.387 120.846 344.387C123.94 344.387 126.459 346.491 126.713 349.161Z" fill="black"/>
<path d="M182.337 350.654H126.645C126.104 353.041 123.703 354.831 120.846 354.831C120.795 354.831 120.762 354.816 120.711 354.816V360.948C121.692 360.948 188.001 361.007 188.001 361.007L187.984 354.801C185.194 354.757 182.878 352.996 182.337 350.654Z" fill="black"/>
<path d="M296 173.68C296 159.78 291 138.2 281.68 126.8L279.96 124.7C274.48 117.98 265.5 114 255.92 114C246.44 114 237.56 117.92 232.04 124.5L230.8 125.98C221.16 137.5 216 159.28 216 173.42L296 173.68Z" fill="black"/>
<path d="M223.94 381.82H289.66C289.96 378.32 292.84 375.54 296.4 375.44L296 177.42H216.84V375.44C216.9 375.44 216.94 375.42 217 375.42C220.66 375.42 223.64 378.24 223.94 381.82Z" fill="black"/>
<path d="M289.74 383.82H223.86C223.22 387.02 220.38 389.42 217 389.42C216.94 389.42 216.9 389.4 216.84 389.4V397.62C218 397.62 296.44 397.7 296.44 397.7L296.42 389.38C293.12 389.32 290.38 386.96 289.74 383.82Z" fill="black"/>
<path d="M392.07 195.209C392.07 184.841 387.843 168.744 379.964 160.241L378.51 158.674C373.878 153.662 366.286 150.693 358.188 150.693C350.174 150.693 342.667 153.617 338.001 158.525L336.953 159.629C328.803 168.222 324.441 184.468 324.441 195.015L392.07 195.209Z" fill="black"/>
<path d="M331.154 349.161H386.711C386.964 346.55 389.399 344.477 392.409 344.402L392.07 196.699H325.152V344.402C325.203 344.402 325.237 344.387 325.288 344.387C328.382 344.387 330.901 346.491 331.154 349.161Z" fill="black"/>
<path d="M386.778 350.654H331.087C330.546 353.041 328.145 354.831 325.288 354.831C325.237 354.831 325.203 354.816 325.152 354.816V360.948C326.133 360.948 392.442 361.007 392.442 361.007L392.425 354.801C389.636 354.757 387.32 352.996 386.778 350.654Z" fill="black"/>
</svg>
