<svg width="512" height="512" viewBox="0 0 512 512" fill="none" xmlns="http://www.w3.org/2000/svg">
<path d="M216.122 159.963C206.282 150.123 187.502 138.403 172.842 136.943L170.142 136.663C161.522 135.803 152.342 139.323 145.562 146.103C138.862 152.803 135.342 161.863 136.102 170.403L136.282 172.343C137.622 187.283 149.362 206.343 159.362 216.343L216.122 159.963Z" fill="black"/>
<path d="M312.341 358.104L358.821 311.624C356.561 308.924 356.621 304.944 359.081 302.344L218.781 162.604L162.801 218.584L302.821 358.604C302.861 358.564 302.881 358.523 302.921 358.484C305.501 355.883 309.601 355.783 312.341 358.104Z" fill="black"/>
<path d="M360.284 312.983L313.704 359.563C315.504 362.283 315.204 365.983 312.804 368.363C312.764 368.403 312.724 368.423 312.684 368.463L318.504 374.283C319.324 373.463 374.844 318.063 374.844 318.063L368.964 312.203C366.564 314.483 362.964 314.743 360.284 312.983Z" fill="black"/>
<path d="M350.884 216.122C360.724 206.282 372.444 187.502 373.904 172.842L374.184 170.142C375.044 161.522 371.524 152.342 364.744 145.562C358.044 138.862 348.984 135.342 340.444 136.102L338.504 136.282C323.564 137.622 304.504 149.362 294.504 159.362L350.884 216.122Z" fill="black"/>
<path d="M197.863 360.282L151.283 313.702C148.563 315.502 144.862 315.202 142.482 312.802C142.442 312.762 142.423 312.722 142.383 312.682L136.562 318.502C137.382 319.322 192.783 374.842 192.783 374.842L198.643 368.962C196.363 366.562 196.103 362.962 197.863 360.282Z" fill="black"/>
<path d="M315.864 251.261L348.244 218.761L292.264 162.781L259.824 195.221L315.864 251.261Z" fill="black"/>
<path d="M195.102 259.941L152.242 302.801C152.282 302.841 152.322 302.861 152.362 302.901C154.942 305.481 155.062 309.581 152.742 312.341L199.222 358.821C201.922 356.561 205.902 356.621 208.502 359.081L251.282 316.121L195.102 259.941Z" fill="black"/>
</svg>
