<svg width="512" height="512" viewBox="0 0 512 512" fill="none" xmlns="http://www.w3.org/2000/svg">
<path d="M330.539 200.232C334.439 193.492 338.159 183.872 340.279 174.172C344.599 174.212 349.059 175.392 353.079 177.712C359.639 181.512 364.219 187.792 365.319 194.572L365.659 196.692C367.539 208.192 362.439 224.972 356.919 234.512L322.359 214.412L328.659 203.472L330.539 200.232Z" fill="black"/>
<path d="M270.199 374.712C271.799 372.432 274.859 371.672 277.339 373.012L355.459 237.072L320.839 217.092L240.199 357.412L270.199 374.712Z" fill="black"/>
<path d="M268.561 388.291L271.841 382.591C269.601 381.231 268.661 378.511 269.461 376.111L239.421 358.771L233.961 368.271C249.541 377.291 268.561 388.291 268.561 388.291Z" fill="black"/>
<path d="M334.279 170.172C335.939 162.552 336.619 154.872 335.559 148.472L335.119 145.792C333.719 137.232 327.939 129.292 319.639 124.492C311.439 119.752 301.779 118.692 293.719 121.652L291.899 122.312C277.819 127.472 262.439 143.752 255.379 155.992L306.219 185.572L324.519 196.212C328.439 189.472 332.159 179.872 334.279 170.172Z" fill="black"/>
<path d="M322.681 199.451L303.621 188.451L254.121 159.871L155.121 331.351C155.161 331.371 155.221 331.391 155.261 331.411C158.441 333.251 159.601 337.171 158.061 340.431L214.981 373.291C217.001 370.411 220.861 369.451 224.001 371.131L227.961 364.251L233.421 354.751L234.201 353.371L314.841 213.051L316.381 210.371L322.681 199.451Z" fill="black"/>
<path d="M214.06 375.073L157 342.133C154.84 344.573 151.2 345.253 148.26 343.553C148.22 343.533 148.18 343.493 148.12 343.453L144 350.573C145 351.153 212.9 390.453 212.9 390.453L217.04 383.253C214.22 381.533 213.04 378.113 214.06 375.073Z" fill="black"/>
</svg>
