<svg width="512" height="512" viewBox="0 0 512 512" fill="none" xmlns="http://www.w3.org/2000/svg">
<path d="M338.019 188C351.919 188 373.499 183 384.899 173.68L386.999 171.96C393.719 166.48 397.699 157.5 397.699 147.92C397.699 138.44 393.779 129.56 387.199 124.04L385.719 122.8C374.199 113.16 352.419 108 338.279 108L338.019 188Z" fill="black"/>
<path d="M129.881 115.94V181.66C133.381 181.96 136.161 184.84 136.261 188.4L334.281 188V108.84L136.261 108.84C136.261 108.9 136.281 108.94 136.281 109C136.281 112.66 133.461 115.64 129.881 115.94Z" fill="black"/>
<path d="M127.879 181.74V115.86C124.679 115.22 122.279 112.38 122.279 109C122.279 108.94 122.299 108.9 122.299 108.84H114.079C114.079 110 113.999 188.44 113.999 188.44L122.319 188.42C122.379 185.12 124.739 182.38 127.879 181.74Z" fill="black"/>
<path d="M338.019 296.439C351.919 296.439 373.499 291.439 384.899 282.119L386.999 280.399C393.719 274.919 397.699 265.939 397.699 256.359C397.699 246.879 393.779 237.999 387.199 232.479L385.719 231.239C374.199 221.599 352.419 216.439 338.279 216.439L338.019 296.439Z" fill="black"/>
<path d="M129.881 224.379V290.099C133.381 290.399 136.161 293.279 136.261 296.839L334.281 296.439V217.279H136.261C136.261 217.339 136.281 217.379 136.281 217.439C136.281 221.099 133.461 224.079 129.881 224.379Z" fill="black"/>
<path d="M127.879 290.179V224.299C124.679 223.659 122.279 220.819 122.279 217.439C122.279 217.379 122.299 217.339 122.299 217.279H114.079C114.079 218.439 113.999 296.879 113.999 296.879L122.319 296.859C122.379 293.559 124.739 290.819 127.879 290.179Z" fill="black"/>
<path d="M338.019 404.881C351.919 404.881 373.499 399.881 384.899 390.561L386.999 388.841C393.719 383.361 397.699 374.381 397.699 364.801C397.699 355.321 393.779 346.441 387.199 340.921L385.719 339.681C374.199 330.041 352.419 324.881 338.279 324.881L338.019 404.881Z" fill="black"/>
<path d="M129.881 332.821V398.541C133.381 398.841 136.161 401.721 136.261 405.281L334.281 404.881V325.721H136.261C136.261 325.781 136.281 325.821 136.281 325.881C136.281 329.541 133.461 332.521 129.881 332.821Z" fill="black"/>
<path d="M127.879 398.621V332.741C124.679 332.101 122.279 329.261 122.279 325.881C122.279 325.821 122.299 325.781 122.299 325.721H114.079C114.079 326.881 113.999 405.321 113.999 405.321L122.319 405.301C122.379 402.001 124.739 399.261 127.879 398.621Z" fill="black"/>
</svg>
