<svg width="512" height="512" viewBox="0 0 512 512" fill="none" xmlns="http://www.w3.org/2000/svg">
<path d="M227.51 207.06L230.673 205.458C231.41 205.101 232.217 204.911 233.036 204.903L273.973 205.006V199.604H233.261C232.436 199.606 231.626 199.833 230.92 200.261L229.893 200.898L227.531 202.151L227.51 207.06Z" fill="black"/>
<path d="M408.536 192.783H383.476V200.609H408.536V192.783Z" fill="black"/>
<path d="M275.534 192.846V205.006H284.839V201.165L278.821 196.44C278.205 196.071 277.694 195.551 277.334 194.929C276.975 194.308 276.78 193.605 276.767 192.887L275.534 192.846Z" fill="black"/>
<path d="M279.129 188.634H279.252C279.98 188.204 280.81 187.977 281.656 187.977H294.863L298.581 184.608C298.498 184.494 298.409 184.384 298.314 184.28C297.715 183.694 296.913 183.363 296.075 183.355H281.08C280.256 183.361 279.467 183.692 278.886 184.277C278.305 184.862 277.979 185.653 277.979 186.478C277.964 186.906 278.063 187.332 278.265 187.71C278.467 188.089 278.765 188.408 279.129 188.634Z" fill="black"/>
<path d="M280.834 189.662C280.269 189.817 279.752 190.114 279.335 190.525C278.736 191.114 278.377 191.905 278.328 192.743C278.341 193.238 278.473 193.722 278.713 194.154C278.952 194.587 279.292 194.955 279.704 195.229L287.037 201.083H300.923V193.031L296.404 196.543C295.475 197.307 294.319 197.741 293.117 197.776C292.629 197.795 292.142 197.703 291.694 197.507C291.246 197.312 290.848 197.017 290.529 196.646C290.072 196.061 289.832 195.335 289.851 194.592C289.886 193.885 290.064 193.193 290.375 192.558C290.686 191.922 291.123 191.356 291.659 190.895L293.158 189.539H281.697C281.405 189.545 281.115 189.586 280.834 189.662Z" fill="black"/>
<path d="M372.117 189.826H368.091V201.144H372.117V189.826Z" fill="black"/>
<path d="M381.956 192.783H373.658V200.609H381.956V192.783Z" fill="black"/>
<path d="M381.956 206.506H373.658V221.193H381.956V206.506Z" fill="black"/>
<path d="M304.292 190.277L302.237 191.88C302.31 192.217 302.351 192.561 302.361 192.907V201.123H310.7V188.367H305.935C305.545 189.1 305.006 189.744 304.353 190.257L304.292 190.277Z" fill="black"/>
<path d="M292.665 192.023C292.289 192.343 291.981 192.735 291.759 193.176C291.536 193.617 291.405 194.098 291.371 194.591C291.361 194.964 291.485 195.328 291.721 195.618C292.44 196.501 294.124 196.357 295.459 195.289L303.429 189.127C304.263 188.503 304.828 187.585 305.011 186.559C305.06 186.103 304.927 185.645 304.641 185.286L304.148 184.731C303.968 184.551 303.753 184.411 303.516 184.319C303.279 184.227 303.025 184.186 302.772 184.197C302.033 184.254 301.323 184.509 300.717 184.937C300.547 185.042 300.388 185.166 300.245 185.306L292.665 192.023ZM302.155 185.43C302.465 185.43 302.768 185.522 303.025 185.694C303.282 185.867 303.482 186.112 303.599 186.398C303.717 186.685 303.747 187 303.685 187.303C303.623 187.606 303.472 187.884 303.252 188.102C303.031 188.319 302.751 188.466 302.447 188.524C302.143 188.582 301.828 188.548 301.544 188.427C301.259 188.306 301.016 188.102 300.847 187.843C300.678 187.584 300.59 187.28 300.594 186.97C300.597 186.76 300.642 186.552 300.726 186.36C300.811 186.167 300.934 185.994 301.088 185.85C301.241 185.706 301.422 185.594 301.62 185.522C301.817 185.45 302.027 185.419 302.237 185.43H302.155Z" fill="black"/>
<path d="M225.99 196.111L143.087 196.296L133.022 207.244H166.668L178.993 207.018L183.655 202.664C184.98 201.421 186.728 200.73 188.544 200.733H226.113L225.99 196.111Z" fill="black"/>
<path d="M273.973 192.846H233.22C232.419 192.843 231.632 193.056 230.94 193.462L227.51 195.516V200.446L230.119 199.008C231.058 198.431 232.139 198.126 233.241 198.125H273.953L273.973 192.846Z" fill="black"/>
<path d="M225.99 207.369V202.131H188.441C187.013 202.126 185.638 202.67 184.6 203.651L181.047 206.979L218.431 206.301C218.937 206.267 219.436 206.433 219.82 206.763C220.204 207.094 220.443 207.562 220.485 208.067C220.485 208.19 220.485 208.293 220.485 208.396L225.99 207.369Z" fill="black"/>
<path d="M168.435 208.908C168.114 208.867 167.235 208.826 166.915 208.866C165.731 209 164.638 209.566 163.845 210.454C163.051 211.342 162.613 212.492 162.613 213.683C162.613 214.874 163.051 216.024 163.845 216.912C164.638 217.801 165.731 218.366 166.915 218.5H167.469C168.066 218.496 168.658 218.385 169.215 218.171C170.189 217.791 171.015 217.107 171.568 216.219C172.121 215.332 172.373 214.29 172.285 213.248C172.197 212.206 171.775 211.22 171.081 210.438C170.387 209.656 169.459 209.119 168.435 208.908Z" fill="black"/>
<path d="M312.302 201.145H315.322C315.488 200.74 315.774 200.395 316.141 200.157C316.508 199.918 316.939 199.797 317.376 199.809H331.405C331.843 199.797 332.273 199.918 332.64 200.157C333.007 200.395 333.293 200.74 333.459 201.145H344.284C344.451 200.74 344.737 200.395 345.104 200.157C345.47 199.918 345.901 199.797 346.339 199.809H360.368C360.805 199.797 361.236 199.918 361.603 200.157C361.97 200.395 362.255 200.74 362.422 201.145H366.838V189.58C366.833 189.262 366.703 188.959 366.476 188.736C366.249 188.513 365.944 188.389 365.626 188.389H312.302V201.145Z" fill="black"/>
<path d="M213.727 209.649L218.575 208.724C218.629 208.714 218.681 208.694 218.728 208.663C218.774 208.633 218.813 208.594 218.844 208.548C218.875 208.502 218.896 208.45 218.906 208.396C218.916 208.341 218.915 208.285 218.903 208.231C218.904 208.174 218.892 208.117 218.869 208.064C218.846 208.011 218.812 207.964 218.769 207.925C218.726 207.886 218.676 207.857 218.621 207.839C218.567 207.821 218.509 207.815 218.452 207.82L171.454 208.683C172.728 209.679 173.567 211.128 173.797 212.728C174.026 214.329 173.629 215.955 172.687 217.269L213.727 209.649Z" fill="black"/>
<path d="M148.695 244.526L136.905 280.185C136.826 280.422 136.845 280.681 136.957 280.904C137.068 281.127 137.264 281.297 137.5 281.377L148.736 284.766C150.996 272.77 158.719 249.333 160.321 244.67L149.065 244.342C148.992 244.335 148.919 244.348 148.853 244.381C148.788 244.414 148.733 244.464 148.695 244.526Z" fill="black"/>
<path d="M287.859 228.442C288.358 229.185 289.03 229.796 289.817 230.222C290.604 230.647 291.483 230.876 292.378 230.887H292.85C296.056 230.888 299.184 229.898 301.806 228.052L306.284 224.889C307.785 223.84 309.567 223.267 311.399 223.245L341.121 222.896C344.271 222.856 347.411 223.264 350.447 224.108L352.501 224.704C353.838 225.073 355.221 225.253 356.609 225.238H364.517C365.062 225.238 365.584 225.021 365.97 224.636C366.355 224.251 366.571 223.729 366.571 223.184V204.184H362.175C362.022 204.604 361.742 204.966 361.374 205.22C361.006 205.473 360.568 205.607 360.121 205.601H346.092C345.646 205.604 345.209 205.469 344.842 205.216C344.474 204.962 344.194 204.602 344.038 204.184H333.275C333.121 204.604 332.841 204.966 332.473 205.22C332.105 205.473 331.668 205.607 331.221 205.601H317.191C316.745 205.604 316.308 205.469 315.941 205.216C315.573 204.962 315.293 204.602 315.137 204.184H287.859V228.442Z" fill="black"/>
<path d="M184.333 240.089C183.661 238.937 183.284 237.636 183.238 236.302C183.191 234.969 183.476 233.645 184.066 232.448C185.134 231.034 186.466 229.841 187.99 228.936H176.939C177.094 232.366 177.888 235.738 179.28 238.877C179.891 240.402 180.985 241.684 182.396 242.527C183.806 243.369 185.454 243.725 187.086 243.54C187.111 243.526 187.133 243.505 187.148 243.48C187.163 243.454 187.171 243.426 187.171 243.396C187.171 243.367 187.163 243.338 187.148 243.313C187.133 243.288 187.111 243.267 187.086 243.252C185.95 242.41 185.011 241.331 184.333 240.089Z" fill="black"/>
<path d="M415.232 208.127H383.476V221.211H415.232V208.127Z" fill="black"/>
<path d="M372.117 204.184H368.091V223.533H372.117V204.184Z" fill="black"/>
<path d="M486.879 223.861V206.422H469.296V223.471C469.4 223.592 469.53 223.689 469.675 223.756C469.82 223.824 469.978 223.859 470.138 223.861H486.879Z" fill="black"/>
<path d="M496.533 208.168V218.562H512C504.194 216.508 502.736 208.291 502.736 208.291L496.533 208.168Z" fill="black"/>
<path d="M439.224 221.213H467.776V208.889H439.532C439.43 208.908 439.326 208.908 439.224 208.889V221.213Z" fill="black"/>
<path d="M495.013 206.402H489.59V206.423H488.399V223.862H495.013V206.402Z" fill="black"/>
<path d="M418.498 203.095V205.621H430.494C429.308 204.852 428.401 203.721 427.906 202.396L425.852 196.809C425.158 195.57 424.148 194.537 422.925 193.815C421.702 193.093 420.309 192.709 418.889 192.701H410.077V200.507H416.054C416.386 200.512 416.713 200.583 417.017 200.717C417.32 200.851 417.594 201.044 417.822 201.285C418.05 201.526 418.227 201.811 418.343 202.122C418.459 202.432 418.512 202.763 418.498 203.095Z" fill="black"/>
<path d="M437.704 207.143H416.732V223.205H437.704V207.143Z" fill="black"/>
<path d="M475.478 198.638L472.295 204.451C472.137 204.758 471.928 205.035 471.678 205.273H477.841C477.639 205.021 477.524 204.712 477.512 204.389V200.918C477.512 200.51 477.674 200.118 477.963 199.829C478.252 199.54 478.644 199.378 479.053 199.378H482.524C482.933 199.378 483.324 199.54 483.613 199.829C483.902 200.118 484.065 200.51 484.065 200.918V204.389C484.053 204.712 483.938 205.021 483.736 205.273H487.577V182H477.697V189.806C477.713 192.889 476.95 195.927 475.478 198.638Z" fill="black"/>
<path d="M204.545 229.202C204.556 228.536 204.822 227.901 205.288 227.426C205.755 226.952 206.386 226.676 207.051 226.655L284.798 224.251V206.545L233.077 206.422C232.235 206.424 231.406 206.621 230.653 206.997L227.551 208.599L200.848 213.673L169.071 219.835C168.836 219.903 168.596 219.951 168.353 219.979H168.065H167.51C166.672 219.982 165.842 219.819 165.067 219.5C164.292 219.181 163.588 218.713 162.994 218.121C162.401 217.529 161.93 216.827 161.609 216.053C161.288 215.279 161.122 214.449 161.122 213.611C161.12 212.697 161.318 211.793 161.701 210.963C162.084 210.133 162.643 209.396 163.341 208.805L133.433 208.661C132.92 208.661 132.981 209.257 132.981 209.852V230.167H137.541V232.221C137.543 233.102 137.717 233.975 138.055 234.789L140.294 231.584C141.185 230.315 142.369 229.278 143.746 228.563C145.122 227.848 146.651 227.475 148.202 227.476H169.195C169.598 227.476 169.984 227.636 170.27 227.921C170.555 228.206 170.715 228.593 170.715 228.996V245.265C170.718 245.379 170.761 245.488 170.836 245.574C170.91 245.66 171.013 245.718 171.126 245.737C171.535 245.865 171.918 246.067 172.255 246.333L175.131 248.387C176.398 249.302 177.923 249.791 179.486 249.783H195.918C197.726 249.978 199.552 249.673 201.197 248.9C202.353 248.077 203.222 246.914 203.683 245.573C204.185 244.211 204.449 242.772 204.463 241.321L204.545 229.202ZM229.194 215.624H238.91C239.907 215.624 240.863 216.02 241.568 216.725C242.273 217.43 242.669 218.386 242.669 219.383C242.669 220.38 242.273 221.336 241.568 222.041C240.863 222.746 239.907 223.142 238.91 223.142H229.194C228.197 223.142 227.241 222.746 226.536 222.041C225.831 221.336 225.435 220.38 225.435 219.383C225.435 218.386 225.831 217.43 226.536 216.725C227.241 216.02 228.197 215.624 229.194 215.624ZM179.671 220.123C180.114 220.123 180.548 220.254 180.917 220.501C181.285 220.748 181.572 221.099 181.741 221.51C181.91 221.92 181.953 222.371 181.865 222.806C181.777 223.241 181.561 223.64 181.246 223.952C180.931 224.264 180.53 224.476 180.095 224.56C179.659 224.644 179.208 224.597 178.799 224.424C178.391 224.251 178.042 223.961 177.799 223.59C177.555 223.22 177.428 222.785 177.432 222.341C177.431 222.039 177.492 221.74 177.611 221.463C177.731 221.185 177.905 220.935 178.124 220.727C178.344 220.519 178.603 220.359 178.886 220.255C179.17 220.151 179.472 220.106 179.773 220.123H179.671ZM197.685 247.688L179.568 247.894C177.996 247.784 176.503 247.164 175.316 246.127L173.385 244.196C173.114 243.929 172.902 243.608 172.761 243.255C172.619 242.901 172.552 242.523 172.563 242.142L172.707 228.976C172.707 228.766 172.749 228.559 172.83 228.366C172.91 228.172 173.029 227.997 173.178 227.85C173.327 227.703 173.504 227.587 173.698 227.508C173.892 227.43 174.1 227.391 174.309 227.394H200.848C201.232 227.405 201.599 227.559 201.875 227.825C202.008 227.96 202.112 228.121 202.179 228.298C202.246 228.474 202.276 228.663 202.265 228.852L202.101 242.06C201.937 244.772 200.15 247.688 197.788 247.688H197.685Z" fill="black"/>
<path d="M169.174 230.477L148.182 230.6C147.118 230.595 146.07 230.851 145.128 231.345C144.186 231.839 143.38 232.557 142.779 233.434L139.904 237.543C141.547 239.371 143.416 241.877 143.416 243.705C143.416 246.17 136.104 267.409 132.303 278.254C131.721 279.944 131.826 281.794 132.594 283.408C133.362 285.021 134.733 286.269 136.412 286.882L148.736 291.421C149.628 291.74 150.581 291.848 151.521 291.739C152.461 291.63 153.364 291.305 154.158 290.791C154.953 290.276 155.618 289.585 156.103 288.772C156.588 287.959 156.878 287.045 156.952 286.101C157.117 283.8 156.521 279.569 156.521 277.679C156.521 272.359 160.362 269.278 160.362 266.012C160.819 260.59 162.209 255.288 164.47 250.34C165.516 248.923 166.794 247.693 168.25 246.704C168.489 246.53 168.683 246.301 168.815 246.036C168.947 245.772 169.014 245.479 169.01 245.184L169.174 230.477ZM162.005 244.342C161.636 245.245 152.618 272.215 150.195 284.951C150.153 285.16 150.068 285.358 149.944 285.532C149.82 285.705 149.66 285.85 149.476 285.957C149.253 286.112 148.987 286.191 148.716 286.183C148.579 286.203 148.441 286.203 148.305 286.183L137.028 282.773C136.411 282.567 135.899 282.126 135.603 281.546C135.307 280.966 135.251 280.293 135.446 279.672L147.257 244.116C147.383 243.729 147.627 243.392 147.955 243.152C148.283 242.912 148.679 242.782 149.085 242.78L161.163 243.13C161.313 243.135 161.458 243.177 161.587 243.252C161.716 243.328 161.825 243.434 161.903 243.561L162.129 243.89L162.005 244.342Z" fill="black"/>
<path d="M229.318 221.622H239.013C239.607 221.622 240.176 221.387 240.596 220.967C241.016 220.547 241.252 219.977 241.252 219.383C241.252 218.79 241.016 218.22 240.596 217.8C240.176 217.38 239.607 217.145 239.013 217.145H229.318C228.724 217.145 228.154 217.38 227.734 217.8C227.315 218.22 227.079 218.79 227.079 219.383C227.079 219.977 227.315 220.547 227.734 220.967C228.154 221.387 228.724 221.622 229.318 221.622Z" fill="black"/>
<path d="M144.505 194.776L226.011 194.591L230.119 192.147C231.044 191.614 232.091 191.331 233.159 191.325H276.746C276.875 190.748 277.168 190.22 277.588 189.805H223.196C222.578 189.796 221.988 189.546 221.553 189.107L220.978 188.491C220.76 188.268 220.5 188.09 220.212 187.969C219.925 187.848 219.616 187.786 219.304 187.786C218.992 187.786 218.683 187.848 218.396 187.969C218.108 188.09 217.848 188.268 217.63 188.491L217.055 189.086C216.841 189.312 216.583 189.493 216.297 189.616C216.011 189.74 215.703 189.804 215.391 189.805H197.479C197.165 189.802 196.854 189.737 196.565 189.614C196.276 189.491 196.014 189.311 195.795 189.086L195.22 188.47C195.002 188.247 194.741 188.07 194.454 187.949C194.166 187.828 193.858 187.766 193.546 187.766C193.234 187.766 192.925 187.828 192.638 187.949C192.35 188.07 192.09 188.247 191.872 188.47L191.297 189.086C191.077 189.311 190.815 189.491 190.526 189.614C190.237 189.737 189.927 189.802 189.612 189.805H171.577C171.266 189.804 170.958 189.74 170.672 189.616C170.386 189.493 170.128 189.312 169.914 189.086L169.297 188.449C168.858 188.012 168.264 187.766 167.644 187.766C167.024 187.766 166.429 188.012 165.99 188.449L165.292 189.168C165.08 189.383 164.827 189.554 164.549 189.67C164.27 189.786 163.971 189.846 163.669 189.846H154.344C152.002 189.846 149.476 189.682 147.832 191.305L144.505 194.776Z" fill="black"/>
<path d="M246.12 242.41C246.095 242.28 246.022 242.163 245.916 242.083C245.81 242.004 245.677 241.966 245.545 241.979C245.448 241.971 245.35 241.983 245.258 242.015C245.166 242.047 245.082 242.098 245.011 242.164C244.908 242.283 244.856 242.438 244.867 242.595C249.098 264.225 263.025 284.272 285.682 301.095C285.8 301.194 285.949 301.248 286.103 301.248C286.257 301.248 286.406 301.194 286.524 301.095C286.576 301.051 286.618 300.996 286.646 300.934C286.675 300.872 286.69 300.804 286.69 300.736C286.69 300.668 286.675 300.6 286.646 300.538C286.618 300.476 286.576 300.421 286.524 300.376C261.3 279.425 250.577 263.937 246.12 242.41Z" fill="black"/>
<path d="M237.78 242.759C237.751 242.63 237.678 242.516 237.572 242.437C237.467 242.358 237.337 242.319 237.205 242.327C237.107 242.323 237.009 242.339 236.917 242.374C236.825 242.41 236.741 242.464 236.671 242.533C236.618 242.586 236.579 242.651 236.558 242.722C236.536 242.794 236.533 242.87 236.548 242.943C243.45 278.376 279.684 305.613 281.183 306.743C281.299 306.846 281.449 306.902 281.604 306.902C281.759 306.902 281.909 306.846 282.025 306.743C282.077 306.699 282.119 306.644 282.148 306.582C282.176 306.52 282.191 306.452 282.191 306.384C282.191 306.315 282.176 306.248 282.148 306.186C282.119 306.124 282.077 306.069 282.025 306.024C256.924 285.196 242.238 264.326 237.78 242.759Z" fill="black"/>
<path d="M228.517 243.026C228.484 242.9 228.409 242.788 228.305 242.71C228.2 242.631 228.072 242.591 227.941 242.595C227.844 242.586 227.746 242.597 227.654 242.629C227.562 242.661 227.478 242.712 227.407 242.78C227.349 242.834 227.305 242.902 227.28 242.977C227.255 243.052 227.249 243.133 227.264 243.211C233.426 275.029 267.893 306.251 276.561 312.639C276.68 312.738 276.829 312.792 276.983 312.792C277.136 312.792 277.286 312.738 277.404 312.639C277.456 312.593 277.498 312.536 277.527 312.472C277.556 312.408 277.571 312.339 277.571 312.269C277.571 312.199 277.556 312.13 277.527 312.066C277.498 312.003 277.456 311.946 277.404 311.9C251.769 290.701 232.933 264.45 228.517 243.026Z" fill="black"/>
<path d="M252.262 227.93L214.919 229.552C224.182 290.004 272.741 324.163 280.526 328.662C280.832 328.836 281.192 328.888 281.535 328.808C281.878 328.728 282.177 328.522 282.375 328.23L301.601 300.726C301.716 300.569 301.799 300.39 301.843 300.199C301.887 300.009 301.892 299.812 301.857 299.62C301.823 299.428 301.749 299.244 301.642 299.081C301.534 298.919 301.394 298.779 301.231 298.672C261.156 271.456 253.494 237.851 252.262 227.93ZM278.492 313.441C278.279 313.653 278.026 313.82 277.747 313.933C277.469 314.046 277.17 314.102 276.87 314.098C276.384 314.097 275.911 313.947 275.514 313.667C266.825 307.217 232.07 275.666 225.764 243.438C225.718 243.168 225.738 242.892 225.82 242.631C225.902 242.371 226.045 242.133 226.237 241.939C226.45 241.72 226.706 241.548 226.989 241.431C227.271 241.315 227.574 241.257 227.88 241.261C228.344 241.245 228.799 241.386 229.172 241.662C229.545 241.938 229.814 242.333 229.934 242.781C234.289 263.917 252.96 289.901 278.246 310.873C278.445 311.015 278.612 311.198 278.735 311.41C278.857 311.622 278.933 311.857 278.956 312.101C278.98 312.344 278.95 312.59 278.87 312.821C278.79 313.053 278.661 313.264 278.492 313.441ZM283.176 307.566C282.961 307.776 282.708 307.94 282.429 308.049C282.15 308.159 281.852 308.211 281.553 308.203C281.066 308.212 280.59 308.06 280.197 307.772C278.677 306.642 242.053 279.015 235.007 243.171C234.963 242.898 234.983 242.619 235.065 242.355C235.147 242.092 235.289 241.851 235.48 241.651C235.919 241.223 236.51 240.987 237.123 240.994C237.587 240.978 238.042 241.119 238.415 241.395C238.788 241.671 239.057 242.066 239.177 242.514C243.573 263.794 258.116 284.437 282.909 304.978C283.11 305.12 283.279 305.304 283.403 305.517C283.528 305.729 283.606 305.966 283.631 306.212C283.656 306.457 283.629 306.705 283.55 306.938C283.472 307.172 283.344 307.386 283.176 307.566ZM287.674 301.897C287.287 302.278 286.778 302.509 286.236 302.55C285.695 302.592 285.157 302.44 284.716 302.123C261.752 285.115 247.743 264.78 243.388 242.822C243.34 242.551 243.355 242.272 243.434 242.008C243.512 241.744 243.651 241.502 243.84 241.302C244.054 241.084 244.31 240.911 244.592 240.794C244.875 240.678 245.178 240.62 245.483 240.624C245.95 240.609 246.407 240.754 246.781 241.034C247.154 241.314 247.421 241.713 247.537 242.164C251.933 263.383 262.512 278.665 287.428 299.33C287.63 299.469 287.8 299.651 287.924 299.863C288.049 300.075 288.126 300.311 288.149 300.556C288.173 300.801 288.142 301.047 288.06 301.279C287.978 301.511 287.846 301.722 287.674 301.897Z" fill="black"/>
<path d="M0.000247928 211.024V266.484C-0.00250173 267.152 0.190659 267.805 0.555787 268.364C0.920915 268.923 1.44196 269.362 2.05433 269.627V208.703C1.48429 208.764 0.957701 209.036 0.577742 209.466C0.197784 209.895 -0.00816481 210.451 0.000247928 211.024Z" fill="black"/>
<path d="M75.6931 227.867H29.6817C29.1369 227.867 28.6145 228.084 28.2293 228.469C27.8441 228.854 27.6276 229.376 27.6276 229.921C27.6276 230.466 27.8441 230.989 28.2293 231.374C28.6145 231.759 29.1369 231.975 29.6817 231.975H75.6931C76.2379 231.975 76.7603 231.759 77.1456 231.374C77.5308 230.989 77.7472 230.466 77.7472 229.921C77.7472 229.376 77.5308 228.854 77.1456 228.469C76.7603 228.084 76.2379 227.867 75.6931 227.867Z" fill="black"/>
<path d="M118.829 209.71L106.504 215.502C104.716 216.35 102.728 216.688 100.76 216.478C98.7914 216.268 96.9196 215.518 95.3506 214.311L89.517 209.812C88.5944 209.096 87.4602 208.706 86.2921 208.703H4.39601V269.915C4.51159 269.934 4.62963 269.934 4.7452 269.915L130.722 231.134V208.703H123.266C121.73 208.706 120.215 209.05 118.829 209.71ZM75.6931 234.03H29.6817C28.5922 234.03 27.5472 233.597 26.7768 232.827C26.0064 232.056 25.5736 231.011 25.5736 229.922C25.5736 228.832 26.0064 227.787 26.7768 227.017C27.5472 226.246 28.5922 225.814 29.6817 225.814H75.6931C76.7826 225.814 77.8276 226.246 78.598 227.017C79.3684 227.787 79.8013 228.832 79.8013 229.922C79.8013 231.011 79.3684 232.056 78.598 232.827C77.8276 233.597 76.7826 234.03 75.6931 234.03Z" fill="black"/>
</svg>
