<svg width="512" height="512" viewBox="0 0 512 512" fill="none" xmlns="http://www.w3.org/2000/svg">
<path d="M207.559 227.948L209.498 224.978C209.957 224.301 210.561 223.734 211.266 223.317L246.771 202.937L244.07 198.259L208.812 218.615C208.098 219.029 207.511 219.631 207.113 220.355L206.542 221.42L205.123 223.686L207.559 227.948Z" fill="black"/>
<path d="M357.195 125.072L335.492 137.602L339.405 144.379L361.108 131.849L357.195 125.072Z" fill="black"/>
<path d="M242.043 191.625L248.123 202.156L256.181 197.504L254.26 194.177L246.686 193.095C245.968 193.083 245.265 192.888 244.643 192.53C244.021 192.171 243.5 191.66 243.13 191.044L242.043 191.625Z" fill="black"/>
<path d="M243.05 186.181L243.157 186.12C243.572 185.383 244.177 184.772 244.909 184.349L256.348 177.745L257.883 172.969C257.754 172.911 257.622 172.861 257.488 172.818C256.676 172.61 255.816 172.724 255.086 173.137L242.101 180.634C241.389 181.051 240.872 181.732 240.661 182.529C240.45 183.327 240.563 184.175 240.976 184.889C241.177 185.267 241.475 185.586 241.84 185.813C242.204 186.04 242.621 186.167 243.05 186.181Z" fill="black"/>
<path d="M245.04 186.219C244.628 186.636 244.329 187.151 244.173 187.716C243.949 188.525 244.034 189.39 244.41 190.14C244.669 190.562 245.025 190.915 245.449 191.17C245.873 191.425 246.351 191.574 246.845 191.605L256.123 193.008L268.148 186.065L264.122 179.092L261.965 184.393C261.542 185.519 260.758 186.473 259.735 187.104C259.321 187.365 258.854 187.528 258.368 187.583C257.882 187.638 257.39 187.582 256.928 187.42C256.24 187.141 255.669 186.632 255.314 185.98C254.991 185.35 254.799 184.662 254.751 183.956C254.702 183.25 254.797 182.542 255.031 181.874L255.652 179.95L245.726 185.681C245.476 185.832 245.246 186.012 245.04 186.219Z" fill="black"/>
<path d="M324.176 140.719L320.689 142.732L326.348 152.534L329.835 150.521L324.176 140.719Z" fill="black"/>
<path d="M334.176 138.361L326.989 142.51L330.902 149.287L338.089 145.138L334.176 138.361Z" fill="black"/>
<path d="M341.036 150.243L333.85 154.393L341.193 167.112L348.38 162.962L341.036 150.243Z" fill="black"/>
<path d="M265.663 175.024L264.685 177.438C264.917 177.695 265.125 177.972 265.306 178.266L269.414 185.382L276.636 181.212L270.258 170.165L266.131 172.548C266.16 173.378 266.015 174.204 265.706 174.975L265.663 175.024Z" fill="black"/>
<path d="M256.468 182.349C256.302 182.814 256.231 183.307 256.259 183.8C256.287 184.294 256.413 184.776 256.631 185.219C256.809 185.547 257.098 185.801 257.447 185.934C258.511 186.34 259.898 185.373 260.52 183.78L264.341 174.459C264.751 173.501 264.781 172.424 264.427 171.444C264.241 171.024 263.897 170.695 263.47 170.526L262.766 170.292C262.52 170.227 262.264 170.213 262.012 170.251C261.761 170.29 261.521 170.381 261.307 170.518C260.695 170.937 260.208 171.513 259.898 172.186C259.802 172.362 259.727 172.549 259.673 172.742L256.468 182.349ZM261.389 171.894C261.658 171.739 261.966 171.667 262.275 171.688C262.584 171.709 262.879 171.821 263.124 172.01C263.369 172.2 263.552 172.457 263.651 172.751C263.749 173.045 263.757 173.361 263.675 173.66C263.593 173.958 263.424 174.225 263.189 174.428C262.955 174.63 262.666 174.758 262.358 174.795C262.051 174.833 261.739 174.778 261.463 174.638C261.187 174.497 260.959 174.278 260.808 174.008C260.705 173.825 260.64 173.622 260.617 173.413C260.594 173.204 260.614 172.993 260.675 172.791C260.736 172.59 260.837 172.403 260.972 172.242C261.107 172.08 261.273 171.948 261.461 171.852L261.389 171.894Z" fill="black"/>
<path d="M200.769 219.225L129.066 260.837L125.823 275.351L154.961 258.528L165.522 252.17L167.382 246.067C167.908 244.329 169.077 242.856 170.651 241.951L203.187 223.166L200.769 219.225Z" fill="black"/>
<path d="M240.691 192.405L205.398 212.782C204.702 213.18 204.127 213.758 203.731 214.455L201.787 217.949L204.252 222.219L205.793 219.669C206.318 218.7 207.101 217.895 208.055 217.343L243.312 196.987L240.691 192.405Z" fill="black"/>
<path d="M206.397 228.975L203.778 224.439L171.26 243.213C170.021 243.923 169.102 245.082 168.694 246.45L167.28 251.108L199.317 231.829C199.738 231.547 200.253 231.441 200.751 231.535C201.249 231.629 201.69 231.916 201.979 232.332C202.041 232.439 202.092 232.528 202.143 232.617L206.397 228.975Z" fill="black"/>
<path d="M157.323 259.086C157.025 259.212 156.243 259.615 155.986 259.811C155.028 260.519 154.364 261.555 154.121 262.721C153.878 263.887 154.073 265.102 154.669 266.133C155.264 267.165 156.219 267.941 157.35 268.314C158.482 268.686 159.711 268.629 160.803 268.154L161.283 267.876C161.798 267.575 162.255 267.182 162.631 266.719C163.285 265.903 163.657 264.897 163.692 263.852C163.728 262.807 163.424 261.779 162.827 260.92C162.23 260.062 161.372 259.419 160.38 259.089C159.388 258.758 158.316 258.758 157.323 259.086Z" fill="black"/>
<path d="M278.034 180.428L280.649 178.918C280.591 178.484 280.666 178.043 280.864 177.653C281.063 177.263 281.375 176.943 281.76 176.735L293.91 169.72C294.283 169.491 294.716 169.38 295.153 169.404C295.59 169.427 296.01 169.582 296.356 169.849L305.731 164.437C305.673 164.003 305.748 163.562 305.947 163.172C306.145 162.782 306.458 162.462 306.842 162.253L318.992 155.239C319.365 155.01 319.799 154.899 320.236 154.922C320.673 154.945 321.092 155.101 321.439 155.368L325.263 153.16L319.481 143.145C319.317 142.872 319.053 142.675 318.746 142.595C318.438 142.515 318.111 142.56 317.836 142.719L271.656 169.381L278.034 180.428Z" fill="black"/>
<path d="M196.917 237.079L200.653 233.855C200.695 233.819 200.73 233.776 200.755 233.726C200.78 233.677 200.795 233.623 200.798 233.568C200.802 233.512 200.794 233.457 200.776 233.405C200.757 233.353 200.729 233.305 200.691 233.264C200.663 233.214 200.624 233.17 200.578 233.136C200.531 233.102 200.478 233.078 200.422 233.066C200.366 233.054 200.307 233.053 200.251 233.065C200.195 233.077 200.141 233.1 200.095 233.134L159.825 257.38C161.426 257.605 162.877 258.441 163.876 259.712C164.875 260.983 165.344 262.591 165.185 264.199L196.917 237.079Z" fill="black"/>
<path d="M158.037 299.801L165.655 336.578C165.706 336.822 165.852 337.037 166.06 337.174C166.268 337.312 166.522 337.361 166.767 337.312L178.192 334.629C174.151 323.111 169.121 298.952 168.177 294.113L158.265 299.456C158.198 299.487 158.141 299.535 158.101 299.596C158.061 299.657 158.039 299.728 158.037 299.801Z" fill="black"/>
<path d="M270.514 216.292C271.318 216.686 272.205 216.879 273.1 216.854C273.995 216.829 274.87 216.587 275.65 216.149L276.059 215.913C278.836 214.311 281.05 211.889 282.398 208.98L284.694 204.002C285.47 202.343 286.727 200.956 288.302 200.021L313.868 184.858C316.576 183.248 319.499 182.031 322.55 181.244L324.627 180.733C325.97 180.384 327.257 179.848 328.452 179.142L335.3 175.188C335.772 174.915 336.116 174.467 336.257 173.94C336.398 173.414 336.325 172.853 336.052 172.382L326.552 155.927L322.745 158.125C322.822 158.565 322.761 159.019 322.569 159.423C322.378 159.827 322.065 160.161 321.675 160.379L309.525 167.394C309.14 167.62 308.695 167.721 308.25 167.686C307.805 167.65 307.382 167.478 307.038 167.194L297.716 172.575C297.794 173.016 297.732 173.469 297.54 173.873C297.349 174.277 297.036 174.611 296.646 174.83L284.496 181.845C284.111 182.07 283.666 182.172 283.221 182.136C282.776 182.1 282.353 181.928 282.009 181.644L258.385 195.283L270.514 216.292Z" fill="black"/>
<path d="M186.682 278.14C185.523 277.478 184.547 276.539 183.84 275.408C183.133 274.276 182.717 272.987 182.63 271.656C182.848 269.897 183.405 268.198 184.272 266.652L174.701 272.178C176.551 275.071 178.925 277.594 181.7 279.617C182.991 280.632 184.58 281.195 186.223 281.22C187.865 281.244 189.47 280.729 190.791 279.752C190.806 279.727 190.814 279.698 190.815 279.669C190.815 279.639 190.807 279.611 190.793 279.585C190.778 279.56 190.757 279.539 190.731 279.524C190.706 279.51 190.677 279.502 190.647 279.503C189.242 279.341 187.889 278.876 186.682 278.14Z" fill="black"/>
<path d="M370.666 135.011L343.164 150.889L349.706 162.22L377.208 146.342L370.666 135.011Z" fill="black"/>
<path d="M331.355 153.153L327.868 155.166L337.543 171.923L341.03 169.91L331.355 153.153Z" fill="black"/>
<path d="M440.58 112.813L431.861 97.7105L416.633 106.502L425.158 121.267C425.309 121.319 425.47 121.339 425.629 121.324C425.788 121.31 425.943 121.262 426.082 121.184L440.58 112.813Z" fill="black"/>
<path d="M441.094 94.3965L446.291 103.398L459.686 95.664C451.9 97.7879 446.528 91.4015 446.528 91.4015L441.094 94.3965Z" fill="black"/>
<path d="M397.985 134.347L422.712 120.071L416.55 109.398L392.09 123.52C392.012 123.587 391.921 123.64 391.823 123.674L397.985 134.347Z" fill="black"/>
<path d="M438.895 93.6265L434.199 96.3379L434.209 96.3557L433.177 96.9514L441.897 112.054L447.625 108.747L438.895 93.6265Z" fill="black"/>
<path d="M370.978 129.021L372.241 131.209L382.63 125.211C381.218 125.137 379.867 124.612 378.776 123.712L374.204 119.901C372.983 119.174 371.592 118.784 370.172 118.771C368.751 118.758 367.353 119.121 366.119 119.824L358.488 124.23L362.39 130.99L367.567 128.002C367.857 127.84 368.176 127.738 368.506 127.702C368.836 127.666 369.169 127.697 369.487 127.792C369.805 127.887 370.101 128.044 370.357 128.256C370.613 128.467 370.824 128.727 370.978 129.021Z" fill="black"/>
<path d="M389.634 122.922L371.471 133.408L379.503 147.319L397.665 136.833L389.634 122.922Z" fill="black"/>
<path d="M418.095 96.6691L418.245 103.295C418.261 103.64 418.22 103.984 418.122 104.315L423.459 101.234C423.158 101.117 422.904 100.906 422.732 100.633L420.997 97.6269C420.792 97.2731 420.737 96.8526 420.843 96.4579C420.948 96.0632 421.207 95.7268 421.56 95.5225L424.567 93.7868C424.921 93.5825 425.341 93.5271 425.736 93.6329C426.13 93.7386 426.467 93.9968 426.671 94.3506L428.407 97.357C428.558 97.6418 428.613 97.9676 428.564 98.2862L431.89 96.3656L420.254 76.2109L411.698 81.1509L415.6 87.9107C417.156 90.5737 418.014 93.5862 418.095 96.6691Z" fill="black"/>
<path d="M198.743 258.607C198.419 258.025 198.332 257.342 198.498 256.698C198.665 256.054 199.074 255.499 199.64 255.148L265.769 214.193L256.916 198.859L212.062 224.613C211.334 225.036 210.714 225.621 210.25 226.323L208.365 229.262L187.776 247.007L163.338 268.232C163.168 268.408 162.984 268.57 162.787 268.716L162.538 268.86L162.058 269.137C161.334 269.558 160.533 269.833 159.703 269.944C158.872 270.055 158.028 270.002 157.218 269.786C156.409 269.571 155.649 269.197 154.984 268.688C154.319 268.178 153.761 267.542 153.342 266.817C152.883 266.026 152.602 265.144 152.519 264.234C152.436 263.323 152.552 262.406 152.86 261.545L126.887 276.374C126.443 276.631 126.794 277.116 127.092 277.632L137.249 295.225L141.198 292.945L142.225 294.724C142.667 295.486 143.255 296.154 143.954 296.691L144.291 292.796C144.428 291.251 144.935 289.761 145.769 288.454C146.604 287.146 147.741 286.059 149.085 285.284L167.265 274.788C167.615 274.586 168.029 274.532 168.419 274.636C168.808 274.74 169.14 274.995 169.342 275.344L177.476 289.433C177.536 289.53 177.628 289.604 177.736 289.641C177.843 289.678 177.961 289.677 178.068 289.637C178.487 289.543 178.919 289.526 179.344 289.588L182.862 289.929C184.416 290.088 185.982 289.749 187.331 288.961L201.562 280.745C203.225 280.01 204.654 278.832 205.693 277.34C206.282 276.05 206.452 274.608 206.181 273.216C205.935 271.785 205.445 270.408 204.731 269.143L198.743 258.607ZM213.301 234.524L221.715 229.666C222.578 229.167 223.604 229.032 224.567 229.29C225.53 229.548 226.351 230.178 226.85 231.042C227.348 231.905 227.483 232.931 227.225 233.894C226.967 234.857 226.337 235.678 225.474 236.177L217.06 241.035C216.196 241.533 215.17 241.668 214.207 241.41C213.244 241.152 212.423 240.522 211.925 239.659C211.426 238.795 211.291 237.769 211.549 236.806C211.807 235.843 212.437 235.022 213.301 234.524ZM172.661 263.182C173.045 262.96 173.487 262.857 173.929 262.887C174.372 262.916 174.796 263.077 175.147 263.347C175.499 263.618 175.762 263.988 175.903 264.408C176.044 264.829 176.057 265.282 175.94 265.71C175.824 266.138 175.582 266.522 175.247 266.812C174.912 267.103 174.498 267.287 174.057 267.342C173.617 267.397 173.17 267.32 172.774 267.121C172.378 266.921 172.05 266.608 171.831 266.222C171.68 265.961 171.583 265.671 171.548 265.372C171.512 265.072 171.538 264.768 171.624 264.478C171.71 264.189 171.854 263.92 172.048 263.688C172.242 263.456 172.48 263.266 172.75 263.13L172.661 263.182ZM202.045 278.047L186.458 287.283C185.041 287.974 183.438 288.184 181.892 287.88L179.254 287.173C178.886 287.076 178.542 286.905 178.243 286.67C177.944 286.434 177.696 286.14 177.516 285.805L171.057 274.33C170.952 274.149 170.885 273.948 170.858 273.741C170.831 273.533 170.846 273.322 170.902 273.12C170.957 272.918 171.052 272.729 171.181 272.564C171.311 272.399 171.471 272.262 171.654 272.159L194.637 258.89C194.975 258.707 195.369 258.657 195.742 258.75C195.925 258.8 196.095 258.887 196.241 259.007C196.388 259.127 196.508 259.276 196.594 259.444L203.055 270.965C204.269 273.395 204.179 276.815 202.134 277.996L202.045 278.047Z" fill="black"/>
<path d="M168.747 277.394L150.629 287.997C149.706 288.525 148.926 289.271 148.357 290.17C147.789 291.069 147.449 292.093 147.368 293.153L146.931 298.149C149.268 298.911 152.14 300.146 153.054 301.729C154.287 303.864 158.574 325.914 160.705 337.207C161.046 338.961 162.062 340.511 163.534 341.524C165.006 342.537 166.817 342.932 168.577 342.624L181.52 340.393C182.451 340.223 183.331 339.841 184.09 339.276C184.85 338.711 185.469 337.979 185.9 337.136C186.331 336.293 186.562 335.362 186.575 334.415C186.588 333.469 186.383 332.532 185.975 331.677C184.967 329.603 182.336 326.236 181.391 324.6C178.731 319.992 180.517 315.403 178.884 312.575C176.568 307.651 175.121 302.365 174.605 296.948C174.802 295.198 175.294 293.495 176.061 291.91C176.18 291.639 176.234 291.344 176.216 291.049C176.198 290.754 176.11 290.467 175.959 290.213L168.747 277.394ZM169.472 292.986C169.603 293.954 175.279 321.819 179.548 334.06C179.616 334.262 179.641 334.476 179.621 334.689C179.6 334.901 179.535 335.106 179.428 335.291C179.312 335.536 179.121 335.738 178.883 335.867C178.775 335.952 178.655 336.022 178.527 336.072L167.056 338.758C166.418 338.887 165.755 338.761 165.209 338.407C164.663 338.053 164.277 337.498 164.136 336.863L156.586 300.165C156.502 299.767 156.544 299.353 156.709 298.981C156.873 298.609 157.151 298.299 157.502 298.094L168.136 292.358C168.268 292.288 168.415 292.251 168.565 292.252C168.714 292.252 168.861 292.29 168.992 292.361L169.352 292.533L169.472 292.986Z" fill="black"/>
<path d="M216.407 239.657L224.803 234.809C225.317 234.512 225.692 234.023 225.846 233.45C226 232.876 225.919 232.265 225.622 231.751C225.326 231.237 224.837 230.861 224.263 230.708C223.689 230.554 223.078 230.634 222.564 230.931L214.168 235.779C213.653 236.076 213.278 236.565 213.124 237.138C212.971 237.712 213.051 238.323 213.348 238.837C213.645 239.352 214.134 239.727 214.708 239.881C215.281 240.034 215.892 239.954 216.407 239.657Z" fill="black"/>
<path d="M129.533 258.813L200.027 217.9L202.362 213.729C202.897 212.806 203.663 212.037 204.584 211.498L242.332 189.704C242.155 189.14 242.145 188.537 242.301 187.967L195.197 215.163C194.657 215.464 194.021 215.542 193.424 215.379L192.618 215.133C192.318 215.049 192.004 215.026 191.694 215.065C191.385 215.104 191.086 215.204 190.816 215.36C190.546 215.516 190.31 215.725 190.121 215.973C189.933 216.222 189.796 216.505 189.718 216.807L189.518 217.611C189.446 217.914 189.313 218.199 189.127 218.449C188.941 218.699 188.706 218.909 188.437 219.065L172.925 228.021C172.651 228.176 172.35 228.275 172.038 228.313C171.726 228.35 171.409 228.326 171.107 228.241L170.301 227.995C170 227.91 169.686 227.887 169.377 227.926C169.067 227.965 168.769 228.066 168.499 228.222C168.229 228.378 167.992 228.586 167.804 228.834C167.615 229.083 167.478 229.366 167.401 229.669L167.211 230.49C167.133 230.794 166.996 231.081 166.808 231.332C166.619 231.583 166.383 231.795 166.112 231.955L150.493 240.972C150.223 241.127 149.924 241.225 149.614 241.261C149.305 241.297 148.991 241.27 148.693 241.181L147.841 240.938C147.242 240.778 146.604 240.863 146.067 241.173C145.53 241.483 145.138 241.993 144.977 242.592L144.731 243.563C144.655 243.855 144.522 244.129 144.338 244.369C144.155 244.61 143.926 244.811 143.665 244.962L135.589 249.624C133.561 250.795 131.291 251.916 130.679 254.143L129.533 258.813Z" fill="black"/>
<path d="M241.351 249.256C241.264 249.156 241.143 249.091 241.011 249.075C240.879 249.059 240.746 249.093 240.638 249.17C240.55 249.212 240.471 249.271 240.407 249.345C240.344 249.418 240.296 249.504 240.268 249.597C240.238 249.752 240.271 249.912 240.359 250.043C254.838 266.659 276.923 277.057 304.955 280.298C305.107 280.324 305.263 280.297 305.396 280.22C305.529 280.143 305.631 280.022 305.685 279.877C305.707 279.813 305.716 279.744 305.71 279.676C305.704 279.608 305.683 279.542 305.648 279.483C305.614 279.424 305.568 279.373 305.512 279.333C305.456 279.294 305.392 279.267 305.325 279.255C273.005 273.722 255.975 265.67 241.351 249.256Z" fill="black"/>
<path d="M234.304 253.728C234.214 253.631 234.093 253.57 233.963 253.554C233.832 253.538 233.7 253.569 233.59 253.642C233.503 253.688 233.426 253.751 233.364 253.827C233.302 253.904 233.256 253.992 233.23 254.087C233.211 254.159 233.209 254.235 233.227 254.308C233.244 254.381 233.279 254.449 233.329 254.505C257.022 281.739 302.02 287.21 303.884 287.439C304.036 287.47 304.194 287.444 304.328 287.366C304.462 287.289 304.564 287.165 304.613 287.018C304.636 286.954 304.645 286.885 304.638 286.817C304.632 286.749 304.611 286.683 304.577 286.624C304.543 286.565 304.496 286.514 304.44 286.474C304.385 286.435 304.321 286.408 304.254 286.395C272.101 280.908 248.948 270.178 234.304 253.728Z" fill="black"/>
<path d="M226.415 258.592C226.323 258.498 226.203 258.439 226.073 258.423C225.943 258.408 225.812 258.437 225.701 258.506C225.612 258.546 225.533 258.605 225.469 258.679C225.405 258.753 225.358 258.839 225.331 258.933C225.307 259.009 225.303 259.089 225.319 259.167C225.335 259.245 225.37 259.318 225.422 259.378C246.667 283.852 292.128 293.657 302.829 294.856C302.981 294.882 303.137 294.854 303.27 294.777C303.403 294.7 303.505 294.579 303.558 294.435C303.581 294.368 303.589 294.298 303.582 294.228C303.575 294.159 303.553 294.091 303.518 294.031C303.483 293.97 303.436 293.918 303.379 293.877C303.322 293.836 303.257 293.808 303.189 293.794C270.389 288.254 240.951 274.937 226.415 258.592Z" fill="black"/>
<path d="M239.43 233.645L207.901 253.722C246.15 301.442 305.282 306.746 314.273 306.749C314.625 306.747 314.963 306.612 315.22 306.372C315.477 306.131 315.634 305.802 315.659 305.451L318.557 272.019C318.578 271.825 318.56 271.628 318.503 271.442C318.446 271.255 318.352 271.082 318.226 270.932C318.1 270.783 317.945 270.661 317.77 270.574C317.595 270.487 317.405 270.436 317.21 270.425C268.895 266.892 245.458 241.621 239.43 233.645ZM304.902 294.585C304.823 294.875 304.688 295.146 304.503 295.383C304.318 295.62 304.087 295.818 303.825 295.965C303.404 296.207 302.919 296.313 302.435 296.269C291.686 295.028 245.812 285.082 224.236 260.324C224.062 260.114 223.94 259.865 223.881 259.598C223.822 259.331 223.827 259.054 223.896 258.789C223.972 258.494 224.107 258.216 224.293 257.974C224.48 257.732 224.713 257.53 224.98 257.381C225.374 257.135 225.839 257.03 226.3 257.083C226.761 257.135 227.191 257.342 227.519 257.67C241.858 273.797 271.02 286.965 303.405 292.484C303.648 292.507 303.884 292.582 304.096 292.704C304.308 292.826 304.491 292.993 304.633 293.192C304.776 293.391 304.873 293.619 304.919 293.859C304.966 294.099 304.96 294.347 304.902 294.585ZM306.02 287.155C305.939 287.444 305.802 287.713 305.615 287.947C305.428 288.181 305.196 288.375 304.933 288.518C304.516 288.769 304.028 288.876 303.544 288.822C301.662 288.604 256.131 282.99 232.108 255.471C231.933 255.257 231.811 255.006 231.75 254.736C231.689 254.467 231.691 254.187 231.757 253.919C231.924 253.329 232.317 252.829 232.851 252.528C233.245 252.282 233.71 252.177 234.171 252.23C234.632 252.282 235.062 252.489 235.39 252.817C249.837 269.049 272.753 279.655 304.495 285.047C304.741 285.07 304.978 285.144 305.193 285.266C305.407 285.388 305.593 285.555 305.737 285.754C305.882 285.954 305.982 286.182 306.031 286.424C306.08 286.666 306.076 286.915 306.02 287.155ZM307.081 279.996C306.937 280.519 306.611 280.975 306.163 281.281C305.715 281.587 305.173 281.726 304.633 281.671C276.241 278.424 253.941 267.818 239.191 250.979C239.014 250.768 238.888 250.519 238.824 250.251C238.76 249.983 238.759 249.704 238.822 249.436C238.898 249.14 239.034 248.863 239.22 248.621C239.406 248.379 239.64 248.177 239.907 248.028C240.303 247.782 240.772 247.678 241.235 247.734C241.698 247.79 242.129 248.002 242.456 248.335C256.872 264.513 273.674 272.458 305.584 277.896C305.829 277.915 306.067 277.988 306.281 278.109C306.495 278.231 306.679 278.397 306.822 278.597C306.965 278.797 307.062 279.026 307.107 279.268C307.152 279.51 307.143 279.758 307.081 279.996Z" fill="black"/>
<path d="M12.5123 345.135L40.2423 393.165C40.5737 393.744 41.0677 394.214 41.6632 394.515C42.2588 394.816 42.9296 394.936 43.5926 394.86L13.1306 342.098C12.6676 342.436 12.3476 342.935 12.2332 343.497C12.1188 344.058 12.2184 344.643 12.5123 345.135Z" fill="black"/>
<path d="M86.486 321.875L46.639 344.881C46.1672 345.154 45.8229 345.602 45.6819 346.128C45.5409 346.655 45.6148 347.215 45.8871 347.687C46.1595 348.159 46.6082 348.503 47.1344 348.644C47.6606 348.785 48.2213 348.711 48.6931 348.439L88.5401 325.433C89.0119 325.161 89.3561 324.712 89.4971 324.186C89.6381 323.66 89.5643 323.099 89.2919 322.627C89.0196 322.156 88.5709 321.811 88.0447 321.67C87.5185 321.529 86.9578 321.603 86.486 321.875Z" fill="black"/>
<path d="M114.763 284.583L106.986 295.762C105.862 297.391 104.309 298.677 102.499 299.479C100.69 300.281 98.6936 300.567 96.7314 300.307L89.4301 299.328C88.2729 299.169 87.0957 299.398 86.0827 299.98L15.1586 340.928L45.7644 393.939C45.8742 393.898 45.9764 393.839 46.0668 393.764L135.775 297.19L124.56 277.765L118.103 281.493C116.775 282.263 115.634 283.319 114.763 284.583ZM89.5671 327.213L49.72 350.219C48.7765 350.763 47.6551 350.911 46.6027 350.629C45.5503 350.347 44.653 349.658 44.1082 348.715C43.5634 347.771 43.4158 346.65 43.6978 345.597C43.9798 344.545 44.6683 343.648 45.6119 343.103L85.4589 320.097C86.4025 319.553 87.5238 319.405 88.5762 319.687C89.6287 319.969 90.526 320.657 91.0707 321.601C91.6155 322.545 91.7632 323.666 91.4812 324.718C91.1992 325.771 90.5106 326.668 89.5671 327.213Z" fill="black"/>
</svg>
