<svg width="512" height="160" viewBox="0 0 512 160" fill="none" xmlns="http://www.w3.org/2000/svg">
<path d="M227.51 32.0598L230.673 30.4577C231.41 30.1007 232.217 29.9113 233.036 29.903L273.973 30.0058V24.6035H233.261C232.436 24.6055 231.626 24.8328 230.92 25.2608L229.893 25.8976L227.531 27.1506L227.51 32.0598Z" fill="black"/>
<path d="M408.536 17.7832H383.476V25.6092H408.536V17.7832Z" fill="black"/>
<path d="M275.534 17.8457V30.0058H284.839V26.1647L278.821 21.4403C278.205 21.071 277.694 20.551 277.334 19.9293C276.975 19.3076 276.78 18.6047 276.767 17.8868L275.534 17.8457Z" fill="black"/>
<path d="M279.129 13.6344H279.252C279.98 13.2042 280.81 12.9773 281.656 12.9771H294.863L298.581 9.60846C298.498 9.49398 298.409 9.38424 298.314 9.2798C297.715 8.69429 296.913 8.36309 296.075 8.35547H281.08C280.256 8.36089 279.467 8.69223 278.886 9.27716C278.305 9.8621 277.979 10.6531 277.979 11.4777C277.964 11.9065 278.063 12.3316 278.265 12.7102C278.467 13.0888 278.765 13.4075 279.129 13.6344Z" fill="black"/>
<path d="M280.834 14.6623C280.269 14.817 279.752 15.1141 279.335 15.525C278.736 16.1142 278.377 16.9048 278.328 17.7434C278.341 18.2377 278.473 18.7216 278.713 19.1542C278.952 19.5868 279.292 19.9554 279.704 20.2289L287.037 26.083H300.923V18.031L296.404 21.5435C295.475 22.3073 294.319 22.7408 293.117 22.7759C292.629 22.7947 292.142 22.7029 291.694 22.5073C291.246 22.3117 290.848 22.0173 290.529 21.6462C290.072 21.0607 289.832 20.3347 289.851 19.5921C289.886 18.8854 290.064 18.1933 290.375 17.5577C290.686 16.922 291.123 16.3563 291.659 15.8947L293.158 14.5391H281.697C281.405 14.545 281.115 14.5864 280.834 14.6623Z" fill="black"/>
<path d="M372.117 14.8262H368.091V26.1441H372.117V14.8262Z" fill="black"/>
<path d="M381.956 17.7832H373.658V25.6092H381.956V17.7832Z" fill="black"/>
<path d="M381.956 31.5059H373.658V46.1925H381.956V31.5059Z" fill="black"/>
<path d="M304.292 15.2775L302.237 16.8797C302.31 17.2175 302.351 17.5613 302.361 17.9067V26.123H310.7V13.3672H305.935C305.545 14.1001 305.006 14.7437 304.353 15.2569L304.292 15.2775Z" fill="black"/>
<path d="M292.665 17.0233C292.289 17.3431 291.981 17.7351 291.759 18.1761C291.536 18.6171 291.405 19.0981 291.371 19.5909C291.361 19.9639 291.485 20.3283 291.721 20.6179C292.44 21.5011 294.124 21.3574 295.459 20.2892L303.429 14.127C304.263 13.5026 304.828 12.5848 305.011 11.5594C305.06 11.1028 304.927 10.6452 304.641 10.2859L304.148 9.73126C303.968 9.55146 303.753 9.41111 303.516 9.31915C303.279 9.2272 303.025 9.18565 302.772 9.1972C302.033 9.25392 301.323 9.50943 300.717 9.93667C300.547 10.0418 300.388 10.1658 300.245 10.3064L292.665 17.0233ZM302.155 10.4297C302.465 10.4297 302.768 10.5218 303.025 10.6942C303.282 10.8667 303.482 11.1117 303.599 11.3982C303.717 11.6846 303.747 11.9996 303.685 12.3029C303.623 12.6063 303.472 12.8844 303.252 13.1019C303.031 13.3194 302.751 13.4664 302.447 13.5243C302.143 13.5822 301.828 13.5484 301.544 13.427C301.259 13.3057 301.016 13.1024 300.847 12.843C300.678 12.5836 300.59 12.2798 300.594 11.9702C300.597 11.7598 300.642 11.5521 300.726 11.3596C300.811 11.167 300.934 10.9936 301.088 10.8497C301.241 10.7058 301.422 10.5944 301.62 10.5222C301.817 10.4501 302.027 10.4186 302.237 10.4297H302.155Z" fill="black"/>
<path d="M225.99 21.1113L143.087 21.2962L133.022 32.2444H166.668L178.993 32.0185L183.655 27.6638C184.98 26.4209 186.728 25.7303 188.544 25.733H226.113L225.99 21.1113Z" fill="black"/>
<path d="M273.973 17.8457H233.22C232.419 17.8434 231.632 18.0562 230.94 18.4619L227.51 20.516V25.4458L230.119 24.008C231.058 23.4313 232.139 23.1256 233.241 23.1247H273.953L273.973 17.8457Z" fill="black"/>
<path d="M225.99 32.3688V27.1309H188.441C187.013 27.1261 185.638 27.6703 184.6 28.6509L181.047 31.9785L218.431 31.3007C218.937 31.2666 219.436 31.4327 219.82 31.7632C220.204 32.0937 220.443 32.562 220.485 33.0672C220.485 33.1904 220.485 33.2931 220.485 33.3958L225.99 32.3688Z" fill="black"/>
<path d="M168.435 33.9076C168.114 33.8672 167.235 33.8258 166.915 33.8662C165.731 34.0003 164.638 34.5656 163.845 35.454C163.051 36.3425 162.613 37.4919 162.613 38.6831C162.613 39.8743 163.051 41.0238 163.845 41.9122C164.638 42.8007 165.731 43.3659 166.915 43.4999H167.469C168.066 43.4961 168.658 43.3848 169.215 43.1713C170.189 42.7914 171.015 42.1068 171.568 41.2195C172.121 40.3322 172.373 39.2898 172.285 38.2478C172.197 37.2059 171.775 36.2203 171.081 35.438C170.387 34.6558 169.459 34.119 168.435 33.9076Z" fill="black"/>
<path d="M312.302 26.1445H315.322C315.488 25.7399 315.774 25.3954 316.141 25.157C316.508 24.9185 316.939 24.7973 317.376 24.8094H331.405C331.843 24.7973 332.273 24.9185 332.64 25.157C333.007 25.3954 333.293 25.7399 333.459 26.1445H344.284C344.451 25.7399 344.737 25.3954 345.104 25.157C345.47 24.9185 345.901 24.7973 346.339 24.8094H360.368C360.805 24.7973 361.236 24.9185 361.603 25.157C361.97 25.3954 362.255 25.7399 362.422 26.1445H366.838V14.58C366.833 14.2622 366.703 13.9592 366.476 13.7363C366.249 13.5135 365.944 13.3886 365.626 13.3887H312.302V26.1445Z" fill="black"/>
<path d="M213.727 34.6486L218.575 33.7242C218.629 33.7145 218.681 33.6938 218.728 33.6635C218.774 33.6331 218.813 33.5938 218.844 33.5477C218.875 33.5017 218.896 33.4499 218.906 33.3955C218.916 33.3412 218.915 33.2853 218.903 33.2312C218.904 33.1737 218.892 33.1166 218.869 33.0639C218.846 33.0112 218.812 32.9639 218.769 32.9252C218.726 32.8865 218.676 32.8571 218.621 32.8391C218.567 32.821 218.509 32.8147 218.452 32.8204L171.454 33.6831C172.728 34.6789 173.567 36.1283 173.797 37.7284C174.026 39.3285 173.629 40.9555 172.687 42.2692L213.727 34.6486Z" fill="black"/>
<path d="M148.695 69.5264L136.905 105.185C136.826 105.422 136.845 105.681 136.957 105.904C137.068 106.127 137.264 106.297 137.5 106.377L148.736 109.766C150.996 97.77 158.719 74.333 160.321 69.6702L149.065 69.3416C148.992 69.3347 148.919 69.3484 148.853 69.381C148.788 69.4137 148.733 69.4641 148.695 69.5264Z" fill="black"/>
<path d="M287.859 53.4423C288.358 54.1852 289.03 54.7958 289.817 55.2216C290.604 55.6474 291.483 55.8756 292.378 55.8866H292.85C296.056 55.8876 299.184 54.8976 301.806 53.052L306.284 49.8887C307.785 48.8399 309.567 48.2673 311.399 48.2454L341.121 47.8962C344.271 47.8559 347.411 48.2639 350.447 49.1081L352.501 49.7038C353.838 50.0729 355.221 50.2527 356.609 50.2379H364.517C365.062 50.2379 365.584 50.0215 365.97 49.6363C366.355 49.2511 366.571 48.7286 366.571 48.1838V29.1836H362.175C362.022 29.6036 361.742 29.9656 361.374 30.2195C361.006 30.4734 360.568 30.6067 360.121 30.6009H346.092C345.646 30.6037 345.209 30.4693 344.842 30.2157C344.474 29.9622 344.194 29.6019 344.038 29.1836H333.275C333.121 29.6036 332.841 29.9656 332.473 30.2195C332.105 30.4734 331.668 30.6067 331.221 30.6009H317.191C316.745 30.6037 316.308 30.4693 315.941 30.2157C315.573 29.9622 315.293 29.6019 315.137 29.1836H287.859V53.4423Z" fill="black"/>
<path d="M184.333 65.0892C183.661 63.9368 183.284 62.6357 183.238 61.3022C183.191 59.9688 183.476 58.6445 184.066 57.448C185.134 56.0338 186.466 54.8408 187.99 53.9355H176.939C177.094 57.3663 177.888 60.7379 179.28 63.8773C179.891 65.4022 180.985 66.6845 182.396 67.5269C183.806 68.3693 185.454 68.7253 187.086 68.54C187.111 68.5258 187.133 68.505 187.148 68.4797C187.163 68.4544 187.171 68.4256 187.171 68.3962C187.171 68.3669 187.163 68.3381 187.148 68.3128C187.133 68.2875 187.111 68.2667 187.086 68.2525C185.95 67.41 185.011 66.3306 184.333 65.0892Z" fill="black"/>
<path d="M415.232 33.127H383.476V46.2114H415.232V33.127Z" fill="black"/>
<path d="M372.117 29.1836H368.091V48.533H372.117V29.1836Z" fill="black"/>
<path d="M486.879 48.861V31.4219H469.296V48.4707C469.4 48.5917 469.53 48.6891 469.675 48.7564C469.82 48.8237 469.978 48.8593 470.138 48.861H486.879Z" fill="black"/>
<path d="M496.533 33.168V43.5616H512C504.194 41.5075 502.736 33.2912 502.736 33.2912L496.533 33.168Z" fill="black"/>
<path d="M439.224 46.2132H467.776V33.8887H439.532C439.43 33.9081 439.326 33.9081 439.224 33.8887V46.2132Z" fill="black"/>
<path d="M495.013 31.4023H489.59V31.4229H488.399V48.862H495.013V31.4023Z" fill="black"/>
<path d="M418.498 28.0948V30.6213H430.494C429.308 29.8517 428.401 28.7211 427.906 27.3964L425.852 21.8093C425.158 20.57 424.148 19.5368 422.925 18.8152C421.702 18.0935 420.309 17.7091 418.889 17.7012H410.077V25.5067H416.054C416.386 25.5119 416.713 25.5834 417.017 25.7171C417.32 25.8509 417.594 26.044 417.822 26.2852C418.05 26.5264 418.227 26.8108 418.343 27.1216C418.459 27.4324 418.512 27.7633 418.498 28.0948Z" fill="black"/>
<path d="M437.704 32.1426H416.732V48.2055H437.704V32.1426Z" fill="black"/>
<path d="M475.478 23.6381L472.295 29.4511C472.137 29.7575 471.928 30.0352 471.678 30.2727H477.841C477.639 30.0213 477.524 29.7116 477.512 29.3895V25.9181C477.512 25.5095 477.674 25.1176 477.963 24.8287C478.252 24.5398 478.644 24.3775 479.053 24.3775H482.524C482.933 24.3775 483.324 24.5398 483.613 24.8287C483.902 25.1176 484.065 25.5095 484.065 25.9181V29.3895C484.053 29.7116 483.938 30.0213 483.736 30.2727H487.577V7H477.697V14.8055C477.713 17.8895 476.95 20.9275 475.478 23.6381Z" fill="black"/>
<path d="M204.545 54.2016C204.556 53.5363 204.822 52.9006 205.288 52.4263C205.755 51.952 206.386 51.6756 207.051 51.6546L284.798 49.2513V31.5451L233.077 31.4219C232.235 31.4244 231.406 31.6212 230.653 31.997L227.551 33.5992L200.848 38.6728L169.071 44.835C168.836 44.9026 168.596 44.9507 168.353 44.9788H168.065H167.51C166.672 44.9815 165.842 44.8188 165.067 44.5C164.292 44.1812 163.588 43.7126 162.994 43.121C162.401 42.5295 161.93 41.8266 161.609 41.0527C161.288 40.2788 161.122 39.4491 161.122 38.6112C161.12 37.6968 161.318 36.7931 161.701 35.963C162.084 35.1328 162.643 34.3962 163.341 33.8046L133.433 33.6608C132.92 33.6608 132.981 34.2565 132.981 34.8522V55.167H137.541V57.2211C137.543 58.1023 137.717 58.9747 138.055 59.7887L140.294 56.5843C141.185 55.3146 142.369 54.2783 143.746 53.5632C145.122 52.8481 146.651 52.4752 148.202 52.4762H169.195C169.598 52.4762 169.984 52.6363 170.27 52.9214C170.555 53.2065 170.715 53.5931 170.715 53.9962V70.2645C170.718 70.3787 170.761 70.4882 170.836 70.5743C170.91 70.6605 171.013 70.718 171.126 70.7369C171.535 70.8652 171.918 71.0671 172.255 71.3327L175.131 73.3867C176.398 74.302 177.923 74.7911 179.486 74.7835H195.918C197.726 74.9783 199.552 74.6727 201.197 73.9002C202.353 73.0774 203.222 71.9139 203.683 70.5726C204.185 69.2106 204.449 67.7723 204.463 66.3207L204.545 54.2016ZM229.194 40.6242H238.91C239.907 40.6242 240.863 41.0202 241.568 41.7251C242.273 42.4301 242.669 43.3862 242.669 44.3831C242.669 45.3801 242.273 46.3362 241.568 47.0411C240.863 47.7461 239.907 48.1421 238.91 48.1421H229.194C228.197 48.1421 227.241 47.7461 226.536 47.0411C225.831 46.3362 225.435 45.3801 225.435 44.3831C225.435 43.3862 225.831 42.4301 226.536 41.7251C227.241 41.0202 228.197 40.6242 229.194 40.6242ZM179.671 45.1226C180.114 45.1226 180.548 45.2544 180.917 45.5014C181.285 45.7483 181.572 46.0992 181.741 46.5095C181.91 46.9199 181.953 47.3711 181.865 47.8059C181.777 48.2408 181.561 48.6397 181.246 48.952C180.931 49.2643 180.53 49.4759 180.095 49.5599C179.659 49.644 179.208 49.5967 178.799 49.4241C178.391 49.2515 178.042 48.9613 177.799 48.5904C177.555 48.2196 177.428 47.7847 177.432 47.341C177.431 47.039 177.492 46.7401 177.611 46.4626C177.731 46.1851 177.905 45.9348 178.124 45.7271C178.344 45.5194 178.603 45.3587 178.886 45.2547C179.17 45.1508 179.472 45.1058 179.773 45.1226H179.671ZM197.685 72.6883L179.568 72.8937C177.996 72.784 176.503 72.1637 175.316 71.1272L173.385 69.1964C173.114 68.9287 172.902 68.6082 172.761 68.2549C172.619 67.9015 172.552 67.5228 172.563 67.1423L172.707 53.9757C172.707 53.7662 172.749 53.5589 172.83 53.3656C172.91 53.1724 173.029 52.9971 173.178 52.85C173.327 52.7028 173.504 52.5868 173.698 52.5085C173.892 52.4302 174.1 52.3913 174.309 52.394H200.848C201.232 52.4047 201.599 52.5585 201.875 52.8254C202.008 52.9599 202.112 53.1207 202.179 53.2976C202.246 53.4745 202.276 53.6635 202.265 53.8524L202.101 67.0602C201.937 69.7715 200.15 72.6883 197.788 72.6883H197.685Z" fill="black"/>
<path d="M169.174 55.4766L148.182 55.5998C147.118 55.5952 146.07 55.8512 145.128 56.3453C144.186 56.8394 143.38 57.5567 142.779 58.4344L139.904 62.5426C141.547 64.3707 143.416 66.8767 143.416 68.7048C143.416 71.1697 136.104 92.4089 132.303 103.254C131.721 104.944 131.826 106.794 132.594 108.408C133.362 110.021 134.733 111.269 136.412 111.882L148.736 116.421C149.628 116.74 150.581 116.848 151.521 116.739C152.461 116.63 153.364 116.305 154.158 115.791C154.953 115.276 155.618 114.585 156.103 113.772C156.588 112.959 156.878 112.045 156.952 111.101C157.117 108.8 156.521 104.569 156.521 102.679C156.521 97.3592 160.362 94.2781 160.362 91.0121C160.819 85.5903 162.209 80.2882 164.47 75.3395C165.516 73.9226 166.794 72.6933 168.25 71.7038C168.489 71.5297 168.683 71.3008 168.815 71.0363C168.947 70.7718 169.014 70.4795 169.01 70.1838L169.174 55.4766ZM162.005 69.3416C161.636 70.2454 152.618 97.2155 150.195 109.951C150.153 110.16 150.068 110.358 149.944 110.532C149.82 110.705 149.66 110.85 149.476 110.957C149.253 111.112 148.987 111.191 148.716 111.183C148.579 111.203 148.441 111.203 148.305 111.183L137.028 107.773C136.411 107.567 135.899 107.126 135.603 106.546C135.307 105.966 135.251 105.293 135.446 104.672L147.257 69.1156C147.383 68.729 147.627 68.3918 147.955 68.152C148.283 67.9123 148.679 67.7823 149.085 67.7805L161.163 68.1297C161.313 68.1349 161.458 68.177 161.587 68.2522C161.716 68.3275 161.825 68.4336 161.903 68.561L162.129 68.8897L162.005 69.3416Z" fill="black"/>
<path d="M229.318 46.6224H239.013C239.607 46.6224 240.176 46.3866 240.596 45.9667C241.016 45.5468 241.252 44.9773 241.252 44.3835C241.252 43.7897 241.016 43.2202 240.596 42.8003C240.176 42.3804 239.607 42.1445 239.013 42.1445H229.318C228.724 42.1445 228.154 42.3804 227.734 42.8003C227.315 43.2202 227.079 43.7897 227.079 44.3835C227.079 44.9773 227.315 45.5468 227.734 45.9667C228.154 46.3866 228.724 46.6224 229.318 46.6224Z" fill="black"/>
<path d="M144.505 19.776L226.011 19.5911L230.119 17.1468C231.044 16.6142 232.091 16.3311 233.159 16.3251H276.746C276.875 15.7481 277.168 15.2205 277.588 14.8051H223.196C222.578 14.7963 221.988 14.5456 221.553 14.1067L220.978 13.4905C220.76 13.2675 220.5 13.0904 220.212 12.9694C219.925 12.8485 219.616 12.7862 219.304 12.7862C218.992 12.7862 218.683 12.8485 218.396 12.9694C218.108 13.0904 217.848 13.2675 217.63 13.4905L217.055 14.0862C216.841 14.3124 216.583 14.4928 216.297 14.6164C216.011 14.74 215.703 14.8042 215.391 14.8051H197.479C197.165 14.8023 196.854 14.7373 196.565 14.6139C196.276 14.4906 196.014 14.3112 195.795 14.0862L195.22 13.47C195.002 13.247 194.741 13.0698 194.454 12.9489C194.166 12.8279 193.858 12.7656 193.546 12.7656C193.234 12.7656 192.925 12.8279 192.638 12.9489C192.35 13.0698 192.09 13.247 191.872 13.47L191.297 14.0862C191.077 14.3112 190.815 14.4906 190.526 14.6139C190.237 14.7373 189.927 14.8023 189.612 14.8051H171.577C171.266 14.8042 170.958 14.74 170.672 14.6164C170.386 14.4928 170.128 14.3124 169.914 14.0862L169.297 13.4494C168.858 13.0117 168.264 12.7658 167.644 12.7658C167.024 12.7658 166.429 13.0117 165.99 13.4494L165.292 14.1684C165.08 14.3831 164.827 14.5537 164.549 14.67C164.27 14.7864 163.971 14.8463 163.669 14.8462H154.344C152.002 14.8462 149.476 14.6819 147.832 16.3046L144.505 19.776Z" fill="black"/>
<path d="M246.12 67.4104C246.095 67.2798 246.022 67.1632 245.916 67.0834C245.81 67.0036 245.677 66.9664 245.545 66.979C245.448 66.9709 245.35 66.9832 245.258 67.015C245.166 67.0468 245.082 67.0975 245.011 67.1639C244.908 67.283 244.856 67.4381 244.867 67.5952C249.098 89.2247 263.025 109.272 285.682 126.095C285.8 126.194 285.949 126.248 286.103 126.248C286.257 126.248 286.406 126.194 286.524 126.095C286.576 126.051 286.618 125.996 286.646 125.934C286.675 125.872 286.69 125.804 286.69 125.736C286.69 125.668 286.675 125.6 286.646 125.538C286.618 125.476 286.576 125.421 286.524 125.376C261.3 104.425 250.577 88.9371 246.12 67.4104Z" fill="black"/>
<path d="M237.78 67.7586C237.751 67.6301 237.678 67.5161 237.572 67.4371C237.467 67.358 237.337 67.3191 237.205 67.3272C237.107 67.3231 237.009 67.3392 236.917 67.3745C236.825 67.4098 236.741 67.4636 236.671 67.5326C236.618 67.5855 236.579 67.6508 236.558 67.7225C236.536 67.7942 236.533 67.8701 236.548 67.9434C243.45 103.376 279.684 130.613 281.183 131.743C281.299 131.846 281.449 131.902 281.604 131.902C281.759 131.902 281.909 131.846 282.025 131.743C282.077 131.699 282.119 131.644 282.148 131.582C282.176 131.52 282.191 131.452 282.191 131.384C282.191 131.315 282.176 131.248 282.148 131.186C282.119 131.124 282.077 131.069 282.025 131.024C256.924 110.196 242.238 89.3264 237.78 67.7586Z" fill="black"/>
<path d="M228.517 68.0263C228.484 67.8998 228.409 67.7881 228.305 67.7097C228.2 67.6313 228.072 67.5908 227.941 67.595C227.844 67.5855 227.746 67.5972 227.654 67.6291C227.562 67.661 227.478 67.7124 227.407 67.7798C227.349 67.8338 227.305 67.9017 227.28 67.9771C227.255 68.0525 227.249 68.133 227.264 68.2112C233.426 100.029 267.893 131.251 276.561 137.639C276.68 137.738 276.829 137.792 276.983 137.792C277.136 137.792 277.286 137.738 277.404 137.639C277.456 137.593 277.498 137.536 277.527 137.472C277.556 137.408 277.571 137.339 277.571 137.269C277.571 137.199 277.556 137.13 277.527 137.066C277.498 137.003 277.456 136.946 277.404 136.9C251.769 115.701 232.933 89.4504 228.517 68.0263Z" fill="black"/>
<path d="M252.262 52.9297L214.919 54.5524C224.182 115.004 272.741 149.163 280.526 153.662C280.832 153.836 281.192 153.888 281.535 153.808C281.878 153.728 282.177 153.522 282.375 153.23L301.601 125.726C301.716 125.569 301.799 125.39 301.843 125.199C301.887 125.009 301.892 124.812 301.857 124.62C301.823 124.428 301.749 124.244 301.642 124.081C301.534 123.919 301.394 123.779 301.231 123.672C261.156 96.4556 253.494 62.8509 252.262 52.9297ZM278.492 138.441C278.279 138.653 278.026 138.82 277.747 138.933C277.469 139.046 277.17 139.102 276.87 139.098C276.384 139.097 275.911 138.947 275.514 138.667C266.825 132.217 232.07 100.666 225.764 68.438C225.718 68.1685 225.738 67.892 225.82 67.6313C225.902 67.3706 226.045 67.1332 226.237 66.9385C226.45 66.7203 226.706 66.5477 226.989 66.4312C227.271 66.3147 227.574 66.2567 227.88 66.2607C228.344 66.2448 228.799 66.3864 229.172 66.6624C229.545 66.9384 229.814 67.3326 229.934 67.7807C234.289 88.9171 252.96 114.901 278.246 135.873C278.445 136.015 278.612 136.198 278.735 136.41C278.857 136.622 278.933 136.857 278.956 137.101C278.98 137.344 278.95 137.59 278.87 137.821C278.79 138.053 278.661 138.264 278.492 138.441ZM283.176 132.566C282.961 132.776 282.708 132.94 282.429 133.049C282.15 133.159 281.852 133.211 281.553 133.203C281.066 133.212 280.59 133.06 280.197 132.772C278.677 131.642 242.053 104.015 235.007 68.171C234.963 67.8983 234.983 67.6192 235.065 67.3554C235.147 67.0917 235.289 66.8506 235.48 66.651C235.919 66.2234 236.51 65.9871 237.123 65.9936C237.587 65.9777 238.042 66.1193 238.415 66.3954C238.788 66.6714 239.057 67.0655 239.177 67.5137C243.573 88.7939 258.116 109.437 282.909 129.978C283.11 130.12 283.279 130.304 283.403 130.517C283.528 130.729 283.606 130.966 283.631 131.212C283.656 131.457 283.629 131.705 283.55 131.938C283.472 132.172 283.344 132.386 283.176 132.566ZM287.674 126.897C287.287 127.278 286.778 127.509 286.236 127.55C285.695 127.592 285.157 127.44 284.716 127.123C261.752 110.115 247.743 89.7799 243.388 67.8218C243.34 67.5507 243.355 67.2721 243.434 67.0082C243.512 66.7443 243.651 66.5024 243.84 66.3018C244.054 66.0835 244.31 65.911 244.592 65.7944C244.875 65.6779 245.178 65.6199 245.483 65.6239C245.95 65.6092 246.407 65.7537 246.781 66.0337C247.154 66.3137 247.421 66.7125 247.537 67.1645C251.933 88.3831 262.512 103.665 287.428 124.33C287.63 124.469 287.8 124.651 287.924 124.863C288.049 125.075 288.126 125.311 288.149 125.556C288.173 125.801 288.142 126.047 288.06 126.279C287.978 126.511 287.846 126.722 287.674 126.897Z" fill="black"/>
<path d="M0.000247928 36.0242V91.4844C-0.00250173 92.1517 0.190659 92.8053 0.555787 93.3639C0.920915 93.9225 1.44196 94.3618 2.05433 94.6271V33.7031C1.48429 33.7645 0.957701 34.0365 0.577742 34.4659C0.197784 34.8952 -0.00816481 35.451 0.000247928 36.0242Z" fill="black"/>
<path d="M75.6931 52.8672H29.6817C29.1369 52.8672 28.6145 53.0836 28.2293 53.4688C27.8441 53.854 27.6276 54.3765 27.6276 54.9213C27.6276 55.466 27.8441 55.9885 28.2293 56.3737C28.6145 56.7589 29.1369 56.9753 29.6817 56.9753H75.6931C76.2379 56.9753 76.7603 56.7589 77.1456 56.3737C77.5308 55.9885 77.7472 55.466 77.7472 54.9213C77.7472 54.3765 77.5308 53.854 77.1456 53.4688C76.7603 53.0836 76.2379 52.8672 75.6931 52.8672Z" fill="black"/>
<path d="M118.829 34.7096L106.504 40.5021C104.716 41.3504 102.728 41.688 100.76 41.4778C98.7914 41.2675 96.9196 40.5176 95.3506 39.3108L89.517 34.8123C88.5944 34.096 87.4602 33.7059 86.2921 33.7031H4.39601V94.9147C4.51159 94.9342 4.62963 94.9342 4.7452 94.9147L130.722 56.1337V33.7031H123.266C121.73 33.7062 120.215 34.0499 118.829 34.7096ZM75.6931 59.0299H29.6817C28.5922 59.0299 27.5472 58.5971 26.7768 57.8267C26.0064 57.0563 25.5736 56.0113 25.5736 54.9218C25.5736 53.8322 26.0064 52.7873 26.7768 52.0169C27.5472 51.2464 28.5922 50.8136 29.6817 50.8136H75.6931C76.7826 50.8136 77.8276 51.2464 78.598 52.0169C79.3684 52.7873 79.8013 53.8322 79.8013 54.9218C79.8013 56.0113 79.3684 57.0563 78.598 57.8267C77.8276 58.5971 76.7826 59.0299 75.6931 59.0299Z" fill="black"/>
</svg>
