<svg width="512" height="160" viewBox="0 0 512 160" fill="none" xmlns="http://www.w3.org/2000/svg">
<path d="M410.044 59.0352H385.203V66.0722H410.044V59.0352Z" fill="black"/>
<path d="M384.357 54.9863H382.062V88.7246H384.357V54.9863Z" fill="black"/>
<path d="M355.466 54.9863H353.172V88.7246H355.466V54.9863Z" fill="black"/>
<path d="M326.642 54.9863H315.535V88.7246H326.642V54.9863Z" fill="black"/>
<path d="M83.6152 61.1309H87.2392V81.1922C87.2392 82.1935 86.4284 83.0042 85.4272 83.0042C84.426 83.0042 83.6152 82.1935 83.6152 81.1922V61.1309Z" fill="black"/>
<path d="M91.9609 61.1309H95.5849V87.2645C95.5849 88.2658 94.7741 89.0765 93.7729 89.0765C92.7717 89.0765 91.9609 88.2658 91.9609 87.2645V61.1309Z" fill="black"/>
<path d="M410.044 68.3379H385.203V75.375H410.044V68.3379Z" fill="black"/>
<path d="M410.044 77.6992H385.203V84.7363H410.044V77.6992Z" fill="black"/>
<path d="M381.219 59.1211H356.379V66.1582H381.219V59.1211Z" fill="black"/>
<path d="M381.219 68.3379H356.379V75.375H381.219V68.3379Z" fill="black"/>
<path d="M381.219 77.7793H356.379V84.8164H381.219V77.7793Z" fill="black"/>
<path d="M352.329 59.1211H327.488V66.1582H352.329V59.1211Z" fill="black"/>
<path d="M352.329 68.3379H327.488V75.375H352.329V68.3379Z" fill="black"/>
<path d="M352.329 77.7793H327.488V84.8164H352.329V77.7793Z" fill="black"/>
<path d="M440.884 54.9863H412.063C411.617 54.9863 411.252 55.3512 411.252 55.7971V87.9139C411.252 88.3598 411.617 88.7246 412.063 88.7246H440.884C441.285 88.7246 441.626 88.4327 441.687 88.0355C441.958 86.1951 442.647 80.6944 442.647 71.8575C442.647 63.0206 441.962 57.5198 441.687 55.6795C441.626 55.2822 441.285 54.9904 440.884 54.9904V54.9863ZM435.107 80.3012H417.722C416.607 80.3012 415.703 79.3972 415.703 78.2825C415.703 77.1677 416.607 76.2638 417.722 76.2638H435.107C436.222 76.2638 437.126 77.1677 437.126 78.2825C437.126 79.3972 436.222 80.3012 435.107 80.3012ZM435.107 67.4512H417.722C416.607 67.4512 415.703 66.5473 415.703 65.4325C415.703 64.3178 416.607 63.4138 417.722 63.4138H435.107C436.222 63.4138 437.126 64.3178 437.126 65.4325C437.126 66.5473 436.222 67.4512 435.107 67.4512Z" fill="black"/>
<path d="M79.2331 14.7782C79.7155 13.6756 76.8293 12.4271 76.6671 10.8584C76.505 9.28962 77.3684 6.7399 77.3684 6.7399L75.5767 4.87118L77.8873 1.84313L80.3032 3.12002C80.3032 3.12002 82.2003 0.497325 84.442 0.0149443C86.6836 -0.467436 103.899 10.8665 102.347 13.9716C95.7516 27.158 91.6331 22.3544 90.2914 26.5986C89.7441 28.3295 91.6899 29.7036 91.4304 31.8237C91.2075 33.66 88.7469 34.4342 88.378 35.9138C87.8105 38.1919 89.6144 38.7513 89.7522 40.8227C89.89 42.8941 87.7051 43.4697 87.6524 46.3681C87.6241 47.9409 90.5832 49.5421 90.7575 50.973C90.8426 51.6702 90.8102 54.5969 89.8252 54.5969H69.0544C69.0544 54.5969 67.6397 30.7941 79.2331 14.7863V14.7782Z" fill="black"/>
<path d="M231.495 109.402H228.163C227.223 109.402 226.635 108.381 227.113 107.57C230.182 102.353 238.849 87.2085 241.577 77.9095C245.857 63.3286 246.518 42.5781 246.518 42.5781H252.003C252.003 42.5781 252.108 60.3208 247.759 77.796C245.103 88.4772 234.605 105.519 232.525 108.835C232.302 109.191 231.913 109.402 231.495 109.402Z" fill="black"/>
<path d="M126.838 80.3168H112.095C112.095 80.3168 111.082 77.6009 111.122 73.2311C111.163 68.8613 112.095 65.5859 112.095 65.5859H126.838C126.838 65.5859 126.514 68.5289 126.502 72.9514C126.49 77.7144 126.838 80.3168 126.838 80.3168Z" fill="black"/>
<path d="M69.002 56.0329C69.002 58.5178 71.0166 60.5365 73.5055 60.5365H123.649C124.691 60.5365 125.599 59.819 125.838 58.8016L128.971 45.4368C129.725 42.2222 132.603 39.9603 135.903 39.9847L252.003 40.8886L251.289 16.8466C251.245 15.3062 249.984 14.082 248.443 14.082C246.964 14.082 245.732 15.217 245.606 16.6885L244.722 27.1225C244.443 30.406 241.739 32.9516 238.443 33.0327L133.446 35.5257C129.717 35.6149 126.401 37.9214 125.023 41.3913L120.657 52.3766C119.911 54.2534 118.103 55.4938 116.085 55.5181L69.002 56.0329Z" fill="black"/>
<path d="M91.3204 68.043H87.8789V77.8649H91.3204V68.043Z" fill="black"/>
<path d="M82.796 68.043H76.7764C76.7764 68.043 76.1562 70.2279 76.1278 73.1424C76.0994 76.057 76.7764 77.8649 76.7764 77.8649H82.796V68.043Z" fill="black"/>
<path d="M210.551 113.646H208.354C208.354 113.646 209.983 107.335 210.064 97.1561C210.145 86.9774 208.354 79.3242 208.354 79.3242H210.551C210.551 79.3242 212.423 84.6588 212.261 96.4872C212.099 108.316 210.551 113.65 210.551 113.65V113.646Z" fill="black"/>
<path d="M110.426 73.2357C110.446 71.1886 110.657 69.3847 110.876 68.043H96.3477V77.8649H110.787C110.584 76.6812 110.406 75.1125 110.426 73.2357Z" fill="black"/>
<path d="M146.196 83.4102H139.572V108.595H146.196V83.4102Z" fill="black"/>
<path d="M117.268 102.454H111.35C111.35 102.454 110.43 100.253 110.47 96.7097C110.511 93.1668 111.35 90.5117 111.35 90.5117H117.268C117.268 90.5117 116.923 92.3683 116.846 96.4827C116.769 100.597 117.268 102.454 117.268 102.454Z" fill="black"/>
<path d="M138.578 85.6152H119.064C119.064 85.6152 117.69 90.4512 117.629 96.8964C117.568 103.342 119.064 107.351 119.064 107.351H138.578V85.6152Z" fill="black"/>
<path d="M174.761 85.6152H147.232V107.351H174.761V85.6152Z" fill="black"/>
<path d="M235.217 77.7715C234.438 80.1185 233.514 82.5061 232.533 84.8086H237.989C239.06 82.3318 239.963 79.9685 240.572 77.8971C240.584 77.8566 240.596 77.812 240.608 77.7715H235.217Z" fill="black"/>
<path d="M248.865 77.666C248.865 77.666 248.861 77.6741 248.861 77.6782C248.33 79.8185 247.483 82.2142 246.449 84.7031H314.688V77.666H248.865Z" fill="black"/>
<path d="M237.649 68.3262C237.288 70.0409 236.883 71.8001 236.437 73.608C236.295 74.1836 236.133 74.7714 235.963 75.3632H241.265C241.845 73.0892 242.347 70.7138 242.785 68.3262H237.653H237.649Z" fill="black"/>
<path d="M250.818 68.2207C250.429 70.5272 249.971 72.8864 249.436 75.2578H314.691V68.2207H250.822H250.818Z" fill="black"/>
<path d="M239.314 59.1094C238.982 61.3064 238.58 63.6616 238.09 66.1465H243.153C243.55 63.7548 243.878 61.3794 244.158 59.1094H239.314Z" fill="black"/>
<path d="M252.096 59.0078C251.853 61.2332 251.549 63.6006 251.172 66.0449H314.688V59.0078H252.096Z" fill="black"/>
<path d="M207.619 79.3244H175.936V113.646H178.206V110.801H178.635L179.061 111.17L179.543 110.801H192.276L196.402 111.543H200.505C200.505 111.543 204.907 112.345 204.907 113.294C204.907 113.415 204.951 113.464 204.907 113.646H207.611C207.611 113.646 209.131 108.312 209.289 96.4833C209.447 84.6549 207.611 79.3203 207.611 79.3203L207.619 79.3244ZM200.509 108.693H196.406L192.28 109.435H179.547L179.065 109.066L178.639 109.435H178.21V104.449H178.639L179.065 104.818L179.547 104.449H192.28L196.406 105.191H200.509C200.509 105.191 204.911 105.993 204.911 106.942C204.911 107.89 200.509 108.693 200.509 108.693ZM200.509 102.345H196.406L192.28 103.087H179.547L179.065 102.718L178.639 103.087H178.21V98.1007H178.639L179.065 98.4696L179.547 98.1007H192.28L196.406 98.8425H200.509C200.509 98.8425 204.911 99.6452 204.911 100.594C204.911 101.542 200.509 102.345 200.509 102.345Z" fill="black"/>
<path d="M199.963 123.115L195.877 122.758L191.697 123.135L179.013 122.024L178.564 121.615L178.105 121.947L177.676 121.911L178.11 116.945L178.539 116.982L178.932 117.387L179.443 117.059L192.127 118.17L196.177 119.268L200.263 119.625C200.263 119.625 204.58 120.808 204.499 121.753C204.418 122.697 199.959 123.115 199.959 123.115H199.963Z" fill="black"/>
<path d="M198.747 130.793L194.709 130.079L190.514 130.091L177.976 127.882L177.566 127.432L177.08 127.724L176.654 127.651L177.522 122.742L177.947 122.815L178.304 123.253L178.843 122.973L191.381 125.182L195.317 126.63L199.355 127.343C199.355 127.343 203.554 128.9 203.388 129.832C203.222 130.764 198.747 130.793 198.747 130.793Z" fill="black"/>
<path d="M196.905 138.296L192.945 137.234L188.766 136.882L176.467 133.586L176.098 133.104L175.587 133.351L175.17 133.238L176.459 128.422L176.876 128.535L177.193 129.006L177.756 128.77L190.055 132.066L193.849 133.85L197.809 134.912C197.809 134.912 201.855 136.829 201.612 137.741C201.368 138.653 196.905 138.292 196.905 138.292V138.296Z" fill="black"/>
<path d="M194.363 145.516L190.508 144.113L186.373 143.4L174.407 139.046L174.079 138.532L173.552 138.734L173.146 138.588L174.853 133.902L175.258 134.048L175.534 134.543L176.114 134.36L188.08 138.714L191.704 140.822L195.559 142.224C195.559 142.224 199.422 144.486 199.098 145.378C198.773 146.27 194.359 145.516 194.359 145.516H194.363Z" fill="black"/>
<path d="M191.256 152.436L187.539 150.701L183.485 149.627L171.944 144.247L171.665 143.708L171.122 143.862L170.732 143.68L172.84 139.16L173.229 139.343L173.461 139.857L174.052 139.724L185.593 145.103L189.022 147.519L192.74 149.254C192.74 149.254 196.392 151.844 195.991 152.703C195.589 153.563 191.26 152.428 191.26 152.428L191.256 152.436Z" fill="black"/>
<path d="M187.663 159.074L184.112 157.023L180.168 155.6L169.142 149.232L168.911 148.669L168.355 148.774L167.982 148.559L170.475 144.242L170.848 144.457L171.035 144.992L171.639 144.911L182.665 151.279L185.871 153.987L189.422 156.038C189.422 156.038 192.835 158.937 192.361 159.755C191.887 160.574 187.671 159.07 187.671 159.07L187.663 159.074Z" fill="black"/>
<path d="M201.992 42.5781C201.441 42.5781 200.894 42.7078 200.403 42.9632L191.964 47.2844C191.473 47.5357 190.926 47.6695 190.375 47.6695H140.203C138.545 47.6695 137.122 48.8329 136.786 50.4584C136.599 51.3623 136.389 52.4973 136.178 53.8756L194.303 53.8958C194.303 53.8958 196.71 60.0735 196.508 72.3074C196.467 74.7882 196.415 76.1705 196.265 78.1121L211.38 78.0635C211.38 78.0635 212.986 81.3104 213.399 90.6905C213.468 92.235 213.513 99.1058 213.452 100.431L224.093 100.541C224.093 100.541 232.463 85.5059 235.418 73.6329C239.764 56.1577 239.833 42.5903 239.833 42.5903H201.992V42.5781ZM220.116 50.7624H203.322C202.357 50.7624 201.575 49.98 201.575 49.0153C201.575 48.0505 202.357 47.2682 203.322 47.2682H220.116C221.081 47.2682 221.863 48.0505 221.863 49.0153C221.863 49.98 221.081 50.7624 220.116 50.7624ZM229.816 73.0208C229.01 73.0208 228.353 72.3641 228.353 71.5574C228.353 70.7508 229.01 70.0941 229.816 70.0941C230.623 70.0941 231.28 70.7508 231.28 71.5574C231.28 72.3641 230.623 73.0208 229.816 73.0208ZM231.762 65.6716C230.955 65.6716 230.299 65.0149 230.299 64.2082C230.299 63.4016 230.955 62.7449 231.762 62.7449C232.569 62.7449 233.225 63.4016 233.225 64.2082C233.225 65.0149 232.569 65.6716 231.762 65.6716ZM232.743 58.3224C231.936 58.3224 231.28 57.6657 231.28 56.859C231.28 56.0524 231.936 55.3957 232.743 55.3957C233.55 55.3957 234.206 56.0524 234.206 56.859C234.206 57.6657 233.55 58.3224 232.743 58.3224ZM233.736 50.9732C232.93 50.9732 232.273 50.3165 232.273 49.5098C232.273 48.7031 232.93 48.0465 233.736 48.0465C234.543 48.0465 235.2 48.7031 235.2 49.5098C235.2 50.3165 234.543 50.9732 233.736 50.9732Z" fill="black"/>
<path d="M193.617 54.549H129.639C129.639 54.549 127.397 62.4454 127.296 72.9767C127.247 78.0964 127.795 81.7001 128.374 84.639H138.577V82.2838L147.211 82.2433L147.228 84.6187H174.756V77.9667H195.498C195.648 76.025 195.693 74.7765 195.733 72.2957C195.936 60.0619 193.617 54.5449 193.617 54.5449V54.549ZM134.138 68.8258L136.218 58.3229H137.58L135.501 68.8258H134.138ZM138.407 68.8258H137.045L139.124 58.3229H140.486L138.407 68.8258ZM139.951 68.8258L142.031 58.3229H143.393L141.313 68.8258H139.951ZM142.858 68.8258L144.937 58.3229H146.299L144.22 68.8258H142.858ZM147.126 68.8258H145.764L147.844 58.3229H149.206L147.126 68.8258ZM148.671 68.8258L150.75 58.3229H152.112L150.033 68.8258H148.671ZM152.939 68.8258H151.577L153.657 58.3229H155.019L152.939 68.8258Z" fill="black"/>
<path d="M178.207 116.139H178.637L179.062 115.771L179.545 116.139H192.277L196.404 115.398H200.506C200.506 115.398 204.908 114.595 204.908 113.646H178.203V116.139H178.207Z" fill="black"/>
</svg>
