<svg width="512" height="512" viewBox="0 0 512 512" fill="none" xmlns="http://www.w3.org/2000/svg">
<path d="M378.901 160.734L357.389 173.154L360.907 179.249L382.42 166.828L378.901 160.734Z" fill="black"/>
<path d="M354.63 170.072L352.643 171.219L369.512 200.437L371.499 199.29L354.63 170.072Z" fill="black"/>
<path d="M329.61 184.517L327.623 185.664L344.492 214.882L346.479 213.735L329.61 184.517Z" fill="black"/>
<path d="M304.646 198.929L295.027 204.482L311.896 233.701L321.515 228.147L304.646 198.929Z" fill="black"/>
<path d="M97.252 325.764L100.39 323.952L110.421 341.325C110.922 342.192 110.625 343.3 109.758 343.801C108.891 344.301 107.783 344.004 107.283 343.137L97.252 325.764Z" fill="black"/>
<path d="M104.48 321.592L107.619 319.78L120.686 342.412C121.186 343.279 120.89 344.387 120.022 344.887C119.155 345.388 118.048 345.091 117.547 344.224L104.48 321.592Z" fill="black"/>
<path d="M383.552 168.791L362.039 181.211L365.558 187.305L387.07 174.885L383.552 168.791Z" fill="black"/>
<path d="M388.231 176.898L366.719 189.318L370.237 195.413L391.75 182.992L388.231 176.898Z" fill="black"/>
<path d="M353.979 175.22L332.467 187.641L335.985 193.735L357.498 181.315L353.979 175.22Z" fill="black"/>
<path d="M358.589 183.205L337.076 195.625L340.595 201.719L362.107 189.299L358.589 183.205Z" fill="black"/>
<path d="M363.309 191.381L341.797 203.801L345.315 209.895L366.828 197.475L363.309 191.381Z" fill="black"/>
<path d="M328.96 189.666L307.447 202.086L310.966 208.18L332.478 195.76L328.96 189.666Z" fill="black"/>
<path d="M333.569 197.65L312.057 210.07L315.575 216.165L337.088 203.744L333.569 197.65Z" fill="black"/>
<path d="M338.29 205.826L316.777 218.246L320.296 224.34L341.808 211.92L338.29 205.826Z" fill="black"/>
<path d="M403.584 141.807L378.624 156.218C378.238 156.441 378.104 156.939 378.327 157.325L394.386 185.139C394.609 185.525 395.107 185.659 395.493 185.436L420.453 171.025C420.801 170.825 420.95 170.402 420.804 170.027C420.119 168.298 417.965 163.189 413.547 155.536C409.128 147.883 405.784 143.462 404.626 142.006C404.374 141.692 403.933 141.61 403.586 141.811L403.584 141.807ZM411.239 166.619L396.182 175.312C395.217 175.869 393.982 175.538 393.425 174.573C392.867 173.607 393.198 172.372 394.163 171.815L409.22 163.122C410.186 162.565 411.42 162.896 411.978 163.861C412.535 164.826 412.204 166.061 411.239 166.619ZM404.814 155.49L389.757 164.183C388.792 164.741 387.557 164.41 387 163.444C386.442 162.479 386.773 161.244 387.738 160.687L402.795 151.994C403.761 151.436 404.995 151.767 405.553 152.733C406.11 153.698 405.779 154.933 404.814 155.49Z" fill="black"/>
<path d="M70.2805 287.813C70.147 286.617 67.0232 286.978 66.0984 285.701C65.1736 284.423 64.6465 281.784 64.6465 281.784L62.1605 281.061L62.6475 277.283L65.3782 277.181C65.3782 277.181 65.7098 273.961 67.4099 272.423C69.1101 270.884 89.6863 272.092 89.8943 275.557C90.7758 290.275 84.8074 288.174 85.7674 292.52C86.159 294.293 88.5311 294.51 89.3665 296.476C90.0915 298.178 88.3477 300.078 88.7681 301.544C89.4157 303.801 91.2575 303.383 92.4126 305.108C93.5677 306.833 91.9633 308.424 93.3668 310.961C94.1287 312.337 97.4919 312.244 98.3584 313.396C98.7807 313.957 100.216 316.508 99.3629 317.001L81.3749 327.386C81.3749 327.386 68.2483 307.479 70.2846 287.82L70.2805 287.813Z" fill="black"/>
<path d="M249.456 293.628L246.57 295.294C245.756 295.765 244.736 295.174 244.745 294.233C244.794 288.18 244.727 270.732 242.44 261.314C238.857 246.547 229.054 228.246 229.054 228.246L233.804 225.504C233.804 225.504 242.766 240.816 247.737 258.125C250.778 268.703 250.207 288.711 250.064 292.622C250.049 293.042 249.817 293.42 249.456 293.628Z" fill="black"/>
<path d="M144.278 320.768L131.51 328.139C131.51 328.139 129.274 326.294 127.124 322.489C124.975 318.685 124.144 315.382 124.144 315.382L136.912 308.011C136.912 308.011 138.103 310.721 140.303 314.557C142.674 318.688 144.278 320.768 144.278 320.768Z" fill="black"/>
<path d="M82.0458 328.655C83.2882 330.807 86.0423 331.548 88.1978 330.303L131.623 305.232C132.525 304.711 132.953 303.635 132.651 302.635L128.683 289.494C127.728 286.333 129.09 282.935 131.96 281.306L232.957 224.039L220.318 203.575C219.509 202.263 217.805 201.833 216.471 202.603C215.19 203.343 214.69 204.942 215.317 206.279L219.769 215.757C221.168 218.741 220.1 222.297 217.286 224.015L127.603 278.673C124.418 280.615 122.699 284.27 123.241 287.964L124.952 299.661C125.245 301.659 124.299 303.637 122.563 304.668L82.0458 328.655Z" fill="black"/>
<path d="M107.381 327.896L104.4 329.617L109.311 338.123L112.292 336.402L107.381 327.896Z" fill="black"/>
<path d="M99.9982 332.16L94.7851 335.169C94.7851 335.169 95.3404 337.372 96.7731 339.91C98.2058 342.448 99.696 343.675 99.696 343.675L104.909 340.666L99.9982 332.16Z" fill="black"/>
<path d="M233.439 307.776L231.536 308.874C231.536 308.874 229.791 302.593 224.772 293.738C219.753 284.882 214.375 279.15 214.375 279.15L216.278 278.052C216.278 278.052 220.567 281.735 226.341 292.06C232.114 302.385 233.441 307.779 233.441 307.779L233.439 307.776Z" fill="black"/>
<path d="M126.523 322.841C125.517 321.058 124.797 319.39 124.316 318.119L111.734 325.383L116.645 333.889L129.15 326.669C128.383 325.746 127.444 324.476 126.523 322.841Z" fill="black"/>
<path d="M162.588 313.768L156.852 317.08L169.444 338.891L175.18 335.579L162.588 313.768Z" fill="black"/>
<path d="M147.059 344.724L141.933 347.683C141.933 347.683 140.036 346.237 138.299 343.148C136.563 340.06 135.962 337.341 135.962 337.341L141.088 334.382C141.088 334.382 141.717 336.162 143.708 339.763C145.698 343.365 147.059 344.724 147.059 344.724Z" fill="black"/>
<path d="M157.093 319.487L140.194 329.244C140.194 329.244 141.421 334.12 144.591 339.732C147.761 345.344 151.061 348.068 151.061 348.068L167.961 338.311L157.093 319.487Z" fill="black"/>
<path d="M188.428 301.396L164.588 315.16L175.456 333.984L199.296 320.22L188.428 301.396Z" fill="black"/>
<path d="M236.863 264.375C237.363 266.797 237.756 269.327 238.058 271.811L242.783 269.083C242.471 266.403 242.072 263.904 241.563 261.806C241.554 261.765 241.542 261.721 241.532 261.679L236.863 264.375Z" fill="black"/>
<path d="M248.629 257.46C248.629 257.46 248.63 257.469 248.632 257.473C249.242 259.592 249.706 262.09 250.056 264.762L309.152 230.643L305.633 224.549L248.629 257.46Z" fill="black"/>
<path d="M234.247 254.979C234.792 256.644 235.321 258.371 235.839 260.159C236.004 260.729 236.157 261.319 236.306 261.917L240.897 259.265C240.262 257.006 239.51 254.698 238.695 252.411L234.251 254.977L234.247 254.979Z" fill="black"/>
<path d="M245.599 248.303C246.416 250.495 247.199 252.767 247.921 255.088L304.433 222.461L300.915 216.367L245.603 248.301L245.599 248.303Z" fill="black"/>
<path d="M231.08 246.163C231.89 248.232 232.72 250.472 233.538 252.87L237.923 250.338C237.071 248.068 236.168 245.847 235.275 243.741L231.08 246.163Z" fill="black"/>
<path d="M242.099 239.684C243.001 241.733 243.922 243.935 244.817 246.241L299.824 214.483L296.305 208.388L242.099 239.684Z" fill="black"/>
<path d="M213.739 279.517L186.301 295.359L203.462 325.083L205.428 323.948L204.005 321.483L204.377 321.268L204.93 321.375L205.163 320.814L216.19 314.448L220.135 313.027L223.687 310.976C223.687 310.976 227.901 309.47 228.375 310.292C228.436 310.397 228.499 310.417 228.552 310.597L230.893 309.245C230.893 309.245 229.542 303.865 223.765 293.543C217.988 283.22 213.73 279.518 213.73 279.518L213.739 279.517ZM222.266 308.506L218.713 310.557L215.51 313.263L204.484 319.629L203.882 319.551L203.698 320.083L203.325 320.298L200.832 315.98L201.205 315.765L201.758 315.872L201.991 315.311L213.018 308.945L216.962 307.524L220.515 305.473C220.515 305.473 224.729 303.967 225.203 304.789C225.677 305.61 222.266 308.506 222.266 308.506ZM219.092 303.009L215.539 305.06L212.337 307.766L201.31 314.132L200.708 314.054L200.524 314.586L200.151 314.801L197.658 310.483L198.031 310.268L198.584 310.375L198.817 309.814L209.844 303.448L213.788 302.027L217.341 299.976C217.341 299.976 221.555 298.47 222.029 299.291C222.503 300.113 219.092 303.009 219.092 303.009Z" fill="black"/>
<path d="M229.003 321.27L225.286 323.004L221.855 325.42L210.315 330.8L209.721 330.671L209.49 331.187L209.1 331.371L206.993 326.853L207.383 326.67L207.926 326.825L208.205 326.285L219.744 320.905L223.801 319.831L227.518 318.097C227.518 318.097 231.848 316.964 232.25 317.822C232.652 318.681 228.999 321.272 228.999 321.272L229.003 321.27Z" fill="black"/>
<path d="M231.789 328.527L227.935 329.928L224.308 332.037L212.345 336.392L211.766 336.207L211.49 336.703L211.085 336.853L209.382 332.168L209.787 332.018L210.315 332.219L210.642 331.707L222.605 327.352L226.737 326.637L230.59 325.236C230.59 325.236 235.006 324.484 235.328 325.375C235.65 326.265 231.789 328.527 231.789 328.527Z" fill="black"/>
<path d="M233.946 335.946L229.986 337.006L226.19 338.79L213.891 342.086L213.33 341.852L213.012 342.322L212.593 342.432L211.302 337.617L211.72 337.507L212.229 337.756L212.6 337.271L224.898 333.975L229.076 333.623L233.037 332.562C233.037 332.562 237.499 332.2 237.744 333.112C237.99 334.023 233.944 335.942 233.944 335.942L233.946 335.946Z" fill="black"/>
<path d="M235.355 343.469L231.315 344.182L227.378 345.631L214.838 347.844L214.296 347.562L213.941 348.001L213.517 348.078L212.652 343.166L213.076 343.09L213.562 343.38L213.973 342.933L226.512 340.72L230.705 340.733L234.745 340.02C234.745 340.02 239.221 340.048 239.386 340.982C239.551 341.917 235.351 343.471 235.351 343.471L235.355 343.469Z" fill="black"/>
<path d="M236.123 351.017L232.036 351.373L227.988 352.469L215.304 353.581L214.792 353.254L214.399 353.659L213.971 353.696L213.536 348.727L213.965 348.691L214.422 349.021L214.868 348.609L227.552 347.497L231.73 347.875L235.816 347.519C235.816 347.519 240.275 347.936 240.357 348.881C240.439 349.826 236.122 351.007 236.122 351.007L236.123 351.017Z" fill="black"/>
<path d="M236.333 358.562L232.232 358.561L228.105 359.301L215.372 359.298L214.89 358.926L214.462 359.295L214.032 359.295L214.032 354.31L214.462 354.31L214.891 354.68L215.374 354.308L228.107 354.31L232.238 355.052L236.338 355.053C236.338 355.053 240.743 355.856 240.742 356.802C240.741 357.748 236.338 358.554 236.338 358.554L236.333 358.562Z" fill="black"/>
<path d="M190.493 250.509C190.016 250.784 189.607 251.17 189.31 251.637L184.161 259.599C183.862 260.062 183.455 260.451 182.978 260.727L139.528 285.813C138.092 286.642 137.441 288.361 137.963 289.936C138.253 290.813 138.638 291.901 139.145 293.2L189.493 264.155C189.493 264.155 194.667 268.301 200.608 278.997C201.813 281.166 202.459 282.389 203.3 284.146L216.366 276.546C216.366 276.546 219.38 278.555 224.428 286.472C225.26 287.775 228.734 293.703 229.344 294.881L238.614 289.656C238.614 289.656 238.346 272.45 234.968 260.69C229.994 243.383 223.27 231.599 223.27 231.599L190.499 250.519L190.493 250.509ZM210.281 248.535L195.737 256.932C194.901 257.414 193.833 257.128 193.35 256.292C192.868 255.457 193.154 254.388 193.99 253.906L208.534 245.509C209.369 245.026 210.438 245.313 210.92 246.148C211.403 246.984 211.116 248.052 210.281 248.535ZM229.811 262.961C229.112 263.364 228.215 263.124 227.812 262.425C227.409 261.727 227.649 260.83 228.347 260.426C229.046 260.023 229.943 260.263 230.346 260.962C230.75 261.66 230.509 262.558 229.811 262.961ZM227.821 255.623C227.123 256.027 226.226 255.786 225.822 255.088C225.419 254.389 225.659 253.492 226.358 253.089C227.057 252.685 227.954 252.926 228.357 253.624C228.76 254.323 228.52 255.22 227.821 255.623ZM224.996 248.768C224.298 249.172 223.401 248.931 222.997 248.233C222.594 247.534 222.834 246.637 223.533 246.234C224.231 245.83 225.129 246.071 225.532 246.769C225.935 247.468 225.695 248.365 224.996 248.768ZM222.182 241.907C221.483 242.31 220.586 242.07 220.183 241.371C219.779 240.673 220.02 239.776 220.718 239.373C221.417 238.969 222.314 239.21 222.717 239.908C223.121 240.607 222.88 241.504 222.182 241.907Z" fill="black"/>
<path d="M189.226 265.062L133.819 297.051C133.819 297.051 135.826 305.011 141.004 314.182C143.521 318.64 145.797 321.487 147.769 323.742L156.605 318.641L155.427 316.601L162.884 312.249L164.086 314.298L187.926 300.534L184.6 294.773L202.563 284.402C201.722 282.645 201.137 281.542 199.932 279.373C193.99 268.677 189.224 265.059 189.224 265.059L189.226 265.062ZM144.854 307.166L141.403 297.03L142.583 296.349L146.034 306.485L144.854 307.166ZM148.551 305.031L147.371 305.712L143.921 295.577L145.1 294.896L148.551 305.031ZM149.888 304.259L146.438 294.124L147.617 293.443L151.068 303.578L149.888 304.259ZM152.405 302.806L148.955 292.67L150.134 291.989L153.585 302.125L152.405 302.806ZM156.102 300.672L154.922 301.353L151.472 291.217L152.651 290.536L156.102 300.672ZM157.439 299.899L153.989 289.764L155.168 289.083L158.619 299.218L157.439 299.899ZM161.136 297.765L159.956 298.446L156.506 288.311L157.685 287.63L161.136 297.765Z" fill="black"/>
<path d="M206.674 326.106L207.046 325.891L207.23 325.359L207.832 325.437L218.859 319.071L222.062 316.365L225.614 314.314C225.614 314.314 229.026 311.418 228.551 310.597L205.424 323.949L206.67 326.108L206.674 326.106Z" fill="black"/>
</svg>
