<svg width="512" height="512" viewBox="0 0 512 512" fill="none" xmlns="http://www.w3.org/2000/svg">
<path d="M410.044 235.035H385.203V242.072H410.044V235.035Z" fill="black"/>
<path d="M384.357 230.986H382.062V264.725H384.357V230.986Z" fill="black"/>
<path d="M355.466 230.986H353.172V264.725H355.466V230.986Z" fill="black"/>
<path d="M326.642 230.986H315.535V264.725H326.642V230.986Z" fill="black"/>
<path d="M83.6152 237.131H87.2392V257.192C87.2392 258.193 86.4284 259.004 85.4272 259.004C84.426 259.004 83.6152 258.193 83.6152 257.192V237.131Z" fill="black"/>
<path d="M91.9609 237.131H95.5849V263.265C95.5849 264.266 94.7741 265.076 93.7729 265.076C92.7717 265.076 91.9609 264.266 91.9609 263.265V237.131Z" fill="black"/>
<path d="M410.044 244.338H385.203V251.375H410.044V244.338Z" fill="black"/>
<path d="M410.044 253.699H385.203V260.736H410.044V253.699Z" fill="black"/>
<path d="M381.219 235.121H356.379V242.158H381.219V235.121Z" fill="black"/>
<path d="M381.219 244.338H356.379V251.375H381.219V244.338Z" fill="black"/>
<path d="M381.219 253.779H356.379V260.816H381.219V253.779Z" fill="black"/>
<path d="M352.329 235.121H327.488V242.158H352.329V235.121Z" fill="black"/>
<path d="M352.329 244.338H327.488V251.375H352.329V244.338Z" fill="black"/>
<path d="M352.329 253.779H327.488V260.816H352.329V253.779Z" fill="black"/>
<path d="M440.884 230.986H412.063C411.617 230.986 411.252 231.351 411.252 231.797V263.914C411.252 264.36 411.617 264.725 412.063 264.725H440.884C441.285 264.725 441.626 264.433 441.687 264.035C441.958 262.195 442.647 256.694 442.647 247.857C442.647 239.021 441.962 233.52 441.687 231.679C441.626 231.282 441.285 230.99 440.884 230.99V230.986ZM435.107 256.301H417.722C416.607 256.301 415.703 255.397 415.703 254.282C415.703 253.168 416.607 252.264 417.722 252.264H435.107C436.222 252.264 437.126 253.168 437.126 254.282C437.126 255.397 436.222 256.301 435.107 256.301ZM435.107 243.451H417.722C416.607 243.451 415.703 242.547 415.703 241.433C415.703 240.318 416.607 239.414 417.722 239.414H435.107C436.222 239.414 437.126 240.318 437.126 241.433C437.126 242.547 436.222 243.451 435.107 243.451Z" fill="black"/>
<path d="M79.2331 190.778C79.7155 189.676 76.8293 188.427 76.6671 186.858C76.505 185.29 77.3684 182.74 77.3684 182.74L75.5767 180.871L77.8873 177.843L80.3032 179.12C80.3032 179.12 82.2003 176.497 84.442 176.015C86.6836 175.533 103.899 186.866 102.347 189.972C95.7516 203.158 91.6331 198.354 90.2914 202.599C89.7441 204.329 91.6899 205.704 91.4304 207.824C91.2075 209.66 88.7469 210.434 88.378 211.914C87.8105 214.192 89.6144 214.751 89.7522 216.823C89.89 218.894 87.7051 219.47 87.6524 222.368C87.6241 223.941 90.5832 225.542 90.7575 226.973C90.8426 227.67 90.8102 230.597 89.8252 230.597H69.0544C69.0544 230.597 67.6397 206.794 79.2331 190.786V190.778Z" fill="black"/>
<path d="M231.495 285.402H228.163C227.223 285.402 226.635 284.381 227.113 283.57C230.182 278.353 238.849 263.208 241.577 253.909C245.857 239.329 246.518 218.578 246.518 218.578H252.003C252.003 218.578 252.108 236.321 247.759 253.796C245.103 264.477 234.605 281.519 232.525 284.835C232.302 285.191 231.913 285.402 231.495 285.402Z" fill="black"/>
<path d="M126.838 256.317H112.095C112.095 256.317 111.082 253.601 111.122 249.231C111.163 244.861 112.095 241.586 112.095 241.586H126.838C126.838 241.586 126.514 244.529 126.502 248.951C126.49 253.714 126.838 256.317 126.838 256.317Z" fill="black"/>
<path d="M69.002 232.033C69.002 234.518 71.0166 236.536 73.5055 236.536H123.649C124.691 236.536 125.599 235.819 125.838 234.802L128.971 221.437C129.725 218.222 132.603 215.96 135.903 215.985L252.003 216.889L251.289 192.847C251.245 191.306 249.984 190.082 248.443 190.082C246.964 190.082 245.732 191.217 245.606 192.689L244.722 203.123C244.443 206.406 241.739 208.952 238.443 209.033L133.446 211.526C129.717 211.615 126.401 213.921 125.023 217.391L120.657 228.377C119.911 230.253 118.103 231.494 116.085 231.518L69.002 232.033Z" fill="black"/>
<path d="M91.3204 244.043H87.8789V253.865H91.3204V244.043Z" fill="black"/>
<path d="M82.796 244.043H76.7764C76.7764 244.043 76.1562 246.228 76.1278 249.142C76.0994 252.057 76.7764 253.865 76.7764 253.865H82.796V244.043Z" fill="black"/>
<path d="M210.551 289.646H208.354C208.354 289.646 209.983 283.335 210.064 273.156C210.145 262.977 208.354 255.324 208.354 255.324H210.551C210.551 255.324 212.423 260.659 212.261 272.487C212.099 284.316 210.551 289.65 210.551 289.65V289.646Z" fill="black"/>
<path d="M110.426 249.236C110.446 247.189 110.657 245.385 110.876 244.043H96.3477V253.865H110.787C110.584 252.681 110.406 251.112 110.426 249.236Z" fill="black"/>
<path d="M146.196 259.41H139.572V284.595H146.196V259.41Z" fill="black"/>
<path d="M117.268 278.454H111.35C111.35 278.454 110.43 276.253 110.47 272.71C110.511 269.167 111.35 266.512 111.35 266.512H117.268C117.268 266.512 116.923 268.368 116.846 272.483C116.769 276.597 117.268 278.454 117.268 278.454Z" fill="black"/>
<path d="M138.578 261.615H119.064C119.064 261.615 117.69 266.451 117.629 272.896C117.568 279.342 119.064 283.351 119.064 283.351H138.578V261.615Z" fill="black"/>
<path d="M174.761 261.615H147.232V283.351H174.761V261.615Z" fill="black"/>
<path d="M235.217 253.771C234.438 256.119 233.514 258.506 232.533 260.809H237.989C239.06 258.332 239.963 255.969 240.572 253.897C240.584 253.857 240.596 253.812 240.608 253.771H235.217Z" fill="black"/>
<path d="M248.865 253.666C248.865 253.666 248.861 253.674 248.861 253.678C248.33 255.818 247.483 258.214 246.449 260.703H314.688V253.666H248.865Z" fill="black"/>
<path d="M237.649 244.326C237.288 246.041 236.883 247.8 236.437 249.608C236.295 250.184 236.133 250.771 235.963 251.363H241.265C241.845 249.089 242.347 246.714 242.785 244.326H237.653H237.649Z" fill="black"/>
<path d="M250.818 244.221C250.429 246.527 249.971 248.886 249.436 251.258H314.691V244.221H250.822H250.818Z" fill="black"/>
<path d="M239.314 235.109C238.982 237.306 238.58 239.662 238.09 242.146H243.153C243.55 239.755 243.878 237.379 244.158 235.109H239.314Z" fill="black"/>
<path d="M252.096 235.008C251.853 237.233 251.549 239.601 251.172 242.045H314.688V235.008H252.096Z" fill="black"/>
<path d="M207.619 255.324H175.936V289.646H178.206V286.801H178.635L179.061 287.17L179.543 286.801H192.276L196.402 287.543H200.505C200.505 287.543 204.907 288.345 204.907 289.294C204.907 289.415 204.951 289.464 204.907 289.646H207.611C207.611 289.646 209.131 284.312 209.289 272.483C209.447 260.655 207.611 255.32 207.611 255.32L207.619 255.324ZM200.509 284.693H196.406L192.28 285.435H179.547L179.065 285.066L178.639 285.435H178.21V280.449H178.639L179.065 280.818L179.547 280.449H192.28L196.406 281.191H200.509C200.509 281.191 204.911 281.993 204.911 282.942C204.911 283.89 200.509 284.693 200.509 284.693ZM200.509 278.345H196.406L192.28 279.087H179.547L179.065 278.718L178.639 279.087H178.21V274.101H178.639L179.065 274.47L179.547 274.101H192.28L196.406 274.843H200.509C200.509 274.843 204.911 275.645 204.911 276.594C204.911 277.542 200.509 278.345 200.509 278.345Z" fill="black"/>
<path d="M199.963 299.115L195.877 298.758L191.697 299.135L179.013 298.024L178.564 297.615L178.105 297.947L177.676 297.911L178.11 292.945L178.539 292.982L178.932 293.387L179.443 293.059L192.127 294.17L196.177 295.268L200.263 295.625C200.263 295.625 204.58 296.808 204.499 297.753C204.418 298.697 199.959 299.115 199.959 299.115H199.963Z" fill="black"/>
<path d="M198.747 306.793L194.709 306.079L190.514 306.091L177.976 303.882L177.566 303.432L177.08 303.724L176.654 303.651L177.522 298.742L177.947 298.815L178.304 299.253L178.843 298.973L191.381 301.182L195.317 302.63L199.355 303.343C199.355 303.343 203.554 304.9 203.388 305.832C203.222 306.764 198.747 306.793 198.747 306.793Z" fill="black"/>
<path d="M196.905 314.296L192.945 313.234L188.766 312.882L176.467 309.586L176.098 309.104L175.587 309.351L175.17 309.238L176.459 304.422L176.876 304.535L177.193 305.006L177.756 304.77L190.055 308.066L193.849 309.85L197.809 310.912C197.809 310.912 201.855 312.829 201.612 313.741C201.368 314.653 196.905 314.292 196.905 314.292V314.296Z" fill="black"/>
<path d="M194.363 321.516L190.508 320.113L186.373 319.4L174.407 315.046L174.079 314.532L173.552 314.734L173.146 314.588L174.853 309.902L175.258 310.048L175.534 310.543L176.114 310.36L188.08 314.714L191.704 316.822L195.559 318.224C195.559 318.224 199.422 320.486 199.098 321.378C198.773 322.27 194.359 321.516 194.359 321.516H194.363Z" fill="black"/>
<path d="M191.256 328.436L187.539 326.701L183.485 325.627L171.944 320.247L171.665 319.708L171.122 319.862L170.732 319.68L172.84 315.16L173.229 315.343L173.461 315.857L174.052 315.724L185.593 321.103L189.022 323.519L192.74 325.254C192.74 325.254 196.392 327.844 195.991 328.703C195.589 329.563 191.26 328.428 191.26 328.428L191.256 328.436Z" fill="black"/>
<path d="M187.663 335.074L184.112 333.023L180.168 331.6L169.142 325.232L168.911 324.669L168.355 324.774L167.982 324.559L170.475 320.242L170.848 320.457L171.035 320.992L171.639 320.911L182.665 327.279L185.871 329.987L189.422 332.038C189.422 332.038 192.835 334.937 192.361 335.755C191.887 336.574 187.671 335.07 187.671 335.07L187.663 335.074Z" fill="black"/>
<path d="M201.992 218.578C201.441 218.578 200.894 218.708 200.403 218.963L191.964 223.284C191.473 223.536 190.926 223.669 190.375 223.669H140.203C138.545 223.669 137.122 224.833 136.786 226.458C136.599 227.362 136.389 228.497 136.178 229.876L194.303 229.896C194.303 229.896 196.71 236.074 196.508 248.307C196.467 250.788 196.415 252.17 196.265 254.112L211.38 254.064C211.38 254.064 212.986 257.31 213.399 266.691C213.468 268.235 213.513 275.106 213.452 276.431L224.093 276.541C224.093 276.541 232.463 261.506 235.418 249.633C239.764 232.158 239.833 218.59 239.833 218.59H201.992V218.578ZM220.116 226.762H203.322C202.357 226.762 201.575 225.98 201.575 225.015C201.575 224.051 202.357 223.268 203.322 223.268H220.116C221.081 223.268 221.863 224.051 221.863 225.015C221.863 225.98 221.081 226.762 220.116 226.762ZM229.816 249.021C229.01 249.021 228.353 248.364 228.353 247.557C228.353 246.751 229.01 246.094 229.816 246.094C230.623 246.094 231.28 246.751 231.28 247.557C231.28 248.364 230.623 249.021 229.816 249.021ZM231.762 241.672C230.955 241.672 230.299 241.015 230.299 240.208C230.299 239.402 230.955 238.745 231.762 238.745C232.569 238.745 233.225 239.402 233.225 240.208C233.225 241.015 232.569 241.672 231.762 241.672ZM232.743 234.322C231.936 234.322 231.28 233.666 231.28 232.859C231.28 232.052 231.936 231.396 232.743 231.396C233.55 231.396 234.206 232.052 234.206 232.859C234.206 233.666 233.55 234.322 232.743 234.322ZM233.736 226.973C232.93 226.973 232.273 226.316 232.273 225.51C232.273 224.703 232.93 224.046 233.736 224.046C234.543 224.046 235.2 224.703 235.2 225.51C235.2 226.316 234.543 226.973 233.736 226.973Z" fill="black"/>
<path d="M193.617 230.549H129.639C129.639 230.549 127.397 238.445 127.296 248.977C127.247 254.096 127.795 257.7 128.374 260.639H138.577V258.284L147.211 258.243L147.228 260.619H174.756V253.967H195.498C195.648 252.025 195.693 250.777 195.733 248.296C195.936 236.062 193.617 230.545 193.617 230.545V230.549ZM134.138 244.826L136.218 234.323H137.58L135.501 244.826H134.138ZM138.407 244.826H137.045L139.124 234.323H140.486L138.407 244.826ZM139.951 244.826L142.031 234.323H143.393L141.313 244.826H139.951ZM142.858 244.826L144.937 234.323H146.299L144.22 244.826H142.858ZM147.126 244.826H145.764L147.844 234.323H149.206L147.126 244.826ZM148.671 244.826L150.75 234.323H152.112L150.033 244.826H148.671ZM152.939 244.826H151.577L153.657 234.323H155.019L152.939 244.826Z" fill="black"/>
<path d="M178.207 292.139H178.637L179.062 291.771L179.545 292.139H192.277L196.404 291.398H200.506C200.506 291.398 204.908 290.595 204.908 289.646H178.203V292.139H178.207Z" fill="black"/>
</svg>
