<svg width="512" height="512" viewBox="0 0 512 512" fill="none" xmlns="http://www.w3.org/2000/svg">
<path d="M181.919 251.961C182.622 251.826 183.289 251.545 183.876 251.136C184.463 250.727 184.958 250.199 185.328 249.586C185.697 248.973 185.934 248.289 186.022 247.579C186.11 246.868 186.047 246.148 185.838 245.463C185.63 244.778 185.279 244.146 184.809 243.605C184.34 243.065 183.762 242.63 183.113 242.328C182.464 242.026 181.759 241.864 181.043 241.852C180.328 241.841 179.617 241.98 178.959 242.261C178.317 242.455 177.719 242.774 177.2 243.199C176.682 243.625 176.252 244.148 175.935 244.739C175.618 245.331 175.421 245.979 175.355 246.647C175.289 247.314 175.355 247.988 175.549 248.631C175.743 249.273 176.062 249.87 176.488 250.389C176.913 250.908 177.436 251.338 178.028 251.655C178.619 251.972 179.267 252.169 179.935 252.235C180.603 252.301 181.277 252.235 181.919 252.041V251.961Z" fill="black"/>
<path d="M84.1991 266.962C85.9095 266.444 87.3444 265.269 88.1882 263.694C89.0321 262.118 89.2158 260.273 88.6991 258.562C88.1772 256.85 86.9977 255.415 85.4193 254.571C83.8409 253.728 81.9924 253.545 80.2791 254.062C78.5687 254.58 77.1339 255.755 76.29 257.33C75.4462 258.905 75.2624 260.751 75.7791 262.462C76.0353 263.311 76.4565 264.101 77.0186 264.787C77.5808 265.473 78.2728 266.042 79.055 266.46C79.8373 266.878 80.6943 267.137 81.577 267.224C82.4598 267.31 83.3508 267.221 84.1991 266.962Z" fill="black"/>
<path d="M237.48 257.961C237.48 257.961 303.8 260.821 318.34 260.721C318.34 260.721 329.3 261.161 332.14 264.721C333.806 266.808 334.951 269.263 335.48 271.881C335.48 271.881 401.1 271.341 424.98 257.701L319.78 235.341C319.78 235.341 294.2 245.341 243.56 227.141C243.56 227.141 241 233.621 240.28 235.841C239.292 239.874 238.538 243.961 238.02 248.081C237.623 251.346 237.423 254.632 237.42 257.921L237.48 257.961Z" fill="black"/>
<path d="M233.84 261.441V260.521V258.001C233.836 254.524 234.05 251.051 234.48 247.601C234.995 243.267 235.79 238.972 236.86 234.741C237.6 232.461 240.12 226.101 240.2 225.841L240.54 225.001C240.224 224.842 239.896 224.708 239.56 224.601C238.52 224.301 238.6 224.301 237.16 223.921C235.72 223.541 232.84 222.681 231 222.241C229.149 221.78 227.195 222.007 225.5 222.881C225.24 223.021 224.78 223.261 224.5 223.441C222.459 224.62 220.699 226.229 219.342 228.156C217.985 230.083 217.063 232.282 216.64 234.601C216.613 234.713 216.613 234.829 216.64 234.941C216.52 240.241 215.88 243.081 217.06 248.941C218.24 254.801 220.8 265.301 217.72 271.241L214.58 277.241C213.06 279.701 210.58 282.101 209.28 283.981C209.28 283.981 209.28 283.981 209.18 284.101C209.08 284.221 209 284.401 208.76 284.761C208.08 285.841 207.64 289.541 209.4 290.041L226.12 291.521C228.58 291.101 229.5 287.521 230.76 284.321C231.921 280.379 232.849 276.372 233.54 272.321M222.08 284.921C221.692 285.274 221.209 285.503 220.691 285.58C220.173 285.658 219.643 285.579 219.17 285.355C218.697 285.13 218.301 284.77 218.033 284.32C217.765 283.87 217.637 283.35 217.666 282.827C217.694 282.304 217.877 281.801 218.192 281.382C218.507 280.964 218.939 280.648 219.434 280.476C219.929 280.304 220.463 280.283 220.97 280.415C221.477 280.548 221.933 280.828 222.28 281.221C222.522 281.486 222.708 281.798 222.825 282.138C222.942 282.478 222.988 282.838 222.96 283.196C222.932 283.554 222.83 283.903 222.662 284.22C222.493 284.538 222.261 284.817 221.98 285.041L222.08 284.921Z" fill="black"/>
<path d="M333.62 274.642L332.8 272.642C331.922 270.487 330.743 268.467 329.3 266.642C328.097 265.518 326.653 264.684 325.08 264.202C322.828 263.586 320.485 263.376 318.159 263.582C307.439 263.582 268.779 262.622 249.019 262.062L240.879 261.682L237.479 261.422V272.582L244.799 273.342C246.079 273.462 289.119 275.342 289.119 275.342C296.179 275.962 323.42 275.642 329.3 286.482L333.62 274.642Z" fill="black"/>
<path d="M445.08 250.262L427.26 257.962L419.48 262.262C395.02 276.262 339.24 275.602 336.9 275.562H334.52L331.04 288.762C360.22 289.822 390.4 289.122 417.82 279.302L445.08 250.262Z" fill="black"/>
<path d="M333.119 228.361C329.619 228.261 322.839 234.261 322.359 234.261L425.879 256.261L445.119 249.941L408.579 243.501C408.344 243.459 408.103 243.473 407.874 243.54C407.645 243.608 407.434 243.728 407.26 243.891C407.085 244.054 406.951 244.255 406.868 244.479C406.784 244.703 406.754 244.943 406.779 245.181L406.999 247.181C407.099 248.141 406.519 248.761 405.679 248.601C405.234 248.466 404.836 248.206 404.535 247.851C404.233 247.496 404.04 247.062 403.979 246.601L403.579 242.601L401.579 242.241L401.919 246.241C401.964 246.442 401.957 246.652 401.899 246.85C401.842 247.049 401.736 247.23 401.591 247.377C401.446 247.524 401.266 247.632 401.069 247.692C400.871 247.752 400.662 247.762 400.459 247.721C399.983 247.583 399.558 247.305 399.241 246.924C398.923 246.542 398.728 246.074 398.679 245.581L398.399 241.781L396.219 241.401L396.459 245.121C396.491 245.333 396.47 245.55 396.399 245.752C396.327 245.955 396.208 246.137 396.05 246.283C395.892 246.429 395.701 246.534 395.494 246.589C395.287 246.645 395.069 246.648 394.859 246.601C394.354 246.473 393.9 246.19 393.563 245.792C393.226 245.394 393.022 244.901 392.979 244.381L392.799 240.781L390.459 240.261L390.579 243.781C390.6 244.011 390.565 244.242 390.477 244.456C390.389 244.67 390.251 244.859 390.074 245.008C389.898 245.157 389.688 245.261 389.462 245.312C389.237 245.363 389.003 245.359 388.779 245.301C388.241 245.188 387.753 244.903 387.392 244.487C387.031 244.072 386.816 243.55 386.779 243.001V239.581L384.259 239.141V242.441C384.264 242.687 384.212 242.932 384.106 243.155C384.001 243.378 383.845 243.574 383.652 243.727C383.458 243.88 383.231 243.986 382.99 244.037C382.748 244.088 382.498 244.082 382.259 244.021C381.706 243.901 381.209 243.599 380.847 243.164C380.484 242.73 380.278 242.186 380.259 241.621V238.441L377.479 237.961V241.041C377.466 241.304 377.393 241.562 377.266 241.793C377.139 242.025 376.96 242.224 376.744 242.377C376.529 242.529 376.281 242.63 376.02 242.672C375.759 242.714 375.492 242.697 375.239 242.621C374.65 242.516 374.115 242.213 373.722 241.762C373.329 241.311 373.102 240.738 373.079 240.141L373.199 237.201L370.239 236.701L370.059 239.541C370.016 239.818 369.914 240.084 369.761 240.319C369.608 240.555 369.407 240.756 369.171 240.909C368.935 241.062 368.67 241.163 368.392 241.207C368.114 241.25 367.831 241.234 367.559 241.161C366.932 241.062 366.359 240.745 365.942 240.266C365.525 239.787 365.29 239.176 365.279 238.541L365.479 235.861L362.239 235.301L361.979 237.881C361.92 238.182 361.798 238.468 361.621 238.719C361.444 238.971 361.216 239.181 360.951 239.338C360.687 239.495 360.392 239.594 360.087 239.629C359.782 239.664 359.472 239.634 359.179 239.541C358.518 239.45 357.911 239.126 357.467 238.628C357.023 238.129 356.772 237.488 356.759 236.821L357.059 234.401L353.479 233.781L353.159 236.081C353.073 236.406 352.921 236.709 352.712 236.973C352.504 237.237 352.244 237.456 351.947 237.615C351.651 237.774 351.326 237.871 350.991 237.9C350.656 237.928 350.318 237.888 349.999 237.781C349.294 237.705 348.643 237.367 348.176 236.833C347.709 236.3 347.46 235.61 347.479 234.901L347.839 232.781L343.839 232.101L343.479 234.101C343.226 234.794 342.712 235.361 342.048 235.682C341.383 236.003 340.62 236.053 339.919 235.821C338.139 235.481 337.219 233.521 336.719 232.241L335.419 229.841L334.519 228.741C334.08 228.54 333.602 228.438 333.119 228.441V228.361Z" fill="black"/>
<path d="M213.76 253.401C213.48 252.121 213.26 251.081 213.16 250.421C212.394 245.32 212.334 240.138 212.98 235.021C213.1 234.201 213.24 233.401 213.4 232.681C214.219 229.719 215.575 226.933 217.4 224.461C215.4 224.821 213.06 225.341 211.58 225.701C209.656 226.059 207.754 226.52 205.88 227.081C190.82 232.681 167.24 227.401 167.24 227.401C147.48 220.261 121.98 228.921 116.3 231.021C115.613 231.299 114.945 231.619 114.3 231.981C104.434 237.159 93.4412 239.818 82.2996 239.721C81.9512 239.712 81.6052 239.781 81.2868 239.923C80.9685 240.065 80.6859 240.276 80.4596 240.541L66.7396 256.841C66.4377 257.2 66.2498 257.642 66.1999 258.108C66.15 258.575 66.2404 259.046 66.4596 259.461C69.2796 264.841 79.5396 284.321 82.9596 290.801C83.0801 291.03 83.2573 291.225 83.4743 291.367C83.6913 291.508 83.9409 291.592 84.1994 291.61C84.4579 291.628 84.7167 291.58 84.9513 291.47C85.1859 291.36 85.3884 291.191 85.5396 290.981C99.6796 272.781 110.72 272.981 115.12 273.961C115.734 274.128 116.383 274.121 116.994 273.941C117.605 273.761 118.154 273.415 118.58 272.941C128.92 260.941 142.58 266.701 146.92 269.101C147.373 269.338 147.885 269.441 148.394 269.399C148.904 269.356 149.392 269.17 149.8 268.861C158.68 262.601 165.48 262.861 170.1 264.861C174.059 266.687 177.131 270.01 178.64 274.101C182.96 284.861 185.96 280.841 185.96 280.841C192.98 254.401 212.88 266.841 212.88 266.841C213.556 267.228 214.074 267.842 214.341 268.574C214.608 269.306 214.608 270.109 214.34 270.841C214.46 270.621 214.94 269.701 215.08 269.481C216.3 267.621 215.9 262.181 213.94 253.281L213.76 253.401ZM89.1596 268.261C87.8455 269.434 86.2555 270.255 84.5382 270.646C82.8209 271.038 81.0323 270.988 79.3396 270.501C77.4816 269.955 75.8126 268.902 74.5196 267.461C73.6098 266.449 72.9083 265.267 72.4553 263.984C72.0024 262.7 71.8067 261.34 71.8796 259.981C71.9494 258.619 72.2895 257.285 72.8801 256.055C73.4707 254.826 74.2999 253.727 75.3196 252.821C76.6297 251.641 78.2197 250.816 79.9384 250.424C81.6571 250.032 83.4475 250.086 85.1396 250.581C87.0033 251.116 88.68 252.162 89.9796 253.601C91.8117 255.65 92.7564 258.342 92.6065 261.086C92.4565 263.831 91.2241 266.404 89.1796 268.241L89.1596 268.261ZM115.98 270.501C115.544 270.871 114.98 271.054 114.41 271.009C113.84 270.964 113.311 270.695 112.94 270.261C112.557 269.838 112.357 269.282 112.383 268.712C112.41 268.143 112.66 267.607 113.08 267.221C113.51 266.847 114.068 266.653 114.638 266.679C115.207 266.705 115.745 266.949 116.14 267.361C116.34 267.573 116.496 267.824 116.597 268.098C116.697 268.372 116.742 268.664 116.727 268.955C116.712 269.247 116.638 269.532 116.51 269.795C116.381 270.057 116.201 270.29 115.98 270.481V270.501ZM149.26 265.781C148.936 266.059 148.537 266.234 148.114 266.286C147.691 266.338 147.262 266.263 146.881 266.071C146.5 265.879 146.185 265.579 145.974 265.208C145.764 264.837 145.668 264.412 145.698 263.987C145.729 263.562 145.885 263.155 146.146 262.818C146.407 262.481 146.763 262.229 147.167 262.094C147.571 261.958 148.007 261.946 148.418 262.057C148.83 262.169 149.199 262.4 149.48 262.721C149.852 263.154 150.038 263.717 149.997 264.286C149.956 264.856 149.691 265.386 149.26 265.761V265.781ZM186.26 253.581C185.157 254.572 183.819 255.264 182.372 255.589C180.926 255.915 179.42 255.864 178 255.441C176.457 254.969 175.074 254.084 174 252.881C172.74 251.468 171.974 249.684 171.816 247.798C171.657 245.912 172.115 244.025 173.121 242.422C174.127 240.819 175.626 239.585 177.393 238.907C179.16 238.229 181.099 238.142 182.92 238.661C184.458 239.14 185.84 240.024 186.92 241.221C188.456 242.952 189.246 245.22 189.118 247.531C188.991 249.842 187.956 252.009 186.24 253.561L186.26 253.581Z" fill="black"/>
</svg>
