<svg width="512" height="512" viewBox="0 0 512 512" fill="none" xmlns="http://www.w3.org/2000/svg">
<path d="M189.373 289.476C189.915 289.008 190.352 288.431 190.656 287.783C190.96 287.135 191.124 286.43 191.137 285.715C191.151 284.999 191.014 284.289 190.735 283.63C190.456 282.971 190.042 282.377 189.519 281.889C188.995 281.401 188.375 281.028 187.698 280.795C187.022 280.562 186.304 280.474 185.591 280.537C184.878 280.6 184.186 280.812 183.56 281.16C182.935 281.507 182.389 281.983 181.96 282.555C181.501 283.045 181.143 283.62 180.906 284.248C180.669 284.875 180.558 285.544 180.58 286.214C180.602 286.885 180.755 287.545 181.031 288.156C181.308 288.767 181.702 289.318 182.192 289.777C182.681 290.236 183.256 290.594 183.884 290.831C184.512 291.067 185.18 291.178 185.85 291.157C186.521 291.135 187.181 290.982 187.792 290.705C188.403 290.429 188.954 290.035 189.413 289.545L189.373 289.476Z" fill="black"/>
<path d="M112.245 351.325C113.467 350.022 114.122 348.287 114.065 346.5C114.009 344.714 113.245 343.024 111.942 341.801C110.634 340.579 108.895 339.926 107.106 339.985C105.318 340.044 103.625 340.809 102.4 342.114C101.178 343.417 100.523 345.153 100.58 346.939C100.636 348.725 101.4 350.415 102.703 351.638C103.349 352.246 104.109 352.719 104.939 353.032C105.769 353.345 106.652 353.492 107.539 353.463C108.425 353.434 109.297 353.23 110.105 352.863C110.912 352.496 111.64 351.974 112.245 351.325Z" fill="black"/>
<path d="M240.489 266.891C240.489 266.891 299.354 236.208 311.896 228.852C311.896 228.852 321.608 223.753 325.847 225.416C328.334 226.391 330.553 227.944 332.32 229.946C332.32 229.946 388.878 196.669 402.739 172.916L300.453 206.152C300.453 206.152 283.3 227.602 230.345 237.16C230.345 237.16 231.368 244.052 231.854 246.335C233.015 250.322 234.405 254.238 236.017 258.065C237.306 261.091 238.776 264.037 240.417 266.887L240.489 266.891Z" fill="black"/>
<path d="M239.077 271.726L238.617 270.929L237.357 268.747C235.616 265.737 234.064 262.622 232.711 259.42C230.991 255.41 229.531 251.292 228.342 247.093C227.843 244.748 226.846 237.98 226.785 237.715L226.659 236.818C226.307 236.838 225.956 236.886 225.611 236.961C224.56 237.222 224.629 237.182 223.192 237.573C221.755 237.963 218.831 238.659 217.018 239.198C215.185 239.724 213.606 240.898 212.574 242.502C212.419 242.753 212.141 243.191 211.988 243.487C210.811 245.529 210.091 247.802 209.879 250.149C209.667 252.497 209.968 254.862 210.761 257.082C210.794 257.192 210.852 257.293 210.931 257.376C213.478 262.026 214.343 264.806 218.295 269.29C222.247 273.775 229.714 281.589 230.017 288.273L230.297 295.039C230.211 297.929 229.263 301.248 229.078 303.526C229.078 303.526 229.078 303.526 229.051 303.68C229.024 303.834 229.045 304.03 229.017 304.462C228.968 305.737 230.437 309.161 232.211 308.714L247.431 301.636C249.352 300.042 248.359 296.482 247.85 293.08C246.885 289.086 245.685 285.152 244.257 281.298M240.633 297.94C240.474 298.439 240.17 298.88 239.76 299.206C239.35 299.532 238.852 299.728 238.33 299.77C237.808 299.813 237.285 299.699 236.828 299.443C236.371 299.187 236 298.801 235.763 298.334C235.526 297.867 235.433 297.339 235.497 296.819C235.56 296.299 235.777 295.81 236.119 295.414C236.461 295.017 236.914 294.731 237.419 294.593C237.924 294.454 238.459 294.469 238.956 294.636C239.299 294.744 239.615 294.921 239.887 295.157C240.158 295.393 240.378 295.682 240.533 296.006C240.687 296.331 240.774 296.683 240.786 297.042C240.799 297.402 240.738 297.76 240.606 298.094L240.633 297.94Z" fill="black"/>
<path d="M332.089 233.268L330.379 231.945C328.541 230.518 326.511 229.358 324.348 228.499C322.745 228.128 321.078 228.126 319.474 228.496C317.216 229.089 315.081 230.078 313.171 231.419C303.887 236.779 269.926 255.278 252.534 264.673L245.294 268.414L242.22 269.889L247.8 279.554L254.519 276.552C255.688 276.016 293.901 256.124 293.901 256.124C300.325 253.131 323.756 239.234 334.268 245.681L332.089 233.268Z" fill="black"/>
<path d="M416.427 156.423L404.844 172.002L400.256 179.616C386.073 203.97 337.436 231.288 335.39 232.424L333.329 233.614L336.915 246.785C362.716 233.113 388.502 217.417 407.339 195.203L416.427 156.423Z" fill="black"/>
<path d="M308.516 193.437C305.435 195.101 302.564 203.687 302.148 203.927L402.799 171.22L416.301 156.126L381.437 168.819C381.212 168.901 381.01 169.033 380.845 169.206C380.681 169.38 380.559 169.589 380.489 169.817C380.419 170.045 380.404 170.287 380.443 170.523C380.483 170.758 380.577 170.981 380.718 171.174L381.908 172.796C382.475 173.577 382.283 174.404 381.475 174.686C381.022 174.792 380.548 174.766 380.109 174.609C379.671 174.453 379.286 174.173 379.003 173.804L376.656 170.54L374.744 171.228L377.039 174.522C377.178 174.675 377.277 174.86 377.326 175.06C377.376 175.261 377.374 175.47 377.322 175.67C377.27 175.87 377.169 176.054 377.028 176.204C376.887 176.355 376.71 176.468 376.514 176.534C376.033 176.653 375.526 176.625 375.061 176.453C374.595 176.281 374.192 175.974 373.903 175.57L371.76 172.42L369.683 173.18L371.75 176.282C371.884 176.45 371.974 176.649 372.014 176.86C372.053 177.071 372.04 177.288 371.977 177.493C371.913 177.698 371.801 177.885 371.649 178.037C371.497 178.188 371.31 178.301 371.105 178.364C370.603 178.506 370.069 178.488 369.578 178.312C369.087 178.136 368.663 177.81 368.367 177.381L366.411 174.354L364.124 175.073L365.988 178.062C366.121 178.251 366.206 178.469 366.237 178.698C366.267 178.927 366.243 179.16 366.164 179.377C366.086 179.595 365.956 179.79 365.787 179.947C365.617 180.103 365.412 180.217 365.189 180.278C364.666 180.45 364.102 180.446 363.581 180.267C363.061 180.088 362.613 179.743 362.307 179.286L360.597 176.324L358.195 177.203L359.845 180.061C359.972 180.272 360.049 180.51 360.07 180.756C360.09 181.002 360.053 181.25 359.962 181.479C359.87 181.708 359.727 181.914 359.544 182.078C359.36 182.243 359.141 182.363 358.903 182.429C358.364 182.602 357.783 182.59 357.251 182.394C356.72 182.199 356.269 181.832 355.971 181.351L354.381 178.597L351.733 179.571L353.273 182.239C353.394 182.474 353.459 182.733 353.465 182.997C353.47 183.261 353.415 183.523 353.305 183.763C353.194 184.003 353.03 184.214 352.825 184.381C352.621 184.548 352.38 184.667 352.123 184.727C351.561 184.931 350.945 184.936 350.38 184.742C349.814 184.548 349.331 184.166 349.013 183.659L347.647 181.053L344.833 182.1L346.097 184.65C346.198 184.912 346.243 185.193 346.228 185.473C346.214 185.754 346.14 186.028 346.012 186.279C345.884 186.529 345.705 186.75 345.486 186.926C345.268 187.102 345.014 187.231 344.742 187.303C344.149 187.531 343.495 187.543 342.894 187.336C342.294 187.13 341.785 186.718 341.458 186.174L340.291 183.753L337.205 184.888L338.27 187.252C338.37 187.543 338.407 187.851 338.379 188.157C338.351 188.464 338.259 188.76 338.108 189.028C337.958 189.296 337.752 189.529 337.505 189.712C337.258 189.895 336.975 190.024 336.675 190.09C336.057 190.342 335.369 190.365 334.735 190.155C334.102 189.945 333.564 189.516 333.219 188.944L332.269 186.698L328.859 187.951L329.731 190.103C329.819 190.428 329.839 190.767 329.791 191.1C329.742 191.433 329.626 191.752 329.449 192.038C329.272 192.324 329.039 192.571 328.763 192.763C328.487 192.955 328.174 193.089 327.845 193.155C327.196 193.443 326.464 193.476 325.792 193.247C325.121 193.018 324.56 192.545 324.222 191.921L323.474 189.905L319.67 191.316L320.358 193.228C320.485 193.955 320.324 194.703 319.909 195.314C319.494 195.924 318.858 196.349 318.135 196.498C316.424 197.094 314.647 195.856 313.574 194.998L311.248 193.569L309.919 193.067C309.438 193.112 308.973 193.263 308.556 193.507L308.516 193.437Z" fill="black"/>
<path d="M217.668 274.804C216.785 273.835 216.075 273.044 215.658 272.523C212.445 268.488 209.801 264.031 207.802 259.276C207.496 258.506 207.217 257.743 206.996 257.04C206.225 254.065 206.006 250.974 206.35 247.921C204.798 249.233 203.031 250.853 201.93 251.905C200.443 253.177 199.026 254.527 197.683 255.95C187.441 268.33 164.38 275.547 164.38 275.547C143.697 279.244 125.944 299.493 122.075 304.152C121.619 304.736 121.201 305.347 120.823 305.983C114.868 315.401 106.677 323.2 96.9798 328.686C96.6736 328.853 96.4084 329.086 96.2037 329.368C95.9989 329.65 95.8598 329.974 95.7963 330.317L92.0645 351.293C91.9827 351.755 92.0406 352.231 92.2307 352.66C92.4209 353.089 92.7347 353.452 93.132 353.702C98.2642 356.951 116.89 368.691 123.091 372.593C123.31 372.731 123.561 372.811 123.82 372.826C124.079 372.84 124.337 372.788 124.57 372.674C124.803 372.56 125.003 372.389 125.151 372.176C125.299 371.964 125.39 371.717 125.416 371.459C128.561 348.627 138.222 343.28 142.523 341.929C143.139 341.766 143.697 341.436 144.136 340.974C144.575 340.513 144.877 339.939 145.009 339.316C147.964 323.753 162.674 321.912 167.632 321.82C168.144 321.799 168.638 321.632 169.058 321.341C169.479 321.049 169.808 320.644 170.007 320.172C174.567 310.311 180.586 307.136 185.587 306.558C189.929 306.16 194.251 307.502 197.603 310.29C206.724 317.449 207.312 312.467 207.312 312.467C200.172 286.06 223.625 286.883 223.625 286.883C224.405 286.88 225.16 287.153 225.758 287.653C226.355 288.154 226.756 288.849 226.89 289.617C226.884 289.367 226.839 288.33 226.851 288.069C226.977 285.848 223.911 281.337 217.763 274.61L217.668 274.804ZM117.191 349.973C116.639 351.646 115.673 353.151 114.381 354.349C113.09 355.547 111.516 356.398 109.806 356.823C107.924 357.279 105.953 357.202 104.112 356.6C102.818 356.178 101.62 355.506 100.586 354.621C99.5518 353.736 98.7023 352.655 98.0858 351.442C97.4653 350.228 97.0926 348.902 96.9894 347.542C96.8863 346.182 97.0547 344.815 97.485 343.521C98.0298 341.845 98.9943 340.335 100.287 339.136C101.579 337.938 103.157 337.089 104.869 336.671C106.751 336.203 108.726 336.27 110.571 336.867C113.182 337.725 115.346 339.584 116.589 342.036C117.831 344.488 118.05 347.332 117.198 349.945L117.191 349.973ZM141.538 338.503C141.346 339.041 140.948 339.481 140.432 339.727C139.916 339.973 139.324 340.005 138.785 339.815C138.242 339.64 137.791 339.258 137.529 338.752C137.267 338.245 137.215 337.656 137.386 337.112C137.572 336.573 137.958 336.126 138.464 335.863C138.971 335.601 139.559 335.544 140.106 335.703C140.386 335.787 140.646 335.926 140.87 336.113C141.095 336.3 141.279 336.53 141.412 336.79C141.545 337.05 141.623 337.335 141.643 337.626C141.663 337.917 141.624 338.21 141.528 338.485L141.538 338.503ZM167.999 317.775C167.858 318.177 167.6 318.529 167.259 318.785C166.919 319.041 166.51 319.191 166.084 319.215C165.658 319.24 165.235 319.137 164.867 318.922C164.5 318.706 164.204 318.386 164.018 318.002C163.832 317.618 163.763 317.188 163.821 316.766C163.879 316.343 164.061 315.947 164.343 315.628C164.625 315.309 164.996 315.08 165.408 314.971C165.821 314.862 166.256 314.877 166.659 315.015C167.199 315.203 167.641 315.598 167.89 316.112C168.14 316.626 168.175 317.218 167.989 317.758L167.999 317.775ZM193.942 288.709C193.483 290.119 192.669 291.387 191.58 292.392C190.49 293.397 189.16 294.106 187.718 294.45C186.147 294.813 184.506 294.738 182.974 294.233C181.177 293.639 179.622 292.478 178.542 290.923C177.461 289.369 176.915 287.506 176.984 285.615C177.053 283.724 177.735 281.906 178.926 280.435C180.117 278.964 181.754 277.919 183.589 277.458C185.161 277.104 186.8 277.179 188.333 277.675C190.529 278.407 192.347 279.976 193.393 282.041C194.438 284.105 194.625 286.5 193.915 288.702L193.942 288.709Z" fill="black"/>
</svg>
