<svg width="512" height="160" viewBox="0 0 512 160" fill="none" xmlns="http://www.w3.org/2000/svg">
<path d="M181.919 74.9606C182.622 74.8261 183.289 74.5451 183.876 74.1359C184.463 73.7268 184.958 73.1986 185.328 72.5857C185.697 71.9729 185.934 71.289 186.022 70.5787C186.11 69.8685 186.047 69.1476 185.838 68.463C185.63 67.7785 185.279 67.1456 184.809 66.6054C184.34 66.0653 183.762 65.63 183.113 65.328C182.464 65.0259 181.759 64.8638 181.043 64.8522C180.328 64.8406 179.617 64.9798 178.959 65.2606C178.317 65.455 177.719 65.7739 177.2 66.1992C176.682 66.6246 176.252 67.1479 175.935 67.7394C175.618 68.3309 175.421 68.979 175.355 69.6467C175.289 70.3143 175.355 70.9885 175.549 71.6306C175.743 72.2728 176.062 72.8704 176.488 73.3893C176.913 73.9082 177.436 74.3383 178.028 74.6549C178.619 74.9716 179.267 75.1686 179.935 75.2348C180.603 75.301 181.277 75.235 181.919 75.0406V74.9606Z" fill="black"/>
<path d="M84.1991 89.962C85.9095 89.4444 87.3444 88.2688 88.1882 86.6936C89.0321 85.1184 89.2158 83.2726 88.6991 81.562C88.1772 79.8501 86.9977 78.415 85.4193 77.5715C83.8409 76.7279 81.9924 76.5447 80.2791 77.062C78.5687 77.5795 77.1339 78.7551 76.29 80.3303C75.4462 81.9055 75.2624 83.7513 75.7791 85.462C76.0353 86.3111 76.4565 87.1013 77.0186 87.7874C77.5808 88.4734 78.2728 89.0417 79.055 89.4598C79.8373 89.8778 80.6943 90.1374 81.577 90.2235C82.4598 90.3097 83.3508 90.2208 84.1991 89.962Z" fill="black"/>
<path d="M237.48 80.9606C237.48 80.9606 303.8 83.8206 318.34 83.7206C318.34 83.7206 329.3 84.1606 332.14 87.7206C333.806 89.8083 334.951 92.2626 335.48 94.8806C335.48 94.8806 401.1 94.3406 424.98 80.7006L319.78 58.3406C319.78 58.3406 294.2 68.3406 243.56 50.1406C243.56 50.1406 241 56.6206 240.28 58.8406C239.292 62.8739 238.538 66.9606 238.02 71.0806C237.623 74.3457 237.423 77.6316 237.42 80.9206L237.48 80.9606Z" fill="black"/>
<path d="M233.84 84.4408V83.5208V81.0009C233.836 77.5243 234.05 74.0508 234.48 70.6008C234.995 66.2673 235.79 61.9717 236.86 57.7409C237.6 55.4609 240.12 49.1009 240.2 48.8409L240.54 48.0009C240.224 47.842 239.896 47.7083 239.56 47.6009C238.52 47.3009 238.6 47.3009 237.16 46.9209C235.72 46.5409 232.84 45.6809 231 45.2409C229.149 44.78 227.195 45.0074 225.5 45.8809C225.24 46.0209 224.78 46.2609 224.5 46.4409C222.459 47.6202 220.699 49.2291 219.342 51.1561C217.985 53.0831 217.063 55.2821 216.64 57.6008C216.613 57.7126 216.613 57.8291 216.64 57.9409C216.52 63.2409 215.88 66.0808 217.06 71.9408C218.24 77.8008 220.8 88.3008 217.72 94.2408L214.58 100.241C213.06 102.701 210.58 105.101 209.28 106.981C209.28 106.981 209.28 106.981 209.18 107.101C209.08 107.221 209 107.401 208.76 107.761C208.08 108.841 207.64 112.541 209.4 113.041L226.12 114.521C228.58 114.101 229.5 110.521 230.76 107.321C231.921 103.379 232.849 99.372 233.54 95.3208M222.08 107.921C221.692 108.274 221.209 108.503 220.691 108.58C220.173 108.658 219.643 108.579 219.17 108.355C218.697 108.13 218.301 107.77 218.033 107.32C217.765 106.87 217.637 106.35 217.666 105.827C217.694 105.304 217.877 104.801 218.192 104.382C218.507 103.964 218.939 103.648 219.434 103.476C219.929 103.304 220.463 103.283 220.97 103.415C221.477 103.548 221.933 103.828 222.28 104.221C222.522 104.486 222.708 104.798 222.825 105.138C222.942 105.478 222.988 105.838 222.96 106.196C222.932 106.554 222.83 106.903 222.662 107.22C222.493 107.538 222.261 107.817 221.98 108.041L222.08 107.921Z" fill="black"/>
<path d="M333.62 97.6419L332.8 95.6419C331.922 93.4869 330.743 91.4669 329.3 89.6419C328.097 88.5181 326.653 87.6836 325.08 87.2019C322.828 86.586 320.485 86.3761 318.159 86.5819C307.439 86.5819 268.779 85.6219 249.019 85.0619L240.879 84.6819L237.479 84.4219V95.5819L244.799 96.3419C246.079 96.4619 289.119 98.3419 289.119 98.3419C296.179 98.9619 323.42 98.6419 329.3 109.482L333.62 97.6419Z" fill="black"/>
<path d="M445.08 73.2617L427.26 80.9617L419.48 85.2617C395.02 99.2617 339.24 98.6017 336.9 98.5617H334.52L331.04 111.762C360.22 112.822 390.4 112.122 417.82 102.302L445.08 73.2617Z" fill="black"/>
<path d="M333.119 51.3606C329.619 51.2606 322.839 57.2606 322.359 57.2606L425.879 79.2606L445.119 72.9406L408.579 66.5006C408.344 66.4589 408.103 66.4725 407.874 66.5403C407.645 66.6081 407.434 66.7282 407.26 66.8912C407.085 67.0541 406.951 67.2554 406.868 67.4792C406.784 67.703 406.754 67.9431 406.779 68.1806L406.999 70.1806C407.099 71.1406 406.519 71.7606 405.679 71.6006C405.234 71.4661 404.836 71.2059 404.535 70.8511C404.233 70.4964 404.04 70.0622 403.979 69.6006L403.579 65.6006L401.579 65.2406L401.919 69.2406C401.964 69.4424 401.957 69.6519 401.899 69.8503C401.842 70.0487 401.736 70.2296 401.591 70.3766C401.446 70.5237 401.266 70.6321 401.069 70.6922C400.871 70.7523 400.662 70.762 400.459 70.7206C399.983 70.5829 399.558 70.3054 399.241 69.9239C398.923 69.5424 398.728 69.0745 398.679 68.5806L398.399 64.7806L396.219 64.4006L396.459 68.1206C396.491 68.333 396.47 68.5499 396.399 68.7524C396.327 68.955 396.208 69.137 396.05 69.2828C395.892 69.4286 395.701 69.5338 395.494 69.5892C395.287 69.6445 395.069 69.6485 394.859 69.6006C394.354 69.473 393.9 69.1903 393.563 68.7922C393.226 68.3941 393.022 67.9005 392.979 67.3806L392.799 63.7806L390.459 63.2606L390.579 66.7806C390.6 67.0107 390.565 67.2424 390.477 67.456C390.389 67.6696 390.251 67.859 390.074 68.008C389.898 68.1571 389.688 68.2615 389.462 68.3124C389.237 68.3633 389.003 68.3593 388.779 68.3006C388.241 68.1882 387.753 67.9026 387.392 67.4873C387.031 67.0719 386.816 66.5498 386.779 66.0006V62.5806L384.259 62.1406V65.4406C384.264 65.6874 384.212 65.9319 384.106 66.1551C384.001 66.3782 383.845 66.574 383.652 66.727C383.458 66.88 383.231 66.9861 382.99 67.0371C382.748 67.088 382.498 67.0824 382.259 67.0206C381.706 66.9006 381.209 66.5993 380.847 66.1645C380.484 65.7297 380.278 65.1863 380.259 64.6206V61.4406L377.479 60.9606V64.0406C377.466 64.3045 377.393 64.5619 377.266 64.7934C377.139 65.0248 376.96 65.2242 376.744 65.3765C376.529 65.5288 376.281 65.6299 376.02 65.6722C375.759 65.7145 375.492 65.6969 375.239 65.6206C374.65 65.516 374.115 65.2129 373.722 64.7617C373.329 64.3106 373.102 63.7385 373.079 63.1406L373.199 60.2006L370.239 59.7006L370.059 62.5406C370.016 62.8183 369.914 63.0837 369.761 63.3195C369.608 63.5552 369.407 63.7561 369.171 63.9089C368.935 64.0618 368.67 64.1632 368.392 64.2066C368.114 64.2499 367.831 64.2343 367.559 64.1606C366.932 64.0619 366.359 63.7451 365.942 63.2659C365.525 62.7867 365.29 62.1758 365.279 61.5406L365.479 58.8606L362.239 58.3006L361.979 60.8806C361.92 61.1823 361.798 61.4682 361.621 61.7194C361.444 61.9706 361.216 62.1815 360.951 62.3383C360.687 62.495 360.392 62.5941 360.087 62.629C359.782 62.6638 359.472 62.6337 359.179 62.5406C358.518 62.4501 357.911 62.1264 357.467 61.6276C357.023 61.1289 356.772 60.488 356.759 59.8206L357.059 57.4006L353.479 56.7806L353.159 59.0806C353.073 59.4056 352.921 59.7094 352.712 59.9733C352.504 60.2372 352.244 60.4555 351.947 60.6148C351.651 60.7741 351.326 60.871 350.991 60.8996C350.656 60.9281 350.318 60.8876 349.999 60.7806C349.294 60.7054 348.643 60.3672 348.176 59.8335C347.709 59.2997 347.46 58.6096 347.479 57.9006L347.839 55.7806L343.839 55.1006L343.479 57.1006C343.226 57.7937 342.712 58.3608 342.048 58.6818C341.383 59.0029 340.62 59.0527 339.919 58.8206C338.139 58.4806 337.219 56.5206 336.719 55.2406L335.419 52.8406L334.519 51.7406C334.08 51.54 333.602 51.4376 333.119 51.4406V51.3606Z" fill="black"/>
<path d="M213.76 76.4009C213.48 75.1209 213.26 74.0809 213.16 73.4209C212.394 68.3201 212.334 63.1383 212.98 58.0209C213.1 57.2009 213.24 56.4009 213.4 55.6809C214.219 52.7193 215.575 49.9332 217.4 47.4609C215.4 47.8209 213.06 48.3409 211.58 48.7009C209.656 49.0593 207.754 49.5199 205.88 50.0809C190.82 55.6809 167.24 50.4009 167.24 50.4009C147.48 43.2609 121.98 51.9209 116.3 54.0209C115.613 54.2987 114.945 54.6193 114.3 54.9809C104.434 60.1594 93.4412 62.8183 82.2996 62.7209C81.9512 62.712 81.6052 62.7809 81.2868 62.9228C80.9685 63.0647 80.6859 63.2759 80.4596 63.5409L66.7396 79.8409C66.4377 80.2003 66.2498 80.6415 66.1999 81.1082C66.15 81.5749 66.2404 82.0459 66.4596 82.4609C69.2796 87.8409 79.5396 107.321 82.9596 113.801C83.0801 114.03 83.2573 114.225 83.4743 114.367C83.6913 114.508 83.9409 114.592 84.1994 114.61C84.4579 114.628 84.7167 114.58 84.9513 114.47C85.1859 114.36 85.3884 114.191 85.5396 113.981C99.6796 95.7809 110.72 95.9809 115.12 96.9609C115.734 97.1279 116.383 97.1209 116.994 96.9408C117.605 96.7607 118.154 96.4146 118.58 95.9409C128.92 83.9409 142.58 89.7009 146.92 92.1009C147.373 92.3379 147.885 92.4412 148.394 92.3987C148.904 92.3562 149.392 92.1697 149.8 91.861C158.68 85.601 165.48 85.861 170.1 87.861C174.059 89.6867 177.131 93.0104 178.64 97.1009C182.96 107.861 185.96 103.841 185.96 103.841C192.98 77.4009 212.88 89.8409 212.88 89.8409C213.556 90.2279 214.074 90.8418 214.341 91.574C214.608 92.3061 214.608 93.1092 214.34 93.8409C214.46 93.6209 214.94 92.7009 215.08 92.4809C216.3 90.6209 215.9 85.181 213.94 76.2809L213.76 76.4009ZM89.1596 91.2609C87.8455 92.4339 86.2555 93.2545 84.5382 93.6463C82.8209 94.038 81.0323 93.988 79.3396 93.5009C77.4816 92.9552 75.8126 91.9025 74.5196 90.4609C73.6098 89.4487 72.9083 88.2671 72.4553 86.9836C72.0024 85.7002 71.8067 84.34 71.8796 82.9809C71.9494 81.619 72.2895 80.2845 72.8801 79.0553C73.4707 77.826 74.2999 76.7266 75.3196 75.8209C76.6297 74.6414 78.2197 73.8165 79.9384 73.4244C81.6571 73.0324 83.4475 73.0862 85.1396 73.581C87.0033 74.1158 88.68 75.162 89.9796 76.6009C91.8117 78.6499 92.7564 81.3418 92.6065 84.0864C92.4565 86.8309 91.2241 89.4039 89.1796 91.2409L89.1596 91.2609ZM115.98 93.5009C115.544 93.8713 114.98 94.054 114.41 94.009C113.84 93.964 113.311 93.695 112.94 93.2609C112.557 92.8383 112.357 92.2816 112.383 91.7121C112.41 91.1426 112.66 90.6067 113.08 90.221C113.51 89.8468 114.068 89.6526 114.638 89.6786C115.207 89.7047 115.745 89.949 116.14 90.361C116.34 90.5732 116.496 90.8239 116.597 91.0979C116.697 91.3719 116.742 91.6635 116.727 91.9552C116.712 92.2468 116.638 92.5324 116.51 92.7946C116.381 93.0569 116.201 93.2903 115.98 93.4809V93.5009ZM149.26 88.7809C148.936 89.0587 148.537 89.2344 148.114 89.286C147.691 89.3376 147.262 89.2628 146.881 89.071C146.5 88.8791 146.185 88.5789 145.974 88.208C145.764 87.8372 145.668 87.4123 145.698 86.987C145.729 86.5617 145.885 86.1549 146.146 85.818C146.407 85.4811 146.763 85.229 147.167 85.0937C147.571 84.9583 148.007 84.9456 148.418 85.0572C148.83 85.1689 149.199 85.3998 149.48 85.721C149.852 86.1538 150.038 86.7166 149.997 87.2864C149.956 87.8561 149.691 88.3863 149.26 88.7609V88.7809ZM186.26 76.581C185.157 77.5721 183.819 78.2635 182.372 78.5892C180.926 78.9149 179.42 78.8638 178 78.4409C176.457 77.9694 175.074 77.0839 174 75.8809C172.74 74.4678 171.974 72.6842 171.816 70.7981C171.657 68.912 172.115 67.0255 173.121 65.4221C174.127 63.8188 175.626 62.5852 177.393 61.907C179.16 61.2287 181.099 61.1423 182.92 61.6609C184.458 62.1399 185.84 63.0241 186.92 64.2209C188.456 65.9522 189.246 68.2199 189.118 70.5308C188.991 72.8417 187.956 75.0089 186.24 76.5609L186.26 76.581Z" fill="black"/>
</svg>
